<?xml version="1.0" encoding="UTF-8" standalone="no"?>
<!DOCTYPE svg PUBLIC "-//W3C//DTD SVG 1.1//EN"
 "http://www.w3.org/Graphics/SVG/1.1/DTD/svg11.dtd">
<!-- Generated by graphviz version 2.36.0 (20140111.2315)
 -->
<!-- Title: factory::pipeline_base Pages: 1 -->
<svg width="642pt" height="358pt"
 viewBox="0.00 0.00 642.00 358.00" xmlns="http://www.w3.org/2000/svg" xmlns:xlink="http://www.w3.org/1999/xlink">
<g id="graph0" class="graph" transform="scale(1 1) rotate(0) translate(4 354)">
<title>factory::pipeline_base</title>
<polygon fill="white" stroke="none" points="-4,4 -4,-354 638,-354 638,4 -4,4"/>
<!-- Node1 -->
<g id="node1" class="node"><title>Node1</title>
<polygon fill="#bfbfbf" stroke="black" points="0,-117.5 0,-136.5 112,-136.5 112,-117.5 0,-117.5"/>
<text text-anchor="middle" x="56" y="-124.5" font-family="Helvetica,sans-Serif" font-size="10.00">factory::pipeline_base</text>
</g>
<!-- Node2 -->
<g id="node2" class="node"><title>Node2</title>
<g id="a_node2"><a xlink:href="classfactory_1_1basic__pipeline.html" target="_top" xlink:title="factory::basic_pipeline\&lt; T \&gt;">
<polygon fill="white" stroke="black" points="148,-273.5 148,-292.5 286,-292.5 286,-273.5 148,-273.5"/>
<text text-anchor="middle" x="217" y="-280.5" font-family="Helvetica,sans-Serif" font-size="10.00">factory::basic_pipeline&lt; T &gt;</text>
</a>
</g>
</g>
<!-- Node1&#45;&gt;Node2 -->
<g id="edge1" class="edge"><title>Node1&#45;&gt;Node2</title>
<path fill="none" stroke="midnightblue" d="M69.7728,-145.166C86.2787,-167.912 116.639,-207.367 148,-236 164.215,-250.805 185.337,-264.701 199.709,-273.487"/>
<polygon fill="midnightblue" stroke="midnightblue" points="72.4408,-142.88 63.773,-136.787 66.7496,-146.955 72.4408,-142.88"/>
</g>
<!-- Node5 -->
<g id="node5" class="node"><title>Node5</title>
<g id="a_node5"><a xlink:href="classfactory_1_1basic__pipeline.html" target="_top" xlink:title="factory::basic_pipeline\l\&lt; T, Kernels, Traits,\l Threads, Mutex, Lock,\l Semaphore \&gt;">
<polygon fill="white" stroke="black" points="158,-175 158,-227 276,-227 276,-175 158,-175"/>
<text text-anchor="start" x="166" y="-215" font-family="Helvetica,sans-Serif" font-size="10.00">factory::basic_pipeline</text>
<text text-anchor="start" x="166" y="-204" font-family="Helvetica,sans-Serif" font-size="10.00">&lt; T, Kernels, Traits,</text>
<text text-anchor="start" x="166" y="-193" font-family="Helvetica,sans-Serif" font-size="10.00"> Threads, Mutex, Lock,</text>
<text text-anchor="middle" x="217" y="-182" font-family="Helvetica,sans-Serif" font-size="10.00"> Semaphore &gt;</text>
</a>
</g>
</g>
<!-- Node1&#45;&gt;Node5 -->
<g id="edge4" class="edge"><title>Node1&#45;&gt;Node5</title>
<path fill="none" stroke="midnightblue" d="M86.6422,-140.796C107.243,-150.384 135.334,-163.457 160.075,-174.972"/>
<polygon fill="midnightblue" stroke="midnightblue" points="88.004,-137.569 77.461,-136.523 85.0503,-143.915 88.004,-137.569"/>
</g>
<!-- Node15 -->
<g id="node15" class="node"><title>Node15</title>
<g id="a_node15"><a xlink:href="classfactory_1_1Factory.html" target="_top" xlink:title="factory::Factory\&lt; T \&gt;">
<polygon fill="white" stroke="black" points="162,-136.5 162,-155.5 272,-155.5 272,-136.5 162,-136.5"/>
<text text-anchor="middle" x="217" y="-143.5" font-family="Helvetica,sans-Serif" font-size="10.00">factory::Factory&lt; T &gt;</text>
</a>
</g>
</g>
<!-- Node1&#45;&gt;Node15 -->
<g id="edge14" class="edge"><title>Node1&#45;&gt;Node15</title>
<path fill="none" stroke="midnightblue" d="M122.104,-134.78C135.274,-136.354 148.99,-137.992 161.739,-139.516"/>
<polygon fill="midnightblue" stroke="midnightblue" points="122.509,-131.303 112.164,-133.592 121.678,-138.254 122.509,-131.303"/>
</g>
<!-- Node16 -->
<g id="node16" class="node"><title>Node16</title>
<g id="a_node16"><a xlink:href="classfactory_1_1Multi__pipeline.html" target="_top" xlink:title="factory::Multi_pipeline\&lt; T \&gt;">
<polygon fill="white" stroke="black" points="149,-98.5 149,-117.5 285,-117.5 285,-98.5 149,-98.5"/>
<text text-anchor="middle" x="217" y="-105.5" font-family="Helvetica,sans-Serif" font-size="10.00">factory::Multi_pipeline&lt; T &gt;</text>
</a>
</g>
</g>
<!-- Node1&#45;&gt;Node16 -->
<g id="edge15" class="edge"><title>Node1&#45;&gt;Node16</title>
<path fill="none" stroke="midnightblue" d="M122.316,-119.195C131.08,-118.148 140.081,-117.072 148.876,-116.021"/>
<polygon fill="midnightblue" stroke="midnightblue" points="121.678,-115.746 112.164,-120.408 122.509,-122.697 121.678,-115.746"/>
</g>
<!-- Node17 -->
<g id="node17" class="node"><title>Node17</title>
<g id="a_node17"><a xlink:href="classfactory_1_1process__handler.html" target="_top" xlink:title="factory::process_handler\l\&lt; T, Router \&gt;">
<polygon fill="white" stroke="black" points="155,-49 155,-79 279,-79 279,-49 155,-49"/>
<text text-anchor="start" x="163" y="-67" font-family="Helvetica,sans-Serif" font-size="10.00">factory::process_handler</text>
<text text-anchor="middle" x="217" y="-56" font-family="Helvetica,sans-Serif" font-size="10.00">&lt; T, Router &gt;</text>
</a>
</g>
</g>
<!-- Node1&#45;&gt;Node17 -->
<g id="edge16" class="edge"><title>Node1&#45;&gt;Node17</title>
<path fill="none" stroke="midnightblue" d="M88.9878,-113.245C106.369,-105.871 128.282,-96.7373 148,-89 156.43,-85.6919 165.498,-82.267 174.177,-79.0528"/>
<polygon fill="midnightblue" stroke="midnightblue" points="87.1572,-110.22 79.3284,-117.359 89.9002,-116.66 87.1572,-110.22"/>
</g>
<!-- Node18 -->
<g id="node18" class="node"><title>Node18</title>
<g id="a_node18"><a xlink:href="classfactory_1_1remote__client.html" target="_top" xlink:title="factory::remote_client\l\&lt; T, Socket, Router \&gt;">
<polygon fill="white" stroke="black" points="160.5,-0 160.5,-30 273.5,-30 273.5,-0 160.5,-0"/>
<text text-anchor="start" x="168.5" y="-18" font-family="Helvetica,sans-Serif" font-size="10.00">factory::remote_client</text>
<text text-anchor="middle" x="217" y="-7" font-family="Helvetica,sans-Serif" font-size="10.00">&lt; T, Socket, Router &gt;</text>
</a>
</g>
</g>
<!-- Node1&#45;&gt;Node18 -->
<g id="edge17" class="edge"><title>Node1&#45;&gt;Node18</title>
<path fill="none" stroke="midnightblue" d="M70.9566,-109.576C87.4843,-89.9681 116.74,-58.3367 148,-39 153.43,-35.6412 159.395,-32.6681 165.467,-30.0604"/>
<polygon fill="midnightblue" stroke="midnightblue" points="68.1554,-107.472 64.4901,-117.412 73.5545,-111.927 68.1554,-107.472"/>
</g>
<!-- Node3 -->
<g id="node3" class="node"><title>Node3</title>
<g id="a_node3"><a xlink:href="classfactory_1_1parallel__pipeline.html" target="_top" xlink:title="factory::parallel_pipeline\&lt; T \&gt;">
<polygon fill="white" stroke="black" points="322,-330.5 322,-349.5 468,-349.5 468,-330.5 322,-330.5"/>
<text text-anchor="middle" x="395" y="-337.5" font-family="Helvetica,sans-Serif" font-size="10.00">factory::parallel_pipeline&lt; T &gt;</text>
</a>
</g>
</g>
<!-- Node2&#45;&gt;Node3 -->
<g id="edge2" class="edge"><title>Node2&#45;&gt;Node3</title>
<path fill="none" stroke="midnightblue" d="M253.118,-296.193C273.177,-303.552 298.866,-312.682 322,-320 333.503,-323.639 346.151,-327.273 357.593,-330.426"/>
<polygon fill="midnightblue" stroke="midnightblue" points="254.066,-292.812 243.473,-292.632 251.642,-299.379 254.066,-292.812"/>
</g>
<!-- Node4 -->
<g id="node4" class="node"><title>Node4</title>
<g id="a_node4"><a xlink:href="structfactory_1_1io__pipeline.html" target="_top" xlink:title="factory::io_pipeline\&lt; T \&gt;">
<polygon fill="white" stroke="black" points="508,-330.5 508,-349.5 630,-349.5 630,-330.5 508,-330.5"/>
<text text-anchor="middle" x="569" y="-337.5" font-family="Helvetica,sans-Serif" font-size="10.00">factory::io_pipeline&lt; T &gt;</text>
</a>
</g>
</g>
<!-- Node3&#45;&gt;Node4 -->
<g id="edge3" class="edge"><title>Node3&#45;&gt;Node4</title>
<path fill="none" stroke="midnightblue" d="M478.664,-340C488.511,-340 498.416,-340 507.863,-340"/>
<polygon fill="midnightblue" stroke="midnightblue" points="478.445,-336.5 468.445,-340 478.445,-343.5 478.445,-336.5"/>
</g>
<!-- Node6 -->
<g id="node6" class="node"><title>Node6</title>
<g id="a_node6"><a xlink:href="structfactory_1_1basic__socket__pipeline.html" target="_top" xlink:title="basic_socket_pipeline\l\&lt; T, process_handler\l\&lt; T, basic_router\&lt; T \&gt; \&gt; \&gt;">
<polygon fill="white" stroke="black" points="328.5,-270.5 328.5,-311.5 461.5,-311.5 461.5,-270.5 328.5,-270.5"/>
<text text-anchor="start" x="336.5" y="-299.5" font-family="Helvetica,sans-Serif" font-size="10.00">basic_socket_pipeline</text>
<text text-anchor="start" x="336.5" y="-288.5" font-family="Helvetica,sans-Serif" font-size="10.00">&lt; T, process_handler</text>
<text text-anchor="middle" x="395" y="-277.5" font-family="Helvetica,sans-Serif" font-size="10.00">&lt; T, basic_router&lt; T &gt; &gt; &gt;</text>
</a>
</g>
</g>
<!-- Node5&#45;&gt;Node6 -->
<g id="edge5" class="edge"><title>Node5&#45;&gt;Node6</title>
<path fill="none" stroke="midnightblue" d="M270.32,-232.161C286.669,-241.495 304.904,-251.502 322,-260 329.068,-263.513 336.63,-267.026 344.098,-270.358"/>
<polygon fill="midnightblue" stroke="midnightblue" points="271.864,-229.011 261.45,-227.058 268.373,-235.078 271.864,-229.011"/>
</g>
<!-- Node8 -->
<g id="node8" class="node"><title>Node8</title>
<g id="a_node8"><a xlink:href="structfactory_1_1basic__socket__pipeline.html" target="_top" xlink:title="basic_socket_pipeline\l\&lt; T, process_handler\l\&lt; T, Router \&gt; \&gt;">
<polygon fill="white" stroke="black" points="338.5,-210.5 338.5,-251.5 451.5,-251.5 451.5,-210.5 338.5,-210.5"/>
<text text-anchor="start" x="346.5" y="-239.5" font-family="Helvetica,sans-Serif" font-size="10.00">basic_socket_pipeline</text>
<text text-anchor="start" x="346.5" y="-228.5" font-family="Helvetica,sans-Serif" font-size="10.00">&lt; T, process_handler</text>
<text text-anchor="middle" x="395" y="-217.5" font-family="Helvetica,sans-Serif" font-size="10.00">&lt; T, Router &gt; &gt;</text>
</a>
</g>
</g>
<!-- Node5&#45;&gt;Node8 -->
<g id="edge7" class="edge"><title>Node5&#45;&gt;Node8</title>
<path fill="none" stroke="midnightblue" d="M286.141,-212.615C303.413,-215.559 321.763,-218.687 338.335,-221.512"/>
<polygon fill="midnightblue" stroke="midnightblue" points="286.563,-209.136 276.117,-210.906 285.386,-216.037 286.563,-209.136"/>
</g>
<!-- Node11 -->
<g id="node11" class="node"><title>Node11</title>
<g id="a_node11"><a xlink:href="structfactory_1_1basic__socket__pipeline.html" target="_top" xlink:title="basic_socket_pipeline\l\&lt; T, remote_client\&lt; T,\l Socket, Router \&gt; \&gt;">
<polygon fill="white" stroke="black" points="338,-150.5 338,-191.5 452,-191.5 452,-150.5 338,-150.5"/>
<text text-anchor="start" x="346" y="-179.5" font-family="Helvetica,sans-Serif" font-size="10.00">basic_socket_pipeline</text>
<text text-anchor="start" x="346" y="-168.5" font-family="Helvetica,sans-Serif" font-size="10.00">&lt; T, remote_client&lt; T,</text>
<text text-anchor="middle" x="395" y="-157.5" font-family="Helvetica,sans-Serif" font-size="10.00"> Socket, Router &gt; &gt;</text>
</a>
</g>
</g>
<!-- Node5&#45;&gt;Node11 -->
<g id="edge10" class="edge"><title>Node5&#45;&gt;Node11</title>
<path fill="none" stroke="midnightblue" d="M286.039,-189.402C303.135,-186.488 321.291,-183.394 337.74,-180.59"/>
<polygon fill="midnightblue" stroke="midnightblue" points="285.386,-185.963 276.117,-191.094 286.563,-192.864 285.386,-185.963"/>
</g>
<!-- Node13 -->
<g id="node13" class="node"><title>Node13</title>
<g id="a_node13"><a xlink:href="structfactory_1_1basic__socket__pipeline.html" target="_top" xlink:title="factory::basic_socket\l_pipeline\&lt; T, Handler \&gt;">
<polygon fill="white" stroke="black" points="335.5,-102 335.5,-132 454.5,-132 454.5,-102 335.5,-102"/>
<text text-anchor="start" x="343.5" y="-120" font-family="Helvetica,sans-Serif" font-size="10.00">factory::basic_socket</text>
<text text-anchor="middle" x="395" y="-109" font-family="Helvetica,sans-Serif" font-size="10.00">_pipeline&lt; T, Handler &gt;</text>
</a>
</g>
</g>
<!-- Node5&#45;&gt;Node13 -->
<g id="edge12" class="edge"><title>Node5&#45;&gt;Node13</title>
<path fill="none" stroke="midnightblue" d="M277.803,-169.78C280.588,-168.188 283.332,-166.59 286,-165 302.519,-155.155 304.726,-149.449 322,-141 328.628,-137.758 335.802,-134.786 342.965,-132.121"/>
<polygon fill="midnightblue" stroke="midnightblue" points="275.824,-166.877 268.817,-174.823 279.25,-172.981 275.824,-166.877"/>
</g>
<!-- Node14 -->
<g id="node14" class="node"><title>Node14</title>
<g id="a_node14"><a xlink:href="structfactory_1_1timer__pipeline.html" target="_top" xlink:title="factory::timer_pipeline\&lt; T \&gt;">
<polygon fill="white" stroke="black" points="326.5,-63.5 326.5,-82.5 463.5,-82.5 463.5,-63.5 326.5,-63.5"/>
<text text-anchor="middle" x="395" y="-70.5" font-family="Helvetica,sans-Serif" font-size="10.00">factory::timer_pipeline&lt; T &gt;</text>
</a>
</g>
</g>
<!-- Node5&#45;&gt;Node14 -->
<g id="edge13" class="edge"><title>Node5&#45;&gt;Node14</title>
<path fill="none" stroke="midnightblue" d="M282.653,-168.243C283.806,-167.189 284.924,-166.108 286,-165 311.209,-139.055 293.993,-114.896 322,-92 326.704,-88.1543 332.108,-85.0802 337.796,-82.6241"/>
<polygon fill="midnightblue" stroke="midnightblue" points="280.125,-165.788 274.587,-174.821 284.549,-171.213 280.125,-165.788"/>
</g>
<!-- Node7 -->
<g id="node7" class="node"><title>Node7</title>
<g id="a_node7"><a xlink:href="structfactory_1_1child__process__pipeline.html" target="_top" xlink:title="factory::child_process\l_pipeline\&lt; T, basic_router\l\&lt; T \&gt; \&gt;">
<polygon fill="white" stroke="black" points="504.5,-270.5 504.5,-311.5 633.5,-311.5 633.5,-270.5 504.5,-270.5"/>
<text text-anchor="start" x="512.5" y="-299.5" font-family="Helvetica,sans-Serif" font-size="10.00">factory::child_process</text>
<text text-anchor="start" x="512.5" y="-288.5" font-family="Helvetica,sans-Serif" font-size="10.00">_pipeline&lt; T, basic_router</text>
<text text-anchor="middle" x="569" y="-277.5" font-family="Helvetica,sans-Serif" font-size="10.00">&lt; T &gt; &gt;</text>
</a>
</g>
</g>
<!-- Node6&#45;&gt;Node7 -->
<g id="edge6" class="edge"><title>Node6&#45;&gt;Node7</title>
<path fill="none" stroke="midnightblue" d="M471.838,-291C482.698,-291 493.777,-291 504.37,-291"/>
<polygon fill="midnightblue" stroke="midnightblue" points="471.517,-287.5 461.516,-291 471.516,-294.5 471.517,-287.5"/>
</g>
<!-- Node9 -->
<g id="node9" class="node"><title>Node9</title>
<g id="a_node9"><a xlink:href="structfactory_1_1child__process__pipeline.html" target="_top" xlink:title="factory::child_process\l_pipeline\&lt; T, Router \&gt;">
<polygon fill="white" stroke="black" points="512,-222 512,-252 626,-252 626,-222 512,-222"/>
<text text-anchor="start" x="520" y="-240" font-family="Helvetica,sans-Serif" font-size="10.00">factory::child_process</text>
<text text-anchor="middle" x="569" y="-229" font-family="Helvetica,sans-Serif" font-size="10.00">_pipeline&lt; T, Router &gt;</text>
</a>
</g>
</g>
<!-- Node8&#45;&gt;Node9 -->
<g id="edge8" class="edge"><title>Node8&#45;&gt;Node9</title>
<path fill="none" stroke="midnightblue" d="M461.938,-233.3C478.402,-233.875 495.906,-234.485 511.848,-235.041"/>
<polygon fill="midnightblue" stroke="midnightblue" points="461.959,-229.799 451.843,-232.948 461.715,-236.795 461.959,-229.799"/>
</g>
<!-- Node10 -->
<g id="node10" class="node"><title>Node10</title>
<g id="a_node10"><a xlink:href="structfactory_1_1process__pipeline.html" target="_top" xlink:title="factory::process_pipeline\l\&lt; T, Router \&gt;">
<polygon fill="white" stroke="black" points="506.5,-173 506.5,-203 631.5,-203 631.5,-173 506.5,-173"/>
<text text-anchor="start" x="514.5" y="-191" font-family="Helvetica,sans-Serif" font-size="10.00">factory::process_pipeline</text>
<text text-anchor="middle" x="569" y="-180" font-family="Helvetica,sans-Serif" font-size="10.00">&lt; T, Router &gt;</text>
</a>
</g>
</g>
<!-- Node8&#45;&gt;Node10 -->
<g id="edge9" class="edge"><title>Node8&#45;&gt;Node10</title>
<path fill="none" stroke="midnightblue" d="M461.693,-214.577C476.911,-210.772 493.029,-206.743 507.989,-203.003"/>
<polygon fill="midnightblue" stroke="midnightblue" points="460.696,-211.218 451.843,-217.039 462.394,-218.009 460.696,-211.218"/>
</g>
<!-- Node12 -->
<g id="node12" class="node"><title>Node12</title>
<g id="a_node12"><a xlink:href="structfactory_1_1socket__pipeline.html" target="_top" xlink:title="factory::socket_pipeline\l\&lt; T, Socket, Router \&gt;">
<polygon fill="white" stroke="black" points="509,-124 509,-154 629,-154 629,-124 509,-124"/>
<text text-anchor="start" x="517" y="-142" font-family="Helvetica,sans-Serif" font-size="10.00">factory::socket_pipeline</text>
<text text-anchor="middle" x="569" y="-131" font-family="Helvetica,sans-Serif" font-size="10.00">&lt; T, Socket, Router &gt;</text>
</a>
</g>
</g>
<!-- Node11&#45;&gt;Node12 -->
<g id="edge11" class="edge"><title>Node11&#45;&gt;Node12</title>
<path fill="none" stroke="midnightblue" d="M462.262,-158.672C477.62,-155.815 493.866,-152.792 508.894,-149.996"/>
<polygon fill="midnightblue" stroke="midnightblue" points="461.51,-155.252 452.319,-160.522 462.791,-162.134 461.51,-155.252"/>
</g>
</g>
</svg>
