<?xml version="1.0" encoding="UTF-8" standalone="no"?>
<!DOCTYPE svg PUBLIC "-//W3C//DTD SVG 1.1//EN"
 "http://www.w3.org/Graphics/SVG/1.1/DTD/svg11.dtd">
<!-- Generated by graphviz version 2.36.0 (20140111.2315)
 -->
<!-- Title: bsc::kernel_base Pages: 1 -->
<svg width="676pt" height="1264pt"
 viewBox="0.00 0.00 676.00 1264.00" xmlns="http://www.w3.org/2000/svg" xmlns:xlink="http://www.w3.org/1999/xlink">
<g id="graph0" class="graph" transform="scale(1 1) rotate(0) translate(4 1260)">
<title>bsc::kernel_base</title>
<polygon fill="white" stroke="none" points="-4,4 -4,-1260 672,-1260 672,4 -4,4"/>
<!-- Node1 -->
<g id="node1" class="node"><title>Node1</title>
<polygon fill="#bfbfbf" stroke="black" points="0.5,-525.5 0.5,-544.5 91.5,-544.5 91.5,-525.5 0.5,-525.5"/>
<text text-anchor="middle" x="46" y="-532.5" font-family="Helvetica,sans-Serif" font-size="10.00">bsc::kernel_base</text>
</g>
<!-- Node2 -->
<g id="node2" class="node"><title>Node2</title>
<g id="a_node2"><a xlink:href="classbsc_1_1mobile__kernel.html" target="_top" xlink:title="bsc::mobile_kernel">
<polygon fill="white" stroke="black" points="128,-525.5 128,-544.5 226,-544.5 226,-525.5 128,-525.5"/>
<text text-anchor="middle" x="177" y="-532.5" font-family="Helvetica,sans-Serif" font-size="10.00">bsc::mobile_kernel</text>
</a>
</g>
</g>
<!-- Node1&#45;&gt;Node2 -->
<g id="edge1" class="edge"><title>Node1&#45;&gt;Node2</title>
<path fill="none" stroke="midnightblue" d="M101.767,-535C110.421,-535 119.315,-535 127.805,-535"/>
<polygon fill="midnightblue" stroke="midnightblue" points="101.756,-531.5 91.7559,-535 101.756,-538.5 101.756,-531.5"/>
</g>
<!-- Node3 -->
<g id="node3" class="node"><title>Node3</title>
<g id="a_node3"><a xlink:href="structbsc_1_1kernel.html" target="_top" xlink:title="bsc::kernel">
<polygon fill="white" stroke="black" points="262.5,-525.5 262.5,-544.5 327.5,-544.5 327.5,-525.5 262.5,-525.5"/>
<text text-anchor="middle" x="295" y="-532.5" font-family="Helvetica,sans-Serif" font-size="10.00">bsc::kernel</text>
</a>
</g>
</g>
<!-- Node2&#45;&gt;Node3 -->
<g id="edge2" class="edge"><title>Node2&#45;&gt;Node3</title>
<path fill="none" stroke="midnightblue" d="M236.283,-535C245.263,-535 254.233,-535 262.334,-535"/>
<polygon fill="midnightblue" stroke="midnightblue" points="236.187,-531.5 226.187,-535 236.187,-538.5 236.187,-531.5"/>
</g>
<!-- Node4 -->
<g id="node4" class="node"><title>Node4</title>
<g id="a_node4"><a xlink:href="structautoreg_1_1ACF__generator.html" target="_top" xlink:title="autoreg::ACF_generator\&lt; T \&gt;">
<polygon fill="white" stroke="black" points="364.5,-1236.5 364.5,-1255.5 509.5,-1255.5 509.5,-1236.5 364.5,-1236.5"/>
<text text-anchor="middle" x="437" y="-1243.5" font-family="Helvetica,sans-Serif" font-size="10.00">autoreg::ACF_generator&lt; T &gt;</text>
</a>
</g>
</g>
<!-- Node3&#45;&gt;Node4 -->
<g id="edge3" class="edge"><title>Node3&#45;&gt;Node4</title>
<path fill="none" stroke="midnightblue" d="M296.619,-554.841C300.151,-662.578 319.212,-1174.4 364,-1227 367.269,-1230.84 371.213,-1233.95 375.55,-1236.46"/>
<polygon fill="midnightblue" stroke="midnightblue" points="300.113,-554.598 296.294,-544.715 293.116,-554.823 300.113,-554.598"/>
</g>
<!-- Node5 -->
<g id="node5" class="node"><title>Node5</title>
<g id="a_node5"><a xlink:href="structautoreg_1_1Autoreg__coefs.html" target="_top" xlink:title="autoreg::Autoreg_coefs\&lt; T \&gt;">
<polygon fill="white" stroke="black" points="366,-1198.5 366,-1217.5 508,-1217.5 508,-1198.5 366,-1198.5"/>
<text text-anchor="middle" x="437" y="-1205.5" font-family="Helvetica,sans-Serif" font-size="10.00">autoreg::Autoreg_coefs&lt; T &gt;</text>
</a>
</g>
</g>
<!-- Node3&#45;&gt;Node5 -->
<g id="edge4" class="edge"><title>Node3&#45;&gt;Node5</title>
<path fill="none" stroke="midnightblue" d="M296.746,-555.049C300.811,-659.619 321.684,-1139.59 364,-1189 367.28,-1192.83 371.231,-1195.93 375.573,-1198.44"/>
<polygon fill="midnightblue" stroke="midnightblue" points="300.238,-554.773 296.359,-544.913 293.243,-555.04 300.238,-554.773"/>
</g>
<!-- Node6 -->
<g id="node6" class="node"><title>Node6</title>
<g id="a_node6"><a xlink:href="classautoreg_1_1Autoreg__model.html" target="_top" xlink:title="autoreg::Autoreg_model\&lt; T \&gt;">
<polygon fill="white" stroke="black" points="365,-1160.5 365,-1179.5 509,-1179.5 509,-1160.5 365,-1160.5"/>
<text text-anchor="middle" x="437" y="-1167.5" font-family="Helvetica,sans-Serif" font-size="10.00">autoreg::Autoreg_model&lt; T &gt;</text>
</a>
</g>
</g>
<!-- Node3&#45;&gt;Node6 -->
<g id="edge5" class="edge"><title>Node3&#45;&gt;Node6</title>
<path fill="none" stroke="midnightblue" d="M296.899,-555.085C301.581,-655.878 324.493,-1103.57 364,-1150 367.615,-1154.25 372.047,-1157.63 376.919,-1160.33"/>
<polygon fill="midnightblue" stroke="midnightblue" points="300.381,-554.62 296.428,-544.791 293.388,-554.94 300.381,-554.62"/>
</g>
<!-- Node7 -->
<g id="node7" class="node"><title>Node7</title>
<g id="a_node7"><a xlink:href="structautoreg_1_1Generator1.html" target="_top" xlink:title="autoreg::Generator1\l\&lt; T, Grid \&gt;">
<polygon fill="white" stroke="black" points="385.5,-1111 385.5,-1141 488.5,-1141 488.5,-1111 385.5,-1111"/>
<text text-anchor="start" x="393.5" y="-1129" font-family="Helvetica,sans-Serif" font-size="10.00">autoreg::Generator1</text>
<text text-anchor="middle" x="437" y="-1118" font-family="Helvetica,sans-Serif" font-size="10.00">&lt; T, Grid &gt;</text>
</a>
</g>
</g>
<!-- Node3&#45;&gt;Node7 -->
<g id="edge6" class="edge"><title>Node3&#45;&gt;Node7</title>
<path fill="none" stroke="midnightblue" d="M295.665,-555.063C294.554,-645.503 294.412,-1014.61 364,-1101 369.561,-1107.9 377.143,-1112.91 385.308,-1116.53"/>
<polygon fill="midnightblue" stroke="midnightblue" points="299.168,-554.873 295.811,-544.824 292.169,-554.773 299.168,-554.873"/>
</g>
<!-- Node8 -->
<g id="node8" class="node"><title>Node8</title>
<g id="a_node8"><a xlink:href="structautoreg_1_1Solve__Yule__Walker.html" target="_top" xlink:title="autoreg::Solve_Yule\l_Walker\&lt; T \&gt;">
<polygon fill="white" stroke="black" points="385,-1062 385,-1092 489,-1092 489,-1062 385,-1062"/>
<text text-anchor="start" x="393" y="-1080" font-family="Helvetica,sans-Serif" font-size="10.00">autoreg::Solve_Yule</text>
<text text-anchor="middle" x="437" y="-1069" font-family="Helvetica,sans-Serif" font-size="10.00">_Walker&lt; T &gt;</text>
</a>
</g>
</g>
<!-- Node3&#45;&gt;Node8 -->
<g id="edge7" class="edge"><title>Node3&#45;&gt;Node8</title>
<path fill="none" stroke="midnightblue" d="M295.92,-554.931C295.972,-640.24 300.308,-973.83 364,-1052 369.433,-1058.67 376.748,-1063.56 384.641,-1067.15"/>
<polygon fill="midnightblue" stroke="midnightblue" points="299.42,-554.795 295.935,-544.79 292.42,-554.785 299.42,-554.795"/>
</g>
<!-- Node9 -->
<g id="node9" class="node"><title>Node9</title>
<g id="a_node9"><a xlink:href="structautoreg_1_1Wave__surface__generator.html" target="_top" xlink:title="autoreg::Wave_surface\l_generator\&lt; T, Grid \&gt;">
<polygon fill="white" stroke="black" points="378,-1013 378,-1043 496,-1043 496,-1013 378,-1013"/>
<text text-anchor="start" x="386" y="-1031" font-family="Helvetica,sans-Serif" font-size="10.00">autoreg::Wave_surface</text>
<text text-anchor="middle" x="437" y="-1020" font-family="Helvetica,sans-Serif" font-size="10.00">_generator&lt; T, Grid &gt;</text>
</a>
</g>
</g>
<!-- Node3&#45;&gt;Node9 -->
<g id="edge8" class="edge"><title>Node3&#45;&gt;Node9</title>
<path fill="none" stroke="midnightblue" d="M296.223,-554.794C297.514,-634.758 306.187,-933.016 364,-1003 367.877,-1007.69 372.685,-1011.51 377.964,-1014.6"/>
<polygon fill="midnightblue" stroke="midnightblue" points="299.721,-554.583 296.082,-544.633 292.722,-554.68 299.721,-554.583"/>
</g>
<!-- Node10 -->
<g id="node10" class="node"><title>Node10</title>
<g id="a_node10"><a xlink:href="structAutoreg__app.html" target="_top" xlink:title="Autoreg_app">
<polygon fill="white" stroke="black" points="401.5,-974.5 401.5,-993.5 472.5,-993.5 472.5,-974.5 401.5,-974.5"/>
<text text-anchor="middle" x="437" y="-981.5" font-family="Helvetica,sans-Serif" font-size="10.00">Autoreg_app</text>
</a>
</g>
</g>
<!-- Node3&#45;&gt;Node10 -->
<g id="edge9" class="edge"><title>Node3&#45;&gt;Node10</title>
<path fill="none" stroke="midnightblue" d="M296.356,-554.748C298.129,-630.779 308.331,-903.393 364,-965 373.448,-975.455 387.903,-980.452 401.389,-982.742"/>
<polygon fill="midnightblue" stroke="midnightblue" points="299.853,-554.573 296.144,-544.648 292.855,-554.72 299.853,-554.573"/>
</g>
<!-- Node11 -->
<g id="node11" class="node"><title>Node11</title>
<g id="a_node11"><a xlink:href="structBig__kernel.html" target="_top" xlink:title="Big_kernel\&lt; Size \&gt;">
<polygon fill="white" stroke="black" points="387,-936.5 387,-955.5 487,-955.5 487,-936.5 387,-936.5"/>
<text text-anchor="middle" x="437" y="-943.5" font-family="Helvetica,sans-Serif" font-size="10.00">Big_kernel&lt; Size &gt;</text>
</a>
</g>
</g>
<!-- Node3&#45;&gt;Node11 -->
<g id="edge10" class="edge"><title>Node3&#45;&gt;Node11</title>
<path fill="none" stroke="midnightblue" d="M296.71,-555.278C299.656,-627.621 313.248,-871.671 364,-927 370.117,-933.669 378.272,-938.111 386.894,-941.046"/>
<polygon fill="midnightblue" stroke="midnightblue" points="300.191,-554.713 296.313,-544.854 293.196,-554.98 300.191,-554.713"/>
</g>
<!-- Node12 -->
<g id="node12" class="node"><title>Node12</title>
<g id="a_node12"><a xlink:href="classbsc_1_1discovery__timer.html" target="_top" xlink:title="bsc::discovery_timer">
<polygon fill="white" stroke="black" points="383.5,-898.5 383.5,-917.5 490.5,-917.5 490.5,-898.5 383.5,-898.5"/>
<text text-anchor="middle" x="437" y="-905.5" font-family="Helvetica,sans-Serif" font-size="10.00">bsc::discovery_timer</text>
</a>
</g>
</g>
<!-- Node3&#45;&gt;Node12 -->
<g id="edge11" class="edge"><title>Node3&#45;&gt;Node12</title>
<path fill="none" stroke="midnightblue" d="M297.082,-554.606C301.172,-621.539 317.865,-839.605 364,-889 369.295,-894.669 376.062,-898.724 383.322,-901.611"/>
<polygon fill="midnightblue" stroke="midnightblue" points="300.573,-554.347 296.496,-544.568 293.585,-554.756 300.573,-554.347"/>
</g>
<!-- Node13 -->
<g id="node13" class="node"><title>Node13</title>
<g id="a_node13"><a xlink:href="classbsc_1_1hierarchy__kernel.html" target="_top" xlink:title="bsc::hierarchy_kernel">
<polygon fill="white" stroke="black" points="382,-860.5 382,-879.5 492,-879.5 492,-860.5 382,-860.5"/>
<text text-anchor="middle" x="437" y="-867.5" font-family="Helvetica,sans-Serif" font-size="10.00">bsc::hierarchy_kernel</text>
</a>
</g>
</g>
<!-- Node3&#45;&gt;Node13 -->
<g id="edge12" class="edge"><title>Node3&#45;&gt;Node13</title>
<path fill="none" stroke="midnightblue" d="M297.6,-554.892C303.017,-617.313 322.68,-807.732 364,-851 369,-856.236 375.258,-860.09 381.984,-862.917"/>
<polygon fill="midnightblue" stroke="midnightblue" points="301.076,-554.463 296.752,-544.79 294.101,-555.048 301.076,-554.463"/>
</g>
<!-- Node14 -->
<g id="node14" class="node"><title>Node14</title>
<g id="a_node14"><a xlink:href="structbsc_1_1Map.html" target="_top" xlink:title="bsc::Map\&lt; F, G, I \&gt;">
<polygon fill="white" stroke="black" points="385,-822.5 385,-841.5 489,-841.5 489,-822.5 385,-822.5"/>
<text text-anchor="middle" x="437" y="-829.5" font-family="Helvetica,sans-Serif" font-size="10.00">bsc::Map&lt; F, G, I &gt;</text>
</a>
</g>
</g>
<!-- Node3&#45;&gt;Node14 -->
<g id="edge13" class="edge"><title>Node3&#45;&gt;Node14</title>
<path fill="none" stroke="midnightblue" d="M298.288,-554.978C305.224,-612.146 327.789,-774.678 364,-812 369.691,-817.866 376.942,-822.056 384.64,-825.04"/>
<polygon fill="midnightblue" stroke="midnightblue" points="301.727,-554.258 297.077,-544.738 294.775,-555.079 301.727,-554.258"/>
</g>
<!-- Node15 -->
<g id="node15" class="node"><title>Node15</title>
<g id="a_node15"><a xlink:href="structbsc_1_1Map_1_1Worker.html" target="_top" xlink:title="bsc::Map\&lt; F, G, I \&gt;\l::Worker">
<polygon fill="white" stroke="black" points="385,-773 385,-803 489,-803 489,-773 385,-773"/>
<text text-anchor="start" x="393" y="-791" font-family="Helvetica,sans-Serif" font-size="10.00">bsc::Map&lt; F, G, I &gt;</text>
<text text-anchor="middle" x="437" y="-780" font-family="Helvetica,sans-Serif" font-size="10.00">::Worker</text>
</a>
</g>
</g>
<!-- Node3&#45;&gt;Node15 -->
<g id="edge14" class="edge"><title>Node3&#45;&gt;Node15</title>
<path fill="none" stroke="midnightblue" d="M296.157,-554.911C297.588,-598.567 307.122,-703.542 364,-763 369.762,-769.024 377.049,-773.597 384.761,-777.068"/>
<polygon fill="midnightblue" stroke="midnightblue" points="299.653,-554.675 295.94,-544.753 292.655,-554.825 299.653,-554.675"/>
</g>
<!-- Node16 -->
<g id="node16" class="node"><title>Node16</title>
<g id="a_node16"><a xlink:href="classbsc_1_1network__master.html" target="_top" xlink:title="bsc::network_master">
<polygon fill="white" stroke="black" points="383,-734.5 383,-753.5 491,-753.5 491,-734.5 383,-734.5"/>
<text text-anchor="middle" x="437" y="-741.5" font-family="Helvetica,sans-Serif" font-size="10.00">bsc::network_master</text>
</a>
</g>
</g>
<!-- Node3&#45;&gt;Node16 -->
<g id="edge15" class="edge"><title>Node3&#45;&gt;Node16</title>
<path fill="none" stroke="midnightblue" d="M297.226,-554.986C300.702,-593.681 313.941,-679.057 364,-725 369.429,-729.983 376.01,-733.688 382.96,-736.439"/>
<polygon fill="midnightblue" stroke="midnightblue" points="300.682,-554.275 296.43,-544.571 293.702,-554.808 300.682,-554.275"/>
</g>
<!-- Node17 -->
<g id="node17" class="node"><title>Node17</title>
<g id="a_node17"><a xlink:href="classbsc_1_1network__timer.html" target="_top" xlink:title="bsc::network_timer">
<polygon fill="white" stroke="black" points="387,-696.5 387,-715.5 487,-715.5 487,-696.5 387,-696.5"/>
<text text-anchor="middle" x="437" y="-703.5" font-family="Helvetica,sans-Serif" font-size="10.00">bsc::network_timer</text>
</a>
</g>
</g>
<!-- Node3&#45;&gt;Node17 -->
<g id="edge16" class="edge"><title>Node3&#45;&gt;Node17</title>
<path fill="none" stroke="midnightblue" d="M299.181,-554.57C305.512,-587.061 322.804,-652.013 364,-687 370.504,-692.523 378.439,-696.461 386.637,-699.265"/>
<polygon fill="midnightblue" stroke="midnightblue" points="302.591,-553.757 297.378,-544.534 295.701,-554.995 302.591,-553.757"/>
</g>
<!-- Node18 -->
<g id="node18" class="node"><title>Node18</title>
<g id="a_node18"><a xlink:href="classbsc_1_1Notification.html" target="_top" xlink:title="bsc::Notification">
<polygon fill="white" stroke="black" points="393,-658.5 393,-677.5 481,-677.5 481,-658.5 393,-658.5"/>
<text text-anchor="middle" x="437" y="-665.5" font-family="Helvetica,sans-Serif" font-size="10.00">bsc::Notification</text>
</a>
</g>
</g>
<!-- Node3&#45;&gt;Node18 -->
<g id="edge17" class="edge"><title>Node3&#45;&gt;Node18</title>
<path fill="none" stroke="midnightblue" d="M302.299,-554.347C311.638,-579.931 331.624,-624.617 364,-649 372.365,-655.3 382.644,-659.515 392.79,-662.334"/>
<polygon fill="midnightblue" stroke="midnightblue" points="305.526,-552.968 298.944,-544.666 298.912,-555.261 305.526,-552.968"/>
</g>
<!-- Node19 -->
<g id="node19" class="node"><title>Node19</title>
<g id="a_node19"><a xlink:href="classbsc_1_1probe.html" target="_top" xlink:title="bsc::probe">
<polygon fill="white" stroke="black" points="406,-620.5 406,-639.5 468,-639.5 468,-620.5 406,-620.5"/>
<text text-anchor="middle" x="437" y="-627.5" font-family="Helvetica,sans-Serif" font-size="10.00">bsc::probe</text>
</a>
</g>
</g>
<!-- Node3&#45;&gt;Node19 -->
<g id="edge18" class="edge"><title>Node3&#45;&gt;Node19</title>
<path fill="none" stroke="midnightblue" d="M307.635,-553.257C319.672,-570.663 340.049,-596.334 364,-611 376.569,-618.696 392.221,-623.306 405.719,-626.052"/>
<polygon fill="midnightblue" stroke="midnightblue" points="310.296,-550.938 301.836,-544.559 304.471,-554.821 310.296,-550.938"/>
</g>
<!-- Node20 -->
<g id="node20" class="node"><title>Node20</title>
<g id="a_node20"><a xlink:href="classbsc_1_1prober.html" target="_top" xlink:title="bsc::prober">
<polygon fill="white" stroke="black" points="404.5,-582.5 404.5,-601.5 469.5,-601.5 469.5,-582.5 404.5,-582.5"/>
<text text-anchor="middle" x="437" y="-589.5" font-family="Helvetica,sans-Serif" font-size="10.00">bsc::prober</text>
</a>
</g>
</g>
<!-- Node3&#45;&gt;Node20 -->
<g id="edge19" class="edge"><title>Node3&#45;&gt;Node20</title>
<path fill="none" stroke="midnightblue" d="M319.215,-549.897C332.031,-557.62 348.46,-566.725 364,-573 376.827,-578.18 391.509,-582.349 404.255,-585.447"/>
<polygon fill="midnightblue" stroke="midnightblue" points="320.935,-546.845 310.586,-544.576 317.261,-552.804 320.935,-546.845"/>
</g>
<!-- Node21 -->
<g id="node21" class="node"><title>Node21</title>
<g id="a_node21"><a xlink:href="classbsc_1_1resident__kernel.html" target="_top" xlink:title="bsc::resident_kernel">
<polygon fill="white" stroke="black" points="385,-544.5 385,-563.5 489,-563.5 489,-544.5 385,-544.5"/>
<text text-anchor="middle" x="437" y="-551.5" font-family="Helvetica,sans-Serif" font-size="10.00">bsc::resident_kernel</text>
</a>
</g>
</g>
<!-- Node3&#45;&gt;Node21 -->
<g id="edge20" class="edge"><title>Node3&#45;&gt;Node21</title>
<path fill="none" stroke="midnightblue" d="M338.089,-540.712C352.806,-542.709 369.491,-544.974 384.864,-547.06"/>
<polygon fill="midnightblue" stroke="midnightblue" points="338.148,-537.188 327.768,-539.311 337.207,-544.124 338.148,-537.188"/>
</g>
<!-- Node23 -->
<g id="node23" class="node"><title>Node23</title>
<g id="a_node23"><a xlink:href="structDummy__kernel.html" target="_top" xlink:title="Dummy_kernel">
<polygon fill="white" stroke="black" points="395.5,-506.5 395.5,-525.5 478.5,-525.5 478.5,-506.5 395.5,-506.5"/>
<text text-anchor="middle" x="437" y="-513.5" font-family="Helvetica,sans-Serif" font-size="10.00">Dummy_kernel</text>
</a>
</g>
</g>
<!-- Node3&#45;&gt;Node23 -->
<g id="edge22" class="edge"><title>Node3&#45;&gt;Node23</title>
<path fill="none" stroke="midnightblue" d="M337.8,-529.327C355.994,-526.858 377.24,-523.975 395.306,-521.523"/>
<polygon fill="midnightblue" stroke="midnightblue" points="337.207,-525.875 327.768,-530.689 338.148,-532.812 337.207,-525.875"/>
</g>
<!-- Node24 -->
<g id="node24" class="node"><title>Node24</title>
<g id="a_node24"><a xlink:href="structGood__kernel.html" target="_top" xlink:title="Good_kernel">
<polygon fill="white" stroke="black" points="401.5,-468.5 401.5,-487.5 472.5,-487.5 472.5,-468.5 401.5,-468.5"/>
<text text-anchor="middle" x="437" y="-475.5" font-family="Helvetica,sans-Serif" font-size="10.00">Good_kernel</text>
</a>
</g>
</g>
<!-- Node3&#45;&gt;Node24 -->
<g id="edge23" class="edge"><title>Node3&#45;&gt;Node24</title>
<path fill="none" stroke="midnightblue" d="M319.215,-520.103C332.031,-512.38 348.46,-503.275 364,-497 375.868,-492.208 389.324,-488.28 401.366,-485.266"/>
<polygon fill="midnightblue" stroke="midnightblue" points="317.261,-517.196 310.586,-525.424 320.935,-523.155 317.261,-517.196"/>
</g>
<!-- Node27 -->
<g id="node27" class="node"><title>Node27</title>
<g id="a_node27"><a xlink:href="structKernel__that__carries__its__parent.html" target="_top" xlink:title="Kernel_that_carries\l_its_parent">
<polygon fill="white" stroke="black" points="386.5,-419 386.5,-449 487.5,-449 487.5,-419 386.5,-419"/>
<text text-anchor="start" x="394.5" y="-437" font-family="Helvetica,sans-Serif" font-size="10.00">Kernel_that_carries</text>
<text text-anchor="middle" x="437" y="-426" font-family="Helvetica,sans-Serif" font-size="10.00">_its_parent</text>
</a>
</g>
</g>
<!-- Node3&#45;&gt;Node27 -->
<g id="edge26" class="edge"><title>Node3&#45;&gt;Node27</title>
<path fill="none" stroke="midnightblue" d="M308.081,-516.861C320.328,-499.752 340.75,-474.485 364,-459 370.828,-454.452 378.572,-450.641 386.388,-447.476"/>
<polygon fill="midnightblue" stroke="midnightblue" points="304.973,-515.2 302.151,-525.413 310.726,-519.189 304.973,-515.2"/>
</g>
<!-- Node28 -->
<g id="node28" class="node"><title>Node28</title>
<g id="a_node28"><a xlink:href="structLauncher.html" target="_top" xlink:title="Launcher">
<polygon fill="white" stroke="black" points="409,-380.5 409,-399.5 465,-399.5 465,-380.5 409,-380.5"/>
<text text-anchor="middle" x="437" y="-387.5" font-family="Helvetica,sans-Serif" font-size="10.00">Launcher</text>
</a>
</g>
</g>
<!-- Node3&#45;&gt;Node28 -->
<g id="edge27" class="edge"><title>Node3&#45;&gt;Node28</title>
<path fill="none" stroke="midnightblue" d="M301.33,-515.444C309.886,-487.788 329.346,-437.554 364,-410 376.693,-399.907 394.157,-394.902 408.706,-392.423"/>
<polygon fill="midnightblue" stroke="midnightblue" points="297.937,-514.578 298.489,-525.159 304.656,-516.543 297.937,-514.578"/>
</g>
<!-- Node29 -->
<g id="node29" class="node"><title>Node29</title>
<g id="a_node29"><a xlink:href="classMain.html" target="_top" xlink:title="Main">
<polygon fill="white" stroke="black" points="418,-342.5 418,-361.5 456,-361.5 456,-342.5 418,-342.5"/>
<text text-anchor="middle" x="437" y="-349.5" font-family="Helvetica,sans-Serif" font-size="10.00">Main</text>
</a>
</g>
</g>
<!-- Node3&#45;&gt;Node29 -->
<g id="edge28" class="edge"><title>Node3&#45;&gt;Node29</title>
<path fill="none" stroke="midnightblue" d="M296.906,-515.134C300.257,-472.377 314.452,-387.271 364,-344 385.422,-325.292 423.199,-324.706 433.4,-342.048"/>
<polygon fill="midnightblue" stroke="midnightblue" points="293.402,-515.08 296.261,-525.282 300.388,-515.524 293.402,-515.08"/>
</g>
<!-- Node3&#45;&gt;Node29 -->
<g id="edge29" class="edge"><title>Node3&#45;&gt;Node29</title>
<path fill="none" stroke="midnightblue" d="M297.778,-515.165C302.42,-478.657 317.924,-402.239 364,-362 378.996,-348.904 402.005,-344.689 417.96,-345.368"/>
<polygon fill="midnightblue" stroke="midnightblue" points="294.297,-514.803 296.665,-525.13 301.254,-515.58 294.297,-514.803"/>
</g>
<!-- Node3&#45;&gt;Node29 -->
<g id="edge30" class="edge"><title>Node3&#45;&gt;Node29</title>
<path fill="none" stroke="midnightblue" d="M299.404,-515.568C305.628,-482.518 322.284,-416.431 364,-380 378.996,-366.904 402.005,-362.689 417.96,-359.449"/>
<polygon fill="midnightblue" stroke="midnightblue" points="295.957,-514.965 297.673,-525.42 302.851,-516.177 295.957,-514.965"/>
</g>
<!-- Node3&#45;&gt;Node29 -->
<g id="edge31" class="edge"><title>Node3&#45;&gt;Node29</title>
<path fill="none" stroke="midnightblue" d="M302.36,-515.171C310.334,-483.985 327.657,-429.739 364,-398 385.422,-379.292 423.199,-378.706 433.4,-361.776"/>
<polygon fill="midnightblue" stroke="midnightblue" points="298.891,-514.62 299.913,-525.166 305.691,-516.285 298.891,-514.62"/>
</g>
<!-- Node30 -->
<g id="node30" class="node"><title>Node30</title>
<g id="a_node30"><a xlink:href="classmaster__kernel.html" target="_top" xlink:title="master_kernel">
<polygon fill="white" stroke="black" points="398,-304.5 398,-323.5 476,-323.5 476,-304.5 398,-304.5"/>
<text text-anchor="middle" x="437" y="-311.5" font-family="Helvetica,sans-Serif" font-size="10.00">master_kernel</text>
</a>
</g>
</g>
<!-- Node3&#45;&gt;Node30 -->
<g id="edge32" class="edge"><title>Node3&#45;&gt;Node30</title>
<path fill="none" stroke="midnightblue" d="M296.723,-515.142C299.3,-474.73 311.006,-382.571 364,-333 373.158,-324.433 385.713,-319.631 397.776,-316.97"/>
<polygon fill="midnightblue" stroke="midnightblue" points="293.219,-515.132 296.203,-525.298 300.209,-515.49 293.219,-515.132"/>
</g>
<!-- Node31 -->
<g id="node31" class="node"><title>Node31</title>
<g id="a_node31"><a xlink:href="structSender.html" target="_top" xlink:title="Sender">
<polygon fill="white" stroke="black" points="413.5,-266.5 413.5,-285.5 460.5,-285.5 460.5,-266.5 413.5,-266.5"/>
<text text-anchor="middle" x="437" y="-273.5" font-family="Helvetica,sans-Serif" font-size="10.00">Sender</text>
</a>
</g>
</g>
<!-- Node3&#45;&gt;Node31 -->
<g id="edge33" class="edge"><title>Node3&#45;&gt;Node31</title>
<path fill="none" stroke="midnightblue" d="M295.468,-514.951C295.396,-469.125 301.904,-355.983 364,-295 377.005,-282.228 397.526,-277.761 413.339,-276.325"/>
<polygon fill="midnightblue" stroke="midnightblue" points="291.969,-515.124 295.598,-525.078 298.969,-515.034 291.969,-515.124"/>
</g>
<!-- Node32 -->
<g id="node32" class="node"><title>Node32</title>
<g id="a_node32"><a xlink:href="classslave__kernel.html" target="_top" xlink:title="slave_kernel">
<polygon fill="white" stroke="black" points="401.5,-228.5 401.5,-247.5 472.5,-247.5 472.5,-228.5 401.5,-228.5"/>
<text text-anchor="middle" x="437" y="-235.5" font-family="Helvetica,sans-Serif" font-size="10.00">slave_kernel</text>
</a>
</g>
</g>
<!-- Node3&#45;&gt;Node32 -->
<g id="edge34" class="edge"><title>Node3&#45;&gt;Node32</title>
<path fill="none" stroke="midnightblue" d="M298.254,-514.928C305.099,-457.494 327.44,-294.228 364,-257 373.783,-247.038 388.126,-242.1 401.44,-239.72"/>
<polygon fill="midnightblue" stroke="midnightblue" points="294.736,-514.879 297.06,-525.216 301.69,-515.686 294.736,-514.879"/>
</g>
<!-- Node33 -->
<g id="node33" class="node"><title>Node33</title>
<g id="a_node33"><a xlink:href="structSleepy__kernel.html" target="_top" xlink:title="Sleepy_kernel">
<polygon fill="white" stroke="black" points="398,-190.5 398,-209.5 476,-209.5 476,-190.5 398,-190.5"/>
<text text-anchor="middle" x="437" y="-197.5" font-family="Helvetica,sans-Serif" font-size="10.00">Sleepy_kernel</text>
</a>
</g>
</g>
<!-- Node3&#45;&gt;Node33 -->
<g id="edge35" class="edge"><title>Node3&#45;&gt;Node33</title>
<path fill="none" stroke="midnightblue" d="M297.6,-515.108C303.017,-452.687 322.68,-262.268 364,-219 372.839,-209.744 385.61,-204.806 397.949,-202.229"/>
<polygon fill="midnightblue" stroke="midnightblue" points="294.101,-514.952 296.752,-525.21 301.076,-515.537 294.101,-514.952"/>
</g>
<!-- Node34 -->
<g id="node34" class="node"><title>Node34</title>
<g id="a_node34"><a xlink:href="structSpec__app.html" target="_top" xlink:title="Spec_app">
<polygon fill="white" stroke="black" points="407,-152.5 407,-171.5 467,-171.5 467,-152.5 407,-152.5"/>
<text text-anchor="middle" x="437" y="-159.5" font-family="Helvetica,sans-Serif" font-size="10.00">Spec_app</text>
</a>
</g>
</g>
<!-- Node3&#45;&gt;Node34 -->
<g id="edge36" class="edge"><title>Node3&#45;&gt;Node34</title>
<path fill="none" stroke="midnightblue" d="M297.082,-515.394C301.172,-448.461 317.865,-230.395 364,-181 374.854,-169.379 391.899,-164.539 406.681,-162.646"/>
<polygon fill="midnightblue" stroke="midnightblue" points="293.585,-515.244 296.496,-525.432 300.573,-515.653 293.585,-515.244"/>
</g>
<!-- Node35 -->
<g id="node35" class="node"><title>Node35</title>
<g id="a_node35"><a xlink:href="structSpectrum__kernel.html" target="_top" xlink:title="Spectrum_kernel">
<polygon fill="white" stroke="black" points="392,-114.5 392,-133.5 482,-133.5 482,-114.5 392,-114.5"/>
<text text-anchor="middle" x="437" y="-121.5" font-family="Helvetica,sans-Serif" font-size="10.00">Spectrum_kernel</text>
</a>
</g>
</g>
<!-- Node3&#45;&gt;Node35 -->
<g id="edge37" class="edge"><title>Node3&#45;&gt;Node35</title>
<path fill="none" stroke="midnightblue" d="M296.71,-514.722C299.656,-442.379 313.248,-198.329 364,-143 371.253,-135.093 381.372,-130.315 391.735,-127.47"/>
<polygon fill="midnightblue" stroke="midnightblue" points="293.196,-515.02 296.313,-525.146 300.191,-515.287 293.196,-515.02"/>
</g>
<!-- Node36 -->
<g id="node36" class="node"><title>Node36</title>
<g id="a_node36"><a xlink:href="structStation__kernel.html" target="_top" xlink:title="Station_kernel">
<polygon fill="white" stroke="black" points="397.5,-76.5 397.5,-95.5 476.5,-95.5 476.5,-76.5 397.5,-76.5"/>
<text text-anchor="middle" x="437" y="-83.5" font-family="Helvetica,sans-Serif" font-size="10.00">Station_kernel</text>
</a>
</g>
</g>
<!-- Node3&#45;&gt;Node36 -->
<g id="edge38" class="edge"><title>Node3&#45;&gt;Node36</title>
<path fill="none" stroke="midnightblue" d="M296.356,-515.252C298.129,-439.221 308.331,-166.607 364,-105 372.494,-95.5999 385.036,-90.6124 397.282,-88.0366"/>
<polygon fill="midnightblue" stroke="midnightblue" points="292.855,-515.28 296.144,-525.352 299.853,-515.427 292.855,-515.28"/>
</g>
<!-- Node37 -->
<g id="node37" class="node"><title>Node37</title>
<g id="a_node37"><a xlink:href="structTest__socket.html" target="_top" xlink:title="Test_socket">
<polygon fill="white" stroke="black" points="401.5,-38.5 401.5,-57.5 472.5,-57.5 472.5,-38.5 401.5,-38.5"/>
<text text-anchor="middle" x="437" y="-45.5" font-family="Helvetica,sans-Serif" font-size="10.00">Test_socket</text>
</a>
</g>
</g>
<!-- Node3&#45;&gt;Node37 -->
<g id="edge39" class="edge"><title>Node3&#45;&gt;Node37</title>
<path fill="none" stroke="midnightblue" d="M296.052,-515.119C296.633,-433.423 302.782,-126.608 364,-58 373.382,-47.4857 387.827,-42.4805 401.324,-40.8939"/>
<polygon fill="midnightblue" stroke="midnightblue" points="292.551,-515.467 296.001,-525.484 299.55,-515.501 292.551,-515.467"/>
</g>
<!-- Node3&#45;&gt;Node37 -->
<g id="edge40" class="edge"><title>Node3&#45;&gt;Node37</title>
<path fill="none" stroke="midnightblue" d="M296.108,-515.273C296.983,-435.911 304.345,-142.856 364,-76 373.382,-65.4857 387.827,-60.4805 401.324,-57.5045"/>
<polygon fill="midnightblue" stroke="midnightblue" points="292.608,-515.349 296.021,-525.379 299.607,-515.41 292.608,-515.349"/>
</g>
<!-- Node38 -->
<g id="node38" class="node"><title>Node38</title>
<g id="a_node38"><a xlink:href="structYear__kernel.html" target="_top" xlink:title="Year_kernel">
<polygon fill="white" stroke="black" points="403,-0.5 403,-19.5 471,-19.5 471,-0.5 403,-0.5"/>
<text text-anchor="middle" x="437" y="-7.5" font-family="Helvetica,sans-Serif" font-size="10.00">Year_kernel</text>
</a>
</g>
</g>
<!-- Node3&#45;&gt;Node38 -->
<g id="edge41" class="edge"><title>Node3&#45;&gt;Node38</title>
<path fill="none" stroke="midnightblue" d="M295.836,-515.109C295.552,-430.681 298.733,-102.938 364,-29 373.668,-18.048 388.829,-13.0626 402.751,-10.9103"/>
<polygon fill="midnightblue" stroke="midnightblue" points="292.338,-515.375 295.893,-525.355 299.338,-515.336 292.338,-515.375"/>
</g>
<!-- Node22 -->
<g id="node22" class="node"><title>Node22</title>
<g id="a_node22"><a xlink:href="classbsc_1_1master__discoverer.html" target="_top" xlink:title="bsc::master_discoverer">
<polygon fill="white" stroke="black" points="547.5,-544.5 547.5,-563.5 666.5,-563.5 666.5,-544.5 547.5,-544.5"/>
<text text-anchor="middle" x="607" y="-551.5" font-family="Helvetica,sans-Serif" font-size="10.00">bsc::master_discoverer</text>
</a>
</g>
</g>
<!-- Node21&#45;&gt;Node22 -->
<g id="edge21" class="edge"><title>Node21&#45;&gt;Node22</title>
<path fill="none" stroke="midnightblue" d="M499.415,-554C515.065,-554 531.845,-554 547.352,-554"/>
<polygon fill="midnightblue" stroke="midnightblue" points="499.318,-550.5 489.318,-554 499.318,-557.5 499.318,-550.5"/>
</g>
<!-- Node25 -->
<g id="node25" class="node"><title>Node25</title>
<g id="a_node25"><a xlink:href="structKernel__that__reads__more__than__writes.html" target="_top" xlink:title="Kernel_that_reads_more\l_than_writes">
<polygon fill="white" stroke="black" points="546,-479 546,-509 668,-509 668,-479 546,-479"/>
<text text-anchor="start" x="554" y="-497" font-family="Helvetica,sans-Serif" font-size="10.00">Kernel_that_reads_more</text>
<text text-anchor="middle" x="607" y="-486" font-family="Helvetica,sans-Serif" font-size="10.00">_than_writes</text>
</a>
</g>
</g>
<!-- Node24&#45;&gt;Node25 -->
<g id="edge24" class="edge"><title>Node24&#45;&gt;Node25</title>
<path fill="none" stroke="midnightblue" d="M482.839,-482.27C502.141,-484.109 524.997,-486.285 545.747,-488.262"/>
<polygon fill="midnightblue" stroke="midnightblue" points="483.097,-478.779 472.81,-481.315 482.433,-485.748 483.097,-478.779"/>
</g>
<!-- Node26 -->
<g id="node26" class="node"><title>Node26</title>
<g id="a_node26"><a xlink:href="structKernel__that__writes__more__than__reads.html" target="_top" xlink:title="Kernel_that_writes\l_more_than_reads">
<polygon fill="white" stroke="black" points="558,-430 558,-460 656,-460 656,-430 558,-430"/>
<text text-anchor="start" x="566" y="-448" font-family="Helvetica,sans-Serif" font-size="10.00">Kernel_that_writes</text>
<text text-anchor="middle" x="607" y="-437" font-family="Helvetica,sans-Serif" font-size="10.00">_more_than_reads</text>
</a>
</g>
</g>
<!-- Node24&#45;&gt;Node26 -->
<g id="edge25" class="edge"><title>Node24&#45;&gt;Node26</title>
<path fill="none" stroke="midnightblue" d="M482.726,-469.215C505.896,-464.663 534.211,-459.101 557.858,-454.456"/>
<polygon fill="midnightblue" stroke="midnightblue" points="481.948,-465.8 472.81,-471.162 483.297,-472.669 481.948,-465.8"/>
</g>
</g>
</svg>
