<?xml version="1.0" encoding="UTF-8" standalone="no"?>
<!DOCTYPE svg PUBLIC "-//W3C//DTD SVG 1.1//EN"
 "http://www.w3.org/Graphics/SVG/1.1/DTD/svg11.dtd">
<!-- Generated by graphviz version 2.36.0 (20140111.2315)
 -->
<!-- Title: bsc::kernel_header Pages: 1 -->
<svg width="684pt" height="1340pt"
 viewBox="0.00 0.00 684.00 1340.00" xmlns="http://www.w3.org/2000/svg" xmlns:xlink="http://www.w3.org/1999/xlink">
<g id="graph0" class="graph" transform="scale(1 1) rotate(0) translate(4 1336)">
<title>bsc::kernel_header</title>
<polygon fill="white" stroke="none" points="-4,4 -4,-1336 680,-1336 680,4 -4,4"/>
<!-- Node1 -->
<g id="node1" class="node"><title>Node1</title>
<polygon fill="#bfbfbf" stroke="black" points="0.5,-563.5 0.5,-582.5 99.5,-582.5 99.5,-563.5 0.5,-563.5"/>
<text text-anchor="middle" x="50" y="-570.5" font-family="Helvetica,sans-Serif" font-size="10.00">bsc::kernel_header</text>
</g>
<!-- Node2 -->
<g id="node2" class="node"><title>Node2</title>
<g id="a_node2"><a xlink:href="classbsc_1_1mobile__kernel.html" target="_top" xlink:title="bsc::mobile_kernel">
<polygon fill="white" stroke="black" points="136,-563.5 136,-582.5 234,-582.5 234,-563.5 136,-563.5"/>
<text text-anchor="middle" x="185" y="-570.5" font-family="Helvetica,sans-Serif" font-size="10.00">bsc::mobile_kernel</text>
</a>
</g>
</g>
<!-- Node1&#45;&gt;Node2 -->
<g id="edge1" class="edge"><title>Node1&#45;&gt;Node2</title>
<path fill="none" stroke="midnightblue" d="M109.805,-573C118.453,-573 127.277,-573 135.681,-573"/>
<polygon fill="midnightblue" stroke="midnightblue" points="109.769,-569.5 99.7691,-573 109.769,-576.5 109.769,-569.5"/>
</g>
<!-- Node3 -->
<g id="node3" class="node"><title>Node3</title>
<g id="a_node3"><a xlink:href="structbsc_1_1kernel.html" target="_top" xlink:title="bsc::kernel">
<polygon fill="white" stroke="black" points="270.5,-563.5 270.5,-582.5 335.5,-582.5 335.5,-563.5 270.5,-563.5"/>
<text text-anchor="middle" x="303" y="-570.5" font-family="Helvetica,sans-Serif" font-size="10.00">bsc::kernel</text>
</a>
</g>
</g>
<!-- Node2&#45;&gt;Node3 -->
<g id="edge2" class="edge"><title>Node2&#45;&gt;Node3</title>
<path fill="none" stroke="midnightblue" d="M244.283,-573C253.263,-573 262.233,-573 270.334,-573"/>
<polygon fill="midnightblue" stroke="midnightblue" points="244.187,-569.5 234.187,-573 244.187,-576.5 244.187,-569.5"/>
</g>
<!-- Node4 -->
<g id="node4" class="node"><title>Node4</title>
<g id="a_node4"><a xlink:href="structautoreg_1_1ACF__generator.html" target="_top" xlink:title="autoreg::ACF_generator\&lt; T \&gt;">
<polygon fill="white" stroke="black" points="372.5,-1312.5 372.5,-1331.5 517.5,-1331.5 517.5,-1312.5 372.5,-1312.5"/>
<text text-anchor="middle" x="445" y="-1319.5" font-family="Helvetica,sans-Serif" font-size="10.00">autoreg::ACF_generator&lt; T &gt;</text>
</a>
</g>
</g>
<!-- Node3&#45;&gt;Node4 -->
<g id="edge3" class="edge"><title>Node3&#45;&gt;Node4</title>
<path fill="none" stroke="midnightblue" d="M304.513,-592.876C307.558,-704.189 324.769,-1247.25 372,-1303 375.259,-1306.85 379.196,-1309.96 383.529,-1312.48"/>
<polygon fill="midnightblue" stroke="midnightblue" points="308.007,-592.624 304.242,-582.721 301.01,-592.811 308.007,-592.624"/>
</g>
<!-- Node5 -->
<g id="node5" class="node"><title>Node5</title>
<g id="a_node5"><a xlink:href="structautoreg_1_1Autoreg__coefs.html" target="_top" xlink:title="autoreg::Autoreg_coefs\&lt; T \&gt;">
<polygon fill="white" stroke="black" points="374,-1274.5 374,-1293.5 516,-1293.5 516,-1274.5 374,-1274.5"/>
<text text-anchor="middle" x="445" y="-1281.5" font-family="Helvetica,sans-Serif" font-size="10.00">autoreg::Autoreg_coefs&lt; T &gt;</text>
</a>
</g>
</g>
<!-- Node3&#45;&gt;Node5 -->
<g id="edge4" class="edge"><title>Node3&#45;&gt;Node5</title>
<path fill="none" stroke="midnightblue" d="M304.619,-592.841C308.151,-700.578 327.212,-1212.4 372,-1265 375.269,-1268.84 379.213,-1271.95 383.55,-1274.46"/>
<polygon fill="midnightblue" stroke="midnightblue" points="308.113,-592.598 304.294,-582.715 301.116,-592.823 308.113,-592.598"/>
</g>
<!-- Node6 -->
<g id="node6" class="node"><title>Node6</title>
<g id="a_node6"><a xlink:href="classautoreg_1_1Autoreg__model.html" target="_top" xlink:title="autoreg::Autoreg_model\&lt; T \&gt;">
<polygon fill="white" stroke="black" points="373,-1236.5 373,-1255.5 517,-1255.5 517,-1236.5 373,-1236.5"/>
<text text-anchor="middle" x="445" y="-1243.5" font-family="Helvetica,sans-Serif" font-size="10.00">autoreg::Autoreg_model&lt; T &gt;</text>
</a>
</g>
</g>
<!-- Node3&#45;&gt;Node6 -->
<g id="edge5" class="edge"><title>Node3&#45;&gt;Node6</title>
<path fill="none" stroke="midnightblue" d="M304.76,-593.008C308.895,-697.369 330.064,-1176.39 372,-1226 375.601,-1230.26 380.024,-1233.65 384.891,-1236.35"/>
<polygon fill="midnightblue" stroke="midnightblue" points="308.252,-592.75 304.366,-582.893 301.258,-593.022 308.252,-592.75"/>
</g>
<!-- Node7 -->
<g id="node7" class="node"><title>Node7</title>
<g id="a_node7"><a xlink:href="structautoreg_1_1Generator1.html" target="_top" xlink:title="autoreg::Generator1\l\&lt; T, Grid \&gt;">
<polygon fill="white" stroke="black" points="393.5,-1187 393.5,-1217 496.5,-1217 496.5,-1187 393.5,-1187"/>
<text text-anchor="start" x="401.5" y="-1205" font-family="Helvetica,sans-Serif" font-size="10.00">autoreg::Generator1</text>
<text text-anchor="middle" x="445" y="-1194" font-family="Helvetica,sans-Serif" font-size="10.00">&lt; T, Grid &gt;</text>
</a>
</g>
</g>
<!-- Node3&#45;&gt;Node7 -->
<g id="edge6" class="edge"><title>Node3&#45;&gt;Node7</title>
<path fill="none" stroke="midnightblue" d="M304.98,-592.681C310.06,-691.45 334.607,-1130.22 372,-1177 377.536,-1183.92 385.105,-1188.94 393.265,-1192.56"/>
<polygon fill="midnightblue" stroke="midnightblue" points="308.47,-592.403 304.468,-582.593 301.479,-592.758 308.47,-592.403"/>
</g>
<!-- Node8 -->
<g id="node8" class="node"><title>Node8</title>
<g id="a_node8"><a xlink:href="structautoreg_1_1Solve__Yule__Walker.html" target="_top" xlink:title="autoreg::Solve_Yule\l_Walker\&lt; T \&gt;">
<polygon fill="white" stroke="black" points="393,-1138 393,-1168 497,-1168 497,-1138 393,-1138"/>
<text text-anchor="start" x="401" y="-1156" font-family="Helvetica,sans-Serif" font-size="10.00">autoreg::Solve_Yule</text>
<text text-anchor="middle" x="445" y="-1145" font-family="Helvetica,sans-Serif" font-size="10.00">_Walker&lt; T &gt;</text>
</a>
</g>
</g>
<!-- Node3&#45;&gt;Node8 -->
<g id="edge7" class="edge"><title>Node3&#45;&gt;Node8</title>
<path fill="none" stroke="midnightblue" d="M303.722,-592.676C302.861,-681.369 303.645,-1043.34 372,-1128 377.486,-1134.79 384.929,-1139.75 392.956,-1143.36"/>
<polygon fill="midnightblue" stroke="midnightblue" points="307.222,-592.674 303.839,-582.634 300.223,-592.593 307.222,-592.674"/>
</g>
<!-- Node9 -->
<g id="node9" class="node"><title>Node9</title>
<g id="a_node9"><a xlink:href="structautoreg_1_1Wave__surface__generator.html" target="_top" xlink:title="autoreg::Wave_surface\l_generator\&lt; T, Grid \&gt;">
<polygon fill="white" stroke="black" points="386,-1089 386,-1119 504,-1119 504,-1089 386,-1089"/>
<text text-anchor="start" x="394" y="-1107" font-family="Helvetica,sans-Serif" font-size="10.00">autoreg::Wave_surface</text>
<text text-anchor="middle" x="445" y="-1096" font-family="Helvetica,sans-Serif" font-size="10.00">_generator&lt; T, Grid &gt;</text>
</a>
</g>
</g>
<!-- Node3&#45;&gt;Node9 -->
<g id="edge8" class="edge"><title>Node3&#45;&gt;Node9</title>
<path fill="none" stroke="midnightblue" d="M303.983,-592.766C304.301,-676.683 309.597,-1002.63 372,-1079 375.851,-1083.71 380.643,-1087.54 385.914,-1090.65"/>
<polygon fill="midnightblue" stroke="midnightblue" points="307.483,-592.577 303.966,-582.583 300.483,-592.589 307.483,-592.577"/>
</g>
<!-- Node10 -->
<g id="node10" class="node"><title>Node10</title>
<g id="a_node10"><a xlink:href="structAutoreg__app.html" target="_top" xlink:title="Autoreg_app">
<polygon fill="white" stroke="black" points="409.5,-1050.5 409.5,-1069.5 480.5,-1069.5 480.5,-1050.5 409.5,-1050.5"/>
<text text-anchor="middle" x="445" y="-1057.5" font-family="Helvetica,sans-Serif" font-size="10.00">Autoreg_app</text>
</a>
</g>
</g>
<!-- Node3&#45;&gt;Node10 -->
<g id="edge9" class="edge"><title>Node3&#45;&gt;Node10</title>
<path fill="none" stroke="midnightblue" d="M304.077,-592.919C304.799,-673.372 311.564,-973.268 372,-1041 381.382,-1051.51 395.827,-1056.52 409.324,-1058.8"/>
<polygon fill="midnightblue" stroke="midnightblue" points="307.576,-592.671 304.009,-582.695 300.576,-592.718 307.576,-592.671"/>
</g>
<!-- Node11 -->
<g id="node11" class="node"><title>Node11</title>
<g id="a_node11"><a xlink:href="structBig__kernel.html" target="_top" xlink:title="Big_kernel\&lt; Size \&gt;">
<polygon fill="white" stroke="black" points="395,-1012.5 395,-1031.5 495,-1031.5 495,-1012.5 395,-1012.5"/>
<text text-anchor="middle" x="445" y="-1019.5" font-family="Helvetica,sans-Serif" font-size="10.00">Big_kernel&lt; Size &gt;</text>
</a>
</g>
</g>
<!-- Node3&#45;&gt;Node11 -->
<g id="edge10" class="edge"><title>Node3&#45;&gt;Node11</title>
<path fill="none" stroke="midnightblue" d="M304.356,-592.748C306.129,-668.779 316.331,-941.393 372,-1003 378.067,-1009.71 386.2,-1014.18 394.815,-1017.12"/>
<polygon fill="midnightblue" stroke="midnightblue" points="307.853,-592.573 304.144,-582.648 300.855,-592.72 307.853,-592.573"/>
</g>
<!-- Node12 -->
<g id="node12" class="node"><title>Node12</title>
<g id="a_node12"><a xlink:href="classbsc_1_1discovery__timer.html" target="_top" xlink:title="bsc::discovery_timer">
<polygon fill="white" stroke="black" points="391.5,-974.5 391.5,-993.5 498.5,-993.5 498.5,-974.5 391.5,-974.5"/>
<text text-anchor="middle" x="445" y="-981.5" font-family="Helvetica,sans-Serif" font-size="10.00">bsc::discovery_timer</text>
</a>
</g>
</g>
<!-- Node3&#45;&gt;Node12 -->
<g id="edge11" class="edge"><title>Node3&#45;&gt;Node12</title>
<path fill="none" stroke="midnightblue" d="M304.71,-593.278C307.656,-665.621 321.248,-909.671 372,-965 377.243,-970.716 383.984,-974.797 391.232,-977.694"/>
<polygon fill="midnightblue" stroke="midnightblue" points="308.191,-592.713 304.313,-582.854 301.196,-592.98 308.191,-592.713"/>
</g>
<!-- Node13 -->
<g id="node13" class="node"><title>Node13</title>
<g id="a_node13"><a xlink:href="classbsc_1_1foreign__kernel.html" target="_top" xlink:title="bsc::foreign_kernel">
<polygon fill="white" stroke="black" points="395.5,-936.5 395.5,-955.5 494.5,-955.5 494.5,-936.5 395.5,-936.5"/>
<text text-anchor="middle" x="445" y="-943.5" font-family="Helvetica,sans-Serif" font-size="10.00">bsc::foreign_kernel</text>
</a>
</g>
</g>
<!-- Node3&#45;&gt;Node13 -->
<g id="edge12" class="edge"><title>Node3&#45;&gt;Node13</title>
<path fill="none" stroke="midnightblue" d="M305.082,-592.606C309.172,-659.539 325.865,-877.605 372,-927 378.265,-933.708 386.593,-938.157 395.358,-941.083"/>
<polygon fill="midnightblue" stroke="midnightblue" points="308.573,-592.347 304.496,-582.568 301.585,-592.756 308.573,-592.347"/>
</g>
<!-- Node14 -->
<g id="node14" class="node"><title>Node14</title>
<g id="a_node14"><a xlink:href="classbsc_1_1hierarchy__kernel.html" target="_top" xlink:title="bsc::hierarchy_kernel">
<polygon fill="white" stroke="black" points="390,-898.5 390,-917.5 500,-917.5 500,-898.5 390,-898.5"/>
<text text-anchor="middle" x="445" y="-905.5" font-family="Helvetica,sans-Serif" font-size="10.00">bsc::hierarchy_kernel</text>
</a>
</g>
</g>
<!-- Node3&#45;&gt;Node14 -->
<g id="edge13" class="edge"><title>Node3&#45;&gt;Node14</title>
<path fill="none" stroke="midnightblue" d="M305.6,-592.892C311.017,-655.313 330.68,-845.732 372,-889 377,-894.236 383.258,-898.09 389.984,-900.917"/>
<polygon fill="midnightblue" stroke="midnightblue" points="309.076,-592.463 304.752,-582.79 302.101,-593.048 309.076,-592.463"/>
</g>
<!-- Node15 -->
<g id="node15" class="node"><title>Node15</title>
<g id="a_node15"><a xlink:href="structbsc_1_1Map.html" target="_top" xlink:title="bsc::Map\&lt; F, G, I \&gt;">
<polygon fill="white" stroke="black" points="393,-860.5 393,-879.5 497,-879.5 497,-860.5 393,-860.5"/>
<text text-anchor="middle" x="445" y="-867.5" font-family="Helvetica,sans-Serif" font-size="10.00">bsc::Map&lt; F, G, I &gt;</text>
</a>
</g>
</g>
<!-- Node3&#45;&gt;Node15 -->
<g id="edge14" class="edge"><title>Node3&#45;&gt;Node15</title>
<path fill="none" stroke="midnightblue" d="M306.288,-592.978C313.224,-650.146 335.789,-812.678 372,-850 377.691,-855.866 384.942,-860.056 392.64,-863.04"/>
<polygon fill="midnightblue" stroke="midnightblue" points="309.727,-592.258 305.077,-582.738 302.775,-593.079 309.727,-592.258"/>
</g>
<!-- Node16 -->
<g id="node16" class="node"><title>Node16</title>
<g id="a_node16"><a xlink:href="structbsc_1_1Map_1_1Worker.html" target="_top" xlink:title="bsc::Map\&lt; F, G, I \&gt;\l::Worker">
<polygon fill="white" stroke="black" points="393,-811 393,-841 497,-841 497,-811 393,-811"/>
<text text-anchor="start" x="401" y="-829" font-family="Helvetica,sans-Serif" font-size="10.00">bsc::Map&lt; F, G, I &gt;</text>
<text text-anchor="middle" x="445" y="-818" font-family="Helvetica,sans-Serif" font-size="10.00">::Worker</text>
</a>
</g>
</g>
<!-- Node3&#45;&gt;Node16 -->
<g id="edge15" class="edge"><title>Node3&#45;&gt;Node16</title>
<path fill="none" stroke="midnightblue" d="M304.157,-592.911C305.588,-636.567 315.122,-741.542 372,-801 377.762,-807.024 385.049,-811.597 392.761,-815.068"/>
<polygon fill="midnightblue" stroke="midnightblue" points="307.653,-592.675 303.94,-582.753 300.655,-592.825 307.653,-592.675"/>
</g>
<!-- Node17 -->
<g id="node17" class="node"><title>Node17</title>
<g id="a_node17"><a xlink:href="classbsc_1_1network__master.html" target="_top" xlink:title="bsc::network_master">
<polygon fill="white" stroke="black" points="391,-772.5 391,-791.5 499,-791.5 499,-772.5 391,-772.5"/>
<text text-anchor="middle" x="445" y="-779.5" font-family="Helvetica,sans-Serif" font-size="10.00">bsc::network_master</text>
</a>
</g>
</g>
<!-- Node3&#45;&gt;Node17 -->
<g id="edge16" class="edge"><title>Node3&#45;&gt;Node17</title>
<path fill="none" stroke="midnightblue" d="M305.226,-592.986C308.702,-631.681 321.941,-717.057 372,-763 377.429,-767.983 384.01,-771.688 390.96,-774.439"/>
<polygon fill="midnightblue" stroke="midnightblue" points="308.682,-592.275 304.43,-582.571 301.702,-592.808 308.682,-592.275"/>
</g>
<!-- Node18 -->
<g id="node18" class="node"><title>Node18</title>
<g id="a_node18"><a xlink:href="classbsc_1_1network__timer.html" target="_top" xlink:title="bsc::network_timer">
<polygon fill="white" stroke="black" points="395,-734.5 395,-753.5 495,-753.5 495,-734.5 395,-734.5"/>
<text text-anchor="middle" x="445" y="-741.5" font-family="Helvetica,sans-Serif" font-size="10.00">bsc::network_timer</text>
</a>
</g>
</g>
<!-- Node3&#45;&gt;Node18 -->
<g id="edge17" class="edge"><title>Node3&#45;&gt;Node18</title>
<path fill="none" stroke="midnightblue" d="M307.181,-592.57C313.512,-625.061 330.804,-690.013 372,-725 378.504,-730.523 386.439,-734.461 394.637,-737.265"/>
<polygon fill="midnightblue" stroke="midnightblue" points="310.591,-591.757 305.378,-582.534 303.701,-592.995 310.591,-591.757"/>
</g>
<!-- Node19 -->
<g id="node19" class="node"><title>Node19</title>
<g id="a_node19"><a xlink:href="classbsc_1_1Notification.html" target="_top" xlink:title="bsc::Notification">
<polygon fill="white" stroke="black" points="401,-696.5 401,-715.5 489,-715.5 489,-696.5 401,-696.5"/>
<text text-anchor="middle" x="445" y="-703.5" font-family="Helvetica,sans-Serif" font-size="10.00">bsc::Notification</text>
</a>
</g>
</g>
<!-- Node3&#45;&gt;Node19 -->
<g id="edge18" class="edge"><title>Node3&#45;&gt;Node19</title>
<path fill="none" stroke="midnightblue" d="M310.299,-592.347C319.638,-617.931 339.624,-662.617 372,-687 380.365,-693.3 390.644,-697.515 400.79,-700.334"/>
<polygon fill="midnightblue" stroke="midnightblue" points="313.526,-590.968 306.944,-582.666 306.912,-593.261 313.526,-590.968"/>
</g>
<!-- Node20 -->
<g id="node20" class="node"><title>Node20</title>
<g id="a_node20"><a xlink:href="classbsc_1_1probe.html" target="_top" xlink:title="bsc::probe">
<polygon fill="white" stroke="black" points="414,-658.5 414,-677.5 476,-677.5 476,-658.5 414,-658.5"/>
<text text-anchor="middle" x="445" y="-665.5" font-family="Helvetica,sans-Serif" font-size="10.00">bsc::probe</text>
</a>
</g>
</g>
<!-- Node3&#45;&gt;Node20 -->
<g id="edge19" class="edge"><title>Node3&#45;&gt;Node20</title>
<path fill="none" stroke="midnightblue" d="M315.635,-591.257C327.672,-608.663 348.049,-634.334 372,-649 384.569,-656.696 400.221,-661.306 413.719,-664.052"/>
<polygon fill="midnightblue" stroke="midnightblue" points="318.296,-588.938 309.836,-582.559 312.471,-592.821 318.296,-588.938"/>
</g>
<!-- Node21 -->
<g id="node21" class="node"><title>Node21</title>
<g id="a_node21"><a xlink:href="classbsc_1_1prober.html" target="_top" xlink:title="bsc::prober">
<polygon fill="white" stroke="black" points="412.5,-620.5 412.5,-639.5 477.5,-639.5 477.5,-620.5 412.5,-620.5"/>
<text text-anchor="middle" x="445" y="-627.5" font-family="Helvetica,sans-Serif" font-size="10.00">bsc::prober</text>
</a>
</g>
</g>
<!-- Node3&#45;&gt;Node21 -->
<g id="edge20" class="edge"><title>Node3&#45;&gt;Node21</title>
<path fill="none" stroke="midnightblue" d="M327.215,-587.897C340.031,-595.62 356.46,-604.725 372,-611 384.827,-616.18 399.509,-620.349 412.255,-623.447"/>
<polygon fill="midnightblue" stroke="midnightblue" points="328.935,-584.845 318.586,-582.576 325.261,-590.804 328.935,-584.845"/>
</g>
<!-- Node22 -->
<g id="node22" class="node"><title>Node22</title>
<g id="a_node22"><a xlink:href="classbsc_1_1resident__kernel.html" target="_top" xlink:title="bsc::resident_kernel">
<polygon fill="white" stroke="black" points="393,-582.5 393,-601.5 497,-601.5 497,-582.5 393,-582.5"/>
<text text-anchor="middle" x="445" y="-589.5" font-family="Helvetica,sans-Serif" font-size="10.00">bsc::resident_kernel</text>
</a>
</g>
</g>
<!-- Node3&#45;&gt;Node22 -->
<g id="edge21" class="edge"><title>Node3&#45;&gt;Node22</title>
<path fill="none" stroke="midnightblue" d="M346.089,-578.712C360.806,-580.709 377.491,-582.974 392.864,-585.06"/>
<polygon fill="midnightblue" stroke="midnightblue" points="346.148,-575.188 335.768,-577.311 345.207,-582.124 346.148,-575.188"/>
</g>
<!-- Node24 -->
<g id="node24" class="node"><title>Node24</title>
<g id="a_node24"><a xlink:href="structDummy__kernel.html" target="_top" xlink:title="Dummy_kernel">
<polygon fill="white" stroke="black" points="403.5,-544.5 403.5,-563.5 486.5,-563.5 486.5,-544.5 403.5,-544.5"/>
<text text-anchor="middle" x="445" y="-551.5" font-family="Helvetica,sans-Serif" font-size="10.00">Dummy_kernel</text>
</a>
</g>
</g>
<!-- Node3&#45;&gt;Node24 -->
<g id="edge23" class="edge"><title>Node3&#45;&gt;Node24</title>
<path fill="none" stroke="midnightblue" d="M345.8,-567.327C363.994,-564.858 385.24,-561.975 403.306,-559.523"/>
<polygon fill="midnightblue" stroke="midnightblue" points="345.207,-563.875 335.768,-568.689 346.148,-570.812 345.207,-563.875"/>
</g>
<!-- Node25 -->
<g id="node25" class="node"><title>Node25</title>
<g id="a_node25"><a xlink:href="structGood__kernel.html" target="_top" xlink:title="Good_kernel">
<polygon fill="white" stroke="black" points="409.5,-506.5 409.5,-525.5 480.5,-525.5 480.5,-506.5 409.5,-506.5"/>
<text text-anchor="middle" x="445" y="-513.5" font-family="Helvetica,sans-Serif" font-size="10.00">Good_kernel</text>
</a>
</g>
</g>
<!-- Node3&#45;&gt;Node25 -->
<g id="edge24" class="edge"><title>Node3&#45;&gt;Node25</title>
<path fill="none" stroke="midnightblue" d="M327.215,-558.103C340.031,-550.38 356.46,-541.275 372,-535 383.868,-530.208 397.324,-526.28 409.366,-523.266"/>
<polygon fill="midnightblue" stroke="midnightblue" points="325.261,-555.196 318.586,-563.424 328.935,-561.155 325.261,-555.196"/>
</g>
<!-- Node28 -->
<g id="node28" class="node"><title>Node28</title>
<g id="a_node28"><a xlink:href="classgrand__master__kernel.html" target="_top" xlink:title="grand_master_kernel">
<polygon fill="white" stroke="black" points="391.5,-468.5 391.5,-487.5 498.5,-487.5 498.5,-468.5 391.5,-468.5"/>
<text text-anchor="middle" x="445" y="-475.5" font-family="Helvetica,sans-Serif" font-size="10.00">grand_master_kernel</text>
</a>
</g>
</g>
<!-- Node3&#45;&gt;Node28 -->
<g id="edge27" class="edge"><title>Node3&#45;&gt;Node28</title>
<path fill="none" stroke="midnightblue" d="M315.635,-554.743C327.672,-537.337 348.049,-511.666 372,-497 378.284,-493.152 385.34,-490.075 392.511,-487.618"/>
<polygon fill="midnightblue" stroke="midnightblue" points="312.471,-553.179 309.836,-563.441 318.296,-557.062 312.471,-553.179"/>
</g>
<!-- Node29 -->
<g id="node29" class="node"><title>Node29</title>
<g id="a_node29"><a xlink:href="structKernel__that__carries__its__parent.html" target="_top" xlink:title="Kernel_that_carries\l_its_parent">
<polygon fill="white" stroke="black" points="394.5,-419 394.5,-449 495.5,-449 495.5,-419 394.5,-419"/>
<text text-anchor="start" x="402.5" y="-437" font-family="Helvetica,sans-Serif" font-size="10.00">Kernel_that_carries</text>
<text text-anchor="middle" x="445" y="-426" font-family="Helvetica,sans-Serif" font-size="10.00">_its_parent</text>
</a>
</g>
</g>
<!-- Node3&#45;&gt;Node29 -->
<g id="edge28" class="edge"><title>Node3&#45;&gt;Node29</title>
<path fill="none" stroke="midnightblue" d="M310.724,-553.633C320.437,-528.39 340.732,-484.471 372,-459 378.566,-453.652 386.349,-449.415 394.33,-446.068"/>
<polygon fill="midnightblue" stroke="midnightblue" points="307.373,-552.607 307.208,-563.2 313.943,-555.021 307.373,-552.607"/>
</g>
<!-- Node30 -->
<g id="node30" class="node"><title>Node30</title>
<g id="a_node30"><a xlink:href="structLauncher.html" target="_top" xlink:title="Launcher">
<polygon fill="white" stroke="black" points="417,-380.5 417,-399.5 473,-399.5 473,-380.5 417,-380.5"/>
<text text-anchor="middle" x="445" y="-387.5" font-family="Helvetica,sans-Serif" font-size="10.00">Launcher</text>
</a>
</g>
</g>
<!-- Node3&#45;&gt;Node30 -->
<g id="edge29" class="edge"><title>Node3&#45;&gt;Node30</title>
<path fill="none" stroke="midnightblue" d="M306.637,-553.052C312.253,-518.676 328.632,-448.288 372,-410 384.351,-399.096 402.168,-394.088 416.987,-391.811"/>
<polygon fill="midnightblue" stroke="midnightblue" points="303.133,-552.824 305.122,-563.231 310.056,-553.855 303.133,-552.824"/>
</g>
<!-- Node31 -->
<g id="node31" class="node"><title>Node31</title>
<g id="a_node31"><a xlink:href="classMain.html" target="_top" xlink:title="Main">
<polygon fill="white" stroke="black" points="426,-342.5 426,-361.5 464,-361.5 464,-342.5 426,-342.5"/>
<text text-anchor="middle" x="445" y="-349.5" font-family="Helvetica,sans-Serif" font-size="10.00">Main</text>
</a>
</g>
</g>
<!-- Node3&#45;&gt;Node31 -->
<g id="edge30" class="edge"><title>Node3&#45;&gt;Node31</title>
<path fill="none" stroke="midnightblue" d="M304.177,-553.38C305.302,-505.486 313.461,-398.759 372,-344 392.959,-324.394 431.712,-324.504 441.636,-342.487"/>
<polygon fill="midnightblue" stroke="midnightblue" points="300.676,-553.396 304.021,-563.449 307.675,-553.504 300.676,-553.396"/>
</g>
<!-- Node3&#45;&gt;Node31 -->
<g id="edge31" class="edge"><title>Node3&#45;&gt;Node31</title>
<path fill="none" stroke="midnightblue" d="M304.472,-552.919C306.49,-510.605 317.047,-413.404 372,-362 386.539,-348.4 409.641,-344.286 425.742,-345.127"/>
<polygon fill="midnightblue" stroke="midnightblue" points="300.968,-552.976 304.105,-563.096 307.964,-553.229 300.968,-552.976"/>
</g>
<!-- Node3&#45;&gt;Node31 -->
<g id="edge32" class="edge"><title>Node3&#45;&gt;Node31</title>
<path fill="none" stroke="midnightblue" d="M305.118,-552.991C308.407,-513.719 321.334,-427.394 372,-380 386.539,-366.4 409.641,-362.286 425.742,-359.209"/>
<polygon fill="midnightblue" stroke="midnightblue" points="301.612,-552.941 304.398,-563.163 308.595,-553.435 301.612,-552.941"/>
</g>
<!-- Node3&#45;&gt;Node31 -->
<g id="edge33" class="edge"><title>Node3&#45;&gt;Node31</title>
<path fill="none" stroke="midnightblue" d="M306.335,-553.399C311.193,-515.724 326.13,-440.908 372,-398 392.771,-378.571 431.016,-378.504 441.361,-361.733"/>
<polygon fill="midnightblue" stroke="midnightblue" points="302.85,-553.066 305.171,-563.404 309.803,-553.875 302.85,-553.066"/>
</g>
<!-- Node32 -->
<g id="node32" class="node"><title>Node32</title>
<g id="a_node32"><a xlink:href="classmaster__kernel.html" target="_top" xlink:title="master_kernel">
<polygon fill="white" stroke="black" points="406,-304.5 406,-323.5 484,-323.5 484,-304.5 406,-304.5"/>
<text text-anchor="middle" x="445" y="-311.5" font-family="Helvetica,sans-Serif" font-size="10.00">master_kernel</text>
</a>
</g>
</g>
<!-- Node3&#45;&gt;Node32 -->
<g id="edge34" class="edge"><title>Node3&#45;&gt;Node32</title>
<path fill="none" stroke="midnightblue" d="M303.468,-552.951C303.396,-507.125 309.904,-393.983 372,-333 381.039,-324.123 393.709,-319.258 405.905,-316.634"/>
<polygon fill="midnightblue" stroke="midnightblue" points="299.969,-553.124 303.598,-563.078 306.969,-553.034 299.969,-553.124"/>
</g>
<!-- Node33 -->
<g id="node33" class="node"><title>Node33</title>
<g id="a_node33"><a xlink:href="structSender.html" target="_top" xlink:title="Sender">
<polygon fill="white" stroke="black" points="421.5,-266.5 421.5,-285.5 468.5,-285.5 468.5,-266.5 421.5,-266.5"/>
<text text-anchor="middle" x="445" y="-273.5" font-family="Helvetica,sans-Serif" font-size="10.00">Sender</text>
</a>
</g>
</g>
<!-- Node3&#45;&gt;Node33 -->
<g id="edge35" class="edge"><title>Node3&#45;&gt;Node33</title>
<path fill="none" stroke="midnightblue" d="M306.254,-552.928C313.099,-495.494 335.44,-332.228 372,-295 384.772,-281.994 405.317,-277.551 421.198,-276.184"/>
<polygon fill="midnightblue" stroke="midnightblue" points="302.736,-552.879 305.06,-563.216 309.69,-553.686 302.736,-552.879"/>
</g>
<!-- Node34 -->
<g id="node34" class="node"><title>Node34</title>
<g id="a_node34"><a xlink:href="classslave__kernel.html" target="_top" xlink:title="slave_kernel">
<polygon fill="white" stroke="black" points="409.5,-228.5 409.5,-247.5 480.5,-247.5 480.5,-228.5 409.5,-228.5"/>
<text text-anchor="middle" x="445" y="-235.5" font-family="Helvetica,sans-Serif" font-size="10.00">slave_kernel</text>
</a>
</g>
</g>
<!-- Node3&#45;&gt;Node34 -->
<g id="edge36" class="edge"><title>Node3&#45;&gt;Node34</title>
<path fill="none" stroke="midnightblue" d="M305.6,-553.108C311.017,-490.687 330.68,-300.268 372,-257 381.643,-246.903 395.964,-241.943 409.3,-239.584"/>
<polygon fill="midnightblue" stroke="midnightblue" points="302.101,-552.952 304.752,-563.21 309.076,-553.537 302.101,-552.952"/>
</g>
<!-- Node35 -->
<g id="node35" class="node"><title>Node35</title>
<g id="a_node35"><a xlink:href="structSleepy__kernel.html" target="_top" xlink:title="Sleepy_kernel">
<polygon fill="white" stroke="black" points="406,-190.5 406,-209.5 484,-209.5 484,-190.5 406,-190.5"/>
<text text-anchor="middle" x="445" y="-197.5" font-family="Helvetica,sans-Serif" font-size="10.00">Sleepy_kernel</text>
</a>
</g>
</g>
<!-- Node3&#45;&gt;Node35 -->
<g id="edge37" class="edge"><title>Node3&#45;&gt;Node35</title>
<path fill="none" stroke="midnightblue" d="M305.082,-553.394C309.172,-486.461 325.865,-268.395 372,-219 380.736,-209.647 393.483,-204.686 405.832,-202.119"/>
<polygon fill="midnightblue" stroke="midnightblue" points="301.585,-553.244 304.496,-563.432 308.573,-553.653 301.585,-553.244"/>
</g>
<!-- Node36 -->
<g id="node36" class="node"><title>Node36</title>
<g id="a_node36"><a xlink:href="structSpec__app.html" target="_top" xlink:title="Spec_app">
<polygon fill="white" stroke="black" points="415,-152.5 415,-171.5 475,-171.5 475,-152.5 415,-152.5"/>
<text text-anchor="middle" x="445" y="-159.5" font-family="Helvetica,sans-Serif" font-size="10.00">Spec_app</text>
</a>
</g>
</g>
<!-- Node3&#45;&gt;Node36 -->
<g id="edge38" class="edge"><title>Node3&#45;&gt;Node36</title>
<path fill="none" stroke="midnightblue" d="M304.71,-552.722C307.656,-480.379 321.248,-236.329 372,-181 382.836,-169.187 400.067,-164.36 414.956,-162.523"/>
<polygon fill="midnightblue" stroke="midnightblue" points="301.196,-553.02 304.313,-563.146 308.191,-553.287 301.196,-553.02"/>
</g>
<!-- Node37 -->
<g id="node37" class="node"><title>Node37</title>
<g id="a_node37"><a xlink:href="structSpectrum__kernel.html" target="_top" xlink:title="Spectrum_kernel">
<polygon fill="white" stroke="black" points="400,-114.5 400,-133.5 490,-133.5 490,-114.5 400,-114.5"/>
<text text-anchor="middle" x="445" y="-121.5" font-family="Helvetica,sans-Serif" font-size="10.00">Spectrum_kernel</text>
</a>
</g>
</g>
<!-- Node3&#45;&gt;Node37 -->
<g id="edge39" class="edge"><title>Node3&#45;&gt;Node37</title>
<path fill="none" stroke="midnightblue" d="M304.356,-553.252C306.129,-477.221 316.331,-204.607 372,-143 379.194,-135.039 389.292,-130.243 399.654,-127.396"/>
<polygon fill="midnightblue" stroke="midnightblue" points="300.855,-553.28 304.144,-563.352 307.853,-553.427 300.855,-553.28"/>
</g>
<!-- Node38 -->
<g id="node38" class="node"><title>Node38</title>
<g id="a_node38"><a xlink:href="structStation__kernel.html" target="_top" xlink:title="Station_kernel">
<polygon fill="white" stroke="black" points="405.5,-76.5 405.5,-95.5 484.5,-95.5 484.5,-76.5 405.5,-76.5"/>
<text text-anchor="middle" x="445" y="-83.5" font-family="Helvetica,sans-Serif" font-size="10.00">Station_kernel</text>
</a>
</g>
</g>
<!-- Node3&#45;&gt;Node38 -->
<g id="edge40" class="edge"><title>Node3&#45;&gt;Node38</title>
<path fill="none" stroke="midnightblue" d="M304.077,-553.081C304.799,-472.628 311.564,-172.732 372,-105 380.435,-95.5468 392.963,-90.5468 405.215,-87.9759"/>
<polygon fill="midnightblue" stroke="midnightblue" points="300.576,-553.282 304.009,-563.305 307.576,-553.329 300.576,-553.282"/>
</g>
<!-- Node39 -->
<g id="node39" class="node"><title>Node39</title>
<g id="a_node39"><a xlink:href="structTest__socket.html" target="_top" xlink:title="Test_socket">
<polygon fill="white" stroke="black" points="409.5,-38.5 409.5,-57.5 480.5,-57.5 480.5,-38.5 409.5,-38.5"/>
<text text-anchor="middle" x="445" y="-45.5" font-family="Helvetica,sans-Serif" font-size="10.00">Test_socket</text>
</a>
</g>
</g>
<!-- Node3&#45;&gt;Node39 -->
<g id="edge41" class="edge"><title>Node3&#45;&gt;Node39</title>
<path fill="none" stroke="midnightblue" d="M303.848,-553.109C303.486,-467.427 305.966,-132.808 372,-58 381.325,-47.4357 395.762,-42.423 409.268,-40.8444"/>
<polygon fill="midnightblue" stroke="midnightblue" points="300.349,-553.319 303.91,-563.297 307.349,-553.276 300.349,-553.319"/>
</g>
<!-- Node3&#45;&gt;Node39 -->
<g id="edge42" class="edge"><title>Node3&#45;&gt;Node39</title>
<path fill="none" stroke="midnightblue" d="M303.827,-553.042C303.645,-469.283 307.574,-148.986 372,-76 381.325,-65.4357 395.762,-60.423 409.268,-57.4549"/>
<polygon fill="midnightblue" stroke="midnightblue" points="300.328,-553.256 303.874,-563.24 307.328,-553.224 300.328,-553.256"/>
</g>
<!-- Node40 -->
<g id="node40" class="node"><title>Node40</title>
<g id="a_node40"><a xlink:href="structYear__kernel.html" target="_top" xlink:title="Year_kernel">
<polygon fill="white" stroke="black" points="411,-0.5 411,-19.5 479,-19.5 479,-0.5 411,-0.5"/>
<text text-anchor="middle" x="445" y="-7.5" font-family="Helvetica,sans-Serif" font-size="10.00">Year_kernel</text>
</a>
</g>
</g>
<!-- Node3&#45;&gt;Node40 -->
<g id="edge43" class="edge"><title>Node3&#45;&gt;Node40</title>
<path fill="none" stroke="midnightblue" d="M303.631,-553.322C302.393,-465.387 301.841,-109.224 372,-29 381.617,-18.0035 396.772,-13.0129 410.703,-10.8686"/>
<polygon fill="midnightblue" stroke="midnightblue" points="300.135,-553.553 303.796,-563.495 307.134,-553.44 300.135,-553.553"/>
</g>
<!-- Node23 -->
<g id="node23" class="node"><title>Node23</title>
<g id="a_node23"><a xlink:href="classbsc_1_1master__discoverer.html" target="_top" xlink:title="bsc::master_discoverer">
<polygon fill="white" stroke="black" points="555.5,-582.5 555.5,-601.5 674.5,-601.5 674.5,-582.5 555.5,-582.5"/>
<text text-anchor="middle" x="615" y="-589.5" font-family="Helvetica,sans-Serif" font-size="10.00">bsc::master_discoverer</text>
</a>
</g>
</g>
<!-- Node22&#45;&gt;Node23 -->
<g id="edge22" class="edge"><title>Node22&#45;&gt;Node23</title>
<path fill="none" stroke="midnightblue" d="M507.415,-592C523.065,-592 539.845,-592 555.352,-592"/>
<polygon fill="midnightblue" stroke="midnightblue" points="507.318,-588.5 497.318,-592 507.318,-595.5 507.318,-588.5"/>
</g>
<!-- Node26 -->
<g id="node26" class="node"><title>Node26</title>
<g id="a_node26"><a xlink:href="structKernel__that__reads__more__than__writes.html" target="_top" xlink:title="Kernel_that_reads_more\l_than_writes">
<polygon fill="white" stroke="black" points="554,-517 554,-547 676,-547 676,-517 554,-517"/>
<text text-anchor="start" x="562" y="-535" font-family="Helvetica,sans-Serif" font-size="10.00">Kernel_that_reads_more</text>
<text text-anchor="middle" x="615" y="-524" font-family="Helvetica,sans-Serif" font-size="10.00">_than_writes</text>
</a>
</g>
</g>
<!-- Node25&#45;&gt;Node26 -->
<g id="edge25" class="edge"><title>Node25&#45;&gt;Node26</title>
<path fill="none" stroke="midnightblue" d="M490.839,-520.27C510.141,-522.109 532.997,-524.285 553.747,-526.262"/>
<polygon fill="midnightblue" stroke="midnightblue" points="491.097,-516.779 480.81,-519.315 490.433,-523.748 491.097,-516.779"/>
</g>
<!-- Node27 -->
<g id="node27" class="node"><title>Node27</title>
<g id="a_node27"><a xlink:href="structKernel__that__writes__more__than__reads.html" target="_top" xlink:title="Kernel_that_writes\l_more_than_reads">
<polygon fill="white" stroke="black" points="566,-468 566,-498 664,-498 664,-468 566,-468"/>
<text text-anchor="start" x="574" y="-486" font-family="Helvetica,sans-Serif" font-size="10.00">Kernel_that_writes</text>
<text text-anchor="middle" x="615" y="-475" font-family="Helvetica,sans-Serif" font-size="10.00">_more_than_reads</text>
</a>
</g>
</g>
<!-- Node25&#45;&gt;Node27 -->
<g id="edge26" class="edge"><title>Node25&#45;&gt;Node27</title>
<path fill="none" stroke="midnightblue" d="M490.726,-507.215C513.896,-502.663 542.211,-497.101 565.858,-492.456"/>
<polygon fill="midnightblue" stroke="midnightblue" points="489.948,-503.8 480.81,-509.162 491.297,-510.669 489.948,-503.8"/>
</g>
</g>
</svg>
