<?xml version="1.0" encoding="UTF-8" standalone="no"?>
<!DOCTYPE svg PUBLIC "-//W3C//DTD SVG 1.1//EN"
 "http://www.w3.org/Graphics/SVG/1.1/DTD/svg11.dtd">
<!-- Generated by graphviz version 2.36.0 (20140111.2315)
 -->
<!-- Title: bsc::pipeline_base Pages: 1 -->
<svg width="624pt" height="601pt"
 viewBox="0.00 0.00 624.00 601.00" xmlns="http://www.w3.org/2000/svg" xmlns:xlink="http://www.w3.org/1999/xlink">
<g id="graph0" class="graph" transform="scale(1 1) rotate(0) translate(4 597)">
<title>bsc::pipeline_base</title>
<polygon fill="white" stroke="none" points="-4,4 -4,-597 620,-597 620,4 -4,4"/>
<!-- Node1 -->
<g id="node1" class="node"><title>Node1</title>
<polygon fill="#bfbfbf" stroke="black" points="0,-112.5 0,-131.5 98,-131.5 98,-112.5 0,-112.5"/>
<text text-anchor="middle" x="49" y="-119.5" font-family="Helvetica,sans-Serif" font-size="10.00">bsc::pipeline_base</text>
</g>
<!-- Node2 -->
<g id="node2" class="node"><title>Node2</title>
<g id="a_node2"><a xlink:href="classbsc_1_1basic__pipeline.html" target="_top" xlink:title="bsc::basic_pipeline\&lt; T \&gt;">
<polygon fill="white" stroke="black" points="134,-472.5 134,-491.5 258,-491.5 258,-472.5 134,-472.5"/>
<text text-anchor="middle" x="196" y="-479.5" font-family="Helvetica,sans-Serif" font-size="10.00">bsc::basic_pipeline&lt; T &gt;</text>
</a>
</g>
</g>
<!-- Node1&#45;&gt;Node2 -->
<g id="edge1" class="edge"><title>Node1&#45;&gt;Node2</title>
<path fill="none" stroke="midnightblue" d="M55.818,-141.394C68.4028,-182.645 99.7922,-281.87 134,-362 151.985,-404.128 178.187,-452.089 189.482,-472.257"/>
<polygon fill="midnightblue" stroke="midnightblue" points="59.1545,-140.335 52.9061,-131.779 52.455,-142.364 59.1545,-140.335"/>
</g>
<!-- Node5 -->
<g id="node5" class="node"><title>Node5</title>
<g id="a_node5"><a xlink:href="classbsc_1_1basic__handler.html" target="_top" xlink:title="bsc::basic_handler">
<polygon fill="white" stroke="black" points="147,-333.5 147,-352.5 245,-352.5 245,-333.5 147,-333.5"/>
<text text-anchor="middle" x="196" y="-340.5" font-family="Helvetica,sans-Serif" font-size="10.00">bsc::basic_handler</text>
</a>
</g>
</g>
<!-- Node1&#45;&gt;Node5 -->
<g id="edge4" class="edge"><title>Node1&#45;&gt;Node5</title>
<path fill="none" stroke="midnightblue" d="M61.963,-140.233C91.3599,-185.038 166.361,-299.35 188.657,-333.332"/>
<polygon fill="midnightblue" stroke="midnightblue" points="64.8297,-138.222 56.4176,-131.781 58.977,-142.062 64.8297,-138.222"/>
</g>
<!-- Node14 -->
<g id="node14" class="node"><title>Node14</title>
<g id="a_node14"><a xlink:href="classbsc_1_1basic__pipeline.html" target="_top" xlink:title="bsc::basic_pipeline\l\&lt; T, Kernels, Traits,\l Threads, Mutex, Lock,\l Semaphore \&gt;">
<polygon fill="white" stroke="black" points="137,-126 137,-178 255,-178 255,-126 137,-126"/>
<text text-anchor="start" x="145" y="-166" font-family="Helvetica,sans-Serif" font-size="10.00">bsc::basic_pipeline</text>
<text text-anchor="start" x="145" y="-155" font-family="Helvetica,sans-Serif" font-size="10.00">&lt; T, Kernels, Traits,</text>
<text text-anchor="start" x="145" y="-144" font-family="Helvetica,sans-Serif" font-size="10.00"> Threads, Mutex, Lock,</text>
<text text-anchor="middle" x="196" y="-133" font-family="Helvetica,sans-Serif" font-size="10.00"> Semaphore &gt;</text>
</a>
</g>
</g>
<!-- Node1&#45;&gt;Node14 -->
<g id="edge14" class="edge"><title>Node1&#45;&gt;Node14</title>
<path fill="none" stroke="midnightblue" d="M106.185,-133.624C116.271,-135.711 126.802,-137.89 136.94,-139.988"/>
<polygon fill="midnightblue" stroke="midnightblue" points="106.779,-130.173 96.2776,-131.575 105.361,-137.028 106.779,-130.173"/>
</g>
<!-- Node23 -->
<g id="node23" class="node"><title>Node23</title>
<g id="a_node23"><a xlink:href="classbsc_1_1external__process__handler.html" target="_top" xlink:title="bsc::external_process\l_handler\&lt; T, Router \&gt;">
<polygon fill="white" stroke="black" points="139.5,-77 139.5,-107 252.5,-107 252.5,-77 139.5,-77"/>
<text text-anchor="start" x="147.5" y="-95" font-family="Helvetica,sans-Serif" font-size="10.00">bsc::external_process</text>
<text text-anchor="middle" x="196" y="-84" font-family="Helvetica,sans-Serif" font-size="10.00">_handler&lt; T, Router &gt;</text>
</a>
</g>
</g>
<!-- Node1&#45;&gt;Node23 -->
<g id="edge23" class="edge"><title>Node1&#45;&gt;Node23</title>
<path fill="none" stroke="midnightblue" d="M106.1,-110.393C116.988,-108.14 128.396,-105.78 139.272,-103.53"/>
<polygon fill="midnightblue" stroke="midnightblue" points="105.361,-106.972 96.2776,-112.425 106.779,-113.827 105.361,-106.972"/>
</g>
<!-- Node24 -->
<g id="node24" class="node"><title>Node24</title>
<g id="a_node24"><a xlink:href="classbsc_1_1Factory.html" target="_top" xlink:title="bsc::Factory\&lt; T \&gt;">
<polygon fill="white" stroke="black" points="148.5,-38.5 148.5,-57.5 243.5,-57.5 243.5,-38.5 148.5,-38.5"/>
<text text-anchor="middle" x="196" y="-45.5" font-family="Helvetica,sans-Serif" font-size="10.00">bsc::Factory&lt; T &gt;</text>
</a>
</g>
</g>
<!-- Node1&#45;&gt;Node24 -->
<g id="edge24" class="edge"><title>Node1&#45;&gt;Node24</title>
<path fill="none" stroke="midnightblue" d="M70.4608,-106.27C86.9089,-94.2142 110.988,-77.8569 134,-67 141.724,-63.3556 150.321,-60.1847 158.566,-57.532"/>
<polygon fill="midnightblue" stroke="midnightblue" points="68.0841,-103.676 62.1634,-112.462 72.2709,-109.286 68.0841,-103.676"/>
</g>
<!-- Node25 -->
<g id="node25" class="node"><title>Node25</title>
<g id="a_node25"><a xlink:href="classbsc_1_1Multi__pipeline.html" target="_top" xlink:title="bsc::Multi_pipeline\&lt; T \&gt;">
<polygon fill="white" stroke="black" points="135,-0.5 135,-19.5 257,-19.5 257,-0.5 135,-0.5"/>
<text text-anchor="middle" x="196" y="-7.5" font-family="Helvetica,sans-Serif" font-size="10.00">bsc::Multi_pipeline&lt; T &gt;</text>
</a>
</g>
</g>
<!-- Node1&#45;&gt;Node25 -->
<g id="edge25" class="edge"><title>Node1&#45;&gt;Node25</title>
<path fill="none" stroke="midnightblue" d="M61.7805,-103.94C76.3419,-82.9936 103.027,-48.8123 134,-29 139.98,-25.1747 146.783,-22.0746 153.623,-19.5761"/>
<polygon fill="midnightblue" stroke="midnightblue" points="58.8427,-102.036 56.1379,-112.28 64.6404,-105.959 58.8427,-102.036"/>
</g>
<!-- Node3 -->
<g id="node3" class="node"><title>Node3</title>
<g id="a_node3"><a xlink:href="classbsc_1_1parallel__pipeline.html" target="_top" xlink:title="bsc::parallel_pipeline\&lt; T \&gt;">
<polygon fill="white" stroke="black" points="307.5,-573.5 307.5,-592.5 438.5,-592.5 438.5,-573.5 307.5,-573.5"/>
<text text-anchor="middle" x="373" y="-580.5" font-family="Helvetica,sans-Serif" font-size="10.00">bsc::parallel_pipeline&lt; T &gt;</text>
</a>
</g>
</g>
<!-- Node2&#45;&gt;Node3 -->
<g id="edge2" class="edge"><title>Node2&#45;&gt;Node3</title>
<path fill="none" stroke="midnightblue" d="M212.677,-499.002C230.607,-517.44 261.681,-546.446 294,-563 302.461,-567.334 311.93,-570.776 321.276,-573.496"/>
<polygon fill="midnightblue" stroke="midnightblue" points="215.049,-496.417 205.619,-491.586 209.978,-501.243 215.049,-496.417"/>
</g>
<!-- Node4 -->
<g id="node4" class="node"><title>Node4</title>
<g id="a_node4"><a xlink:href="structbsc_1_1io__pipeline.html" target="_top" xlink:title="bsc::io_pipeline\&lt; T \&gt;">
<polygon fill="white" stroke="black" points="498,-573.5 498,-592.5 606,-592.5 606,-573.5 498,-573.5"/>
<text text-anchor="middle" x="552" y="-580.5" font-family="Helvetica,sans-Serif" font-size="10.00">bsc::io_pipeline&lt; T &gt;</text>
</a>
</g>
</g>
<!-- Node3&#45;&gt;Node4 -->
<g id="edge3" class="edge"><title>Node3&#45;&gt;Node4</title>
<path fill="none" stroke="midnightblue" d="M448.81,-583C465.292,-583 482.423,-583 497.842,-583"/>
<polygon fill="midnightblue" stroke="midnightblue" points="448.652,-579.5 438.652,-583 448.652,-586.5 448.652,-579.5"/>
</g>
<!-- Node6 -->
<g id="node6" class="node"><title>Node6</title>
<g id="a_node6"><a xlink:href="classbsc_1_1child__notify__handler.html" target="_top" xlink:title="bsc::child_notify_handler\l\&lt; K, R \&gt;">
<polygon fill="white" stroke="black" points="310.5,-524 310.5,-554 435.5,-554 435.5,-524 310.5,-524"/>
<text text-anchor="start" x="318.5" y="-542" font-family="Helvetica,sans-Serif" font-size="10.00">bsc::child_notify_handler</text>
<text text-anchor="middle" x="373" y="-531" font-family="Helvetica,sans-Serif" font-size="10.00">&lt; K, R &gt;</text>
</a>
</g>
</g>
<!-- Node5&#45;&gt;Node6 -->
<g id="edge5" class="edge"><title>Node5&#45;&gt;Node6</title>
<path fill="none" stroke="midnightblue" d="M206.699,-361.856C228.538,-404.04 280.698,-503.188 294,-514 298.855,-517.946 304.346,-521.275 310.11,-524.081"/>
<polygon fill="midnightblue" stroke="midnightblue" points="209.765,-360.164 202.067,-352.884 203.545,-363.375 209.765,-360.164"/>
</g>
<!-- Node7 -->
<g id="node7" class="node"><title>Node7</title>
<g id="a_node7"><a xlink:href="classbsc_1_1local__server.html" target="_top" xlink:title="bsc::local_server\&lt;\l K, S, R \&gt;">
<polygon fill="white" stroke="black" points="324.5,-475 324.5,-505 421.5,-505 421.5,-475 324.5,-475"/>
<text text-anchor="start" x="332.5" y="-493" font-family="Helvetica,sans-Serif" font-size="10.00">bsc::local_server&lt;</text>
<text text-anchor="middle" x="373" y="-482" font-family="Helvetica,sans-Serif" font-size="10.00"> K, S, R &gt;</text>
</a>
</g>
</g>
<!-- Node5&#45;&gt;Node7 -->
<g id="edge6" class="edge"><title>Node5&#45;&gt;Node7</title>
<path fill="none" stroke="midnightblue" d="M206.975,-361.551C222.25,-388.244 253.927,-437.312 294,-465 303.008,-471.224 313.654,-475.966 324.138,-479.554"/>
<polygon fill="midnightblue" stroke="midnightblue" points="209.863,-359.542 201.94,-352.507 203.746,-362.947 209.863,-359.542"/>
</g>
<!-- Node8 -->
<g id="node8" class="node"><title>Node8</title>
<g id="a_node8"><a xlink:href="classbsc_1_1process__handler.html" target="_top" xlink:title="bsc::process_handler\l\&lt; K, R \&gt;">
<polygon fill="white" stroke="black" points="318,-426 318,-456 428,-456 428,-426 318,-426"/>
<text text-anchor="start" x="326" y="-444" font-family="Helvetica,sans-Serif" font-size="10.00">bsc::process_handler</text>
<text text-anchor="middle" x="373" y="-433" font-family="Helvetica,sans-Serif" font-size="10.00">&lt; K, R &gt;</text>
</a>
</g>
</g>
<!-- Node5&#45;&gt;Node8 -->
<g id="edge7" class="edge"><title>Node5&#45;&gt;Node8</title>
<path fill="none" stroke="midnightblue" d="M214.908,-359.427C233.485,-375.725 263.972,-400.456 294,-416 301.451,-419.857 309.61,-423.264 317.756,-426.223"/>
<polygon fill="midnightblue" stroke="midnightblue" points="217.045,-356.643 207.254,-352.595 212.384,-361.865 217.045,-356.643"/>
</g>
<!-- Node9 -->
<g id="node9" class="node"><title>Node9</title>
<g id="a_node9"><a xlink:href="classbsc_1_1process__notify__handler.html" target="_top" xlink:title="bsc::process_notify\l_handler\&lt; K, R \&gt;">
<polygon fill="white" stroke="black" points="322,-377 322,-407 424,-407 424,-377 322,-377"/>
<text text-anchor="start" x="330" y="-395" font-family="Helvetica,sans-Serif" font-size="10.00">bsc::process_notify</text>
<text text-anchor="middle" x="373" y="-384" font-family="Helvetica,sans-Serif" font-size="10.00">_handler&lt; K, R &gt;</text>
</a>
</g>
</g>
<!-- Node5&#45;&gt;Node9 -->
<g id="edge8" class="edge"><title>Node5&#45;&gt;Node9</title>
<path fill="none" stroke="midnightblue" d="M240.925,-355.299C265.477,-362.174 296.174,-370.769 321.688,-377.913"/>
<polygon fill="midnightblue" stroke="midnightblue" points="241.731,-351.89 231.157,-352.564 239.843,-358.631 241.731,-351.89"/>
</g>
<!-- Node10 -->
<g id="node10" class="node"><title>Node10</title>
<g id="a_node10"><a xlink:href="classbsc_1_1remote__client.html" target="_top" xlink:title="bsc::remote_client\l\&lt; K, S, R \&gt;">
<polygon fill="white" stroke="black" points="324.5,-328 324.5,-358 421.5,-358 421.5,-328 324.5,-328"/>
<text text-anchor="start" x="332.5" y="-346" font-family="Helvetica,sans-Serif" font-size="10.00">bsc::remote_client</text>
<text text-anchor="middle" x="373" y="-335" font-family="Helvetica,sans-Serif" font-size="10.00">&lt; K, S, R &gt;</text>
</a>
</g>
</g>
<!-- Node5&#45;&gt;Node10 -->
<g id="edge9" class="edge"><title>Node5&#45;&gt;Node10</title>
<path fill="none" stroke="midnightblue" d="M255.371,-336.594C277.825,-336.045 303.168,-336.153 324.48,-336.92"/>
<polygon fill="midnightblue" stroke="midnightblue" points="255.175,-333.098 245.283,-336.893 255.382,-340.095 255.175,-333.098"/>
</g>
<!-- Node5&#45;&gt;Node10 -->
<g id="edge10" class="edge"><title>Node5&#45;&gt;Node10</title>
<path fill="none" stroke="midnightblue" d="M255.371,-349.406C277.825,-349.955 303.168,-349.847 324.48,-349.08"/>
<polygon fill="midnightblue" stroke="midnightblue" points="255.382,-345.905 245.283,-349.107 255.175,-352.902 255.382,-345.905"/>
</g>
<!-- Node11 -->
<g id="node11" class="node"><title>Node11</title>
<g id="a_node11"><a xlink:href="classbsc_1_1socket__notify__handler.html" target="_top" xlink:title="bsc::socket_notify\l_handler\&lt; K, S, R \&gt;">
<polygon fill="white" stroke="black" points="321,-279 321,-309 425,-309 425,-279 321,-279"/>
<text text-anchor="start" x="329" y="-297" font-family="Helvetica,sans-Serif" font-size="10.00">bsc::socket_notify</text>
<text text-anchor="middle" x="373" y="-286" font-family="Helvetica,sans-Serif" font-size="10.00">_handler&lt; K, S, R &gt;</text>
</a>
</g>
</g>
<!-- Node5&#45;&gt;Node11 -->
<g id="edge11" class="edge"><title>Node5&#45;&gt;Node11</title>
<path fill="none" stroke="midnightblue" d="M240.808,-330.734C265.056,-323.944 295.325,-315.469 320.677,-308.371"/>
<polygon fill="midnightblue" stroke="midnightblue" points="239.843,-327.369 231.157,-333.436 241.731,-334.11 239.843,-327.369"/>
</g>
<!-- Node12 -->
<g id="node12" class="node"><title>Node12</title>
<g id="a_node12"><a xlink:href="classbsc_1_1unix__socket__client.html" target="_top" xlink:title="bsc::unix_socket_client\l\&lt; K, R \&gt;">
<polygon fill="white" stroke="black" points="313.5,-230 313.5,-260 432.5,-260 432.5,-230 313.5,-230"/>
<text text-anchor="start" x="321.5" y="-248" font-family="Helvetica,sans-Serif" font-size="10.00">bsc::unix_socket_client</text>
<text text-anchor="middle" x="373" y="-237" font-family="Helvetica,sans-Serif" font-size="10.00">&lt; K, R &gt;</text>
</a>
</g>
</g>
<!-- Node5&#45;&gt;Node12 -->
<g id="edge12" class="edge"><title>Node5&#45;&gt;Node12</title>
<path fill="none" stroke="midnightblue" d="M214.529,-326.528C233.015,-309.939 263.619,-284.628 294,-269 300.552,-265.63 307.66,-262.639 314.828,-260.012"/>
<polygon fill="midnightblue" stroke="midnightblue" points="211.954,-324.14 206.933,-333.47 216.676,-329.307 211.954,-324.14"/>
</g>
<!-- Node13 -->
<g id="node13" class="node"><title>Node13</title>
<g id="a_node13"><a xlink:href="classbsc_1_1unix__socket__server.html" target="_top" xlink:title="bsc::unix_socket_server\l\&lt; K, R \&gt;">
<polygon fill="white" stroke="black" points="311.5,-181 311.5,-211 434.5,-211 434.5,-181 311.5,-181"/>
<text text-anchor="start" x="319.5" y="-199" font-family="Helvetica,sans-Serif" font-size="10.00">bsc::unix_socket_server</text>
<text text-anchor="middle" x="373" y="-188" font-family="Helvetica,sans-Serif" font-size="10.00">&lt; K, R &gt;</text>
</a>
</g>
</g>
<!-- Node5&#45;&gt;Node13 -->
<g id="edge13" class="edge"><title>Node5&#45;&gt;Node13</title>
<path fill="none" stroke="midnightblue" d="M206.694,-324.588C221.79,-297.678 253.441,-247.794 294,-220 299.259,-216.396 305.08,-213.317 311.102,-210.691"/>
<polygon fill="midnightblue" stroke="midnightblue" points="203.614,-322.925 201.895,-333.38 209.759,-326.279 203.614,-322.925"/>
</g>
<!-- Node15 -->
<g id="node15" class="node"><title>Node15</title>
<g id="a_node15"><a xlink:href="classbsc_1_1basic__socket__pipeline.html" target="_top" xlink:title="basic_socket_pipeline\&lt; K \&gt;">
<polygon fill="white" stroke="black" points="304.5,-142.5 304.5,-161.5 441.5,-161.5 441.5,-142.5 304.5,-142.5"/>
<text text-anchor="middle" x="373" y="-149.5" font-family="Helvetica,sans-Serif" font-size="10.00">basic_socket_pipeline&lt; K &gt;</text>
</a>
</g>
</g>
<!-- Node14&#45;&gt;Node15 -->
<g id="edge15" class="edge"><title>Node14&#45;&gt;Node15</title>
<path fill="none" stroke="midnightblue" d="M265.381,-152C278.167,-152 291.525,-152 304.29,-152"/>
<polygon fill="midnightblue" stroke="midnightblue" points="265.273,-148.5 255.272,-152 265.272,-155.5 265.273,-148.5"/>
</g>
<!-- Node20 -->
<g id="node20" class="node"><title>Node20</title>
<g id="a_node20"><a xlink:href="classbsc_1_1basic__socket__pipeline.html" target="_top" xlink:title="bsc::basic_socket_pipeline\&lt; T \&gt;">
<polygon fill="white" stroke="black" points="294,-104.5 294,-123.5 452,-123.5 452,-104.5 294,-104.5"/>
<text text-anchor="middle" x="373" y="-111.5" font-family="Helvetica,sans-Serif" font-size="10.00">bsc::basic_socket_pipeline&lt; T &gt;</text>
</a>
</g>
</g>
<!-- Node14&#45;&gt;Node20 -->
<g id="edge20" class="edge"><title>Node14&#45;&gt;Node20</title>
<path fill="none" stroke="midnightblue" d="M265.18,-137.195C286.33,-132.603 309.064,-127.666 328.099,-123.533"/>
<polygon fill="midnightblue" stroke="midnightblue" points="264.302,-133.804 255.272,-139.347 265.787,-140.645 264.302,-133.804"/>
</g>
<!-- Node22 -->
<g id="node22" class="node"><title>Node22</title>
<g id="a_node22"><a xlink:href="structbsc_1_1timer__pipeline.html" target="_top" xlink:title="bsc::timer_pipeline\&lt; T \&gt;">
<polygon fill="white" stroke="black" points="312,-66.5 312,-85.5 434,-85.5 434,-66.5 312,-66.5"/>
<text text-anchor="middle" x="373" y="-73.5" font-family="Helvetica,sans-Serif" font-size="10.00">bsc::timer_pipeline&lt; T &gt;</text>
</a>
</g>
</g>
<!-- Node14&#45;&gt;Node22 -->
<g id="edge22" class="edge"><title>Node14&#45;&gt;Node22</title>
<path fill="none" stroke="midnightblue" d="M250.175,-120.647C272.412,-107.554 293.328,-95.2723 294,-95 303.171,-91.2826 313.255,-88.1657 323.039,-85.6022"/>
<polygon fill="midnightblue" stroke="midnightblue" points="248.135,-117.787 241.295,-125.877 251.688,-123.818 248.135,-117.787"/>
</g>
<!-- Node16 -->
<g id="node16" class="node"><title>Node16</title>
<g id="a_node16"><a xlink:href="classbsc_1_1child__process__pipeline.html" target="_top" xlink:title="bsc::child_process\l_pipeline\&lt; K, R \&gt;">
<polygon fill="white" stroke="black" points="503,-235 503,-265 601,-265 601,-235 503,-235"/>
<text text-anchor="start" x="511" y="-253" font-family="Helvetica,sans-Serif" font-size="10.00">bsc::child_process</text>
<text text-anchor="middle" x="552" y="-242" font-family="Helvetica,sans-Serif" font-size="10.00">_pipeline&lt; K, R &gt;</text>
</a>
</g>
</g>
<!-- Node15&#45;&gt;Node16 -->
<g id="edge16" class="edge"><title>Node15&#45;&gt;Node16</title>
<path fill="none" stroke="midnightblue" d="M443.321,-165.803C446.348,-167.355 449.26,-169.081 452,-171 475.628,-187.544 465.576,-206.857 488,-225 492.665,-228.775 497.972,-232.038 503.48,-234.843"/>
<polygon fill="midnightblue" stroke="midnightblue" points="444.509,-162.501 433.948,-161.647 441.671,-168.9 444.509,-162.501"/>
</g>
<!-- Node17 -->
<g id="node17" class="node"><title>Node17</title>
<g id="a_node17"><a xlink:href="classbsc_1_1process__pipeline.html" target="_top" xlink:title="bsc::process_pipeline\l\&lt; K, R \&gt;">
<polygon fill="white" stroke="black" points="496.5,-186 496.5,-216 607.5,-216 607.5,-186 496.5,-186"/>
<text text-anchor="start" x="504.5" y="-204" font-family="Helvetica,sans-Serif" font-size="10.00">bsc::process_pipeline</text>
<text text-anchor="middle" x="552" y="-193" font-family="Helvetica,sans-Serif" font-size="10.00">&lt; K, R &gt;</text>
</a>
</g>
</g>
<!-- Node15&#45;&gt;Node17 -->
<g id="edge17" class="edge"><title>Node15&#45;&gt;Node17</title>
<path fill="none" stroke="midnightblue" d="M424.723,-163.924C433.827,-166.187 443.212,-168.6 452,-171 468.805,-175.589 487.089,-181.008 503.317,-185.968"/>
<polygon fill="midnightblue" stroke="midnightblue" points="425.542,-160.522 414.996,-161.536 423.872,-167.32 425.542,-160.522"/>
</g>
<!-- Node18 -->
<g id="node18" class="node"><title>Node18</title>
<g id="a_node18"><a xlink:href="classbsc_1_1socket__pipeline.html" target="_top" xlink:title="bsc::socket_pipeline\l\&lt; K, S, R \&gt;">
<polygon fill="white" stroke="black" points="499,-137 499,-167 605,-167 605,-137 499,-137"/>
<text text-anchor="start" x="507" y="-155" font-family="Helvetica,sans-Serif" font-size="10.00">bsc::socket_pipeline</text>
<text text-anchor="middle" x="552" y="-144" font-family="Helvetica,sans-Serif" font-size="10.00">&lt; K, S, R &gt;</text>
</a>
</g>
</g>
<!-- Node15&#45;&gt;Node18 -->
<g id="edge18" class="edge"><title>Node15&#45;&gt;Node18</title>
<path fill="none" stroke="midnightblue" d="M451.989,-152C467.818,-152 484.103,-152 498.778,-152"/>
<polygon fill="midnightblue" stroke="midnightblue" points="451.674,-148.5 441.674,-152 451.674,-155.5 451.674,-148.5"/>
</g>
<!-- Node19 -->
<g id="node19" class="node"><title>Node19</title>
<g id="a_node19"><a xlink:href="classbsc_1_1unix__domain__socket__pipeline.html" target="_top" xlink:title="bsc::unix_domain_socket\l_pipeline\&lt; K, R \&gt;">
<polygon fill="white" stroke="black" points="488,-88 488,-118 616,-118 616,-88 488,-88"/>
<text text-anchor="start" x="496" y="-106" font-family="Helvetica,sans-Serif" font-size="10.00">bsc::unix_domain_socket</text>
<text text-anchor="middle" x="552" y="-95" font-family="Helvetica,sans-Serif" font-size="10.00">_pipeline&lt; K, R &gt;</text>
</a>
</g>
</g>
<!-- Node15&#45;&gt;Node19 -->
<g id="edge19" class="edge"><title>Node15&#45;&gt;Node19</title>
<path fill="none" stroke="midnightblue" d="M424.723,-140.076C433.827,-137.813 443.212,-135.4 452,-133 468.805,-128.411 487.089,-122.992 503.317,-118.032"/>
<polygon fill="midnightblue" stroke="midnightblue" points="423.872,-136.68 414.996,-142.464 425.542,-143.478 423.872,-136.68"/>
</g>
<!-- Node21 -->
<g id="node21" class="node"><title>Node21</title>
<g id="a_node21"><a xlink:href="classbsc_1_1child__process__pipeline.html" target="_top" xlink:title="child_process_pipeline\l\&lt; T, basic_router\&lt; T \&gt; \&gt;">
<polygon fill="white" stroke="black" points="490,-39 490,-69 614,-69 614,-39 490,-39"/>
<text text-anchor="start" x="498" y="-57" font-family="Helvetica,sans-Serif" font-size="10.00">child_process_pipeline</text>
<text text-anchor="middle" x="552" y="-46" font-family="Helvetica,sans-Serif" font-size="10.00">&lt; T, basic_router&lt; T &gt; &gt;</text>
</a>
</g>
</g>
<!-- Node20&#45;&gt;Node21 -->
<g id="edge21" class="edge"><title>Node20&#45;&gt;Node21</title>
<path fill="none" stroke="midnightblue" d="M429.701,-101.895C437.266,-99.827 444.874,-97.5212 452,-95 468.681,-89.0982 471.72,-84.9325 488,-78 495.107,-74.9735 502.737,-71.9123 510.148,-69.0355"/>
<polygon fill="midnightblue" stroke="midnightblue" points="428.615,-98.5616 419.825,-104.476 430.385,-105.334 428.615,-98.5616"/>
</g>
</g>
</svg>
