<?xml version="1.0" encoding="UTF-8" standalone="no"?>
<!DOCTYPE svg PUBLIC "-//W3C//DTD SVG 1.1//EN"
 "http://www.w3.org/Graphics/SVG/1.1/DTD/svg11.dtd">
<!-- Generated by graphviz version 2.36.0 (20140111.2315)
 -->
<!-- Title: factory::basic_pipeline&lt; T, Kernels, Traits, Threads, Mutex, Lock, Semaphore &gt; Pages: 1 -->
<svg width="405pt" height="130pt"
 viewBox="0.00 0.00 405.00 130.00" xmlns="http://www.w3.org/2000/svg" xmlns:xlink="http://www.w3.org/1999/xlink">
<g id="graph0" class="graph" transform="scale(1 1) rotate(0) translate(4 126)">
<title>factory::basic_pipeline&lt; T, Kernels, Traits, Threads, Mutex, Lock, Semaphore &gt;</title>
<polygon fill="white" stroke="none" points="-4,4 -4,-126 401,-126 401,4 -4,4"/>
<!-- Node1 -->
<g id="node1" class="node"><title>Node1</title>
<polygon fill="#bfbfbf" stroke="black" points="170,-1 170,-53 288,-53 288,-1 170,-1"/>
<text text-anchor="start" x="178" y="-41" font-family="Helvetica,sans-Serif" font-size="10.00">factory::basic_pipeline</text>
<text text-anchor="start" x="178" y="-30" font-family="Helvetica,sans-Serif" font-size="10.00">&lt; T, Kernels, Traits,</text>
<text text-anchor="start" x="178" y="-19" font-family="Helvetica,sans-Serif" font-size="10.00"> Threads, Mutex, Lock,</text>
<text text-anchor="middle" x="229" y="-8" font-family="Helvetica,sans-Serif" font-size="10.00"> Semaphore &gt;</text>
</g>
<!-- Node2 -->
<g id="node2" class="node"><title>Node2</title>
<g id="a_node2"><a xlink:href="structfactory_1_1pipeline__base.html" target="_top" xlink:title="factory::pipeline_base">
<polygon fill="white" stroke="black" points="0,-102.5 0,-121.5 112,-121.5 112,-102.5 0,-102.5"/>
<text text-anchor="middle" x="56" y="-109.5" font-family="Helvetica,sans-Serif" font-size="10.00">factory::pipeline_base</text>
</a>
</g>
</g>
<!-- Node2&#45;&gt;Node1 -->
<g id="edge1" class="edge"><title>Node2&#45;&gt;Node1</title>
<path fill="none" stroke="midnightblue" d="M83.1004,-97.9981C108.116,-85.9965 145.949,-67.8452 176.821,-53.0338"/>
<polygon fill="midnightblue" stroke="midnightblue" points="81.3645,-94.9489 73.8624,-102.43 84.3925,-101.26 81.3645,-94.9489"/>
</g>
<!-- Node3 -->
<g id="node3" class="node"><title>Node3</title>
<polygon fill="white" stroke="#bfbfbf" points="130,-102.5 130,-121.5 180,-121.5 180,-102.5 130,-102.5"/>
<text text-anchor="middle" x="155" y="-109.5" font-family="Helvetica,sans-Serif" font-size="10.00">Kernels</text>
</g>
<!-- Node3&#45;&gt;Node1 -->
<g id="edge2" class="edge"><title>Node3&#45;&gt;Node1</title>
<path fill="none" stroke="#9a32cd" stroke-dasharray="5,2" d="M167.139,-94.2436C172.426,-87.208 178.818,-79.0409 185,-72 190.56,-65.6681 196.816,-59.1099 202.829,-53.0513"/>
<polygon fill="#9a32cd" stroke="#9a32cd" points="164.255,-92.2564 161.132,-102.38 169.887,-96.414 164.255,-92.2564"/>
<text text-anchor="middle" x="205" y="-75.5" font-family="Helvetica,sans-Serif" font-size="10.00"> _kernels</text>
</g>
<!-- Node4 -->
<g id="node4" class="node"><title>Node4</title>
<polygon fill="white" stroke="#bfbfbf" points="198,-102.5 198,-121.5 264,-121.5 264,-102.5 198,-102.5"/>
<text text-anchor="middle" x="231" y="-109.5" font-family="Helvetica,sans-Serif" font-size="10.00">Semaphore</text>
</g>
<!-- Node4&#45;&gt;Node1 -->
<g id="edge3" class="edge"><title>Node4&#45;&gt;Node1</title>
<path fill="none" stroke="#9a32cd" stroke-dasharray="5,2" d="M230.263,-92.374C230.166,-89.568 230.074,-86.7079 230,-84 229.723,-73.8911 229.506,-62.7535 229.346,-53.0914"/>
<polygon fill="#9a32cd" stroke="#9a32cd" points="226.77,-92.6274 230.643,-102.489 233.765,-92.3648 226.77,-92.6274"/>
<text text-anchor="middle" x="258.5" y="-75.5" font-family="Helvetica,sans-Serif" font-size="10.00"> _semaphore</text>
</g>
<!-- Node5 -->
<g id="node5" class="node"><title>Node5</title>
<polygon fill="white" stroke="#bfbfbf" points="283,-102.5 283,-121.5 335,-121.5 335,-102.5 283,-102.5"/>
<text text-anchor="middle" x="309" y="-109.5" font-family="Helvetica,sans-Serif" font-size="10.00">Threads</text>
</g>
<!-- Node5&#45;&gt;Node1 -->
<g id="edge4" class="edge"><title>Node5&#45;&gt;Node1</title>
<path fill="none" stroke="#9a32cd" stroke-dasharray="5,2" d="M300.79,-92.9465C297.136,-85.9838 292.427,-78.2167 287,-72 281.098,-65.2399 274.009,-58.8451 266.845,-53.1329"/>
<polygon fill="#9a32cd" stroke="#9a32cd" points="297.82,-94.8421 305.348,-102.298 304.112,-91.7752 297.82,-94.8421"/>
<text text-anchor="middle" x="315.5" y="-75.5" font-family="Helvetica,sans-Serif" font-size="10.00"> _threads</text>
</g>
<!-- Node6 -->
<g id="node6" class="node"><title>Node6</title>
<polygon fill="white" stroke="#bfbfbf" points="353,-102.5 353,-121.5 397,-121.5 397,-102.5 353,-102.5"/>
<text text-anchor="middle" x="375" y="-109.5" font-family="Helvetica,sans-Serif" font-size="10.00">Mutex</text>
</g>
<!-- Node6&#45;&gt;Node1 -->
<g id="edge5" class="edge"><title>Node6&#45;&gt;Node1</title>
<path fill="none" stroke="#9a32cd" stroke-dasharray="5,2" d="M362.885,-94.2633C356.718,-86.6695 348.692,-78.0545 340,-72 324.351,-61.0998 305.614,-52.3514 288.029,-45.6161"/>
<polygon fill="#9a32cd" stroke="#9a32cd" points="360.336,-96.6906 369.2,-102.494 365.89,-92.4296 360.336,-96.6906"/>
<text text-anchor="middle" x="371" y="-75.5" font-family="Helvetica,sans-Serif" font-size="10.00"> _mutex</text>
</g>
</g>
</svg>
