<?xml version="1.0" encoding="UTF-8" standalone="no"?>
<!DOCTYPE svg PUBLIC "-//W3C//DTD SVG 1.1//EN"
 "http://www.w3.org/Graphics/SVG/1.1/DTD/svg11.dtd">
<!-- Generated by graphviz version 2.36.0 (20140111.2315)
 -->
<!-- Title: factory::tree_hierarchy_iterator&lt; Addr &gt; Pages: 1 -->
<svg width="122pt" height="118pt"
 viewBox="0.00 0.00 122.00 118.00" xmlns="http://www.w3.org/2000/svg" xmlns:xlink="http://www.w3.org/1999/xlink">
<g id="graph0" class="graph" transform="scale(1 1) rotate(0) translate(4 114)">
<title>factory::tree_hierarchy_iterator&lt; Addr &gt;</title>
<polygon fill="white" stroke="none" points="-4,4 -4,-114 118,-114 118,4 -4,4"/>
<!-- Node1 -->
<g id="node1" class="node"><title>Node1</title>
<polygon fill="#bfbfbf" stroke="black" points="0,-1 0,-31 114,-31 114,-1 0,-1"/>
<text text-anchor="start" x="8" y="-19" font-family="Helvetica,sans-Serif" font-size="10.00">factory::tree_hierarchy</text>
<text text-anchor="middle" x="57" y="-8" font-family="Helvetica,sans-Serif" font-size="10.00">_iterator&lt; Addr &gt;</text>
</g>
<!-- Node2 -->
<g id="node2" class="node"><title>Node2</title>
<polygon fill="white" stroke="#bfbfbf" points="6.5,-68.5 6.5,-109.5 107.5,-109.5 107.5,-68.5 6.5,-68.5"/>
<text text-anchor="start" x="14.5" y="-97.5" font-family="Helvetica,sans-Serif" font-size="10.00">std::iterator&lt; std</text>
<text text-anchor="start" x="14.5" y="-86.5" font-family="Helvetica,sans-Serif" font-size="10.00">::input_iterator_tag,</text>
<text text-anchor="middle" x="57" y="-75.5" font-family="Helvetica,sans-Serif" font-size="10.00"> Addr, void &gt;</text>
</g>
<!-- Node2&#45;&gt;Node1 -->
<g id="edge1" class="edge"><title>Node2&#45;&gt;Node1</title>
<path fill="none" stroke="midnightblue" d="M57,-58.0188C57,-48.6567 57,-38.7696 57,-31.0485"/>
<polygon fill="midnightblue" stroke="midnightblue" points="53.5001,-58.2225 57,-68.2225 60.5001,-58.2226 53.5001,-58.2225"/>
</g>
</g>
</svg>
