<?xml version="1.0" encoding="UTF-8" standalone="no"?>
<!DOCTYPE svg PUBLIC "-//W3C//DTD SVG 1.1//EN"
 "http://www.w3.org/Graphics/SVG/1.1/DTD/svg11.dtd">
<!-- Generated by graphviz version 2.36.0 (20140111.2315)
 -->
<!-- Title: asc::kernel_base Pages: 1 -->
<svg width="676pt" height="1188pt"
 viewBox="0.00 0.00 676.00 1188.00" xmlns="http://www.w3.org/2000/svg" xmlns:xlink="http://www.w3.org/1999/xlink">
<g id="graph0" class="graph" transform="scale(1 1) rotate(0) translate(4 1184)">
<title>asc::kernel_base</title>
<polygon fill="white" stroke="none" points="-4,4 -4,-1184 672,-1184 672,4 -4,4"/>
<!-- Node1 -->
<g id="node1" class="node"><title>Node1</title>
<polygon fill="#bfbfbf" stroke="black" points="0.5,-487.5 0.5,-506.5 91.5,-506.5 91.5,-487.5 0.5,-487.5"/>
<text text-anchor="middle" x="46" y="-494.5" font-family="Helvetica,sans-Serif" font-size="10.00">asc::kernel_base</text>
</g>
<!-- Node2 -->
<g id="node2" class="node"><title>Node2</title>
<g id="a_node2"><a xlink:href="classasc_1_1mobile__kernel.html" target="_top" xlink:title="asc::mobile_kernel">
<polygon fill="white" stroke="black" points="128,-487.5 128,-506.5 226,-506.5 226,-487.5 128,-487.5"/>
<text text-anchor="middle" x="177" y="-494.5" font-family="Helvetica,sans-Serif" font-size="10.00">asc::mobile_kernel</text>
</a>
</g>
</g>
<!-- Node1&#45;&gt;Node2 -->
<g id="edge1" class="edge"><title>Node1&#45;&gt;Node2</title>
<path fill="none" stroke="midnightblue" d="M101.767,-497C110.421,-497 119.315,-497 127.805,-497"/>
<polygon fill="midnightblue" stroke="midnightblue" points="101.756,-493.5 91.7559,-497 101.756,-500.5 101.756,-493.5"/>
</g>
<!-- Node3 -->
<g id="node3" class="node"><title>Node3</title>
<g id="a_node3"><a xlink:href="structasc_1_1Kernel.html" target="_top" xlink:title="asc::Kernel">
<polygon fill="white" stroke="black" points="262,-487.5 262,-506.5 328,-506.5 328,-487.5 262,-487.5"/>
<text text-anchor="middle" x="295" y="-494.5" font-family="Helvetica,sans-Serif" font-size="10.00">asc::Kernel</text>
</a>
</g>
</g>
<!-- Node2&#45;&gt;Node3 -->
<g id="edge2" class="edge"><title>Node2&#45;&gt;Node3</title>
<path fill="none" stroke="midnightblue" d="M236.466,-497C245.258,-497 254.036,-497 261.992,-497"/>
<polygon fill="midnightblue" stroke="midnightblue" points="236.187,-493.5 226.187,-497 236.187,-500.5 236.187,-493.5"/>
</g>
<!-- Node4 -->
<g id="node4" class="node"><title>Node4</title>
<g id="a_node4"><a xlink:href="classasc_1_1discovery__timer.html" target="_top" xlink:title="asc::discovery_timer">
<polygon fill="white" stroke="black" points="383.5,-1160.5 383.5,-1179.5 490.5,-1179.5 490.5,-1160.5 383.5,-1160.5"/>
<text text-anchor="middle" x="437" y="-1167.5" font-family="Helvetica,sans-Serif" font-size="10.00">asc::discovery_timer</text>
</a>
</g>
</g>
<!-- Node3&#45;&gt;Node4 -->
<g id="edge3" class="edge"><title>Node3&#45;&gt;Node4</title>
<path fill="none" stroke="midnightblue" d="M296.746,-517.049C300.811,-621.619 321.684,-1101.59 364,-1151 369.13,-1156.99 375.903,-1161.2 383.245,-1164.15"/>
<polygon fill="midnightblue" stroke="midnightblue" points="300.238,-516.773 296.359,-506.913 293.243,-517.04 300.238,-516.773"/>
</g>
<!-- Node5 -->
<g id="node5" class="node"><title>Node5</title>
<g id="a_node5"><a xlink:href="classasc_1_1hierarchy__kernel.html" target="_top" xlink:title="asc::hierarchy_kernel">
<polygon fill="white" stroke="black" points="382,-1122.5 382,-1141.5 492,-1141.5 492,-1122.5 382,-1122.5"/>
<text text-anchor="middle" x="437" y="-1129.5" font-family="Helvetica,sans-Serif" font-size="10.00">asc::hierarchy_kernel</text>
</a>
</g>
</g>
<!-- Node3&#45;&gt;Node5 -->
<g id="edge4" class="edge"><title>Node3&#45;&gt;Node5</title>
<path fill="none" stroke="midnightblue" d="M296.871,-516.821C301.454,-617.221 324.093,-1066.7 364,-1113 368.811,-1118.58 375.049,-1122.62 381.84,-1125.52"/>
<polygon fill="midnightblue" stroke="midnightblue" points="300.366,-516.644 296.421,-506.811 293.373,-516.958 300.366,-516.644"/>
</g>
<!-- Node6 -->
<g id="node6" class="node"><title>Node6</title>
<g id="a_node6"><a xlink:href="structasc_1_1Map.html" target="_top" xlink:title="asc::Map\&lt; F, G, I \&gt;">
<polygon fill="white" stroke="black" points="385,-1084.5 385,-1103.5 489,-1103.5 489,-1084.5 385,-1084.5"/>
<text text-anchor="middle" x="437" y="-1091.5" font-family="Helvetica,sans-Serif" font-size="10.00">asc::Map&lt; F, G, I &gt;</text>
</a>
</g>
</g>
<!-- Node3&#45;&gt;Node6 -->
<g id="edge5" class="edge"><title>Node3&#45;&gt;Node6</title>
<path fill="none" stroke="midnightblue" d="M297.034,-516.746C302.246,-613.059 326.864,-1030.67 364,-1074 369.488,-1080.4 376.83,-1084.84 384.732,-1087.91"/>
<polygon fill="midnightblue" stroke="midnightblue" points="300.523,-516.439 296.495,-506.64 293.532,-516.812 300.523,-516.439"/>
</g>
<!-- Node7 -->
<g id="node7" class="node"><title>Node7</title>
<g id="a_node7"><a xlink:href="structasc_1_1Map_1_1Worker.html" target="_top" xlink:title="asc::Map\&lt; F, G, I \&gt;\l::Worker">
<polygon fill="white" stroke="black" points="385,-1035 385,-1065 489,-1065 489,-1035 385,-1035"/>
<text text-anchor="start" x="393" y="-1053" font-family="Helvetica,sans-Serif" font-size="10.00">asc::Map&lt; F, G, I &gt;</text>
<text text-anchor="middle" x="437" y="-1042" font-family="Helvetica,sans-Serif" font-size="10.00">::Worker</text>
</a>
</g>
</g>
<!-- Node3&#45;&gt;Node7 -->
<g id="edge6" class="edge"><title>Node3&#45;&gt;Node7</title>
<path fill="none" stroke="midnightblue" d="M295.86,-516.795C295.64,-603.001 298.944,-944.935 364,-1025 369.507,-1031.78 376.96,-1036.72 384.99,-1040.33"/>
<polygon fill="midnightblue" stroke="midnightblue" points="299.36,-516.594 295.907,-506.578 292.361,-516.562 299.36,-516.594"/>
</g>
<!-- Node8 -->
<g id="node8" class="node"><title>Node8</title>
<g id="a_node8"><a xlink:href="classasc_1_1network__master.html" target="_top" xlink:title="asc::network_master">
<polygon fill="white" stroke="black" points="383,-996.5 383,-1015.5 491,-1015.5 491,-996.5 383,-996.5"/>
<text text-anchor="middle" x="437" y="-1003.5" font-family="Helvetica,sans-Serif" font-size="10.00">asc::network_master</text>
</a>
</g>
</g>
<!-- Node3&#45;&gt;Node8 -->
<g id="edge7" class="edge"><title>Node3&#45;&gt;Node8</title>
<path fill="none" stroke="midnightblue" d="M295.933,-516.797C296.062,-599.406 300.742,-915.648 364,-987 369.06,-992.707 375.612,-996.793 382.699,-999.702"/>
<polygon fill="midnightblue" stroke="midnightblue" points="299.433,-516.743 295.939,-506.741 292.433,-516.738 299.433,-516.743"/>
</g>
<!-- Node9 -->
<g id="node9" class="node"><title>Node9</title>
<g id="a_node9"><a xlink:href="classasc_1_1network__timer.html" target="_top" xlink:title="asc::network_timer">
<polygon fill="white" stroke="black" points="387,-958.5 387,-977.5 487,-977.5 487,-958.5 387,-958.5"/>
<text text-anchor="middle" x="437" y="-965.5" font-family="Helvetica,sans-Serif" font-size="10.00">asc::network_timer</text>
</a>
</g>
</g>
<!-- Node3&#45;&gt;Node9 -->
<g id="edge8" class="edge"><title>Node3&#45;&gt;Node9</title>
<path fill="none" stroke="midnightblue" d="M296.188,-516.749C297.34,-595.215 305.548,-883.823 364,-949 370.042,-955.737 378.163,-960.21 386.774,-963.154"/>
<polygon fill="midnightblue" stroke="midnightblue" points="299.688,-516.704 296.064,-506.748 292.688,-516.791 299.688,-516.704"/>
</g>
<!-- Node10 -->
<g id="node10" class="node"><title>Node10</title>
<g id="a_node10"><a xlink:href="classasc_1_1Notification.html" target="_top" xlink:title="asc::Notification">
<polygon fill="white" stroke="black" points="393,-920.5 393,-939.5 481,-939.5 481,-920.5 393,-920.5"/>
<text text-anchor="middle" x="437" y="-927.5" font-family="Helvetica,sans-Serif" font-size="10.00">asc::Notification</text>
</a>
</g>
</g>
<!-- Node3&#45;&gt;Node10 -->
<g id="edge9" class="edge"><title>Node3&#45;&gt;Node10</title>
<path fill="none" stroke="midnightblue" d="M296.495,-516.955C298.75,-591.453 310.401,-852.038 364,-911 371.479,-919.227 382.058,-924.07 392.811,-926.876"/>
<polygon fill="midnightblue" stroke="midnightblue" points="299.985,-516.555 296.209,-506.656 292.988,-516.749 299.985,-516.555"/>
</g>
<!-- Node11 -->
<g id="node11" class="node"><title>Node11</title>
<g id="a_node11"><a xlink:href="classasc_1_1probe.html" target="_top" xlink:title="asc::probe">
<polygon fill="white" stroke="black" points="406,-882.5 406,-901.5 468,-901.5 468,-882.5 406,-882.5"/>
<text text-anchor="middle" x="437" y="-889.5" font-family="Helvetica,sans-Serif" font-size="10.00">asc::probe</text>
</a>
</g>
</g>
<!-- Node3&#45;&gt;Node11 -->
<g id="edge10" class="edge"><title>Node3&#45;&gt;Node11</title>
<path fill="none" stroke="midnightblue" d="M296.857,-516.913C300.269,-586.892 315.175,-820.152 364,-873 374.615,-884.49 391.281,-889.363 405.906,-891.307"/>
<polygon fill="midnightblue" stroke="midnightblue" points="300.347,-516.631 296.39,-506.803 293.355,-516.954 300.347,-516.631"/>
</g>
<!-- Node12 -->
<g id="node12" class="node"><title>Node12</title>
<g id="a_node12"><a xlink:href="classasc_1_1prober.html" target="_top" xlink:title="asc::prober">
<polygon fill="white" stroke="black" points="404.5,-844.5 404.5,-863.5 469.5,-863.5 469.5,-844.5 404.5,-844.5"/>
<text text-anchor="middle" x="437" y="-851.5" font-family="Helvetica,sans-Serif" font-size="10.00">asc::prober</text>
</a>
</g>
</g>
<!-- Node3&#45;&gt;Node12 -->
<g id="edge11" class="edge"><title>Node3&#45;&gt;Node12</title>
<path fill="none" stroke="midnightblue" d="M297.303,-516.979C301.967,-582.336 319.953,-788.252 364,-835 374.284,-845.915 390.031,-850.839 404.179,-852.961"/>
<polygon fill="midnightblue" stroke="midnightblue" points="300.781,-516.529 296.605,-506.792 293.797,-517.008 300.781,-516.529"/>
</g>
<!-- Node13 -->
<g id="node13" class="node"><title>Node13</title>
<g id="a_node13"><a xlink:href="classasc_1_1resident__kernel.html" target="_top" xlink:title="asc::resident_kernel">
<polygon fill="white" stroke="black" points="385,-806.5 385,-825.5 489,-825.5 489,-806.5 385,-806.5"/>
<text text-anchor="middle" x="437" y="-813.5" font-family="Helvetica,sans-Serif" font-size="10.00">asc::resident_kernel</text>
</a>
</g>
</g>
<!-- Node3&#45;&gt;Node13 -->
<g id="edge12" class="edge"><title>Node3&#45;&gt;Node13</title>
<path fill="none" stroke="midnightblue" d="M297.824,-516.662C303.788,-576.729 324.622,-756.214 364,-797 369.747,-802.952 377.12,-807.116 384.948,-810.013"/>
<polygon fill="midnightblue" stroke="midnightblue" points="301.299,-516.224 296.856,-506.605 294.331,-516.895 301.299,-516.224"/>
</g>
<!-- Node15 -->
<g id="node15" class="node"><title>Node15</title>
<g id="a_node15"><a xlink:href="structautoreg_1_1ACF__generator.html" target="_top" xlink:title="autoreg::ACF_generator\&lt; T \&gt;">
<polygon fill="white" stroke="black" points="364.5,-768.5 364.5,-787.5 509.5,-787.5 509.5,-768.5 364.5,-768.5"/>
<text text-anchor="middle" x="437" y="-775.5" font-family="Helvetica,sans-Serif" font-size="10.00">autoreg::ACF_generator&lt; T &gt;</text>
</a>
</g>
</g>
<!-- Node3&#45;&gt;Node15 -->
<g id="edge14" class="edge"><title>Node3&#45;&gt;Node15</title>
<path fill="none" stroke="midnightblue" d="M298.517,-516.634C305.924,-571.413 329.325,-724.184 364,-759 367.832,-762.847 372.344,-765.943 377.21,-768.432"/>
<polygon fill="midnightblue" stroke="midnightblue" points="301.959,-515.966 297.181,-506.51 295.019,-516.882 301.959,-515.966"/>
</g>
<!-- Node16 -->
<g id="node16" class="node"><title>Node16</title>
<g id="a_node16"><a xlink:href="structautoreg_1_1Autoreg__coefs.html" target="_top" xlink:title="autoreg::Autoreg_coefs\&lt; T \&gt;">
<polygon fill="white" stroke="black" points="366,-730.5 366,-749.5 508,-749.5 508,-730.5 366,-730.5"/>
<text text-anchor="middle" x="437" y="-737.5" font-family="Helvetica,sans-Serif" font-size="10.00">autoreg::Autoreg_coefs&lt; T &gt;</text>
</a>
</g>
</g>
<!-- Node3&#45;&gt;Node16 -->
<g id="edge15" class="edge"><title>Node3&#45;&gt;Node16</title>
<path fill="none" stroke="midnightblue" d="M295.949,-516.891C296.963,-560.442 305.713,-664.815 364,-721 368.002,-724.858 372.691,-727.956 377.724,-730.44"/>
<polygon fill="midnightblue" stroke="midnightblue" points="299.447,-516.71 295.833,-506.751 292.448,-516.79 299.447,-516.71"/>
</g>
<!-- Node17 -->
<g id="node17" class="node"><title>Node17</title>
<g id="a_node17"><a xlink:href="classautoreg_1_1Autoreg__model.html" target="_top" xlink:title="autoreg::Autoreg_model\&lt; T \&gt;">
<polygon fill="white" stroke="black" points="365,-692.5 365,-711.5 509,-711.5 509,-692.5 365,-692.5"/>
<text text-anchor="middle" x="437" y="-699.5" font-family="Helvetica,sans-Serif" font-size="10.00">autoreg::Autoreg_model&lt; T &gt;</text>
</a>
</g>
</g>
<!-- Node3&#45;&gt;Node17 -->
<g id="edge16" class="edge"><title>Node3&#45;&gt;Node17</title>
<path fill="none" stroke="midnightblue" d="M297.503,-516.946C301.446,-554.792 315.434,-637.23 364,-682 368.674,-686.309 374.196,-689.701 380.071,-692.369"/>
<polygon fill="midnightblue" stroke="midnightblue" points="300.965,-516.366 296.575,-506.724 293.994,-516.999 300.965,-516.366"/>
</g>
<!-- Node18 -->
<g id="node18" class="node"><title>Node18</title>
<g id="a_node18"><a xlink:href="structautoreg_1_1Generator1.html" target="_top" xlink:title="autoreg::Generator1\l\&lt; T, Grid \&gt;">
<polygon fill="white" stroke="black" points="385.5,-643 385.5,-673 488.5,-673 488.5,-643 385.5,-643"/>
<text text-anchor="start" x="393.5" y="-661" font-family="Helvetica,sans-Serif" font-size="10.00">autoreg::Generator1</text>
<text text-anchor="middle" x="437" y="-650" font-family="Helvetica,sans-Serif" font-size="10.00">&lt; T, Grid &gt;</text>
</a>
</g>
</g>
<!-- Node3&#45;&gt;Node18 -->
<g id="edge17" class="edge"><title>Node3&#45;&gt;Node18</title>
<path fill="none" stroke="midnightblue" d="M300.741,-516.682C308.808,-546.068 327.945,-601.335 364,-633 370.164,-638.414 377.566,-642.671 385.244,-646.016"/>
<polygon fill="midnightblue" stroke="midnightblue" points="304.075,-515.593 298.18,-506.79 297.299,-517.348 304.075,-515.593"/>
</g>
<!-- Node19 -->
<g id="node19" class="node"><title>Node19</title>
<g id="a_node19"><a xlink:href="structautoreg_1_1Solve__Yule__Walker.html" target="_top" xlink:title="autoreg::Solve_Yule\l_Walker\&lt; T \&gt;">
<polygon fill="white" stroke="black" points="385,-594 385,-624 489,-624 489,-594 385,-594"/>
<text text-anchor="start" x="393" y="-612" font-family="Helvetica,sans-Serif" font-size="10.00">autoreg::Solve_Yule</text>
<text text-anchor="middle" x="437" y="-601" font-family="Helvetica,sans-Serif" font-size="10.00">_Walker&lt; T &gt;</text>
</a>
</g>
</g>
<!-- Node3&#45;&gt;Node19 -->
<g id="edge18" class="edge"><title>Node3&#45;&gt;Node19</title>
<path fill="none" stroke="midnightblue" d="M306.073,-515.457C317.649,-535.058 338.387,-565.685 364,-584 370.35,-588.541 377.598,-592.317 384.992,-595.439"/>
<polygon fill="midnightblue" stroke="midnightblue" points="309.005,-513.533 301.011,-506.579 302.924,-517 309.005,-513.533"/>
</g>
<!-- Node20 -->
<g id="node20" class="node"><title>Node20</title>
<g id="a_node20"><a xlink:href="structautoreg_1_1Wave__surface__generator.html" target="_top" xlink:title="autoreg::Wave_surface\l_generator\&lt; T, Grid \&gt;">
<polygon fill="white" stroke="black" points="378,-545 378,-575 496,-575 496,-545 378,-545"/>
<text text-anchor="start" x="386" y="-563" font-family="Helvetica,sans-Serif" font-size="10.00">autoreg::Wave_surface</text>
<text text-anchor="middle" x="437" y="-552" font-family="Helvetica,sans-Serif" font-size="10.00">_generator&lt; T, Grid &gt;</text>
</a>
</g>
</g>
<!-- Node3&#45;&gt;Node20 -->
<g id="edge19" class="edge"><title>Node3&#45;&gt;Node20</title>
<path fill="none" stroke="midnightblue" d="M319.918,-511.724C332.716,-519.251 348.909,-528.226 364,-535 371.847,-538.522 380.35,-541.867 388.672,-544.898"/>
<polygon fill="midnightblue" stroke="midnightblue" points="321.644,-508.678 311.264,-506.551 318.052,-514.686 321.644,-508.678"/>
</g>
<!-- Node21 -->
<g id="node21" class="node"><title>Node21</title>
<g id="a_node21"><a xlink:href="structAutoreg__app.html" target="_top" xlink:title="Autoreg_app">
<polygon fill="white" stroke="black" points="401.5,-506.5 401.5,-525.5 472.5,-525.5 472.5,-506.5 401.5,-506.5"/>
<text text-anchor="middle" x="437" y="-513.5" font-family="Helvetica,sans-Serif" font-size="10.00">Autoreg_app</text>
</a>
</g>
</g>
<!-- Node3&#45;&gt;Node21 -->
<g id="edge20" class="edge"><title>Node3&#45;&gt;Node21</title>
<path fill="none" stroke="midnightblue" d="M338.245,-502.733C358.326,-505.459 382.044,-508.677 401.088,-511.262"/>
<polygon fill="midnightblue" stroke="midnightblue" points="338.499,-499.236 328.119,-501.359 337.557,-506.172 338.499,-499.236"/>
</g>
<!-- Node22 -->
<g id="node22" class="node"><title>Node22</title>
<g id="a_node22"><a xlink:href="structBig__kernel.html" target="_top" xlink:title="Big_kernel\&lt; Size \&gt;">
<polygon fill="white" stroke="black" points="387,-468.5 387,-487.5 487,-487.5 487,-468.5 387,-468.5"/>
<text text-anchor="middle" x="437" y="-475.5" font-family="Helvetica,sans-Serif" font-size="10.00">Big_kernel&lt; Size &gt;</text>
</a>
</g>
</g>
<!-- Node3&#45;&gt;Node22 -->
<g id="edge21" class="edge"><title>Node3&#45;&gt;Node22</title>
<path fill="none" stroke="midnightblue" d="M338.306,-491.258C353.569,-489.187 370.926,-486.831 386.733,-484.686"/>
<polygon fill="midnightblue" stroke="midnightblue" points="337.557,-487.828 328.119,-492.641 338.499,-494.764 337.557,-487.828"/>
</g>
<!-- Node23 -->
<g id="node23" class="node"><title>Node23</title>
<g id="a_node23"><a xlink:href="structDummy__kernel.html" target="_top" xlink:title="Dummy_kernel">
<polygon fill="white" stroke="black" points="395.5,-430.5 395.5,-449.5 478.5,-449.5 478.5,-430.5 395.5,-430.5"/>
<text text-anchor="middle" x="437" y="-437.5" font-family="Helvetica,sans-Serif" font-size="10.00">Dummy_kernel</text>
</a>
</g>
</g>
<!-- Node3&#45;&gt;Node23 -->
<g id="edge22" class="edge"><title>Node3&#45;&gt;Node23</title>
<path fill="none" stroke="midnightblue" d="M319.215,-482.103C332.031,-474.38 348.46,-465.275 364,-459 373.95,-454.982 385.016,-451.572 395.429,-448.799"/>
<polygon fill="midnightblue" stroke="midnightblue" points="317.261,-479.196 310.586,-487.424 320.935,-485.155 317.261,-479.196"/>
</g>
<!-- Node24 -->
<g id="node24" class="node"><title>Node24</title>
<g id="a_node24"><a xlink:href="structGood__kernel.html" target="_top" xlink:title="Good_kernel">
<polygon fill="white" stroke="black" points="401.5,-392.5 401.5,-411.5 472.5,-411.5 472.5,-392.5 401.5,-392.5"/>
<text text-anchor="middle" x="437" y="-399.5" font-family="Helvetica,sans-Serif" font-size="10.00">Good_kernel</text>
</a>
</g>
</g>
<!-- Node3&#45;&gt;Node24 -->
<g id="edge23" class="edge"><title>Node3&#45;&gt;Node24</title>
<path fill="none" stroke="midnightblue" d="M307.635,-478.743C319.672,-461.337 340.049,-435.666 364,-421 375.246,-414.114 388.96,-409.699 401.391,-406.879"/>
<polygon fill="midnightblue" stroke="midnightblue" points="304.471,-477.179 301.836,-487.441 310.296,-481.062 304.471,-477.179"/>
</g>
<!-- Node27 -->
<g id="node27" class="node"><title>Node27</title>
<g id="a_node27"><a xlink:href="structKernel__that__carries__its__parent.html" target="_top" xlink:title="Kernel_that_carries\l_its_parent">
<polygon fill="white" stroke="black" points="386.5,-343 386.5,-373 487.5,-373 487.5,-343 386.5,-343"/>
<text text-anchor="start" x="394.5" y="-361" font-family="Helvetica,sans-Serif" font-size="10.00">Kernel_that_carries</text>
<text text-anchor="middle" x="437" y="-350" font-family="Helvetica,sans-Serif" font-size="10.00">_its_parent</text>
</a>
</g>
</g>
<!-- Node3&#45;&gt;Node27 -->
<g id="edge26" class="edge"><title>Node3&#45;&gt;Node27</title>
<path fill="none" stroke="midnightblue" d="M302.724,-477.633C312.437,-452.39 332.732,-408.471 364,-383 370.566,-377.652 378.349,-373.415 386.33,-370.068"/>
<polygon fill="midnightblue" stroke="midnightblue" points="299.373,-476.607 299.208,-487.2 305.943,-479.021 299.373,-476.607"/>
</g>
<!-- Node28 -->
<g id="node28" class="node"><title>Node28</title>
<g id="a_node28"><a xlink:href="structLauncher.html" target="_top" xlink:title="Launcher">
<polygon fill="white" stroke="black" points="409,-304.5 409,-323.5 465,-323.5 465,-304.5 409,-304.5"/>
<text text-anchor="middle" x="437" y="-311.5" font-family="Helvetica,sans-Serif" font-size="10.00">Launcher</text>
</a>
</g>
</g>
<!-- Node3&#45;&gt;Node28 -->
<g id="edge27" class="edge"><title>Node3&#45;&gt;Node28</title>
<path fill="none" stroke="midnightblue" d="M298.637,-477.052C304.253,-442.676 320.632,-372.288 364,-334 376.351,-323.096 394.168,-318.088 408.987,-315.811"/>
<polygon fill="midnightblue" stroke="midnightblue" points="295.133,-476.824 297.122,-487.231 302.056,-477.855 295.133,-476.824"/>
</g>
<!-- Node29 -->
<g id="node29" class="node"><title>Node29</title>
<g id="a_node29"><a xlink:href="classMain.html" target="_top" xlink:title="Main">
<polygon fill="white" stroke="black" points="418,-266.5 418,-285.5 456,-285.5 456,-266.5 418,-266.5"/>
<text text-anchor="middle" x="437" y="-273.5" font-family="Helvetica,sans-Serif" font-size="10.00">Main</text>
</a>
</g>
</g>
<!-- Node3&#45;&gt;Node29 -->
<g id="edge28" class="edge"><title>Node3&#45;&gt;Node29</title>
<path fill="none" stroke="midnightblue" d="M296.177,-477.38C297.302,-429.486 305.461,-322.759 364,-268 384.959,-248.394 423.712,-248.504 433.636,-266.487"/>
<polygon fill="midnightblue" stroke="midnightblue" points="292.676,-477.396 296.021,-487.449 299.675,-477.504 292.676,-477.396"/>
</g>
<!-- Node3&#45;&gt;Node29 -->
<g id="edge29" class="edge"><title>Node3&#45;&gt;Node29</title>
<path fill="none" stroke="midnightblue" d="M296.472,-476.919C298.49,-434.605 309.047,-337.404 364,-286 378.539,-272.4 401.641,-268.286 417.742,-269.127"/>
<polygon fill="midnightblue" stroke="midnightblue" points="292.968,-476.976 296.105,-487.096 299.964,-477.229 292.968,-476.976"/>
</g>
<!-- Node3&#45;&gt;Node29 -->
<g id="edge30" class="edge"><title>Node3&#45;&gt;Node29</title>
<path fill="none" stroke="midnightblue" d="M297.118,-476.991C300.407,-437.719 313.334,-351.394 364,-304 378.539,-290.4 401.641,-286.286 417.742,-283.209"/>
<polygon fill="midnightblue" stroke="midnightblue" points="293.612,-476.941 296.398,-487.163 300.595,-477.435 293.612,-476.941"/>
</g>
<!-- Node3&#45;&gt;Node29 -->
<g id="edge31" class="edge"><title>Node3&#45;&gt;Node29</title>
<path fill="none" stroke="midnightblue" d="M298.335,-477.399C303.193,-439.724 318.13,-364.908 364,-322 384.771,-302.571 423.016,-302.504 433.361,-285.733"/>
<polygon fill="midnightblue" stroke="midnightblue" points="294.85,-477.066 297.171,-487.404 301.803,-477.875 294.85,-477.066"/>
</g>
<!-- Node30 -->
<g id="node30" class="node"><title>Node30</title>
<g id="a_node30"><a xlink:href="structSender.html" target="_top" xlink:title="Sender">
<polygon fill="white" stroke="black" points="413.5,-228.5 413.5,-247.5 460.5,-247.5 460.5,-228.5 413.5,-228.5"/>
<text text-anchor="middle" x="437" y="-235.5" font-family="Helvetica,sans-Serif" font-size="10.00">Sender</text>
</a>
</g>
</g>
<!-- Node3&#45;&gt;Node30 -->
<g id="edge32" class="edge"><title>Node3&#45;&gt;Node30</title>
<path fill="none" stroke="midnightblue" d="M295.468,-476.951C295.396,-431.125 301.904,-317.983 364,-257 377.005,-244.228 397.526,-239.761 413.339,-238.325"/>
<polygon fill="midnightblue" stroke="midnightblue" points="291.969,-477.124 295.598,-487.078 298.969,-477.034 291.969,-477.124"/>
</g>
<!-- Node31 -->
<g id="node31" class="node"><title>Node31</title>
<g id="a_node31"><a xlink:href="structSleepy__kernel.html" target="_top" xlink:title="Sleepy_kernel">
<polygon fill="white" stroke="black" points="398,-190.5 398,-209.5 476,-209.5 476,-190.5 398,-190.5"/>
<text text-anchor="middle" x="437" y="-197.5" font-family="Helvetica,sans-Serif" font-size="10.00">Sleepy_kernel</text>
</a>
</g>
</g>
<!-- Node3&#45;&gt;Node31 -->
<g id="edge33" class="edge"><title>Node3&#45;&gt;Node31</title>
<path fill="none" stroke="midnightblue" d="M298.254,-476.928C305.099,-419.494 327.44,-256.228 364,-219 372.877,-209.961 385.509,-205.058 397.72,-202.449"/>
<polygon fill="midnightblue" stroke="midnightblue" points="294.736,-476.879 297.06,-487.216 301.69,-477.686 294.736,-476.879"/>
</g>
<!-- Node32 -->
<g id="node32" class="node"><title>Node32</title>
<g id="a_node32"><a xlink:href="structSpec__app.html" target="_top" xlink:title="Spec_app">
<polygon fill="white" stroke="black" points="407,-152.5 407,-171.5 467,-171.5 467,-152.5 407,-152.5"/>
<text text-anchor="middle" x="437" y="-159.5" font-family="Helvetica,sans-Serif" font-size="10.00">Spec_app</text>
</a>
</g>
</g>
<!-- Node3&#45;&gt;Node32 -->
<g id="edge34" class="edge"><title>Node3&#45;&gt;Node32</title>
<path fill="none" stroke="midnightblue" d="M297.6,-477.108C303.017,-414.687 322.68,-224.268 364,-181 374.982,-169.5 392.032,-164.665 406.784,-162.745"/>
<polygon fill="midnightblue" stroke="midnightblue" points="294.101,-476.952 296.752,-487.21 301.076,-477.537 294.101,-476.952"/>
</g>
<!-- Node33 -->
<g id="node33" class="node"><title>Node33</title>
<g id="a_node33"><a xlink:href="structSpectrum__kernel.html" target="_top" xlink:title="Spectrum_kernel">
<polygon fill="white" stroke="black" points="392,-114.5 392,-133.5 482,-133.5 482,-114.5 392,-114.5"/>
<text text-anchor="middle" x="437" y="-121.5" font-family="Helvetica,sans-Serif" font-size="10.00">Spectrum_kernel</text>
</a>
</g>
</g>
<!-- Node3&#45;&gt;Node33 -->
<g id="edge35" class="edge"><title>Node3&#45;&gt;Node33</title>
<path fill="none" stroke="midnightblue" d="M297.082,-477.394C301.172,-410.461 317.865,-192.395 364,-143 371.324,-135.158 381.468,-130.404 391.832,-127.56"/>
<polygon fill="midnightblue" stroke="midnightblue" points="293.585,-477.244 296.496,-487.432 300.573,-477.653 293.585,-477.244"/>
</g>
<!-- Node34 -->
<g id="node34" class="node"><title>Node34</title>
<g id="a_node34"><a xlink:href="structStation__kernel.html" target="_top" xlink:title="Station_kernel">
<polygon fill="white" stroke="black" points="397.5,-76.5 397.5,-95.5 476.5,-95.5 476.5,-76.5 397.5,-76.5"/>
<text text-anchor="middle" x="437" y="-83.5" font-family="Helvetica,sans-Serif" font-size="10.00">Station_kernel</text>
</a>
</g>
</g>
<!-- Node3&#45;&gt;Node34 -->
<g id="edge36" class="edge"><title>Node3&#45;&gt;Node34</title>
<path fill="none" stroke="midnightblue" d="M296.71,-476.722C299.656,-404.379 313.248,-160.329 364,-105 372.564,-95.6635 385.123,-90.6909 397.362,-88.1093"/>
<polygon fill="midnightblue" stroke="midnightblue" points="293.196,-477.02 296.313,-487.146 300.191,-477.287 293.196,-477.02"/>
</g>
<!-- Node35 -->
<g id="node35" class="node"><title>Node35</title>
<g id="a_node35"><a xlink:href="structTest__socket.html" target="_top" xlink:title="Test_socket">
<polygon fill="white" stroke="black" points="401.5,-38.5 401.5,-57.5 472.5,-57.5 472.5,-38.5 401.5,-38.5"/>
<text text-anchor="middle" x="437" y="-45.5" font-family="Helvetica,sans-Serif" font-size="10.00">Test_socket</text>
</a>
</g>
</g>
<!-- Node3&#45;&gt;Node35 -->
<g id="edge37" class="edge"><title>Node3&#45;&gt;Node35</title>
<path fill="none" stroke="midnightblue" d="M296.291,-477.029C297.872,-399.338 307.608,-120.407 364,-58 373.448,-47.5448 387.903,-42.5484 401.389,-40.9523"/>
<polygon fill="midnightblue" stroke="midnightblue" points="292.786,-477.285 296.107,-487.346 299.785,-477.41 292.786,-477.285"/>
</g>
<!-- Node3&#45;&gt;Node35 -->
<g id="edge38" class="edge"><title>Node3&#45;&gt;Node35</title>
<path fill="none" stroke="midnightblue" d="M296.442,-477.226C298.449,-402.009 309.174,-136.673 364,-76 373.448,-65.5448 387.903,-60.5484 401.389,-57.5629"/>
<polygon fill="midnightblue" stroke="midnightblue" points="292.943,-477.171 296.198,-487.254 299.941,-477.342 292.943,-477.171"/>
</g>
<!-- Node36 -->
<g id="node36" class="node"><title>Node36</title>
<g id="a_node36"><a xlink:href="structYear__kernel.html" target="_top" xlink:title="Year_kernel">
<polygon fill="white" stroke="black" points="403,-0.5 403,-19.5 471,-19.5 471,-0.5 403,-0.5"/>
<text text-anchor="middle" x="437" y="-7.5" font-family="Helvetica,sans-Serif" font-size="10.00">Year_kernel</text>
</a>
</g>
</g>
<!-- Node3&#45;&gt;Node36 -->
<g id="edge39" class="edge"><title>Node3&#45;&gt;Node36</title>
<path fill="none" stroke="midnightblue" d="M296.077,-477.081C296.799,-396.628 303.564,-96.7318 364,-29 373.726,-18.0999 388.894,-13.1206 402.805,-10.9589"/>
<polygon fill="midnightblue" stroke="midnightblue" points="292.576,-477.282 296.009,-487.305 299.576,-477.329 292.576,-477.282"/>
</g>
<!-- Node14 -->
<g id="node14" class="node"><title>Node14</title>
<g id="a_node14"><a xlink:href="classasc_1_1master__discoverer.html" target="_top" xlink:title="asc::master_discoverer">
<polygon fill="white" stroke="black" points="547.5,-806.5 547.5,-825.5 666.5,-825.5 666.5,-806.5 547.5,-806.5"/>
<text text-anchor="middle" x="607" y="-813.5" font-family="Helvetica,sans-Serif" font-size="10.00">asc::master_discoverer</text>
</a>
</g>
</g>
<!-- Node13&#45;&gt;Node14 -->
<g id="edge13" class="edge"><title>Node13&#45;&gt;Node14</title>
<path fill="none" stroke="midnightblue" d="M499.415,-816C515.065,-816 531.845,-816 547.352,-816"/>
<polygon fill="midnightblue" stroke="midnightblue" points="499.318,-812.5 489.318,-816 499.318,-819.5 499.318,-812.5"/>
</g>
<!-- Node25 -->
<g id="node25" class="node"><title>Node25</title>
<g id="a_node25"><a xlink:href="structKernel__that__reads__more__than__writes.html" target="_top" xlink:title="Kernel_that_reads_more\l_than_writes">
<polygon fill="white" stroke="black" points="546,-411 546,-441 668,-441 668,-411 546,-411"/>
<text text-anchor="start" x="554" y="-429" font-family="Helvetica,sans-Serif" font-size="10.00">Kernel_that_reads_more</text>
<text text-anchor="middle" x="607" y="-418" font-family="Helvetica,sans-Serif" font-size="10.00">_than_writes</text>
</a>
</g>
</g>
<!-- Node24&#45;&gt;Node25 -->
<g id="edge24" class="edge"><title>Node24&#45;&gt;Node25</title>
<path fill="none" stroke="midnightblue" d="M482.839,-408.406C502.141,-411.163 524.997,-414.428 545.747,-417.392"/>
<polygon fill="midnightblue" stroke="midnightblue" points="483.204,-404.922 472.81,-406.973 482.214,-411.852 483.204,-404.922"/>
</g>
<!-- Node26 -->
<g id="node26" class="node"><title>Node26</title>
<g id="a_node26"><a xlink:href="structKernel__that__writes__more__than__reads.html" target="_top" xlink:title="Kernel_that_writes\l_more_than_reads">
<polygon fill="white" stroke="black" points="558,-362 558,-392 656,-392 656,-362 558,-362"/>
<text text-anchor="start" x="566" y="-380" font-family="Helvetica,sans-Serif" font-size="10.00">Kernel_that_writes</text>
<text text-anchor="middle" x="607" y="-369" font-family="Helvetica,sans-Serif" font-size="10.00">_more_than_reads</text>
</a>
</g>
</g>
<!-- Node24&#45;&gt;Node26 -->
<g id="edge25" class="edge"><title>Node24&#45;&gt;Node26</title>
<path fill="none" stroke="midnightblue" d="M482.726,-395.344C505.896,-391.896 534.211,-387.683 557.858,-384.164"/>
<polygon fill="midnightblue" stroke="midnightblue" points="482.186,-391.886 472.81,-396.82 483.216,-398.81 482.186,-391.886"/>
</g>
</g>
</svg>
