<?xml version="1.0" encoding="UTF-8" standalone="no"?>
<!DOCTYPE svg PUBLIC "-//W3C//DTD SVG 1.1//EN"
 "http://www.w3.org/Graphics/SVG/1.1/DTD/svg11.dtd">
<!-- Generated by graphviz version 2.36.0 (20140111.2315)
 -->
<!-- Title: factory::unix_domain_socket_pipeline&lt; T, Router &gt; Pages: 1 -->
<svg width="168pt" height="262pt"
 viewBox="0.00 0.00 168.00 262.00" xmlns="http://www.w3.org/2000/svg" xmlns:xlink="http://www.w3.org/1999/xlink">
<g id="graph0" class="graph" transform="scale(1 1) rotate(0) translate(4 258)">
<title>factory::unix_domain_socket_pipeline&lt; T, Router &gt;</title>
<polygon fill="white" stroke="none" points="-4,4 -4,-258 164,-258 164,4 -4,4"/>
<!-- Node1 -->
<g id="node1" class="node"><title>Node1</title>
<polygon fill="#bfbfbf" stroke="black" points="26.5,-0.5 26.5,-41.5 133.5,-41.5 133.5,-0.5 26.5,-0.5"/>
<text text-anchor="start" x="34.5" y="-29.5" font-family="Helvetica,sans-Serif" font-size="10.00">factory::unix_domain</text>
<text text-anchor="start" x="34.5" y="-18.5" font-family="Helvetica,sans-Serif" font-size="10.00">_socket_pipeline&lt; T,</text>
<text text-anchor="middle" x="80" y="-7.5" font-family="Helvetica,sans-Serif" font-size="10.00"> Router &gt;</text>
</g>
<!-- Node2 -->
<g id="node2" class="node"><title>Node2</title>
<g id="a_node2"><a xlink:href="structfactory_1_1basic__socket__pipeline.html" target="_top" xlink:title="factory::basic_socket\l_pipeline\&lt; T, external\l_process_handler\&lt; T, Router \&gt; \&gt;">
<polygon fill="white" stroke="black" points="-0.5,-78.5 -0.5,-119.5 160.5,-119.5 160.5,-78.5 -0.5,-78.5"/>
<text text-anchor="start" x="7.5" y="-107.5" font-family="Helvetica,sans-Serif" font-size="10.00">factory::basic_socket</text>
<text text-anchor="start" x="7.5" y="-96.5" font-family="Helvetica,sans-Serif" font-size="10.00">_pipeline&lt; T, external</text>
<text text-anchor="middle" x="80" y="-85.5" font-family="Helvetica,sans-Serif" font-size="10.00">_process_handler&lt; T, Router &gt; &gt;</text>
</a>
</g>
</g>
<!-- Node2&#45;&gt;Node1 -->
<g id="edge1" class="edge"><title>Node2&#45;&gt;Node1</title>
<path fill="none" stroke="midnightblue" d="M80,-68.2965C80,-59.3009 80,-49.6532 80,-41.5056"/>
<polygon fill="midnightblue" stroke="midnightblue" points="76.5001,-68.4281 80,-78.4281 83.5001,-68.4281 76.5001,-68.4281"/>
</g>
<!-- Node3 -->
<g id="node3" class="node"><title>Node3</title>
<g id="a_node3"><a xlink:href="classfactory_1_1basic__pipeline.html" target="_top" xlink:title="Proxy_pipeline_base\l\&lt; T, external_process\l_handler\&lt; T, Router \&gt; &#160;\&gt;">
<polygon fill="white" stroke="black" points="19,-156.5 19,-197.5 141,-197.5 141,-156.5 19,-156.5"/>
<text text-anchor="start" x="27" y="-185.5" font-family="Helvetica,sans-Serif" font-size="10.00">Proxy_pipeline_base</text>
<text text-anchor="start" x="27" y="-174.5" font-family="Helvetica,sans-Serif" font-size="10.00">&lt; T, external_process</text>
<text text-anchor="middle" x="80" y="-163.5" font-family="Helvetica,sans-Serif" font-size="10.00">_handler&lt; T, Router &gt; &gt;</text>
</a>
</g>
</g>
<!-- Node3&#45;&gt;Node2 -->
<g id="edge2" class="edge"><title>Node3&#45;&gt;Node2</title>
<path fill="none" stroke="midnightblue" d="M80,-146.297C80,-137.301 80,-127.653 80,-119.506"/>
<polygon fill="midnightblue" stroke="midnightblue" points="76.5001,-146.428 80,-156.428 83.5001,-146.428 76.5001,-146.428"/>
</g>
<!-- Node4 -->
<g id="node4" class="node"><title>Node4</title>
<g id="a_node4"><a xlink:href="classfactory_1_1pipeline__base.html" target="_top" xlink:title="factory::pipeline_base">
<polygon fill="white" stroke="black" points="24,-234.5 24,-253.5 136,-253.5 136,-234.5 24,-234.5"/>
<text text-anchor="middle" x="80" y="-241.5" font-family="Helvetica,sans-Serif" font-size="10.00">factory::pipeline_base</text>
</a>
</g>
</g>
<!-- Node4&#45;&gt;Node3 -->
<g id="edge3" class="edge"><title>Node4&#45;&gt;Node3</title>
<path fill="none" stroke="midnightblue" d="M80,-224.037C80,-215.708 80,-205.936 80,-197.542"/>
<polygon fill="midnightblue" stroke="midnightblue" points="76.5001,-224.234 80,-234.234 83.5001,-224.234 76.5001,-224.234"/>
</g>
</g>
</svg>
