<?xml version="1.0" encoding="UTF-8" standalone="no"?>
<!DOCTYPE svg PUBLIC "-//W3C//DTD SVG 1.1//EN"
 "http://www.w3.org/Graphics/SVG/1.1/DTD/svg11.dtd">
<!-- Generated by graphviz version 2.36.0 (20140111.2315)
 -->
<!-- Title: bsc::kernel_base Pages: 1 -->
<svg width="676pt" height="1340pt"
 viewBox="0.00 0.00 676.00 1340.00" xmlns="http://www.w3.org/2000/svg" xmlns:xlink="http://www.w3.org/1999/xlink">
<g id="graph0" class="graph" transform="scale(1 1) rotate(0) translate(4 1336)">
<title>bsc::kernel_base</title>
<polygon fill="white" stroke="none" points="-4,4 -4,-1336 672,-1336 672,4 -4,4"/>
<!-- Node1 -->
<g id="node1" class="node"><title>Node1</title>
<polygon fill="#bfbfbf" stroke="black" points="0.5,-563.5 0.5,-582.5 91.5,-582.5 91.5,-563.5 0.5,-563.5"/>
<text text-anchor="middle" x="46" y="-570.5" font-family="Helvetica,sans-Serif" font-size="10.00">bsc::kernel_base</text>
</g>
<!-- Node2 -->
<g id="node2" class="node"><title>Node2</title>
<g id="a_node2"><a xlink:href="classbsc_1_1mobile__kernel.html" target="_top" xlink:title="bsc::mobile_kernel">
<polygon fill="white" stroke="black" points="128,-563.5 128,-582.5 226,-582.5 226,-563.5 128,-563.5"/>
<text text-anchor="middle" x="177" y="-570.5" font-family="Helvetica,sans-Serif" font-size="10.00">bsc::mobile_kernel</text>
</a>
</g>
</g>
<!-- Node1&#45;&gt;Node2 -->
<g id="edge1" class="edge"><title>Node1&#45;&gt;Node2</title>
<path fill="none" stroke="midnightblue" d="M101.767,-573C110.421,-573 119.315,-573 127.805,-573"/>
<polygon fill="midnightblue" stroke="midnightblue" points="101.756,-569.5 91.7559,-573 101.756,-576.5 101.756,-569.5"/>
</g>
<!-- Node3 -->
<g id="node3" class="node"><title>Node3</title>
<g id="a_node3"><a xlink:href="structbsc_1_1kernel.html" target="_top" xlink:title="bsc::kernel">
<polygon fill="white" stroke="black" points="262.5,-563.5 262.5,-582.5 327.5,-582.5 327.5,-563.5 262.5,-563.5"/>
<text text-anchor="middle" x="295" y="-570.5" font-family="Helvetica,sans-Serif" font-size="10.00">bsc::kernel</text>
</a>
</g>
</g>
<!-- Node2&#45;&gt;Node3 -->
<g id="edge2" class="edge"><title>Node2&#45;&gt;Node3</title>
<path fill="none" stroke="midnightblue" d="M236.283,-573C245.263,-573 254.233,-573 262.334,-573"/>
<polygon fill="midnightblue" stroke="midnightblue" points="236.187,-569.5 226.187,-573 236.187,-576.5 236.187,-569.5"/>
</g>
<!-- Node4 -->
<g id="node4" class="node"><title>Node4</title>
<g id="a_node4"><a xlink:href="structautoreg_1_1ACF__generator.html" target="_top" xlink:title="autoreg::ACF_generator\&lt; T \&gt;">
<polygon fill="white" stroke="black" points="364.5,-1312.5 364.5,-1331.5 509.5,-1331.5 509.5,-1312.5 364.5,-1312.5"/>
<text text-anchor="middle" x="437" y="-1319.5" font-family="Helvetica,sans-Serif" font-size="10.00">autoreg::ACF_generator&lt; T &gt;</text>
</a>
</g>
</g>
<!-- Node3&#45;&gt;Node4 -->
<g id="edge3" class="edge"><title>Node3&#45;&gt;Node4</title>
<path fill="none" stroke="midnightblue" d="M296.513,-592.876C299.558,-704.189 316.769,-1247.25 364,-1303 367.259,-1306.85 371.196,-1309.96 375.529,-1312.48"/>
<polygon fill="midnightblue" stroke="midnightblue" points="300.007,-592.624 296.242,-582.721 293.01,-592.811 300.007,-592.624"/>
</g>
<!-- Node5 -->
<g id="node5" class="node"><title>Node5</title>
<g id="a_node5"><a xlink:href="structautoreg_1_1Autoreg__coefs.html" target="_top" xlink:title="autoreg::Autoreg_coefs\&lt; T \&gt;">
<polygon fill="white" stroke="black" points="366,-1274.5 366,-1293.5 508,-1293.5 508,-1274.5 366,-1274.5"/>
<text text-anchor="middle" x="437" y="-1281.5" font-family="Helvetica,sans-Serif" font-size="10.00">autoreg::Autoreg_coefs&lt; T &gt;</text>
</a>
</g>
</g>
<!-- Node3&#45;&gt;Node5 -->
<g id="edge4" class="edge"><title>Node3&#45;&gt;Node5</title>
<path fill="none" stroke="midnightblue" d="M296.619,-592.841C300.151,-700.578 319.212,-1212.4 364,-1265 367.269,-1268.84 371.213,-1271.95 375.55,-1274.46"/>
<polygon fill="midnightblue" stroke="midnightblue" points="300.113,-592.598 296.294,-582.715 293.116,-592.823 300.113,-592.598"/>
</g>
<!-- Node6 -->
<g id="node6" class="node"><title>Node6</title>
<g id="a_node6"><a xlink:href="classautoreg_1_1Autoreg__model.html" target="_top" xlink:title="autoreg::Autoreg_model\&lt; T \&gt;">
<polygon fill="white" stroke="black" points="365,-1236.5 365,-1255.5 509,-1255.5 509,-1236.5 365,-1236.5"/>
<text text-anchor="middle" x="437" y="-1243.5" font-family="Helvetica,sans-Serif" font-size="10.00">autoreg::Autoreg_model&lt; T &gt;</text>
</a>
</g>
</g>
<!-- Node3&#45;&gt;Node6 -->
<g id="edge5" class="edge"><title>Node3&#45;&gt;Node6</title>
<path fill="none" stroke="midnightblue" d="M296.76,-593.008C300.895,-697.369 322.064,-1176.39 364,-1226 367.601,-1230.26 372.024,-1233.65 376.891,-1236.35"/>
<polygon fill="midnightblue" stroke="midnightblue" points="300.252,-592.75 296.366,-582.893 293.258,-593.022 300.252,-592.75"/>
</g>
<!-- Node7 -->
<g id="node7" class="node"><title>Node7</title>
<g id="a_node7"><a xlink:href="structautoreg_1_1Generator1.html" target="_top" xlink:title="autoreg::Generator1\l\&lt; T, Grid \&gt;">
<polygon fill="white" stroke="black" points="385.5,-1187 385.5,-1217 488.5,-1217 488.5,-1187 385.5,-1187"/>
<text text-anchor="start" x="393.5" y="-1205" font-family="Helvetica,sans-Serif" font-size="10.00">autoreg::Generator1</text>
<text text-anchor="middle" x="437" y="-1194" font-family="Helvetica,sans-Serif" font-size="10.00">&lt; T, Grid &gt;</text>
</a>
</g>
</g>
<!-- Node3&#45;&gt;Node7 -->
<g id="edge6" class="edge"><title>Node3&#45;&gt;Node7</title>
<path fill="none" stroke="midnightblue" d="M296.98,-592.681C302.06,-691.45 326.607,-1130.22 364,-1177 369.536,-1183.92 377.105,-1188.94 385.265,-1192.56"/>
<polygon fill="midnightblue" stroke="midnightblue" points="300.47,-592.403 296.468,-582.593 293.479,-592.758 300.47,-592.403"/>
</g>
<!-- Node8 -->
<g id="node8" class="node"><title>Node8</title>
<g id="a_node8"><a xlink:href="structautoreg_1_1Solve__Yule__Walker.html" target="_top" xlink:title="autoreg::Solve_Yule\l_Walker\&lt; T \&gt;">
<polygon fill="white" stroke="black" points="385,-1138 385,-1168 489,-1168 489,-1138 385,-1138"/>
<text text-anchor="start" x="393" y="-1156" font-family="Helvetica,sans-Serif" font-size="10.00">autoreg::Solve_Yule</text>
<text text-anchor="middle" x="437" y="-1145" font-family="Helvetica,sans-Serif" font-size="10.00">_Walker&lt; T &gt;</text>
</a>
</g>
</g>
<!-- Node3&#45;&gt;Node8 -->
<g id="edge7" class="edge"><title>Node3&#45;&gt;Node8</title>
<path fill="none" stroke="midnightblue" d="M295.722,-592.676C294.861,-681.369 295.645,-1043.34 364,-1128 369.486,-1134.79 376.929,-1139.75 384.956,-1143.36"/>
<polygon fill="midnightblue" stroke="midnightblue" points="299.222,-592.674 295.839,-582.634 292.223,-592.593 299.222,-592.674"/>
</g>
<!-- Node9 -->
<g id="node9" class="node"><title>Node9</title>
<g id="a_node9"><a xlink:href="structautoreg_1_1Wave__surface__generator.html" target="_top" xlink:title="autoreg::Wave_surface\l_generator\&lt; T, Grid \&gt;">
<polygon fill="white" stroke="black" points="378,-1089 378,-1119 496,-1119 496,-1089 378,-1089"/>
<text text-anchor="start" x="386" y="-1107" font-family="Helvetica,sans-Serif" font-size="10.00">autoreg::Wave_surface</text>
<text text-anchor="middle" x="437" y="-1096" font-family="Helvetica,sans-Serif" font-size="10.00">_generator&lt; T, Grid &gt;</text>
</a>
</g>
</g>
<!-- Node3&#45;&gt;Node9 -->
<g id="edge8" class="edge"><title>Node3&#45;&gt;Node9</title>
<path fill="none" stroke="midnightblue" d="M295.983,-592.766C296.301,-676.683 301.597,-1002.63 364,-1079 367.851,-1083.71 372.643,-1087.54 377.914,-1090.65"/>
<polygon fill="midnightblue" stroke="midnightblue" points="299.483,-592.577 295.966,-582.583 292.483,-592.589 299.483,-592.577"/>
</g>
<!-- Node10 -->
<g id="node10" class="node"><title>Node10</title>
<g id="a_node10"><a xlink:href="structAutoreg__app.html" target="_top" xlink:title="Autoreg_app">
<polygon fill="white" stroke="black" points="401.5,-1050.5 401.5,-1069.5 472.5,-1069.5 472.5,-1050.5 401.5,-1050.5"/>
<text text-anchor="middle" x="437" y="-1057.5" font-family="Helvetica,sans-Serif" font-size="10.00">Autoreg_app</text>
</a>
</g>
</g>
<!-- Node3&#45;&gt;Node10 -->
<g id="edge9" class="edge"><title>Node3&#45;&gt;Node10</title>
<path fill="none" stroke="midnightblue" d="M296.077,-592.919C296.799,-673.372 303.564,-973.268 364,-1041 373.382,-1051.51 387.827,-1056.52 401.324,-1058.8"/>
<polygon fill="midnightblue" stroke="midnightblue" points="299.576,-592.671 296.009,-582.695 292.576,-592.718 299.576,-592.671"/>
</g>
<!-- Node11 -->
<g id="node11" class="node"><title>Node11</title>
<g id="a_node11"><a xlink:href="structBig__kernel.html" target="_top" xlink:title="Big_kernel\&lt; Size \&gt;">
<polygon fill="white" stroke="black" points="387,-1012.5 387,-1031.5 487,-1031.5 487,-1012.5 387,-1012.5"/>
<text text-anchor="middle" x="437" y="-1019.5" font-family="Helvetica,sans-Serif" font-size="10.00">Big_kernel&lt; Size &gt;</text>
</a>
</g>
</g>
<!-- Node3&#45;&gt;Node11 -->
<g id="edge10" class="edge"><title>Node3&#45;&gt;Node11</title>
<path fill="none" stroke="midnightblue" d="M296.356,-592.748C298.129,-668.779 308.331,-941.393 364,-1003 370.067,-1009.71 378.2,-1014.18 386.815,-1017.12"/>
<polygon fill="midnightblue" stroke="midnightblue" points="299.853,-592.573 296.144,-582.648 292.855,-592.72 299.853,-592.573"/>
</g>
<!-- Node12 -->
<g id="node12" class="node"><title>Node12</title>
<g id="a_node12"><a xlink:href="classbsc_1_1discovery__timer.html" target="_top" xlink:title="bsc::discovery_timer">
<polygon fill="white" stroke="black" points="383.5,-974.5 383.5,-993.5 490.5,-993.5 490.5,-974.5 383.5,-974.5"/>
<text text-anchor="middle" x="437" y="-981.5" font-family="Helvetica,sans-Serif" font-size="10.00">bsc::discovery_timer</text>
</a>
</g>
</g>
<!-- Node3&#45;&gt;Node12 -->
<g id="edge11" class="edge"><title>Node3&#45;&gt;Node12</title>
<path fill="none" stroke="midnightblue" d="M296.71,-593.278C299.656,-665.621 313.248,-909.671 364,-965 369.243,-970.716 375.984,-974.797 383.232,-977.694"/>
<polygon fill="midnightblue" stroke="midnightblue" points="300.191,-592.713 296.313,-582.854 293.196,-592.98 300.191,-592.713"/>
</g>
<!-- Node13 -->
<g id="node13" class="node"><title>Node13</title>
<g id="a_node13"><a xlink:href="classbsc_1_1foreign__kernel.html" target="_top" xlink:title="bsc::foreign_kernel">
<polygon fill="white" stroke="black" points="387.5,-936.5 387.5,-955.5 486.5,-955.5 486.5,-936.5 387.5,-936.5"/>
<text text-anchor="middle" x="437" y="-943.5" font-family="Helvetica,sans-Serif" font-size="10.00">bsc::foreign_kernel</text>
</a>
</g>
</g>
<!-- Node3&#45;&gt;Node13 -->
<g id="edge12" class="edge"><title>Node3&#45;&gt;Node13</title>
<path fill="none" stroke="midnightblue" d="M297.082,-592.606C301.172,-659.539 317.865,-877.605 364,-927 370.265,-933.708 378.593,-938.157 387.358,-941.083"/>
<polygon fill="midnightblue" stroke="midnightblue" points="300.573,-592.347 296.496,-582.568 293.585,-592.756 300.573,-592.347"/>
</g>
<!-- Node14 -->
<g id="node14" class="node"><title>Node14</title>
<g id="a_node14"><a xlink:href="classbsc_1_1hierarchy__kernel.html" target="_top" xlink:title="bsc::hierarchy_kernel">
<polygon fill="white" stroke="black" points="382,-898.5 382,-917.5 492,-917.5 492,-898.5 382,-898.5"/>
<text text-anchor="middle" x="437" y="-905.5" font-family="Helvetica,sans-Serif" font-size="10.00">bsc::hierarchy_kernel</text>
</a>
</g>
</g>
<!-- Node3&#45;&gt;Node14 -->
<g id="edge13" class="edge"><title>Node3&#45;&gt;Node14</title>
<path fill="none" stroke="midnightblue" d="M297.6,-592.892C303.017,-655.313 322.68,-845.732 364,-889 369,-894.236 375.258,-898.09 381.984,-900.917"/>
<polygon fill="midnightblue" stroke="midnightblue" points="301.076,-592.463 296.752,-582.79 294.101,-593.048 301.076,-592.463"/>
</g>
<!-- Node15 -->
<g id="node15" class="node"><title>Node15</title>
<g id="a_node15"><a xlink:href="structbsc_1_1Map.html" target="_top" xlink:title="bsc::Map\&lt; F, G, I \&gt;">
<polygon fill="white" stroke="black" points="385,-860.5 385,-879.5 489,-879.5 489,-860.5 385,-860.5"/>
<text text-anchor="middle" x="437" y="-867.5" font-family="Helvetica,sans-Serif" font-size="10.00">bsc::Map&lt; F, G, I &gt;</text>
</a>
</g>
</g>
<!-- Node3&#45;&gt;Node15 -->
<g id="edge14" class="edge"><title>Node3&#45;&gt;Node15</title>
<path fill="none" stroke="midnightblue" d="M298.288,-592.978C305.224,-650.146 327.789,-812.678 364,-850 369.691,-855.866 376.942,-860.056 384.64,-863.04"/>
<polygon fill="midnightblue" stroke="midnightblue" points="301.727,-592.258 297.077,-582.738 294.775,-593.079 301.727,-592.258"/>
</g>
<!-- Node16 -->
<g id="node16" class="node"><title>Node16</title>
<g id="a_node16"><a xlink:href="structbsc_1_1Map_1_1Worker.html" target="_top" xlink:title="bsc::Map\&lt; F, G, I \&gt;\l::Worker">
<polygon fill="white" stroke="black" points="385,-811 385,-841 489,-841 489,-811 385,-811"/>
<text text-anchor="start" x="393" y="-829" font-family="Helvetica,sans-Serif" font-size="10.00">bsc::Map&lt; F, G, I &gt;</text>
<text text-anchor="middle" x="437" y="-818" font-family="Helvetica,sans-Serif" font-size="10.00">::Worker</text>
</a>
</g>
</g>
<!-- Node3&#45;&gt;Node16 -->
<g id="edge15" class="edge"><title>Node3&#45;&gt;Node16</title>
<path fill="none" stroke="midnightblue" d="M296.157,-592.911C297.588,-636.567 307.122,-741.542 364,-801 369.762,-807.024 377.049,-811.597 384.761,-815.068"/>
<polygon fill="midnightblue" stroke="midnightblue" points="299.653,-592.675 295.94,-582.753 292.655,-592.825 299.653,-592.675"/>
</g>
<!-- Node17 -->
<g id="node17" class="node"><title>Node17</title>
<g id="a_node17"><a xlink:href="classbsc_1_1network__master.html" target="_top" xlink:title="bsc::network_master">
<polygon fill="white" stroke="black" points="383,-772.5 383,-791.5 491,-791.5 491,-772.5 383,-772.5"/>
<text text-anchor="middle" x="437" y="-779.5" font-family="Helvetica,sans-Serif" font-size="10.00">bsc::network_master</text>
</a>
</g>
</g>
<!-- Node3&#45;&gt;Node17 -->
<g id="edge16" class="edge"><title>Node3&#45;&gt;Node17</title>
<path fill="none" stroke="midnightblue" d="M297.226,-592.986C300.702,-631.681 313.941,-717.057 364,-763 369.429,-767.983 376.01,-771.688 382.96,-774.439"/>
<polygon fill="midnightblue" stroke="midnightblue" points="300.682,-592.275 296.43,-582.571 293.702,-592.808 300.682,-592.275"/>
</g>
<!-- Node18 -->
<g id="node18" class="node"><title>Node18</title>
<g id="a_node18"><a xlink:href="classbsc_1_1network__timer.html" target="_top" xlink:title="bsc::network_timer">
<polygon fill="white" stroke="black" points="387,-734.5 387,-753.5 487,-753.5 487,-734.5 387,-734.5"/>
<text text-anchor="middle" x="437" y="-741.5" font-family="Helvetica,sans-Serif" font-size="10.00">bsc::network_timer</text>
</a>
</g>
</g>
<!-- Node3&#45;&gt;Node18 -->
<g id="edge17" class="edge"><title>Node3&#45;&gt;Node18</title>
<path fill="none" stroke="midnightblue" d="M299.181,-592.57C305.512,-625.061 322.804,-690.013 364,-725 370.504,-730.523 378.439,-734.461 386.637,-737.265"/>
<polygon fill="midnightblue" stroke="midnightblue" points="302.591,-591.757 297.378,-582.534 295.701,-592.995 302.591,-591.757"/>
</g>
<!-- Node19 -->
<g id="node19" class="node"><title>Node19</title>
<g id="a_node19"><a xlink:href="classbsc_1_1Notification.html" target="_top" xlink:title="bsc::Notification">
<polygon fill="white" stroke="black" points="393,-696.5 393,-715.5 481,-715.5 481,-696.5 393,-696.5"/>
<text text-anchor="middle" x="437" y="-703.5" font-family="Helvetica,sans-Serif" font-size="10.00">bsc::Notification</text>
</a>
</g>
</g>
<!-- Node3&#45;&gt;Node19 -->
<g id="edge18" class="edge"><title>Node3&#45;&gt;Node19</title>
<path fill="none" stroke="midnightblue" d="M302.299,-592.347C311.638,-617.931 331.624,-662.617 364,-687 372.365,-693.3 382.644,-697.515 392.79,-700.334"/>
<polygon fill="midnightblue" stroke="midnightblue" points="305.526,-590.968 298.944,-582.666 298.912,-593.261 305.526,-590.968"/>
</g>
<!-- Node20 -->
<g id="node20" class="node"><title>Node20</title>
<g id="a_node20"><a xlink:href="classbsc_1_1probe.html" target="_top" xlink:title="bsc::probe">
<polygon fill="white" stroke="black" points="406,-658.5 406,-677.5 468,-677.5 468,-658.5 406,-658.5"/>
<text text-anchor="middle" x="437" y="-665.5" font-family="Helvetica,sans-Serif" font-size="10.00">bsc::probe</text>
</a>
</g>
</g>
<!-- Node3&#45;&gt;Node20 -->
<g id="edge19" class="edge"><title>Node3&#45;&gt;Node20</title>
<path fill="none" stroke="midnightblue" d="M307.635,-591.257C319.672,-608.663 340.049,-634.334 364,-649 376.569,-656.696 392.221,-661.306 405.719,-664.052"/>
<polygon fill="midnightblue" stroke="midnightblue" points="310.296,-588.938 301.836,-582.559 304.471,-592.821 310.296,-588.938"/>
</g>
<!-- Node21 -->
<g id="node21" class="node"><title>Node21</title>
<g id="a_node21"><a xlink:href="classbsc_1_1prober.html" target="_top" xlink:title="bsc::prober">
<polygon fill="white" stroke="black" points="404.5,-620.5 404.5,-639.5 469.5,-639.5 469.5,-620.5 404.5,-620.5"/>
<text text-anchor="middle" x="437" y="-627.5" font-family="Helvetica,sans-Serif" font-size="10.00">bsc::prober</text>
</a>
</g>
</g>
<!-- Node3&#45;&gt;Node21 -->
<g id="edge20" class="edge"><title>Node3&#45;&gt;Node21</title>
<path fill="none" stroke="midnightblue" d="M319.215,-587.897C332.031,-595.62 348.46,-604.725 364,-611 376.827,-616.18 391.509,-620.349 404.255,-623.447"/>
<polygon fill="midnightblue" stroke="midnightblue" points="320.935,-584.845 310.586,-582.576 317.261,-590.804 320.935,-584.845"/>
</g>
<!-- Node22 -->
<g id="node22" class="node"><title>Node22</title>
<g id="a_node22"><a xlink:href="classbsc_1_1resident__kernel.html" target="_top" xlink:title="bsc::resident_kernel">
<polygon fill="white" stroke="black" points="385,-582.5 385,-601.5 489,-601.5 489,-582.5 385,-582.5"/>
<text text-anchor="middle" x="437" y="-589.5" font-family="Helvetica,sans-Serif" font-size="10.00">bsc::resident_kernel</text>
</a>
</g>
</g>
<!-- Node3&#45;&gt;Node22 -->
<g id="edge21" class="edge"><title>Node3&#45;&gt;Node22</title>
<path fill="none" stroke="midnightblue" d="M338.089,-578.712C352.806,-580.709 369.491,-582.974 384.864,-585.06"/>
<polygon fill="midnightblue" stroke="midnightblue" points="338.148,-575.188 327.768,-577.311 337.207,-582.124 338.148,-575.188"/>
</g>
<!-- Node24 -->
<g id="node24" class="node"><title>Node24</title>
<g id="a_node24"><a xlink:href="structDummy__kernel.html" target="_top" xlink:title="Dummy_kernel">
<polygon fill="white" stroke="black" points="395.5,-544.5 395.5,-563.5 478.5,-563.5 478.5,-544.5 395.5,-544.5"/>
<text text-anchor="middle" x="437" y="-551.5" font-family="Helvetica,sans-Serif" font-size="10.00">Dummy_kernel</text>
</a>
</g>
</g>
<!-- Node3&#45;&gt;Node24 -->
<g id="edge23" class="edge"><title>Node3&#45;&gt;Node24</title>
<path fill="none" stroke="midnightblue" d="M337.8,-567.327C355.994,-564.858 377.24,-561.975 395.306,-559.523"/>
<polygon fill="midnightblue" stroke="midnightblue" points="337.207,-563.875 327.768,-568.689 338.148,-570.812 337.207,-563.875"/>
</g>
<!-- Node25 -->
<g id="node25" class="node"><title>Node25</title>
<g id="a_node25"><a xlink:href="structGood__kernel.html" target="_top" xlink:title="Good_kernel">
<polygon fill="white" stroke="black" points="401.5,-506.5 401.5,-525.5 472.5,-525.5 472.5,-506.5 401.5,-506.5"/>
<text text-anchor="middle" x="437" y="-513.5" font-family="Helvetica,sans-Serif" font-size="10.00">Good_kernel</text>
</a>
</g>
</g>
<!-- Node3&#45;&gt;Node25 -->
<g id="edge24" class="edge"><title>Node3&#45;&gt;Node25</title>
<path fill="none" stroke="midnightblue" d="M319.215,-558.103C332.031,-550.38 348.46,-541.275 364,-535 375.868,-530.208 389.324,-526.28 401.366,-523.266"/>
<polygon fill="midnightblue" stroke="midnightblue" points="317.261,-555.196 310.586,-563.424 320.935,-561.155 317.261,-555.196"/>
</g>
<!-- Node28 -->
<g id="node28" class="node"><title>Node28</title>
<g id="a_node28"><a xlink:href="classgrand__master__kernel.html" target="_top" xlink:title="grand_master_kernel">
<polygon fill="white" stroke="black" points="383.5,-468.5 383.5,-487.5 490.5,-487.5 490.5,-468.5 383.5,-468.5"/>
<text text-anchor="middle" x="437" y="-475.5" font-family="Helvetica,sans-Serif" font-size="10.00">grand_master_kernel</text>
</a>
</g>
</g>
<!-- Node3&#45;&gt;Node28 -->
<g id="edge27" class="edge"><title>Node3&#45;&gt;Node28</title>
<path fill="none" stroke="midnightblue" d="M307.635,-554.743C319.672,-537.337 340.049,-511.666 364,-497 370.284,-493.152 377.34,-490.075 384.511,-487.618"/>
<polygon fill="midnightblue" stroke="midnightblue" points="304.471,-553.179 301.836,-563.441 310.296,-557.062 304.471,-553.179"/>
</g>
<!-- Node29 -->
<g id="node29" class="node"><title>Node29</title>
<g id="a_node29"><a xlink:href="structKernel__that__carries__its__parent.html" target="_top" xlink:title="Kernel_that_carries\l_its_parent">
<polygon fill="white" stroke="black" points="386.5,-419 386.5,-449 487.5,-449 487.5,-419 386.5,-419"/>
<text text-anchor="start" x="394.5" y="-437" font-family="Helvetica,sans-Serif" font-size="10.00">Kernel_that_carries</text>
<text text-anchor="middle" x="437" y="-426" font-family="Helvetica,sans-Serif" font-size="10.00">_its_parent</text>
</a>
</g>
</g>
<!-- Node3&#45;&gt;Node29 -->
<g id="edge28" class="edge"><title>Node3&#45;&gt;Node29</title>
<path fill="none" stroke="midnightblue" d="M302.724,-553.633C312.437,-528.39 332.732,-484.471 364,-459 370.566,-453.652 378.349,-449.415 386.33,-446.068"/>
<polygon fill="midnightblue" stroke="midnightblue" points="299.373,-552.607 299.208,-563.2 305.943,-555.021 299.373,-552.607"/>
</g>
<!-- Node30 -->
<g id="node30" class="node"><title>Node30</title>
<g id="a_node30"><a xlink:href="structLauncher.html" target="_top" xlink:title="Launcher">
<polygon fill="white" stroke="black" points="409,-380.5 409,-399.5 465,-399.5 465,-380.5 409,-380.5"/>
<text text-anchor="middle" x="437" y="-387.5" font-family="Helvetica,sans-Serif" font-size="10.00">Launcher</text>
</a>
</g>
</g>
<!-- Node3&#45;&gt;Node30 -->
<g id="edge29" class="edge"><title>Node3&#45;&gt;Node30</title>
<path fill="none" stroke="midnightblue" d="M298.637,-553.052C304.253,-518.676 320.632,-448.288 364,-410 376.351,-399.096 394.168,-394.088 408.987,-391.811"/>
<polygon fill="midnightblue" stroke="midnightblue" points="295.133,-552.824 297.122,-563.231 302.056,-553.855 295.133,-552.824"/>
</g>
<!-- Node31 -->
<g id="node31" class="node"><title>Node31</title>
<g id="a_node31"><a xlink:href="classMain.html" target="_top" xlink:title="Main">
<polygon fill="white" stroke="black" points="418,-342.5 418,-361.5 456,-361.5 456,-342.5 418,-342.5"/>
<text text-anchor="middle" x="437" y="-349.5" font-family="Helvetica,sans-Serif" font-size="10.00">Main</text>
</a>
</g>
</g>
<!-- Node3&#45;&gt;Node31 -->
<g id="edge30" class="edge"><title>Node3&#45;&gt;Node31</title>
<path fill="none" stroke="midnightblue" d="M296.177,-553.38C297.302,-505.486 305.461,-398.759 364,-344 384.959,-324.394 423.712,-324.504 433.636,-342.487"/>
<polygon fill="midnightblue" stroke="midnightblue" points="292.676,-553.396 296.021,-563.449 299.675,-553.504 292.676,-553.396"/>
</g>
<!-- Node3&#45;&gt;Node31 -->
<g id="edge31" class="edge"><title>Node3&#45;&gt;Node31</title>
<path fill="none" stroke="midnightblue" d="M296.472,-552.919C298.49,-510.605 309.047,-413.404 364,-362 378.539,-348.4 401.641,-344.286 417.742,-345.127"/>
<polygon fill="midnightblue" stroke="midnightblue" points="292.968,-552.976 296.105,-563.096 299.964,-553.229 292.968,-552.976"/>
</g>
<!-- Node3&#45;&gt;Node31 -->
<g id="edge32" class="edge"><title>Node3&#45;&gt;Node31</title>
<path fill="none" stroke="midnightblue" d="M297.118,-552.991C300.407,-513.719 313.334,-427.394 364,-380 378.539,-366.4 401.641,-362.286 417.742,-359.209"/>
<polygon fill="midnightblue" stroke="midnightblue" points="293.612,-552.941 296.398,-563.163 300.595,-553.435 293.612,-552.941"/>
</g>
<!-- Node3&#45;&gt;Node31 -->
<g id="edge33" class="edge"><title>Node3&#45;&gt;Node31</title>
<path fill="none" stroke="midnightblue" d="M298.335,-553.399C303.193,-515.724 318.13,-440.908 364,-398 384.771,-378.571 423.016,-378.504 433.361,-361.733"/>
<polygon fill="midnightblue" stroke="midnightblue" points="294.85,-553.066 297.171,-563.404 301.803,-553.875 294.85,-553.066"/>
</g>
<!-- Node32 -->
<g id="node32" class="node"><title>Node32</title>
<g id="a_node32"><a xlink:href="classmaster__kernel.html" target="_top" xlink:title="master_kernel">
<polygon fill="white" stroke="black" points="398,-304.5 398,-323.5 476,-323.5 476,-304.5 398,-304.5"/>
<text text-anchor="middle" x="437" y="-311.5" font-family="Helvetica,sans-Serif" font-size="10.00">master_kernel</text>
</a>
</g>
</g>
<!-- Node3&#45;&gt;Node32 -->
<g id="edge34" class="edge"><title>Node3&#45;&gt;Node32</title>
<path fill="none" stroke="midnightblue" d="M295.468,-552.951C295.396,-507.125 301.904,-393.983 364,-333 373.039,-324.123 385.709,-319.258 397.905,-316.634"/>
<polygon fill="midnightblue" stroke="midnightblue" points="291.969,-553.124 295.598,-563.078 298.969,-553.034 291.969,-553.124"/>
</g>
<!-- Node33 -->
<g id="node33" class="node"><title>Node33</title>
<g id="a_node33"><a xlink:href="structSender.html" target="_top" xlink:title="Sender">
<polygon fill="white" stroke="black" points="413.5,-266.5 413.5,-285.5 460.5,-285.5 460.5,-266.5 413.5,-266.5"/>
<text text-anchor="middle" x="437" y="-273.5" font-family="Helvetica,sans-Serif" font-size="10.00">Sender</text>
</a>
</g>
</g>
<!-- Node3&#45;&gt;Node33 -->
<g id="edge35" class="edge"><title>Node3&#45;&gt;Node33</title>
<path fill="none" stroke="midnightblue" d="M298.254,-552.928C305.099,-495.494 327.44,-332.228 364,-295 376.772,-281.994 397.317,-277.551 413.198,-276.184"/>
<polygon fill="midnightblue" stroke="midnightblue" points="294.736,-552.879 297.06,-563.216 301.69,-553.686 294.736,-552.879"/>
</g>
<!-- Node34 -->
<g id="node34" class="node"><title>Node34</title>
<g id="a_node34"><a xlink:href="classslave__kernel.html" target="_top" xlink:title="slave_kernel">
<polygon fill="white" stroke="black" points="401.5,-228.5 401.5,-247.5 472.5,-247.5 472.5,-228.5 401.5,-228.5"/>
<text text-anchor="middle" x="437" y="-235.5" font-family="Helvetica,sans-Serif" font-size="10.00">slave_kernel</text>
</a>
</g>
</g>
<!-- Node3&#45;&gt;Node34 -->
<g id="edge36" class="edge"><title>Node3&#45;&gt;Node34</title>
<path fill="none" stroke="midnightblue" d="M297.6,-553.108C303.017,-490.687 322.68,-300.268 364,-257 373.643,-246.903 387.964,-241.943 401.3,-239.584"/>
<polygon fill="midnightblue" stroke="midnightblue" points="294.101,-552.952 296.752,-563.21 301.076,-553.537 294.101,-552.952"/>
</g>
<!-- Node35 -->
<g id="node35" class="node"><title>Node35</title>
<g id="a_node35"><a xlink:href="structSleepy__kernel.html" target="_top" xlink:title="Sleepy_kernel">
<polygon fill="white" stroke="black" points="398,-190.5 398,-209.5 476,-209.5 476,-190.5 398,-190.5"/>
<text text-anchor="middle" x="437" y="-197.5" font-family="Helvetica,sans-Serif" font-size="10.00">Sleepy_kernel</text>
</a>
</g>
</g>
<!-- Node3&#45;&gt;Node35 -->
<g id="edge37" class="edge"><title>Node3&#45;&gt;Node35</title>
<path fill="none" stroke="midnightblue" d="M297.082,-553.394C301.172,-486.461 317.865,-268.395 364,-219 372.736,-209.647 385.483,-204.686 397.832,-202.119"/>
<polygon fill="midnightblue" stroke="midnightblue" points="293.585,-553.244 296.496,-563.432 300.573,-553.653 293.585,-553.244"/>
</g>
<!-- Node36 -->
<g id="node36" class="node"><title>Node36</title>
<g id="a_node36"><a xlink:href="structSpec__app.html" target="_top" xlink:title="Spec_app">
<polygon fill="white" stroke="black" points="407,-152.5 407,-171.5 467,-171.5 467,-152.5 407,-152.5"/>
<text text-anchor="middle" x="437" y="-159.5" font-family="Helvetica,sans-Serif" font-size="10.00">Spec_app</text>
</a>
</g>
</g>
<!-- Node3&#45;&gt;Node36 -->
<g id="edge38" class="edge"><title>Node3&#45;&gt;Node36</title>
<path fill="none" stroke="midnightblue" d="M296.71,-552.722C299.656,-480.379 313.248,-236.329 364,-181 374.836,-169.187 392.067,-164.36 406.956,-162.523"/>
<polygon fill="midnightblue" stroke="midnightblue" points="293.196,-553.02 296.313,-563.146 300.191,-553.287 293.196,-553.02"/>
</g>
<!-- Node37 -->
<g id="node37" class="node"><title>Node37</title>
<g id="a_node37"><a xlink:href="structSpectrum__kernel.html" target="_top" xlink:title="Spectrum_kernel">
<polygon fill="white" stroke="black" points="392,-114.5 392,-133.5 482,-133.5 482,-114.5 392,-114.5"/>
<text text-anchor="middle" x="437" y="-121.5" font-family="Helvetica,sans-Serif" font-size="10.00">Spectrum_kernel</text>
</a>
</g>
</g>
<!-- Node3&#45;&gt;Node37 -->
<g id="edge39" class="edge"><title>Node3&#45;&gt;Node37</title>
<path fill="none" stroke="midnightblue" d="M296.356,-553.252C298.129,-477.221 308.331,-204.607 364,-143 371.194,-135.039 381.292,-130.243 391.654,-127.396"/>
<polygon fill="midnightblue" stroke="midnightblue" points="292.855,-553.28 296.144,-563.352 299.853,-553.427 292.855,-553.28"/>
</g>
<!-- Node38 -->
<g id="node38" class="node"><title>Node38</title>
<g id="a_node38"><a xlink:href="structStation__kernel.html" target="_top" xlink:title="Station_kernel">
<polygon fill="white" stroke="black" points="397.5,-76.5 397.5,-95.5 476.5,-95.5 476.5,-76.5 397.5,-76.5"/>
<text text-anchor="middle" x="437" y="-83.5" font-family="Helvetica,sans-Serif" font-size="10.00">Station_kernel</text>
</a>
</g>
</g>
<!-- Node3&#45;&gt;Node38 -->
<g id="edge40" class="edge"><title>Node3&#45;&gt;Node38</title>
<path fill="none" stroke="midnightblue" d="M296.077,-553.081C296.799,-472.628 303.564,-172.732 364,-105 372.435,-95.5468 384.963,-90.5468 397.215,-87.9759"/>
<polygon fill="midnightblue" stroke="midnightblue" points="292.576,-553.282 296.009,-563.305 299.576,-553.329 292.576,-553.282"/>
</g>
<!-- Node39 -->
<g id="node39" class="node"><title>Node39</title>
<g id="a_node39"><a xlink:href="structTest__socket.html" target="_top" xlink:title="Test_socket">
<polygon fill="white" stroke="black" points="401.5,-38.5 401.5,-57.5 472.5,-57.5 472.5,-38.5 401.5,-38.5"/>
<text text-anchor="middle" x="437" y="-45.5" font-family="Helvetica,sans-Serif" font-size="10.00">Test_socket</text>
</a>
</g>
</g>
<!-- Node3&#45;&gt;Node39 -->
<g id="edge41" class="edge"><title>Node3&#45;&gt;Node39</title>
<path fill="none" stroke="midnightblue" d="M295.848,-553.109C295.486,-467.427 297.966,-132.808 364,-58 373.325,-47.4357 387.762,-42.423 401.268,-40.8444"/>
<polygon fill="midnightblue" stroke="midnightblue" points="292.349,-553.319 295.91,-563.297 299.349,-553.276 292.349,-553.319"/>
</g>
<!-- Node3&#45;&gt;Node39 -->
<g id="edge42" class="edge"><title>Node3&#45;&gt;Node39</title>
<path fill="none" stroke="midnightblue" d="M295.827,-553.042C295.645,-469.283 299.574,-148.986 364,-76 373.325,-65.4357 387.762,-60.423 401.268,-57.4549"/>
<polygon fill="midnightblue" stroke="midnightblue" points="292.328,-553.256 295.874,-563.24 299.328,-553.224 292.328,-553.256"/>
</g>
<!-- Node40 -->
<g id="node40" class="node"><title>Node40</title>
<g id="a_node40"><a xlink:href="structYear__kernel.html" target="_top" xlink:title="Year_kernel">
<polygon fill="white" stroke="black" points="403,-0.5 403,-19.5 471,-19.5 471,-0.5 403,-0.5"/>
<text text-anchor="middle" x="437" y="-7.5" font-family="Helvetica,sans-Serif" font-size="10.00">Year_kernel</text>
</a>
</g>
</g>
<!-- Node3&#45;&gt;Node40 -->
<g id="edge43" class="edge"><title>Node3&#45;&gt;Node40</title>
<path fill="none" stroke="midnightblue" d="M295.631,-553.322C294.393,-465.387 293.841,-109.224 364,-29 373.617,-18.0035 388.772,-13.0129 402.703,-10.8686"/>
<polygon fill="midnightblue" stroke="midnightblue" points="292.135,-553.553 295.796,-563.495 299.134,-553.44 292.135,-553.553"/>
</g>
<!-- Node23 -->
<g id="node23" class="node"><title>Node23</title>
<g id="a_node23"><a xlink:href="classbsc_1_1master__discoverer.html" target="_top" xlink:title="bsc::master_discoverer">
<polygon fill="white" stroke="black" points="547.5,-582.5 547.5,-601.5 666.5,-601.5 666.5,-582.5 547.5,-582.5"/>
<text text-anchor="middle" x="607" y="-589.5" font-family="Helvetica,sans-Serif" font-size="10.00">bsc::master_discoverer</text>
</a>
</g>
</g>
<!-- Node22&#45;&gt;Node23 -->
<g id="edge22" class="edge"><title>Node22&#45;&gt;Node23</title>
<path fill="none" stroke="midnightblue" d="M499.415,-592C515.065,-592 531.845,-592 547.352,-592"/>
<polygon fill="midnightblue" stroke="midnightblue" points="499.318,-588.5 489.318,-592 499.318,-595.5 499.318,-588.5"/>
</g>
<!-- Node26 -->
<g id="node26" class="node"><title>Node26</title>
<g id="a_node26"><a xlink:href="structKernel__that__reads__more__than__writes.html" target="_top" xlink:title="Kernel_that_reads_more\l_than_writes">
<polygon fill="white" stroke="black" points="546,-517 546,-547 668,-547 668,-517 546,-517"/>
<text text-anchor="start" x="554" y="-535" font-family="Helvetica,sans-Serif" font-size="10.00">Kernel_that_reads_more</text>
<text text-anchor="middle" x="607" y="-524" font-family="Helvetica,sans-Serif" font-size="10.00">_than_writes</text>
</a>
</g>
</g>
<!-- Node25&#45;&gt;Node26 -->
<g id="edge25" class="edge"><title>Node25&#45;&gt;Node26</title>
<path fill="none" stroke="midnightblue" d="M482.839,-520.27C502.141,-522.109 524.997,-524.285 545.747,-526.262"/>
<polygon fill="midnightblue" stroke="midnightblue" points="483.097,-516.779 472.81,-519.315 482.433,-523.748 483.097,-516.779"/>
</g>
<!-- Node27 -->
<g id="node27" class="node"><title>Node27</title>
<g id="a_node27"><a xlink:href="structKernel__that__writes__more__than__reads.html" target="_top" xlink:title="Kernel_that_writes\l_more_than_reads">
<polygon fill="white" stroke="black" points="558,-468 558,-498 656,-498 656,-468 558,-468"/>
<text text-anchor="start" x="566" y="-486" font-family="Helvetica,sans-Serif" font-size="10.00">Kernel_that_writes</text>
<text text-anchor="middle" x="607" y="-475" font-family="Helvetica,sans-Serif" font-size="10.00">_more_than_reads</text>
</a>
</g>
</g>
<!-- Node25&#45;&gt;Node27 -->
<g id="edge26" class="edge"><title>Node25&#45;&gt;Node27</title>
<path fill="none" stroke="midnightblue" d="M482.726,-507.215C505.896,-502.663 534.211,-497.101 557.858,-492.456"/>
<polygon fill="midnightblue" stroke="midnightblue" points="481.948,-503.8 472.81,-509.162 483.297,-510.669 481.948,-503.8"/>
</g>
</g>
</svg>
