<?xml version="1.0" encoding="UTF-8" standalone="no"?>
<!DOCTYPE svg PUBLIC "-//W3C//DTD SVG 1.1//EN"
 "http://www.w3.org/Graphics/SVG/1.1/DTD/svg11.dtd">
<!-- Generated by graphviz version 2.36.0 (20140111.2315)
 -->
<!-- Title: Main Pages: 1 -->
<svg width="215pt" height="196pt"
 viewBox="0.00 0.00 215.00 196.00" xmlns="http://www.w3.org/2000/svg" xmlns:xlink="http://www.w3.org/1999/xlink">
<g id="graph0" class="graph" transform="scale(1 1) rotate(0) translate(4 192)">
<title>Main</title>
<polygon fill="white" stroke="none" points="-4,4 -4,-192 211,-192 211,4 -4,4"/>
<!-- Node1 -->
<g id="node1" class="node"><title>Node1</title>
<polygon fill="#bfbfbf" stroke="black" points="82,-0.5 82,-19.5 120,-19.5 120,-0.5 82,-0.5"/>
<text text-anchor="middle" x="101" y="-7.5" font-family="Helvetica,sans-Serif" font-size="10.00">Main</text>
</g>
<!-- Node2 -->
<g id="node2" class="node"><title>Node2</title>
<g id="a_node2"><a xlink:href="structasc_1_1Kernel.html" target="_top" xlink:title="asc::Kernel">
<polygon fill="white" stroke="black" points="68,-56.5 68,-75.5 134,-75.5 134,-56.5 68,-56.5"/>
<text text-anchor="middle" x="101" y="-63.5" font-family="Helvetica,sans-Serif" font-size="10.00">asc::Kernel</text>
</a>
</g>
</g>
<!-- Node2&#45;&gt;Node1 -->
<g id="edge1" class="edge"><title>Node2&#45;&gt;Node1</title>
<path fill="none" stroke="midnightblue" d="M81.7125,-46.6897C79.6294,-37.589 80.9276,-27.0141 85.607,-19.7511"/>
<polygon fill="midnightblue" stroke="midnightblue" points="78.5146,-48.1181 85.501,-56.083 85.0064,-45.4997 78.5146,-48.1181"/>
</g>
<!-- Node2&#45;&gt;Node1 -->
<g id="edge5" class="edge"><title>Node2&#45;&gt;Node1</title>
<path fill="none" stroke="midnightblue" d="M94.5276,-46.1005C93.8956,-37.1357 94.3427,-26.8579 95.869,-19.7511"/>
<polygon fill="midnightblue" stroke="midnightblue" points="91.0658,-46.6216 95.8337,-56.083 98.0067,-45.7134 91.0658,-46.6216"/>
</g>
<!-- Node2&#45;&gt;Node1 -->
<g id="edge6" class="edge"><title>Node2&#45;&gt;Node1</title>
<path fill="none" stroke="midnightblue" d="M107.472,-46.1005C108.104,-37.1357 107.657,-26.8579 106.131,-19.7511"/>
<polygon fill="midnightblue" stroke="midnightblue" points="103.993,-45.7134 106.166,-56.083 110.934,-46.6216 103.993,-45.7134"/>
</g>
<!-- Node2&#45;&gt;Node1 -->
<g id="edge7" class="edge"><title>Node2&#45;&gt;Node1</title>
<path fill="none" stroke="midnightblue" d="M120.288,-46.6897C122.371,-37.589 121.072,-27.0141 116.393,-19.7511"/>
<polygon fill="midnightblue" stroke="midnightblue" points="116.994,-45.4997 116.499,-56.083 123.485,-48.1181 116.994,-45.4997"/>
</g>
<!-- Node3 -->
<g id="node3" class="node"><title>Node3</title>
<g id="a_node3"><a xlink:href="classasc_1_1mobile__kernel.html" target="_top" xlink:title="asc::mobile_kernel">
<polygon fill="white" stroke="black" points="52,-112.5 52,-131.5 150,-131.5 150,-112.5 52,-112.5"/>
<text text-anchor="middle" x="101" y="-119.5" font-family="Helvetica,sans-Serif" font-size="10.00">asc::mobile_kernel</text>
</a>
</g>
</g>
<!-- Node3&#45;&gt;Node2 -->
<g id="edge2" class="edge"><title>Node3&#45;&gt;Node2</title>
<path fill="none" stroke="midnightblue" d="M101,-101.805C101,-92.9102 101,-82.7798 101,-75.7511"/>
<polygon fill="midnightblue" stroke="midnightblue" points="97.5001,-102.083 101,-112.083 104.5,-102.083 97.5001,-102.083"/>
</g>
<!-- Node4 -->
<g id="node4" class="node"><title>Node4</title>
<g id="a_node4"><a xlink:href="classasc_1_1kernel__base.html" target="_top" xlink:title="asc::kernel_base">
<polygon fill="white" stroke="black" points="-0.5,-168.5 -0.5,-187.5 90.5,-187.5 90.5,-168.5 -0.5,-168.5"/>
<text text-anchor="middle" x="45" y="-175.5" font-family="Helvetica,sans-Serif" font-size="10.00">asc::kernel_base</text>
</a>
</g>
</g>
<!-- Node4&#45;&gt;Node3 -->
<g id="edge3" class="edge"><title>Node4&#45;&gt;Node3</title>
<path fill="none" stroke="midnightblue" d="M61.3299,-161.253C71.265,-151.673 83.5875,-139.791 91.8389,-131.834"/>
<polygon fill="midnightblue" stroke="midnightblue" points="58.7664,-158.863 53.9974,-168.324 63.6253,-163.902 58.7664,-158.863"/>
</g>
<!-- Node5 -->
<g id="node5" class="node"><title>Node5</title>
<g id="a_node5"><a xlink:href="classasc_1_1kernel__header.html" target="_top" xlink:title="asc::kernel_header">
<polygon fill="white" stroke="black" points="108.5,-168.5 108.5,-187.5 207.5,-187.5 207.5,-168.5 108.5,-168.5"/>
<text text-anchor="middle" x="158" y="-175.5" font-family="Helvetica,sans-Serif" font-size="10.00">asc::kernel_header</text>
</a>
</g>
</g>
<!-- Node5&#45;&gt;Node3 -->
<g id="edge4" class="edge"><title>Node5&#45;&gt;Node3</title>
<path fill="none" stroke="midnightblue" d="M141.379,-161.253C131.266,-151.673 118.723,-139.791 110.325,-131.834"/>
<polygon fill="midnightblue" stroke="midnightblue" points="139.175,-163.987 148.842,-168.324 143.99,-158.906 139.175,-163.987"/>
</g>
</g>
</svg>
