<?xml version="1.0" encoding="UTF-8" standalone="no"?>
<!DOCTYPE svg PUBLIC "-//W3C//DTD SVG 1.1//EN"
 "http://www.w3.org/Graphics/SVG/1.1/DTD/svg11.dtd">
<!-- Generated by graphviz version 2.36.0 (20140111.2315)
 -->
<!-- Title: sys::basic_fildesbuf&lt; Ch, Tr, Fd &gt; Pages: 1 -->
<svg width="120pt" height="244pt"
 viewBox="0.00 0.00 120.00 244.00" xmlns="http://www.w3.org/2000/svg" xmlns:xlink="http://www.w3.org/1999/xlink">
<g id="graph0" class="graph" transform="scale(1 1) rotate(0) translate(4 240)">
<title>sys::basic_fildesbuf&lt; Ch, Tr, Fd &gt;</title>
<polygon fill="white" stroke="none" points="-4,4 -4,-240 116,-240 116,4 -4,4"/>
<!-- Node1 -->
<g id="node1" class="node"><title>Node1</title>
<polygon fill="#bfbfbf" stroke="black" points="4,-69 4,-99 108,-99 108,-69 4,-69"/>
<text text-anchor="start" x="12" y="-87" font-family="Helvetica,sans-Serif" font-size="10.00">sys::basic_fildesbuf</text>
<text text-anchor="middle" x="56" y="-76" font-family="Helvetica,sans-Serif" font-size="10.00">&lt; Ch, Tr, Fd &gt;</text>
</g>
<!-- Node4 -->
<g id="node4" class="node"><title>Node4</title>
<g id="a_node4"><a xlink:href="structfactory_1_1basic__kernelbuf.html" target="_top" xlink:title="basic_kernelbuf\&lt; sys\l::fildesbuf \&gt;">
<polygon fill="white" stroke="black" points="1,-1 1,-31 111,-31 111,-1 1,-1"/>
<text text-anchor="start" x="9" y="-19" font-family="Helvetica,sans-Serif" font-size="10.00">basic_kernelbuf&lt; sys</text>
<text text-anchor="middle" x="56" y="-8" font-family="Helvetica,sans-Serif" font-size="10.00">::fildesbuf &gt;</text>
</a>
</g>
</g>
<!-- Node1&#45;&gt;Node4 -->
<g id="edge3" class="edge"><title>Node1&#45;&gt;Node4</title>
<path fill="none" stroke="midnightblue" d="M56,-58.5322C56,-49.3606 56,-39.2449 56,-31.2931"/>
<polygon fill="midnightblue" stroke="midnightblue" points="52.5001,-58.6789 56,-68.679 59.5001,-58.679 52.5001,-58.6789"/>
</g>
<!-- Node2 -->
<g id="node2" class="node"><title>Node2</title>
<g id="a_node2"><a xlink:href="structstdx_1_1basic__packetbuf.html" target="_top" xlink:title="stdx::basic_packetbuf\l\&lt; Ch, Tr \&gt;">
<polygon fill="white" stroke="black" points="-0.5,-137 -0.5,-167 112.5,-167 112.5,-137 -0.5,-137"/>
<text text-anchor="start" x="7.5" y="-155" font-family="Helvetica,sans-Serif" font-size="10.00">stdx::basic_packetbuf</text>
<text text-anchor="middle" x="56" y="-144" font-family="Helvetica,sans-Serif" font-size="10.00">&lt; Ch, Tr &gt;</text>
</a>
</g>
</g>
<!-- Node2&#45;&gt;Node1 -->
<g id="edge1" class="edge"><title>Node2&#45;&gt;Node1</title>
<path fill="none" stroke="midnightblue" d="M56,-126.532C56,-117.361 56,-107.245 56,-99.2931"/>
<polygon fill="midnightblue" stroke="midnightblue" points="52.5001,-126.679 56,-136.679 59.5001,-126.679 52.5001,-126.679"/>
</g>
<!-- Node3 -->
<g id="node3" class="node"><title>Node3</title>
<polygon fill="white" stroke="#bfbfbf" points="2,-205 2,-235 110,-235 110,-205 2,-205"/>
<text text-anchor="start" x="10" y="-223" font-family="Helvetica,sans-Serif" font-size="10.00">std::basic_streambuf</text>
<text text-anchor="middle" x="56" y="-212" font-family="Helvetica,sans-Serif" font-size="10.00">&lt; Ch, Tr &gt;</text>
</g>
<!-- Node3&#45;&gt;Node2 -->
<g id="edge2" class="edge"><title>Node3&#45;&gt;Node2</title>
<path fill="none" stroke="midnightblue" d="M56,-194.532C56,-185.361 56,-175.245 56,-167.293"/>
<polygon fill="midnightblue" stroke="midnightblue" points="52.5001,-194.679 56,-204.679 59.5001,-194.679 52.5001,-194.679"/>
</g>
</g>
</svg>
