<?xml version="1.0" encoding="UTF-8" standalone="no"?>
<!DOCTYPE svg PUBLIC "-//W3C//DTD SVG 1.1//EN"
 "http://www.w3.org/Graphics/SVG/1.1/DTD/svg11.dtd">
<!-- Generated by graphviz version 2.36.0 (20140111.2315)
 -->
<!-- Title: sys::basic_istream_iterator&lt; Stream, Value &gt; Pages: 1 -->
<svg width="140pt" height="118pt"
 viewBox="0.00 0.00 140.00 118.00" xmlns="http://www.w3.org/2000/svg" xmlns:xlink="http://www.w3.org/1999/xlink">
<g id="graph0" class="graph" transform="scale(1 1) rotate(0) translate(4 114)">
<title>sys::basic_istream_iterator&lt; Stream, Value &gt;</title>
<polygon fill="white" stroke="none" points="-4,4 -4,-114 136,-114 136,4 -4,4"/>
<!-- Node1 -->
<g id="node1" class="node"><title>Node1</title>
<polygon fill="#bfbfbf" stroke="black" points="0,-1 0,-31 132,-31 132,-1 0,-1"/>
<text text-anchor="start" x="8" y="-19" font-family="Helvetica,sans-Serif" font-size="10.00">sys::basic_istream</text>
<text text-anchor="middle" x="66" y="-8" font-family="Helvetica,sans-Serif" font-size="10.00">_iterator&lt; Stream, Value &gt;</text>
</g>
<!-- Node2 -->
<g id="node2" class="node"><title>Node2</title>
<polygon fill="white" stroke="#bfbfbf" points="15.5,-68.5 15.5,-109.5 116.5,-109.5 116.5,-68.5 15.5,-68.5"/>
<text text-anchor="start" x="23.5" y="-97.5" font-family="Helvetica,sans-Serif" font-size="10.00">std::iterator&lt; std</text>
<text text-anchor="start" x="23.5" y="-86.5" font-family="Helvetica,sans-Serif" font-size="10.00">::input_iterator_tag,</text>
<text text-anchor="middle" x="66" y="-75.5" font-family="Helvetica,sans-Serif" font-size="10.00"> Value &gt;</text>
</g>
<!-- Node2&#45;&gt;Node1 -->
<g id="edge1" class="edge"><title>Node2&#45;&gt;Node1</title>
<path fill="none" stroke="midnightblue" d="M66,-58.0188C66,-48.6567 66,-38.7696 66,-31.0485"/>
<polygon fill="midnightblue" stroke="midnightblue" points="62.5001,-58.2225 66,-68.2225 69.5001,-58.2226 62.5001,-58.2225"/>
</g>
</g>
</svg>
