<?xml version="1.0" encoding="UTF-8" standalone="no"?>
<!DOCTYPE svg PUBLIC "-//W3C//DTD SVG 1.1//EN"
 "http://www.w3.org/Graphics/SVG/1.1/DTD/svg11.dtd">
<!-- Generated by graphviz version 2.36.0 (20140111.2315)
 -->
<!-- Title: bsc::socket_pipeline&lt; K, S, R &gt; Pages: 1 -->
<svg width="166pt" height="220pt"
 viewBox="0.00 0.00 166.00 220.00" xmlns="http://www.w3.org/2000/svg" xmlns:xlink="http://www.w3.org/1999/xlink">
<g id="graph0" class="graph" transform="scale(1 1) rotate(0) translate(4 216)">
<title>bsc::socket_pipeline&lt; K, S, R &gt;</title>
<polygon fill="white" stroke="none" points="-4,4 -4,-216 162,-216 162,4 -4,4"/>
<!-- Node1 -->
<g id="node1" class="node"><title>Node1</title>
<polygon fill="#bfbfbf" stroke="black" points="26,-1 26,-31 132,-31 132,-1 26,-1"/>
<text text-anchor="start" x="34" y="-19" font-family="Helvetica,sans-Serif" font-size="10.00">bsc::socket_pipeline</text>
<text text-anchor="middle" x="79" y="-8" font-family="Helvetica,sans-Serif" font-size="10.00">&lt; K, S, R &gt;</text>
</g>
<!-- Node2 -->
<g id="node2" class="node"><title>Node2</title>
<g id="a_node2"><a xlink:href="classbsc_1_1basic__socket__pipeline.html" target="_top" xlink:title="bsc::basic_socket_pipeline\&lt; K \&gt;">
<polygon fill="white" stroke="black" points="-0.5,-68.5 -0.5,-87.5 158.5,-87.5 158.5,-68.5 -0.5,-68.5"/>
<text text-anchor="middle" x="79" y="-75.5" font-family="Helvetica,sans-Serif" font-size="10.00">bsc::basic_socket_pipeline&lt; K &gt;</text>
</a>
</g>
</g>
<!-- Node2&#45;&gt;Node1 -->
<g id="edge1" class="edge"><title>Node2&#45;&gt;Node1</title>
<path fill="none" stroke="midnightblue" d="M79,-58.3707C79,-49.5849 79,-39.2721 79,-31.1408"/>
<polygon fill="midnightblue" stroke="midnightblue" points="75.5001,-58.4034 79,-68.4035 82.5001,-58.4035 75.5001,-58.4034"/>
</g>
<!-- Node3 -->
<g id="node3" class="node"><title>Node3</title>
<g id="a_node3"><a xlink:href="classbsc_1_1basic__pipeline.html" target="_top" xlink:title="Proxy_pipeline_base\l\&lt; K &#160;\&gt;">
<polygon fill="white" stroke="black" points="25.5,-125 25.5,-155 132.5,-155 132.5,-125 25.5,-125"/>
<text text-anchor="start" x="33.5" y="-143" font-family="Helvetica,sans-Serif" font-size="10.00">Proxy_pipeline_base</text>
<text text-anchor="middle" x="79" y="-132" font-family="Helvetica,sans-Serif" font-size="10.00">&lt; K &gt;</text>
</a>
</g>
</g>
<!-- Node3&#45;&gt;Node2 -->
<g id="edge2" class="edge"><title>Node3&#45;&gt;Node2</title>
<path fill="none" stroke="midnightblue" d="M79,-114.586C79,-105.074 79,-94.7864 79,-87.7305"/>
<polygon fill="midnightblue" stroke="midnightblue" points="75.5001,-114.781 79,-124.781 82.5001,-114.781 75.5001,-114.781"/>
</g>
<!-- Node4 -->
<g id="node4" class="node"><title>Node4</title>
<g id="a_node4"><a xlink:href="classbsc_1_1pipeline__base.html" target="_top" xlink:title="bsc::pipeline_base">
<polygon fill="white" stroke="black" points="30,-192.5 30,-211.5 128,-211.5 128,-192.5 30,-192.5"/>
<text text-anchor="middle" x="79" y="-199.5" font-family="Helvetica,sans-Serif" font-size="10.00">bsc::pipeline_base</text>
</a>
</g>
</g>
<!-- Node4&#45;&gt;Node3 -->
<g id="edge3" class="edge"><title>Node4&#45;&gt;Node3</title>
<path fill="none" stroke="midnightblue" d="M79,-182.371C79,-173.585 79,-163.272 79,-155.141"/>
<polygon fill="midnightblue" stroke="midnightblue" points="75.5001,-182.403 79,-192.403 82.5001,-182.403 75.5001,-182.403"/>
</g>
</g>
</svg>
