<?xml version="1.0" encoding="UTF-8" standalone="no"?>
<!DOCTYPE svg PUBLIC "-//W3C//DTD SVG 1.1//EN"
 "http://www.w3.org/Graphics/SVG/1.1/DTD/svg11.dtd">
<!-- Generated by graphviz version 2.36.0 (20140111.2315)
 -->
<!-- Title: factory::pipeline_base Pages: 1 -->
<svg width="642pt" height="467pt"
 viewBox="0.00 0.00 642.00 467.00" xmlns="http://www.w3.org/2000/svg" xmlns:xlink="http://www.w3.org/1999/xlink">
<g id="graph0" class="graph" transform="scale(1 1) rotate(0) translate(4 463)">
<title>factory::pipeline_base</title>
<polygon fill="white" stroke="none" points="-4,4 -4,-463 638,-463 638,4 -4,4"/>
<!-- Node1 -->
<g id="node1" class="node"><title>Node1</title>
<polygon fill="#bfbfbf" stroke="black" points="0,-136.5 0,-155.5 112,-155.5 112,-136.5 0,-136.5"/>
<text text-anchor="middle" x="56" y="-143.5" font-family="Helvetica,sans-Serif" font-size="10.00">factory::pipeline_base</text>
</g>
<!-- Node2 -->
<g id="node2" class="node"><title>Node2</title>
<g id="a_node2"><a xlink:href="classfactory_1_1basic__pipeline.html" target="_top" xlink:title="factory::basic_pipeline\&lt; T \&gt;">
<polygon fill="white" stroke="black" points="148,-352.5 148,-371.5 286,-371.5 286,-352.5 148,-352.5"/>
<text text-anchor="middle" x="217" y="-359.5" font-family="Helvetica,sans-Serif" font-size="10.00">factory::basic_pipeline&lt; T &gt;</text>
</a>
</g>
</g>
<!-- Node1&#45;&gt;Node2 -->
<g id="edge1" class="edge"><title>Node1&#45;&gt;Node2</title>
<path fill="none" stroke="midnightblue" d="M67.9999,-164.605C84.3512,-191.823 116.533,-243.738 148,-285 167.467,-310.526 193.177,-338.224 206.726,-352.42"/>
<polygon fill="midnightblue" stroke="midnightblue" points="70.8523,-162.555 62.7227,-155.761 64.841,-166.142 70.8523,-162.555"/>
</g>
<!-- Node5 -->
<g id="node5" class="node"><title>Node5</title>
<g id="a_node5"><a xlink:href="classfactory_1_1basic__pipeline.html" target="_top" xlink:title="factory::basic_pipeline\l\&lt; T, Kernels, Traits,\l Threads, Mutex, Lock,\l Semaphore \&gt;">
<polygon fill="white" stroke="black" points="158,-224 158,-276 276,-276 276,-224 158,-224"/>
<text text-anchor="start" x="166" y="-264" font-family="Helvetica,sans-Serif" font-size="10.00">factory::basic_pipeline</text>
<text text-anchor="start" x="166" y="-253" font-family="Helvetica,sans-Serif" font-size="10.00">&lt; T, Kernels, Traits,</text>
<text text-anchor="start" x="166" y="-242" font-family="Helvetica,sans-Serif" font-size="10.00"> Threads, Mutex, Lock,</text>
<text text-anchor="middle" x="217" y="-231" font-family="Helvetica,sans-Serif" font-size="10.00"> Semaphore &gt;</text>
</a>
</g>
</g>
<!-- Node1&#45;&gt;Node5 -->
<g id="edge4" class="edge"><title>Node1&#45;&gt;Node5</title>
<path fill="none" stroke="midnightblue" d="M76.6655,-162.095C94.6807,-176.495 122.366,-197.774 148,-214 153.305,-217.358 158.954,-220.696 164.642,-223.909"/>
<polygon fill="midnightblue" stroke="midnightblue" points="78.631,-159.184 68.6498,-155.63 74.2367,-164.632 78.631,-159.184"/>
</g>
<!-- Node18 -->
<g id="node18" class="node"><title>Node18</title>
<g id="a_node18"><a xlink:href="classfactory_1_1external__process__handler.html" target="_top" xlink:title="factory::external_process\l_handler\&lt; T, Router \&gt;">
<polygon fill="white" stroke="black" points="153.5,-175 153.5,-205 280.5,-205 280.5,-175 153.5,-175"/>
<text text-anchor="start" x="161.5" y="-193" font-family="Helvetica,sans-Serif" font-size="10.00">factory::external_process</text>
<text text-anchor="middle" x="217" y="-182" font-family="Helvetica,sans-Serif" font-size="10.00">_handler&lt; T, Router &gt;</text>
</a>
</g>
</g>
<!-- Node1&#45;&gt;Node18 -->
<g id="edge17" class="edge"><title>Node1&#45;&gt;Node18</title>
<path fill="none" stroke="midnightblue" d="M101.232,-158.24C119.926,-163.413 141.883,-169.49 161.559,-174.935"/>
<polygon fill="midnightblue" stroke="midnightblue" points="102.072,-154.841 91.5006,-155.547 100.205,-161.588 102.072,-154.841"/>
</g>
<!-- Node19 -->
<g id="node19" class="node"><title>Node19</title>
<g id="a_node19"><a xlink:href="classfactory_1_1Factory.html" target="_top" xlink:title="factory::Factory\&lt; T \&gt;">
<polygon fill="white" stroke="black" points="162,-136.5 162,-155.5 272,-155.5 272,-136.5 162,-136.5"/>
<text text-anchor="middle" x="217" y="-143.5" font-family="Helvetica,sans-Serif" font-size="10.00">factory::Factory&lt; T &gt;</text>
</a>
</g>
</g>
<!-- Node1&#45;&gt;Node19 -->
<g id="edge18" class="edge"><title>Node1&#45;&gt;Node19</title>
<path fill="none" stroke="midnightblue" d="M122.492,-146C135.543,-146 149.115,-146 161.739,-146"/>
<polygon fill="midnightblue" stroke="midnightblue" points="122.164,-142.5 112.164,-146 122.164,-149.5 122.164,-142.5"/>
</g>
<!-- Node20 -->
<g id="node20" class="node"><title>Node20</title>
<g id="a_node20"><a xlink:href="classfactory_1_1Multi__pipeline.html" target="_top" xlink:title="factory::Multi_pipeline\&lt; T \&gt;">
<polygon fill="white" stroke="black" points="149,-98.5 149,-117.5 285,-117.5 285,-98.5 149,-98.5"/>
<text text-anchor="middle" x="217" y="-105.5" font-family="Helvetica,sans-Serif" font-size="10.00">factory::Multi_pipeline&lt; T &gt;</text>
</a>
</g>
</g>
<!-- Node1&#45;&gt;Node20 -->
<g id="edge19" class="edge"><title>Node1&#45;&gt;Node20</title>
<path fill="none" stroke="midnightblue" d="M107.077,-134.032C129.358,-128.707 155.229,-122.524 176.166,-117.52"/>
<polygon fill="midnightblue" stroke="midnightblue" points="106.035,-130.682 97.1224,-136.411 107.662,-137.491 106.035,-130.682"/>
</g>
<!-- Node21 -->
<g id="node21" class="node"><title>Node21</title>
<g id="a_node21"><a xlink:href="classfactory_1_1process__handler.html" target="_top" xlink:title="factory::process_handler\l\&lt; T, Router \&gt;">
<polygon fill="white" stroke="black" points="155,-49 155,-79 279,-79 279,-49 155,-49"/>
<text text-anchor="start" x="163" y="-67" font-family="Helvetica,sans-Serif" font-size="10.00">factory::process_handler</text>
<text text-anchor="middle" x="217" y="-56" font-family="Helvetica,sans-Serif" font-size="10.00">&lt; T, Router &gt;</text>
</a>
</g>
</g>
<!-- Node1&#45;&gt;Node21 -->
<g id="edge20" class="edge"><title>Node1&#45;&gt;Node21</title>
<path fill="none" stroke="midnightblue" d="M78.9446,-130.442C96.9279,-118.144 123.342,-101.093 148,-89 155.228,-85.4555 163.091,-82.1207 170.822,-79.1124"/>
<polygon fill="midnightblue" stroke="midnightblue" points="76.5891,-127.816 70.363,-136.388 80.576,-133.57 76.5891,-127.816"/>
</g>
<!-- Node22 -->
<g id="node22" class="node"><title>Node22</title>
<g id="a_node22"><a xlink:href="classfactory_1_1remote__client.html" target="_top" xlink:title="factory::remote_client\l\&lt; T, Socket, Router \&gt;">
<polygon fill="white" stroke="black" points="160.5,-0 160.5,-30 273.5,-30 273.5,-0 160.5,-0"/>
<text text-anchor="start" x="168.5" y="-18" font-family="Helvetica,sans-Serif" font-size="10.00">factory::remote_client</text>
<text text-anchor="middle" x="217" y="-7" font-family="Helvetica,sans-Serif" font-size="10.00">&lt; T, Socket, Router &gt;</text>
</a>
</g>
</g>
<!-- Node1&#45;&gt;Node22 -->
<g id="edge21" class="edge"><title>Node1&#45;&gt;Node22</title>
<path fill="none" stroke="midnightblue" d="M68.2628,-127.511C83.5583,-103.851 113.039,-63.0551 148,-39 152.951,-35.5937 158.435,-32.6211 164.08,-30.0391"/>
<polygon fill="midnightblue" stroke="midnightblue" points="65.1411,-125.9 62.7712,-136.226 71.0634,-129.632 65.1411,-125.9"/>
</g>
<!-- Node3 -->
<g id="node3" class="node"><title>Node3</title>
<g id="a_node3"><a xlink:href="classfactory_1_1parallel__pipeline.html" target="_top" xlink:title="factory::parallel_pipeline\&lt; T \&gt;">
<polygon fill="white" stroke="black" points="322,-439.5 322,-458.5 468,-458.5 468,-439.5 322,-439.5"/>
<text text-anchor="middle" x="395" y="-446.5" font-family="Helvetica,sans-Serif" font-size="10.00">factory::parallel_pipeline&lt; T &gt;</text>
</a>
</g>
</g>
<!-- Node2&#45;&gt;Node3 -->
<g id="edge2" class="edge"><title>Node2&#45;&gt;Node3</title>
<path fill="none" stroke="midnightblue" d="M238.234,-377.679C258.457,-392.693 290.931,-415.065 322,-429 331.233,-433.141 341.524,-436.616 351.37,-439.445"/>
<polygon fill="midnightblue" stroke="midnightblue" points="240.197,-374.776 230.105,-371.548 235.982,-380.364 240.197,-374.776"/>
</g>
<!-- Node4 -->
<g id="node4" class="node"><title>Node4</title>
<g id="a_node4"><a xlink:href="structfactory_1_1io__pipeline.html" target="_top" xlink:title="factory::io_pipeline\&lt; T \&gt;">
<polygon fill="white" stroke="black" points="508,-439.5 508,-458.5 630,-458.5 630,-439.5 508,-439.5"/>
<text text-anchor="middle" x="569" y="-446.5" font-family="Helvetica,sans-Serif" font-size="10.00">factory::io_pipeline&lt; T &gt;</text>
</a>
</g>
</g>
<!-- Node3&#45;&gt;Node4 -->
<g id="edge3" class="edge"><title>Node3&#45;&gt;Node4</title>
<path fill="none" stroke="midnightblue" d="M478.664,-449C488.511,-449 498.416,-449 507.863,-449"/>
<polygon fill="midnightblue" stroke="midnightblue" points="478.445,-445.5 468.445,-449 478.445,-452.5 478.445,-445.5"/>
</g>
<!-- Node6 -->
<g id="node6" class="node"><title>Node6</title>
<g id="a_node6"><a xlink:href="structfactory_1_1basic__socket__pipeline.html" target="_top" xlink:title="basic_socket_pipeline\l\&lt; K, external_process\l_handler\&lt; K, R \&gt; \&gt;">
<polygon fill="white" stroke="black" points="338.5,-379.5 338.5,-420.5 451.5,-420.5 451.5,-379.5 338.5,-379.5"/>
<text text-anchor="start" x="346.5" y="-408.5" font-family="Helvetica,sans-Serif" font-size="10.00">basic_socket_pipeline</text>
<text text-anchor="start" x="346.5" y="-397.5" font-family="Helvetica,sans-Serif" font-size="10.00">&lt; K, external_process</text>
<text text-anchor="middle" x="395" y="-386.5" font-family="Helvetica,sans-Serif" font-size="10.00">_handler&lt; K, R &gt; &gt;</text>
</a>
</g>
</g>
<!-- Node5&#45;&gt;Node6 -->
<g id="edge5" class="edge"><title>Node5&#45;&gt;Node6</title>
<path fill="none" stroke="midnightblue" d="M241.454,-284.355C260.637,-310.375 289.781,-345.53 322,-369 327.28,-372.846 333.111,-376.34 339.102,-379.478"/>
<polygon fill="midnightblue" stroke="midnightblue" points="244.287,-282.299 235.585,-276.255 238.618,-286.406 244.287,-282.299"/>
</g>
<!-- Node8 -->
<g id="node8" class="node"><title>Node8</title>
<g id="a_node8"><a xlink:href="structfactory_1_1basic__socket__pipeline.html" target="_top" xlink:title="basic_socket_pipeline\l\&lt; K, process_handler\l\&lt; K, R \&gt; \&gt;">
<polygon fill="white" stroke="black" points="338.5,-319.5 338.5,-360.5 451.5,-360.5 451.5,-319.5 338.5,-319.5"/>
<text text-anchor="start" x="346.5" y="-348.5" font-family="Helvetica,sans-Serif" font-size="10.00">basic_socket_pipeline</text>
<text text-anchor="start" x="346.5" y="-337.5" font-family="Helvetica,sans-Serif" font-size="10.00">&lt; K, process_handler</text>
<text text-anchor="middle" x="395" y="-326.5" font-family="Helvetica,sans-Serif" font-size="10.00">&lt; K, R &gt; &gt;</text>
</a>
</g>
</g>
<!-- Node5&#45;&gt;Node8 -->
<g id="edge7" class="edge"><title>Node5&#45;&gt;Node8</title>
<path fill="none" stroke="midnightblue" d="M270.32,-281.161C286.669,-290.495 304.904,-300.502 322,-309 329.068,-312.513 336.63,-316.026 344.098,-319.358"/>
<polygon fill="midnightblue" stroke="midnightblue" points="271.864,-278.011 261.45,-276.058 268.373,-284.078 271.864,-278.011"/>
</g>
<!-- Node10 -->
<g id="node10" class="node"><title>Node10</title>
<g id="a_node10"><a xlink:href="structfactory_1_1basic__socket__pipeline.html" target="_top" xlink:title="basic_socket_pipeline\l\&lt; T, process_handler\l\&lt; T, basic_router\&lt; T \&gt; \&gt; \&gt;">
<polygon fill="white" stroke="black" points="328.5,-259.5 328.5,-300.5 461.5,-300.5 461.5,-259.5 328.5,-259.5"/>
<text text-anchor="start" x="336.5" y="-288.5" font-family="Helvetica,sans-Serif" font-size="10.00">basic_socket_pipeline</text>
<text text-anchor="start" x="336.5" y="-277.5" font-family="Helvetica,sans-Serif" font-size="10.00">&lt; T, process_handler</text>
<text text-anchor="middle" x="395" y="-266.5" font-family="Helvetica,sans-Serif" font-size="10.00">&lt; T, basic_router&lt; T &gt; &gt; &gt;</text>
</a>
</g>
</g>
<!-- Node5&#45;&gt;Node10 -->
<g id="edge9" class="edge"><title>Node5&#45;&gt;Node10</title>
<path fill="none" stroke="midnightblue" d="M286.08,-261.605C299.961,-263.971 314.541,-266.456 328.336,-268.807"/>
<polygon fill="midnightblue" stroke="midnightblue" points="286.563,-258.136 276.117,-259.906 285.386,-265.037 286.563,-258.136"/>
</g>
<!-- Node12 -->
<g id="node12" class="node"><title>Node12</title>
<g id="a_node12"><a xlink:href="structfactory_1_1basic__socket__pipeline.html" target="_top" xlink:title="basic_socket_pipeline\l\&lt; T, process_handler\l\&lt; T, Router \&gt; \&gt;">
<polygon fill="white" stroke="black" points="338.5,-199.5 338.5,-240.5 451.5,-240.5 451.5,-199.5 338.5,-199.5"/>
<text text-anchor="start" x="346.5" y="-228.5" font-family="Helvetica,sans-Serif" font-size="10.00">basic_socket_pipeline</text>
<text text-anchor="start" x="346.5" y="-217.5" font-family="Helvetica,sans-Serif" font-size="10.00">&lt; T, process_handler</text>
<text text-anchor="middle" x="395" y="-206.5" font-family="Helvetica,sans-Serif" font-size="10.00">&lt; T, Router &gt; &gt;</text>
</a>
</g>
</g>
<!-- Node5&#45;&gt;Node12 -->
<g id="edge11" class="edge"><title>Node5&#45;&gt;Node12</title>
<path fill="none" stroke="midnightblue" d="M286.141,-238.385C303.413,-235.441 321.763,-232.313 338.335,-229.488"/>
<polygon fill="midnightblue" stroke="midnightblue" points="285.386,-234.963 276.117,-240.094 286.563,-241.864 285.386,-234.963"/>
</g>
<!-- Node14 -->
<g id="node14" class="node"><title>Node14</title>
<g id="a_node14"><a xlink:href="structfactory_1_1basic__socket__pipeline.html" target="_top" xlink:title="basic_socket_pipeline\l\&lt; T, remote_client\&lt; T,\l Socket, Router \&gt; \&gt;">
<polygon fill="white" stroke="black" points="338,-139.5 338,-180.5 452,-180.5 452,-139.5 338,-139.5"/>
<text text-anchor="start" x="346" y="-168.5" font-family="Helvetica,sans-Serif" font-size="10.00">basic_socket_pipeline</text>
<text text-anchor="start" x="346" y="-157.5" font-family="Helvetica,sans-Serif" font-size="10.00">&lt; T, remote_client&lt; T,</text>
<text text-anchor="middle" x="395" y="-146.5" font-family="Helvetica,sans-Serif" font-size="10.00"> Socket, Router &gt; &gt;</text>
</a>
</g>
</g>
<!-- Node5&#45;&gt;Node14 -->
<g id="edge13" class="edge"><title>Node5&#45;&gt;Node14</title>
<path fill="none" stroke="midnightblue" d="M277.803,-218.78C280.588,-217.188 283.332,-215.59 286,-214 302.519,-204.155 305.046,-199.074 322,-190 328.089,-186.741 334.61,-183.59 341.148,-180.633"/>
<polygon fill="midnightblue" stroke="midnightblue" points="275.824,-215.877 268.817,-223.823 279.25,-221.981 275.824,-215.877"/>
</g>
<!-- Node16 -->
<g id="node16" class="node"><title>Node16</title>
<g id="a_node16"><a xlink:href="structfactory_1_1basic__socket__pipeline.html" target="_top" xlink:title="factory::basic_socket\l_pipeline\&lt; T, Handler \&gt;">
<polygon fill="white" stroke="black" points="335.5,-91 335.5,-121 454.5,-121 454.5,-91 335.5,-91"/>
<text text-anchor="start" x="343.5" y="-109" font-family="Helvetica,sans-Serif" font-size="10.00">factory::basic_socket</text>
<text text-anchor="middle" x="395" y="-98" font-family="Helvetica,sans-Serif" font-size="10.00">_pipeline&lt; T, Handler &gt;</text>
</a>
</g>
</g>
<!-- Node5&#45;&gt;Node16 -->
<g id="edge15" class="edge"><title>Node5&#45;&gt;Node16</title>
<path fill="none" stroke="midnightblue" d="M282.826,-217.233C283.922,-216.183 284.982,-215.105 286,-214 313.519,-184.126 292.11,-157.502 322,-130 325.975,-126.342 330.524,-123.24 335.361,-120.61"/>
<polygon fill="midnightblue" stroke="midnightblue" points="280.483,-214.631 275.125,-223.772 285.014,-219.967 280.483,-214.631"/>
</g>
<!-- Node17 -->
<g id="node17" class="node"><title>Node17</title>
<g id="a_node17"><a xlink:href="structfactory_1_1timer__pipeline.html" target="_top" xlink:title="factory::timer_pipeline\&lt; T \&gt;">
<polygon fill="white" stroke="black" points="326.5,-52.5 326.5,-71.5 463.5,-71.5 463.5,-52.5 326.5,-52.5"/>
<text text-anchor="middle" x="395" y="-59.5" font-family="Helvetica,sans-Serif" font-size="10.00">factory::timer_pipeline&lt; T &gt;</text>
</a>
</g>
</g>
<!-- Node5&#45;&gt;Node17 -->
<g id="edge16" class="edge"><title>Node5&#45;&gt;Node17</title>
<path fill="none" stroke="midnightblue" d="M283.429,-217.005C284.321,-216.029 285.179,-215.027 286,-214 324.226,-166.157 278.561,-124.165 322,-81 325.852,-77.1728 330.377,-74.09 335.252,-71.6103"/>
<polygon fill="midnightblue" stroke="midnightblue" points="280.884,-214.594 276.01,-224.001 285.687,-219.687 280.884,-214.594"/>
</g>
<!-- Node7 -->
<g id="node7" class="node"><title>Node7</title>
<g id="a_node7"><a xlink:href="classfactory_1_1unix__domain__socket__pipeline.html" target="_top" xlink:title="factory::unix_domain\l_socket_pipeline\&lt; K, R \&gt;">
<polygon fill="white" stroke="black" points="505,-385 505,-415 633,-415 633,-385 505,-385"/>
<text text-anchor="start" x="513" y="-403" font-family="Helvetica,sans-Serif" font-size="10.00">factory::unix_domain</text>
<text text-anchor="middle" x="569" y="-392" font-family="Helvetica,sans-Serif" font-size="10.00">_socket_pipeline&lt; K, R &gt;</text>
</a>
</g>
</g>
<!-- Node6&#45;&gt;Node7 -->
<g id="edge6" class="edge"><title>Node6&#45;&gt;Node7</title>
<path fill="none" stroke="midnightblue" d="M461.969,-400C476.091,-400 490.977,-400 504.984,-400"/>
<polygon fill="midnightblue" stroke="midnightblue" points="461.844,-396.5 451.843,-400 461.843,-403.5 461.844,-396.5"/>
</g>
<!-- Node9 -->
<g id="node9" class="node"><title>Node9</title>
<g id="a_node9"><a xlink:href="classfactory_1_1process__pipeline.html" target="_top" xlink:title="factory::process_pipeline\l\&lt; K, R \&gt;">
<polygon fill="white" stroke="black" points="506.5,-325 506.5,-355 631.5,-355 631.5,-325 506.5,-325"/>
<text text-anchor="start" x="514.5" y="-343" font-family="Helvetica,sans-Serif" font-size="10.00">factory::process_pipeline</text>
<text text-anchor="middle" x="569" y="-332" font-family="Helvetica,sans-Serif" font-size="10.00">&lt; K, R &gt;</text>
</a>
</g>
</g>
<!-- Node8&#45;&gt;Node9 -->
<g id="edge8" class="edge"><title>Node8&#45;&gt;Node9</title>
<path fill="none" stroke="midnightblue" d="M462.266,-340C476.808,-340 492.145,-340 506.49,-340"/>
<polygon fill="midnightblue" stroke="midnightblue" points="461.844,-336.5 451.843,-340 461.843,-343.5 461.844,-336.5"/>
</g>
<!-- Node11 -->
<g id="node11" class="node"><title>Node11</title>
<g id="a_node11"><a xlink:href="classfactory_1_1child__process__pipeline.html" target="_top" xlink:title="factory::child_process\l_pipeline\&lt; T, basic_router\l\&lt; T \&gt; \&gt;">
<polygon fill="white" stroke="black" points="504.5,-259.5 504.5,-300.5 633.5,-300.5 633.5,-259.5 504.5,-259.5"/>
<text text-anchor="start" x="512.5" y="-288.5" font-family="Helvetica,sans-Serif" font-size="10.00">factory::child_process</text>
<text text-anchor="start" x="512.5" y="-277.5" font-family="Helvetica,sans-Serif" font-size="10.00">_pipeline&lt; T, basic_router</text>
<text text-anchor="middle" x="569" y="-266.5" font-family="Helvetica,sans-Serif" font-size="10.00">&lt; T &gt; &gt;</text>
</a>
</g>
</g>
<!-- Node10&#45;&gt;Node11 -->
<g id="edge10" class="edge"><title>Node10&#45;&gt;Node11</title>
<path fill="none" stroke="midnightblue" d="M471.838,-280C482.698,-280 493.777,-280 504.37,-280"/>
<polygon fill="midnightblue" stroke="midnightblue" points="471.517,-276.5 461.516,-280 471.516,-283.5 471.517,-276.5"/>
</g>
<!-- Node13 -->
<g id="node13" class="node"><title>Node13</title>
<g id="a_node13"><a xlink:href="classfactory_1_1child__process__pipeline.html" target="_top" xlink:title="factory::child_process\l_pipeline\&lt; T, Router \&gt;">
<polygon fill="white" stroke="black" points="512,-205 512,-235 626,-235 626,-205 512,-205"/>
<text text-anchor="start" x="520" y="-223" font-family="Helvetica,sans-Serif" font-size="10.00">factory::child_process</text>
<text text-anchor="middle" x="569" y="-212" font-family="Helvetica,sans-Serif" font-size="10.00">_pipeline&lt; T, Router &gt;</text>
</a>
</g>
</g>
<!-- Node12&#45;&gt;Node13 -->
<g id="edge12" class="edge"><title>Node12&#45;&gt;Node13</title>
<path fill="none" stroke="midnightblue" d="M461.938,-220C478.402,-220 495.906,-220 511.848,-220"/>
<polygon fill="midnightblue" stroke="midnightblue" points="461.844,-216.5 451.843,-220 461.843,-223.5 461.844,-216.5"/>
</g>
<!-- Node15 -->
<g id="node15" class="node"><title>Node15</title>
<g id="a_node15"><a xlink:href="classfactory_1_1socket__pipeline.html" target="_top" xlink:title="factory::socket_pipeline\l\&lt; T, Socket, Router \&gt;">
<polygon fill="white" stroke="black" points="509,-145 509,-175 629,-175 629,-145 509,-145"/>
<text text-anchor="start" x="517" y="-163" font-family="Helvetica,sans-Serif" font-size="10.00">factory::socket_pipeline</text>
<text text-anchor="middle" x="569" y="-152" font-family="Helvetica,sans-Serif" font-size="10.00">&lt; T, Socket, Router &gt;</text>
</a>
</g>
</g>
<!-- Node14&#45;&gt;Node15 -->
<g id="edge14" class="edge"><title>Node14&#45;&gt;Node15</title>
<path fill="none" stroke="midnightblue" d="M462.701,-160C477.929,-160 494.009,-160 508.894,-160"/>
<polygon fill="midnightblue" stroke="midnightblue" points="462.319,-156.5 452.319,-160 462.319,-163.5 462.319,-156.5"/>
</g>
</g>
</svg>
