<?xml version="1.0" encoding="UTF-8" standalone="no"?>
<!DOCTYPE svg PUBLIC "-//W3C//DTD SVG 1.1//EN"
 "http://www.w3.org/Graphics/SVG/1.1/DTD/svg11.dtd">
<!-- Generated by graphviz version 2.36.0 (20140111.2315)
 -->
<!-- Title: sys::basic_fildesbuf&lt; Ch, Tr, Fd &gt; Pages: 1 -->
<svg width="182pt" height="190pt"
 viewBox="0.00 0.00 182.00 190.00" xmlns="http://www.w3.org/2000/svg" xmlns:xlink="http://www.w3.org/1999/xlink">
<g id="graph0" class="graph" transform="scale(1 1) rotate(0) translate(4 186)">
<title>sys::basic_fildesbuf&lt; Ch, Tr, Fd &gt;</title>
<polygon fill="white" stroke="none" points="-4,4 -4,-186 178,-186 178,4 -4,4"/>
<!-- Node1 -->
<g id="node1" class="node"><title>Node1</title>
<polygon fill="#bfbfbf" stroke="black" points="70,-1 70,-31 174,-31 174,-1 70,-1"/>
<text text-anchor="start" x="78" y="-19" font-family="Helvetica,sans-Serif" font-size="10.00">sys::basic_fildesbuf</text>
<text text-anchor="middle" x="122" y="-8" font-family="Helvetica,sans-Serif" font-size="10.00">&lt; Ch, Tr, Fd &gt;</text>
</g>
<!-- Node2 -->
<g id="node2" class="node"><title>Node2</title>
<g id="a_node2"><a xlink:href="structstdx_1_1basic__packetbuf.html" target="_top" xlink:title="stdx::basic_packetbuf\l\&lt; Ch, Tr \&gt;">
<polygon fill="white" stroke="black" points="-0.5,-81 -0.5,-111 112.5,-111 112.5,-81 -0.5,-81"/>
<text text-anchor="start" x="7.5" y="-99" font-family="Helvetica,sans-Serif" font-size="10.00">stdx::basic_packetbuf</text>
<text text-anchor="middle" x="56" y="-88" font-family="Helvetica,sans-Serif" font-size="10.00">&lt; Ch, Tr &gt;</text>
</a>
</g>
</g>
<!-- Node2&#45;&gt;Node1 -->
<g id="edge1" class="edge"><title>Node2&#45;&gt;Node1</title>
<path fill="none" stroke="midnightblue" d="M74.7295,-72.8651C86.0444,-59.493 100.132,-42.8445 109.971,-31.2157"/>
<polygon fill="midnightblue" stroke="midnightblue" points="71.893,-70.7989 68.1054,-80.6936 77.2367,-75.3205 71.893,-70.7989"/>
</g>
<!-- Node3 -->
<g id="node3" class="node"><title>Node3</title>
<polygon fill="white" stroke="#bfbfbf" points="2,-151 2,-181 110,-181 110,-151 2,-151"/>
<text text-anchor="start" x="10" y="-169" font-family="Helvetica,sans-Serif" font-size="10.00">std::basic_streambuf</text>
<text text-anchor="middle" x="56" y="-158" font-family="Helvetica,sans-Serif" font-size="10.00">&lt; Ch, Tr &gt;</text>
</g>
<!-- Node3&#45;&gt;Node2 -->
<g id="edge2" class="edge"><title>Node3&#45;&gt;Node2</title>
<path fill="none" stroke="midnightblue" d="M56,-140.769C56,-130.814 56,-119.638 56,-111.072"/>
<polygon fill="midnightblue" stroke="midnightblue" points="52.5001,-140.91 56,-150.91 59.5001,-140.91 52.5001,-140.91"/>
</g>
<!-- Node4 -->
<g id="node4" class="node"><title>Node4</title>
<polygon fill="white" stroke="#bfbfbf" points="130.5,-86.5 130.5,-105.5 159.5,-105.5 159.5,-86.5 130.5,-86.5"/>
<text text-anchor="middle" x="145" y="-93.5" font-family="Helvetica,sans-Serif" font-size="10.00">Fd</text>
</g>
<!-- Node4&#45;&gt;Node1 -->
<g id="edge3" class="edge"><title>Node4&#45;&gt;Node1</title>
<path fill="none" stroke="#9a32cd" stroke-dasharray="5,2" d="M139.538,-76.4752C135.449,-62.611 129.94,-43.9282 126.195,-31.227"/>
<polygon fill="#9a32cd" stroke="#9a32cd" points="136.265,-77.7529 142.451,-86.3546 142.979,-75.773 136.265,-77.7529"/>
<text text-anchor="middle" x="142.5" y="-53.5" font-family="Helvetica,sans-Serif" font-size="10.00"> _fd</text>
</g>
</g>
</svg>
