<?xml version="1.0" encoding="UTF-8" standalone="no"?>
<!DOCTYPE svg PUBLIC "-//W3C//DTD SVG 1.1//EN"
 "http://www.w3.org/Graphics/SVG/1.1/DTD/svg11.dtd">
<!-- Generated by graphviz version 2.36.0 (20140111.2315)
 -->
<!-- Title: asc::basic_pipeline&lt; T, Kernels, Traits, Threads, Mutex, Lock, Semaphore &gt; Pages: 1 -->
<svg width="391pt" height="130pt"
 viewBox="0.00 0.00 391.00 130.00" xmlns="http://www.w3.org/2000/svg" xmlns:xlink="http://www.w3.org/1999/xlink">
<g id="graph0" class="graph" transform="scale(1 1) rotate(0) translate(4 126)">
<title>asc::basic_pipeline&lt; T, Kernels, Traits, Threads, Mutex, Lock, Semaphore &gt;</title>
<polygon fill="white" stroke="none" points="-4,4 -4,-126 387,-126 387,4 -4,4"/>
<!-- Node1 -->
<g id="node1" class="node"><title>Node1</title>
<polygon fill="#bfbfbf" stroke="black" points="156,-1 156,-53 274,-53 274,-1 156,-1"/>
<text text-anchor="start" x="164" y="-41" font-family="Helvetica,sans-Serif" font-size="10.00">asc::basic_pipeline</text>
<text text-anchor="start" x="164" y="-30" font-family="Helvetica,sans-Serif" font-size="10.00">&lt; T, Kernels, Traits,</text>
<text text-anchor="start" x="164" y="-19" font-family="Helvetica,sans-Serif" font-size="10.00"> Threads, Mutex, Lock,</text>
<text text-anchor="middle" x="215" y="-8" font-family="Helvetica,sans-Serif" font-size="10.00"> Semaphore &gt;</text>
</g>
<!-- Node2 -->
<g id="node2" class="node"><title>Node2</title>
<g id="a_node2"><a xlink:href="classasc_1_1pipeline__base.html" target="_top" xlink:title="asc::pipeline_base">
<polygon fill="white" stroke="black" points="0,-102.5 0,-121.5 98,-121.5 98,-102.5 0,-102.5"/>
<text text-anchor="middle" x="49" y="-109.5" font-family="Helvetica,sans-Serif" font-size="10.00">asc::pipeline_base</text>
</a>
</g>
</g>
<!-- Node2&#45;&gt;Node1 -->
<g id="edge1" class="edge"><title>Node2&#45;&gt;Node1</title>
<path fill="none" stroke="midnightblue" d="M75.3232,-97.8384C99.328,-85.836 135.441,-67.7796 164.932,-53.0338"/>
<polygon fill="midnightblue" stroke="midnightblue" points="73.5187,-94.8275 66.1397,-102.43 76.6492,-101.088 73.5187,-94.8275"/>
</g>
<!-- Node3 -->
<g id="node3" class="node"><title>Node3</title>
<polygon fill="white" stroke="#bfbfbf" points="116,-102.5 116,-121.5 166,-121.5 166,-102.5 116,-102.5"/>
<text text-anchor="middle" x="141" y="-109.5" font-family="Helvetica,sans-Serif" font-size="10.00">Kernels</text>
</g>
<!-- Node3&#45;&gt;Node1 -->
<g id="edge2" class="edge"><title>Node3&#45;&gt;Node1</title>
<path fill="none" stroke="#9a32cd" stroke-dasharray="5,2" d="M153.139,-94.2436C158.426,-87.208 164.818,-79.0409 171,-72 176.56,-65.6681 182.816,-59.1099 188.829,-53.0513"/>
<polygon fill="#9a32cd" stroke="#9a32cd" points="150.255,-92.2564 147.132,-102.38 155.887,-96.414 150.255,-92.2564"/>
<text text-anchor="middle" x="191" y="-75.5" font-family="Helvetica,sans-Serif" font-size="10.00"> _kernels</text>
</g>
<!-- Node4 -->
<g id="node4" class="node"><title>Node4</title>
<polygon fill="white" stroke="#bfbfbf" points="184,-102.5 184,-121.5 250,-121.5 250,-102.5 184,-102.5"/>
<text text-anchor="middle" x="217" y="-109.5" font-family="Helvetica,sans-Serif" font-size="10.00">Semaphore</text>
</g>
<!-- Node4&#45;&gt;Node1 -->
<g id="edge3" class="edge"><title>Node4&#45;&gt;Node1</title>
<path fill="none" stroke="#9a32cd" stroke-dasharray="5,2" d="M216.263,-92.374C216.166,-89.568 216.074,-86.7079 216,-84 215.723,-73.8911 215.506,-62.7535 215.346,-53.0914"/>
<polygon fill="#9a32cd" stroke="#9a32cd" points="212.77,-92.6274 216.643,-102.489 219.765,-92.3648 212.77,-92.6274"/>
<text text-anchor="middle" x="244.5" y="-75.5" font-family="Helvetica,sans-Serif" font-size="10.00"> _semaphore</text>
</g>
<!-- Node5 -->
<g id="node5" class="node"><title>Node5</title>
<polygon fill="white" stroke="#bfbfbf" points="269,-102.5 269,-121.5 321,-121.5 321,-102.5 269,-102.5"/>
<text text-anchor="middle" x="295" y="-109.5" font-family="Helvetica,sans-Serif" font-size="10.00">Threads</text>
</g>
<!-- Node5&#45;&gt;Node1 -->
<g id="edge4" class="edge"><title>Node5&#45;&gt;Node1</title>
<path fill="none" stroke="#9a32cd" stroke-dasharray="5,2" d="M286.79,-92.9465C283.136,-85.9838 278.427,-78.2167 273,-72 267.098,-65.2399 260.009,-58.8451 252.845,-53.1329"/>
<polygon fill="#9a32cd" stroke="#9a32cd" points="283.82,-94.8421 291.348,-102.298 290.112,-91.7752 283.82,-94.8421"/>
<text text-anchor="middle" x="301.5" y="-75.5" font-family="Helvetica,sans-Serif" font-size="10.00"> _threads</text>
</g>
<!-- Node6 -->
<g id="node6" class="node"><title>Node6</title>
<polygon fill="white" stroke="#bfbfbf" points="339,-102.5 339,-121.5 383,-121.5 383,-102.5 339,-102.5"/>
<text text-anchor="middle" x="361" y="-109.5" font-family="Helvetica,sans-Serif" font-size="10.00">Mutex</text>
</g>
<!-- Node6&#45;&gt;Node1 -->
<g id="edge5" class="edge"><title>Node6&#45;&gt;Node1</title>
<path fill="none" stroke="#9a32cd" stroke-dasharray="5,2" d="M348.885,-94.2633C342.718,-86.6695 334.692,-78.0545 326,-72 310.351,-61.0998 291.614,-52.3514 274.029,-45.6161"/>
<polygon fill="#9a32cd" stroke="#9a32cd" points="346.336,-96.6906 355.2,-102.494 351.89,-92.4296 346.336,-96.6906"/>
<text text-anchor="middle" x="357" y="-75.5" font-family="Helvetica,sans-Serif" font-size="10.00"> _mutex</text>
</g>
</g>
</svg>
