<?xml version="1.0" encoding="UTF-8" standalone="no"?>
<!DOCTYPE svg PUBLIC "-//W3C//DTD SVG 1.1//EN"
 "http://www.w3.org/Graphics/SVG/1.1/DTD/svg11.dtd">
<!-- Generated by graphviz version 2.36.0 (20140111.2315)
 -->
<!-- Title: bsc::basic_pipeline&lt; T, Kernels, Traits, Threads, Mutex, Lock, Semaphore &gt; Pages: 1 -->
<svg width="594pt" height="341pt"
 viewBox="0.00 0.00 594.00 341.00" xmlns="http://www.w3.org/2000/svg" xmlns:xlink="http://www.w3.org/1999/xlink">
<g id="graph0" class="graph" transform="scale(1 1) rotate(0) translate(4 337)">
<title>bsc::basic_pipeline&lt; T, Kernels, Traits, Threads, Mutex, Lock, Semaphore &gt;</title>
<polygon fill="white" stroke="none" points="-4,4 -4,-337 590,-337 590,4 -4,4"/>
<!-- Node1 -->
<g id="node1" class="node"><title>Node1</title>
<polygon fill="#bfbfbf" stroke="black" points="134,-112 134,-164 252,-164 252,-112 134,-112"/>
<text text-anchor="start" x="142" y="-152" font-family="Helvetica,sans-Serif" font-size="10.00">bsc::basic_pipeline</text>
<text text-anchor="start" x="142" y="-141" font-family="Helvetica,sans-Serif" font-size="10.00">&lt; T, Kernels, Traits,</text>
<text text-anchor="start" x="142" y="-130" font-family="Helvetica,sans-Serif" font-size="10.00"> Threads, Mutex, Lock,</text>
<text text-anchor="middle" x="193" y="-119" font-family="Helvetica,sans-Serif" font-size="10.00"> Semaphore &gt;</text>
</g>
<!-- Node3 -->
<g id="node3" class="node"><title>Node3</title>
<g id="a_node3"><a xlink:href="structbsc_1_1basic__socket__pipeline.html" target="_top" xlink:title="basic_socket_pipeline\l\&lt; K, external_process\l_handler\&lt; K, R \&gt; \&gt;">
<polygon fill="white" stroke="black" points="298.5,-280.5 298.5,-321.5 411.5,-321.5 411.5,-280.5 298.5,-280.5"/>
<text text-anchor="start" x="306.5" y="-309.5" font-family="Helvetica,sans-Serif" font-size="10.00">basic_socket_pipeline</text>
<text text-anchor="start" x="306.5" y="-298.5" font-family="Helvetica,sans-Serif" font-size="10.00">&lt; K, external_process</text>
<text text-anchor="middle" x="355" y="-287.5" font-family="Helvetica,sans-Serif" font-size="10.00">_handler&lt; K, R &gt; &gt;</text>
</a>
</g>
</g>
<!-- Node1&#45;&gt;Node3 -->
<g id="edge2" class="edge"><title>Node1&#45;&gt;Node3</title>
<path fill="none" stroke="midnightblue" d="M216.887,-172.574C234.521,-197.7 260.477,-231.609 288,-257 297.211,-265.497 308.213,-273.513 318.569,-280.316"/>
<polygon fill="midnightblue" stroke="midnightblue" points="219.577,-170.312 211.007,-164.082 213.822,-174.296 219.577,-170.312"/>
</g>
<!-- Node5 -->
<g id="node5" class="node"><title>Node5</title>
<g id="a_node5"><a xlink:href="structbsc_1_1basic__socket__pipeline.html" target="_top" xlink:title="basic_socket_pipeline\l\&lt; K, process_handler\l\&lt; K, R \&gt; \&gt;">
<polygon fill="white" stroke="black" points="298.5,-207.5 298.5,-248.5 411.5,-248.5 411.5,-207.5 298.5,-207.5"/>
<text text-anchor="start" x="306.5" y="-236.5" font-family="Helvetica,sans-Serif" font-size="10.00">basic_socket_pipeline</text>
<text text-anchor="start" x="306.5" y="-225.5" font-family="Helvetica,sans-Serif" font-size="10.00">&lt; K, process_handler</text>
<text text-anchor="middle" x="355" y="-214.5" font-family="Helvetica,sans-Serif" font-size="10.00">&lt; K, R &gt; &gt;</text>
</a>
</g>
</g>
<!-- Node1&#45;&gt;Node5 -->
<g id="edge4" class="edge"><title>Node1&#45;&gt;Node5</title>
<path fill="none" stroke="midnightblue" d="M241.988,-169.686C256.549,-178.872 272.735,-188.665 288,-197 294.444,-200.519 301.356,-204.035 308.193,-207.368"/>
<polygon fill="midnightblue" stroke="midnightblue" points="243.47,-166.481 233.155,-164.064 239.711,-172.386 243.47,-166.481"/>
</g>
<!-- Node8 -->
<g id="node8" class="node"><title>Node8</title>
<g id="a_node8"><a xlink:href="structbsc_1_1basic__socket__pipeline.html" target="_top" xlink:title="basic_socket_pipeline\l\&lt; T, process_handler\l\&lt; T, basic_router\&lt; T \&gt; \&gt; \&gt;">
<polygon fill="white" stroke="black" points="288.5,-147.5 288.5,-188.5 421.5,-188.5 421.5,-147.5 288.5,-147.5"/>
<text text-anchor="start" x="296.5" y="-176.5" font-family="Helvetica,sans-Serif" font-size="10.00">basic_socket_pipeline</text>
<text text-anchor="start" x="296.5" y="-165.5" font-family="Helvetica,sans-Serif" font-size="10.00">&lt; T, process_handler</text>
<text text-anchor="middle" x="355" y="-154.5" font-family="Helvetica,sans-Serif" font-size="10.00">&lt; T, basic_router&lt; T &gt; &gt; &gt;</text>
</a>
</g>
</g>
<!-- Node1&#45;&gt;Node8 -->
<g id="edge7" class="edge"><title>Node1&#45;&gt;Node8</title>
<path fill="none" stroke="midnightblue" d="M262.228,-150.793C270.85,-152.409 279.658,-154.061 288.241,-155.67"/>
<polygon fill="midnightblue" stroke="midnightblue" points="262.69,-147.318 252.216,-148.916 261.4,-154.199 262.69,-147.318"/>
</g>
<!-- Node10 -->
<g id="node10" class="node"><title>Node10</title>
<g id="a_node10"><a xlink:href="structbsc_1_1basic__socket__pipeline.html" target="_top" xlink:title="basic_socket_pipeline\l\&lt; T, remote_client\&lt; T,\l Socket, Router \&gt; \&gt;">
<polygon fill="white" stroke="black" points="298,-87.5 298,-128.5 412,-128.5 412,-87.5 298,-87.5"/>
<text text-anchor="start" x="306" y="-116.5" font-family="Helvetica,sans-Serif" font-size="10.00">basic_socket_pipeline</text>
<text text-anchor="start" x="306" y="-105.5" font-family="Helvetica,sans-Serif" font-size="10.00">&lt; T, remote_client&lt; T,</text>
<text text-anchor="middle" x="355" y="-94.5" font-family="Helvetica,sans-Serif" font-size="10.00"> Socket, Router &gt; &gt;</text>
</a>
</g>
</g>
<!-- Node1&#45;&gt;Node10 -->
<g id="edge9" class="edge"><title>Node1&#45;&gt;Node10</title>
<path fill="none" stroke="midnightblue" d="M262.142,-125.223C274.087,-122.984 286.394,-120.676 297.963,-118.507"/>
<polygon fill="midnightblue" stroke="midnightblue" points="261.4,-121.801 252.216,-127.084 262.69,-128.682 261.4,-121.801"/>
</g>
<!-- Node12 -->
<g id="node12" class="node"><title>Node12</title>
<g id="a_node12"><a xlink:href="structbsc_1_1basic__socket__pipeline.html" target="_top" xlink:title="bsc::basic_socket_pipeline\l\&lt; T, Handler \&gt;">
<polygon fill="white" stroke="black" points="288,-39 288,-69 422,-69 422,-39 288,-39"/>
<text text-anchor="start" x="296" y="-57" font-family="Helvetica,sans-Serif" font-size="10.00">bsc::basic_socket_pipeline</text>
<text text-anchor="middle" x="355" y="-46" font-family="Helvetica,sans-Serif" font-size="10.00">&lt; T, Handler &gt;</text>
</a>
</g>
</g>
<!-- Node1&#45;&gt;Node12 -->
<g id="edge11" class="edge"><title>Node1&#45;&gt;Node12</title>
<path fill="none" stroke="midnightblue" d="M239.46,-106.147C254.505,-96.3832 271.6,-86.0934 288,-78 294.451,-74.8165 301.434,-71.8257 308.361,-69.1077"/>
<polygon fill="midnightblue" stroke="midnightblue" points="237.284,-103.389 230.859,-111.814 241.135,-109.234 237.284,-103.389"/>
</g>
<!-- Node13 -->
<g id="node13" class="node"><title>Node13</title>
<g id="a_node13"><a xlink:href="structbsc_1_1timer__pipeline.html" target="_top" xlink:title="bsc::timer_pipeline\&lt; T \&gt;">
<polygon fill="white" stroke="black" points="294,-0.5 294,-19.5 416,-19.5 416,-0.5 294,-0.5"/>
<text text-anchor="middle" x="355" y="-7.5" font-family="Helvetica,sans-Serif" font-size="10.00">bsc::timer_pipeline&lt; T &gt;</text>
</a>
</g>
</g>
<!-- Node1&#45;&gt;Node13 -->
<g id="edge12" class="edge"><title>Node1&#45;&gt;Node13</title>
<path fill="none" stroke="midnightblue" d="M216.005,-103.135C232.931,-79.0171 258.391,-47.9673 288,-29 294.024,-25.141 300.85,-22.0472 307.771,-19.5719"/>
<polygon fill="midnightblue" stroke="midnightblue" points="212.922,-101.443 210.163,-111.672 218.699,-105.396 212.922,-101.443"/>
</g>
<!-- Node2 -->
<g id="node2" class="node"><title>Node2</title>
<g id="a_node2"><a xlink:href="classbsc_1_1pipeline__base.html" target="_top" xlink:title="bsc::pipeline_base">
<polygon fill="white" stroke="black" points="0,-128.5 0,-147.5 98,-147.5 98,-128.5 0,-128.5"/>
<text text-anchor="middle" x="49" y="-135.5" font-family="Helvetica,sans-Serif" font-size="10.00">bsc::pipeline_base</text>
</a>
</g>
</g>
<!-- Node2&#45;&gt;Node1 -->
<g id="edge1" class="edge"><title>Node2&#45;&gt;Node1</title>
<path fill="none" stroke="midnightblue" d="M108.244,-138C116.711,-138 125.427,-138 133.891,-138"/>
<polygon fill="midnightblue" stroke="midnightblue" points="108.075,-134.5 98.0747,-138 108.075,-141.5 108.075,-134.5"/>
</g>
<!-- Node4 -->
<g id="node4" class="node"><title>Node4</title>
<g id="a_node4"><a xlink:href="classbsc_1_1unix__domain__socket__pipeline.html" target="_top" xlink:title="bsc::unix_domain_socket\l_pipeline\&lt; K, R \&gt;">
<polygon fill="white" stroke="black" points="458,-302 458,-332 586,-332 586,-302 458,-302"/>
<text text-anchor="start" x="466" y="-320" font-family="Helvetica,sans-Serif" font-size="10.00">bsc::unix_domain_socket</text>
<text text-anchor="middle" x="522" y="-309" font-family="Helvetica,sans-Serif" font-size="10.00">_pipeline&lt; K, R &gt;</text>
</a>
</g>
</g>
<!-- Node3&#45;&gt;Node4 -->
<g id="edge3" class="edge"><title>Node3&#45;&gt;Node4</title>
<path fill="none" stroke="midnightblue" d="M422.073,-307.407C433.858,-308.55 446.109,-309.738 457.811,-310.873"/>
<polygon fill="midnightblue" stroke="midnightblue" points="422.153,-303.898 411.861,-306.417 421.477,-310.866 422.153,-303.898"/>
</g>
<!-- Node6 -->
<g id="node6" class="node"><title>Node6</title>
<g id="a_node6"><a xlink:href="classbsc_1_1child__process__pipeline.html" target="_top" xlink:title="bsc::child_process\l_pipeline\&lt; K, R \&gt;">
<polygon fill="white" stroke="black" points="473,-253 473,-283 571,-283 571,-253 473,-253"/>
<text text-anchor="start" x="481" y="-271" font-family="Helvetica,sans-Serif" font-size="10.00">bsc::child_process</text>
<text text-anchor="middle" x="522" y="-260" font-family="Helvetica,sans-Serif" font-size="10.00">_pipeline&lt; K, R &gt;</text>
</a>
</g>
</g>
<!-- Node5&#45;&gt;Node6 -->
<g id="edge5" class="edge"><title>Node5&#45;&gt;Node6</title>
<path fill="none" stroke="midnightblue" d="M421.779,-243.946C438.858,-248.087 456.936,-252.469 472.915,-256.343"/>
<polygon fill="midnightblue" stroke="midnightblue" points="422.405,-240.497 411.861,-241.542 420.755,-247.3 422.405,-240.497"/>
</g>
<!-- Node7 -->
<g id="node7" class="node"><title>Node7</title>
<g id="a_node7"><a xlink:href="classbsc_1_1process__pipeline.html" target="_top" xlink:title="bsc::process_pipeline\l\&lt; K, R \&gt;">
<polygon fill="white" stroke="black" points="466.5,-204 466.5,-234 577.5,-234 577.5,-204 466.5,-204"/>
<text text-anchor="start" x="474.5" y="-222" font-family="Helvetica,sans-Serif" font-size="10.00">bsc::process_pipeline</text>
<text text-anchor="middle" x="522" y="-211" font-family="Helvetica,sans-Serif" font-size="10.00">&lt; K, R &gt;</text>
</a>
</g>
</g>
<!-- Node5&#45;&gt;Node7 -->
<g id="edge6" class="edge"><title>Node5&#45;&gt;Node7</title>
<path fill="none" stroke="midnightblue" d="M421.914,-224.405C436.64,-223.601 452.102,-222.758 466.315,-221.983"/>
<polygon fill="midnightblue" stroke="midnightblue" points="421.656,-220.913 411.861,-224.953 422.037,-227.903 421.656,-220.913"/>
</g>
<!-- Node9 -->
<g id="node9" class="node"><title>Node9</title>
<g id="a_node9"><a xlink:href="classbsc_1_1child__process__pipeline.html" target="_top" xlink:title="bsc::child_process\l_pipeline\&lt; T, basic\l_router\&lt; T \&gt; \&gt;">
<polygon fill="white" stroke="black" points="472.5,-144.5 472.5,-185.5 571.5,-185.5 571.5,-144.5 472.5,-144.5"/>
<text text-anchor="start" x="480.5" y="-173.5" font-family="Helvetica,sans-Serif" font-size="10.00">bsc::child_process</text>
<text text-anchor="start" x="480.5" y="-162.5" font-family="Helvetica,sans-Serif" font-size="10.00">_pipeline&lt; T, basic</text>
<text text-anchor="middle" x="522" y="-151.5" font-family="Helvetica,sans-Serif" font-size="10.00">_router&lt; T &gt; &gt;</text>
</a>
</g>
</g>
<!-- Node8&#45;&gt;Node9 -->
<g id="edge8" class="edge"><title>Node8&#45;&gt;Node9</title>
<path fill="none" stroke="midnightblue" d="M432.079,-166.617C445.762,-166.368 459.682,-166.115 472.321,-165.885"/>
<polygon fill="midnightblue" stroke="midnightblue" points="431.621,-163.124 421.686,-166.806 431.748,-170.123 431.621,-163.124"/>
</g>
<!-- Node11 -->
<g id="node11" class="node"><title>Node11</title>
<g id="a_node11"><a xlink:href="classbsc_1_1socket__pipeline.html" target="_top" xlink:title="bsc::socket_pipeline\l\&lt; T, Socket, Router \&gt;">
<polygon fill="white" stroke="black" points="465.5,-93 465.5,-123 578.5,-123 578.5,-93 465.5,-93"/>
<text text-anchor="start" x="473.5" y="-111" font-family="Helvetica,sans-Serif" font-size="10.00">bsc::socket_pipeline</text>
<text text-anchor="middle" x="522" y="-100" font-family="Helvetica,sans-Serif" font-size="10.00">&lt; T, Socket, Router &gt;</text>
</a>
</g>
</g>
<!-- Node10&#45;&gt;Node11 -->
<g id="edge10" class="edge"><title>Node10&#45;&gt;Node11</title>
<path fill="none" stroke="midnightblue" d="M422.555,-108C436.803,-108 451.712,-108 465.491,-108"/>
<polygon fill="midnightblue" stroke="midnightblue" points="422.322,-104.5 412.322,-108 422.322,-111.5 422.322,-104.5"/>
</g>
</g>
</svg>
