<?xml version="1.0" encoding="UTF-8" standalone="no"?>
<!DOCTYPE svg PUBLIC "-//W3C//DTD SVG 1.1//EN"
 "http://www.w3.org/Graphics/SVG/1.1/DTD/svg11.dtd">
<!-- Generated by graphviz version 2.36.0 (20140111.2315)
 -->
<!-- Title: bsc::socket_pipeline&lt; T, Socket, Router &gt; Pages: 1 -->
<svg width="158pt" height="252pt"
 viewBox="0.00 0.00 158.00 252.00" xmlns="http://www.w3.org/2000/svg" xmlns:xlink="http://www.w3.org/1999/xlink">
<g id="graph0" class="graph" transform="scale(1 1) rotate(0) translate(4 248)">
<title>bsc::socket_pipeline&lt; T, Socket, Router &gt;</title>
<polygon fill="white" stroke="none" points="-4,4 -4,-248 154,-248 154,4 -4,4"/>
<!-- Node1 -->
<g id="node1" class="node"><title>Node1</title>
<polygon fill="#bfbfbf" stroke="black" points="18.5,-1 18.5,-31 131.5,-31 131.5,-1 18.5,-1"/>
<text text-anchor="start" x="26.5" y="-19" font-family="Helvetica,sans-Serif" font-size="10.00">bsc::socket_pipeline</text>
<text text-anchor="middle" x="75" y="-8" font-family="Helvetica,sans-Serif" font-size="10.00">&lt; T, Socket, Router &gt;</text>
</g>
<!-- Node2 -->
<g id="node2" class="node"><title>Node2</title>
<g id="a_node2"><a xlink:href="classbsc_1_1basic__socket__pipeline.html" target="_top" xlink:title="bsc::basic_socket_pipeline\l\&lt; T, remote_client\&lt; T, Socket,\l Router \&gt; \&gt;">
<polygon fill="white" stroke="black" points="-0.5,-68.5 -0.5,-109.5 150.5,-109.5 150.5,-68.5 -0.5,-68.5"/>
<text text-anchor="start" x="7.5" y="-97.5" font-family="Helvetica,sans-Serif" font-size="10.00">bsc::basic_socket_pipeline</text>
<text text-anchor="start" x="7.5" y="-86.5" font-family="Helvetica,sans-Serif" font-size="10.00">&lt; T, remote_client&lt; T, Socket,</text>
<text text-anchor="middle" x="75" y="-75.5" font-family="Helvetica,sans-Serif" font-size="10.00"> Router &gt; &gt;</text>
</a>
</g>
</g>
<!-- Node2&#45;&gt;Node1 -->
<g id="edge1" class="edge"><title>Node2&#45;&gt;Node1</title>
<path fill="none" stroke="midnightblue" d="M75,-58.0188C75,-48.6567 75,-38.7696 75,-31.0485"/>
<polygon fill="midnightblue" stroke="midnightblue" points="71.5001,-58.2225 75,-68.2225 78.5001,-58.2226 71.5001,-58.2225"/>
</g>
<!-- Node3 -->
<g id="node3" class="node"><title>Node3</title>
<g id="a_node3"><a xlink:href="classbsc_1_1basic__pipeline.html" target="_top" xlink:title="Proxy_pipeline_base\l\&lt; T, remote_client\&lt;\l T, Socket, Router \&gt; &#160;\&gt;">
<polygon fill="white" stroke="black" points="17,-146.5 17,-187.5 133,-187.5 133,-146.5 17,-146.5"/>
<text text-anchor="start" x="25" y="-175.5" font-family="Helvetica,sans-Serif" font-size="10.00">Proxy_pipeline_base</text>
<text text-anchor="start" x="25" y="-164.5" font-family="Helvetica,sans-Serif" font-size="10.00">&lt; T, remote_client&lt;</text>
<text text-anchor="middle" x="75" y="-153.5" font-family="Helvetica,sans-Serif" font-size="10.00"> T, Socket, Router &gt; &gt;</text>
</a>
</g>
</g>
<!-- Node3&#45;&gt;Node2 -->
<g id="edge2" class="edge"><title>Node3&#45;&gt;Node2</title>
<path fill="none" stroke="midnightblue" d="M75,-136.297C75,-127.301 75,-117.653 75,-109.506"/>
<polygon fill="midnightblue" stroke="midnightblue" points="71.5001,-136.428 75,-146.428 78.5001,-136.428 71.5001,-136.428"/>
</g>
<!-- Node4 -->
<g id="node4" class="node"><title>Node4</title>
<g id="a_node4"><a xlink:href="classbsc_1_1pipeline__base.html" target="_top" xlink:title="bsc::pipeline_base">
<polygon fill="white" stroke="black" points="26,-224.5 26,-243.5 124,-243.5 124,-224.5 26,-224.5"/>
<text text-anchor="middle" x="75" y="-231.5" font-family="Helvetica,sans-Serif" font-size="10.00">bsc::pipeline_base</text>
</a>
</g>
</g>
<!-- Node4&#45;&gt;Node3 -->
<g id="edge3" class="edge"><title>Node4&#45;&gt;Node3</title>
<path fill="none" stroke="midnightblue" d="M75,-214.037C75,-205.708 75,-195.936 75,-187.542"/>
<polygon fill="midnightblue" stroke="midnightblue" points="71.5001,-214.234 75,-224.234 78.5001,-214.234 71.5001,-214.234"/>
</g>
</g>
</svg>
