<?xml version="1.0" encoding="UTF-8" standalone="no"?>
<!DOCTYPE svg PUBLIC "-//W3C//DTD SVG 1.1//EN"
 "http://www.w3.org/Graphics/SVG/1.1/DTD/svg11.dtd">
<!-- Generated by graphviz version 2.36.0 (20140111.2315)
 -->
<!-- Title: asc::child_process_pipeline&lt; K, R &gt; Pages: 1 -->
<svg width="164pt" height="242pt"
 viewBox="0.00 0.00 164.00 242.00" xmlns="http://www.w3.org/2000/svg" xmlns:xlink="http://www.w3.org/1999/xlink">
<g id="graph0" class="graph" transform="scale(1 1) rotate(0) translate(4 238)">
<title>asc::child_process_pipeline&lt; K, R &gt;</title>
<polygon fill="white" stroke="none" points="-4,4 -4,-238 160,-238 160,4 -4,4"/>
<!-- Node1 -->
<g id="node1" class="node"><title>Node1</title>
<polygon fill="#bfbfbf" stroke="black" points="29,-1 29,-31 127,-31 127,-1 29,-1"/>
<text text-anchor="start" x="37" y="-19" font-family="Helvetica,sans-Serif" font-size="10.00">asc::child_process</text>
<text text-anchor="middle" x="78" y="-8" font-family="Helvetica,sans-Serif" font-size="10.00">_pipeline&lt; K, R &gt;</text>
</g>
<!-- Node2 -->
<g id="node2" class="node"><title>Node2</title>
<g id="a_node2"><a xlink:href="structasc_1_1basic__socket__pipeline.html" target="_top" xlink:title="asc::basic_socket_pipeline\l\&lt; K, process_handler\&lt; K, R \&gt; \&gt;">
<polygon fill="white" stroke="black" points="-0.5,-69 -0.5,-99 156.5,-99 156.5,-69 -0.5,-69"/>
<text text-anchor="start" x="7.5" y="-87" font-family="Helvetica,sans-Serif" font-size="10.00">asc::basic_socket_pipeline</text>
<text text-anchor="middle" x="78" y="-76" font-family="Helvetica,sans-Serif" font-size="10.00">&lt; K, process_handler&lt; K, R &gt; &gt;</text>
</a>
</g>
</g>
<!-- Node2&#45;&gt;Node1 -->
<g id="edge1" class="edge"><title>Node2&#45;&gt;Node1</title>
<path fill="none" stroke="midnightblue" d="M78,-58.5322C78,-49.3606 78,-39.2449 78,-31.2931"/>
<polygon fill="midnightblue" stroke="midnightblue" points="74.5001,-58.6789 78,-68.679 81.5001,-58.679 74.5001,-58.6789"/>
</g>
<!-- Node3 -->
<g id="node3" class="node"><title>Node3</title>
<g id="a_node3"><a xlink:href="classasc_1_1basic__pipeline.html" target="_top" xlink:title="Proxy_pipeline_base\l\&lt; K , process_handler\l\&lt; K, R \&gt; &#160;\&gt;">
<polygon fill="white" stroke="black" points="21.5,-136.5 21.5,-177.5 134.5,-177.5 134.5,-136.5 21.5,-136.5"/>
<text text-anchor="start" x="29.5" y="-165.5" font-family="Helvetica,sans-Serif" font-size="10.00">Proxy_pipeline_base</text>
<text text-anchor="start" x="29.5" y="-154.5" font-family="Helvetica,sans-Serif" font-size="10.00">&lt; K , process_handler</text>
<text text-anchor="middle" x="78" y="-143.5" font-family="Helvetica,sans-Serif" font-size="10.00">&lt; K, R &gt; &gt;</text>
</a>
</g>
</g>
<!-- Node3&#45;&gt;Node2 -->
<g id="edge2" class="edge"><title>Node3&#45;&gt;Node2</title>
<path fill="none" stroke="midnightblue" d="M78,-126.019C78,-116.657 78,-106.77 78,-99.0485"/>
<polygon fill="midnightblue" stroke="midnightblue" points="74.5001,-126.223 78,-136.223 81.5001,-126.223 74.5001,-126.223"/>
</g>
<!-- Node4 -->
<g id="node4" class="node"><title>Node4</title>
<g id="a_node4"><a xlink:href="classasc_1_1pipeline__base.html" target="_top" xlink:title="asc::pipeline_base">
<polygon fill="white" stroke="black" points="29,-214.5 29,-233.5 127,-233.5 127,-214.5 29,-214.5"/>
<text text-anchor="middle" x="78" y="-221.5" font-family="Helvetica,sans-Serif" font-size="10.00">asc::pipeline_base</text>
</a>
</g>
</g>
<!-- Node4&#45;&gt;Node3 -->
<g id="edge3" class="edge"><title>Node4&#45;&gt;Node3</title>
<path fill="none" stroke="midnightblue" d="M78,-204.037C78,-195.708 78,-185.936 78,-177.542"/>
<polygon fill="midnightblue" stroke="midnightblue" points="74.5001,-204.234 78,-214.234 81.5001,-204.234 74.5001,-204.234"/>
</g>
</g>
</svg>
