<?xml version="1.0" encoding="UTF-8" standalone="no"?>
<!DOCTYPE svg PUBLIC "-//W3C//DTD SVG 1.1//EN"
 "http://www.w3.org/Graphics/SVG/1.1/DTD/svg11.dtd">
<!-- Generated by graphviz version 2.36.0 (20140111.2315)
 -->
<!-- Title: bsc::basic_pipeline&lt; T, Kernels, Traits, Threads, Mutex, Lock, Semaphore &gt; Pages: 1 -->
<svg width="618pt" height="237pt"
 viewBox="0.00 0.00 618.00 237.00" xmlns="http://www.w3.org/2000/svg" xmlns:xlink="http://www.w3.org/1999/xlink">
<g id="graph0" class="graph" transform="scale(1 1) rotate(0) translate(4 233)">
<title>bsc::basic_pipeline&lt; T, Kernels, Traits, Threads, Mutex, Lock, Semaphore &gt;</title>
<polygon fill="white" stroke="none" points="-4,4 -4,-233 614,-233 614,4 -4,4"/>
<!-- Node1 -->
<g id="node1" class="node"><title>Node1</title>
<polygon fill="#bfbfbf" stroke="black" points="134,-22 134,-74 252,-74 252,-22 134,-22"/>
<text text-anchor="start" x="142" y="-62" font-family="Helvetica,sans-Serif" font-size="10.00">bsc::basic_pipeline</text>
<text text-anchor="start" x="142" y="-51" font-family="Helvetica,sans-Serif" font-size="10.00">&lt; T, Kernels, Traits,</text>
<text text-anchor="start" x="142" y="-40" font-family="Helvetica,sans-Serif" font-size="10.00"> Threads, Mutex, Lock,</text>
<text text-anchor="middle" x="193" y="-29" font-family="Helvetica,sans-Serif" font-size="10.00"> Semaphore &gt;</text>
</g>
<!-- Node3 -->
<g id="node3" class="node"><title>Node3</title>
<g id="a_node3"><a xlink:href="classbsc_1_1basic__socket__pipeline.html" target="_top" xlink:title="basic_socket_pipeline\&lt; K \&gt;">
<polygon fill="white" stroke="black" points="298.5,-106.5 298.5,-125.5 435.5,-125.5 435.5,-106.5 298.5,-106.5"/>
<text text-anchor="middle" x="367" y="-113.5" font-family="Helvetica,sans-Serif" font-size="10.00">basic_socket_pipeline&lt; K &gt;</text>
</a>
</g>
</g>
<!-- Node1&#45;&gt;Node3 -->
<g id="edge2" class="edge"><title>Node1&#45;&gt;Node3</title>
<path fill="none" stroke="midnightblue" d="M261.699,-74.7648C289.986,-85.9478 321.042,-98.2258 341.846,-106.451"/>
<polygon fill="midnightblue" stroke="midnightblue" points="262.818,-71.4435 252.231,-71.0217 260.244,-77.9532 262.818,-71.4435"/>
</g>
<!-- Node8 -->
<g id="node8" class="node"><title>Node8</title>
<g id="a_node8"><a xlink:href="classbsc_1_1basic__socket__pipeline.html" target="_top" xlink:title="bsc::basic_socket_pipeline\&lt; T \&gt;">
<polygon fill="white" stroke="black" points="288,-38.5 288,-57.5 446,-57.5 446,-38.5 288,-38.5"/>
<text text-anchor="middle" x="367" y="-45.5" font-family="Helvetica,sans-Serif" font-size="10.00">bsc::basic_socket_pipeline&lt; T &gt;</text>
</a>
</g>
</g>
<!-- Node1&#45;&gt;Node8 -->
<g id="edge7" class="edge"><title>Node1&#45;&gt;Node8</title>
<path fill="none" stroke="midnightblue" d="M262.28,-48C270.631,-48 279.215,-48 287.699,-48"/>
<polygon fill="midnightblue" stroke="midnightblue" points="262.231,-44.5001 252.231,-48 262.231,-51.5001 262.231,-44.5001"/>
</g>
<!-- Node10 -->
<g id="node10" class="node"><title>Node10</title>
<g id="a_node10"><a xlink:href="structbsc_1_1timer__pipeline.html" target="_top" xlink:title="bsc::timer_pipeline\&lt; T \&gt;">
<polygon fill="white" stroke="black" points="306,-0.5 306,-19.5 428,-19.5 428,-0.5 306,-0.5"/>
<text text-anchor="middle" x="367" y="-7.5" font-family="Helvetica,sans-Serif" font-size="10.00">bsc::timer_pipeline&lt; T &gt;</text>
</a>
</g>
</g>
<!-- Node1&#45;&gt;Node10 -->
<g id="edge9" class="edge"><title>Node1&#45;&gt;Node10</title>
<path fill="none" stroke="midnightblue" d="M262.132,-32.9476C282.574,-28.4314 304.424,-23.6039 322.784,-19.5476"/>
<polygon fill="midnightblue" stroke="midnightblue" points="261.241,-29.56 252.231,-35.1349 262.751,-36.3952 261.241,-29.56"/>
</g>
<!-- Node2 -->
<g id="node2" class="node"><title>Node2</title>
<g id="a_node2"><a xlink:href="classbsc_1_1pipeline__base.html" target="_top" xlink:title="bsc::pipeline_base">
<polygon fill="white" stroke="black" points="0,-38.5 0,-57.5 98,-57.5 98,-38.5 0,-38.5"/>
<text text-anchor="middle" x="49" y="-45.5" font-family="Helvetica,sans-Serif" font-size="10.00">bsc::pipeline_base</text>
</a>
</g>
</g>
<!-- Node2&#45;&gt;Node1 -->
<g id="edge1" class="edge"><title>Node2&#45;&gt;Node1</title>
<path fill="none" stroke="midnightblue" d="M108.244,-48C116.711,-48 125.427,-48 133.891,-48"/>
<polygon fill="midnightblue" stroke="midnightblue" points="108.075,-44.5001 98.0747,-48 108.075,-51.5001 108.075,-44.5001"/>
</g>
<!-- Node4 -->
<g id="node4" class="node"><title>Node4</title>
<g id="a_node4"><a xlink:href="classbsc_1_1child__process__pipeline.html" target="_top" xlink:title="bsc::child_process\l_pipeline\&lt; K, R \&gt;">
<polygon fill="white" stroke="black" points="497,-199 497,-229 595,-229 595,-199 497,-199"/>
<text text-anchor="start" x="505" y="-217" font-family="Helvetica,sans-Serif" font-size="10.00">bsc::child_process</text>
<text text-anchor="middle" x="546" y="-206" font-family="Helvetica,sans-Serif" font-size="10.00">_pipeline&lt; K, R &gt;</text>
</a>
</g>
</g>
<!-- Node3&#45;&gt;Node4 -->
<g id="edge3" class="edge"><title>Node3&#45;&gt;Node4</title>
<path fill="none" stroke="midnightblue" d="M389.601,-131.614C411.992,-147.365 448.362,-171.757 482,-189 488.911,-192.543 496.446,-195.92 503.824,-198.983"/>
<polygon fill="midnightblue" stroke="midnightblue" points="391.366,-128.574 381.186,-125.637 387.312,-134.281 391.366,-128.574"/>
</g>
<!-- Node5 -->
<g id="node5" class="node"><title>Node5</title>
<g id="a_node5"><a xlink:href="classbsc_1_1process__pipeline.html" target="_top" xlink:title="bsc::process_pipeline\l\&lt; K, R \&gt;">
<polygon fill="white" stroke="black" points="490.5,-150 490.5,-180 601.5,-180 601.5,-150 490.5,-150"/>
<text text-anchor="start" x="498.5" y="-168" font-family="Helvetica,sans-Serif" font-size="10.00">bsc::process_pipeline</text>
<text text-anchor="middle" x="546" y="-157" font-family="Helvetica,sans-Serif" font-size="10.00">&lt; K, R &gt;</text>
</a>
</g>
</g>
<!-- Node3&#45;&gt;Node5 -->
<g id="edge4" class="edge"><title>Node3&#45;&gt;Node5</title>
<path fill="none" stroke="midnightblue" d="M412.35,-128.278C436.104,-134.854 465.564,-143.009 490.683,-149.963"/>
<polygon fill="midnightblue" stroke="midnightblue" points="413.119,-124.859 402.548,-125.564 411.251,-131.605 413.119,-124.859"/>
</g>
<!-- Node6 -->
<g id="node6" class="node"><title>Node6</title>
<g id="a_node6"><a xlink:href="classbsc_1_1socket__pipeline.html" target="_top" xlink:title="bsc::socket_pipeline\l\&lt; K, S, R \&gt;">
<polygon fill="white" stroke="black" points="493,-101 493,-131 599,-131 599,-101 493,-101"/>
<text text-anchor="start" x="501" y="-119" font-family="Helvetica,sans-Serif" font-size="10.00">bsc::socket_pipeline</text>
<text text-anchor="middle" x="546" y="-108" font-family="Helvetica,sans-Serif" font-size="10.00">&lt; K, S, R &gt;</text>
</a>
</g>
</g>
<!-- Node3&#45;&gt;Node6 -->
<g id="edge5" class="edge"><title>Node3&#45;&gt;Node6</title>
<path fill="none" stroke="midnightblue" d="M445.989,-116C461.818,-116 478.103,-116 492.778,-116"/>
<polygon fill="midnightblue" stroke="midnightblue" points="445.674,-112.5 435.674,-116 445.674,-119.5 445.674,-112.5"/>
</g>
<!-- Node7 -->
<g id="node7" class="node"><title>Node7</title>
<g id="a_node7"><a xlink:href="classbsc_1_1unix__domain__socket__pipeline.html" target="_top" xlink:title="bsc::unix_domain_socket\l_pipeline\&lt; K, R \&gt;">
<polygon fill="white" stroke="black" points="482,-52 482,-82 610,-82 610,-52 482,-52"/>
<text text-anchor="start" x="490" y="-70" font-family="Helvetica,sans-Serif" font-size="10.00">bsc::unix_domain_socket</text>
<text text-anchor="middle" x="546" y="-59" font-family="Helvetica,sans-Serif" font-size="10.00">_pipeline&lt; K, R &gt;</text>
</a>
</g>
</g>
<!-- Node3&#45;&gt;Node7 -->
<g id="edge6" class="edge"><title>Node3&#45;&gt;Node7</title>
<path fill="none" stroke="midnightblue" d="M412.35,-103.722C436.104,-97.1463 465.564,-88.9908 490.683,-82.037"/>
<polygon fill="midnightblue" stroke="midnightblue" points="411.251,-100.395 402.548,-106.436 413.119,-107.141 411.251,-100.395"/>
</g>
<!-- Node9 -->
<g id="node9" class="node"><title>Node9</title>
<g id="a_node9"><a xlink:href="classbsc_1_1child__process__pipeline.html" target="_top" xlink:title="child_process_pipeline\l\&lt; T, basic_router\&lt; T \&gt; \&gt;">
<polygon fill="white" stroke="black" points="484,-3 484,-33 608,-33 608,-3 484,-3"/>
<text text-anchor="start" x="492" y="-21" font-family="Helvetica,sans-Serif" font-size="10.00">child_process_pipeline</text>
<text text-anchor="middle" x="546" y="-10" font-family="Helvetica,sans-Serif" font-size="10.00">&lt; T, basic_router&lt; T &gt; &gt;</text>
</a>
</g>
</g>
<!-- Node8&#45;&gt;Node9 -->
<g id="edge8" class="edge"><title>Node8&#45;&gt;Node9</title>
<path fill="none" stroke="midnightblue" d="M434.425,-36.7416C450.632,-33.9946 467.895,-31.0687 483.844,-28.3655"/>
<polygon fill="midnightblue" stroke="midnightblue" points="433.765,-33.3034 424.491,-38.4253 434.935,-40.205 433.765,-33.3034"/>
</g>
</g>
</svg>
