<?xml version="1.0" encoding="UTF-8" standalone="no"?>
<!DOCTYPE svg PUBLIC "-//W3C//DTD SVG 1.1//EN"
 "http://www.w3.org/Graphics/SVG/1.1/DTD/svg11.dtd">
<!-- Generated by graphviz version 2.36.0 (20140111.2315)
 -->
<!-- Title: bsc::basic_handler Pages: 1 -->
<svg width="400pt" height="234pt"
 viewBox="0.00 0.00 400.00 234.00" xmlns="http://www.w3.org/2000/svg" xmlns:xlink="http://www.w3.org/1999/xlink">
<g id="graph0" class="graph" transform="scale(1 1) rotate(0) translate(4 230)">
<title>bsc::basic_handler</title>
<polygon fill="white" stroke="none" points="-4,4 -4,-230 396,-230 396,4 -4,4"/>
<!-- Node1 -->
<g id="node1" class="node"><title>Node1</title>
<polygon fill="#bfbfbf" stroke="black" points="134,-103.5 134,-122.5 232,-122.5 232,-103.5 134,-103.5"/>
<text text-anchor="middle" x="183" y="-110.5" font-family="Helvetica,sans-Serif" font-size="10.00">bsc::basic_handler</text>
</g>
<!-- Node3 -->
<g id="node3" class="node"><title>Node3</title>
<g id="a_node3"><a xlink:href="classbsc_1_1local__server.html" target="_top" xlink:title="bsc::local_server\&lt;\l K, S, R \&gt;">
<polygon fill="white" stroke="black" points="281.5,-196 281.5,-226 378.5,-226 378.5,-196 281.5,-196"/>
<text text-anchor="start" x="289.5" y="-214" font-family="Helvetica,sans-Serif" font-size="10.00">bsc::local_server&lt;</text>
<text text-anchor="middle" x="330" y="-203" font-family="Helvetica,sans-Serif" font-size="10.00"> K, S, R &gt;</text>
</a>
</g>
</g>
<!-- Node1&#45;&gt;Node3 -->
<g id="edge2" class="edge"><title>Node1&#45;&gt;Node3</title>
<path fill="none" stroke="midnightblue" d="M200.041,-129.825C216.063,-145.895 241.99,-169.974 268,-186 273.944,-189.662 280.519,-192.999 287.086,-195.957"/>
<polygon fill="midnightblue" stroke="midnightblue" points="202.511,-127.345 193.014,-122.65 197.51,-132.243 202.511,-127.345"/>
</g>
<!-- Node4 -->
<g id="node4" class="node"><title>Node4</title>
<g id="a_node4"><a xlink:href="classbsc_1_1process__handler.html" target="_top" xlink:title="bsc::process_handler\l\&lt; K, R \&gt;">
<polygon fill="white" stroke="black" points="275,-147 275,-177 385,-177 385,-147 275,-147"/>
<text text-anchor="start" x="283" y="-165" font-family="Helvetica,sans-Serif" font-size="10.00">bsc::process_handler</text>
<text text-anchor="middle" x="330" y="-154" font-family="Helvetica,sans-Serif" font-size="10.00">&lt; K, R &gt;</text>
</a>
</g>
</g>
<!-- Node1&#45;&gt;Node4 -->
<g id="edge3" class="edge"><title>Node1&#45;&gt;Node4</title>
<path fill="none" stroke="midnightblue" d="M221.905,-125.809C241.082,-132.29 264.476,-140.195 284.503,-146.963"/>
<polygon fill="midnightblue" stroke="midnightblue" points="222.896,-122.45 212.302,-122.564 220.655,-129.081 222.896,-122.45"/>
</g>
<!-- Node5 -->
<g id="node5" class="node"><title>Node5</title>
<g id="a_node5"><a xlink:href="classbsc_1_1remote__client.html" target="_top" xlink:title="bsc::remote_client\l\&lt; K, S, R \&gt;">
<polygon fill="white" stroke="black" points="281.5,-98 281.5,-128 378.5,-128 378.5,-98 281.5,-98"/>
<text text-anchor="start" x="289.5" y="-116" font-family="Helvetica,sans-Serif" font-size="10.00">bsc::remote_client</text>
<text text-anchor="middle" x="330" y="-105" font-family="Helvetica,sans-Serif" font-size="10.00">&lt; K, S, R &gt;</text>
</a>
</g>
</g>
<!-- Node1&#45;&gt;Node5 -->
<g id="edge4" class="edge"><title>Node1&#45;&gt;Node5</title>
<path fill="none" stroke="midnightblue" d="M242.491,-113C255.427,-113 268.981,-113 281.421,-113"/>
<polygon fill="midnightblue" stroke="midnightblue" points="242.283,-109.5 232.283,-113 242.283,-116.5 242.283,-109.5"/>
</g>
<!-- Node6 -->
<g id="node6" class="node"><title>Node6</title>
<g id="a_node6"><a xlink:href="classbsc_1_1unix__socket__client.html" target="_top" xlink:title="bsc::unix_socket_client\l\&lt; K, R \&gt;">
<polygon fill="white" stroke="black" points="270.5,-49 270.5,-79 389.5,-79 389.5,-49 270.5,-49"/>
<text text-anchor="start" x="278.5" y="-67" font-family="Helvetica,sans-Serif" font-size="10.00">bsc::unix_socket_client</text>
<text text-anchor="middle" x="330" y="-56" font-family="Helvetica,sans-Serif" font-size="10.00">&lt; K, R &gt;</text>
</a>
</g>
</g>
<!-- Node1&#45;&gt;Node6 -->
<g id="edge5" class="edge"><title>Node1&#45;&gt;Node6</title>
<path fill="none" stroke="midnightblue" d="M221.905,-100.191C241.082,-93.7103 264.476,-85.8045 284.503,-79.037"/>
<polygon fill="midnightblue" stroke="midnightblue" points="220.655,-96.9187 212.302,-103.436 222.896,-103.55 220.655,-96.9187"/>
</g>
<!-- Node7 -->
<g id="node7" class="node"><title>Node7</title>
<g id="a_node7"><a xlink:href="classbsc_1_1unix__socket__server.html" target="_top" xlink:title="bsc::unix_socket_server\l\&lt; K, R \&gt;">
<polygon fill="white" stroke="black" points="268.5,-0 268.5,-30 391.5,-30 391.5,-0 268.5,-0"/>
<text text-anchor="start" x="276.5" y="-18" font-family="Helvetica,sans-Serif" font-size="10.00">bsc::unix_socket_server</text>
<text text-anchor="middle" x="330" y="-7" font-family="Helvetica,sans-Serif" font-size="10.00">&lt; K, R &gt;</text>
</a>
</g>
</g>
<!-- Node1&#45;&gt;Node7 -->
<g id="edge6" class="edge"><title>Node1&#45;&gt;Node7</title>
<path fill="none" stroke="midnightblue" d="M199.947,-95.8477C215.9,-79.4856 241.777,-55.0242 268,-39 273.341,-35.7363 279.203,-32.7672 285.115,-30.1167"/>
<polygon fill="midnightblue" stroke="midnightblue" points="197.338,-93.5115 192.955,-103.157 202.397,-98.3505 197.338,-93.5115"/>
</g>
<!-- Node2 -->
<g id="node2" class="node"><title>Node2</title>
<g id="a_node2"><a xlink:href="classbsc_1_1pipeline__base.html" target="_top" xlink:title="bsc::pipeline_base">
<polygon fill="white" stroke="black" points="0,-103.5 0,-122.5 98,-122.5 98,-103.5 0,-103.5"/>
<text text-anchor="middle" x="49" y="-110.5" font-family="Helvetica,sans-Serif" font-size="10.00">bsc::pipeline_base</text>
</a>
</g>
</g>
<!-- Node2&#45;&gt;Node1 -->
<g id="edge1" class="edge"><title>Node2&#45;&gt;Node1</title>
<path fill="none" stroke="midnightblue" d="M108.292,-113C116.809,-113 125.5,-113 133.786,-113"/>
<polygon fill="midnightblue" stroke="midnightblue" points="108.028,-109.5 98.0284,-113 108.028,-116.5 108.028,-109.5"/>
</g>
</g>
</svg>
