<?xml version="1.0" encoding="UTF-8" standalone="no"?>
<!DOCTYPE svg PUBLIC "-//W3C//DTD SVG 1.1//EN"
 "http://www.w3.org/Graphics/SVG/1.1/DTD/svg11.dtd">
<!-- Generated by graphviz version 2.36.0 (20140111.2315)
 -->
<!-- Title: factory::basic_pipeline&lt; T, Kernels, Traits, Threads, Mutex, Lock, Semaphore &gt; Pages: 1 -->
<svg width="610pt" height="345pt"
 viewBox="0.00 0.00 610.00 345.00" xmlns="http://www.w3.org/2000/svg" xmlns:xlink="http://www.w3.org/1999/xlink">
<g id="graph0" class="graph" transform="scale(1 1) rotate(0) translate(4 341)">
<title>factory::basic_pipeline&lt; T, Kernels, Traits, Threads, Mutex, Lock, Semaphore &gt;</title>
<polygon fill="white" stroke="none" points="-4,4 -4,-341 606,-341 606,4 -4,4"/>
<!-- Node1 -->
<g id="node1" class="node"><title>Node1</title>
<polygon fill="#bfbfbf" stroke="black" points="148,-121 148,-173 266,-173 266,-121 148,-121"/>
<text text-anchor="start" x="156" y="-161" font-family="Helvetica,sans-Serif" font-size="10.00">factory::basic_pipeline</text>
<text text-anchor="start" x="156" y="-150" font-family="Helvetica,sans-Serif" font-size="10.00">&lt; T, Kernels, Traits,</text>
<text text-anchor="start" x="156" y="-139" font-family="Helvetica,sans-Serif" font-size="10.00"> Threads, Mutex, Lock,</text>
<text text-anchor="middle" x="207" y="-128" font-family="Helvetica,sans-Serif" font-size="10.00"> Semaphore &gt;</text>
</g>
<!-- Node3 -->
<g id="node3" class="node"><title>Node3</title>
<g id="a_node3"><a xlink:href="structfactory_1_1basic__socket__pipeline.html" target="_top" xlink:title="basic_socket_pipeline\l\&lt; T, process_handler\l\&lt; T, basic_router\&lt; T \&gt; \&gt; \&gt;">
<polygon fill="white" stroke="black" points="304.5,-286.5 304.5,-327.5 437.5,-327.5 437.5,-286.5 304.5,-286.5"/>
<text text-anchor="start" x="312.5" y="-315.5" font-family="Helvetica,sans-Serif" font-size="10.00">basic_socket_pipeline</text>
<text text-anchor="start" x="312.5" y="-304.5" font-family="Helvetica,sans-Serif" font-size="10.00">&lt; T, process_handler</text>
<text text-anchor="middle" x="371" y="-293.5" font-family="Helvetica,sans-Serif" font-size="10.00">&lt; T, basic_router&lt; T &gt; &gt; &gt;</text>
</a>
</g>
</g>
<!-- Node1&#45;&gt;Node3 -->
<g id="edge2" class="edge"><title>Node1&#45;&gt;Node3</title>
<path fill="none" stroke="midnightblue" d="M229.262,-181.824C246.516,-208.069 272.718,-243.732 302,-269 309.474,-275.45 318.215,-281.311 326.893,-286.395"/>
<polygon fill="midnightblue" stroke="midnightblue" points="232.13,-179.813 223.762,-173.314 226.25,-183.612 232.13,-179.813"/>
</g>
<!-- Node5 -->
<g id="node5" class="node"><title>Node5</title>
<g id="a_node5"><a xlink:href="structfactory_1_1basic__socket__pipeline.html" target="_top" xlink:title="basic_socket_pipeline\l\&lt; T, process_handler\l\&lt; T, Router \&gt; \&gt;">
<polygon fill="white" stroke="black" points="314.5,-219.5 314.5,-260.5 427.5,-260.5 427.5,-219.5 314.5,-219.5"/>
<text text-anchor="start" x="322.5" y="-248.5" font-family="Helvetica,sans-Serif" font-size="10.00">basic_socket_pipeline</text>
<text text-anchor="start" x="322.5" y="-237.5" font-family="Helvetica,sans-Serif" font-size="10.00">&lt; T, process_handler</text>
<text text-anchor="middle" x="371" y="-226.5" font-family="Helvetica,sans-Serif" font-size="10.00">&lt; T, Router &gt; &gt;</text>
</a>
</g>
</g>
<!-- Node1&#45;&gt;Node5 -->
<g id="edge4" class="edge"><title>Node1&#45;&gt;Node5</title>
<path fill="none" stroke="midnightblue" d="M253.349,-178.958C268.508,-189.084 285.699,-199.98 302,-209 308.471,-212.581 315.431,-216.104 322.343,-219.417"/>
<polygon fill="midnightblue" stroke="midnightblue" points="254.927,-175.801 244.681,-173.106 251.01,-181.602 254.927,-175.801"/>
</g>
<!-- Node8 -->
<g id="node8" class="node"><title>Node8</title>
<g id="a_node8"><a xlink:href="structfactory_1_1basic__socket__pipeline.html" target="_top" xlink:title="basic_socket_pipeline\l\&lt; T, remote_client\&lt; T,\l Socket, Router \&gt; \&gt;">
<polygon fill="white" stroke="black" points="314,-159.5 314,-200.5 428,-200.5 428,-159.5 314,-159.5"/>
<text text-anchor="start" x="322" y="-188.5" font-family="Helvetica,sans-Serif" font-size="10.00">basic_socket_pipeline</text>
<text text-anchor="start" x="322" y="-177.5" font-family="Helvetica,sans-Serif" font-size="10.00">&lt; T, remote_client&lt; T,</text>
<text text-anchor="middle" x="371" y="-166.5" font-family="Helvetica,sans-Serif" font-size="10.00"> Socket, Router &gt; &gt;</text>
</a>
</g>
</g>
<!-- Node1&#45;&gt;Node8 -->
<g id="edge7" class="edge"><title>Node1&#45;&gt;Node8</title>
<path fill="none" stroke="midnightblue" d="M275.992,-160.85C288.562,-163.411 301.56,-166.058 313.734,-168.538"/>
<polygon fill="midnightblue" stroke="midnightblue" points="276.526,-157.387 266.028,-158.821 275.128,-164.246 276.526,-157.387"/>
</g>
<!-- Node10 -->
<g id="node10" class="node"><title>Node10</title>
<g id="a_node10"><a xlink:href="structfactory_1_1basic__socket__pipeline.html" target="_top" xlink:title="basic_socket_pipeline\l\&lt; T, remote_client\&lt; T,\l sys::socket, basic_router\l\&lt; T \&gt; \&gt; \&gt;">
<polygon fill="white" stroke="black" points="306,-88 306,-140 436,-140 436,-88 306,-88"/>
<text text-anchor="start" x="314" y="-128" font-family="Helvetica,sans-Serif" font-size="10.00">basic_socket_pipeline</text>
<text text-anchor="start" x="314" y="-117" font-family="Helvetica,sans-Serif" font-size="10.00">&lt; T, remote_client&lt; T,</text>
<text text-anchor="start" x="314" y="-106" font-family="Helvetica,sans-Serif" font-size="10.00"> sys::socket, basic_router</text>
<text text-anchor="middle" x="371" y="-95" font-family="Helvetica,sans-Serif" font-size="10.00">&lt; T &gt; &gt; &gt;</text>
</a>
</g>
</g>
<!-- Node1&#45;&gt;Node10 -->
<g id="edge9" class="edge"><title>Node1&#45;&gt;Node10</title>
<path fill="none" stroke="midnightblue" d="M275.833,-133.182C285.751,-131.162 295.94,-129.086 305.782,-127.081"/>
<polygon fill="midnightblue" stroke="midnightblue" points="275.128,-129.754 266.028,-135.179 276.526,-136.613 275.128,-129.754"/>
</g>
<!-- Node12 -->
<g id="node12" class="node"><title>Node12</title>
<g id="a_node12"><a xlink:href="structfactory_1_1basic__socket__pipeline.html" target="_top" xlink:title="factory::basic_socket\l_pipeline\&lt; T, Handler \&gt;">
<polygon fill="white" stroke="black" points="311.5,-39 311.5,-69 430.5,-69 430.5,-39 311.5,-39"/>
<text text-anchor="start" x="319.5" y="-57" font-family="Helvetica,sans-Serif" font-size="10.00">factory::basic_socket</text>
<text text-anchor="middle" x="371" y="-46" font-family="Helvetica,sans-Serif" font-size="10.00">_pipeline&lt; T, Handler &gt;</text>
</a>
</g>
</g>
<!-- Node1&#45;&gt;Node12 -->
<g id="edge11" class="edge"><title>Node1&#45;&gt;Node12</title>
<path fill="none" stroke="midnightblue" d="M246.865,-114.478C263.177,-101.914 282.796,-88.1507 302,-78 308.198,-74.7238 314.939,-71.7324 321.687,-69.0581"/>
<polygon fill="midnightblue" stroke="midnightblue" points="244.366,-111.989 238.656,-120.913 248.685,-117.498 244.366,-111.989"/>
</g>
<!-- Node13 -->
<g id="node13" class="node"><title>Node13</title>
<g id="a_node13"><a xlink:href="structfactory_1_1timer__pipeline.html" target="_top" xlink:title="factory::timer_pipeline\&lt; T \&gt;">
<polygon fill="white" stroke="black" points="302.5,-0.5 302.5,-19.5 439.5,-19.5 439.5,-0.5 302.5,-0.5"/>
<text text-anchor="middle" x="371" y="-7.5" font-family="Helvetica,sans-Serif" font-size="10.00">factory::timer_pipeline&lt; T &gt;</text>
</a>
</g>
</g>
<!-- Node1&#45;&gt;Node13 -->
<g id="edge12" class="edge"><title>Node1&#45;&gt;Node13</title>
<path fill="none" stroke="midnightblue" d="M227.345,-112.307C243.874,-85.751 270.028,-50.1899 302,-29 307.824,-25.1401 314.426,-22.0572 321.17,-19.5965"/>
<polygon fill="midnightblue" stroke="midnightblue" points="224.306,-110.568 222.114,-120.934 230.292,-114.198 224.306,-110.568"/>
</g>
<!-- Node2 -->
<g id="node2" class="node"><title>Node2</title>
<g id="a_node2"><a xlink:href="structfactory_1_1pipeline__base.html" target="_top" xlink:title="factory::pipeline_base">
<polygon fill="white" stroke="black" points="0,-137.5 0,-156.5 112,-156.5 112,-137.5 0,-137.5"/>
<text text-anchor="middle" x="56" y="-144.5" font-family="Helvetica,sans-Serif" font-size="10.00">factory::pipeline_base</text>
</a>
</g>
</g>
<!-- Node2&#45;&gt;Node1 -->
<g id="edge1" class="edge"><title>Node2&#45;&gt;Node1</title>
<path fill="none" stroke="midnightblue" d="M122.337,-147C130.854,-147 139.533,-147 147.92,-147"/>
<polygon fill="midnightblue" stroke="midnightblue" points="122.059,-143.5 112.059,-147 122.059,-150.5 122.059,-143.5"/>
</g>
<!-- Node4 -->
<g id="node4" class="node"><title>Node4</title>
<g id="a_node4"><a xlink:href="structfactory_1_1process__pipeline.html" target="_top" xlink:title="factory::process_pipeline\l\&lt; T, basic_router\&lt; T \&gt; \&gt;">
<polygon fill="white" stroke="black" points="476.5,-306 476.5,-336 601.5,-336 601.5,-306 476.5,-306"/>
<text text-anchor="start" x="484.5" y="-324" font-family="Helvetica,sans-Serif" font-size="10.00">factory::process_pipeline</text>
<text text-anchor="middle" x="539" y="-313" font-family="Helvetica,sans-Serif" font-size="10.00">&lt; T, basic_router&lt; T &gt; &gt;</text>
</a>
</g>
</g>
<!-- Node3&#45;&gt;Node4 -->
<g id="edge3" class="edge"><title>Node3&#45;&gt;Node4</title>
<path fill="none" stroke="midnightblue" d="M447.583,-313.375C457.224,-314.188 466.999,-315.012 476.383,-315.803"/>
<polygon fill="midnightblue" stroke="midnightblue" points="447.866,-309.886 437.608,-312.533 447.278,-316.861 447.866,-309.886"/>
</g>
<!-- Node6 -->
<g id="node6" class="node"><title>Node6</title>
<g id="a_node6"><a xlink:href="structfactory_1_1child__process__pipeline.html" target="_top" xlink:title="factory::child_process\l_pipeline\&lt; T, Router \&gt;">
<polygon fill="white" stroke="black" points="482,-257 482,-287 596,-287 596,-257 482,-257"/>
<text text-anchor="start" x="490" y="-275" font-family="Helvetica,sans-Serif" font-size="10.00">factory::child_process</text>
<text text-anchor="middle" x="539" y="-264" font-family="Helvetica,sans-Serif" font-size="10.00">_pipeline&lt; T, Router &gt;</text>
</a>
</g>
</g>
<!-- Node5&#45;&gt;Node6 -->
<g id="edge5" class="edge"><title>Node5&#45;&gt;Node6</title>
<path fill="none" stroke="midnightblue" d="M437.706,-252.666C452.311,-255.482 467.663,-258.441 481.844,-261.175"/>
<polygon fill="midnightblue" stroke="midnightblue" points="438.219,-249.201 427.737,-250.745 436.894,-256.074 438.219,-249.201"/>
</g>
<!-- Node7 -->
<g id="node7" class="node"><title>Node7</title>
<g id="a_node7"><a xlink:href="structfactory_1_1process__pipeline.html" target="_top" xlink:title="factory::process_pipeline\l\&lt; T, Router \&gt;">
<polygon fill="white" stroke="black" points="476.5,-208 476.5,-238 601.5,-238 601.5,-208 476.5,-208"/>
<text text-anchor="start" x="484.5" y="-226" font-family="Helvetica,sans-Serif" font-size="10.00">factory::process_pipeline</text>
<text text-anchor="middle" x="539" y="-215" font-family="Helvetica,sans-Serif" font-size="10.00">&lt; T, Router &gt;</text>
</a>
</g>
</g>
<!-- Node5&#45;&gt;Node7 -->
<g id="edge6" class="edge"><title>Node5&#45;&gt;Node7</title>
<path fill="none" stroke="midnightblue" d="M437.801,-233.261C450.531,-231.958 463.825,-230.596 476.414,-229.307"/>
<polygon fill="midnightblue" stroke="midnightblue" points="437.329,-229.791 427.737,-234.292 438.042,-236.755 437.329,-229.791"/>
</g>
<!-- Node9 -->
<g id="node9" class="node"><title>Node9</title>
<g id="a_node9"><a xlink:href="structfactory_1_1socket__pipeline.html" target="_top" xlink:title="factory::socket_pipeline\l\&lt; T, Socket, Router \&gt;">
<polygon fill="white" stroke="black" points="479,-159 479,-189 599,-189 599,-159 479,-159"/>
<text text-anchor="start" x="487" y="-177" font-family="Helvetica,sans-Serif" font-size="10.00">factory::socket_pipeline</text>
<text text-anchor="middle" x="539" y="-166" font-family="Helvetica,sans-Serif" font-size="10.00">&lt; T, Socket, Router &gt;</text>
</a>
</g>
</g>
<!-- Node8&#45;&gt;Node9 -->
<g id="edge8" class="edge"><title>Node8&#45;&gt;Node9</title>
<path fill="none" stroke="midnightblue" d="M438.282,-177.604C451.652,-177.121 465.626,-176.616 478.737,-176.142"/>
<polygon fill="midnightblue" stroke="midnightblue" points="438.067,-174.11 428.2,-177.969 438.32,-181.105 438.067,-174.11"/>
</g>
<!-- Node11 -->
<g id="node11" class="node"><title>Node11</title>
<g id="a_node11"><a xlink:href="structfactory_1_1socket__pipeline.html" target="_top" xlink:title="factory::socket_pipeline\l\&lt; T, sys::socket, basic\l_router\&lt; T \&gt; \&gt;">
<polygon fill="white" stroke="black" points="479,-93.5 479,-134.5 599,-134.5 599,-93.5 479,-93.5"/>
<text text-anchor="start" x="487" y="-122.5" font-family="Helvetica,sans-Serif" font-size="10.00">factory::socket_pipeline</text>
<text text-anchor="start" x="487" y="-111.5" font-family="Helvetica,sans-Serif" font-size="10.00">&lt; T, sys::socket, basic</text>
<text text-anchor="middle" x="539" y="-100.5" font-family="Helvetica,sans-Serif" font-size="10.00">_router&lt; T &gt; &gt;</text>
</a>
</g>
</g>
<!-- Node10&#45;&gt;Node11 -->
<g id="edge10" class="edge"><title>Node10&#45;&gt;Node11</title>
<path fill="none" stroke="midnightblue" d="M446.497,-114C457.347,-114 468.392,-114 478.881,-114"/>
<polygon fill="midnightblue" stroke="midnightblue" points="446.18,-110.5 436.18,-114 446.18,-117.5 446.18,-110.5"/>
</g>
</g>
</svg>
