<?xml version="1.0" encoding="UTF-8" standalone="no"?>
<!DOCTYPE svg PUBLIC "-//W3C//DTD SVG 1.1//EN"
 "http://www.w3.org/Graphics/SVG/1.1/DTD/svg11.dtd">
<!-- Generated by graphviz version 2.36.0 (20140111.2315)
 -->
<!-- Title: factory::basic_pipeline&lt; T, Kernels, Traits, Threads, Mutex, Lock, Semaphore &gt; Pages: 1 -->
<svg width="614pt" height="341pt"
 viewBox="0.00 0.00 614.00 341.00" xmlns="http://www.w3.org/2000/svg" xmlns:xlink="http://www.w3.org/1999/xlink">
<g id="graph0" class="graph" transform="scale(1 1) rotate(0) translate(4 337)">
<title>factory::basic_pipeline&lt; T, Kernels, Traits, Threads, Mutex, Lock, Semaphore &gt;</title>
<polygon fill="white" stroke="none" points="-4,4 -4,-337 610,-337 610,4 -4,4"/>
<!-- Node1 -->
<g id="node1" class="node"><title>Node1</title>
<polygon fill="#bfbfbf" stroke="black" points="148,-112 148,-164 266,-164 266,-112 148,-112"/>
<text text-anchor="start" x="156" y="-152" font-family="Helvetica,sans-Serif" font-size="10.00">factory::basic_pipeline</text>
<text text-anchor="start" x="156" y="-141" font-family="Helvetica,sans-Serif" font-size="10.00">&lt; T, Kernels, Traits,</text>
<text text-anchor="start" x="156" y="-130" font-family="Helvetica,sans-Serif" font-size="10.00"> Threads, Mutex, Lock,</text>
<text text-anchor="middle" x="207" y="-119" font-family="Helvetica,sans-Serif" font-size="10.00"> Semaphore &gt;</text>
</g>
<!-- Node3 -->
<g id="node3" class="node"><title>Node3</title>
<g id="a_node3"><a xlink:href="structfactory_1_1basic__socket__pipeline.html" target="_top" xlink:title="basic_socket_pipeline\l\&lt; K, external_process\l_handler\&lt; K, R \&gt; \&gt;">
<polygon fill="white" stroke="black" points="314.5,-280.5 314.5,-321.5 427.5,-321.5 427.5,-280.5 314.5,-280.5"/>
<text text-anchor="start" x="322.5" y="-309.5" font-family="Helvetica,sans-Serif" font-size="10.00">basic_socket_pipeline</text>
<text text-anchor="start" x="322.5" y="-298.5" font-family="Helvetica,sans-Serif" font-size="10.00">&lt; K, external_process</text>
<text text-anchor="middle" x="371" y="-287.5" font-family="Helvetica,sans-Serif" font-size="10.00">_handler&lt; K, R &gt; &gt;</text>
</a>
</g>
</g>
<!-- Node1&#45;&gt;Node3 -->
<g id="edge2" class="edge"><title>Node1&#45;&gt;Node3</title>
<path fill="none" stroke="midnightblue" d="M230.784,-172.686C248.367,-197.868 274.304,-231.798 302,-257 311.464,-265.612 322.792,-273.661 333.463,-280.459"/>
<polygon fill="midnightblue" stroke="midnightblue" points="233.477,-170.426 224.924,-164.173 227.711,-174.395 233.477,-170.426"/>
</g>
<!-- Node5 -->
<g id="node5" class="node"><title>Node5</title>
<g id="a_node5"><a xlink:href="structfactory_1_1basic__socket__pipeline.html" target="_top" xlink:title="basic_socket_pipeline\l\&lt; K, process_handler\l\&lt; K, R \&gt; \&gt;">
<polygon fill="white" stroke="black" points="314.5,-207.5 314.5,-248.5 427.5,-248.5 427.5,-207.5 314.5,-207.5"/>
<text text-anchor="start" x="322.5" y="-236.5" font-family="Helvetica,sans-Serif" font-size="10.00">basic_socket_pipeline</text>
<text text-anchor="start" x="322.5" y="-225.5" font-family="Helvetica,sans-Serif" font-size="10.00">&lt; K, process_handler</text>
<text text-anchor="middle" x="371" y="-214.5" font-family="Helvetica,sans-Serif" font-size="10.00">&lt; K, R &gt; &gt;</text>
</a>
</g>
</g>
<!-- Node1&#45;&gt;Node5 -->
<g id="edge4" class="edge"><title>Node1&#45;&gt;Node5</title>
<path fill="none" stroke="midnightblue" d="M255.929,-169.796C270.488,-178.985 286.688,-188.752 302,-197 308.625,-200.569 315.739,-204.112 322.779,-207.457"/>
<polygon fill="midnightblue" stroke="midnightblue" points="257.412,-166.591 247.098,-164.168 253.65,-172.494 257.412,-166.591"/>
</g>
<!-- Node8 -->
<g id="node8" class="node"><title>Node8</title>
<g id="a_node8"><a xlink:href="structfactory_1_1basic__socket__pipeline.html" target="_top" xlink:title="basic_socket_pipeline\l\&lt; T, process_handler\l\&lt; T, basic_router\&lt; T \&gt; \&gt; \&gt;">
<polygon fill="white" stroke="black" points="304.5,-147.5 304.5,-188.5 437.5,-188.5 437.5,-147.5 304.5,-147.5"/>
<text text-anchor="start" x="312.5" y="-176.5" font-family="Helvetica,sans-Serif" font-size="10.00">basic_socket_pipeline</text>
<text text-anchor="start" x="312.5" y="-165.5" font-family="Helvetica,sans-Serif" font-size="10.00">&lt; T, process_handler</text>
<text text-anchor="middle" x="371" y="-154.5" font-family="Helvetica,sans-Serif" font-size="10.00">&lt; T, basic_router&lt; T &gt; &gt; &gt;</text>
</a>
</g>
</g>
<!-- Node1&#45;&gt;Node8 -->
<g id="edge7" class="edge"><title>Node1&#45;&gt;Node8</title>
<path fill="none" stroke="midnightblue" d="M276.082,-150.608C285.456,-152.344 295.066,-154.123 304.394,-155.851"/>
<polygon fill="midnightblue" stroke="midnightblue" points="276.498,-147.125 266.028,-148.746 275.224,-154.008 276.498,-147.125"/>
</g>
<!-- Node10 -->
<g id="node10" class="node"><title>Node10</title>
<g id="a_node10"><a xlink:href="structfactory_1_1basic__socket__pipeline.html" target="_top" xlink:title="basic_socket_pipeline\l\&lt; T, remote_client\&lt; T,\l Socket, Router \&gt; \&gt;">
<polygon fill="white" stroke="black" points="314,-87.5 314,-128.5 428,-128.5 428,-87.5 314,-87.5"/>
<text text-anchor="start" x="322" y="-116.5" font-family="Helvetica,sans-Serif" font-size="10.00">basic_socket_pipeline</text>
<text text-anchor="start" x="322" y="-105.5" font-family="Helvetica,sans-Serif" font-size="10.00">&lt; T, remote_client&lt; T,</text>
<text text-anchor="middle" x="371" y="-94.5" font-family="Helvetica,sans-Serif" font-size="10.00"> Socket, Router &gt; &gt;</text>
</a>
</g>
</g>
<!-- Node1&#45;&gt;Node10 -->
<g id="edge9" class="edge"><title>Node1&#45;&gt;Node10</title>
<path fill="none" stroke="midnightblue" d="M275.992,-125.409C288.562,-123.081 301.56,-120.674 313.734,-118.42"/>
<polygon fill="midnightblue" stroke="midnightblue" points="275.224,-121.992 266.028,-127.254 276.498,-128.875 275.224,-121.992"/>
</g>
<!-- Node12 -->
<g id="node12" class="node"><title>Node12</title>
<g id="a_node12"><a xlink:href="structfactory_1_1basic__socket__pipeline.html" target="_top" xlink:title="factory::basic_socket\l_pipeline\&lt; T, Handler \&gt;">
<polygon fill="white" stroke="black" points="311.5,-39 311.5,-69 430.5,-69 430.5,-39 311.5,-39"/>
<text text-anchor="start" x="319.5" y="-57" font-family="Helvetica,sans-Serif" font-size="10.00">factory::basic_socket</text>
<text text-anchor="middle" x="371" y="-46" font-family="Helvetica,sans-Serif" font-size="10.00">_pipeline&lt; T, Handler &gt;</text>
</a>
</g>
</g>
<!-- Node1&#45;&gt;Node12 -->
<g id="edge11" class="edge"><title>Node1&#45;&gt;Node12</title>
<path fill="none" stroke="midnightblue" d="M253.414,-106.054C268.457,-96.285 285.562,-86.0156 302,-78 308.639,-74.7626 315.83,-71.7427 322.965,-69.0119"/>
<polygon fill="midnightblue" stroke="midnightblue" points="251.236,-103.298 244.817,-111.727 255.091,-109.14 251.236,-103.298"/>
</g>
<!-- Node13 -->
<g id="node13" class="node"><title>Node13</title>
<g id="a_node13"><a xlink:href="structfactory_1_1timer__pipeline.html" target="_top" xlink:title="factory::timer_pipeline\&lt; T \&gt;">
<polygon fill="white" stroke="black" points="302.5,-0.5 302.5,-19.5 439.5,-19.5 439.5,-0.5 302.5,-0.5"/>
<text text-anchor="middle" x="371" y="-7.5" font-family="Helvetica,sans-Serif" font-size="10.00">factory::timer_pipeline&lt; T &gt;</text>
</a>
</g>
</g>
<!-- Node1&#45;&gt;Node13 -->
<g id="edge12" class="edge"><title>Node1&#45;&gt;Node13</title>
<path fill="none" stroke="midnightblue" d="M229.96,-103.065C246.864,-78.9125 272.317,-47.8512 302,-29 308.105,-25.1229 315.008,-22.0237 322.016,-19.5498"/>
<polygon fill="midnightblue" stroke="midnightblue" points="226.871,-101.382 224.127,-111.615 232.653,-105.327 226.871,-101.382"/>
</g>
<!-- Node2 -->
<g id="node2" class="node"><title>Node2</title>
<g id="a_node2"><a xlink:href="classfactory_1_1pipeline__base.html" target="_top" xlink:title="factory::pipeline_base">
<polygon fill="white" stroke="black" points="0,-128.5 0,-147.5 112,-147.5 112,-128.5 0,-128.5"/>
<text text-anchor="middle" x="56" y="-135.5" font-family="Helvetica,sans-Serif" font-size="10.00">factory::pipeline_base</text>
</a>
</g>
</g>
<!-- Node2&#45;&gt;Node1 -->
<g id="edge1" class="edge"><title>Node2&#45;&gt;Node1</title>
<path fill="none" stroke="midnightblue" d="M122.337,-138C130.854,-138 139.533,-138 147.92,-138"/>
<polygon fill="midnightblue" stroke="midnightblue" points="122.059,-134.5 112.059,-138 122.059,-141.5 122.059,-134.5"/>
</g>
<!-- Node4 -->
<g id="node4" class="node"><title>Node4</title>
<g id="a_node4"><a xlink:href="classfactory_1_1unix__domain__socket__pipeline.html" target="_top" xlink:title="factory::unix_domain\l_socket_pipeline\&lt; K, R \&gt;">
<polygon fill="white" stroke="black" points="477,-302 477,-332 605,-332 605,-302 477,-302"/>
<text text-anchor="start" x="485" y="-320" font-family="Helvetica,sans-Serif" font-size="10.00">factory::unix_domain</text>
<text text-anchor="middle" x="541" y="-309" font-family="Helvetica,sans-Serif" font-size="10.00">_socket_pipeline&lt; K, R &gt;</text>
</a>
</g>
</g>
<!-- Node3&#45;&gt;Node4 -->
<g id="edge3" class="edge"><title>Node3&#45;&gt;Node4</title>
<path fill="none" stroke="midnightblue" d="M438.02,-307.288C450.771,-308.502 464.103,-309.772 476.763,-310.977"/>
<polygon fill="midnightblue" stroke="midnightblue" points="438.228,-303.792 427.942,-306.328 437.565,-310.76 438.228,-303.792"/>
</g>
<!-- Node6 -->
<g id="node6" class="node"><title>Node6</title>
<g id="a_node6"><a xlink:href="classfactory_1_1child__process__pipeline.html" target="_top" xlink:title="factory::child_process\l_pipeline\&lt; K, R \&gt;">
<polygon fill="white" stroke="black" points="484.5,-253 484.5,-283 597.5,-283 597.5,-253 484.5,-253"/>
<text text-anchor="start" x="492.5" y="-271" font-family="Helvetica,sans-Serif" font-size="10.00">factory::child_process</text>
<text text-anchor="middle" x="541" y="-260" font-family="Helvetica,sans-Serif" font-size="10.00">_pipeline&lt; K, R &gt;</text>
</a>
</g>
</g>
<!-- Node5&#45;&gt;Node6 -->
<g id="edge5" class="edge"><title>Node5&#45;&gt;Node6</title>
<path fill="none" stroke="midnightblue" d="M437.886,-243.687C453.239,-247.343 469.44,-251.2 484.303,-254.739"/>
<polygon fill="midnightblue" stroke="midnightblue" points="438.48,-240.231 427.942,-241.319 436.859,-247.041 438.48,-240.231"/>
</g>
<!-- Node7 -->
<g id="node7" class="node"><title>Node7</title>
<g id="a_node7"><a xlink:href="classfactory_1_1process__pipeline.html" target="_top" xlink:title="factory::process_pipeline\l\&lt; K, R \&gt;">
<polygon fill="white" stroke="black" points="478.5,-204 478.5,-234 603.5,-234 603.5,-204 478.5,-204"/>
<text text-anchor="start" x="486.5" y="-222" font-family="Helvetica,sans-Serif" font-size="10.00">factory::process_pipeline</text>
<text text-anchor="middle" x="541" y="-211" font-family="Helvetica,sans-Serif" font-size="10.00">&lt; K, R &gt;</text>
</a>
</g>
</g>
<!-- Node5&#45;&gt;Node7 -->
<g id="edge6" class="edge"><title>Node5&#45;&gt;Node7</title>
<path fill="none" stroke="midnightblue" d="M437.941,-224.467C451.209,-223.757 465.108,-223.012 478.228,-222.309"/>
<polygon fill="midnightblue" stroke="midnightblue" points="437.74,-220.973 427.942,-225.003 438.115,-227.963 437.74,-220.973"/>
</g>
<!-- Node9 -->
<g id="node9" class="node"><title>Node9</title>
<g id="a_node9"><a xlink:href="classfactory_1_1child__process__pipeline.html" target="_top" xlink:title="factory::child_process\l_pipeline\&lt; T, basic_router\l\&lt; T \&gt; \&gt;">
<polygon fill="white" stroke="black" points="476.5,-144.5 476.5,-185.5 605.5,-185.5 605.5,-144.5 476.5,-144.5"/>
<text text-anchor="start" x="484.5" y="-173.5" font-family="Helvetica,sans-Serif" font-size="10.00">factory::child_process</text>
<text text-anchor="start" x="484.5" y="-162.5" font-family="Helvetica,sans-Serif" font-size="10.00">_pipeline&lt; T, basic_router</text>
<text text-anchor="middle" x="541" y="-151.5" font-family="Helvetica,sans-Serif" font-size="10.00">&lt; T &gt; &gt;</text>
</a>
</g>
</g>
<!-- Node8&#45;&gt;Node9 -->
<g id="edge8" class="edge"><title>Node8&#45;&gt;Node9</title>
<path fill="none" stroke="midnightblue" d="M448.124,-166.641C457.602,-166.471 467.214,-166.3 476.473,-166.134"/>
<polygon fill="midnightblue" stroke="midnightblue" points="447.852,-163.145 437.916,-166.823 447.977,-170.144 447.852,-163.145"/>
</g>
<!-- Node11 -->
<g id="node11" class="node"><title>Node11</title>
<g id="a_node11"><a xlink:href="classfactory_1_1socket__pipeline.html" target="_top" xlink:title="factory::socket_pipeline\l\&lt; T, Socket, Router \&gt;">
<polygon fill="white" stroke="black" points="481,-93 481,-123 601,-123 601,-93 481,-93"/>
<text text-anchor="start" x="489" y="-111" font-family="Helvetica,sans-Serif" font-size="10.00">factory::socket_pipeline</text>
<text text-anchor="middle" x="541" y="-100" font-family="Helvetica,sans-Serif" font-size="10.00">&lt; T, Socket, Router &gt;</text>
</a>
</g>
</g>
<!-- Node10&#45;&gt;Node11 -->
<g id="edge10" class="edge"><title>Node10&#45;&gt;Node11</title>
<path fill="none" stroke="midnightblue" d="M438.463,-108C452.467,-108 467.153,-108 480.866,-108"/>
<polygon fill="midnightblue" stroke="midnightblue" points="438.409,-104.5 428.409,-108 438.409,-111.5 438.409,-104.5"/>
</g>
</g>
</svg>
