<?xml version="1.0" encoding="UTF-8" standalone="no"?>
<!DOCTYPE svg PUBLIC "-//W3C//DTD SVG 1.1//EN"
 "http://www.w3.org/Graphics/SVG/1.1/DTD/svg11.dtd">
<!-- Generated by graphviz version 2.36.0 (20140111.2315)
 -->
<!-- Title: factory::socket_pipeline&lt; T, Socket, Router &gt; Pages: 1 -->
<svg width="156pt" height="252pt"
 viewBox="0.00 0.00 156.00 252.00" xmlns="http://www.w3.org/2000/svg" xmlns:xlink="http://www.w3.org/1999/xlink">
<g id="graph0" class="graph" transform="scale(1 1) rotate(0) translate(4 248)">
<title>factory::socket_pipeline&lt; T, Socket, Router &gt;</title>
<polygon fill="white" stroke="none" points="-4,4 -4,-248 152,-248 152,4 -4,4"/>
<!-- Node1 -->
<g id="node1" class="node"><title>Node1</title>
<polygon fill="#bfbfbf" stroke="black" points="14,-1 14,-31 134,-31 134,-1 14,-1"/>
<text text-anchor="start" x="22" y="-19" font-family="Helvetica,sans-Serif" font-size="10.00">factory::socket_pipeline</text>
<text text-anchor="middle" x="74" y="-8" font-family="Helvetica,sans-Serif" font-size="10.00">&lt; T, Socket, Router &gt;</text>
</g>
<!-- Node2 -->
<g id="node2" class="node"><title>Node2</title>
<g id="a_node2"><a xlink:href="structfactory_1_1basic__socket__pipeline.html" target="_top" xlink:title="factory::basic_socket\l_pipeline\&lt; T, remote\l_client\&lt; T, Socket, Router \&gt; \&gt;">
<polygon fill="white" stroke="black" points="-1,-68.5 -1,-109.5 149,-109.5 149,-68.5 -1,-68.5"/>
<text text-anchor="start" x="7" y="-97.5" font-family="Helvetica,sans-Serif" font-size="10.00">factory::basic_socket</text>
<text text-anchor="start" x="7" y="-86.5" font-family="Helvetica,sans-Serif" font-size="10.00">_pipeline&lt; T, remote</text>
<text text-anchor="middle" x="74" y="-75.5" font-family="Helvetica,sans-Serif" font-size="10.00">_client&lt; T, Socket, Router &gt; &gt;</text>
</a>
</g>
</g>
<!-- Node2&#45;&gt;Node1 -->
<g id="edge1" class="edge"><title>Node2&#45;&gt;Node1</title>
<path fill="none" stroke="midnightblue" d="M74,-58.0188C74,-48.6567 74,-38.7696 74,-31.0485"/>
<polygon fill="midnightblue" stroke="midnightblue" points="70.5001,-58.2225 74,-68.2225 77.5001,-58.2226 70.5001,-58.2225"/>
</g>
<!-- Node3 -->
<g id="node3" class="node"><title>Node3</title>
<g id="a_node3"><a xlink:href="classfactory_1_1basic__pipeline.html" target="_top" xlink:title="Proxy_pipeline_base\l\&lt; T, remote_client\&lt;\l T, Socket, Router \&gt; &#160;\&gt;">
<polygon fill="white" stroke="black" points="16,-146.5 16,-187.5 132,-187.5 132,-146.5 16,-146.5"/>
<text text-anchor="start" x="24" y="-175.5" font-family="Helvetica,sans-Serif" font-size="10.00">Proxy_pipeline_base</text>
<text text-anchor="start" x="24" y="-164.5" font-family="Helvetica,sans-Serif" font-size="10.00">&lt; T, remote_client&lt;</text>
<text text-anchor="middle" x="74" y="-153.5" font-family="Helvetica,sans-Serif" font-size="10.00"> T, Socket, Router &gt; &gt;</text>
</a>
</g>
</g>
<!-- Node3&#45;&gt;Node2 -->
<g id="edge2" class="edge"><title>Node3&#45;&gt;Node2</title>
<path fill="none" stroke="midnightblue" d="M74,-136.297C74,-127.301 74,-117.653 74,-109.506"/>
<polygon fill="midnightblue" stroke="midnightblue" points="70.5001,-136.428 74,-146.428 77.5001,-136.428 70.5001,-136.428"/>
</g>
<!-- Node4 -->
<g id="node4" class="node"><title>Node4</title>
<g id="a_node4"><a xlink:href="classfactory_1_1pipeline__base.html" target="_top" xlink:title="factory::pipeline_base">
<polygon fill="white" stroke="black" points="18,-224.5 18,-243.5 130,-243.5 130,-224.5 18,-224.5"/>
<text text-anchor="middle" x="74" y="-231.5" font-family="Helvetica,sans-Serif" font-size="10.00">factory::pipeline_base</text>
</a>
</g>
</g>
<!-- Node4&#45;&gt;Node3 -->
<g id="edge3" class="edge"><title>Node4&#45;&gt;Node3</title>
<path fill="none" stroke="midnightblue" d="M74,-214.037C74,-205.708 74,-195.936 74,-187.542"/>
<polygon fill="midnightblue" stroke="midnightblue" points="70.5001,-214.234 74,-224.234 77.5001,-214.234 70.5001,-214.234"/>
</g>
</g>
</svg>
