<?xml version="1.0" encoding="UTF-8" standalone="no"?>
<!DOCTYPE svg PUBLIC "-//W3C//DTD SVG 1.1//EN"
 "http://www.w3.org/Graphics/SVG/1.1/DTD/svg11.dtd">
<!-- Generated by graphviz version 2.36.0 (20140111.2315)
 -->
<!-- Title: asc::basic_pipeline&lt; T, Kernels, Traits, Threads, Mutex, Lock, Semaphore &gt; Pages: 1 -->
<svg width="594pt" height="318pt"
 viewBox="0.00 0.00 594.00 318.00" xmlns="http://www.w3.org/2000/svg" xmlns:xlink="http://www.w3.org/1999/xlink">
<g id="graph0" class="graph" transform="scale(1 1) rotate(0) translate(4 314)">
<title>asc::basic_pipeline&lt; T, Kernels, Traits, Threads, Mutex, Lock, Semaphore &gt;</title>
<polygon fill="white" stroke="none" points="-4,4 -4,-314 590,-314 590,4 -4,4"/>
<!-- Node1 -->
<g id="node1" class="node"><title>Node1</title>
<polygon fill="#bfbfbf" stroke="black" points="134,-145 134,-197 252,-197 252,-145 134,-145"/>
<text text-anchor="start" x="142" y="-185" font-family="Helvetica,sans-Serif" font-size="10.00">asc::basic_pipeline</text>
<text text-anchor="start" x="142" y="-174" font-family="Helvetica,sans-Serif" font-size="10.00">&lt; T, Kernels, Traits,</text>
<text text-anchor="start" x="142" y="-163" font-family="Helvetica,sans-Serif" font-size="10.00"> Threads, Mutex, Lock,</text>
<text text-anchor="middle" x="193" y="-152" font-family="Helvetica,sans-Serif" font-size="10.00"> Semaphore &gt;</text>
</g>
<!-- Node3 -->
<g id="node3" class="node"><title>Node3</title>
<g id="a_node3"><a xlink:href="structasc_1_1basic__socket__pipeline.html" target="_top" xlink:title="asc::basic_socket_pipeline\l\&lt; T, Handler \&gt;">
<polygon fill="white" stroke="black" points="288,-279 288,-309 422,-309 422,-279 288,-279"/>
<text text-anchor="start" x="296" y="-297" font-family="Helvetica,sans-Serif" font-size="10.00">asc::basic_socket_pipeline</text>
<text text-anchor="middle" x="355" y="-286" font-family="Helvetica,sans-Serif" font-size="10.00">&lt; T, Handler &gt;</text>
</a>
</g>
</g>
<!-- Node1&#45;&gt;Node3 -->
<g id="edge2" class="edge"><title>Node1&#45;&gt;Node3</title>
<path fill="none" stroke="midnightblue" d="M220.014,-205.012C237.383,-225.814 261.784,-251.668 288,-269 293.724,-272.784 300.102,-276.109 306.573,-278.994"/>
<polygon fill="midnightblue" stroke="midnightblue" points="222.522,-202.55 213.481,-197.027 217.105,-206.983 222.522,-202.55"/>
</g>
<!-- Node4 -->
<g id="node4" class="node"><title>Node4</title>
<g id="a_node4"><a xlink:href="structasc_1_1timer__pipeline.html" target="_top" xlink:title="asc::timer_pipeline\&lt; T \&gt;">
<polygon fill="white" stroke="black" points="294,-240.5 294,-259.5 416,-259.5 416,-240.5 294,-240.5"/>
<text text-anchor="middle" x="355" y="-247.5" font-family="Helvetica,sans-Serif" font-size="10.00">asc::timer_pipeline&lt; T &gt;</text>
</a>
</g>
</g>
<!-- Node1&#45;&gt;Node4 -->
<g id="edge3" class="edge"><title>Node1&#45;&gt;Node4</title>
<path fill="none" stroke="midnightblue" d="M239.264,-202.818C254.298,-212.447 271.437,-222.456 288,-230 296.935,-234.069 306.917,-237.584 316.36,-240.481"/>
<polygon fill="midnightblue" stroke="midnightblue" points="240.964,-199.748 230.676,-197.214 237.139,-205.61 240.964,-199.748"/>
</g>
<!-- Node5 -->
<g id="node5" class="node"><title>Node5</title>
<g id="a_node5"><a xlink:href="structasc_1_1basic__socket__pipeline.html" target="_top" xlink:title="basic_socket_pipeline\l\&lt; K, external_process\l_handler\&lt; K, R \&gt; \&gt;">
<polygon fill="white" stroke="black" points="298.5,-180.5 298.5,-221.5 411.5,-221.5 411.5,-180.5 298.5,-180.5"/>
<text text-anchor="start" x="306.5" y="-209.5" font-family="Helvetica,sans-Serif" font-size="10.00">basic_socket_pipeline</text>
<text text-anchor="start" x="306.5" y="-198.5" font-family="Helvetica,sans-Serif" font-size="10.00">&lt; K, external_process</text>
<text text-anchor="middle" x="355" y="-187.5" font-family="Helvetica,sans-Serif" font-size="10.00">_handler&lt; K, R &gt; &gt;</text>
</a>
</g>
</g>
<!-- Node1&#45;&gt;Node5 -->
<g id="edge4" class="edge"><title>Node1&#45;&gt;Node5</title>
<path fill="none" stroke="midnightblue" d="M262.262,-183.799C274.353,-186.066 286.81,-188.402 298.495,-190.593"/>
<polygon fill="midnightblue" stroke="midnightblue" points="262.69,-180.318 252.216,-181.916 261.4,-187.199 262.69,-180.318"/>
</g>
<!-- Node7 -->
<g id="node7" class="node"><title>Node7</title>
<g id="a_node7"><a xlink:href="structasc_1_1basic__socket__pipeline.html" target="_top" xlink:title="basic_socket_pipeline\l\&lt; K, process_handler\l\&lt; K, R \&gt; \&gt;">
<polygon fill="white" stroke="black" points="298.5,-120.5 298.5,-161.5 411.5,-161.5 411.5,-120.5 298.5,-120.5"/>
<text text-anchor="start" x="306.5" y="-149.5" font-family="Helvetica,sans-Serif" font-size="10.00">basic_socket_pipeline</text>
<text text-anchor="start" x="306.5" y="-138.5" font-family="Helvetica,sans-Serif" font-size="10.00">&lt; K, process_handler</text>
<text text-anchor="middle" x="355" y="-127.5" font-family="Helvetica,sans-Serif" font-size="10.00">&lt; K, R &gt; &gt;</text>
</a>
</g>
</g>
<!-- Node1&#45;&gt;Node7 -->
<g id="edge6" class="edge"><title>Node1&#45;&gt;Node7</title>
<path fill="none" stroke="midnightblue" d="M262.262,-158.201C274.353,-155.934 286.81,-153.598 298.495,-151.407"/>
<polygon fill="midnightblue" stroke="midnightblue" points="261.4,-154.801 252.216,-160.084 262.69,-161.682 261.4,-154.801"/>
</g>
<!-- Node10 -->
<g id="node10" class="node"><title>Node10</title>
<g id="a_node10"><a xlink:href="structasc_1_1basic__socket__pipeline.html" target="_top" xlink:title="basic_socket_pipeline\l\&lt; T, process_handler\l\&lt; T, basic_router\&lt; T \&gt; \&gt; \&gt;">
<polygon fill="white" stroke="black" points="288.5,-60.5 288.5,-101.5 421.5,-101.5 421.5,-60.5 288.5,-60.5"/>
<text text-anchor="start" x="296.5" y="-89.5" font-family="Helvetica,sans-Serif" font-size="10.00">basic_socket_pipeline</text>
<text text-anchor="start" x="296.5" y="-78.5" font-family="Helvetica,sans-Serif" font-size="10.00">&lt; T, process_handler</text>
<text text-anchor="middle" x="355" y="-67.5" font-family="Helvetica,sans-Serif" font-size="10.00">&lt; T, basic_router&lt; T &gt; &gt; &gt;</text>
</a>
</g>
</g>
<!-- Node1&#45;&gt;Node10 -->
<g id="edge9" class="edge"><title>Node1&#45;&gt;Node10</title>
<path fill="none" stroke="midnightblue" d="M240.653,-139.385C255.52,-129.811 272.212,-119.571 288,-111 293.973,-107.757 300.363,-104.548 306.728,-101.502"/>
<polygon fill="midnightblue" stroke="midnightblue" points="238.606,-136.541 232.131,-144.927 242.422,-142.409 238.606,-136.541"/>
</g>
<!-- Node12 -->
<g id="node12" class="node"><title>Node12</title>
<g id="a_node12"><a xlink:href="structasc_1_1basic__socket__pipeline.html" target="_top" xlink:title="basic_socket_pipeline\l\&lt; T, remote_client\&lt; T,\l Socket, Router \&gt; \&gt;">
<polygon fill="white" stroke="black" points="298,-0.5 298,-41.5 412,-41.5 412,-0.5 298,-0.5"/>
<text text-anchor="start" x="306" y="-29.5" font-family="Helvetica,sans-Serif" font-size="10.00">basic_socket_pipeline</text>
<text text-anchor="start" x="306" y="-18.5" font-family="Helvetica,sans-Serif" font-size="10.00">&lt; T, remote_client&lt; T,</text>
<text text-anchor="middle" x="355" y="-7.5" font-family="Helvetica,sans-Serif" font-size="10.00"> Socket, Router &gt; &gt;</text>
</a>
</g>
</g>
<!-- Node1&#45;&gt;Node12 -->
<g id="edge11" class="edge"><title>Node1&#45;&gt;Node12</title>
<path fill="none" stroke="midnightblue" d="M214.804,-136.072C231.814,-109.899 257.911,-74.6651 288,-51 292.353,-47.5763 297.159,-44.4433 302.135,-41.6021"/>
<polygon fill="midnightblue" stroke="midnightblue" points="211.811,-134.256 209.391,-144.571 217.715,-138.017 211.811,-134.256"/>
</g>
<!-- Node2 -->
<g id="node2" class="node"><title>Node2</title>
<g id="a_node2"><a xlink:href="classasc_1_1pipeline__base.html" target="_top" xlink:title="asc::pipeline_base">
<polygon fill="white" stroke="black" points="0,-161.5 0,-180.5 98,-180.5 98,-161.5 0,-161.5"/>
<text text-anchor="middle" x="49" y="-168.5" font-family="Helvetica,sans-Serif" font-size="10.00">asc::pipeline_base</text>
</a>
</g>
</g>
<!-- Node2&#45;&gt;Node1 -->
<g id="edge1" class="edge"><title>Node2&#45;&gt;Node1</title>
<path fill="none" stroke="midnightblue" d="M108.244,-171C116.711,-171 125.427,-171 133.891,-171"/>
<polygon fill="midnightblue" stroke="midnightblue" points="108.075,-167.5 98.0747,-171 108.075,-174.5 108.075,-167.5"/>
</g>
<!-- Node6 -->
<g id="node6" class="node"><title>Node6</title>
<g id="a_node6"><a xlink:href="classasc_1_1unix__domain__socket__pipeline.html" target="_top" xlink:title="asc::unix_domain_socket\l_pipeline\&lt; K, R \&gt;">
<polygon fill="white" stroke="black" points="458,-215 458,-245 586,-245 586,-215 458,-215"/>
<text text-anchor="start" x="466" y="-233" font-family="Helvetica,sans-Serif" font-size="10.00">asc::unix_domain_socket</text>
<text text-anchor="middle" x="522" y="-222" font-family="Helvetica,sans-Serif" font-size="10.00">_pipeline&lt; K, R &gt;</text>
</a>
</g>
</g>
<!-- Node5&#45;&gt;Node6 -->
<g id="edge5" class="edge"><title>Node5&#45;&gt;Node6</title>
<path fill="none" stroke="midnightblue" d="M421.716,-212.55C433.61,-214.641 445.991,-216.817 457.811,-218.894"/>
<polygon fill="midnightblue" stroke="midnightblue" points="422.316,-209.102 411.861,-210.818 421.105,-215.996 422.316,-209.102"/>
</g>
<!-- Node8 -->
<g id="node8" class="node"><title>Node8</title>
<g id="a_node8"><a xlink:href="classasc_1_1child__process__pipeline.html" target="_top" xlink:title="asc::child_process\l_pipeline\&lt; K, R \&gt;">
<polygon fill="white" stroke="black" points="473,-166 473,-196 571,-196 571,-166 473,-166"/>
<text text-anchor="start" x="481" y="-184" font-family="Helvetica,sans-Serif" font-size="10.00">asc::child_process</text>
<text text-anchor="middle" x="522" y="-173" font-family="Helvetica,sans-Serif" font-size="10.00">_pipeline&lt; K, R &gt;</text>
</a>
</g>
</g>
<!-- Node7&#45;&gt;Node8 -->
<g id="edge7" class="edge"><title>Node7&#45;&gt;Node8</title>
<path fill="none" stroke="midnightblue" d="M421.779,-156.946C438.858,-161.087 456.936,-165.469 472.915,-169.343"/>
<polygon fill="midnightblue" stroke="midnightblue" points="422.405,-153.497 411.861,-154.542 420.755,-160.3 422.405,-153.497"/>
</g>
<!-- Node9 -->
<g id="node9" class="node"><title>Node9</title>
<g id="a_node9"><a xlink:href="classasc_1_1process__pipeline.html" target="_top" xlink:title="asc::process_pipeline\l\&lt; K, R \&gt;">
<polygon fill="white" stroke="black" points="466.5,-117 466.5,-147 577.5,-147 577.5,-117 466.5,-117"/>
<text text-anchor="start" x="474.5" y="-135" font-family="Helvetica,sans-Serif" font-size="10.00">asc::process_pipeline</text>
<text text-anchor="middle" x="522" y="-124" font-family="Helvetica,sans-Serif" font-size="10.00">&lt; K, R &gt;</text>
</a>
</g>
</g>
<!-- Node7&#45;&gt;Node9 -->
<g id="edge8" class="edge"><title>Node7&#45;&gt;Node9</title>
<path fill="none" stroke="midnightblue" d="M421.914,-137.405C436.64,-136.601 452.102,-135.758 466.315,-134.983"/>
<polygon fill="midnightblue" stroke="midnightblue" points="421.656,-133.913 411.861,-137.953 422.037,-140.903 421.656,-133.913"/>
</g>
<!-- Node11 -->
<g id="node11" class="node"><title>Node11</title>
<g id="a_node11"><a xlink:href="classasc_1_1child__process__pipeline.html" target="_top" xlink:title="asc::child_process\l_pipeline\&lt; T, basic\l_router\&lt; T \&gt; \&gt;">
<polygon fill="white" stroke="black" points="472.5,-57.5 472.5,-98.5 571.5,-98.5 571.5,-57.5 472.5,-57.5"/>
<text text-anchor="start" x="480.5" y="-86.5" font-family="Helvetica,sans-Serif" font-size="10.00">asc::child_process</text>
<text text-anchor="start" x="480.5" y="-75.5" font-family="Helvetica,sans-Serif" font-size="10.00">_pipeline&lt; T, basic</text>
<text text-anchor="middle" x="522" y="-64.5" font-family="Helvetica,sans-Serif" font-size="10.00">_router&lt; T &gt; &gt;</text>
</a>
</g>
</g>
<!-- Node10&#45;&gt;Node11 -->
<g id="edge10" class="edge"><title>Node10&#45;&gt;Node11</title>
<path fill="none" stroke="midnightblue" d="M432.079,-79.6168C445.762,-79.368 459.682,-79.1149 472.321,-78.8851"/>
<polygon fill="midnightblue" stroke="midnightblue" points="431.621,-76.1244 421.686,-79.8057 431.748,-83.1232 431.621,-76.1244"/>
</g>
<!-- Node13 -->
<g id="node13" class="node"><title>Node13</title>
<g id="a_node13"><a xlink:href="classasc_1_1socket__pipeline.html" target="_top" xlink:title="asc::socket_pipeline\l\&lt; T, Socket, Router \&gt;">
<polygon fill="white" stroke="black" points="465.5,-6 465.5,-36 578.5,-36 578.5,-6 465.5,-6"/>
<text text-anchor="start" x="473.5" y="-24" font-family="Helvetica,sans-Serif" font-size="10.00">asc::socket_pipeline</text>
<text text-anchor="middle" x="522" y="-13" font-family="Helvetica,sans-Serif" font-size="10.00">&lt; T, Socket, Router &gt;</text>
</a>
</g>
</g>
<!-- Node12&#45;&gt;Node13 -->
<g id="edge12" class="edge"><title>Node12&#45;&gt;Node13</title>
<path fill="none" stroke="midnightblue" d="M422.555,-21C436.803,-21 451.712,-21 465.491,-21"/>
<polygon fill="midnightblue" stroke="midnightblue" points="422.322,-17.5001 412.322,-21 422.322,-24.5001 422.322,-17.5001"/>
</g>
</g>
</svg>
