<?xml version="1.0" encoding="UTF-8" standalone="no"?>
<!DOCTYPE svg PUBLIC "-//W3C//DTD SVG 1.1//EN"
 "http://www.w3.org/Graphics/SVG/1.1/DTD/svg11.dtd">
<!-- Generated by graphviz version 2.36.0 (20140111.2315)
 -->
<!-- Title: factory::process_pipeline&lt; K, R &gt; Pages: 1 -->
<svg width="405pt" height="268pt"
 viewBox="0.00 0.00 405.00 268.00" xmlns="http://www.w3.org/2000/svg" xmlns:xlink="http://www.w3.org/1999/xlink">
<g id="graph0" class="graph" transform="scale(1 1) rotate(0) translate(4 264)">
<title>factory::process_pipeline&lt; K, R &gt;</title>
<polygon fill="white" stroke="none" points="-4,4 -4,-264 401,-264 401,4 -4,4"/>
<!-- Node1 -->
<g id="node1" class="node"><title>Node1</title>
<polygon fill="#bfbfbf" stroke="black" points="166.5,-1 166.5,-31 291.5,-31 291.5,-1 166.5,-1"/>
<text text-anchor="start" x="174.5" y="-19" font-family="Helvetica,sans-Serif" font-size="10.00">factory::process_pipeline</text>
<text text-anchor="middle" x="229" y="-8" font-family="Helvetica,sans-Serif" font-size="10.00">&lt; K, R &gt;</text>
</g>
<!-- Node2 -->
<g id="node2" class="node"><title>Node2</title>
<g id="a_node2"><a xlink:href="structfactory_1_1basic__socket__pipeline.html" target="_top" xlink:title="factory::basic_socket\l_pipeline\&lt; K, process\l_handler\&lt; K, R \&gt; \&gt;">
<polygon fill="white" stroke="black" points="173.5,-70.5 173.5,-111.5 284.5,-111.5 284.5,-70.5 173.5,-70.5"/>
<text text-anchor="start" x="181.5" y="-99.5" font-family="Helvetica,sans-Serif" font-size="10.00">factory::basic_socket</text>
<text text-anchor="start" x="181.5" y="-88.5" font-family="Helvetica,sans-Serif" font-size="10.00">_pipeline&lt; K, process</text>
<text text-anchor="middle" x="229" y="-77.5" font-family="Helvetica,sans-Serif" font-size="10.00">_handler&lt; K, R &gt; &gt;</text>
</a>
</g>
</g>
<!-- Node2&#45;&gt;Node1 -->
<g id="edge1" class="edge"><title>Node2&#45;&gt;Node1</title>
<path fill="none" stroke="midnightblue" d="M229,-60.3718C229,-50.335 229,-39.579 229,-31.2892"/>
<polygon fill="midnightblue" stroke="midnightblue" points="225.5,-60.4373 229,-70.4373 232.5,-60.4374 225.5,-60.4373"/>
</g>
<!-- Node3 -->
<g id="node3" class="node"><title>Node3</title>
<g id="a_node3"><a xlink:href="classfactory_1_1basic__pipeline.html" target="_top" xlink:title="Proxy_pipeline_base\l\&lt; K , process_handler\l\&lt; K, R \&gt; &#160;\&gt;">
<polygon fill="white" stroke="black" points="172.5,-150.5 172.5,-191.5 285.5,-191.5 285.5,-150.5 172.5,-150.5"/>
<text text-anchor="start" x="180.5" y="-179.5" font-family="Helvetica,sans-Serif" font-size="10.00">Proxy_pipeline_base</text>
<text text-anchor="start" x="180.5" y="-168.5" font-family="Helvetica,sans-Serif" font-size="10.00">&lt; K , process_handler</text>
<text text-anchor="middle" x="229" y="-157.5" font-family="Helvetica,sans-Serif" font-size="10.00">&lt; K, R &gt; &gt;</text>
</a>
</g>
</g>
<!-- Node3&#45;&gt;Node2 -->
<g id="edge2" class="edge"><title>Node3&#45;&gt;Node2</title>
<path fill="none" stroke="midnightblue" d="M229,-140.036C229,-130.531 229,-120.267 229,-111.676"/>
<polygon fill="midnightblue" stroke="midnightblue" points="225.5,-140.317 229,-150.317 232.5,-140.317 225.5,-140.317"/>
</g>
<!-- Node4 -->
<g id="node4" class="node"><title>Node4</title>
<g id="a_node4"><a xlink:href="classfactory_1_1pipeline__base.html" target="_top" xlink:title="factory::pipeline_base">
<polygon fill="white" stroke="black" points="0,-240.5 0,-259.5 112,-259.5 112,-240.5 0,-240.5"/>
<text text-anchor="middle" x="56" y="-247.5" font-family="Helvetica,sans-Serif" font-size="10.00">factory::pipeline_base</text>
</a>
</g>
</g>
<!-- Node4&#45;&gt;Node3 -->
<g id="edge3" class="edge"><title>Node4&#45;&gt;Node3</title>
<path fill="none" stroke="midnightblue" d="M84.5413,-236.297C111.837,-224.148 153.395,-205.651 184.941,-191.61"/>
<polygon fill="midnightblue" stroke="midnightblue" points="82.8878,-233.202 75.175,-240.465 85.7342,-239.597 82.8878,-233.202"/>
</g>
<!-- Node5 -->
<g id="node5" class="node"><title>Node5</title>
<polygon fill="white" stroke="#bfbfbf" points="130,-240.5 130,-259.5 180,-259.5 180,-240.5 130,-240.5"/>
<text text-anchor="middle" x="155" y="-247.5" font-family="Helvetica,sans-Serif" font-size="10.00">Kernels</text>
</g>
<!-- Node5&#45;&gt;Node3 -->
<g id="edge4" class="edge"><title>Node5&#45;&gt;Node3</title>
<path fill="none" stroke="#9a32cd" stroke-dasharray="5,2" d="M166.891,-232.018C172.137,-224.945 178.565,-216.81 185,-210 190.962,-203.691 197.883,-197.332 204.447,-191.669"/>
<polygon fill="#9a32cd" stroke="#9a32cd" points="163.979,-230.072 160.967,-240.23 169.656,-234.168 163.979,-230.072"/>
<text text-anchor="middle" x="205" y="-213.5" font-family="Helvetica,sans-Serif" font-size="10.00"> _kernels</text>
</g>
<!-- Node6 -->
<g id="node6" class="node"><title>Node6</title>
<polygon fill="white" stroke="#bfbfbf" points="198,-240.5 198,-259.5 264,-259.5 264,-240.5 198,-240.5"/>
<text text-anchor="middle" x="231" y="-247.5" font-family="Helvetica,sans-Serif" font-size="10.00">Semaphore</text>
</g>
<!-- Node6&#45;&gt;Node3 -->
<g id="edge5" class="edge"><title>Node6&#45;&gt;Node3</title>
<path fill="none" stroke="#9a32cd" stroke-dasharray="5,2" d="M230.269,-230.374C230.17,-227.568 230.077,-224.708 230,-222 229.718,-212.106 229.489,-201.109 229.321,-191.953"/>
<polygon fill="#9a32cd" stroke="#9a32cd" points="226.776,-230.627 230.648,-240.489 233.771,-230.365 226.776,-230.627"/>
<text text-anchor="middle" x="258.5" y="-213.5" font-family="Helvetica,sans-Serif" font-size="10.00"> _semaphore</text>
</g>
<!-- Node7 -->
<g id="node7" class="node"><title>Node7</title>
<polygon fill="white" stroke="#bfbfbf" points="283,-240.5 283,-259.5 335,-259.5 335,-240.5 283,-240.5"/>
<text text-anchor="middle" x="309" y="-247.5" font-family="Helvetica,sans-Serif" font-size="10.00">Threads</text>
</g>
<!-- Node7&#45;&gt;Node3 -->
<g id="edge6" class="edge"><title>Node7&#45;&gt;Node3</title>
<path fill="none" stroke="#9a32cd" stroke-dasharray="5,2" d="M301.144,-231.015C297.504,-223.956 292.71,-216.102 287,-210 280.584,-203.144 272.694,-196.938 264.823,-191.622"/>
<polygon fill="#9a32cd" stroke="#9a32cd" points="298.186,-232.947 305.624,-240.492 304.514,-229.955 298.186,-232.947"/>
<text text-anchor="middle" x="315.5" y="-213.5" font-family="Helvetica,sans-Serif" font-size="10.00"> _threads</text>
</g>
<!-- Node8 -->
<g id="node8" class="node"><title>Node8</title>
<polygon fill="white" stroke="#bfbfbf" points="353,-240.5 353,-259.5 397,-259.5 397,-240.5 353,-240.5"/>
<text text-anchor="middle" x="375" y="-247.5" font-family="Helvetica,sans-Serif" font-size="10.00">Mutex</text>
</g>
<!-- Node8&#45;&gt;Node3 -->
<g id="edge7" class="edge"><title>Node8&#45;&gt;Node3</title>
<path fill="none" stroke="#9a32cd" stroke-dasharray="5,2" d="M363.012,-232.077C356.872,-224.442 348.834,-215.846 340,-210 323.693,-199.208 304.007,-191.167 285.77,-185.33"/>
<polygon fill="#9a32cd" stroke="#9a32cd" points="360.46,-234.506 369.28,-240.377 366.046,-230.288 360.46,-234.506"/>
<text text-anchor="middle" x="371" y="-213.5" font-family="Helvetica,sans-Serif" font-size="10.00"> _mutex</text>
</g>
</g>
</svg>
