<?xml version="1.0" encoding="UTF-8" standalone="no"?>
<!DOCTYPE svg PUBLIC "-//W3C//DTD SVG 1.1//EN"
 "http://www.w3.org/Graphics/SVG/1.1/DTD/svg11.dtd">
<!-- Generated by graphviz version 2.36.0 (20140111.2315)
 -->
<!-- Title: bsc::child_process_pipeline&lt; K, R &gt; Pages: 1 -->
<svg width="391pt" height="248pt"
 viewBox="0.00 0.00 391.00 248.00" xmlns="http://www.w3.org/2000/svg" xmlns:xlink="http://www.w3.org/1999/xlink">
<g id="graph0" class="graph" transform="scale(1 1) rotate(0) translate(4 244)">
<title>bsc::child_process_pipeline&lt; K, R &gt;</title>
<polygon fill="white" stroke="none" points="-4,4 -4,-244 387,-244 387,4 -4,4"/>
<!-- Node1 -->
<g id="node1" class="node"><title>Node1</title>
<polygon fill="#bfbfbf" stroke="black" points="166,-1 166,-31 264,-31 264,-1 166,-1"/>
<text text-anchor="start" x="174" y="-19" font-family="Helvetica,sans-Serif" font-size="10.00">bsc::child_process</text>
<text text-anchor="middle" x="215" y="-8" font-family="Helvetica,sans-Serif" font-size="10.00">_pipeline&lt; K, R &gt;</text>
</g>
<!-- Node2 -->
<g id="node2" class="node"><title>Node2</title>
<g id="a_node2"><a xlink:href="classbsc_1_1basic__socket__pipeline.html" target="_top" xlink:title="bsc::basic_socket_pipeline\l\&lt; K, process_handler\&lt; K, R \&gt; \&gt;">
<polygon fill="white" stroke="black" points="136.5,-71 136.5,-101 293.5,-101 293.5,-71 136.5,-71"/>
<text text-anchor="start" x="144.5" y="-89" font-family="Helvetica,sans-Serif" font-size="10.00">bsc::basic_socket_pipeline</text>
<text text-anchor="middle" x="215" y="-78" font-family="Helvetica,sans-Serif" font-size="10.00">&lt; K, process_handler&lt; K, R &gt; &gt;</text>
</a>
</g>
</g>
<!-- Node2&#45;&gt;Node1 -->
<g id="edge1" class="edge"><title>Node2&#45;&gt;Node1</title>
<path fill="none" stroke="midnightblue" d="M215,-60.7688C215,-50.8141 215,-39.6384 215,-31.0716"/>
<polygon fill="midnightblue" stroke="midnightblue" points="211.5,-60.9103 215,-70.9104 218.5,-60.9104 211.5,-60.9103"/>
</g>
<!-- Node3 -->
<g id="node3" class="node"><title>Node3</title>
<g id="a_node3"><a xlink:href="classbsc_1_1basic__pipeline.html" target="_top" xlink:title="Proxy_pipeline_base\l\&lt; K &#160;\&gt;">
<polygon fill="white" stroke="black" points="161.5,-141 161.5,-171 268.5,-171 268.5,-141 161.5,-141"/>
<text text-anchor="start" x="169.5" y="-159" font-family="Helvetica,sans-Serif" font-size="10.00">Proxy_pipeline_base</text>
<text text-anchor="middle" x="215" y="-148" font-family="Helvetica,sans-Serif" font-size="10.00">&lt; K &gt;</text>
</a>
</g>
</g>
<!-- Node3&#45;&gt;Node2 -->
<g id="edge2" class="edge"><title>Node3&#45;&gt;Node2</title>
<path fill="none" stroke="midnightblue" d="M215,-130.769C215,-120.814 215,-109.638 215,-101.072"/>
<polygon fill="midnightblue" stroke="midnightblue" points="211.5,-130.91 215,-140.91 218.5,-130.91 211.5,-130.91"/>
</g>
<!-- Node4 -->
<g id="node4" class="node"><title>Node4</title>
<g id="a_node4"><a xlink:href="classbsc_1_1pipeline__base.html" target="_top" xlink:title="bsc::pipeline_base">
<polygon fill="white" stroke="black" points="0,-220.5 0,-239.5 98,-239.5 98,-220.5 0,-220.5"/>
<text text-anchor="middle" x="49" y="-227.5" font-family="Helvetica,sans-Serif" font-size="10.00">bsc::pipeline_base</text>
</a>
</g>
</g>
<!-- Node4&#45;&gt;Node3 -->
<g id="edge3" class="edge"><title>Node4&#45;&gt;Node3</title>
<path fill="none" stroke="midnightblue" d="M77.9438,-216.446C107.132,-203.786 152.103,-184.28 182.499,-171.097"/>
<polygon fill="midnightblue" stroke="midnightblue" points="76.4757,-213.268 68.6943,-220.458 79.2612,-219.69 76.4757,-213.268"/>
</g>
<!-- Node5 -->
<g id="node5" class="node"><title>Node5</title>
<polygon fill="white" stroke="#bfbfbf" points="116,-220.5 116,-239.5 166,-239.5 166,-220.5 116,-220.5"/>
<text text-anchor="middle" x="141" y="-227.5" font-family="Helvetica,sans-Serif" font-size="10.00">Kernels</text>
</g>
<!-- Node5&#45;&gt;Node3 -->
<g id="edge4" class="edge"><title>Node5&#45;&gt;Node3</title>
<path fill="none" stroke="#9a32cd" stroke-dasharray="5,2" d="M152.465,-212.07C157.707,-204.895 164.249,-196.669 171,-190 177.929,-183.155 186.321,-176.526 193.911,-171.027"/>
<polygon fill="#9a32cd" stroke="#9a32cd" points="149.496,-210.208 146.602,-220.4 155.22,-214.237 149.496,-210.208"/>
<text text-anchor="middle" x="191" y="-193.5" font-family="Helvetica,sans-Serif" font-size="10.00"> _kernels</text>
</g>
<!-- Node6 -->
<g id="node6" class="node"><title>Node6</title>
<polygon fill="white" stroke="#bfbfbf" points="184,-220.5 184,-239.5 250,-239.5 250,-220.5 184,-220.5"/>
<text text-anchor="middle" x="217" y="-227.5" font-family="Helvetica,sans-Serif" font-size="10.00">Semaphore</text>
</g>
<!-- Node6&#45;&gt;Node3 -->
<g id="edge5" class="edge"><title>Node6&#45;&gt;Node3</title>
<path fill="none" stroke="#9a32cd" stroke-dasharray="5,2" d="M216.274,-210.374C216.175,-207.568 216.08,-204.708 216,-202 215.695,-191.689 215.438,-180.048 215.262,-171.189"/>
<polygon fill="#9a32cd" stroke="#9a32cd" points="212.781,-210.627 216.652,-220.489 219.776,-210.365 212.781,-210.627"/>
<text text-anchor="middle" x="244.5" y="-193.5" font-family="Helvetica,sans-Serif" font-size="10.00"> _semaphore</text>
</g>
<!-- Node7 -->
<g id="node7" class="node"><title>Node7</title>
<polygon fill="white" stroke="#bfbfbf" points="269,-220.5 269,-239.5 321,-239.5 321,-220.5 269,-220.5"/>
<text text-anchor="middle" x="295" y="-227.5" font-family="Helvetica,sans-Serif" font-size="10.00">Threads</text>
</g>
<!-- Node7&#45;&gt;Node3 -->
<g id="edge6" class="edge"><title>Node7&#45;&gt;Node3</title>
<path fill="none" stroke="#9a32cd" stroke-dasharray="5,2" d="M287.334,-210.832C283.722,-203.745 278.898,-195.92 273,-190 265.559,-182.532 256.079,-176.203 246.951,-171.147"/>
<polygon fill="#9a32cd" stroke="#9a32cd" points="284.372,-212.766 291.743,-220.377 290.727,-209.831 284.372,-212.766"/>
<text text-anchor="middle" x="302.5" y="-193.5" font-family="Helvetica,sans-Serif" font-size="10.00"> _threads</text>
</g>
<!-- Node8 -->
<g id="node8" class="node"><title>Node8</title>
<polygon fill="white" stroke="#bfbfbf" points="339,-220.5 339,-239.5 383,-239.5 383,-220.5 339,-220.5"/>
<text text-anchor="middle" x="361" y="-227.5" font-family="Helvetica,sans-Serif" font-size="10.00">Mutex</text>
</g>
<!-- Node8&#45;&gt;Node3 -->
<g id="edge7" class="edge"><title>Node8&#45;&gt;Node3</title>
<path fill="none" stroke="#9a32cd" stroke-dasharray="5,2" d="M349.553,-211.899C343.634,-204.224 335.805,-195.645 327,-190 309.509,-178.785 288.069,-171.26 268.647,-166.269"/>
<polygon fill="#9a32cd" stroke="#9a32cd" points="346.889,-214.189 355.569,-220.264 352.572,-210.102 346.889,-214.189"/>
<text text-anchor="middle" x="358" y="-193.5" font-family="Helvetica,sans-Serif" font-size="10.00"> _mutex</text>
</g>
</g>
</svg>
