<?xml version="1.0" encoding="UTF-8" standalone="no"?>
<!DOCTYPE svg PUBLIC "-//W3C//DTD SVG 1.1//EN"
 "http://www.w3.org/Graphics/SVG/1.1/DTD/svg11.dtd">
<!-- Generated by graphviz version 2.36.0 (20140111.2315)
 -->
<!-- Title: bsc::basic_pipeline&lt; T, Kernels, Traits, Threads, Mutex, Lock, Semaphore &gt; Pages: 1 -->
<svg width="620pt" height="278pt"
 viewBox="0.00 0.00 620.00 278.00" xmlns="http://www.w3.org/2000/svg" xmlns:xlink="http://www.w3.org/1999/xlink">
<g id="graph0" class="graph" transform="scale(1 1) rotate(0) translate(4 274)">
<title>bsc::basic_pipeline&lt; T, Kernels, Traits, Threads, Mutex, Lock, Semaphore &gt;</title>
<polygon fill="white" stroke="none" points="-4,4 -4,-274 616,-274 616,4 -4,4"/>
<!-- Node1 -->
<g id="node1" class="node"><title>Node1</title>
<polygon fill="#bfbfbf" stroke="black" points="134,-71 134,-123 252,-123 252,-71 134,-71"/>
<text text-anchor="start" x="142" y="-111" font-family="Helvetica,sans-Serif" font-size="10.00">bsc::basic_pipeline</text>
<text text-anchor="start" x="142" y="-100" font-family="Helvetica,sans-Serif" font-size="10.00">&lt; T, Kernels, Traits,</text>
<text text-anchor="start" x="142" y="-89" font-family="Helvetica,sans-Serif" font-size="10.00"> Threads, Mutex, Lock,</text>
<text text-anchor="middle" x="193" y="-78" font-family="Helvetica,sans-Serif" font-size="10.00"> Semaphore &gt;</text>
</g>
<!-- Node3 -->
<g id="node3" class="node"><title>Node3</title>
<g id="a_node3"><a xlink:href="classbsc_1_1basic__socket__pipeline.html" target="_top" xlink:title="basic_socket_pipeline\&lt; K \&gt;">
<polygon fill="white" stroke="black" points="298.5,-196.5 298.5,-215.5 435.5,-215.5 435.5,-196.5 298.5,-196.5"/>
<text text-anchor="middle" x="367" y="-203.5" font-family="Helvetica,sans-Serif" font-size="10.00">basic_socket_pipeline&lt; K &gt;</text>
</a>
</g>
</g>
<!-- Node1&#45;&gt;Node3 -->
<g id="edge2" class="edge"><title>Node1&#45;&gt;Node3</title>
<path fill="none" stroke="midnightblue" d="M222.214,-131.181C239.41,-149.931 262.867,-172.121 288,-186 295.832,-190.325 304.623,-193.738 313.404,-196.424"/>
<polygon fill="midnightblue" stroke="midnightblue" points="224.519,-128.507 215.242,-123.39 219.303,-133.175 224.519,-128.507"/>
</g>
<!-- Node6 -->
<g id="node6" class="node"><title>Node6</title>
<g id="a_node6"><a xlink:href="classbsc_1_1basic__socket__pipeline.html" target="_top" xlink:title="basic_socket_pipeline\l\&lt; K, process_handler\l\&lt; K, R \&gt; \&gt;">
<polygon fill="white" stroke="black" points="310.5,-136.5 310.5,-177.5 423.5,-177.5 423.5,-136.5 310.5,-136.5"/>
<text text-anchor="start" x="318.5" y="-165.5" font-family="Helvetica,sans-Serif" font-size="10.00">basic_socket_pipeline</text>
<text text-anchor="start" x="318.5" y="-154.5" font-family="Helvetica,sans-Serif" font-size="10.00">&lt; K, process_handler</text>
<text text-anchor="middle" x="367" y="-143.5" font-family="Helvetica,sans-Serif" font-size="10.00">&lt; K, R &gt; &gt;</text>
</a>
</g>
</g>
<!-- Node1&#45;&gt;Node6 -->
<g id="edge5" class="edge"><title>Node1&#45;&gt;Node6</title>
<path fill="none" stroke="midnightblue" d="M262.085,-120.75C278.124,-126.346 295.034,-132.244 310.446,-137.621"/>
<polygon fill="midnightblue" stroke="midnightblue" points="262.826,-117.302 252.231,-117.313 260.521,-123.912 262.826,-117.302"/>
</g>
<!-- Node8 -->
<g id="node8" class="node"><title>Node8</title>
<g id="a_node8"><a xlink:href="classbsc_1_1basic__socket__pipeline.html" target="_top" xlink:title="basic_socket_pipeline\l\&lt; T, process_handler\l\&lt; T, basic_router\&lt; T \&gt; \&gt; \&gt;">
<polygon fill="white" stroke="black" points="300.5,-76.5 300.5,-117.5 433.5,-117.5 433.5,-76.5 300.5,-76.5"/>
<text text-anchor="start" x="308.5" y="-105.5" font-family="Helvetica,sans-Serif" font-size="10.00">basic_socket_pipeline</text>
<text text-anchor="start" x="308.5" y="-94.5" font-family="Helvetica,sans-Serif" font-size="10.00">&lt; T, process_handler</text>
<text text-anchor="middle" x="367" y="-83.5" font-family="Helvetica,sans-Serif" font-size="10.00">&lt; T, basic_router&lt; T &gt; &gt; &gt;</text>
</a>
</g>
</g>
<!-- Node1&#45;&gt;Node8 -->
<g id="edge7" class="edge"><title>Node1&#45;&gt;Node8</title>
<path fill="none" stroke="midnightblue" d="M262.57,-97C275.049,-97 288.04,-97 300.43,-97"/>
<polygon fill="midnightblue" stroke="midnightblue" points="262.231,-93.5001 252.231,-97 262.231,-100.5 262.231,-93.5001"/>
</g>
<!-- Node10 -->
<g id="node10" class="node"><title>Node10</title>
<g id="a_node10"><a xlink:href="classbsc_1_1basic__socket__pipeline.html" target="_top" xlink:title="bsc::basic_socket_pipeline\&lt; T \&gt;">
<polygon fill="white" stroke="black" points="288,-38.5 288,-57.5 446,-57.5 446,-38.5 288,-38.5"/>
<text text-anchor="middle" x="367" y="-45.5" font-family="Helvetica,sans-Serif" font-size="10.00">bsc::basic_socket_pipeline&lt; T &gt;</text>
</a>
</g>
</g>
<!-- Node1&#45;&gt;Node10 -->
<g id="edge9" class="edge"><title>Node1&#45;&gt;Node10</title>
<path fill="none" stroke="midnightblue" d="M262,-74.6791C270.722,-71.9986 279.553,-69.3737 288,-67 299.808,-63.682 312.715,-60.4001 324.569,-57.5214"/>
<polygon fill="midnightblue" stroke="midnightblue" points="260.735,-71.4071 252.226,-77.7187 262.814,-78.0914 260.735,-71.4071"/>
</g>
<!-- Node12 -->
<g id="node12" class="node"><title>Node12</title>
<g id="a_node12"><a xlink:href="structbsc_1_1timer__pipeline.html" target="_top" xlink:title="bsc::timer_pipeline\&lt; T \&gt;">
<polygon fill="white" stroke="black" points="306,-0.5 306,-19.5 428,-19.5 428,-0.5 306,-0.5"/>
<text text-anchor="middle" x="367" y="-7.5" font-family="Helvetica,sans-Serif" font-size="10.00">bsc::timer_pipeline&lt; T &gt;</text>
</a>
</g>
</g>
<!-- Node1&#45;&gt;Node12 -->
<g id="edge11" class="edge"><title>Node1&#45;&gt;Node12</title>
<path fill="none" stroke="midnightblue" d="M232.056,-64.2922C248.38,-51.6843 268.224,-38.1322 288,-29 296.225,-25.202 305.302,-22.1078 314.267,-19.6048"/>
<polygon fill="midnightblue" stroke="midnightblue" points="229.535,-61.8239 223.86,-70.7708 233.875,-67.3157 229.535,-61.8239"/>
</g>
<!-- Node2 -->
<g id="node2" class="node"><title>Node2</title>
<g id="a_node2"><a xlink:href="classbsc_1_1pipeline__base.html" target="_top" xlink:title="bsc::pipeline_base">
<polygon fill="white" stroke="black" points="0,-87.5 0,-106.5 98,-106.5 98,-87.5 0,-87.5"/>
<text text-anchor="middle" x="49" y="-94.5" font-family="Helvetica,sans-Serif" font-size="10.00">bsc::pipeline_base</text>
</a>
</g>
</g>
<!-- Node2&#45;&gt;Node1 -->
<g id="edge1" class="edge"><title>Node2&#45;&gt;Node1</title>
<path fill="none" stroke="midnightblue" d="M108.244,-97C116.711,-97 125.427,-97 133.891,-97"/>
<polygon fill="midnightblue" stroke="midnightblue" points="108.075,-93.5001 98.0747,-97 108.075,-100.5 108.075,-93.5001"/>
</g>
<!-- Node4 -->
<g id="node4" class="node"><title>Node4</title>
<g id="a_node4"><a xlink:href="classbsc_1_1process__pipeline.html" target="_top" xlink:title="bsc::process_pipeline\l\&lt; K, R \&gt;">
<polygon fill="white" stroke="black" points="491.5,-240 491.5,-270 602.5,-270 602.5,-240 491.5,-240"/>
<text text-anchor="start" x="499.5" y="-258" font-family="Helvetica,sans-Serif" font-size="10.00">bsc::process_pipeline</text>
<text text-anchor="middle" x="547" y="-247" font-family="Helvetica,sans-Serif" font-size="10.00">&lt; K, R &gt;</text>
</a>
</g>
</g>
<!-- Node3&#45;&gt;Node4 -->
<g id="edge3" class="edge"><title>Node3&#45;&gt;Node4</title>
<path fill="none" stroke="midnightblue" d="M412.6,-218.278C436.489,-224.854 466.115,-233.009 491.376,-239.963"/>
<polygon fill="midnightblue" stroke="midnightblue" points="413.313,-214.844 402.743,-215.564 411.455,-221.593 413.313,-214.844"/>
</g>
<!-- Node5 -->
<g id="node5" class="node"><title>Node5</title>
<g id="a_node5"><a xlink:href="classbsc_1_1unix__domain__socket__pipeline.html" target="_top" xlink:title="bsc::unix_domain_socket\l_pipeline\&lt; K, R \&gt;">
<polygon fill="white" stroke="black" points="483,-191 483,-221 611,-221 611,-191 483,-191"/>
<text text-anchor="start" x="491" y="-209" font-family="Helvetica,sans-Serif" font-size="10.00">bsc::unix_domain_socket</text>
<text text-anchor="middle" x="547" y="-198" font-family="Helvetica,sans-Serif" font-size="10.00">_pipeline&lt; K, R &gt;</text>
</a>
</g>
</g>
<!-- Node3&#45;&gt;Node5 -->
<g id="edge4" class="edge"><title>Node3&#45;&gt;Node5</title>
<path fill="none" stroke="midnightblue" d="M445.857,-206C458.238,-206 470.91,-206 482.896,-206"/>
<polygon fill="midnightblue" stroke="midnightblue" points="445.548,-202.5 435.548,-206 445.548,-209.5 445.548,-202.5"/>
</g>
<!-- Node7 -->
<g id="node7" class="node"><title>Node7</title>
<g id="a_node7"><a xlink:href="classbsc_1_1child__process__pipeline.html" target="_top" xlink:title="bsc::child_process\l_pipeline\&lt; K, R \&gt;">
<polygon fill="white" stroke="black" points="498,-142 498,-172 596,-172 596,-142 498,-142"/>
<text text-anchor="start" x="506" y="-160" font-family="Helvetica,sans-Serif" font-size="10.00">bsc::child_process</text>
<text text-anchor="middle" x="547" y="-149" font-family="Helvetica,sans-Serif" font-size="10.00">_pipeline&lt; K, R &gt;</text>
</a>
</g>
</g>
<!-- Node6&#45;&gt;Node7 -->
<g id="edge6" class="edge"><title>Node6&#45;&gt;Node7</title>
<path fill="none" stroke="midnightblue" d="M434.049,-157C455.213,-157 478.235,-157 497.868,-157"/>
<polygon fill="midnightblue" stroke="midnightblue" points="433.832,-153.5 423.832,-157 433.832,-160.5 433.832,-153.5"/>
</g>
<!-- Node9 -->
<g id="node9" class="node"><title>Node9</title>
<g id="a_node9"><a xlink:href="classbsc_1_1child__process__pipeline.html" target="_top" xlink:title="bsc::child_process\l_pipeline\&lt; T, basic\l_router\&lt; T \&gt; \&gt;">
<polygon fill="white" stroke="black" points="497.5,-76.5 497.5,-117.5 596.5,-117.5 596.5,-76.5 497.5,-76.5"/>
<text text-anchor="start" x="505.5" y="-105.5" font-family="Helvetica,sans-Serif" font-size="10.00">bsc::child_process</text>
<text text-anchor="start" x="505.5" y="-94.5" font-family="Helvetica,sans-Serif" font-size="10.00">_pipeline&lt; T, basic</text>
<text text-anchor="middle" x="547" y="-83.5" font-family="Helvetica,sans-Serif" font-size="10.00">_router&lt; T &gt; &gt;</text>
</a>
</g>
</g>
<!-- Node8&#45;&gt;Node9 -->
<g id="edge8" class="edge"><title>Node8&#45;&gt;Node9</title>
<path fill="none" stroke="midnightblue" d="M443.539,-97C461.747,-97 480.724,-97 497.327,-97"/>
<polygon fill="midnightblue" stroke="midnightblue" points="443.522,-93.5001 433.522,-97 443.522,-100.5 443.522,-93.5001"/>
</g>
<!-- Node11 -->
<g id="node11" class="node"><title>Node11</title>
<g id="a_node11"><a xlink:href="classbsc_1_1socket__pipeline.html" target="_top" xlink:title="bsc::socket_pipeline\&lt; T \&gt;">
<polygon fill="white" stroke="black" points="482,-38.5 482,-57.5 612,-57.5 612,-38.5 482,-38.5"/>
<text text-anchor="middle" x="547" y="-45.5" font-family="Helvetica,sans-Serif" font-size="10.00">bsc::socket_pipeline&lt; T &gt;</text>
</a>
</g>
</g>
<!-- Node10&#45;&gt;Node11 -->
<g id="edge10" class="edge"><title>Node10&#45;&gt;Node11</title>
<path fill="none" stroke="midnightblue" d="M456.206,-48C464.857,-48 473.519,-48 481.864,-48"/>
<polygon fill="midnightblue" stroke="midnightblue" points="456.073,-44.5001 446.073,-48 456.073,-51.5001 456.073,-44.5001"/>
</g>
</g>
</svg>
