<?xml version="1.0" encoding="UTF-8" standalone="no"?>
<!DOCTYPE svg PUBLIC "-//W3C//DTD SVG 1.1//EN"
 "http://www.w3.org/Graphics/SVG/1.1/DTD/svg11.dtd">
<!-- Generated by graphviz version 2.36.0 (20140111.2315)
 -->
<!-- Title: bsc::pipeline_base Pages: 1 -->
<svg width="624pt" height="454pt"
 viewBox="0.00 0.00 624.00 454.00" xmlns="http://www.w3.org/2000/svg" xmlns:xlink="http://www.w3.org/1999/xlink">
<g id="graph0" class="graph" transform="scale(1 1) rotate(0) translate(4 450)">
<title>bsc::pipeline_base</title>
<polygon fill="white" stroke="none" points="-4,4 -4,-450 620,-450 620,4 -4,4"/>
<!-- Node1 -->
<g id="node1" class="node"><title>Node1</title>
<polygon fill="#bfbfbf" stroke="black" points="0,-112.5 0,-131.5 98,-131.5 98,-112.5 0,-112.5"/>
<text text-anchor="middle" x="49" y="-119.5" font-family="Helvetica,sans-Serif" font-size="10.00">bsc::pipeline_base</text>
</g>
<!-- Node2 -->
<g id="node2" class="node"><title>Node2</title>
<g id="a_node2"><a xlink:href="classbsc_1_1basic__pipeline.html" target="_top" xlink:title="bsc::basic_pipeline\&lt; T \&gt;">
<polygon fill="white" stroke="black" points="134,-350.5 134,-369.5 258,-369.5 258,-350.5 134,-350.5"/>
<text text-anchor="middle" x="196" y="-357.5" font-family="Helvetica,sans-Serif" font-size="10.00">bsc::basic_pipeline&lt; T &gt;</text>
</a>
</g>
</g>
<!-- Node1&#45;&gt;Node2 -->
<g id="edge1" class="edge"><title>Node1&#45;&gt;Node2</title>
<path fill="none" stroke="midnightblue" d="M57.9023,-141.376C71.3551,-173.389 100.524,-238.777 134,-289 149.683,-312.529 172.227,-336.874 185.061,-350.055"/>
<polygon fill="midnightblue" stroke="midnightblue" points="61.0233,-139.765 53.9591,-131.869 54.5574,-142.447 61.0233,-139.765"/>
</g>
<!-- Node5 -->
<g id="node5" class="node"><title>Node5</title>
<g id="a_node5"><a xlink:href="classbsc_1_1basic__handler.html" target="_top" xlink:title="bsc::basic_handler">
<polygon fill="white" stroke="black" points="147,-260.5 147,-279.5 245,-279.5 245,-260.5 147,-260.5"/>
<text text-anchor="middle" x="196" y="-267.5" font-family="Helvetica,sans-Serif" font-size="10.00">bsc::basic_handler</text>
</a>
</g>
</g>
<!-- Node1&#45;&gt;Node5 -->
<g id="edge4" class="edge"><title>Node1&#45;&gt;Node5</title>
<path fill="none" stroke="midnightblue" d="M66.8976,-139.247C97.6117,-170.597 161.633,-235.943 185.64,-260.446"/>
<polygon fill="midnightblue" stroke="midnightblue" points="69.0123,-136.404 59.5139,-131.711 64.0121,-141.303 69.0123,-136.404"/>
</g>
<!-- Node11 -->
<g id="node11" class="node"><title>Node11</title>
<g id="a_node11"><a xlink:href="classbsc_1_1basic__pipeline.html" target="_top" xlink:title="bsc::basic_pipeline\l\&lt; T, Kernels, Traits,\l Threads, Mutex, Lock,\l Semaphore \&gt;">
<polygon fill="white" stroke="black" points="137,-126 137,-178 255,-178 255,-126 137,-126"/>
<text text-anchor="start" x="145" y="-166" font-family="Helvetica,sans-Serif" font-size="10.00">bsc::basic_pipeline</text>
<text text-anchor="start" x="145" y="-155" font-family="Helvetica,sans-Serif" font-size="10.00">&lt; T, Kernels, Traits,</text>
<text text-anchor="start" x="145" y="-144" font-family="Helvetica,sans-Serif" font-size="10.00"> Threads, Mutex, Lock,</text>
<text text-anchor="middle" x="196" y="-133" font-family="Helvetica,sans-Serif" font-size="10.00"> Semaphore &gt;</text>
</a>
</g>
</g>
<!-- Node1&#45;&gt;Node11 -->
<g id="edge10" class="edge"><title>Node1&#45;&gt;Node11</title>
<path fill="none" stroke="midnightblue" d="M106.185,-133.624C116.271,-135.711 126.802,-137.89 136.94,-139.988"/>
<polygon fill="midnightblue" stroke="midnightblue" points="106.779,-130.173 96.2776,-131.575 105.361,-137.028 106.779,-130.173"/>
</g>
<!-- Node20 -->
<g id="node20" class="node"><title>Node20</title>
<g id="a_node20"><a xlink:href="classbsc_1_1external__process__handler.html" target="_top" xlink:title="bsc::external_process\l_handler\&lt; T, Router \&gt;">
<polygon fill="white" stroke="black" points="139.5,-77 139.5,-107 252.5,-107 252.5,-77 139.5,-77"/>
<text text-anchor="start" x="147.5" y="-95" font-family="Helvetica,sans-Serif" font-size="10.00">bsc::external_process</text>
<text text-anchor="middle" x="196" y="-84" font-family="Helvetica,sans-Serif" font-size="10.00">_handler&lt; T, Router &gt;</text>
</a>
</g>
</g>
<!-- Node1&#45;&gt;Node20 -->
<g id="edge19" class="edge"><title>Node1&#45;&gt;Node20</title>
<path fill="none" stroke="midnightblue" d="M106.1,-110.393C116.988,-108.14 128.396,-105.78 139.272,-103.53"/>
<polygon fill="midnightblue" stroke="midnightblue" points="105.361,-106.972 96.2776,-112.425 106.779,-113.827 105.361,-106.972"/>
</g>
<!-- Node21 -->
<g id="node21" class="node"><title>Node21</title>
<g id="a_node21"><a xlink:href="classbsc_1_1Factory.html" target="_top" xlink:title="bsc::Factory\&lt; T \&gt;">
<polygon fill="white" stroke="black" points="148.5,-38.5 148.5,-57.5 243.5,-57.5 243.5,-38.5 148.5,-38.5"/>
<text text-anchor="middle" x="196" y="-45.5" font-family="Helvetica,sans-Serif" font-size="10.00">bsc::Factory&lt; T &gt;</text>
</a>
</g>
</g>
<!-- Node1&#45;&gt;Node21 -->
<g id="edge20" class="edge"><title>Node1&#45;&gt;Node21</title>
<path fill="none" stroke="midnightblue" d="M70.4608,-106.27C86.9089,-94.2142 110.988,-77.8569 134,-67 141.724,-63.3556 150.321,-60.1847 158.566,-57.532"/>
<polygon fill="midnightblue" stroke="midnightblue" points="68.0841,-103.676 62.1634,-112.462 72.2709,-109.286 68.0841,-103.676"/>
</g>
<!-- Node22 -->
<g id="node22" class="node"><title>Node22</title>
<g id="a_node22"><a xlink:href="classbsc_1_1Multi__pipeline.html" target="_top" xlink:title="bsc::Multi_pipeline\&lt; T \&gt;">
<polygon fill="white" stroke="black" points="135,-0.5 135,-19.5 257,-19.5 257,-0.5 135,-0.5"/>
<text text-anchor="middle" x="196" y="-7.5" font-family="Helvetica,sans-Serif" font-size="10.00">bsc::Multi_pipeline&lt; T &gt;</text>
</a>
</g>
</g>
<!-- Node1&#45;&gt;Node22 -->
<g id="edge21" class="edge"><title>Node1&#45;&gt;Node22</title>
<path fill="none" stroke="midnightblue" d="M61.7805,-103.94C76.3419,-82.9936 103.027,-48.8123 134,-29 139.98,-25.1747 146.783,-22.0746 153.623,-19.5761"/>
<polygon fill="midnightblue" stroke="midnightblue" points="58.8427,-102.036 56.1379,-112.28 64.6404,-105.959 58.8427,-102.036"/>
</g>
<!-- Node3 -->
<g id="node3" class="node"><title>Node3</title>
<g id="a_node3"><a xlink:href="classbsc_1_1parallel__pipeline.html" target="_top" xlink:title="bsc::parallel_pipeline\&lt; T \&gt;">
<polygon fill="white" stroke="black" points="307.5,-426.5 307.5,-445.5 438.5,-445.5 438.5,-426.5 307.5,-426.5"/>
<text text-anchor="middle" x="373" y="-433.5" font-family="Helvetica,sans-Serif" font-size="10.00">bsc::parallel_pipeline&lt; T &gt;</text>
</a>
</g>
</g>
<!-- Node2&#45;&gt;Node3 -->
<g id="edge2" class="edge"><title>Node2&#45;&gt;Node3</title>
<path fill="none" stroke="midnightblue" d="M219.407,-375.303C238.511,-387.759 267.077,-405.018 294,-416 304.097,-420.118 315.282,-423.584 325.955,-426.412"/>
<polygon fill="midnightblue" stroke="midnightblue" points="221.107,-372.231 210.838,-369.623 217.239,-378.065 221.107,-372.231"/>
</g>
<!-- Node4 -->
<g id="node4" class="node"><title>Node4</title>
<g id="a_node4"><a xlink:href="structbsc_1_1io__pipeline.html" target="_top" xlink:title="bsc::io_pipeline\&lt; T \&gt;">
<polygon fill="white" stroke="black" points="498,-426.5 498,-445.5 606,-445.5 606,-426.5 498,-426.5"/>
<text text-anchor="middle" x="552" y="-433.5" font-family="Helvetica,sans-Serif" font-size="10.00">bsc::io_pipeline&lt; T &gt;</text>
</a>
</g>
</g>
<!-- Node3&#45;&gt;Node4 -->
<g id="edge3" class="edge"><title>Node3&#45;&gt;Node4</title>
<path fill="none" stroke="midnightblue" d="M448.81,-436C465.292,-436 482.423,-436 497.842,-436"/>
<polygon fill="midnightblue" stroke="midnightblue" points="448.652,-432.5 438.652,-436 448.652,-439.5 448.652,-432.5"/>
</g>
<!-- Node6 -->
<g id="node6" class="node"><title>Node6</title>
<g id="a_node6"><a xlink:href="classbsc_1_1local__server.html" target="_top" xlink:title="bsc::local_server\&lt;\l K, S, R \&gt;">
<polygon fill="white" stroke="black" points="324.5,-377 324.5,-407 421.5,-407 421.5,-377 324.5,-377"/>
<text text-anchor="start" x="332.5" y="-395" font-family="Helvetica,sans-Serif" font-size="10.00">bsc::local_server&lt;</text>
<text text-anchor="middle" x="373" y="-384" font-family="Helvetica,sans-Serif" font-size="10.00"> K, S, R &gt;</text>
</a>
</g>
</g>
<!-- Node5&#45;&gt;Node6 -->
<g id="edge5" class="edge"><title>Node5&#45;&gt;Node6</title>
<path fill="none" stroke="midnightblue" d="M210.365,-287.818C227.491,-309.472 259.155,-345.743 294,-367 303.226,-372.628 313.849,-377.118 324.225,-380.65"/>
<polygon fill="midnightblue" stroke="midnightblue" points="213.032,-285.546 204.145,-279.778 207.496,-289.829 213.032,-285.546"/>
</g>
<!-- Node7 -->
<g id="node7" class="node"><title>Node7</title>
<g id="a_node7"><a xlink:href="classbsc_1_1process__handler.html" target="_top" xlink:title="bsc::process_handler\l\&lt; K, R \&gt;">
<polygon fill="white" stroke="black" points="318,-328 318,-358 428,-358 428,-328 318,-328"/>
<text text-anchor="start" x="326" y="-346" font-family="Helvetica,sans-Serif" font-size="10.00">bsc::process_handler</text>
<text text-anchor="middle" x="373" y="-335" font-family="Helvetica,sans-Serif" font-size="10.00">&lt; K, R &gt;</text>
</a>
</g>
</g>
<!-- Node5&#45;&gt;Node7 -->
<g id="edge6" class="edge"><title>Node5&#45;&gt;Node7</title>
<path fill="none" stroke="midnightblue" d="M223.56,-284.488C242.781,-294.638 269.567,-308.104 294,-318 302.699,-321.523 312.097,-324.892 321.255,-327.951"/>
<polygon fill="midnightblue" stroke="midnightblue" points="224.983,-281.28 214.513,-279.66 221.687,-287.456 224.983,-281.28"/>
</g>
<!-- Node8 -->
<g id="node8" class="node"><title>Node8</title>
<g id="a_node8"><a xlink:href="classbsc_1_1remote__client.html" target="_top" xlink:title="bsc::remote_client\l\&lt; K, S, R \&gt;">
<polygon fill="white" stroke="black" points="324.5,-279 324.5,-309 421.5,-309 421.5,-279 324.5,-279"/>
<text text-anchor="start" x="332.5" y="-297" font-family="Helvetica,sans-Serif" font-size="10.00">bsc::remote_client</text>
<text text-anchor="middle" x="373" y="-286" font-family="Helvetica,sans-Serif" font-size="10.00">&lt; K, S, R &gt;</text>
</a>
</g>
</g>
<!-- Node5&#45;&gt;Node8 -->
<g id="edge7" class="edge"><title>Node5&#45;&gt;Node8</title>
<path fill="none" stroke="midnightblue" d="M255.371,-278.005C277.825,-281.085 303.168,-284.56 324.48,-287.483"/>
<polygon fill="midnightblue" stroke="midnightblue" points="255.666,-274.513 245.283,-276.622 254.714,-281.448 255.666,-274.513"/>
</g>
<!-- Node9 -->
<g id="node9" class="node"><title>Node9</title>
<g id="a_node9"><a xlink:href="classbsc_1_1unix__socket__client.html" target="_top" xlink:title="bsc::unix_socket_client\l\&lt; K, R \&gt;">
<polygon fill="white" stroke="black" points="313.5,-230 313.5,-260 432.5,-260 432.5,-230 313.5,-230"/>
<text text-anchor="start" x="321.5" y="-248" font-family="Helvetica,sans-Serif" font-size="10.00">bsc::unix_socket_client</text>
<text text-anchor="middle" x="373" y="-237" font-family="Helvetica,sans-Serif" font-size="10.00">&lt; K, R &gt;</text>
</a>
</g>
</g>
<!-- Node5&#45;&gt;Node9 -->
<g id="edge8" class="edge"><title>Node5&#45;&gt;Node9</title>
<path fill="none" stroke="midnightblue" d="M255.401,-261.657C274.027,-258.996 294.638,-256.052 313.286,-253.388"/>
<polygon fill="midnightblue" stroke="midnightblue" points="254.687,-258.223 245.283,-263.102 255.677,-265.153 254.687,-258.223"/>
</g>
<!-- Node10 -->
<g id="node10" class="node"><title>Node10</title>
<g id="a_node10"><a xlink:href="classbsc_1_1unix__socket__server.html" target="_top" xlink:title="bsc::unix_socket_server\l\&lt; K, R \&gt;">
<polygon fill="white" stroke="black" points="311.5,-181 311.5,-211 434.5,-211 434.5,-181 311.5,-181"/>
<text text-anchor="start" x="319.5" y="-199" font-family="Helvetica,sans-Serif" font-size="10.00">bsc::unix_socket_server</text>
<text text-anchor="middle" x="373" y="-188" font-family="Helvetica,sans-Serif" font-size="10.00">&lt; K, R &gt;</text>
</a>
</g>
</g>
<!-- Node5&#45;&gt;Node10 -->
<g id="edge9" class="edge"><title>Node5&#45;&gt;Node10</title>
<path fill="none" stroke="midnightblue" d="M222.824,-255.55C242.074,-245.127 269.209,-231.161 294,-221 302.553,-217.495 311.791,-214.158 320.815,-211.13"/>
<polygon fill="midnightblue" stroke="midnightblue" points="220.883,-252.622 213.792,-260.494 224.244,-258.762 220.883,-252.622"/>
</g>
<!-- Node12 -->
<g id="node12" class="node"><title>Node12</title>
<g id="a_node12"><a xlink:href="classbsc_1_1basic__socket__pipeline.html" target="_top" xlink:title="basic_socket_pipeline\&lt; K \&gt;">
<polygon fill="white" stroke="black" points="304.5,-142.5 304.5,-161.5 441.5,-161.5 441.5,-142.5 304.5,-142.5"/>
<text text-anchor="middle" x="373" y="-149.5" font-family="Helvetica,sans-Serif" font-size="10.00">basic_socket_pipeline&lt; K &gt;</text>
</a>
</g>
</g>
<!-- Node11&#45;&gt;Node12 -->
<g id="edge11" class="edge"><title>Node11&#45;&gt;Node12</title>
<path fill="none" stroke="midnightblue" d="M265.381,-152C278.167,-152 291.525,-152 304.29,-152"/>
<polygon fill="midnightblue" stroke="midnightblue" points="265.273,-148.5 255.272,-152 265.272,-155.5 265.273,-148.5"/>
</g>
<!-- Node17 -->
<g id="node17" class="node"><title>Node17</title>
<g id="a_node17"><a xlink:href="classbsc_1_1basic__socket__pipeline.html" target="_top" xlink:title="bsc::basic_socket_pipeline\&lt; T \&gt;">
<polygon fill="white" stroke="black" points="294,-104.5 294,-123.5 452,-123.5 452,-104.5 294,-104.5"/>
<text text-anchor="middle" x="373" y="-111.5" font-family="Helvetica,sans-Serif" font-size="10.00">bsc::basic_socket_pipeline&lt; T &gt;</text>
</a>
</g>
</g>
<!-- Node11&#45;&gt;Node17 -->
<g id="edge16" class="edge"><title>Node11&#45;&gt;Node17</title>
<path fill="none" stroke="midnightblue" d="M265.18,-137.195C286.33,-132.603 309.064,-127.666 328.099,-123.533"/>
<polygon fill="midnightblue" stroke="midnightblue" points="264.302,-133.804 255.272,-139.347 265.787,-140.645 264.302,-133.804"/>
</g>
<!-- Node19 -->
<g id="node19" class="node"><title>Node19</title>
<g id="a_node19"><a xlink:href="structbsc_1_1timer__pipeline.html" target="_top" xlink:title="bsc::timer_pipeline\&lt; T \&gt;">
<polygon fill="white" stroke="black" points="312,-66.5 312,-85.5 434,-85.5 434,-66.5 312,-66.5"/>
<text text-anchor="middle" x="373" y="-73.5" font-family="Helvetica,sans-Serif" font-size="10.00">bsc::timer_pipeline&lt; T &gt;</text>
</a>
</g>
</g>
<!-- Node11&#45;&gt;Node19 -->
<g id="edge18" class="edge"><title>Node11&#45;&gt;Node19</title>
<path fill="none" stroke="midnightblue" d="M250.175,-120.647C272.412,-107.554 293.328,-95.2723 294,-95 303.171,-91.2826 313.255,-88.1657 323.039,-85.6022"/>
<polygon fill="midnightblue" stroke="midnightblue" points="248.135,-117.787 241.295,-125.877 251.688,-123.818 248.135,-117.787"/>
</g>
<!-- Node13 -->
<g id="node13" class="node"><title>Node13</title>
<g id="a_node13"><a xlink:href="classbsc_1_1child__process__pipeline.html" target="_top" xlink:title="bsc::child_process\l_pipeline\&lt; K, R \&gt;">
<polygon fill="white" stroke="black" points="503,-235 503,-265 601,-265 601,-235 503,-235"/>
<text text-anchor="start" x="511" y="-253" font-family="Helvetica,sans-Serif" font-size="10.00">bsc::child_process</text>
<text text-anchor="middle" x="552" y="-242" font-family="Helvetica,sans-Serif" font-size="10.00">_pipeline&lt; K, R &gt;</text>
</a>
</g>
</g>
<!-- Node12&#45;&gt;Node13 -->
<g id="edge12" class="edge"><title>Node12&#45;&gt;Node13</title>
<path fill="none" stroke="midnightblue" d="M440.87,-165.533C444.778,-167.415 448.526,-169.558 452,-172 475.298,-188.373 465.786,-207.184 488,-225 492.773,-228.828 498.207,-232.133 503.836,-234.968"/>
<polygon fill="midnightblue" stroke="midnightblue" points="442.091,-162.249 431.516,-161.598 439.377,-168.701 442.091,-162.249"/>
</g>
<!-- Node14 -->
<g id="node14" class="node"><title>Node14</title>
<g id="a_node14"><a xlink:href="classbsc_1_1process__pipeline.html" target="_top" xlink:title="bsc::process_pipeline\l\&lt; K, R \&gt;">
<polygon fill="white" stroke="black" points="496.5,-186 496.5,-216 607.5,-216 607.5,-186 496.5,-186"/>
<text text-anchor="start" x="504.5" y="-204" font-family="Helvetica,sans-Serif" font-size="10.00">bsc::process_pipeline</text>
<text text-anchor="middle" x="552" y="-193" font-family="Helvetica,sans-Serif" font-size="10.00">&lt; K, R &gt;</text>
</a>
</g>
</g>
<!-- Node12&#45;&gt;Node14 -->
<g id="edge13" class="edge"><title>Node12&#45;&gt;Node14</title>
<path fill="none" stroke="midnightblue" d="M421.918,-164.013C431.877,-166.587 442.294,-169.335 452,-172 467.975,-176.387 485.331,-181.389 500.984,-185.99"/>
<polygon fill="midnightblue" stroke="midnightblue" points="422.711,-160.603 412.154,-161.508 420.97,-167.384 422.711,-160.603"/>
</g>
<!-- Node15 -->
<g id="node15" class="node"><title>Node15</title>
<g id="a_node15"><a xlink:href="classbsc_1_1socket__pipeline.html" target="_top" xlink:title="bsc::socket_pipeline\l\&lt; K, S, R \&gt;">
<polygon fill="white" stroke="black" points="499,-137 499,-167 605,-167 605,-137 499,-137"/>
<text text-anchor="start" x="507" y="-155" font-family="Helvetica,sans-Serif" font-size="10.00">bsc::socket_pipeline</text>
<text text-anchor="middle" x="552" y="-144" font-family="Helvetica,sans-Serif" font-size="10.00">&lt; K, S, R &gt;</text>
</a>
</g>
</g>
<!-- Node12&#45;&gt;Node15 -->
<g id="edge14" class="edge"><title>Node12&#45;&gt;Node15</title>
<path fill="none" stroke="midnightblue" d="M451.989,-152C467.818,-152 484.103,-152 498.778,-152"/>
<polygon fill="midnightblue" stroke="midnightblue" points="451.674,-148.5 441.674,-152 451.674,-155.5 451.674,-148.5"/>
</g>
<!-- Node16 -->
<g id="node16" class="node"><title>Node16</title>
<g id="a_node16"><a xlink:href="classbsc_1_1unix__domain__socket__pipeline.html" target="_top" xlink:title="bsc::unix_domain_socket\l_pipeline\&lt; K, R \&gt;">
<polygon fill="white" stroke="black" points="488,-88 488,-118 616,-118 616,-88 488,-88"/>
<text text-anchor="start" x="496" y="-106" font-family="Helvetica,sans-Serif" font-size="10.00">bsc::unix_domain_socket</text>
<text text-anchor="middle" x="552" y="-95" font-family="Helvetica,sans-Serif" font-size="10.00">_pipeline&lt; K, R &gt;</text>
</a>
</g>
</g>
<!-- Node12&#45;&gt;Node16 -->
<g id="edge15" class="edge"><title>Node12&#45;&gt;Node16</title>
<path fill="none" stroke="midnightblue" d="M424.723,-140.076C433.827,-137.813 443.212,-135.4 452,-133 468.805,-128.411 487.089,-122.992 503.317,-118.032"/>
<polygon fill="midnightblue" stroke="midnightblue" points="423.872,-136.68 414.996,-142.464 425.542,-143.478 423.872,-136.68"/>
</g>
<!-- Node18 -->
<g id="node18" class="node"><title>Node18</title>
<g id="a_node18"><a xlink:href="classbsc_1_1child__process__pipeline.html" target="_top" xlink:title="child_process_pipeline\l\&lt; T, basic_router\&lt; T \&gt; \&gt;">
<polygon fill="white" stroke="black" points="490,-39 490,-69 614,-69 614,-39 490,-39"/>
<text text-anchor="start" x="498" y="-57" font-family="Helvetica,sans-Serif" font-size="10.00">child_process_pipeline</text>
<text text-anchor="middle" x="552" y="-46" font-family="Helvetica,sans-Serif" font-size="10.00">&lt; T, basic_router&lt; T &gt; &gt;</text>
</a>
</g>
</g>
<!-- Node17&#45;&gt;Node18 -->
<g id="edge17" class="edge"><title>Node17&#45;&gt;Node18</title>
<path fill="none" stroke="midnightblue" d="M429.701,-101.895C437.266,-99.827 444.874,-97.5212 452,-95 468.681,-89.0982 471.72,-84.9325 488,-78 495.107,-74.9735 502.737,-71.9123 510.148,-69.0355"/>
<polygon fill="midnightblue" stroke="midnightblue" points="428.615,-98.5616 419.825,-104.476 430.385,-105.334 428.615,-98.5616"/>
</g>
</g>
</svg>
