<?xml version="1.0" encoding="UTF-8" standalone="no"?>
<!DOCTYPE svg PUBLIC "-//W3C//DTD SVG 1.1//EN"
 "http://www.w3.org/Graphics/SVG/1.1/DTD/svg11.dtd">
<!-- Generated by graphviz version 2.36.0 (20140111.2315)
 -->
<!-- Title: factory::pipeline_base Pages: 1 -->
<svg width="642pt" height="455pt"
 viewBox="0.00 0.00 642.00 455.00" xmlns="http://www.w3.org/2000/svg" xmlns:xlink="http://www.w3.org/1999/xlink">
<g id="graph0" class="graph" transform="scale(1 1) rotate(0) translate(4 451)">
<title>factory::pipeline_base</title>
<polygon fill="white" stroke="none" points="-4,4 -4,-451 638,-451 638,4 -4,4"/>
<!-- Node1 -->
<g id="node1" class="node"><title>Node1</title>
<polygon fill="#bfbfbf" stroke="black" points="0,-136.5 0,-155.5 112,-155.5 112,-136.5 0,-136.5"/>
<text text-anchor="middle" x="56" y="-143.5" font-family="Helvetica,sans-Serif" font-size="10.00">factory::pipeline_base</text>
</g>
<!-- Node2 -->
<g id="node2" class="node"><title>Node2</title>
<g id="a_node2"><a xlink:href="classfactory_1_1basic__pipeline.html" target="_top" xlink:title="factory::basic_pipeline\&lt; T \&gt;">
<polygon fill="white" stroke="black" points="148,-356.5 148,-375.5 286,-375.5 286,-356.5 148,-356.5"/>
<text text-anchor="middle" x="217" y="-363.5" font-family="Helvetica,sans-Serif" font-size="10.00">factory::basic_pipeline&lt; T &gt;</text>
</a>
</g>
</g>
<!-- Node1&#45;&gt;Node2 -->
<g id="edge1" class="edge"><title>Node1&#45;&gt;Node2</title>
<path fill="none" stroke="midnightblue" d="M68.1375,-164.502C84.6597,-191.591 117.052,-243.348 148,-285 167.93,-311.823 193.891,-341.447 207.235,-356.332"/>
<polygon fill="midnightblue" stroke="midnightblue" points="70.979,-162.438 62.8005,-155.702 64.9938,-166.068 70.979,-162.438"/>
</g>
<!-- Node5 -->
<g id="node5" class="node"><title>Node5</title>
<g id="a_node5"><a xlink:href="classfactory_1_1basic__pipeline.html" target="_top" xlink:title="factory::basic_pipeline\l\&lt; T, Kernels, Traits,\l Threads, Mutex, Lock,\l Semaphore \&gt;">
<polygon fill="white" stroke="black" points="158,-224 158,-276 276,-276 276,-224 158,-224"/>
<text text-anchor="start" x="166" y="-264" font-family="Helvetica,sans-Serif" font-size="10.00">factory::basic_pipeline</text>
<text text-anchor="start" x="166" y="-253" font-family="Helvetica,sans-Serif" font-size="10.00">&lt; T, Kernels, Traits,</text>
<text text-anchor="start" x="166" y="-242" font-family="Helvetica,sans-Serif" font-size="10.00"> Threads, Mutex, Lock,</text>
<text text-anchor="middle" x="217" y="-231" font-family="Helvetica,sans-Serif" font-size="10.00"> Semaphore &gt;</text>
</a>
</g>
</g>
<!-- Node1&#45;&gt;Node5 -->
<g id="edge4" class="edge"><title>Node1&#45;&gt;Node5</title>
<path fill="none" stroke="midnightblue" d="M76.6655,-162.095C94.6807,-176.495 122.366,-197.774 148,-214 153.305,-217.358 158.954,-220.696 164.642,-223.909"/>
<polygon fill="midnightblue" stroke="midnightblue" points="78.631,-159.184 68.6498,-155.63 74.2367,-164.632 78.631,-159.184"/>
</g>
<!-- Node17 -->
<g id="node17" class="node"><title>Node17</title>
<g id="a_node17"><a xlink:href="classfactory_1_1external__process__handler.html" target="_top" xlink:title="factory::external_process\l_handler\&lt; T, Router \&gt;">
<polygon fill="white" stroke="black" points="153.5,-175 153.5,-205 280.5,-205 280.5,-175 153.5,-175"/>
<text text-anchor="start" x="161.5" y="-193" font-family="Helvetica,sans-Serif" font-size="10.00">factory::external_process</text>
<text text-anchor="middle" x="217" y="-182" font-family="Helvetica,sans-Serif" font-size="10.00">_handler&lt; T, Router &gt;</text>
</a>
</g>
</g>
<!-- Node1&#45;&gt;Node17 -->
<g id="edge16" class="edge"><title>Node1&#45;&gt;Node17</title>
<path fill="none" stroke="midnightblue" d="M101.232,-158.24C119.926,-163.413 141.883,-169.49 161.559,-174.935"/>
<polygon fill="midnightblue" stroke="midnightblue" points="102.072,-154.841 91.5006,-155.547 100.205,-161.588 102.072,-154.841"/>
</g>
<!-- Node18 -->
<g id="node18" class="node"><title>Node18</title>
<g id="a_node18"><a xlink:href="classfactory_1_1Factory.html" target="_top" xlink:title="factory::Factory\&lt; T \&gt;">
<polygon fill="white" stroke="black" points="162,-136.5 162,-155.5 272,-155.5 272,-136.5 162,-136.5"/>
<text text-anchor="middle" x="217" y="-143.5" font-family="Helvetica,sans-Serif" font-size="10.00">factory::Factory&lt; T &gt;</text>
</a>
</g>
</g>
<!-- Node1&#45;&gt;Node18 -->
<g id="edge17" class="edge"><title>Node1&#45;&gt;Node18</title>
<path fill="none" stroke="midnightblue" d="M122.492,-146C135.543,-146 149.115,-146 161.739,-146"/>
<polygon fill="midnightblue" stroke="midnightblue" points="122.164,-142.5 112.164,-146 122.164,-149.5 122.164,-142.5"/>
</g>
<!-- Node19 -->
<g id="node19" class="node"><title>Node19</title>
<g id="a_node19"><a xlink:href="classfactory_1_1Multi__pipeline.html" target="_top" xlink:title="factory::Multi_pipeline\&lt; T \&gt;">
<polygon fill="white" stroke="black" points="149,-98.5 149,-117.5 285,-117.5 285,-98.5 149,-98.5"/>
<text text-anchor="middle" x="217" y="-105.5" font-family="Helvetica,sans-Serif" font-size="10.00">factory::Multi_pipeline&lt; T &gt;</text>
</a>
</g>
</g>
<!-- Node1&#45;&gt;Node19 -->
<g id="edge18" class="edge"><title>Node1&#45;&gt;Node19</title>
<path fill="none" stroke="midnightblue" d="M107.077,-134.032C129.358,-128.707 155.229,-122.524 176.166,-117.52"/>
<polygon fill="midnightblue" stroke="midnightblue" points="106.035,-130.682 97.1224,-136.411 107.662,-137.491 106.035,-130.682"/>
</g>
<!-- Node20 -->
<g id="node20" class="node"><title>Node20</title>
<g id="a_node20"><a xlink:href="classfactory_1_1process__handler.html" target="_top" xlink:title="factory::process_handler\l\&lt; K, R \&gt;">
<polygon fill="white" stroke="black" points="155,-49 155,-79 279,-79 279,-49 155,-49"/>
<text text-anchor="start" x="163" y="-67" font-family="Helvetica,sans-Serif" font-size="10.00">factory::process_handler</text>
<text text-anchor="middle" x="217" y="-56" font-family="Helvetica,sans-Serif" font-size="10.00">&lt; K, R &gt;</text>
</a>
</g>
</g>
<!-- Node1&#45;&gt;Node20 -->
<g id="edge19" class="edge"><title>Node1&#45;&gt;Node20</title>
<path fill="none" stroke="midnightblue" d="M78.9446,-130.442C96.9279,-118.144 123.342,-101.093 148,-89 155.228,-85.4555 163.091,-82.1207 170.822,-79.1124"/>
<polygon fill="midnightblue" stroke="midnightblue" points="76.5891,-127.816 70.363,-136.388 80.576,-133.57 76.5891,-127.816"/>
</g>
<!-- Node21 -->
<g id="node21" class="node"><title>Node21</title>
<g id="a_node21"><a xlink:href="classfactory_1_1remote__client.html" target="_top" xlink:title="factory::remote_client\l\&lt; T, Socket, Router \&gt;">
<polygon fill="white" stroke="black" points="160.5,-0 160.5,-30 273.5,-30 273.5,-0 160.5,-0"/>
<text text-anchor="start" x="168.5" y="-18" font-family="Helvetica,sans-Serif" font-size="10.00">factory::remote_client</text>
<text text-anchor="middle" x="217" y="-7" font-family="Helvetica,sans-Serif" font-size="10.00">&lt; T, Socket, Router &gt;</text>
</a>
</g>
</g>
<!-- Node1&#45;&gt;Node21 -->
<g id="edge20" class="edge"><title>Node1&#45;&gt;Node21</title>
<path fill="none" stroke="midnightblue" d="M68.2628,-127.511C83.5583,-103.851 113.039,-63.0551 148,-39 152.951,-35.5937 158.435,-32.6211 164.08,-30.0391"/>
<polygon fill="midnightblue" stroke="midnightblue" points="65.1411,-125.9 62.7712,-136.226 71.0634,-129.632 65.1411,-125.9"/>
</g>
<!-- Node3 -->
<g id="node3" class="node"><title>Node3</title>
<g id="a_node3"><a xlink:href="classfactory_1_1parallel__pipeline.html" target="_top" xlink:title="factory::parallel_pipeline\&lt; T \&gt;">
<polygon fill="white" stroke="black" points="322,-417.5 322,-436.5 468,-436.5 468,-417.5 322,-417.5"/>
<text text-anchor="middle" x="395" y="-424.5" font-family="Helvetica,sans-Serif" font-size="10.00">factory::parallel_pipeline&lt; T &gt;</text>
</a>
</g>
</g>
<!-- Node2&#45;&gt;Node3 -->
<g id="edge2" class="edge"><title>Node2&#45;&gt;Node3</title>
<path fill="none" stroke="midnightblue" d="M252.518,-379.016C272.701,-386.525 298.712,-396.029 322,-404 335.408,-408.589 350.318,-413.4 363.076,-417.428"/>
<polygon fill="midnightblue" stroke="midnightblue" points="253.708,-375.724 243.115,-375.505 251.259,-382.282 253.708,-375.724"/>
</g>
<!-- Node4 -->
<g id="node4" class="node"><title>Node4</title>
<g id="a_node4"><a xlink:href="structfactory_1_1io__pipeline.html" target="_top" xlink:title="factory::io_pipeline\&lt; T \&gt;">
<polygon fill="white" stroke="black" points="508,-427.5 508,-446.5 630,-446.5 630,-427.5 508,-427.5"/>
<text text-anchor="middle" x="569" y="-434.5" font-family="Helvetica,sans-Serif" font-size="10.00">factory::io_pipeline&lt; T &gt;</text>
</a>
</g>
</g>
<!-- Node3&#45;&gt;Node4 -->
<g id="edge3" class="edge"><title>Node3&#45;&gt;Node4</title>
<path fill="none" stroke="midnightblue" d="M478.664,-431.806C488.511,-432.379 498.416,-432.954 507.863,-433.504"/>
<polygon fill="midnightblue" stroke="midnightblue" points="478.631,-428.298 468.445,-431.212 478.225,-435.287 478.631,-428.298"/>
</g>
<!-- Node6 -->
<g id="node6" class="node"><title>Node6</title>
<g id="a_node6"><a xlink:href="structfactory_1_1basic__socket__pipeline.html" target="_top" xlink:title="basic_socket_pipeline\l\&lt; K, external_process\l_handler\&lt; K, R \&gt; \&gt;">
<polygon fill="white" stroke="black" points="338.5,-354.5 338.5,-395.5 451.5,-395.5 451.5,-354.5 338.5,-354.5"/>
<text text-anchor="start" x="346.5" y="-383.5" font-family="Helvetica,sans-Serif" font-size="10.00">basic_socket_pipeline</text>
<text text-anchor="start" x="346.5" y="-372.5" font-family="Helvetica,sans-Serif" font-size="10.00">&lt; K, external_process</text>
<text text-anchor="middle" x="395" y="-361.5" font-family="Helvetica,sans-Serif" font-size="10.00">_handler&lt; K, R &gt; &gt;</text>
</a>
</g>
</g>
<!-- Node5&#45;&gt;Node6 -->
<g id="edge5" class="edge"><title>Node5&#45;&gt;Node6</title>
<path fill="none" stroke="midnightblue" d="M252.214,-283.01C271.725,-300.85 297.175,-322.531 322,-339 330.268,-344.485 339.489,-349.697 348.497,-354.365"/>
<polygon fill="midnightblue" stroke="midnightblue" points="254.492,-280.35 244.774,-276.13 249.74,-285.489 254.492,-280.35"/>
</g>
<!-- Node8 -->
<g id="node8" class="node"><title>Node8</title>
<g id="a_node8"><a xlink:href="structfactory_1_1basic__socket__pipeline.html" target="_top" xlink:title="basic_socket_pipeline\l\&lt; K, process_handler\l\&lt; K, R \&gt; \&gt;">
<polygon fill="white" stroke="black" points="338.5,-289.5 338.5,-330.5 451.5,-330.5 451.5,-289.5 338.5,-289.5"/>
<text text-anchor="start" x="346.5" y="-318.5" font-family="Helvetica,sans-Serif" font-size="10.00">basic_socket_pipeline</text>
<text text-anchor="start" x="346.5" y="-307.5" font-family="Helvetica,sans-Serif" font-size="10.00">&lt; K, process_handler</text>
<text text-anchor="middle" x="395" y="-296.5" font-family="Helvetica,sans-Serif" font-size="10.00">&lt; K, R &gt; &gt;</text>
</a>
</g>
</g>
<!-- Node5&#45;&gt;Node8 -->
<g id="edge7" class="edge"><title>Node5&#45;&gt;Node8</title>
<path fill="none" stroke="midnightblue" d="M285.657,-273.065C303.07,-279.001 321.608,-285.321 338.335,-291.023"/>
<polygon fill="midnightblue" stroke="midnightblue" points="286.711,-269.727 276.117,-269.813 284.452,-276.352 286.711,-269.727"/>
</g>
<!-- Node11 -->
<g id="node11" class="node"><title>Node11</title>
<g id="a_node11"><a xlink:href="structfactory_1_1basic__socket__pipeline.html" target="_top" xlink:title="basic_socket_pipeline\l\&lt; T, process_handler\l\&lt; T, basic_router\&lt; T \&gt; \&gt; \&gt;">
<polygon fill="white" stroke="black" points="328.5,-229.5 328.5,-270.5 461.5,-270.5 461.5,-229.5 328.5,-229.5"/>
<text text-anchor="start" x="336.5" y="-258.5" font-family="Helvetica,sans-Serif" font-size="10.00">basic_socket_pipeline</text>
<text text-anchor="start" x="336.5" y="-247.5" font-family="Helvetica,sans-Serif" font-size="10.00">&lt; T, process_handler</text>
<text text-anchor="middle" x="395" y="-236.5" font-family="Helvetica,sans-Serif" font-size="10.00">&lt; T, basic_router&lt; T &gt; &gt; &gt;</text>
</a>
</g>
</g>
<!-- Node5&#45;&gt;Node11 -->
<g id="edge10" class="edge"><title>Node5&#45;&gt;Node11</title>
<path fill="none" stroke="midnightblue" d="M286.485,-250C300.245,-250 314.675,-250 328.336,-250"/>
<polygon fill="midnightblue" stroke="midnightblue" points="286.117,-246.5 276.117,-250 286.117,-253.5 286.117,-246.5"/>
</g>
<!-- Node13 -->
<g id="node13" class="node"><title>Node13</title>
<g id="a_node13"><a xlink:href="structfactory_1_1basic__socket__pipeline.html" target="_top" xlink:title="basic_socket_pipeline\l\&lt; T, remote_client\&lt; T,\l Socket, Router \&gt; \&gt;">
<polygon fill="white" stroke="black" points="338,-169.5 338,-210.5 452,-210.5 452,-169.5 338,-169.5"/>
<text text-anchor="start" x="346" y="-198.5" font-family="Helvetica,sans-Serif" font-size="10.00">basic_socket_pipeline</text>
<text text-anchor="start" x="346" y="-187.5" font-family="Helvetica,sans-Serif" font-size="10.00">&lt; T, remote_client&lt; T,</text>
<text text-anchor="middle" x="395" y="-176.5" font-family="Helvetica,sans-Serif" font-size="10.00"> Socket, Router &gt; &gt;</text>
</a>
</g>
</g>
<!-- Node5&#45;&gt;Node13 -->
<g id="edge12" class="edge"><title>Node5&#45;&gt;Node13</title>
<path fill="none" stroke="midnightblue" d="M286.039,-226.805C303.135,-220.977 321.291,-214.787 337.74,-209.18"/>
<polygon fill="midnightblue" stroke="midnightblue" points="284.452,-223.648 276.117,-230.187 286.711,-230.273 284.452,-223.648"/>
</g>
<!-- Node15 -->
<g id="node15" class="node"><title>Node15</title>
<g id="a_node15"><a xlink:href="structfactory_1_1basic__socket__pipeline.html" target="_top" xlink:title="factory::basic_socket\l_pipeline\&lt; T, Handler \&gt;">
<polygon fill="white" stroke="black" points="335.5,-121 335.5,-151 454.5,-151 454.5,-121 335.5,-121"/>
<text text-anchor="start" x="343.5" y="-139" font-family="Helvetica,sans-Serif" font-size="10.00">factory::basic_socket</text>
<text text-anchor="middle" x="395" y="-128" font-family="Helvetica,sans-Serif" font-size="10.00">_pipeline&lt; T, Handler &gt;</text>
</a>
</g>
</g>
<!-- Node5&#45;&gt;Node15 -->
<g id="edge14" class="edge"><title>Node5&#45;&gt;Node15</title>
<path fill="none" stroke="midnightblue" d="M281.494,-217.832C283.045,-216.587 284.551,-215.31 286,-214 307.401,-194.661 299.077,-177.508 322,-160 326.503,-156.561 331.524,-153.6 336.763,-151.054"/>
<polygon fill="midnightblue" stroke="midnightblue" points="279.392,-215.033 273.415,-223.781 283.543,-220.67 279.392,-215.033"/>
</g>
<!-- Node16 -->
<g id="node16" class="node"><title>Node16</title>
<g id="a_node16"><a xlink:href="structfactory_1_1timer__pipeline.html" target="_top" xlink:title="factory::timer_pipeline\&lt; T \&gt;">
<polygon fill="white" stroke="black" points="326.5,-82.5 326.5,-101.5 463.5,-101.5 463.5,-82.5 326.5,-82.5"/>
<text text-anchor="middle" x="395" y="-89.5" font-family="Helvetica,sans-Serif" font-size="10.00">factory::timer_pipeline&lt; T &gt;</text>
</a>
</g>
</g>
<!-- Node5&#45;&gt;Node16 -->
<g id="edge15" class="edge"><title>Node5&#45;&gt;Node16</title>
<path fill="none" stroke="midnightblue" d="M283.329,-216.921C284.251,-215.971 285.143,-214.997 286,-214 317.612,-177.227 286.395,-143.923 322,-111 326.176,-107.138 331.044,-104.043 336.242,-101.564"/>
<polygon fill="midnightblue" stroke="midnightblue" points="280.817,-214.473 275.72,-223.761 285.497,-219.678 280.817,-214.473"/>
</g>
<!-- Node7 -->
<g id="node7" class="node"><title>Node7</title>
<g id="a_node7"><a xlink:href="classfactory_1_1unix__domain__socket__pipeline.html" target="_top" xlink:title="factory::unix_domain\l_socket_pipeline\&lt; K, R \&gt;">
<polygon fill="white" stroke="black" points="505,-378 505,-408 633,-408 633,-378 505,-378"/>
<text text-anchor="start" x="513" y="-396" font-family="Helvetica,sans-Serif" font-size="10.00">factory::unix_domain</text>
<text text-anchor="middle" x="569" y="-385" font-family="Helvetica,sans-Serif" font-size="10.00">_socket_pipeline&lt; K, R &gt;</text>
</a>
</g>
</g>
<!-- Node6&#45;&gt;Node7 -->
<g id="edge6" class="edge"><title>Node6&#45;&gt;Node7</title>
<path fill="none" stroke="midnightblue" d="M461.969,-381.904C476.091,-383.382 490.977,-384.939 504.984,-386.405"/>
<polygon fill="midnightblue" stroke="midnightblue" points="462.153,-378.404 451.843,-380.844 461.425,-385.366 462.153,-378.404"/>
</g>
<!-- Node9 -->
<g id="node9" class="node"><title>Node9</title>
<g id="a_node9"><a xlink:href="classfactory_1_1child__process__pipeline.html" target="_top" xlink:title="factory::child_process\l_pipeline\&lt; K, R \&gt;">
<polygon fill="white" stroke="black" points="512.5,-329 512.5,-359 625.5,-359 625.5,-329 512.5,-329"/>
<text text-anchor="start" x="520.5" y="-347" font-family="Helvetica,sans-Serif" font-size="10.00">factory::child_process</text>
<text text-anchor="middle" x="569" y="-336" font-family="Helvetica,sans-Serif" font-size="10.00">_pipeline&lt; K, R &gt;</text>
</a>
</g>
</g>
<!-- Node8&#45;&gt;Node9 -->
<g id="edge8" class="edge"><title>Node8&#45;&gt;Node9</title>
<path fill="none" stroke="midnightblue" d="M462.042,-323.055C478.68,-326.344 496.372,-329.841 512.437,-333.017"/>
<polygon fill="midnightblue" stroke="midnightblue" points="462.332,-319.545 451.843,-321.039 460.975,-326.412 462.332,-319.545"/>
</g>
<!-- Node10 -->
<g id="node10" class="node"><title>Node10</title>
<g id="a_node10"><a xlink:href="classfactory_1_1process__pipeline.html" target="_top" xlink:title="factory::process_pipeline\l\&lt; K, R \&gt;">
<polygon fill="white" stroke="black" points="506.5,-280 506.5,-310 631.5,-310 631.5,-280 506.5,-280"/>
<text text-anchor="start" x="514.5" y="-298" font-family="Helvetica,sans-Serif" font-size="10.00">factory::process_pipeline</text>
<text text-anchor="middle" x="569" y="-287" font-family="Helvetica,sans-Serif" font-size="10.00">&lt; K, R &gt;</text>
</a>
</g>
</g>
<!-- Node8&#45;&gt;Node10 -->
<g id="edge9" class="edge"><title>Node8&#45;&gt;Node10</title>
<path fill="none" stroke="midnightblue" d="M461.843,-304.258C476.51,-302.979 492.006,-301.627 506.49,-300.364"/>
<polygon fill="midnightblue" stroke="midnightblue" points="461.502,-300.774 451.843,-305.13 462.11,-307.748 461.502,-300.774"/>
</g>
<!-- Node12 -->
<g id="node12" class="node"><title>Node12</title>
<g id="a_node12"><a xlink:href="classfactory_1_1child__process__pipeline.html" target="_top" xlink:title="factory::child_process\l_pipeline\&lt; T, basic_router\l\&lt; T \&gt; \&gt;">
<polygon fill="white" stroke="black" points="504.5,-220.5 504.5,-261.5 633.5,-261.5 633.5,-220.5 504.5,-220.5"/>
<text text-anchor="start" x="512.5" y="-249.5" font-family="Helvetica,sans-Serif" font-size="10.00">factory::child_process</text>
<text text-anchor="start" x="512.5" y="-238.5" font-family="Helvetica,sans-Serif" font-size="10.00">_pipeline&lt; T, basic_router</text>
<text text-anchor="middle" x="569" y="-227.5" font-family="Helvetica,sans-Serif" font-size="10.00">&lt; T &gt; &gt;</text>
</a>
</g>
</g>
<!-- Node11&#45;&gt;Node12 -->
<g id="edge11" class="edge"><title>Node11&#45;&gt;Node12</title>
<path fill="none" stroke="midnightblue" d="M471.838,-246.032C482.698,-245.463 493.777,-244.884 504.37,-244.329"/>
<polygon fill="midnightblue" stroke="midnightblue" points="471.32,-242.554 461.516,-246.572 471.686,-249.544 471.32,-242.554"/>
</g>
<!-- Node14 -->
<g id="node14" class="node"><title>Node14</title>
<g id="a_node14"><a xlink:href="classfactory_1_1socket__pipeline.html" target="_top" xlink:title="factory::socket_pipeline\l\&lt; T, Socket, Router \&gt;">
<polygon fill="white" stroke="black" points="509,-172 509,-202 629,-202 629,-172 509,-172"/>
<text text-anchor="start" x="517" y="-190" font-family="Helvetica,sans-Serif" font-size="10.00">factory::socket_pipeline</text>
<text text-anchor="middle" x="569" y="-179" font-family="Helvetica,sans-Serif" font-size="10.00">&lt; T, Socket, Router &gt;</text>
</a>
</g>
</g>
<!-- Node13&#45;&gt;Node14 -->
<g id="edge13" class="edge"><title>Node13&#45;&gt;Node14</title>
<path fill="none" stroke="midnightblue" d="M462.701,-188.837C477.929,-188.571 494.009,-188.291 508.894,-188.031"/>
<polygon fill="midnightblue" stroke="midnightblue" points="462.257,-185.344 452.319,-189.018 462.379,-192.343 462.257,-185.344"/>
</g>
</g>
</svg>
