<?xml version="1.0" encoding="UTF-8" standalone="no"?>
<!DOCTYPE svg PUBLIC "-//W3C//DTD SVG 1.1//EN"
 "http://www.w3.org/Graphics/SVG/1.1/DTD/svg11.dtd">
<!-- Generated by graphviz version 2.36.0 (20140111.2315)
 -->
<!-- Title: bsc::pipeline_base Pages: 1 -->
<svg width="626pt" height="503pt"
 viewBox="0.00 0.00 626.00 503.00" xmlns="http://www.w3.org/2000/svg" xmlns:xlink="http://www.w3.org/1999/xlink">
<g id="graph0" class="graph" transform="scale(1 1) rotate(0) translate(4 499)">
<title>bsc::pipeline_base</title>
<polygon fill="white" stroke="none" points="-4,4 -4,-499 622,-499 622,4 -4,4"/>
<!-- Node1 -->
<g id="node1" class="node"><title>Node1</title>
<polygon fill="#bfbfbf" stroke="black" points="0,-131.5 0,-150.5 98,-150.5 98,-131.5 0,-131.5"/>
<text text-anchor="middle" x="49" y="-138.5" font-family="Helvetica,sans-Serif" font-size="10.00">bsc::pipeline_base</text>
</g>
<!-- Node2 -->
<g id="node2" class="node"><title>Node2</title>
<g id="a_node2"><a xlink:href="classbsc_1_1basic__pipeline.html" target="_top" xlink:title="bsc::basic_pipeline\&lt; T \&gt;">
<polygon fill="white" stroke="black" points="134,-423.5 134,-442.5 258,-442.5 258,-423.5 134,-423.5"/>
<text text-anchor="middle" x="196" y="-430.5" font-family="Helvetica,sans-Serif" font-size="10.00">bsc::basic_pipeline&lt; T &gt;</text>
</a>
</g>
</g>
<!-- Node1&#45;&gt;Node2 -->
<g id="edge1" class="edge"><title>Node1&#45;&gt;Node2</title>
<path fill="none" stroke="midnightblue" d="M52.7383,-160.921C59.6474,-205.284 81.1531,-314.04 134,-387 145.282,-402.576 163.353,-415.265 176.904,-423.34"/>
<polygon fill="midnightblue" stroke="midnightblue" points="56.177,-160.248 51.2548,-150.866 49.2519,-161.27 56.177,-160.248"/>
</g>
<!-- Node5 -->
<g id="node5" class="node"><title>Node5</title>
<g id="a_node5"><a xlink:href="classbsc_1_1basic__handler.html" target="_top" xlink:title="bsc::basic_handler">
<polygon fill="white" stroke="black" points="147,-358.5 147,-377.5 245,-377.5 245,-358.5 147,-358.5"/>
<text text-anchor="middle" x="196" y="-365.5" font-family="Helvetica,sans-Serif" font-size="10.00">bsc::basic_handler</text>
</a>
</g>
</g>
<!-- Node1&#45;&gt;Node5 -->
<g id="edge4" class="edge"><title>Node1&#45;&gt;Node5</title>
<path fill="none" stroke="midnightblue" d="M61.7452,-159.387C91.0474,-205.26 166.613,-323.56 188.793,-358.282"/>
<polygon fill="midnightblue" stroke="midnightblue" points="64.5633,-157.297 56.2305,-150.754 58.6641,-161.065 64.5633,-157.297"/>
</g>
<!-- Node10 -->
<g id="node10" class="node"><title>Node10</title>
<g id="a_node10"><a xlink:href="classbsc_1_1basic__pipeline.html" target="_top" xlink:title="bsc::basic_pipeline\l\&lt; T, Kernels, Traits,\l Threads, Mutex, Lock,\l Semaphore \&gt;">
<polygon fill="white" stroke="black" points="137,-175 137,-227 255,-227 255,-175 137,-175"/>
<text text-anchor="start" x="145" y="-215" font-family="Helvetica,sans-Serif" font-size="10.00">bsc::basic_pipeline</text>
<text text-anchor="start" x="145" y="-204" font-family="Helvetica,sans-Serif" font-size="10.00">&lt; T, Kernels, Traits,</text>
<text text-anchor="start" x="145" y="-193" font-family="Helvetica,sans-Serif" font-size="10.00"> Threads, Mutex, Lock,</text>
<text text-anchor="middle" x="196" y="-182" font-family="Helvetica,sans-Serif" font-size="10.00"> Semaphore &gt;</text>
</a>
</g>
</g>
<!-- Node1&#45;&gt;Node10 -->
<g id="edge10" class="edge"><title>Node1&#45;&gt;Node10</title>
<path fill="none" stroke="midnightblue" d="M82.4118,-154.412C98.4305,-161.04 118.257,-169.244 136.788,-176.912"/>
<polygon fill="midnightblue" stroke="midnightblue" points="83.5541,-151.097 72.9757,-150.507 80.8776,-157.565 83.5541,-151.097"/>
</g>
<!-- Node21 -->
<g id="node21" class="node"><title>Node21</title>
<g id="a_node21"><a xlink:href="classbsc_1_1external__process__handler.html" target="_top" xlink:title="bsc::external_process\l_handler\&lt; T, Router \&gt;">
<polygon fill="white" stroke="black" points="139.5,-126 139.5,-156 252.5,-156 252.5,-126 139.5,-126"/>
<text text-anchor="start" x="147.5" y="-144" font-family="Helvetica,sans-Serif" font-size="10.00">bsc::external_process</text>
<text text-anchor="middle" x="196" y="-133" font-family="Helvetica,sans-Serif" font-size="10.00">_handler&lt; T, Router &gt;</text>
</a>
</g>
</g>
<!-- Node1&#45;&gt;Node21 -->
<g id="edge21" class="edge"><title>Node1&#45;&gt;Node21</title>
<path fill="none" stroke="midnightblue" d="M108.363,-141C118.606,-141 129.241,-141 139.406,-141"/>
<polygon fill="midnightblue" stroke="midnightblue" points="108.283,-137.5 98.2829,-141 108.283,-144.5 108.283,-137.5"/>
</g>
<!-- Node22 -->
<g id="node22" class="node"><title>Node22</title>
<g id="a_node22"><a xlink:href="classbsc_1_1Factory.html" target="_top" xlink:title="bsc::Factory\&lt; T \&gt;">
<polygon fill="white" stroke="black" points="148.5,-87.5 148.5,-106.5 243.5,-106.5 243.5,-87.5 148.5,-87.5"/>
<text text-anchor="middle" x="196" y="-94.5" font-family="Helvetica,sans-Serif" font-size="10.00">bsc::Factory&lt; T &gt;</text>
</a>
</g>
</g>
<!-- Node1&#45;&gt;Node22 -->
<g id="edge22" class="edge"><title>Node1&#45;&gt;Node22</title>
<path fill="none" stroke="midnightblue" d="M91.287,-128.472C114.27,-121.497 142.426,-112.954 163.599,-106.529"/>
<polygon fill="midnightblue" stroke="midnightblue" points="90.0156,-125.2 81.4628,-131.453 92.0483,-131.898 90.0156,-125.2"/>
</g>
<!-- Node23 -->
<g id="node23" class="node"><title>Node23</title>
<g id="a_node23"><a xlink:href="classbsc_1_1Multi__pipeline.html" target="_top" xlink:title="bsc::Multi_pipeline\&lt; T \&gt;">
<polygon fill="white" stroke="black" points="135,-49.5 135,-68.5 257,-68.5 257,-49.5 135,-49.5"/>
<text text-anchor="middle" x="196" y="-56.5" font-family="Helvetica,sans-Serif" font-size="10.00">bsc::Multi_pipeline&lt; T &gt;</text>
</a>
</g>
</g>
<!-- Node1&#45;&gt;Node23 -->
<g id="edge23" class="edge"><title>Node1&#45;&gt;Node23</title>
<path fill="none" stroke="midnightblue" d="M67.9742,-124.621C84.2014,-110.573 109.261,-90.6517 134,-78 141.209,-74.3132 149.267,-71.1841 157.103,-68.5943"/>
<polygon fill="midnightblue" stroke="midnightblue" points="65.5198,-122.119 60.3419,-131.362 70.1539,-127.365 65.5198,-122.119"/>
</g>
<!-- Node24 -->
<g id="node24" class="node"><title>Node24</title>
<g id="a_node24"><a xlink:href="classbsc_1_1remote__client.html" target="_top" xlink:title="bsc::remote_client\l\&lt; T, Socket, Router \&gt;">
<polygon fill="white" stroke="black" points="139.5,-0 139.5,-30 252.5,-30 252.5,-0 139.5,-0"/>
<text text-anchor="start" x="147.5" y="-18" font-family="Helvetica,sans-Serif" font-size="10.00">bsc::remote_client</text>
<text text-anchor="middle" x="196" y="-7" font-family="Helvetica,sans-Serif" font-size="10.00">&lt; T, Socket, Router &gt;</text>
</a>
</g>
</g>
<!-- Node1&#45;&gt;Node24 -->
<g id="edge24" class="edge"><title>Node1&#45;&gt;Node24</title>
<path fill="none" stroke="midnightblue" d="M61.1066,-122.815C75.4829,-100.603 102.465,-63.1379 134,-40 139.075,-36.2762 144.785,-32.9985 150.623,-30.1472"/>
<polygon fill="midnightblue" stroke="midnightblue" points="58.1196,-120.99 55.7405,-131.314 64.0387,-124.727 58.1196,-120.99"/>
</g>
<!-- Node3 -->
<g id="node3" class="node"><title>Node3</title>
<g id="a_node3"><a xlink:href="classbsc_1_1parallel__pipeline.html" target="_top" xlink:title="bsc::parallel_pipeline\&lt; T \&gt;">
<polygon fill="white" stroke="black" points="307.5,-475.5 307.5,-494.5 438.5,-494.5 438.5,-475.5 307.5,-475.5"/>
<text text-anchor="middle" x="373" y="-482.5" font-family="Helvetica,sans-Serif" font-size="10.00">bsc::parallel_pipeline&lt; T &gt;</text>
</a>
</g>
</g>
<!-- Node2&#45;&gt;Node3 -->
<g id="edge2" class="edge"><title>Node2&#45;&gt;Node3</title>
<path fill="none" stroke="midnightblue" d="M233.996,-445.857C252.01,-451.95 274.04,-459.156 294,-465 306.477,-468.653 320.183,-472.292 332.578,-475.444"/>
<polygon fill="midnightblue" stroke="midnightblue" points="235.034,-442.514 224.44,-442.602 232.777,-449.14 235.034,-442.514"/>
</g>
<!-- Node4 -->
<g id="node4" class="node"><title>Node4</title>
<g id="a_node4"><a xlink:href="structbsc_1_1io__pipeline.html" target="_top" xlink:title="bsc::io_pipeline\&lt; T \&gt;">
<polygon fill="white" stroke="black" points="499,-475.5 499,-494.5 607,-494.5 607,-475.5 499,-475.5"/>
<text text-anchor="middle" x="553" y="-482.5" font-family="Helvetica,sans-Serif" font-size="10.00">bsc::io_pipeline&lt; T &gt;</text>
</a>
</g>
</g>
<!-- Node3&#45;&gt;Node4 -->
<g id="edge3" class="edge"><title>Node3&#45;&gt;Node4</title>
<path fill="none" stroke="midnightblue" d="M448.856,-485C465.645,-485 483.123,-485 498.817,-485"/>
<polygon fill="midnightblue" stroke="midnightblue" points="448.514,-481.5 438.514,-485 448.514,-488.5 448.514,-481.5"/>
</g>
<!-- Node6 -->
<g id="node6" class="node"><title>Node6</title>
<g id="a_node6"><a xlink:href="classbsc_1_1process__handler.html" target="_top" xlink:title="bsc::process_handler\l\&lt; K, R \&gt;">
<polygon fill="white" stroke="black" points="318,-426 318,-456 428,-456 428,-426 318,-426"/>
<text text-anchor="start" x="326" y="-444" font-family="Helvetica,sans-Serif" font-size="10.00">bsc::process_handler</text>
<text text-anchor="middle" x="373" y="-433" font-family="Helvetica,sans-Serif" font-size="10.00">&lt; K, R &gt;</text>
</a>
</g>
</g>
<!-- Node5&#45;&gt;Node6 -->
<g id="edge5" class="edge"><title>Node5&#45;&gt;Node6</title>
<path fill="none" stroke="midnightblue" d="M238.317,-381.805C255.305,-389.801 275.339,-399.441 294,-407 311.002,-413.887 330.675,-420.181 346.01,-425.883"/>
<polygon fill="midnightblue" stroke="midnightblue" points="239.762,-378.617 229.22,-377.556 236.799,-384.959 239.762,-378.617"/>
</g>
<!-- Node5&#45;&gt;Node6 -->
<g id="edge6" class="edge"><title>Node5&#45;&gt;Node6</title>
<path fill="none" stroke="midnightblue" d="M213.277,-383.468C232.275,-396.266 264.816,-413.179 294,-425 301.644,-428.096 309.829,-431.073 317.916,-433.72"/>
<polygon fill="midnightblue" stroke="midnightblue" points="215.266,-380.587 205.113,-377.557 211.16,-386.256 215.266,-380.587"/>
</g>
<!-- Node7 -->
<g id="node7" class="node"><title>Node7</title>
<g id="a_node7"><a xlink:href="classbsc_1_1process__notify__handler.html" target="_top" xlink:title="bsc::process_notify\l_handler\&lt; K, R \&gt;">
<polygon fill="white" stroke="black" points="322,-377 322,-407 424,-407 424,-377 322,-377"/>
<text text-anchor="start" x="330" y="-395" font-family="Helvetica,sans-Serif" font-size="10.00">bsc::process_notify</text>
<text text-anchor="middle" x="373" y="-384" font-family="Helvetica,sans-Serif" font-size="10.00">_handler&lt; K, R &gt;</text>
</a>
</g>
</g>
<!-- Node5&#45;&gt;Node7 -->
<g id="edge7" class="edge"><title>Node5&#45;&gt;Node7</title>
<path fill="none" stroke="midnightblue" d="M255.283,-375.993C276.804,-378.945 300.989,-382.261 321.739,-385.107"/>
<polygon fill="midnightblue" stroke="midnightblue" points="255.666,-372.513 245.283,-374.622 254.714,-379.448 255.666,-372.513"/>
</g>
<!-- Node8 -->
<g id="node8" class="node"><title>Node8</title>
<g id="a_node8"><a xlink:href="classbsc_1_1unix__socket__client.html" target="_top" xlink:title="bsc::unix_socket_client\l\&lt; K, R \&gt;">
<polygon fill="white" stroke="black" points="313.5,-328 313.5,-358 432.5,-358 432.5,-328 313.5,-328"/>
<text text-anchor="start" x="321.5" y="-346" font-family="Helvetica,sans-Serif" font-size="10.00">bsc::unix_socket_client</text>
<text text-anchor="middle" x="373" y="-335" font-family="Helvetica,sans-Serif" font-size="10.00">&lt; K, R &gt;</text>
</a>
</g>
</g>
<!-- Node5&#45;&gt;Node8 -->
<g id="edge8" class="edge"><title>Node5&#45;&gt;Node8</title>
<path fill="none" stroke="midnightblue" d="M255.401,-359.657C274.027,-356.996 294.638,-354.052 313.286,-351.388"/>
<polygon fill="midnightblue" stroke="midnightblue" points="254.687,-356.223 245.283,-361.102 255.677,-363.153 254.687,-356.223"/>
</g>
<!-- Node9 -->
<g id="node9" class="node"><title>Node9</title>
<g id="a_node9"><a xlink:href="classbsc_1_1unix__socket__server.html" target="_top" xlink:title="bsc::unix_socket_server\l\&lt; K, R \&gt;">
<polygon fill="white" stroke="black" points="311.5,-279 311.5,-309 434.5,-309 434.5,-279 311.5,-279"/>
<text text-anchor="start" x="319.5" y="-297" font-family="Helvetica,sans-Serif" font-size="10.00">bsc::unix_socket_server</text>
<text text-anchor="middle" x="373" y="-286" font-family="Helvetica,sans-Serif" font-size="10.00">&lt; K, R &gt;</text>
</a>
</g>
</g>
<!-- Node5&#45;&gt;Node9 -->
<g id="edge9" class="edge"><title>Node5&#45;&gt;Node9</title>
<path fill="none" stroke="midnightblue" d="M222.824,-353.55C242.074,-343.127 269.209,-329.161 294,-319 302.553,-315.495 311.791,-312.158 320.815,-309.13"/>
<polygon fill="midnightblue" stroke="midnightblue" points="220.883,-350.622 213.792,-358.494 224.244,-356.762 220.883,-350.622"/>
</g>
<!-- Node11 -->
<g id="node11" class="node"><title>Node11</title>
<g id="a_node11"><a xlink:href="classbsc_1_1basic__socket__pipeline.html" target="_top" xlink:title="basic_socket_pipeline\&lt; K \&gt;">
<polygon fill="white" stroke="black" points="304.5,-240.5 304.5,-259.5 441.5,-259.5 441.5,-240.5 304.5,-240.5"/>
<text text-anchor="middle" x="373" y="-247.5" font-family="Helvetica,sans-Serif" font-size="10.00">basic_socket_pipeline&lt; K &gt;</text>
</a>
</g>
</g>
<!-- Node10&#45;&gt;Node11 -->
<g id="edge11" class="edge"><title>Node10&#45;&gt;Node11</title>
<path fill="none" stroke="midnightblue" d="M264.805,-221.643C274.584,-224.512 284.537,-227.373 294,-230 306.797,-233.552 320.838,-237.222 333.437,-240.433"/>
<polygon fill="midnightblue" stroke="midnightblue" points="265.691,-218.255 255.109,-218.78 263.709,-224.969 265.691,-218.255"/>
</g>
<!-- Node14 -->
<g id="node14" class="node"><title>Node14</title>
<g id="a_node14"><a xlink:href="classbsc_1_1basic__socket__pipeline.html" target="_top" xlink:title="basic_socket_pipeline\l\&lt; K, process_handler\l\&lt; K, R \&gt; \&gt;">
<polygon fill="white" stroke="black" points="316.5,-180.5 316.5,-221.5 429.5,-221.5 429.5,-180.5 316.5,-180.5"/>
<text text-anchor="start" x="324.5" y="-209.5" font-family="Helvetica,sans-Serif" font-size="10.00">basic_socket_pipeline</text>
<text text-anchor="start" x="324.5" y="-198.5" font-family="Helvetica,sans-Serif" font-size="10.00">&lt; K, process_handler</text>
<text text-anchor="middle" x="373" y="-187.5" font-family="Helvetica,sans-Serif" font-size="10.00">&lt; K, R &gt; &gt;</text>
</a>
</g>
</g>
<!-- Node10&#45;&gt;Node14 -->
<g id="edge14" class="edge"><title>Node10&#45;&gt;Node14</title>
<path fill="none" stroke="midnightblue" d="M265.597,-201C282.421,-201 300.224,-201 316.355,-201"/>
<polygon fill="midnightblue" stroke="midnightblue" points="265.272,-197.5 255.272,-201 265.272,-204.5 265.272,-197.5"/>
</g>
<!-- Node16 -->
<g id="node16" class="node"><title>Node16</title>
<g id="a_node16"><a xlink:href="classbsc_1_1basic__socket__pipeline.html" target="_top" xlink:title="basic_socket_pipeline\l\&lt; T, process_handler\l\&lt; T, basic_router\&lt; T \&gt; \&gt; \&gt;">
<polygon fill="white" stroke="black" points="306.5,-120.5 306.5,-161.5 439.5,-161.5 439.5,-120.5 306.5,-120.5"/>
<text text-anchor="start" x="314.5" y="-149.5" font-family="Helvetica,sans-Serif" font-size="10.00">basic_socket_pipeline</text>
<text text-anchor="start" x="314.5" y="-138.5" font-family="Helvetica,sans-Serif" font-size="10.00">&lt; T, process_handler</text>
<text text-anchor="middle" x="373" y="-127.5" font-family="Helvetica,sans-Serif" font-size="10.00">&lt; T, basic_router&lt; T &gt; &gt; &gt;</text>
</a>
</g>
</g>
<!-- Node10&#45;&gt;Node16 -->
<g id="edge16" class="edge"><title>Node10&#45;&gt;Node16</title>
<path fill="none" stroke="midnightblue" d="M264.857,-177.735C280.465,-172.384 296.951,-166.731 312.188,-161.507"/>
<polygon fill="midnightblue" stroke="midnightblue" points="263.597,-174.467 255.272,-181.021 265.867,-181.088 263.597,-174.467"/>
</g>
<!-- Node18 -->
<g id="node18" class="node"><title>Node18</title>
<g id="a_node18"><a xlink:href="classbsc_1_1basic__socket__pipeline.html" target="_top" xlink:title="bsc::basic_socket_pipeline\&lt; T \&gt;">
<polygon fill="white" stroke="black" points="294,-82.5 294,-101.5 452,-101.5 452,-82.5 294,-82.5"/>
<text text-anchor="middle" x="373" y="-89.5" font-family="Helvetica,sans-Serif" font-size="10.00">bsc::basic_socket_pipeline&lt; T &gt;</text>
</a>
</g>
</g>
<!-- Node10&#45;&gt;Node18 -->
<g id="edge18" class="edge"><title>Node10&#45;&gt;Node18</title>
<path fill="none" stroke="midnightblue" d="M254.094,-168.507C255.436,-167.361 256.741,-166.191 258,-165 278.948,-145.171 270.372,-127.544 294,-111 299.48,-107.163 305.647,-104.096 312.052,-101.647"/>
<polygon fill="midnightblue" stroke="midnightblue" points="251.768,-165.883 246.059,-174.808 256.088,-171.391 251.768,-165.883"/>
</g>
<!-- Node20 -->
<g id="node20" class="node"><title>Node20</title>
<g id="a_node20"><a xlink:href="structbsc_1_1timer__pipeline.html" target="_top" xlink:title="bsc::timer_pipeline\&lt; T \&gt;">
<polygon fill="white" stroke="black" points="312,-44.5 312,-63.5 434,-63.5 434,-44.5 312,-44.5"/>
<text text-anchor="middle" x="373" y="-51.5" font-family="Helvetica,sans-Serif" font-size="10.00">bsc::timer_pipeline&lt; T &gt;</text>
</a>
</g>
</g>
<!-- Node10&#45;&gt;Node20 -->
<g id="edge20" class="edge"><title>Node10&#45;&gt;Node20</title>
<path fill="none" stroke="midnightblue" d="M255.343,-167.94C256.261,-166.981 257.148,-166.001 258,-165 286.464,-131.568 260.943,-101.898 294,-73 299.247,-68.4134 305.419,-64.8937 311.956,-62.199"/>
<polygon fill="midnightblue" stroke="midnightblue" points="252.777,-165.544 247.777,-174.884 257.511,-170.701 252.777,-165.544"/>
</g>
<!-- Node12 -->
<g id="node12" class="node"><title>Node12</title>
<g id="a_node12"><a xlink:href="classbsc_1_1process__pipeline.html" target="_top" xlink:title="bsc::process_pipeline\l\&lt; K, R \&gt;">
<polygon fill="white" stroke="black" points="497.5,-284 497.5,-314 608.5,-314 608.5,-284 497.5,-284"/>
<text text-anchor="start" x="505.5" y="-302" font-family="Helvetica,sans-Serif" font-size="10.00">bsc::process_pipeline</text>
<text text-anchor="middle" x="553" y="-291" font-family="Helvetica,sans-Serif" font-size="10.00">&lt; K, R &gt;</text>
</a>
</g>
</g>
<!-- Node11&#45;&gt;Node12 -->
<g id="edge12" class="edge"><title>Node11&#45;&gt;Node12</title>
<path fill="none" stroke="midnightblue" d="M421.913,-262.034C431.872,-264.606 442.29,-267.348 452,-270 468.043,-274.382 485.47,-279.36 501.214,-283.939"/>
<polygon fill="midnightblue" stroke="midnightblue" points="422.705,-258.624 412.149,-259.528 420.965,-265.404 422.705,-258.624"/>
</g>
<!-- Node13 -->
<g id="node13" class="node"><title>Node13</title>
<g id="a_node13"><a xlink:href="classbsc_1_1unix__domain__socket__pipeline.html" target="_top" xlink:title="bsc::unix_domain_socket\l_pipeline\&lt; K, R \&gt;">
<polygon fill="white" stroke="black" points="489,-235 489,-265 617,-265 617,-235 489,-235"/>
<text text-anchor="start" x="497" y="-253" font-family="Helvetica,sans-Serif" font-size="10.00">bsc::unix_domain_socket</text>
<text text-anchor="middle" x="553" y="-242" font-family="Helvetica,sans-Serif" font-size="10.00">_pipeline&lt; K, R &gt;</text>
</a>
</g>
</g>
<!-- Node11&#45;&gt;Node13 -->
<g id="edge13" class="edge"><title>Node11&#45;&gt;Node13</title>
<path fill="none" stroke="midnightblue" d="M451.857,-250C464.238,-250 476.91,-250 488.896,-250"/>
<polygon fill="midnightblue" stroke="midnightblue" points="451.548,-246.5 441.548,-250 451.548,-253.5 451.548,-246.5"/>
</g>
<!-- Node15 -->
<g id="node15" class="node"><title>Node15</title>
<g id="a_node15"><a xlink:href="classbsc_1_1child__process__pipeline.html" target="_top" xlink:title="bsc::child_process\l_pipeline\&lt; K, R \&gt;">
<polygon fill="white" stroke="black" points="504,-186 504,-216 602,-216 602,-186 504,-186"/>
<text text-anchor="start" x="512" y="-204" font-family="Helvetica,sans-Serif" font-size="10.00">bsc::child_process</text>
<text text-anchor="middle" x="553" y="-193" font-family="Helvetica,sans-Serif" font-size="10.00">_pipeline&lt; K, R &gt;</text>
</a>
</g>
</g>
<!-- Node14&#45;&gt;Node15 -->
<g id="edge15" class="edge"><title>Node14&#45;&gt;Node15</title>
<path fill="none" stroke="midnightblue" d="M440.049,-201C461.213,-201 484.235,-201 503.868,-201"/>
<polygon fill="midnightblue" stroke="midnightblue" points="439.832,-197.5 429.832,-201 439.832,-204.5 439.832,-197.5"/>
</g>
<!-- Node17 -->
<g id="node17" class="node"><title>Node17</title>
<g id="a_node17"><a xlink:href="classbsc_1_1child__process__pipeline.html" target="_top" xlink:title="bsc::child_process\l_pipeline\&lt; T, basic\l_router\&lt; T \&gt; \&gt;">
<polygon fill="white" stroke="black" points="503.5,-120.5 503.5,-161.5 602.5,-161.5 602.5,-120.5 503.5,-120.5"/>
<text text-anchor="start" x="511.5" y="-149.5" font-family="Helvetica,sans-Serif" font-size="10.00">bsc::child_process</text>
<text text-anchor="start" x="511.5" y="-138.5" font-family="Helvetica,sans-Serif" font-size="10.00">_pipeline&lt; T, basic</text>
<text text-anchor="middle" x="553" y="-127.5" font-family="Helvetica,sans-Serif" font-size="10.00">_router&lt; T &gt; &gt;</text>
</a>
</g>
</g>
<!-- Node16&#45;&gt;Node17 -->
<g id="edge17" class="edge"><title>Node16&#45;&gt;Node17</title>
<path fill="none" stroke="midnightblue" d="M449.539,-141C467.747,-141 486.724,-141 503.327,-141"/>
<polygon fill="midnightblue" stroke="midnightblue" points="449.522,-137.5 439.522,-141 449.522,-144.5 449.522,-137.5"/>
</g>
<!-- Node19 -->
<g id="node19" class="node"><title>Node19</title>
<g id="a_node19"><a xlink:href="classbsc_1_1socket__pipeline.html" target="_top" xlink:title="bsc::socket_pipeline\&lt; T \&gt;">
<polygon fill="white" stroke="black" points="488,-82.5 488,-101.5 618,-101.5 618,-82.5 488,-82.5"/>
<text text-anchor="middle" x="553" y="-89.5" font-family="Helvetica,sans-Serif" font-size="10.00">bsc::socket_pipeline&lt; T &gt;</text>
</a>
</g>
</g>
<!-- Node18&#45;&gt;Node19 -->
<g id="edge19" class="edge"><title>Node18&#45;&gt;Node19</title>
<path fill="none" stroke="midnightblue" d="M462.206,-92C470.857,-92 479.519,-92 487.864,-92"/>
<polygon fill="midnightblue" stroke="midnightblue" points="462.073,-88.5001 452.073,-92 462.073,-95.5001 462.073,-88.5001"/>
</g>
</g>
</svg>
