<?xml version="1.0" encoding="UTF-8" standalone="no"?>
<!DOCTYPE svg PUBLIC "-//W3C//DTD SVG 1.1//EN"
 "http://www.w3.org/Graphics/SVG/1.1/DTD/svg11.dtd">
<!-- Generated by graphviz version 2.36.0 (20140111.2315)
 -->
<!-- Title: asc::process_pipeline&lt; K, R &gt; Pages: 1 -->
<svg width="391pt" height="258pt"
 viewBox="0.00 0.00 391.00 258.00" xmlns="http://www.w3.org/2000/svg" xmlns:xlink="http://www.w3.org/1999/xlink">
<g id="graph0" class="graph" transform="scale(1 1) rotate(0) translate(4 254)">
<title>asc::process_pipeline&lt; K, R &gt;</title>
<polygon fill="white" stroke="none" points="-4,4 -4,-254 387,-254 387,4 -4,4"/>
<!-- Node1 -->
<g id="node1" class="node"><title>Node1</title>
<polygon fill="#bfbfbf" stroke="black" points="159.5,-1 159.5,-31 270.5,-31 270.5,-1 159.5,-1"/>
<text text-anchor="start" x="167.5" y="-19" font-family="Helvetica,sans-Serif" font-size="10.00">asc::process_pipeline</text>
<text text-anchor="middle" x="215" y="-8" font-family="Helvetica,sans-Serif" font-size="10.00">&lt; K, R &gt;</text>
</g>
<!-- Node2 -->
<g id="node2" class="node"><title>Node2</title>
<g id="a_node2"><a xlink:href="structasc_1_1basic__socket__pipeline.html" target="_top" xlink:title="asc::basic_socket_pipeline\l\&lt; K, process_handler\&lt; K, R \&gt; \&gt;">
<polygon fill="white" stroke="black" points="136.5,-71 136.5,-101 293.5,-101 293.5,-71 136.5,-71"/>
<text text-anchor="start" x="144.5" y="-89" font-family="Helvetica,sans-Serif" font-size="10.00">asc::basic_socket_pipeline</text>
<text text-anchor="middle" x="215" y="-78" font-family="Helvetica,sans-Serif" font-size="10.00">&lt; K, process_handler&lt; K, R &gt; &gt;</text>
</a>
</g>
</g>
<!-- Node2&#45;&gt;Node1 -->
<g id="edge1" class="edge"><title>Node2&#45;&gt;Node1</title>
<path fill="none" stroke="midnightblue" d="M215,-60.7688C215,-50.8141 215,-39.6384 215,-31.0716"/>
<polygon fill="midnightblue" stroke="midnightblue" points="211.5,-60.9103 215,-70.9104 218.5,-60.9104 211.5,-60.9103"/>
</g>
<!-- Node3 -->
<g id="node3" class="node"><title>Node3</title>
<g id="a_node3"><a xlink:href="classasc_1_1basic__pipeline.html" target="_top" xlink:title="Proxy_pipeline_base\l\&lt; K , process_handler\l\&lt; K, R \&gt; &#160;\&gt;">
<polygon fill="white" stroke="black" points="158.5,-140.5 158.5,-181.5 271.5,-181.5 271.5,-140.5 158.5,-140.5"/>
<text text-anchor="start" x="166.5" y="-169.5" font-family="Helvetica,sans-Serif" font-size="10.00">Proxy_pipeline_base</text>
<text text-anchor="start" x="166.5" y="-158.5" font-family="Helvetica,sans-Serif" font-size="10.00">&lt; K , process_handler</text>
<text text-anchor="middle" x="215" y="-147.5" font-family="Helvetica,sans-Serif" font-size="10.00">&lt; K, R &gt; &gt;</text>
</a>
</g>
</g>
<!-- Node3&#45;&gt;Node2 -->
<g id="edge2" class="edge"><title>Node3&#45;&gt;Node2</title>
<path fill="none" stroke="midnightblue" d="M215,-130.372C215,-120.335 215,-109.579 215,-101.289"/>
<polygon fill="midnightblue" stroke="midnightblue" points="211.5,-130.437 215,-140.437 218.5,-130.437 211.5,-130.437"/>
</g>
<!-- Node4 -->
<g id="node4" class="node"><title>Node4</title>
<g id="a_node4"><a xlink:href="classasc_1_1pipeline__base.html" target="_top" xlink:title="asc::pipeline_base">
<polygon fill="white" stroke="black" points="0,-230.5 0,-249.5 98,-249.5 98,-230.5 0,-230.5"/>
<text text-anchor="middle" x="49" y="-237.5" font-family="Helvetica,sans-Serif" font-size="10.00">asc::pipeline_base</text>
</a>
</g>
</g>
<!-- Node4&#45;&gt;Node3 -->
<g id="edge3" class="edge"><title>Node4&#45;&gt;Node3</title>
<path fill="none" stroke="midnightblue" d="M76.7318,-226.136C102.928,-213.985 142.587,-195.589 172.724,-181.61"/>
<polygon fill="midnightblue" stroke="midnightblue" points="74.998,-223.082 67.3992,-230.465 77.9435,-229.433 74.998,-223.082"/>
</g>
<!-- Node5 -->
<g id="node5" class="node"><title>Node5</title>
<polygon fill="white" stroke="#bfbfbf" points="116,-230.5 116,-249.5 166,-249.5 166,-230.5 116,-230.5"/>
<text text-anchor="middle" x="141" y="-237.5" font-family="Helvetica,sans-Serif" font-size="10.00">Kernels</text>
</g>
<!-- Node5&#45;&gt;Node3 -->
<g id="edge4" class="edge"><title>Node5&#45;&gt;Node3</title>
<path fill="none" stroke="#9a32cd" stroke-dasharray="5,2" d="M152.891,-222.018C158.137,-214.945 164.565,-206.81 171,-200 176.962,-193.691 183.883,-187.332 190.447,-181.669"/>
<polygon fill="#9a32cd" stroke="#9a32cd" points="149.979,-220.072 146.967,-230.23 155.656,-224.168 149.979,-220.072"/>
<text text-anchor="middle" x="191" y="-203.5" font-family="Helvetica,sans-Serif" font-size="10.00"> _kernels</text>
</g>
<!-- Node6 -->
<g id="node6" class="node"><title>Node6</title>
<polygon fill="white" stroke="#bfbfbf" points="184,-230.5 184,-249.5 250,-249.5 250,-230.5 184,-230.5"/>
<text text-anchor="middle" x="217" y="-237.5" font-family="Helvetica,sans-Serif" font-size="10.00">Semaphore</text>
</g>
<!-- Node6&#45;&gt;Node3 -->
<g id="edge5" class="edge"><title>Node6&#45;&gt;Node3</title>
<path fill="none" stroke="#9a32cd" stroke-dasharray="5,2" d="M216.269,-220.374C216.17,-217.568 216.077,-214.708 216,-212 215.718,-202.106 215.489,-191.109 215.321,-181.953"/>
<polygon fill="#9a32cd" stroke="#9a32cd" points="212.776,-220.627 216.648,-230.489 219.771,-220.365 212.776,-220.627"/>
<text text-anchor="middle" x="244.5" y="-203.5" font-family="Helvetica,sans-Serif" font-size="10.00"> _semaphore</text>
</g>
<!-- Node7 -->
<g id="node7" class="node"><title>Node7</title>
<polygon fill="white" stroke="#bfbfbf" points="269,-230.5 269,-249.5 321,-249.5 321,-230.5 269,-230.5"/>
<text text-anchor="middle" x="295" y="-237.5" font-family="Helvetica,sans-Serif" font-size="10.00">Threads</text>
</g>
<!-- Node7&#45;&gt;Node3 -->
<g id="edge6" class="edge"><title>Node7&#45;&gt;Node3</title>
<path fill="none" stroke="#9a32cd" stroke-dasharray="5,2" d="M287.144,-221.015C283.504,-213.956 278.71,-206.102 273,-200 266.584,-193.144 258.694,-186.938 250.823,-181.622"/>
<polygon fill="#9a32cd" stroke="#9a32cd" points="284.186,-222.947 291.624,-230.492 290.514,-219.955 284.186,-222.947"/>
<text text-anchor="middle" x="301.5" y="-203.5" font-family="Helvetica,sans-Serif" font-size="10.00"> _threads</text>
</g>
<!-- Node8 -->
<g id="node8" class="node"><title>Node8</title>
<polygon fill="white" stroke="#bfbfbf" points="339,-230.5 339,-249.5 383,-249.5 383,-230.5 339,-230.5"/>
<text text-anchor="middle" x="361" y="-237.5" font-family="Helvetica,sans-Serif" font-size="10.00">Mutex</text>
</g>
<!-- Node8&#45;&gt;Node3 -->
<g id="edge7" class="edge"><title>Node8&#45;&gt;Node3</title>
<path fill="none" stroke="#9a32cd" stroke-dasharray="5,2" d="M349.012,-222.077C342.872,-214.442 334.834,-205.846 326,-200 309.693,-189.208 290.007,-181.167 271.77,-175.33"/>
<polygon fill="#9a32cd" stroke="#9a32cd" points="346.46,-224.506 355.28,-230.377 352.046,-220.288 346.46,-224.506"/>
<text text-anchor="middle" x="357" y="-203.5" font-family="Helvetica,sans-Serif" font-size="10.00"> _mutex</text>
</g>
</g>
</svg>
