<?xml version="1.0" encoding="UTF-8" standalone="no"?>
<!DOCTYPE svg PUBLIC "-//W3C//DTD SVG 1.1//EN"
 "http://www.w3.org/Graphics/SVG/1.1/DTD/svg11.dtd">
<!-- Generated by graphviz version 2.36.0 (20140111.2315)
 -->
<!-- Title: bsc::pipeline_base Pages: 1 -->
<svg width="600pt" height="455pt"
 viewBox="0.00 0.00 600.00 455.00" xmlns="http://www.w3.org/2000/svg" xmlns:xlink="http://www.w3.org/1999/xlink">
<g id="graph0" class="graph" transform="scale(1 1) rotate(0) translate(4 451)">
<title>bsc::pipeline_base</title>
<polygon fill="white" stroke="none" points="-4,4 -4,-451 596,-451 596,4 -4,4"/>
<!-- Node1 -->
<g id="node1" class="node"><title>Node1</title>
<polygon fill="#bfbfbf" stroke="black" points="0,-136.5 0,-155.5 98,-155.5 98,-136.5 0,-136.5"/>
<text text-anchor="middle" x="49" y="-143.5" font-family="Helvetica,sans-Serif" font-size="10.00">bsc::pipeline_base</text>
</g>
<!-- Node2 -->
<g id="node2" class="node"><title>Node2</title>
<g id="a_node2"><a xlink:href="classbsc_1_1basic__pipeline.html" target="_top" xlink:title="bsc::basic_pipeline\&lt; T \&gt;">
<polygon fill="white" stroke="black" points="134,-356.5 134,-375.5 258,-375.5 258,-356.5 134,-356.5"/>
<text text-anchor="middle" x="196" y="-363.5" font-family="Helvetica,sans-Serif" font-size="10.00">bsc::basic_pipeline&lt; T &gt;</text>
</a>
</g>
</g>
<!-- Node1&#45;&gt;Node2 -->
<g id="edge1" class="edge"><title>Node1&#45;&gt;Node2</title>
<path fill="none" stroke="midnightblue" d="M60.3217,-164.404C75.6239,-191.37 105.587,-242.977 134,-285 151.946,-311.542 175.206,-341.285 187.154,-356.262"/>
<polygon fill="midnightblue" stroke="midnightblue" points="63.3418,-162.634 55.3774,-155.647 57.2463,-166.076 63.3418,-162.634"/>
</g>
<!-- Node5 -->
<g id="node5" class="node"><title>Node5</title>
<g id="a_node5"><a xlink:href="classbsc_1_1basic__pipeline.html" target="_top" xlink:title="bsc::basic_pipeline\l\&lt; T, Kernels, Traits,\l Threads, Mutex, Lock,\l Semaphore \&gt;">
<polygon fill="white" stroke="black" points="137,-224 137,-276 255,-276 255,-224 137,-224"/>
<text text-anchor="start" x="145" y="-264" font-family="Helvetica,sans-Serif" font-size="10.00">bsc::basic_pipeline</text>
<text text-anchor="start" x="145" y="-253" font-family="Helvetica,sans-Serif" font-size="10.00">&lt; T, Kernels, Traits,</text>
<text text-anchor="start" x="145" y="-242" font-family="Helvetica,sans-Serif" font-size="10.00"> Threads, Mutex, Lock,</text>
<text text-anchor="middle" x="196" y="-231" font-family="Helvetica,sans-Serif" font-size="10.00"> Semaphore &gt;</text>
</a>
</g>
</g>
<!-- Node1&#45;&gt;Node5 -->
<g id="edge4" class="edge"><title>Node1&#45;&gt;Node5</title>
<path fill="none" stroke="midnightblue" d="M68.5858,-162.376C85.2093,-176.695 110.506,-197.69 134,-214 138.849,-217.366 144.024,-220.735 149.232,-223.989"/>
<polygon fill="midnightblue" stroke="midnightblue" points="70.5828,-159.474 60.7389,-155.557 65.9912,-164.758 70.5828,-159.474"/>
</g>
<!-- Node17 -->
<g id="node17" class="node"><title>Node17</title>
<g id="a_node17"><a xlink:href="classbsc_1_1external__process__handler.html" target="_top" xlink:title="bsc::external_process\l_handler\&lt; T, Router \&gt;">
<polygon fill="white" stroke="black" points="139.5,-175 139.5,-205 252.5,-205 252.5,-175 139.5,-175"/>
<text text-anchor="start" x="147.5" y="-193" font-family="Helvetica,sans-Serif" font-size="10.00">bsc::external_process</text>
<text text-anchor="middle" x="196" y="-182" font-family="Helvetica,sans-Serif" font-size="10.00">_handler&lt; T, Router &gt;</text>
</a>
</g>
</g>
<!-- Node1&#45;&gt;Node17 -->
<g id="edge16" class="edge"><title>Node1&#45;&gt;Node17</title>
<path fill="none" stroke="midnightblue" d="M91.0457,-158.455C107.938,-163.581 127.657,-169.565 145.353,-174.935"/>
<polygon fill="midnightblue" stroke="midnightblue" points="92.0483,-155.102 81.4628,-155.547 90.0156,-161.8 92.0483,-155.102"/>
</g>
<!-- Node18 -->
<g id="node18" class="node"><title>Node18</title>
<g id="a_node18"><a xlink:href="classbsc_1_1Factory.html" target="_top" xlink:title="bsc::Factory\&lt; T \&gt;">
<polygon fill="white" stroke="black" points="148.5,-136.5 148.5,-155.5 243.5,-155.5 243.5,-136.5 148.5,-136.5"/>
<text text-anchor="middle" x="196" y="-143.5" font-family="Helvetica,sans-Serif" font-size="10.00">bsc::Factory&lt; T &gt;</text>
</a>
</g>
</g>
<!-- Node1&#45;&gt;Node18 -->
<g id="edge17" class="edge"><title>Node1&#45;&gt;Node18</title>
<path fill="none" stroke="midnightblue" d="M108.315,-146C121.645,-146 135.641,-146 148.404,-146"/>
<polygon fill="midnightblue" stroke="midnightblue" points="108.283,-142.5 98.2829,-146 108.283,-149.5 108.283,-142.5"/>
</g>
<!-- Node19 -->
<g id="node19" class="node"><title>Node19</title>
<g id="a_node19"><a xlink:href="classbsc_1_1Multi__pipeline.html" target="_top" xlink:title="bsc::Multi_pipeline\&lt; T \&gt;">
<polygon fill="white" stroke="black" points="135,-98.5 135,-117.5 257,-117.5 257,-98.5 135,-98.5"/>
<text text-anchor="middle" x="196" y="-105.5" font-family="Helvetica,sans-Serif" font-size="10.00">bsc::Multi_pipeline&lt; T &gt;</text>
</a>
</g>
</g>
<!-- Node1&#45;&gt;Node19 -->
<g id="edge18" class="edge"><title>Node1&#45;&gt;Node19</title>
<path fill="none" stroke="midnightblue" d="M96.4928,-133.816C116.624,-128.54 139.838,-122.456 158.673,-117.52"/>
<polygon fill="midnightblue" stroke="midnightblue" points="95.3757,-130.49 86.5896,-136.411 97.1503,-137.262 95.3757,-130.49"/>
</g>
<!-- Node20 -->
<g id="node20" class="node"><title>Node20</title>
<g id="a_node20"><a xlink:href="classbsc_1_1process__handler.html" target="_top" xlink:title="bsc::process_handler\l\&lt; K, R \&gt;">
<polygon fill="white" stroke="black" points="141,-49 141,-79 251,-79 251,-49 141,-49"/>
<text text-anchor="start" x="149" y="-67" font-family="Helvetica,sans-Serif" font-size="10.00">bsc::process_handler</text>
<text text-anchor="middle" x="196" y="-56" font-family="Helvetica,sans-Serif" font-size="10.00">&lt; K, R &gt;</text>
</a>
</g>
</g>
<!-- Node1&#45;&gt;Node20 -->
<g id="edge19" class="edge"><title>Node1&#45;&gt;Node20</title>
<path fill="none" stroke="midnightblue" d="M70.6518,-130.204C87.2051,-117.989 111.333,-101.165 134,-89 140.555,-85.4819 147.714,-82.1387 154.747,-79.1083"/>
<polygon fill="midnightblue" stroke="midnightblue" points="68.2035,-127.665 62.2922,-136.457 72.3963,-133.27 68.2035,-127.665"/>
</g>
<!-- Node21 -->
<g id="node21" class="node"><title>Node21</title>
<g id="a_node21"><a xlink:href="classbsc_1_1remote__client.html" target="_top" xlink:title="bsc::remote_client\l\&lt; T, Socket, Router \&gt;">
<polygon fill="white" stroke="black" points="139.5,-0 139.5,-30 252.5,-30 252.5,-0 139.5,-0"/>
<text text-anchor="start" x="147.5" y="-18" font-family="Helvetica,sans-Serif" font-size="10.00">bsc::remote_client</text>
<text text-anchor="middle" x="196" y="-7" font-family="Helvetica,sans-Serif" font-size="10.00">&lt; T, Socket, Router &gt;</text>
</a>
</g>
</g>
<!-- Node1&#45;&gt;Node21 -->
<g id="edge20" class="edge"><title>Node1&#45;&gt;Node21</title>
<path fill="none" stroke="midnightblue" d="M60.3694,-127.348C74.3118,-103.804 101.182,-63.4363 134,-39 138.564,-35.6016 143.672,-32.6152 148.938,-30.0095"/>
<polygon fill="midnightblue" stroke="midnightblue" points="57.1642,-125.9 55.2059,-136.312 63.2299,-129.394 57.1642,-125.9"/>
</g>
<!-- Node3 -->
<g id="node3" class="node"><title>Node3</title>
<g id="a_node3"><a xlink:href="classbsc_1_1parallel__pipeline.html" target="_top" xlink:title="bsc::parallel_pipeline\&lt; T \&gt;">
<polygon fill="white" stroke="black" points="295.5,-417.5 295.5,-436.5 426.5,-436.5 426.5,-417.5 295.5,-417.5"/>
<text text-anchor="middle" x="361" y="-424.5" font-family="Helvetica,sans-Serif" font-size="10.00">bsc::parallel_pipeline&lt; T &gt;</text>
</a>
</g>
</g>
<!-- Node2&#45;&gt;Node3 -->
<g id="edge2" class="edge"><title>Node2&#45;&gt;Node3</title>
<path fill="none" stroke="midnightblue" d="M230.346,-379.425C249.002,-386.845 272.72,-396.127 294,-404 306.405,-408.589 320.211,-413.44 331.977,-417.498"/>
<polygon fill="midnightblue" stroke="midnightblue" points="231.406,-376.08 220.821,-375.624 228.811,-382.581 231.406,-376.08"/>
</g>
<!-- Node4 -->
<g id="node4" class="node"><title>Node4</title>
<g id="a_node4"><a xlink:href="structbsc_1_1io__pipeline.html" target="_top" xlink:title="bsc::io_pipeline\&lt; T \&gt;">
<polygon fill="white" stroke="black" points="474,-427.5 474,-446.5 582,-446.5 582,-427.5 474,-427.5"/>
<text text-anchor="middle" x="528" y="-434.5" font-family="Helvetica,sans-Serif" font-size="10.00">bsc::io_pipeline&lt; T &gt;</text>
</a>
</g>
</g>
<!-- Node3&#45;&gt;Node4 -->
<g id="edge3" class="edge"><title>Node3&#45;&gt;Node4</title>
<path fill="none" stroke="midnightblue" d="M437.092,-431.551C449.51,-432.304 462.154,-433.07 473.886,-433.781"/>
<polygon fill="midnightblue" stroke="midnightblue" points="436.932,-428.035 426.739,-430.924 436.509,-435.022 436.932,-428.035"/>
</g>
<!-- Node6 -->
<g id="node6" class="node"><title>Node6</title>
<g id="a_node6"><a xlink:href="structbsc_1_1basic__socket__pipeline.html" target="_top" xlink:title="basic_socket_pipeline\l\&lt; K, external_process\l_handler\&lt; K, R \&gt; \&gt;">
<polygon fill="white" stroke="black" points="304.5,-354.5 304.5,-395.5 417.5,-395.5 417.5,-354.5 304.5,-354.5"/>
<text text-anchor="start" x="312.5" y="-383.5" font-family="Helvetica,sans-Serif" font-size="10.00">basic_socket_pipeline</text>
<text text-anchor="start" x="312.5" y="-372.5" font-family="Helvetica,sans-Serif" font-size="10.00">&lt; K, external_process</text>
<text text-anchor="middle" x="361" y="-361.5" font-family="Helvetica,sans-Serif" font-size="10.00">_handler&lt; K, R &gt; &gt;</text>
</a>
</g>
</g>
<!-- Node5&#45;&gt;Node6 -->
<g id="edge5" class="edge"><title>Node5&#45;&gt;Node6</title>
<path fill="none" stroke="midnightblue" d="M229.661,-283.703C247.708,-301.332 271.065,-322.596 294,-339 301.644,-344.467 310.208,-349.706 318.572,-354.414"/>
<polygon fill="midnightblue" stroke="midnightblue" points="231.841,-280.936 222.269,-276.395 226.92,-285.914 231.841,-280.936"/>
</g>
<!-- Node8 -->
<g id="node8" class="node"><title>Node8</title>
<g id="a_node8"><a xlink:href="structbsc_1_1basic__socket__pipeline.html" target="_top" xlink:title="basic_socket_pipeline\l\&lt; K, process_handler\l\&lt; K, R \&gt; \&gt;">
<polygon fill="white" stroke="black" points="304.5,-289.5 304.5,-330.5 417.5,-330.5 417.5,-289.5 304.5,-289.5"/>
<text text-anchor="start" x="312.5" y="-318.5" font-family="Helvetica,sans-Serif" font-size="10.00">basic_socket_pipeline</text>
<text text-anchor="start" x="312.5" y="-307.5" font-family="Helvetica,sans-Serif" font-size="10.00">&lt; K, process_handler</text>
<text text-anchor="middle" x="361" y="-296.5" font-family="Helvetica,sans-Serif" font-size="10.00">&lt; K, R &gt; &gt;</text>
</a>
</g>
</g>
<!-- Node5&#45;&gt;Node8 -->
<g id="edge7" class="edge"><title>Node5&#45;&gt;Node8</title>
<path fill="none" stroke="midnightblue" d="M264.881,-274.987C278.067,-279.841 291.742,-284.874 304.474,-289.561"/>
<polygon fill="midnightblue" stroke="midnightblue" points="265.98,-271.662 255.386,-271.492 263.562,-278.231 265.98,-271.662"/>
</g>
<!-- Node11 -->
<g id="node11" class="node"><title>Node11</title>
<g id="a_node11"><a xlink:href="structbsc_1_1basic__socket__pipeline.html" target="_top" xlink:title="basic_socket_pipeline\l\&lt; T, process_handler\l\&lt; T, basic_router\&lt; T \&gt; \&gt; \&gt;">
<polygon fill="white" stroke="black" points="294.5,-229.5 294.5,-270.5 427.5,-270.5 427.5,-229.5 294.5,-229.5"/>
<text text-anchor="start" x="302.5" y="-258.5" font-family="Helvetica,sans-Serif" font-size="10.00">basic_socket_pipeline</text>
<text text-anchor="start" x="302.5" y="-247.5" font-family="Helvetica,sans-Serif" font-size="10.00">&lt; T, process_handler</text>
<text text-anchor="middle" x="361" y="-236.5" font-family="Helvetica,sans-Serif" font-size="10.00">&lt; T, basic_router&lt; T &gt; &gt; &gt;</text>
</a>
</g>
</g>
<!-- Node5&#45;&gt;Node11 -->
<g id="edge10" class="edge"><title>Node5&#45;&gt;Node11</title>
<path fill="none" stroke="midnightblue" d="M265.577,-250C275.079,-250 284.821,-250 294.269,-250"/>
<polygon fill="midnightblue" stroke="midnightblue" points="265.386,-246.5 255.386,-250 265.386,-253.5 265.386,-246.5"/>
</g>
<!-- Node13 -->
<g id="node13" class="node"><title>Node13</title>
<g id="a_node13"><a xlink:href="structbsc_1_1basic__socket__pipeline.html" target="_top" xlink:title="basic_socket_pipeline\l\&lt; T, remote_client\&lt; T,\l Socket, Router \&gt; \&gt;">
<polygon fill="white" stroke="black" points="304,-169.5 304,-210.5 418,-210.5 418,-169.5 304,-169.5"/>
<text text-anchor="start" x="312" y="-198.5" font-family="Helvetica,sans-Serif" font-size="10.00">basic_socket_pipeline</text>
<text text-anchor="start" x="312" y="-187.5" font-family="Helvetica,sans-Serif" font-size="10.00">&lt; T, remote_client&lt; T,</text>
<text text-anchor="middle" x="361" y="-176.5" font-family="Helvetica,sans-Serif" font-size="10.00"> Socket, Router &gt; &gt;</text>
</a>
</g>
</g>
<!-- Node5&#45;&gt;Node13 -->
<g id="edge12" class="edge"><title>Node5&#45;&gt;Node13</title>
<path fill="none" stroke="midnightblue" d="M264.826,-225.033C277.935,-220.208 291.53,-215.204 304.202,-210.539"/>
<polygon fill="midnightblue" stroke="midnightblue" points="263.562,-221.769 255.386,-228.508 265.98,-228.338 263.562,-221.769"/>
</g>
<!-- Node15 -->
<g id="node15" class="node"><title>Node15</title>
<g id="a_node15"><a xlink:href="structbsc_1_1basic__socket__pipeline.html" target="_top" xlink:title="bsc::basic_socket_pipeline\l\&lt; T, Handler \&gt;">
<polygon fill="white" stroke="black" points="294,-121 294,-151 428,-151 428,-121 294,-121"/>
<text text-anchor="start" x="302" y="-139" font-family="Helvetica,sans-Serif" font-size="10.00">bsc::basic_socket_pipeline</text>
<text text-anchor="middle" x="361" y="-128" font-family="Helvetica,sans-Serif" font-size="10.00">&lt; T, Handler &gt;</text>
</a>
</g>
</g>
<!-- Node5&#45;&gt;Node15 -->
<g id="edge14" class="edge"><title>Node5&#45;&gt;Node15</title>
<path fill="none" stroke="midnightblue" d="M254.094,-217.507C255.436,-216.361 256.741,-215.191 258,-214 278.948,-194.171 271.316,-177.816 294,-160 298.315,-156.611 303.152,-153.672 308.195,-151.129"/>
<polygon fill="midnightblue" stroke="midnightblue" points="251.768,-214.883 246.059,-223.808 256.088,-220.391 251.768,-214.883"/>
</g>
<!-- Node16 -->
<g id="node16" class="node"><title>Node16</title>
<g id="a_node16"><a xlink:href="structbsc_1_1timer__pipeline.html" target="_top" xlink:title="bsc::timer_pipeline\&lt; T \&gt;">
<polygon fill="white" stroke="black" points="300,-82.5 300,-101.5 422,-101.5 422,-82.5 300,-82.5"/>
<text text-anchor="middle" x="361" y="-89.5" font-family="Helvetica,sans-Serif" font-size="10.00">bsc::timer_pipeline&lt; T &gt;</text>
</a>
</g>
</g>
<!-- Node5&#45;&gt;Node16 -->
<g id="edge15" class="edge"><title>Node5&#45;&gt;Node16</title>
<path fill="none" stroke="midnightblue" d="M255.756,-216.589C256.53,-215.742 257.279,-214.879 258,-214 288.753,-176.505 258.764,-144.318 294,-111 298.072,-107.15 302.873,-104.073 307.999,-101.615"/>
<polygon fill="midnightblue" stroke="midnightblue" points="253.047,-214.335 248.211,-223.762 257.87,-219.409 253.047,-214.335"/>
</g>
<!-- Node7 -->
<g id="node7" class="node"><title>Node7</title>
<g id="a_node7"><a xlink:href="classbsc_1_1unix__domain__socket__pipeline.html" target="_top" xlink:title="bsc::unix_domain_socket\l_pipeline\&lt; K, R \&gt;">
<polygon fill="white" stroke="black" points="464,-378 464,-408 592,-408 592,-378 464,-378"/>
<text text-anchor="start" x="472" y="-396" font-family="Helvetica,sans-Serif" font-size="10.00">bsc::unix_domain_socket</text>
<text text-anchor="middle" x="528" y="-385" font-family="Helvetica,sans-Serif" font-size="10.00">_pipeline&lt; K, R &gt;</text>
</a>
</g>
</g>
<!-- Node6&#45;&gt;Node7 -->
<g id="edge6" class="edge"><title>Node6&#45;&gt;Node7</title>
<path fill="none" stroke="midnightblue" d="M428.073,-382.208C439.858,-383.494 452.109,-384.83 463.811,-386.107"/>
<polygon fill="midnightblue" stroke="midnightblue" points="428.182,-378.699 417.861,-381.094 427.423,-385.658 428.182,-378.699"/>
</g>
<!-- Node9 -->
<g id="node9" class="node"><title>Node9</title>
<g id="a_node9"><a xlink:href="classbsc_1_1child__process__pipeline.html" target="_top" xlink:title="bsc::child_process\l_pipeline\&lt; K, R \&gt;">
<polygon fill="white" stroke="black" points="479,-329 479,-359 577,-359 577,-329 479,-329"/>
<text text-anchor="start" x="487" y="-347" font-family="Helvetica,sans-Serif" font-size="10.00">bsc::child_process</text>
<text text-anchor="middle" x="528" y="-336" font-family="Helvetica,sans-Serif" font-size="10.00">_pipeline&lt; K, R &gt;</text>
</a>
</g>
</g>
<!-- Node8&#45;&gt;Node9 -->
<g id="edge8" class="edge"><title>Node8&#45;&gt;Node9</title>
<path fill="none" stroke="midnightblue" d="M427.779,-323.554C444.858,-327.074 462.936,-330.799 478.915,-334.092"/>
<polygon fill="midnightblue" stroke="midnightblue" points="428.362,-320.101 417.861,-321.511 426.949,-326.957 428.362,-320.101"/>
</g>
<!-- Node10 -->
<g id="node10" class="node"><title>Node10</title>
<g id="a_node10"><a xlink:href="classbsc_1_1process__pipeline.html" target="_top" xlink:title="bsc::process_pipeline\l\&lt; K, R \&gt;">
<polygon fill="white" stroke="black" points="472.5,-280 472.5,-310 583.5,-310 583.5,-280 472.5,-280"/>
<text text-anchor="start" x="480.5" y="-298" font-family="Helvetica,sans-Serif" font-size="10.00">bsc::process_pipeline</text>
<text text-anchor="middle" x="528" y="-287" font-family="Helvetica,sans-Serif" font-size="10.00">&lt; K, R &gt;</text>
</a>
</g>
</g>
<!-- Node8&#45;&gt;Node10 -->
<g id="edge9" class="edge"><title>Node8&#45;&gt;Node10</title>
<path fill="none" stroke="midnightblue" d="M427.914,-304.008C442.64,-302.669 458.102,-301.263 472.315,-299.971"/>
<polygon fill="midnightblue" stroke="midnightblue" points="427.503,-300.531 417.861,-304.922 428.137,-307.502 427.503,-300.531"/>
</g>
<!-- Node12 -->
<g id="node12" class="node"><title>Node12</title>
<g id="a_node12"><a xlink:href="classbsc_1_1child__process__pipeline.html" target="_top" xlink:title="bsc::child_process\l_pipeline\&lt; T, basic\l_router\&lt; T \&gt; \&gt;">
<polygon fill="white" stroke="black" points="478.5,-220.5 478.5,-261.5 577.5,-261.5 577.5,-220.5 478.5,-220.5"/>
<text text-anchor="start" x="486.5" y="-249.5" font-family="Helvetica,sans-Serif" font-size="10.00">bsc::child_process</text>
<text text-anchor="start" x="486.5" y="-238.5" font-family="Helvetica,sans-Serif" font-size="10.00">_pipeline&lt; T, basic</text>
<text text-anchor="middle" x="528" y="-227.5" font-family="Helvetica,sans-Serif" font-size="10.00">_router&lt; T &gt; &gt;</text>
</a>
</g>
</g>
<!-- Node11&#45;&gt;Node12 -->
<g id="edge11" class="edge"><title>Node11&#45;&gt;Node12</title>
<path fill="none" stroke="midnightblue" d="M437.676,-245.872C451.489,-245.119 465.558,-244.351 478.321,-243.655"/>
<polygon fill="midnightblue" stroke="midnightblue" points="437.481,-242.378 427.686,-246.417 437.862,-249.367 437.481,-242.378"/>
</g>
<!-- Node14 -->
<g id="node14" class="node"><title>Node14</title>
<g id="a_node14"><a xlink:href="classbsc_1_1socket__pipeline.html" target="_top" xlink:title="bsc::socket_pipeline\l\&lt; T, Socket, Router \&gt;">
<polygon fill="white" stroke="black" points="471.5,-172 471.5,-202 584.5,-202 584.5,-172 471.5,-172"/>
<text text-anchor="start" x="479.5" y="-190" font-family="Helvetica,sans-Serif" font-size="10.00">bsc::socket_pipeline</text>
<text text-anchor="middle" x="528" y="-179" font-family="Helvetica,sans-Serif" font-size="10.00">&lt; T, Socket, Router &gt;</text>
</a>
</g>
</g>
<!-- Node13&#45;&gt;Node14 -->
<g id="edge13" class="edge"><title>Node13&#45;&gt;Node14</title>
<path fill="none" stroke="midnightblue" d="M428.555,-188.79C442.803,-188.531 457.712,-188.26 471.491,-188.009"/>
<polygon fill="midnightblue" stroke="midnightblue" points="428.257,-185.295 418.322,-188.976 428.384,-192.293 428.257,-185.295"/>
</g>
</g>
</svg>
