<?xml version="1.0" encoding="UTF-8" standalone="no"?>
<!DOCTYPE svg PUBLIC "-//W3C//DTD SVG 1.1//EN"
 "http://www.w3.org/Graphics/SVG/1.1/DTD/svg11.dtd">
<!-- Generated by graphviz version 2.36.0 (20140111.2315)
 -->
<!-- Title: factory::kernel_base Pages: 1 -->
<svg width="676pt" height="306pt"
 viewBox="0.00 0.00 676.00 306.00" xmlns="http://www.w3.org/2000/svg" xmlns:xlink="http://www.w3.org/1999/xlink">
<g id="graph0" class="graph" transform="scale(1 1) rotate(0) translate(4 302)">
<title>factory::kernel_base</title>
<polygon fill="white" stroke="none" points="-4,4 -4,-302 672,-302 672,4 -4,4"/>
<!-- Node1 -->
<g id="node1" class="node"><title>Node1</title>
<polygon fill="#bfbfbf" stroke="black" points="0.5,-114.5 0.5,-133.5 105.5,-133.5 105.5,-114.5 0.5,-114.5"/>
<text text-anchor="middle" x="53" y="-121.5" font-family="Helvetica,sans-Serif" font-size="10.00">factory::kernel_base</text>
</g>
<!-- Node2 -->
<g id="node2" class="node"><title>Node2</title>
<g id="a_node2"><a xlink:href="classfactory_1_1mobile__kernel.html" target="_top" xlink:title="factory::mobile_kernel">
<polygon fill="white" stroke="black" points="142.5,-114.5 142.5,-133.5 255.5,-133.5 255.5,-114.5 142.5,-114.5"/>
<text text-anchor="middle" x="199" y="-121.5" font-family="Helvetica,sans-Serif" font-size="10.00">factory::mobile_kernel</text>
</a>
</g>
</g>
<!-- Node1&#45;&gt;Node2 -->
<g id="edge1" class="edge"><title>Node1&#45;&gt;Node2</title>
<path fill="none" stroke="midnightblue" d="M115.819,-124C124.651,-124 133.691,-124 142.393,-124"/>
<polygon fill="midnightblue" stroke="midnightblue" points="115.581,-120.5 105.581,-124 115.581,-127.5 115.581,-120.5"/>
</g>
<!-- Node3 -->
<g id="node3" class="node"><title>Node3</title>
<g id="a_node3"><a xlink:href="structfactory_1_1Kernel.html" target="_top" xlink:title="factory::Kernel">
<polygon fill="white" stroke="black" points="292,-114.5 292,-133.5 372,-133.5 372,-114.5 292,-114.5"/>
<text text-anchor="middle" x="332" y="-121.5" font-family="Helvetica,sans-Serif" font-size="10.00">factory::Kernel</text>
</a>
</g>
</g>
<!-- Node2&#45;&gt;Node3 -->
<g id="edge2" class="edge"><title>Node2&#45;&gt;Node3</title>
<path fill="none" stroke="midnightblue" d="M265.579,-124C274.487,-124 283.392,-124 291.637,-124"/>
<polygon fill="midnightblue" stroke="midnightblue" points="265.556,-120.5 255.556,-124 265.556,-127.5 265.556,-120.5"/>
</g>
<!-- Node4 -->
<g id="node4" class="node"><title>Node4</title>
<g id="a_node4"><a xlink:href="structBig__kernel.html" target="_top" xlink:title="Big_kernel\&lt; Size \&gt;">
<polygon fill="white" stroke="black" points="409,-278.5 409,-297.5 509,-297.5 509,-278.5 409,-278.5"/>
<text text-anchor="middle" x="459" y="-285.5" font-family="Helvetica,sans-Serif" font-size="10.00">Big_kernel&lt; Size &gt;</text>
</a>
</g>
</g>
<!-- Node3&#45;&gt;Node4 -->
<g id="edge3" class="edge"><title>Node3&#45;&gt;Node4</title>
<path fill="none" stroke="midnightblue" d="M338.172,-143.54C347.278,-174.335 369.005,-234.222 408,-269 412.297,-272.832 417.445,-275.923 422.78,-278.406"/>
<polygon fill="midnightblue" stroke="midnightblue" points="341.456,-142.29 335.379,-133.611 334.717,-144.186 341.456,-142.29"/>
</g>
<!-- Node5 -->
<g id="node5" class="node"><title>Node5</title>
<g id="a_node5"><a xlink:href="structDummy__kernel.html" target="_top" xlink:title="Dummy_kernel">
<polygon fill="white" stroke="black" points="417.5,-240.5 417.5,-259.5 500.5,-259.5 500.5,-240.5 417.5,-240.5"/>
<text text-anchor="middle" x="459" y="-247.5" font-family="Helvetica,sans-Serif" font-size="10.00">Dummy_kernel</text>
</a>
</g>
</g>
<!-- Node3&#45;&gt;Node5 -->
<g id="edge4" class="edge"><title>Node3&#45;&gt;Node5</title>
<path fill="none" stroke="midnightblue" d="M341.721,-142.746C353.598,-166.39 376.983,-206.863 408,-231 412.91,-234.821 418.675,-237.943 424.511,-240.471"/>
<polygon fill="midnightblue" stroke="midnightblue" points="344.864,-141.206 337.346,-133.74 338.567,-144.265 344.864,-141.206"/>
</g>
<!-- Node6 -->
<g id="node6" class="node"><title>Node6</title>
<g id="a_node6"><a xlink:href="structGood__kernel.html" target="_top" xlink:title="Good_kernel">
<polygon fill="white" stroke="black" points="423.5,-202.5 423.5,-221.5 494.5,-221.5 494.5,-202.5 423.5,-202.5"/>
<text text-anchor="middle" x="459" y="-209.5" font-family="Helvetica,sans-Serif" font-size="10.00">Good_kernel</text>
</a>
</g>
</g>
<!-- Node3&#45;&gt;Node6 -->
<g id="edge5" class="edge"><title>Node3&#45;&gt;Node6</title>
<path fill="none" stroke="midnightblue" d="M348.421,-141.08C362.695,-156.086 385.111,-177.698 408,-192 414.501,-196.063 421.968,-199.574 429.114,-202.472"/>
<polygon fill="midnightblue" stroke="midnightblue" points="350.752,-138.447 341.377,-133.512 345.628,-143.216 350.752,-138.447"/>
</g>
<!-- Node9 -->
<g id="node9" class="node"><title>Node9</title>
<g id="a_node9"><a xlink:href="structKernel__that__carries__its__parent.html" target="_top" xlink:title="Kernel_that_carries\l_its_parent">
<polygon fill="white" stroke="black" points="408.5,-153 408.5,-183 509.5,-183 509.5,-153 408.5,-153"/>
<text text-anchor="start" x="416.5" y="-171" font-family="Helvetica,sans-Serif" font-size="10.00">Kernel_that_carries</text>
<text text-anchor="middle" x="459" y="-160" font-family="Helvetica,sans-Serif" font-size="10.00">_its_parent</text>
</a>
</g>
</g>
<!-- Node3&#45;&gt;Node9 -->
<g id="edge8" class="edge"><title>Node3&#45;&gt;Node9</title>
<path fill="none" stroke="midnightblue" d="M369.615,-136.888C383.899,-141.916 400.374,-147.715 415.201,-152.935"/>
<polygon fill="midnightblue" stroke="midnightblue" points="370.718,-133.566 360.123,-133.547 368.394,-140.169 370.718,-133.566"/>
</g>
<!-- Node10 -->
<g id="node10" class="node"><title>Node10</title>
<g id="a_node10"><a xlink:href="classMain.html" target="_top" xlink:title="Main">
<polygon fill="white" stroke="black" points="440,-114.5 440,-133.5 478,-133.5 478,-114.5 440,-114.5"/>
<text text-anchor="middle" x="459" y="-121.5" font-family="Helvetica,sans-Serif" font-size="10.00">Main</text>
</a>
</g>
</g>
<!-- Node3&#45;&gt;Node10 -->
<g id="edge9" class="edge"><title>Node3&#45;&gt;Node10</title>
<path fill="none" stroke="midnightblue" d="M382.272,-117.386C402.543,-116.963 424.76,-117.526 439.855,-119.075"/>
<polygon fill="midnightblue" stroke="midnightblue" points="382.099,-113.89 372.208,-117.685 382.307,-120.887 382.099,-113.89"/>
</g>
<!-- Node3&#45;&gt;Node10 -->
<g id="edge10" class="edge"><title>Node3&#45;&gt;Node10</title>
<path fill="none" stroke="midnightblue" d="M382.272,-130.614C402.543,-131.037 424.76,-130.474 439.855,-128.925"/>
<polygon fill="midnightblue" stroke="midnightblue" points="382.307,-127.113 372.208,-130.315 382.099,-134.11 382.307,-127.113"/>
</g>
<!-- Node11 -->
<g id="node11" class="node"><title>Node11</title>
<g id="a_node11"><a xlink:href="structSender.html" target="_top" xlink:title="Sender">
<polygon fill="white" stroke="black" points="435.5,-76.5 435.5,-95.5 482.5,-95.5 482.5,-76.5 435.5,-76.5"/>
<text text-anchor="middle" x="459" y="-83.5" font-family="Helvetica,sans-Serif" font-size="10.00">Sender</text>
</a>
</g>
</g>
<!-- Node3&#45;&gt;Node11 -->
<g id="edge11" class="edge"><title>Node3&#45;&gt;Node11</title>
<path fill="none" stroke="midnightblue" d="M374.18,-111.481C394.458,-105.317 418.137,-98.1182 435.146,-92.9477"/>
<polygon fill="midnightblue" stroke="midnightblue" points="373.092,-108.154 364.543,-114.411 375.128,-114.851 373.092,-108.154"/>
</g>
<!-- Node12 -->
<g id="node12" class="node"><title>Node12</title>
<g id="a_node12"><a xlink:href="structSleepy__kernel.html" target="_top" xlink:title="Sleepy_kernel">
<polygon fill="white" stroke="black" points="420,-38.5 420,-57.5 498,-57.5 498,-38.5 420,-38.5"/>
<text text-anchor="middle" x="459" y="-45.5" font-family="Helvetica,sans-Serif" font-size="10.00">Sleepy_kernel</text>
</a>
</g>
</g>
<!-- Node3&#45;&gt;Node12 -->
<g id="edge12" class="edge"><title>Node3&#45;&gt;Node12</title>
<path fill="none" stroke="midnightblue" d="M351.241,-107.749C365.823,-95.3677 387.199,-78.5403 408,-67 414.415,-63.4411 421.632,-60.2693 428.546,-57.5846"/>
<polygon fill="midnightblue" stroke="midnightblue" points="348.768,-105.261 343.496,-114.451 353.348,-110.554 348.768,-105.261"/>
</g>
<!-- Node13 -->
<g id="node13" class="node"><title>Node13</title>
<g id="a_node13"><a xlink:href="structTest__socket.html" target="_top" xlink:title="Test_socket">
<polygon fill="white" stroke="black" points="423.5,-0.5 423.5,-19.5 494.5,-19.5 494.5,-0.5 423.5,-0.5"/>
<text text-anchor="middle" x="459" y="-7.5" font-family="Helvetica,sans-Serif" font-size="10.00">Test_socket</text>
</a>
</g>
</g>
<!-- Node3&#45;&gt;Node13 -->
<g id="edge13" class="edge"><title>Node3&#45;&gt;Node13</title>
<path fill="none" stroke="midnightblue" d="M343.35,-105.531C356.064,-84.3633 379.494,-49.908 408,-29 413.167,-25.2105 419.181,-22.0834 425.21,-19.5371"/>
<polygon fill="midnightblue" stroke="midnightblue" points="340.294,-103.823 338.282,-114.225 346.342,-107.348 340.294,-103.823"/>
</g>
<!-- Node7 -->
<g id="node7" class="node"><title>Node7</title>
<g id="a_node7"><a xlink:href="structKernel__that__reads__more__than__writes.html" target="_top" xlink:title="Kernel_that_reads_more\l_than_writes">
<polygon fill="white" stroke="black" points="546,-221 546,-251 668,-251 668,-221 546,-221"/>
<text text-anchor="start" x="554" y="-239" font-family="Helvetica,sans-Serif" font-size="10.00">Kernel_that_reads_more</text>
<text text-anchor="middle" x="607" y="-228" font-family="Helvetica,sans-Serif" font-size="10.00">_than_writes</text>
</a>
</g>
</g>
<!-- Node6&#45;&gt;Node7 -->
<g id="edge6" class="edge"><title>Node6&#45;&gt;Node7</title>
<path fill="none" stroke="midnightblue" d="M504.695,-219.347C517.711,-221.487 532.149,-223.86 545.948,-226.128"/>
<polygon fill="midnightblue" stroke="midnightblue" points="505.035,-215.856 494.6,-217.688 503.9,-222.763 505.035,-215.856"/>
</g>
<!-- Node8 -->
<g id="node8" class="node"><title>Node8</title>
<g id="a_node8"><a xlink:href="structKernel__that__writes__more__than__reads.html" target="_top" xlink:title="Kernel_that_writes\l_more_than_reads">
<polygon fill="white" stroke="black" points="558,-172 558,-202 656,-202 656,-172 558,-172"/>
<text text-anchor="start" x="566" y="-190" font-family="Helvetica,sans-Serif" font-size="10.00">Kernel_that_writes</text>
<text text-anchor="middle" x="607" y="-179" font-family="Helvetica,sans-Serif" font-size="10.00">_more_than_reads</text>
</a>
</g>
</g>
<!-- Node6&#45;&gt;Node8 -->
<g id="edge7" class="edge"><title>Node6&#45;&gt;Node8</title>
<path fill="none" stroke="midnightblue" d="M504.725,-204.342C521.541,-201.462 540.725,-198.177 557.84,-195.247"/>
<polygon fill="midnightblue" stroke="midnightblue" points="503.866,-200.938 494.6,-206.075 505.047,-207.837 503.866,-200.938"/>
</g>
</g>
</svg>
