<?xml version="1.0" encoding="UTF-8" standalone="no"?>
<!DOCTYPE svg PUBLIC "-//W3C//DTD SVG 1.1//EN"
 "http://www.w3.org/Graphics/SVG/1.1/DTD/svg11.dtd">
<!-- Generated by graphviz version 2.36.0 (20140111.2315)
 -->
<!-- Title: bsc::socket_pipeline&lt; K, S, R &gt; Pages: 1 -->
<svg width="391pt" height="236pt"
 viewBox="0.00 0.00 391.00 236.00" xmlns="http://www.w3.org/2000/svg" xmlns:xlink="http://www.w3.org/1999/xlink">
<g id="graph0" class="graph" transform="scale(1 1) rotate(0) translate(4 232)">
<title>bsc::socket_pipeline&lt; K, S, R &gt;</title>
<polygon fill="white" stroke="none" points="-4,4 -4,-232 387,-232 387,4 -4,4"/>
<!-- Node1 -->
<g id="node1" class="node"><title>Node1</title>
<polygon fill="#bfbfbf" stroke="black" points="162,-1 162,-31 268,-31 268,-1 162,-1"/>
<text text-anchor="start" x="170" y="-19" font-family="Helvetica,sans-Serif" font-size="10.00">bsc::socket_pipeline</text>
<text text-anchor="middle" x="215" y="-8" font-family="Helvetica,sans-Serif" font-size="10.00">&lt; K, S, R &gt;</text>
</g>
<!-- Node2 -->
<g id="node2" class="node"><title>Node2</title>
<g id="a_node2"><a xlink:href="classbsc_1_1basic__socket__pipeline.html" target="_top" xlink:title="bsc::basic_socket_pipeline\&lt; K \&gt;">
<polygon fill="white" stroke="black" points="135.5,-70.5 135.5,-89.5 294.5,-89.5 294.5,-70.5 135.5,-70.5"/>
<text text-anchor="middle" x="215" y="-77.5" font-family="Helvetica,sans-Serif" font-size="10.00">bsc::basic_socket_pipeline&lt; K &gt;</text>
</a>
</g>
</g>
<!-- Node2&#45;&gt;Node1 -->
<g id="edge1" class="edge"><title>Node2&#45;&gt;Node1</title>
<path fill="none" stroke="midnightblue" d="M215,-60.1826C215,-50.8859 215,-39.8507 215,-31.263"/>
<polygon fill="midnightblue" stroke="midnightblue" points="211.5,-60.3791 215,-70.3792 218.5,-60.3792 211.5,-60.3791"/>
</g>
<!-- Node3 -->
<g id="node3" class="node"><title>Node3</title>
<g id="a_node3"><a xlink:href="classbsc_1_1basic__pipeline.html" target="_top" xlink:title="Proxy_pipeline_base\l\&lt; K &#160;\&gt;">
<polygon fill="white" stroke="black" points="161.5,-129 161.5,-159 268.5,-159 268.5,-129 161.5,-129"/>
<text text-anchor="start" x="169.5" y="-147" font-family="Helvetica,sans-Serif" font-size="10.00">Proxy_pipeline_base</text>
<text text-anchor="middle" x="215" y="-136" font-family="Helvetica,sans-Serif" font-size="10.00">&lt; K &gt;</text>
</a>
</g>
</g>
<!-- Node3&#45;&gt;Node2 -->
<g id="edge2" class="edge"><title>Node3&#45;&gt;Node2</title>
<path fill="none" stroke="midnightblue" d="M215,-118.871C215,-108.663 215,-97.4077 215,-89.8419"/>
<polygon fill="midnightblue" stroke="midnightblue" points="211.5,-118.931 215,-128.931 218.5,-118.931 211.5,-118.931"/>
</g>
<!-- Node4 -->
<g id="node4" class="node"><title>Node4</title>
<g id="a_node4"><a xlink:href="classbsc_1_1pipeline__base.html" target="_top" xlink:title="bsc::pipeline_base">
<polygon fill="white" stroke="black" points="0,-208.5 0,-227.5 98,-227.5 98,-208.5 0,-208.5"/>
<text text-anchor="middle" x="49" y="-215.5" font-family="Helvetica,sans-Serif" font-size="10.00">bsc::pipeline_base</text>
</a>
</g>
</g>
<!-- Node4&#45;&gt;Node3 -->
<g id="edge3" class="edge"><title>Node4&#45;&gt;Node3</title>
<path fill="none" stroke="midnightblue" d="M77.9438,-204.446C107.132,-191.786 152.103,-172.28 182.499,-159.097"/>
<polygon fill="midnightblue" stroke="midnightblue" points="76.4757,-201.268 68.6943,-208.458 79.2612,-207.69 76.4757,-201.268"/>
</g>
<!-- Node5 -->
<g id="node5" class="node"><title>Node5</title>
<polygon fill="white" stroke="#bfbfbf" points="116,-208.5 116,-227.5 166,-227.5 166,-208.5 116,-208.5"/>
<text text-anchor="middle" x="141" y="-215.5" font-family="Helvetica,sans-Serif" font-size="10.00">Kernels</text>
</g>
<!-- Node5&#45;&gt;Node3 -->
<g id="edge4" class="edge"><title>Node5&#45;&gt;Node3</title>
<path fill="none" stroke="#9a32cd" stroke-dasharray="5,2" d="M152.465,-200.07C157.707,-192.895 164.249,-184.669 171,-178 177.929,-171.155 186.321,-164.526 193.911,-159.027"/>
<polygon fill="#9a32cd" stroke="#9a32cd" points="149.496,-198.208 146.602,-208.4 155.22,-202.237 149.496,-198.208"/>
<text text-anchor="middle" x="191" y="-181.5" font-family="Helvetica,sans-Serif" font-size="10.00"> _kernels</text>
</g>
<!-- Node6 -->
<g id="node6" class="node"><title>Node6</title>
<polygon fill="white" stroke="#bfbfbf" points="184,-208.5 184,-227.5 250,-227.5 250,-208.5 184,-208.5"/>
<text text-anchor="middle" x="217" y="-215.5" font-family="Helvetica,sans-Serif" font-size="10.00">Semaphore</text>
</g>
<!-- Node6&#45;&gt;Node3 -->
<g id="edge5" class="edge"><title>Node6&#45;&gt;Node3</title>
<path fill="none" stroke="#9a32cd" stroke-dasharray="5,2" d="M216.274,-198.374C216.175,-195.568 216.08,-192.708 216,-190 215.695,-179.689 215.438,-168.048 215.262,-159.189"/>
<polygon fill="#9a32cd" stroke="#9a32cd" points="212.781,-198.627 216.652,-208.489 219.776,-198.365 212.781,-198.627"/>
<text text-anchor="middle" x="244.5" y="-181.5" font-family="Helvetica,sans-Serif" font-size="10.00"> _semaphore</text>
</g>
<!-- Node7 -->
<g id="node7" class="node"><title>Node7</title>
<polygon fill="white" stroke="#bfbfbf" points="269,-208.5 269,-227.5 321,-227.5 321,-208.5 269,-208.5"/>
<text text-anchor="middle" x="295" y="-215.5" font-family="Helvetica,sans-Serif" font-size="10.00">Threads</text>
</g>
<!-- Node7&#45;&gt;Node3 -->
<g id="edge6" class="edge"><title>Node7&#45;&gt;Node3</title>
<path fill="none" stroke="#9a32cd" stroke-dasharray="5,2" d="M287.334,-198.832C283.722,-191.745 278.898,-183.92 273,-178 265.559,-170.532 256.079,-164.203 246.951,-159.147"/>
<polygon fill="#9a32cd" stroke="#9a32cd" points="284.372,-200.766 291.743,-208.377 290.727,-197.831 284.372,-200.766"/>
<text text-anchor="middle" x="302.5" y="-181.5" font-family="Helvetica,sans-Serif" font-size="10.00"> _threads</text>
</g>
<!-- Node8 -->
<g id="node8" class="node"><title>Node8</title>
<polygon fill="white" stroke="#bfbfbf" points="339,-208.5 339,-227.5 383,-227.5 383,-208.5 339,-208.5"/>
<text text-anchor="middle" x="361" y="-215.5" font-family="Helvetica,sans-Serif" font-size="10.00">Mutex</text>
</g>
<!-- Node8&#45;&gt;Node3 -->
<g id="edge7" class="edge"><title>Node8&#45;&gt;Node3</title>
<path fill="none" stroke="#9a32cd" stroke-dasharray="5,2" d="M349.553,-199.899C343.634,-192.224 335.805,-183.645 327,-178 309.509,-166.785 288.069,-159.26 268.647,-154.269"/>
<polygon fill="#9a32cd" stroke="#9a32cd" points="346.889,-202.189 355.569,-208.264 352.572,-198.102 346.889,-202.189"/>
<text text-anchor="middle" x="358" y="-181.5" font-family="Helvetica,sans-Serif" font-size="10.00"> _mutex</text>
</g>
</g>
</svg>
