<?xml version="1.0" encoding="UTF-8" standalone="no"?>
<!DOCTYPE svg PUBLIC "-//W3C//DTD SVG 1.1//EN"
 "http://www.w3.org/Graphics/SVG/1.1/DTD/svg11.dtd">
<!-- Generated by graphviz version 2.36.0 (20140111.2315)
 -->
<!-- Title: bsc::basic_handler Pages: 1 -->
<svg width="402pt" height="381pt"
 viewBox="0.00 0.00 402.00 381.00" xmlns="http://www.w3.org/2000/svg" xmlns:xlink="http://www.w3.org/1999/xlink">
<g id="graph0" class="graph" transform="scale(1 1) rotate(0) translate(4 377)">
<title>bsc::basic_handler</title>
<polygon fill="white" stroke="none" points="-4,4 -4,-377 398,-377 398,4 -4,4"/>
<!-- Node1 -->
<g id="node1" class="node"><title>Node1</title>
<polygon fill="#bfbfbf" stroke="black" points="134,-152.5 134,-171.5 232,-171.5 232,-152.5 134,-152.5"/>
<text text-anchor="middle" x="183" y="-159.5" font-family="Helvetica,sans-Serif" font-size="10.00">bsc::basic_handler</text>
</g>
<!-- Node3 -->
<g id="node3" class="node"><title>Node3</title>
<g id="a_node3"><a xlink:href="classbsc_1_1child__notify__handler.html" target="_top" xlink:title="bsc::child_notify_handler\l\&lt; K, R \&gt;">
<polygon fill="white" stroke="black" points="268.5,-343 268.5,-373 393.5,-373 393.5,-343 268.5,-343"/>
<text text-anchor="start" x="276.5" y="-361" font-family="Helvetica,sans-Serif" font-size="10.00">bsc::child_notify_handler</text>
<text text-anchor="middle" x="331" y="-350" font-family="Helvetica,sans-Serif" font-size="10.00">&lt; K, R &gt;</text>
</a>
</g>
</g>
<!-- Node1&#45;&gt;Node3 -->
<g id="edge2" class="edge"><title>Node1&#45;&gt;Node3</title>
<path fill="none" stroke="midnightblue" d="M188.633,-181.489C197.892,-216.443 221.868,-290.132 268,-333 272.166,-336.871 277.009,-340.176 282.116,-342.99"/>
<polygon fill="midnightblue" stroke="midnightblue" points="191.976,-180.429 186.135,-171.59 185.189,-182.142 191.976,-180.429"/>
</g>
<!-- Node4 -->
<g id="node4" class="node"><title>Node4</title>
<g id="a_node4"><a xlink:href="classbsc_1_1local__server.html" target="_top" xlink:title="bsc::local_server\&lt;\l K, S, R \&gt;">
<polygon fill="white" stroke="black" points="282.5,-294 282.5,-324 379.5,-324 379.5,-294 282.5,-294"/>
<text text-anchor="start" x="290.5" y="-312" font-family="Helvetica,sans-Serif" font-size="10.00">bsc::local_server&lt;</text>
<text text-anchor="middle" x="331" y="-301" font-family="Helvetica,sans-Serif" font-size="10.00"> K, S, R &gt;</text>
</a>
</g>
</g>
<!-- Node1&#45;&gt;Node4 -->
<g id="edge3" class="edge"><title>Node1&#45;&gt;Node4</title>
<path fill="none" stroke="midnightblue" d="M192.623,-180.958C205.524,-207.399 232.214,-255.324 268,-284 272.71,-287.774 278.064,-291.046 283.607,-293.865"/>
<polygon fill="midnightblue" stroke="midnightblue" points="195.664,-179.203 188.225,-171.659 189.336,-182.195 195.664,-179.203"/>
</g>
<!-- Node5 -->
<g id="node5" class="node"><title>Node5</title>
<g id="a_node5"><a xlink:href="classbsc_1_1process__handler.html" target="_top" xlink:title="bsc::process_handler\l\&lt; K, R \&gt;">
<polygon fill="white" stroke="black" points="276,-245 276,-275 386,-275 386,-245 276,-245"/>
<text text-anchor="start" x="284" y="-263" font-family="Helvetica,sans-Serif" font-size="10.00">bsc::process_handler</text>
<text text-anchor="middle" x="331" y="-252" font-family="Helvetica,sans-Serif" font-size="10.00">&lt; K, R &gt;</text>
</a>
</g>
</g>
<!-- Node1&#45;&gt;Node5 -->
<g id="edge4" class="edge"><title>Node1&#45;&gt;Node5</title>
<path fill="none" stroke="midnightblue" d="M200.021,-178.857C216.029,-194.951 241.944,-219.048 268,-235 273.939,-238.636 280.5,-241.941 287.065,-244.87"/>
<polygon fill="midnightblue" stroke="midnightblue" points="202.492,-176.378 193.001,-171.67 197.485,-181.27 202.492,-176.378"/>
</g>
<!-- Node6 -->
<g id="node6" class="node"><title>Node6</title>
<g id="a_node6"><a xlink:href="classbsc_1_1process__notify__handler.html" target="_top" xlink:title="bsc::process_notify\l_handler\&lt; K, R \&gt;">
<polygon fill="white" stroke="black" points="280,-196 280,-226 382,-226 382,-196 280,-196"/>
<text text-anchor="start" x="288" y="-214" font-family="Helvetica,sans-Serif" font-size="10.00">bsc::process_notify</text>
<text text-anchor="middle" x="331" y="-203" font-family="Helvetica,sans-Serif" font-size="10.00">_handler&lt; K, R &gt;</text>
</a>
</g>
</g>
<!-- Node1&#45;&gt;Node6 -->
<g id="edge5" class="edge"><title>Node1&#45;&gt;Node6</title>
<path fill="none" stroke="midnightblue" d="M222.167,-174.809C241.476,-181.29 265.031,-189.195 285.196,-195.963"/>
<polygon fill="midnightblue" stroke="midnightblue" points="223.091,-171.428 212.497,-171.564 220.864,-178.064 223.091,-171.428"/>
</g>
<!-- Node7 -->
<g id="node7" class="node"><title>Node7</title>
<g id="a_node7"><a xlink:href="classbsc_1_1remote__client.html" target="_top" xlink:title="bsc::remote_client\l\&lt; K, S, R \&gt;">
<polygon fill="white" stroke="black" points="282.5,-147 282.5,-177 379.5,-177 379.5,-147 282.5,-147"/>
<text text-anchor="start" x="290.5" y="-165" font-family="Helvetica,sans-Serif" font-size="10.00">bsc::remote_client</text>
<text text-anchor="middle" x="331" y="-154" font-family="Helvetica,sans-Serif" font-size="10.00">&lt; K, S, R &gt;</text>
</a>
</g>
</g>
<!-- Node1&#45;&gt;Node7 -->
<g id="edge6" class="edge"><title>Node1&#45;&gt;Node7</title>
<path fill="none" stroke="midnightblue" d="M242.225,-155.374C255.536,-155.147 269.531,-155.231 282.338,-155.625"/>
<polygon fill="midnightblue" stroke="midnightblue" points="242.126,-151.876 232.21,-155.609 242.29,-158.874 242.126,-151.876"/>
</g>
<!-- Node1&#45;&gt;Node7 -->
<g id="edge7" class="edge"><title>Node1&#45;&gt;Node7</title>
<path fill="none" stroke="midnightblue" d="M242.225,-168.626C255.536,-168.853 269.531,-168.769 282.338,-168.375"/>
<polygon fill="midnightblue" stroke="midnightblue" points="242.29,-165.126 232.21,-168.391 242.126,-172.124 242.29,-165.126"/>
</g>
<!-- Node8 -->
<g id="node8" class="node"><title>Node8</title>
<g id="a_node8"><a xlink:href="classbsc_1_1socket__notify__handler.html" target="_top" xlink:title="bsc::socket_notify\l_handler\&lt; K, S, R \&gt;">
<polygon fill="white" stroke="black" points="279,-98 279,-128 383,-128 383,-98 279,-98"/>
<text text-anchor="start" x="287" y="-116" font-family="Helvetica,sans-Serif" font-size="10.00">bsc::socket_notify</text>
<text text-anchor="middle" x="331" y="-105" font-family="Helvetica,sans-Serif" font-size="10.00">_handler&lt; K, S, R &gt;</text>
</a>
</g>
</g>
<!-- Node1&#45;&gt;Node8 -->
<g id="edge8" class="edge"><title>Node1&#45;&gt;Node8</title>
<path fill="none" stroke="midnightblue" d="M222.167,-149.191C241.476,-142.71 265.031,-134.805 285.196,-128.037"/>
<polygon fill="midnightblue" stroke="midnightblue" points="220.864,-145.936 212.497,-152.436 223.091,-152.572 220.864,-145.936"/>
</g>
<!-- Node9 -->
<g id="node9" class="node"><title>Node9</title>
<g id="a_node9"><a xlink:href="classbsc_1_1unix__socket__client.html" target="_top" xlink:title="bsc::unix_socket_client\l\&lt; K, R \&gt;">
<polygon fill="white" stroke="black" points="271.5,-49 271.5,-79 390.5,-79 390.5,-49 271.5,-49"/>
<text text-anchor="start" x="279.5" y="-67" font-family="Helvetica,sans-Serif" font-size="10.00">bsc::unix_socket_client</text>
<text text-anchor="middle" x="331" y="-56" font-family="Helvetica,sans-Serif" font-size="10.00">&lt; K, R &gt;</text>
</a>
</g>
</g>
<!-- Node1&#45;&gt;Node9 -->
<g id="edge9" class="edge"><title>Node1&#45;&gt;Node9</title>
<path fill="none" stroke="midnightblue" d="M199.928,-144.816C215.867,-128.43 241.733,-103.952 268,-88 273.426,-84.7048 279.382,-81.7178 285.391,-79.0585"/>
<polygon fill="midnightblue" stroke="midnightblue" points="197.314,-142.486 192.943,-152.137 202.378,-147.318 197.314,-142.486"/>
</g>
<!-- Node10 -->
<g id="node10" class="node"><title>Node10</title>
<g id="a_node10"><a xlink:href="classbsc_1_1unix__socket__server.html" target="_top" xlink:title="bsc::unix_socket_server\l\&lt; K, R \&gt;">
<polygon fill="white" stroke="black" points="269.5,-0 269.5,-30 392.5,-30 392.5,-0 269.5,-0"/>
<text text-anchor="start" x="277.5" y="-18" font-family="Helvetica,sans-Serif" font-size="10.00">bsc::unix_socket_server</text>
<text text-anchor="middle" x="331" y="-7" font-family="Helvetica,sans-Serif" font-size="10.00">&lt; K, R &gt;</text>
</a>
</g>
</g>
<!-- Node1&#45;&gt;Node10 -->
<g id="edge10" class="edge"><title>Node1&#45;&gt;Node10</title>
<path fill="none" stroke="midnightblue" d="M192.528,-142.815C205.315,-116.072 231.869,-67.653 268,-39 272.25,-35.6292 277.03,-32.6872 282.001,-30.1301"/>
<polygon fill="midnightblue" stroke="midnightblue" points="189.197,-141.678 188.173,-152.223 195.55,-144.618 189.197,-141.678"/>
</g>
<!-- Node2 -->
<g id="node2" class="node"><title>Node2</title>
<g id="a_node2"><a xlink:href="classbsc_1_1pipeline__base.html" target="_top" xlink:title="bsc::pipeline_base">
<polygon fill="white" stroke="black" points="0,-152.5 0,-171.5 98,-171.5 98,-152.5 0,-152.5"/>
<text text-anchor="middle" x="49" y="-159.5" font-family="Helvetica,sans-Serif" font-size="10.00">bsc::pipeline_base</text>
</a>
</g>
</g>
<!-- Node2&#45;&gt;Node1 -->
<g id="edge1" class="edge"><title>Node2&#45;&gt;Node1</title>
<path fill="none" stroke="midnightblue" d="M108.292,-162C116.809,-162 125.5,-162 133.786,-162"/>
<polygon fill="midnightblue" stroke="midnightblue" points="108.028,-158.5 98.0284,-162 108.028,-165.5 108.028,-158.5"/>
</g>
</g>
</svg>
