<?xml version="1.0" encoding="UTF-8" standalone="no"?>
<!DOCTYPE svg PUBLIC "-//W3C//DTD SVG 1.1//EN"
 "http://www.w3.org/Graphics/SVG/1.1/DTD/svg11.dtd">
<!-- Generated by graphviz version 2.38.0 (20140413.2041)
 -->
<!-- Title: sys::basic_fildesbuf&lt; Ch, Tr, Fd &gt; Pages: 1 -->
<svg width="183pt" height="185pt"
 viewBox="0.00 0.00 182.50 185.00" xmlns="http://www.w3.org/2000/svg" xmlns:xlink="http://www.w3.org/1999/xlink">
<g id="graph0" class="graph" transform="scale(1 1) rotate(0) translate(4 181)">
<title>sys::basic_fildesbuf&lt; Ch, Tr, Fd &gt;</title>
<polygon fill="white" stroke="none" points="-4,4 -4,-181 178.5,-181 178.5,4 -4,4"/>
<!-- Node1 -->
<g id="node1" class="node"><title>Node1</title>
<polygon fill="#bfbfbf" stroke="black" points="70.5,-0.5 70.5,-30.5 174.5,-30.5 174.5,-0.5 70.5,-0.5"/>
<text text-anchor="start" x="78.5" y="-18.5" font-family="Helvetica,sans-Serif" font-size="10.00">sys::basic_fildesbuf</text>
<text text-anchor="middle" x="122.5" y="-7.5" font-family="Helvetica,sans-Serif" font-size="10.00">&lt; Ch, Tr, Fd &gt;</text>
</g>
<!-- Node2 -->
<g id="node2" class="node"><title>Node2</title>
<g id="a_node2"><a xlink:href="structstdx_1_1basic__packetbuf.html" target="_top" xlink:title="stdx::basic_packetbuf\l\&lt; Ch, Tr \&gt;">
<polygon fill="white" stroke="black" points="0,-78.5 0,-108.5 113,-108.5 113,-78.5 0,-78.5"/>
<text text-anchor="start" x="8" y="-96.5" font-family="Helvetica,sans-Serif" font-size="10.00">stdx::basic_packetbuf</text>
<text text-anchor="middle" x="56.5" y="-85.5" font-family="Helvetica,sans-Serif" font-size="10.00">&lt; Ch, Tr &gt;</text>
</a>
</g>
</g>
<!-- Node2&#45;&gt;Node1 -->
<g id="edge1" class="edge"><title>Node2&#45;&gt;Node1</title>
<path fill="none" stroke="midnightblue" d="M75.7733,-70.3065C86.8662,-57.5329 100.477,-41.8596 110.142,-30.7309"/>
<polygon fill="midnightblue" stroke="midnightblue" points="72.8284,-68.3597 68.9141,-78.205 78.1136,-72.9495 72.8284,-68.3597"/>
</g>
<!-- Node3 -->
<g id="node3" class="node"><title>Node3</title>
<polygon fill="white" stroke="#bfbfbf" points="2.5,-146.5 2.5,-176.5 110.5,-176.5 110.5,-146.5 2.5,-146.5"/>
<text text-anchor="start" x="10.5" y="-164.5" font-family="Helvetica,sans-Serif" font-size="10.00">std::basic_streambuf</text>
<text text-anchor="middle" x="56.5" y="-153.5" font-family="Helvetica,sans-Serif" font-size="10.00">&lt; Ch, Tr &gt;</text>
</g>
<!-- Node3&#45;&gt;Node2 -->
<g id="edge2" class="edge"><title>Node3&#45;&gt;Node2</title>
<path fill="none" stroke="midnightblue" d="M56.5,-136.032C56.5,-126.861 56.5,-116.745 56.5,-108.793"/>
<polygon fill="midnightblue" stroke="midnightblue" points="53.0001,-136.179 56.5,-146.179 60.0001,-136.179 53.0001,-136.179"/>
</g>
<!-- Node4 -->
<g id="node4" class="node"><title>Node4</title>
<polygon fill="white" stroke="#bfbfbf" points="131,-84 131,-103 160,-103 160,-84 131,-84"/>
<text text-anchor="middle" x="145.5" y="-91" font-family="Helvetica,sans-Serif" font-size="10.00">Fd</text>
</g>
<!-- Node4&#45;&gt;Node1 -->
<g id="edge3" class="edge"><title>Node4&#45;&gt;Node1</title>
<path fill="none" stroke="#9a32cd" stroke-dasharray="5,2" d="M139.956,-74.1816C135.894,-60.7585 130.462,-42.8097 126.743,-30.5198"/>
<polygon fill="#9a32cd" stroke="#9a32cd" points="136.615,-75.2244 142.862,-83.7818 143.315,-73.1967 136.615,-75.2244"/>
<text text-anchor="middle" x="143" y="-52" font-family="Helvetica,sans-Serif" font-size="10.00"> _fd</text>
</g>
</g>
</svg>
