<?xml version="1.0" encoding="UTF-8" standalone="no"?>
<!DOCTYPE svg PUBLIC "-//W3C//DTD SVG 1.1//EN"
 "http://www.w3.org/Graphics/SVG/1.1/DTD/svg11.dtd">
<!-- Generated by graphviz version 2.36.0 (20140111.2315)
 -->
<!-- Title: asc::kernel_header Pages: 1 -->
<svg width="684pt" height="1188pt"
 viewBox="0.00 0.00 684.00 1188.00" xmlns="http://www.w3.org/2000/svg" xmlns:xlink="http://www.w3.org/1999/xlink">
<g id="graph0" class="graph" transform="scale(1 1) rotate(0) translate(4 1184)">
<title>asc::kernel_header</title>
<polygon fill="white" stroke="none" points="-4,4 -4,-1184 680,-1184 680,4 -4,4"/>
<!-- Node1 -->
<g id="node1" class="node"><title>Node1</title>
<polygon fill="#bfbfbf" stroke="black" points="0.5,-487.5 0.5,-506.5 99.5,-506.5 99.5,-487.5 0.5,-487.5"/>
<text text-anchor="middle" x="50" y="-494.5" font-family="Helvetica,sans-Serif" font-size="10.00">asc::kernel_header</text>
</g>
<!-- Node2 -->
<g id="node2" class="node"><title>Node2</title>
<g id="a_node2"><a xlink:href="classasc_1_1mobile__kernel.html" target="_top" xlink:title="asc::mobile_kernel">
<polygon fill="white" stroke="black" points="136,-487.5 136,-506.5 234,-506.5 234,-487.5 136,-487.5"/>
<text text-anchor="middle" x="185" y="-494.5" font-family="Helvetica,sans-Serif" font-size="10.00">asc::mobile_kernel</text>
</a>
</g>
</g>
<!-- Node1&#45;&gt;Node2 -->
<g id="edge1" class="edge"><title>Node1&#45;&gt;Node2</title>
<path fill="none" stroke="midnightblue" d="M109.805,-497C118.453,-497 127.277,-497 135.681,-497"/>
<polygon fill="midnightblue" stroke="midnightblue" points="109.769,-493.5 99.7691,-497 109.769,-500.5 109.769,-493.5"/>
</g>
<!-- Node3 -->
<g id="node3" class="node"><title>Node3</title>
<g id="a_node3"><a xlink:href="structasc_1_1Kernel.html" target="_top" xlink:title="asc::Kernel">
<polygon fill="white" stroke="black" points="270,-487.5 270,-506.5 336,-506.5 336,-487.5 270,-487.5"/>
<text text-anchor="middle" x="303" y="-494.5" font-family="Helvetica,sans-Serif" font-size="10.00">asc::Kernel</text>
</a>
</g>
</g>
<!-- Node2&#45;&gt;Node3 -->
<g id="edge2" class="edge"><title>Node2&#45;&gt;Node3</title>
<path fill="none" stroke="midnightblue" d="M244.466,-497C253.258,-497 262.036,-497 269.992,-497"/>
<polygon fill="midnightblue" stroke="midnightblue" points="244.187,-493.5 234.187,-497 244.187,-500.5 244.187,-493.5"/>
</g>
<!-- Node4 -->
<g id="node4" class="node"><title>Node4</title>
<g id="a_node4"><a xlink:href="classasc_1_1discovery__timer.html" target="_top" xlink:title="asc::discovery_timer">
<polygon fill="white" stroke="black" points="391.5,-1160.5 391.5,-1179.5 498.5,-1179.5 498.5,-1160.5 391.5,-1160.5"/>
<text text-anchor="middle" x="445" y="-1167.5" font-family="Helvetica,sans-Serif" font-size="10.00">asc::discovery_timer</text>
</a>
</g>
</g>
<!-- Node3&#45;&gt;Node4 -->
<g id="edge3" class="edge"><title>Node3&#45;&gt;Node4</title>
<path fill="none" stroke="midnightblue" d="M304.746,-517.049C308.811,-621.619 329.684,-1101.59 372,-1151 377.13,-1156.99 383.903,-1161.2 391.245,-1164.15"/>
<polygon fill="midnightblue" stroke="midnightblue" points="308.238,-516.773 304.359,-506.913 301.243,-517.04 308.238,-516.773"/>
</g>
<!-- Node5 -->
<g id="node5" class="node"><title>Node5</title>
<g id="a_node5"><a xlink:href="classasc_1_1hierarchy__kernel.html" target="_top" xlink:title="asc::hierarchy_kernel">
<polygon fill="white" stroke="black" points="390,-1122.5 390,-1141.5 500,-1141.5 500,-1122.5 390,-1122.5"/>
<text text-anchor="middle" x="445" y="-1129.5" font-family="Helvetica,sans-Serif" font-size="10.00">asc::hierarchy_kernel</text>
</a>
</g>
</g>
<!-- Node3&#45;&gt;Node5 -->
<g id="edge4" class="edge"><title>Node3&#45;&gt;Node5</title>
<path fill="none" stroke="midnightblue" d="M304.871,-516.821C309.454,-617.221 332.093,-1066.7 372,-1113 376.811,-1118.58 383.049,-1122.62 389.84,-1125.52"/>
<polygon fill="midnightblue" stroke="midnightblue" points="308.366,-516.644 304.421,-506.811 301.373,-516.958 308.366,-516.644"/>
</g>
<!-- Node6 -->
<g id="node6" class="node"><title>Node6</title>
<g id="a_node6"><a xlink:href="structasc_1_1Map.html" target="_top" xlink:title="asc::Map\&lt; F, G, I \&gt;">
<polygon fill="white" stroke="black" points="393,-1084.5 393,-1103.5 497,-1103.5 497,-1084.5 393,-1084.5"/>
<text text-anchor="middle" x="445" y="-1091.5" font-family="Helvetica,sans-Serif" font-size="10.00">asc::Map&lt; F, G, I &gt;</text>
</a>
</g>
</g>
<!-- Node3&#45;&gt;Node6 -->
<g id="edge5" class="edge"><title>Node3&#45;&gt;Node6</title>
<path fill="none" stroke="midnightblue" d="M305.034,-516.746C310.246,-613.059 334.864,-1030.67 372,-1074 377.488,-1080.4 384.83,-1084.84 392.732,-1087.91"/>
<polygon fill="midnightblue" stroke="midnightblue" points="308.523,-516.439 304.495,-506.64 301.532,-516.812 308.523,-516.439"/>
</g>
<!-- Node7 -->
<g id="node7" class="node"><title>Node7</title>
<g id="a_node7"><a xlink:href="structasc_1_1Map_1_1Worker.html" target="_top" xlink:title="asc::Map\&lt; F, G, I \&gt;\l::Worker">
<polygon fill="white" stroke="black" points="393,-1035 393,-1065 497,-1065 497,-1035 393,-1035"/>
<text text-anchor="start" x="401" y="-1053" font-family="Helvetica,sans-Serif" font-size="10.00">asc::Map&lt; F, G, I &gt;</text>
<text text-anchor="middle" x="445" y="-1042" font-family="Helvetica,sans-Serif" font-size="10.00">::Worker</text>
</a>
</g>
</g>
<!-- Node3&#45;&gt;Node7 -->
<g id="edge6" class="edge"><title>Node3&#45;&gt;Node7</title>
<path fill="none" stroke="midnightblue" d="M303.86,-516.795C303.64,-603.001 306.944,-944.935 372,-1025 377.507,-1031.78 384.96,-1036.72 392.99,-1040.33"/>
<polygon fill="midnightblue" stroke="midnightblue" points="307.36,-516.594 303.907,-506.578 300.361,-516.562 307.36,-516.594"/>
</g>
<!-- Node8 -->
<g id="node8" class="node"><title>Node8</title>
<g id="a_node8"><a xlink:href="classasc_1_1network__master.html" target="_top" xlink:title="asc::network_master">
<polygon fill="white" stroke="black" points="391,-996.5 391,-1015.5 499,-1015.5 499,-996.5 391,-996.5"/>
<text text-anchor="middle" x="445" y="-1003.5" font-family="Helvetica,sans-Serif" font-size="10.00">asc::network_master</text>
</a>
</g>
</g>
<!-- Node3&#45;&gt;Node8 -->
<g id="edge7" class="edge"><title>Node3&#45;&gt;Node8</title>
<path fill="none" stroke="midnightblue" d="M303.933,-516.797C304.062,-599.406 308.742,-915.648 372,-987 377.06,-992.707 383.612,-996.793 390.699,-999.702"/>
<polygon fill="midnightblue" stroke="midnightblue" points="307.433,-516.743 303.939,-506.741 300.433,-516.738 307.433,-516.743"/>
</g>
<!-- Node9 -->
<g id="node9" class="node"><title>Node9</title>
<g id="a_node9"><a xlink:href="classasc_1_1network__timer.html" target="_top" xlink:title="asc::network_timer">
<polygon fill="white" stroke="black" points="395,-958.5 395,-977.5 495,-977.5 495,-958.5 395,-958.5"/>
<text text-anchor="middle" x="445" y="-965.5" font-family="Helvetica,sans-Serif" font-size="10.00">asc::network_timer</text>
</a>
</g>
</g>
<!-- Node3&#45;&gt;Node9 -->
<g id="edge8" class="edge"><title>Node3&#45;&gt;Node9</title>
<path fill="none" stroke="midnightblue" d="M304.188,-516.749C305.34,-595.215 313.548,-883.823 372,-949 378.042,-955.737 386.163,-960.21 394.774,-963.154"/>
<polygon fill="midnightblue" stroke="midnightblue" points="307.688,-516.704 304.064,-506.748 300.688,-516.791 307.688,-516.704"/>
</g>
<!-- Node10 -->
<g id="node10" class="node"><title>Node10</title>
<g id="a_node10"><a xlink:href="classasc_1_1Notification.html" target="_top" xlink:title="asc::Notification">
<polygon fill="white" stroke="black" points="401,-920.5 401,-939.5 489,-939.5 489,-920.5 401,-920.5"/>
<text text-anchor="middle" x="445" y="-927.5" font-family="Helvetica,sans-Serif" font-size="10.00">asc::Notification</text>
</a>
</g>
</g>
<!-- Node3&#45;&gt;Node10 -->
<g id="edge9" class="edge"><title>Node3&#45;&gt;Node10</title>
<path fill="none" stroke="midnightblue" d="M304.495,-516.955C306.75,-591.453 318.401,-852.038 372,-911 379.479,-919.227 390.058,-924.07 400.811,-926.876"/>
<polygon fill="midnightblue" stroke="midnightblue" points="307.985,-516.555 304.209,-506.656 300.988,-516.749 307.985,-516.555"/>
</g>
<!-- Node11 -->
<g id="node11" class="node"><title>Node11</title>
<g id="a_node11"><a xlink:href="classasc_1_1probe.html" target="_top" xlink:title="asc::probe">
<polygon fill="white" stroke="black" points="414,-882.5 414,-901.5 476,-901.5 476,-882.5 414,-882.5"/>
<text text-anchor="middle" x="445" y="-889.5" font-family="Helvetica,sans-Serif" font-size="10.00">asc::probe</text>
</a>
</g>
</g>
<!-- Node3&#45;&gt;Node11 -->
<g id="edge10" class="edge"><title>Node3&#45;&gt;Node11</title>
<path fill="none" stroke="midnightblue" d="M304.857,-516.913C308.269,-586.892 323.175,-820.152 372,-873 382.615,-884.49 399.281,-889.363 413.906,-891.307"/>
<polygon fill="midnightblue" stroke="midnightblue" points="308.347,-516.631 304.39,-506.803 301.355,-516.954 308.347,-516.631"/>
</g>
<!-- Node12 -->
<g id="node12" class="node"><title>Node12</title>
<g id="a_node12"><a xlink:href="classasc_1_1prober.html" target="_top" xlink:title="asc::prober">
<polygon fill="white" stroke="black" points="412.5,-844.5 412.5,-863.5 477.5,-863.5 477.5,-844.5 412.5,-844.5"/>
<text text-anchor="middle" x="445" y="-851.5" font-family="Helvetica,sans-Serif" font-size="10.00">asc::prober</text>
</a>
</g>
</g>
<!-- Node3&#45;&gt;Node12 -->
<g id="edge11" class="edge"><title>Node3&#45;&gt;Node12</title>
<path fill="none" stroke="midnightblue" d="M305.303,-516.979C309.967,-582.336 327.953,-788.252 372,-835 382.284,-845.915 398.031,-850.839 412.179,-852.961"/>
<polygon fill="midnightblue" stroke="midnightblue" points="308.781,-516.529 304.605,-506.792 301.797,-517.008 308.781,-516.529"/>
</g>
<!-- Node13 -->
<g id="node13" class="node"><title>Node13</title>
<g id="a_node13"><a xlink:href="classasc_1_1resident__kernel.html" target="_top" xlink:title="asc::resident_kernel">
<polygon fill="white" stroke="black" points="393,-806.5 393,-825.5 497,-825.5 497,-806.5 393,-806.5"/>
<text text-anchor="middle" x="445" y="-813.5" font-family="Helvetica,sans-Serif" font-size="10.00">asc::resident_kernel</text>
</a>
</g>
</g>
<!-- Node3&#45;&gt;Node13 -->
<g id="edge12" class="edge"><title>Node3&#45;&gt;Node13</title>
<path fill="none" stroke="midnightblue" d="M305.824,-516.662C311.788,-576.729 332.622,-756.214 372,-797 377.747,-802.952 385.12,-807.116 392.948,-810.013"/>
<polygon fill="midnightblue" stroke="midnightblue" points="309.299,-516.224 304.856,-506.605 302.331,-516.895 309.299,-516.224"/>
</g>
<!-- Node15 -->
<g id="node15" class="node"><title>Node15</title>
<g id="a_node15"><a xlink:href="structautoreg_1_1ACF__generator.html" target="_top" xlink:title="autoreg::ACF_generator\&lt; T \&gt;">
<polygon fill="white" stroke="black" points="372.5,-768.5 372.5,-787.5 517.5,-787.5 517.5,-768.5 372.5,-768.5"/>
<text text-anchor="middle" x="445" y="-775.5" font-family="Helvetica,sans-Serif" font-size="10.00">autoreg::ACF_generator&lt; T &gt;</text>
</a>
</g>
</g>
<!-- Node3&#45;&gt;Node15 -->
<g id="edge14" class="edge"><title>Node3&#45;&gt;Node15</title>
<path fill="none" stroke="midnightblue" d="M306.517,-516.634C313.924,-571.413 337.325,-724.184 372,-759 375.832,-762.847 380.344,-765.943 385.21,-768.432"/>
<polygon fill="midnightblue" stroke="midnightblue" points="309.959,-515.966 305.181,-506.51 303.019,-516.882 309.959,-515.966"/>
</g>
<!-- Node16 -->
<g id="node16" class="node"><title>Node16</title>
<g id="a_node16"><a xlink:href="structautoreg_1_1Autoreg__coefs.html" target="_top" xlink:title="autoreg::Autoreg_coefs\&lt; T \&gt;">
<polygon fill="white" stroke="black" points="374,-730.5 374,-749.5 516,-749.5 516,-730.5 374,-730.5"/>
<text text-anchor="middle" x="445" y="-737.5" font-family="Helvetica,sans-Serif" font-size="10.00">autoreg::Autoreg_coefs&lt; T &gt;</text>
</a>
</g>
</g>
<!-- Node3&#45;&gt;Node16 -->
<g id="edge15" class="edge"><title>Node3&#45;&gt;Node16</title>
<path fill="none" stroke="midnightblue" d="M303.949,-516.891C304.963,-560.442 313.713,-664.815 372,-721 376.002,-724.858 380.691,-727.956 385.724,-730.44"/>
<polygon fill="midnightblue" stroke="midnightblue" points="307.447,-516.71 303.833,-506.751 300.448,-516.79 307.447,-516.71"/>
</g>
<!-- Node17 -->
<g id="node17" class="node"><title>Node17</title>
<g id="a_node17"><a xlink:href="classautoreg_1_1Autoreg__model.html" target="_top" xlink:title="autoreg::Autoreg_model\&lt; T \&gt;">
<polygon fill="white" stroke="black" points="373,-692.5 373,-711.5 517,-711.5 517,-692.5 373,-692.5"/>
<text text-anchor="middle" x="445" y="-699.5" font-family="Helvetica,sans-Serif" font-size="10.00">autoreg::Autoreg_model&lt; T &gt;</text>
</a>
</g>
</g>
<!-- Node3&#45;&gt;Node17 -->
<g id="edge16" class="edge"><title>Node3&#45;&gt;Node17</title>
<path fill="none" stroke="midnightblue" d="M305.503,-516.946C309.446,-554.792 323.434,-637.23 372,-682 376.674,-686.309 382.196,-689.701 388.071,-692.369"/>
<polygon fill="midnightblue" stroke="midnightblue" points="308.965,-516.366 304.575,-506.724 301.994,-516.999 308.965,-516.366"/>
</g>
<!-- Node18 -->
<g id="node18" class="node"><title>Node18</title>
<g id="a_node18"><a xlink:href="structautoreg_1_1Generator1.html" target="_top" xlink:title="autoreg::Generator1\l\&lt; T, Grid \&gt;">
<polygon fill="white" stroke="black" points="393.5,-643 393.5,-673 496.5,-673 496.5,-643 393.5,-643"/>
<text text-anchor="start" x="401.5" y="-661" font-family="Helvetica,sans-Serif" font-size="10.00">autoreg::Generator1</text>
<text text-anchor="middle" x="445" y="-650" font-family="Helvetica,sans-Serif" font-size="10.00">&lt; T, Grid &gt;</text>
</a>
</g>
</g>
<!-- Node3&#45;&gt;Node18 -->
<g id="edge17" class="edge"><title>Node3&#45;&gt;Node18</title>
<path fill="none" stroke="midnightblue" d="M308.741,-516.682C316.808,-546.068 335.945,-601.335 372,-633 378.164,-638.414 385.566,-642.671 393.244,-646.016"/>
<polygon fill="midnightblue" stroke="midnightblue" points="312.075,-515.593 306.18,-506.79 305.299,-517.348 312.075,-515.593"/>
</g>
<!-- Node19 -->
<g id="node19" class="node"><title>Node19</title>
<g id="a_node19"><a xlink:href="structautoreg_1_1Solve__Yule__Walker.html" target="_top" xlink:title="autoreg::Solve_Yule\l_Walker\&lt; T \&gt;">
<polygon fill="white" stroke="black" points="393,-594 393,-624 497,-624 497,-594 393,-594"/>
<text text-anchor="start" x="401" y="-612" font-family="Helvetica,sans-Serif" font-size="10.00">autoreg::Solve_Yule</text>
<text text-anchor="middle" x="445" y="-601" font-family="Helvetica,sans-Serif" font-size="10.00">_Walker&lt; T &gt;</text>
</a>
</g>
</g>
<!-- Node3&#45;&gt;Node19 -->
<g id="edge18" class="edge"><title>Node3&#45;&gt;Node19</title>
<path fill="none" stroke="midnightblue" d="M314.073,-515.457C325.649,-535.058 346.387,-565.685 372,-584 378.35,-588.541 385.598,-592.317 392.992,-595.439"/>
<polygon fill="midnightblue" stroke="midnightblue" points="317.005,-513.533 309.011,-506.579 310.924,-517 317.005,-513.533"/>
</g>
<!-- Node20 -->
<g id="node20" class="node"><title>Node20</title>
<g id="a_node20"><a xlink:href="structautoreg_1_1Wave__surface__generator.html" target="_top" xlink:title="autoreg::Wave_surface\l_generator\&lt; T, Grid \&gt;">
<polygon fill="white" stroke="black" points="386,-545 386,-575 504,-575 504,-545 386,-545"/>
<text text-anchor="start" x="394" y="-563" font-family="Helvetica,sans-Serif" font-size="10.00">autoreg::Wave_surface</text>
<text text-anchor="middle" x="445" y="-552" font-family="Helvetica,sans-Serif" font-size="10.00">_generator&lt; T, Grid &gt;</text>
</a>
</g>
</g>
<!-- Node3&#45;&gt;Node20 -->
<g id="edge19" class="edge"><title>Node3&#45;&gt;Node20</title>
<path fill="none" stroke="midnightblue" d="M327.918,-511.724C340.716,-519.251 356.909,-528.226 372,-535 379.847,-538.522 388.35,-541.867 396.672,-544.898"/>
<polygon fill="midnightblue" stroke="midnightblue" points="329.644,-508.678 319.264,-506.551 326.052,-514.686 329.644,-508.678"/>
</g>
<!-- Node21 -->
<g id="node21" class="node"><title>Node21</title>
<g id="a_node21"><a xlink:href="structAutoreg__app.html" target="_top" xlink:title="Autoreg_app">
<polygon fill="white" stroke="black" points="409.5,-506.5 409.5,-525.5 480.5,-525.5 480.5,-506.5 409.5,-506.5"/>
<text text-anchor="middle" x="445" y="-513.5" font-family="Helvetica,sans-Serif" font-size="10.00">Autoreg_app</text>
</a>
</g>
</g>
<!-- Node3&#45;&gt;Node21 -->
<g id="edge20" class="edge"><title>Node3&#45;&gt;Node21</title>
<path fill="none" stroke="midnightblue" d="M346.245,-502.733C366.326,-505.459 390.044,-508.677 409.088,-511.262"/>
<polygon fill="midnightblue" stroke="midnightblue" points="346.499,-499.236 336.119,-501.359 345.557,-506.172 346.499,-499.236"/>
</g>
<!-- Node22 -->
<g id="node22" class="node"><title>Node22</title>
<g id="a_node22"><a xlink:href="structBig__kernel.html" target="_top" xlink:title="Big_kernel\&lt; Size \&gt;">
<polygon fill="white" stroke="black" points="395,-468.5 395,-487.5 495,-487.5 495,-468.5 395,-468.5"/>
<text text-anchor="middle" x="445" y="-475.5" font-family="Helvetica,sans-Serif" font-size="10.00">Big_kernel&lt; Size &gt;</text>
</a>
</g>
</g>
<!-- Node3&#45;&gt;Node22 -->
<g id="edge21" class="edge"><title>Node3&#45;&gt;Node22</title>
<path fill="none" stroke="midnightblue" d="M346.306,-491.258C361.569,-489.187 378.926,-486.831 394.733,-484.686"/>
<polygon fill="midnightblue" stroke="midnightblue" points="345.557,-487.828 336.119,-492.641 346.499,-494.764 345.557,-487.828"/>
</g>
<!-- Node23 -->
<g id="node23" class="node"><title>Node23</title>
<g id="a_node23"><a xlink:href="structDummy__kernel.html" target="_top" xlink:title="Dummy_kernel">
<polygon fill="white" stroke="black" points="403.5,-430.5 403.5,-449.5 486.5,-449.5 486.5,-430.5 403.5,-430.5"/>
<text text-anchor="middle" x="445" y="-437.5" font-family="Helvetica,sans-Serif" font-size="10.00">Dummy_kernel</text>
</a>
</g>
</g>
<!-- Node3&#45;&gt;Node23 -->
<g id="edge22" class="edge"><title>Node3&#45;&gt;Node23</title>
<path fill="none" stroke="midnightblue" d="M327.215,-482.103C340.031,-474.38 356.46,-465.275 372,-459 381.95,-454.982 393.016,-451.572 403.429,-448.799"/>
<polygon fill="midnightblue" stroke="midnightblue" points="325.261,-479.196 318.586,-487.424 328.935,-485.155 325.261,-479.196"/>
</g>
<!-- Node24 -->
<g id="node24" class="node"><title>Node24</title>
<g id="a_node24"><a xlink:href="structGood__kernel.html" target="_top" xlink:title="Good_kernel">
<polygon fill="white" stroke="black" points="409.5,-392.5 409.5,-411.5 480.5,-411.5 480.5,-392.5 409.5,-392.5"/>
<text text-anchor="middle" x="445" y="-399.5" font-family="Helvetica,sans-Serif" font-size="10.00">Good_kernel</text>
</a>
</g>
</g>
<!-- Node3&#45;&gt;Node24 -->
<g id="edge23" class="edge"><title>Node3&#45;&gt;Node24</title>
<path fill="none" stroke="midnightblue" d="M315.635,-478.743C327.672,-461.337 348.049,-435.666 372,-421 383.246,-414.114 396.96,-409.699 409.391,-406.879"/>
<polygon fill="midnightblue" stroke="midnightblue" points="312.471,-477.179 309.836,-487.441 318.296,-481.062 312.471,-477.179"/>
</g>
<!-- Node27 -->
<g id="node27" class="node"><title>Node27</title>
<g id="a_node27"><a xlink:href="structKernel__that__carries__its__parent.html" target="_top" xlink:title="Kernel_that_carries\l_its_parent">
<polygon fill="white" stroke="black" points="394.5,-343 394.5,-373 495.5,-373 495.5,-343 394.5,-343"/>
<text text-anchor="start" x="402.5" y="-361" font-family="Helvetica,sans-Serif" font-size="10.00">Kernel_that_carries</text>
<text text-anchor="middle" x="445" y="-350" font-family="Helvetica,sans-Serif" font-size="10.00">_its_parent</text>
</a>
</g>
</g>
<!-- Node3&#45;&gt;Node27 -->
<g id="edge26" class="edge"><title>Node3&#45;&gt;Node27</title>
<path fill="none" stroke="midnightblue" d="M310.724,-477.633C320.437,-452.39 340.732,-408.471 372,-383 378.566,-377.652 386.349,-373.415 394.33,-370.068"/>
<polygon fill="midnightblue" stroke="midnightblue" points="307.373,-476.607 307.208,-487.2 313.943,-479.021 307.373,-476.607"/>
</g>
<!-- Node28 -->
<g id="node28" class="node"><title>Node28</title>
<g id="a_node28"><a xlink:href="structLauncher.html" target="_top" xlink:title="Launcher">
<polygon fill="white" stroke="black" points="417,-304.5 417,-323.5 473,-323.5 473,-304.5 417,-304.5"/>
<text text-anchor="middle" x="445" y="-311.5" font-family="Helvetica,sans-Serif" font-size="10.00">Launcher</text>
</a>
</g>
</g>
<!-- Node3&#45;&gt;Node28 -->
<g id="edge27" class="edge"><title>Node3&#45;&gt;Node28</title>
<path fill="none" stroke="midnightblue" d="M306.637,-477.052C312.253,-442.676 328.632,-372.288 372,-334 384.351,-323.096 402.168,-318.088 416.987,-315.811"/>
<polygon fill="midnightblue" stroke="midnightblue" points="303.133,-476.824 305.122,-487.231 310.056,-477.855 303.133,-476.824"/>
</g>
<!-- Node29 -->
<g id="node29" class="node"><title>Node29</title>
<g id="a_node29"><a xlink:href="classMain.html" target="_top" xlink:title="Main">
<polygon fill="white" stroke="black" points="426,-266.5 426,-285.5 464,-285.5 464,-266.5 426,-266.5"/>
<text text-anchor="middle" x="445" y="-273.5" font-family="Helvetica,sans-Serif" font-size="10.00">Main</text>
</a>
</g>
</g>
<!-- Node3&#45;&gt;Node29 -->
<g id="edge28" class="edge"><title>Node3&#45;&gt;Node29</title>
<path fill="none" stroke="midnightblue" d="M304.177,-477.38C305.302,-429.486 313.461,-322.759 372,-268 392.959,-248.394 431.712,-248.504 441.636,-266.487"/>
<polygon fill="midnightblue" stroke="midnightblue" points="300.676,-477.396 304.021,-487.449 307.675,-477.504 300.676,-477.396"/>
</g>
<!-- Node3&#45;&gt;Node29 -->
<g id="edge29" class="edge"><title>Node3&#45;&gt;Node29</title>
<path fill="none" stroke="midnightblue" d="M304.472,-476.919C306.49,-434.605 317.047,-337.404 372,-286 386.539,-272.4 409.641,-268.286 425.742,-269.127"/>
<polygon fill="midnightblue" stroke="midnightblue" points="300.968,-476.976 304.105,-487.096 307.964,-477.229 300.968,-476.976"/>
</g>
<!-- Node3&#45;&gt;Node29 -->
<g id="edge30" class="edge"><title>Node3&#45;&gt;Node29</title>
<path fill="none" stroke="midnightblue" d="M305.118,-476.991C308.407,-437.719 321.334,-351.394 372,-304 386.539,-290.4 409.641,-286.286 425.742,-283.209"/>
<polygon fill="midnightblue" stroke="midnightblue" points="301.612,-476.941 304.398,-487.163 308.595,-477.435 301.612,-476.941"/>
</g>
<!-- Node3&#45;&gt;Node29 -->
<g id="edge31" class="edge"><title>Node3&#45;&gt;Node29</title>
<path fill="none" stroke="midnightblue" d="M306.335,-477.399C311.193,-439.724 326.13,-364.908 372,-322 392.771,-302.571 431.016,-302.504 441.361,-285.733"/>
<polygon fill="midnightblue" stroke="midnightblue" points="302.85,-477.066 305.171,-487.404 309.803,-477.875 302.85,-477.066"/>
</g>
<!-- Node30 -->
<g id="node30" class="node"><title>Node30</title>
<g id="a_node30"><a xlink:href="structSender.html" target="_top" xlink:title="Sender">
<polygon fill="white" stroke="black" points="421.5,-228.5 421.5,-247.5 468.5,-247.5 468.5,-228.5 421.5,-228.5"/>
<text text-anchor="middle" x="445" y="-235.5" font-family="Helvetica,sans-Serif" font-size="10.00">Sender</text>
</a>
</g>
</g>
<!-- Node3&#45;&gt;Node30 -->
<g id="edge32" class="edge"><title>Node3&#45;&gt;Node30</title>
<path fill="none" stroke="midnightblue" d="M303.468,-476.951C303.396,-431.125 309.904,-317.983 372,-257 385.005,-244.228 405.526,-239.761 421.339,-238.325"/>
<polygon fill="midnightblue" stroke="midnightblue" points="299.969,-477.124 303.598,-487.078 306.969,-477.034 299.969,-477.124"/>
</g>
<!-- Node31 -->
<g id="node31" class="node"><title>Node31</title>
<g id="a_node31"><a xlink:href="structSleepy__kernel.html" target="_top" xlink:title="Sleepy_kernel">
<polygon fill="white" stroke="black" points="406,-190.5 406,-209.5 484,-209.5 484,-190.5 406,-190.5"/>
<text text-anchor="middle" x="445" y="-197.5" font-family="Helvetica,sans-Serif" font-size="10.00">Sleepy_kernel</text>
</a>
</g>
</g>
<!-- Node3&#45;&gt;Node31 -->
<g id="edge33" class="edge"><title>Node3&#45;&gt;Node31</title>
<path fill="none" stroke="midnightblue" d="M306.254,-476.928C313.099,-419.494 335.44,-256.228 372,-219 380.877,-209.961 393.509,-205.058 405.72,-202.449"/>
<polygon fill="midnightblue" stroke="midnightblue" points="302.736,-476.879 305.06,-487.216 309.69,-477.686 302.736,-476.879"/>
</g>
<!-- Node32 -->
<g id="node32" class="node"><title>Node32</title>
<g id="a_node32"><a xlink:href="structSpec__app.html" target="_top" xlink:title="Spec_app">
<polygon fill="white" stroke="black" points="415,-152.5 415,-171.5 475,-171.5 475,-152.5 415,-152.5"/>
<text text-anchor="middle" x="445" y="-159.5" font-family="Helvetica,sans-Serif" font-size="10.00">Spec_app</text>
</a>
</g>
</g>
<!-- Node3&#45;&gt;Node32 -->
<g id="edge34" class="edge"><title>Node3&#45;&gt;Node32</title>
<path fill="none" stroke="midnightblue" d="M305.6,-477.108C311.017,-414.687 330.68,-224.268 372,-181 382.982,-169.5 400.032,-164.665 414.784,-162.745"/>
<polygon fill="midnightblue" stroke="midnightblue" points="302.101,-476.952 304.752,-487.21 309.076,-477.537 302.101,-476.952"/>
</g>
<!-- Node33 -->
<g id="node33" class="node"><title>Node33</title>
<g id="a_node33"><a xlink:href="structSpectrum__kernel.html" target="_top" xlink:title="Spectrum_kernel">
<polygon fill="white" stroke="black" points="400,-114.5 400,-133.5 490,-133.5 490,-114.5 400,-114.5"/>
<text text-anchor="middle" x="445" y="-121.5" font-family="Helvetica,sans-Serif" font-size="10.00">Spectrum_kernel</text>
</a>
</g>
</g>
<!-- Node3&#45;&gt;Node33 -->
<g id="edge35" class="edge"><title>Node3&#45;&gt;Node33</title>
<path fill="none" stroke="midnightblue" d="M305.082,-477.394C309.172,-410.461 325.865,-192.395 372,-143 379.324,-135.158 389.468,-130.404 399.832,-127.56"/>
<polygon fill="midnightblue" stroke="midnightblue" points="301.585,-477.244 304.496,-487.432 308.573,-477.653 301.585,-477.244"/>
</g>
<!-- Node34 -->
<g id="node34" class="node"><title>Node34</title>
<g id="a_node34"><a xlink:href="structStation__kernel.html" target="_top" xlink:title="Station_kernel">
<polygon fill="white" stroke="black" points="405.5,-76.5 405.5,-95.5 484.5,-95.5 484.5,-76.5 405.5,-76.5"/>
<text text-anchor="middle" x="445" y="-83.5" font-family="Helvetica,sans-Serif" font-size="10.00">Station_kernel</text>
</a>
</g>
</g>
<!-- Node3&#45;&gt;Node34 -->
<g id="edge36" class="edge"><title>Node3&#45;&gt;Node34</title>
<path fill="none" stroke="midnightblue" d="M304.71,-476.722C307.656,-404.379 321.248,-160.329 372,-105 380.564,-95.6635 393.123,-90.6909 405.362,-88.1093"/>
<polygon fill="midnightblue" stroke="midnightblue" points="301.196,-477.02 304.313,-487.146 308.191,-477.287 301.196,-477.02"/>
</g>
<!-- Node35 -->
<g id="node35" class="node"><title>Node35</title>
<g id="a_node35"><a xlink:href="structTest__socket.html" target="_top" xlink:title="Test_socket">
<polygon fill="white" stroke="black" points="409.5,-38.5 409.5,-57.5 480.5,-57.5 480.5,-38.5 409.5,-38.5"/>
<text text-anchor="middle" x="445" y="-45.5" font-family="Helvetica,sans-Serif" font-size="10.00">Test_socket</text>
</a>
</g>
</g>
<!-- Node3&#45;&gt;Node35 -->
<g id="edge37" class="edge"><title>Node3&#45;&gt;Node35</title>
<path fill="none" stroke="midnightblue" d="M304.291,-477.029C305.872,-399.338 315.608,-120.407 372,-58 381.448,-47.5448 395.903,-42.5484 409.389,-40.9523"/>
<polygon fill="midnightblue" stroke="midnightblue" points="300.786,-477.285 304.107,-487.346 307.785,-477.41 300.786,-477.285"/>
</g>
<!-- Node3&#45;&gt;Node35 -->
<g id="edge38" class="edge"><title>Node3&#45;&gt;Node35</title>
<path fill="none" stroke="midnightblue" d="M304.442,-477.226C306.449,-402.009 317.174,-136.673 372,-76 381.448,-65.5448 395.903,-60.5484 409.389,-57.5629"/>
<polygon fill="midnightblue" stroke="midnightblue" points="300.943,-477.171 304.198,-487.254 307.941,-477.342 300.943,-477.171"/>
</g>
<!-- Node36 -->
<g id="node36" class="node"><title>Node36</title>
<g id="a_node36"><a xlink:href="structYear__kernel.html" target="_top" xlink:title="Year_kernel">
<polygon fill="white" stroke="black" points="411,-0.5 411,-19.5 479,-19.5 479,-0.5 411,-0.5"/>
<text text-anchor="middle" x="445" y="-7.5" font-family="Helvetica,sans-Serif" font-size="10.00">Year_kernel</text>
</a>
</g>
</g>
<!-- Node3&#45;&gt;Node36 -->
<g id="edge39" class="edge"><title>Node3&#45;&gt;Node36</title>
<path fill="none" stroke="midnightblue" d="M304.077,-477.081C304.799,-396.628 311.564,-96.7318 372,-29 381.726,-18.0999 396.894,-13.1206 410.805,-10.9589"/>
<polygon fill="midnightblue" stroke="midnightblue" points="300.576,-477.282 304.009,-487.305 307.576,-477.329 300.576,-477.282"/>
</g>
<!-- Node14 -->
<g id="node14" class="node"><title>Node14</title>
<g id="a_node14"><a xlink:href="classasc_1_1master__discoverer.html" target="_top" xlink:title="asc::master_discoverer">
<polygon fill="white" stroke="black" points="555.5,-806.5 555.5,-825.5 674.5,-825.5 674.5,-806.5 555.5,-806.5"/>
<text text-anchor="middle" x="615" y="-813.5" font-family="Helvetica,sans-Serif" font-size="10.00">asc::master_discoverer</text>
</a>
</g>
</g>
<!-- Node13&#45;&gt;Node14 -->
<g id="edge13" class="edge"><title>Node13&#45;&gt;Node14</title>
<path fill="none" stroke="midnightblue" d="M507.415,-816C523.065,-816 539.845,-816 555.352,-816"/>
<polygon fill="midnightblue" stroke="midnightblue" points="507.318,-812.5 497.318,-816 507.318,-819.5 507.318,-812.5"/>
</g>
<!-- Node25 -->
<g id="node25" class="node"><title>Node25</title>
<g id="a_node25"><a xlink:href="structKernel__that__reads__more__than__writes.html" target="_top" xlink:title="Kernel_that_reads_more\l_than_writes">
<polygon fill="white" stroke="black" points="554,-411 554,-441 676,-441 676,-411 554,-411"/>
<text text-anchor="start" x="562" y="-429" font-family="Helvetica,sans-Serif" font-size="10.00">Kernel_that_reads_more</text>
<text text-anchor="middle" x="615" y="-418" font-family="Helvetica,sans-Serif" font-size="10.00">_than_writes</text>
</a>
</g>
</g>
<!-- Node24&#45;&gt;Node25 -->
<g id="edge24" class="edge"><title>Node24&#45;&gt;Node25</title>
<path fill="none" stroke="midnightblue" d="M490.839,-408.406C510.141,-411.163 532.997,-414.428 553.747,-417.392"/>
<polygon fill="midnightblue" stroke="midnightblue" points="491.204,-404.922 480.81,-406.973 490.214,-411.852 491.204,-404.922"/>
</g>
<!-- Node26 -->
<g id="node26" class="node"><title>Node26</title>
<g id="a_node26"><a xlink:href="structKernel__that__writes__more__than__reads.html" target="_top" xlink:title="Kernel_that_writes\l_more_than_reads">
<polygon fill="white" stroke="black" points="566,-362 566,-392 664,-392 664,-362 566,-362"/>
<text text-anchor="start" x="574" y="-380" font-family="Helvetica,sans-Serif" font-size="10.00">Kernel_that_writes</text>
<text text-anchor="middle" x="615" y="-369" font-family="Helvetica,sans-Serif" font-size="10.00">_more_than_reads</text>
</a>
</g>
</g>
<!-- Node24&#45;&gt;Node26 -->
<g id="edge25" class="edge"><title>Node24&#45;&gt;Node26</title>
<path fill="none" stroke="midnightblue" d="M490.726,-395.344C513.896,-391.896 542.211,-387.683 565.858,-384.164"/>
<polygon fill="midnightblue" stroke="midnightblue" points="490.186,-391.886 480.81,-396.82 491.216,-398.81 490.186,-391.886"/>
</g>
</g>
</svg>
