<?xml version="1.0" encoding="UTF-8" standalone="no"?>
<!DOCTYPE svg PUBLIC "-//W3C//DTD SVG 1.1//EN"
 "http://www.w3.org/Graphics/SVG/1.1/DTD/svg11.dtd">
<!-- Generated by graphviz version 2.36.0 (20140111.2315)
 -->
<!-- Title: factory::basic_pipeline&lt; T, Kernels, Traits, Threads, Mutex, Lock, Semaphore &gt; Pages: 1 -->
<svg width="614pt" height="377pt"
 viewBox="0.00 0.00 614.00 377.00" xmlns="http://www.w3.org/2000/svg" xmlns:xlink="http://www.w3.org/1999/xlink">
<g id="graph0" class="graph" transform="scale(1 1) rotate(0) translate(4 373)">
<title>factory::basic_pipeline&lt; T, Kernels, Traits, Threads, Mutex, Lock, Semaphore &gt;</title>
<polygon fill="white" stroke="none" points="-4,4 -4,-373 610,-373 610,4 -4,4"/>
<!-- Node1 -->
<g id="node1" class="node"><title>Node1</title>
<polygon fill="#bfbfbf" stroke="black" points="148,-142 148,-194 266,-194 266,-142 148,-142"/>
<text text-anchor="start" x="156" y="-182" font-family="Helvetica,sans-Serif" font-size="10.00">factory::basic_pipeline</text>
<text text-anchor="start" x="156" y="-171" font-family="Helvetica,sans-Serif" font-size="10.00">&lt; T, Kernels, Traits,</text>
<text text-anchor="start" x="156" y="-160" font-family="Helvetica,sans-Serif" font-size="10.00"> Threads, Mutex, Lock,</text>
<text text-anchor="middle" x="207" y="-149" font-family="Helvetica,sans-Serif" font-size="10.00"> Semaphore &gt;</text>
</g>
<!-- Node3 -->
<g id="node3" class="node"><title>Node3</title>
<g id="a_node3"><a xlink:href="structfactory_1_1basic__socket__pipeline.html" target="_top" xlink:title="basic_socket_pipeline\l\&lt; K, external_process\l_handler\&lt; K, R \&gt; \&gt;">
<polygon fill="white" stroke="black" points="314.5,-327.5 314.5,-368.5 427.5,-368.5 427.5,-327.5 314.5,-327.5"/>
<text text-anchor="start" x="322.5" y="-356.5" font-family="Helvetica,sans-Serif" font-size="10.00">basic_socket_pipeline</text>
<text text-anchor="start" x="322.5" y="-345.5" font-family="Helvetica,sans-Serif" font-size="10.00">&lt; K, external_process</text>
<text text-anchor="middle" x="371" y="-334.5" font-family="Helvetica,sans-Serif" font-size="10.00">_handler&lt; K, R &gt; &gt;</text>
</a>
</g>
</g>
<!-- Node1&#45;&gt;Node3 -->
<g id="edge2" class="edge"><title>Node1&#45;&gt;Node3</title>
<path fill="none" stroke="midnightblue" d="M223.073,-203.442C238.67,-236.528 265.831,-285.414 302,-317 306.398,-320.84 311.35,-324.289 316.527,-327.364"/>
<polygon fill="midnightblue" stroke="midnightblue" points="226.152,-201.761 218.794,-194.138 219.792,-204.686 226.152,-201.761"/>
</g>
<!-- Node5 -->
<g id="node5" class="node"><title>Node5</title>
<g id="a_node5"><a xlink:href="structfactory_1_1basic__socket__pipeline.html" target="_top" xlink:title="basic_socket_pipeline\l\&lt; K, process_handler\l\&lt; K, R \&gt; \&gt;">
<polygon fill="white" stroke="black" points="314.5,-267.5 314.5,-308.5 427.5,-308.5 427.5,-267.5 314.5,-267.5"/>
<text text-anchor="start" x="322.5" y="-296.5" font-family="Helvetica,sans-Serif" font-size="10.00">basic_socket_pipeline</text>
<text text-anchor="start" x="322.5" y="-285.5" font-family="Helvetica,sans-Serif" font-size="10.00">&lt; K, process_handler</text>
<text text-anchor="middle" x="371" y="-274.5" font-family="Helvetica,sans-Serif" font-size="10.00">&lt; K, R &gt; &gt;</text>
</a>
</g>
</g>
<!-- Node1&#45;&gt;Node5 -->
<g id="edge4" class="edge"><title>Node1&#45;&gt;Node5</title>
<path fill="none" stroke="midnightblue" d="M238.298,-201.679C255.699,-219.672 278.679,-241.287 302,-257 307.595,-260.77 313.723,-264.287 319.936,-267.499"/>
<polygon fill="midnightblue" stroke="midnightblue" points="240.626,-199.048 231.197,-194.217 235.555,-203.874 240.626,-199.048"/>
</g>
<!-- Node7 -->
<g id="node7" class="node"><title>Node7</title>
<g id="a_node7"><a xlink:href="structfactory_1_1basic__socket__pipeline.html" target="_top" xlink:title="basic_socket_pipeline\l\&lt; T, process_handler\l\&lt; T, basic_router\&lt; T \&gt; \&gt; \&gt;">
<polygon fill="white" stroke="black" points="304.5,-207.5 304.5,-248.5 437.5,-248.5 437.5,-207.5 304.5,-207.5"/>
<text text-anchor="start" x="312.5" y="-236.5" font-family="Helvetica,sans-Serif" font-size="10.00">basic_socket_pipeline</text>
<text text-anchor="start" x="312.5" y="-225.5" font-family="Helvetica,sans-Serif" font-size="10.00">&lt; T, process_handler</text>
<text text-anchor="middle" x="371" y="-214.5" font-family="Helvetica,sans-Serif" font-size="10.00">&lt; T, basic_router&lt; T &gt; &gt; &gt;</text>
</a>
</g>
</g>
<!-- Node1&#45;&gt;Node7 -->
<g id="edge6" class="edge"><title>Node1&#45;&gt;Node7</title>
<path fill="none" stroke="midnightblue" d="M275.41,-192.967C288.439,-197.792 301.95,-202.796 314.544,-207.461"/>
<polygon fill="midnightblue" stroke="midnightblue" points="276.621,-189.683 266.028,-189.492 274.19,-196.247 276.621,-189.683"/>
</g>
<!-- Node9 -->
<g id="node9" class="node"><title>Node9</title>
<g id="a_node9"><a xlink:href="structfactory_1_1basic__socket__pipeline.html" target="_top" xlink:title="basic_socket_pipeline\l\&lt; T, process_handler\l\&lt; T, Router \&gt; \&gt;">
<polygon fill="white" stroke="black" points="314.5,-147.5 314.5,-188.5 427.5,-188.5 427.5,-147.5 314.5,-147.5"/>
<text text-anchor="start" x="322.5" y="-176.5" font-family="Helvetica,sans-Serif" font-size="10.00">basic_socket_pipeline</text>
<text text-anchor="start" x="322.5" y="-165.5" font-family="Helvetica,sans-Serif" font-size="10.00">&lt; T, process_handler</text>
<text text-anchor="middle" x="371" y="-154.5" font-family="Helvetica,sans-Serif" font-size="10.00">&lt; T, Router &gt; &gt;</text>
</a>
</g>
</g>
<!-- Node1&#45;&gt;Node9 -->
<g id="edge8" class="edge"><title>Node1&#45;&gt;Node9</title>
<path fill="none" stroke="midnightblue" d="M276.11,-168C288.829,-168 301.983,-168 314.274,-168"/>
<polygon fill="midnightblue" stroke="midnightblue" points="276.028,-164.5 266.028,-168 276.028,-171.5 276.028,-164.5"/>
</g>
<!-- Node11 -->
<g id="node11" class="node"><title>Node11</title>
<g id="a_node11"><a xlink:href="structfactory_1_1basic__socket__pipeline.html" target="_top" xlink:title="basic_socket_pipeline\l\&lt; T, remote_client\&lt; T,\l Socket, Router \&gt; \&gt;">
<polygon fill="white" stroke="black" points="314,-87.5 314,-128.5 428,-128.5 428,-87.5 314,-87.5"/>
<text text-anchor="start" x="322" y="-116.5" font-family="Helvetica,sans-Serif" font-size="10.00">basic_socket_pipeline</text>
<text text-anchor="start" x="322" y="-105.5" font-family="Helvetica,sans-Serif" font-size="10.00">&lt; T, remote_client&lt; T,</text>
<text text-anchor="middle" x="371" y="-94.5" font-family="Helvetica,sans-Serif" font-size="10.00"> Socket, Router &gt; &gt;</text>
</a>
</g>
</g>
<!-- Node1&#45;&gt;Node11 -->
<g id="edge10" class="edge"><title>Node1&#45;&gt;Node11</title>
<path fill="none" stroke="midnightblue" d="M275.41,-143.033C288.439,-138.208 301.95,-133.204 314.544,-128.539"/>
<polygon fill="midnightblue" stroke="midnightblue" points="274.19,-139.753 266.028,-146.508 276.621,-146.317 274.19,-139.753"/>
</g>
<!-- Node13 -->
<g id="node13" class="node"><title>Node13</title>
<g id="a_node13"><a xlink:href="structfactory_1_1basic__socket__pipeline.html" target="_top" xlink:title="factory::basic_socket\l_pipeline\&lt; T, Handler \&gt;">
<polygon fill="white" stroke="black" points="311.5,-39 311.5,-69 430.5,-69 430.5,-39 311.5,-39"/>
<text text-anchor="start" x="319.5" y="-57" font-family="Helvetica,sans-Serif" font-size="10.00">factory::basic_socket</text>
<text text-anchor="middle" x="371" y="-46" font-family="Helvetica,sans-Serif" font-size="10.00">_pipeline&lt; T, Handler &gt;</text>
</a>
</g>
</g>
<!-- Node1&#45;&gt;Node13 -->
<g id="edge12" class="edge"><title>Node1&#45;&gt;Node13</title>
<path fill="none" stroke="midnightblue" d="M236.984,-133.87C254.281,-115.257 277.584,-93.0192 302,-78 307.438,-74.6547 313.409,-71.6898 319.483,-69.0864"/>
<polygon fill="midnightblue" stroke="midnightblue" points="234.097,-131.842 229.954,-141.593 239.274,-136.555 234.097,-131.842"/>
</g>
<!-- Node14 -->
<g id="node14" class="node"><title>Node14</title>
<g id="a_node14"><a xlink:href="structfactory_1_1timer__pipeline.html" target="_top" xlink:title="factory::timer_pipeline\&lt; T \&gt;">
<polygon fill="white" stroke="black" points="302.5,-0.5 302.5,-19.5 439.5,-19.5 439.5,-0.5 302.5,-0.5"/>
<text text-anchor="middle" x="371" y="-7.5" font-family="Helvetica,sans-Serif" font-size="10.00">factory::timer_pipeline&lt; T &gt;</text>
</a>
</g>
</g>
<!-- Node1&#45;&gt;Node14 -->
<g id="edge13" class="edge"><title>Node1&#45;&gt;Node14</title>
<path fill="none" stroke="midnightblue" d="M223.251,-132.47C238.642,-100.765 265.371,-55.3897 302,-29 307.371,-25.1308 313.501,-22.0485 319.832,-19.5933"/>
<polygon fill="midnightblue" stroke="midnightblue" points="219.935,-131.297 218.84,-141.835 226.267,-134.28 219.935,-131.297"/>
</g>
<!-- Node2 -->
<g id="node2" class="node"><title>Node2</title>
<g id="a_node2"><a xlink:href="classfactory_1_1pipeline__base.html" target="_top" xlink:title="factory::pipeline_base">
<polygon fill="white" stroke="black" points="0,-158.5 0,-177.5 112,-177.5 112,-158.5 0,-158.5"/>
<text text-anchor="middle" x="56" y="-165.5" font-family="Helvetica,sans-Serif" font-size="10.00">factory::pipeline_base</text>
</a>
</g>
</g>
<!-- Node2&#45;&gt;Node1 -->
<g id="edge1" class="edge"><title>Node2&#45;&gt;Node1</title>
<path fill="none" stroke="midnightblue" d="M122.337,-168C130.854,-168 139.533,-168 147.92,-168"/>
<polygon fill="midnightblue" stroke="midnightblue" points="122.059,-164.5 112.059,-168 122.059,-171.5 122.059,-164.5"/>
</g>
<!-- Node4 -->
<g id="node4" class="node"><title>Node4</title>
<g id="a_node4"><a xlink:href="classfactory_1_1unix__domain__socket__pipeline.html" target="_top" xlink:title="factory::unix_domain\l_socket_pipeline\&lt; K, R \&gt;">
<polygon fill="white" stroke="black" points="477,-333 477,-363 605,-363 605,-333 477,-333"/>
<text text-anchor="start" x="485" y="-351" font-family="Helvetica,sans-Serif" font-size="10.00">factory::unix_domain</text>
<text text-anchor="middle" x="541" y="-340" font-family="Helvetica,sans-Serif" font-size="10.00">_socket_pipeline&lt; K, R &gt;</text>
</a>
</g>
</g>
<!-- Node3&#45;&gt;Node4 -->
<g id="edge3" class="edge"><title>Node3&#45;&gt;Node4</title>
<path fill="none" stroke="midnightblue" d="M438.02,-348C450.771,-348 464.103,-348 476.763,-348"/>
<polygon fill="midnightblue" stroke="midnightblue" points="437.942,-344.5 427.942,-348 437.942,-351.5 437.942,-344.5"/>
</g>
<!-- Node6 -->
<g id="node6" class="node"><title>Node6</title>
<g id="a_node6"><a xlink:href="classfactory_1_1process__pipeline.html" target="_top" xlink:title="factory::process_pipeline\l\&lt; K, R \&gt;">
<polygon fill="white" stroke="black" points="478.5,-273 478.5,-303 603.5,-303 603.5,-273 478.5,-273"/>
<text text-anchor="start" x="486.5" y="-291" font-family="Helvetica,sans-Serif" font-size="10.00">factory::process_pipeline</text>
<text text-anchor="middle" x="541" y="-280" font-family="Helvetica,sans-Serif" font-size="10.00">&lt; K, R &gt;</text>
</a>
</g>
</g>
<!-- Node5&#45;&gt;Node6 -->
<g id="edge5" class="edge"><title>Node5&#45;&gt;Node6</title>
<path fill="none" stroke="midnightblue" d="M438.332,-288C451.482,-288 465.237,-288 478.228,-288"/>
<polygon fill="midnightblue" stroke="midnightblue" points="437.942,-284.5 427.942,-288 437.942,-291.5 437.942,-284.5"/>
</g>
<!-- Node8 -->
<g id="node8" class="node"><title>Node8</title>
<g id="a_node8"><a xlink:href="classfactory_1_1child__process__pipeline.html" target="_top" xlink:title="factory::child_process\l_pipeline\&lt; T, basic_router\l\&lt; T \&gt; \&gt;">
<polygon fill="white" stroke="black" points="476.5,-207.5 476.5,-248.5 605.5,-248.5 605.5,-207.5 476.5,-207.5"/>
<text text-anchor="start" x="484.5" y="-236.5" font-family="Helvetica,sans-Serif" font-size="10.00">factory::child_process</text>
<text text-anchor="start" x="484.5" y="-225.5" font-family="Helvetica,sans-Serif" font-size="10.00">_pipeline&lt; T, basic_router</text>
<text text-anchor="middle" x="541" y="-214.5" font-family="Helvetica,sans-Serif" font-size="10.00">&lt; T &gt; &gt;</text>
</a>
</g>
</g>
<!-- Node7&#45;&gt;Node8 -->
<g id="edge7" class="edge"><title>Node7&#45;&gt;Node8</title>
<path fill="none" stroke="midnightblue" d="M448.124,-228C457.602,-228 467.214,-228 476.473,-228"/>
<polygon fill="midnightblue" stroke="midnightblue" points="447.916,-224.5 437.916,-228 447.916,-231.5 447.916,-224.5"/>
</g>
<!-- Node10 -->
<g id="node10" class="node"><title>Node10</title>
<g id="a_node10"><a xlink:href="classfactory_1_1child__process__pipeline.html" target="_top" xlink:title="factory::child_process\l_pipeline\&lt; T, Router \&gt;">
<polygon fill="white" stroke="black" points="484,-153 484,-183 598,-183 598,-153 484,-153"/>
<text text-anchor="start" x="492" y="-171" font-family="Helvetica,sans-Serif" font-size="10.00">factory::child_process</text>
<text text-anchor="middle" x="541" y="-160" font-family="Helvetica,sans-Serif" font-size="10.00">_pipeline&lt; T, Router &gt;</text>
</a>
</g>
</g>
<!-- Node9&#45;&gt;Node10 -->
<g id="edge9" class="edge"><title>Node9&#45;&gt;Node10</title>
<path fill="none" stroke="midnightblue" d="M438.214,-168C453.273,-168 469.131,-168 483.73,-168"/>
<polygon fill="midnightblue" stroke="midnightblue" points="437.942,-164.5 427.942,-168 437.942,-171.5 437.942,-164.5"/>
</g>
<!-- Node12 -->
<g id="node12" class="node"><title>Node12</title>
<g id="a_node12"><a xlink:href="classfactory_1_1socket__pipeline.html" target="_top" xlink:title="factory::socket_pipeline\l\&lt; T, Socket, Router \&gt;">
<polygon fill="white" stroke="black" points="481,-93 481,-123 601,-123 601,-93 481,-93"/>
<text text-anchor="start" x="489" y="-111" font-family="Helvetica,sans-Serif" font-size="10.00">factory::socket_pipeline</text>
<text text-anchor="middle" x="541" y="-100" font-family="Helvetica,sans-Serif" font-size="10.00">&lt; T, Socket, Router &gt;</text>
</a>
</g>
</g>
<!-- Node11&#45;&gt;Node12 -->
<g id="edge11" class="edge"><title>Node11&#45;&gt;Node12</title>
<path fill="none" stroke="midnightblue" d="M438.463,-108C452.467,-108 467.153,-108 480.866,-108"/>
<polygon fill="midnightblue" stroke="midnightblue" points="438.409,-104.5 428.409,-108 438.409,-111.5 438.409,-104.5"/>
</g>
</g>
</svg>
