<?xml version="1.0" encoding="UTF-8" standalone="no"?>
<!DOCTYPE svg PUBLIC "-//W3C//DTD SVG 1.1//EN"
 "http://www.w3.org/Graphics/SVG/1.1/DTD/svg11.dtd">
<!-- Generated by graphviz version 2.36.0 (20140111.2315)
 -->
<!-- Title: Main Pages: 1 -->
<svg width="288pt" height="204pt"
 viewBox="0.00 0.00 288.00 204.00" xmlns="http://www.w3.org/2000/svg" xmlns:xlink="http://www.w3.org/1999/xlink">
<g id="graph0" class="graph" transform="scale(1 1) rotate(0) translate(4 200)">
<title>Main</title>
<polygon fill="white" stroke="none" points="-4,4 -4,-200 284,-200 284,4 -4,4"/>
<!-- Node1 -->
<g id="node1" class="node"><title>Node1</title>
<polygon fill="#bfbfbf" stroke="black" points="167,-0.5 167,-19.5 205,-19.5 205,-0.5 167,-0.5"/>
<text text-anchor="middle" x="186" y="-7.5" font-family="Helvetica,sans-Serif" font-size="10.00">Main</text>
</g>
<!-- Node2 -->
<g id="node2" class="node"><title>Node2</title>
<g id="a_node2"><a xlink:href="structfactory_1_1Kernel.html" target="_top" xlink:title="factory::Kernel">
<polygon fill="white" stroke="black" points="75,-59.5 75,-78.5 155,-78.5 155,-59.5 75,-59.5"/>
<text text-anchor="middle" x="115" y="-66.5" font-family="Helvetica,sans-Serif" font-size="10.00">factory::Kernel</text>
</a>
</g>
</g>
<!-- Node2&#45;&gt;Node1 -->
<g id="edge1" class="edge"><title>Node2&#45;&gt;Node1</title>
<path fill="none" stroke="midnightblue" d="M128.722,-52.0631C140.687,-41.5688 157.671,-28.2334 170.207,-19.6571"/>
<polygon fill="midnightblue" stroke="midnightblue" points="126.05,-49.7631 121.031,-59.0938 130.773,-54.9295 126.05,-49.7631"/>
</g>
<!-- Node2&#45;&gt;Node1 -->
<g id="edge6" class="edge"><title>Node2&#45;&gt;Node1</title>
<path fill="none" stroke="midnightblue" d="M138.979,-53.5356C153.559,-42.8762 170.873,-28.7256 180.142,-19.7385"/>
<polygon fill="midnightblue" stroke="midnightblue" points="136.924,-50.7024 130.793,-59.3429 140.974,-56.4118 136.924,-50.7024"/>
</g>
<!-- Node2&#45;&gt;Node2 -->
<g id="edge5" class="edge"><title>Node2&#45;&gt;Node2</title>
<path fill="none" stroke="#9a32cd" stroke-dasharray="5,2" d="M165.265,-73.5193C170.005,-72.5938 173,-71.0874 173,-69 173,-65.6602 165.332,-63.8076 155.119,-63.4423"/>
<polygon fill="#9a32cd" stroke="#9a32cd" points="164.71,-70.0577 155.119,-74.5577 165.423,-77.0213 164.71,-70.0577"/>
<text text-anchor="middle" x="195.5" y="-72" font-family="Helvetica,sans-Serif" font-size="10.00"> _principal</text>
<text text-anchor="middle" x="195.5" y="-61" font-family="Helvetica,sans-Serif" font-size="10.00">_parent</text>
</g>
<!-- Node3 -->
<g id="node3" class="node"><title>Node3</title>
<g id="a_node3"><a xlink:href="classfactory_1_1mobile__kernel.html" target="_top" xlink:title="factory::mobile_kernel">
<polygon fill="white" stroke="black" points="58.5,-118.5 58.5,-137.5 171.5,-137.5 171.5,-118.5 58.5,-118.5"/>
<text text-anchor="middle" x="115" y="-125.5" font-family="Helvetica,sans-Serif" font-size="10.00">factory::mobile_kernel</text>
</a>
</g>
</g>
<!-- Node3&#45;&gt;Node2 -->
<g id="edge2" class="edge"><title>Node3&#45;&gt;Node2</title>
<path fill="none" stroke="midnightblue" d="M115,-107.933C115,-98.0243 115,-86.4007 115,-78.6571"/>
<polygon fill="midnightblue" stroke="midnightblue" points="111.5,-108.094 115,-118.094 118.5,-108.094 111.5,-108.094"/>
</g>
<!-- Node4 -->
<g id="node4" class="node"><title>Node4</title>
<g id="a_node4"><a xlink:href="classfactory_1_1kernel__base.html" target="_top" xlink:title="factory::kernel_base">
<polygon fill="white" stroke="black" points="-0.5,-176.5 -0.5,-195.5 104.5,-195.5 104.5,-176.5 -0.5,-176.5"/>
<text text-anchor="middle" x="52" y="-183.5" font-family="Helvetica,sans-Serif" font-size="10.00">factory::kernel_base</text>
</a>
</g>
</g>
<!-- Node4&#45;&gt;Node3 -->
<g id="edge3" class="edge"><title>Node4&#45;&gt;Node3</title>
<path fill="none" stroke="midnightblue" d="M69.3239,-169.601C80.9298,-159.285 95.7798,-146.085 105.342,-137.585"/>
<polygon fill="midnightblue" stroke="midnightblue" points="66.7172,-167.235 61.5683,-176.495 71.3677,-172.467 66.7172,-167.235"/>
</g>
<!-- Node5 -->
<g id="node5" class="node"><title>Node5</title>
<g id="a_node5"><a xlink:href="classfactory_1_1kernel__header.html" target="_top" xlink:title="factory::kernel_header">
<polygon fill="white" stroke="black" points="122.5,-176.5 122.5,-195.5 235.5,-195.5 235.5,-176.5 122.5,-176.5"/>
<text text-anchor="middle" x="179" y="-183.5" font-family="Helvetica,sans-Serif" font-size="10.00">factory::kernel_header</text>
</a>
</g>
</g>
<!-- Node5&#45;&gt;Node3 -->
<g id="edge4" class="edge"><title>Node5&#45;&gt;Node3</title>
<path fill="none" stroke="midnightblue" d="M161.744,-169.901C149.904,-159.541 134.62,-146.167 124.812,-137.585"/>
<polygon fill="midnightblue" stroke="midnightblue" points="159.449,-172.544 169.28,-176.495 164.059,-167.276 159.449,-172.544"/>
</g>
<!-- Node6 -->
<g id="node6" class="node"><title>Node6</title>
<polygon fill="white" stroke="#bfbfbf" points="236,-59.5 236,-78.5 280,-78.5 280,-59.5 236,-59.5"/>
<text text-anchor="middle" x="258" y="-66.5" font-family="Helvetica,sans-Serif" font-size="10.00">Kernel</text>
</g>
<!-- Node6&#45;&gt;Node1 -->
<g id="edge7" class="edge"><title>Node6&#45;&gt;Node1</title>
<path fill="none" stroke="midnightblue" d="M233.767,-53.5356C219.001,-42.8762 201.438,-28.7256 192.011,-19.7385"/>
<polygon fill="midnightblue" stroke="midnightblue" points="231.857,-56.4712 242.055,-59.3429 235.874,-50.7383 231.857,-56.4712"/>
</g>
<!-- Node6&#45;&gt;Node1 -->
<g id="edge8" class="edge"><title>Node6&#45;&gt;Node1</title>
<path fill="none" stroke="midnightblue" d="M244.606,-52.5886C232.379,-41.9747 214.702,-28.2671 201.789,-19.5518"/>
<polygon fill="midnightblue" stroke="midnightblue" points="242.31,-55.2312 252.074,-59.3429 247.005,-50.0394 242.31,-55.2312"/>
</g>
</g>
</svg>
