<?xml version="1.0" encoding="UTF-8" standalone="no"?>
<!DOCTYPE svg PUBLIC "-//W3C//DTD SVG 1.1//EN"
 "http://www.w3.org/Graphics/SVG/1.1/DTD/svg11.dtd">
<!-- Generated by graphviz version 2.36.0 (20140111.2315)
 -->
<!-- Title: factory::basic_pipeline&lt; T, Kernels, Traits, Threads, Mutex, Lock, Semaphore &gt; Pages: 1 -->
<svg width="614pt" height="317pt"
 viewBox="0.00 0.00 614.00 317.00" xmlns="http://www.w3.org/2000/svg" xmlns:xlink="http://www.w3.org/1999/xlink">
<g id="graph0" class="graph" transform="scale(1 1) rotate(0) translate(4 313)">
<title>factory::basic_pipeline&lt; T, Kernels, Traits, Threads, Mutex, Lock, Semaphore &gt;</title>
<polygon fill="white" stroke="none" points="-4,4 -4,-313 610,-313 610,4 -4,4"/>
<!-- Node1 -->
<g id="node1" class="node"><title>Node1</title>
<polygon fill="#bfbfbf" stroke="black" points="148,-112 148,-164 266,-164 266,-112 148,-112"/>
<text text-anchor="start" x="156" y="-152" font-family="Helvetica,sans-Serif" font-size="10.00">factory::basic_pipeline</text>
<text text-anchor="start" x="156" y="-141" font-family="Helvetica,sans-Serif" font-size="10.00">&lt; T, Kernels, Traits,</text>
<text text-anchor="start" x="156" y="-130" font-family="Helvetica,sans-Serif" font-size="10.00"> Threads, Mutex, Lock,</text>
<text text-anchor="middle" x="207" y="-119" font-family="Helvetica,sans-Serif" font-size="10.00"> Semaphore &gt;</text>
</g>
<!-- Node3 -->
<g id="node3" class="node"><title>Node3</title>
<g id="a_node3"><a xlink:href="structfactory_1_1basic__socket__pipeline.html" target="_top" xlink:title="basic_socket_pipeline\l\&lt; T, external_process\l_handler\&lt; T, Router \&gt; \&gt;">
<polygon fill="white" stroke="black" points="310,-267.5 310,-308.5 432,-308.5 432,-267.5 310,-267.5"/>
<text text-anchor="start" x="318" y="-296.5" font-family="Helvetica,sans-Serif" font-size="10.00">basic_socket_pipeline</text>
<text text-anchor="start" x="318" y="-285.5" font-family="Helvetica,sans-Serif" font-size="10.00">&lt; T, external_process</text>
<text text-anchor="middle" x="371" y="-274.5" font-family="Helvetica,sans-Serif" font-size="10.00">_handler&lt; T, Router &gt; &gt;</text>
</a>
</g>
</g>
<!-- Node1&#45;&gt;Node3 -->
<g id="edge2" class="edge"><title>Node1&#45;&gt;Node3</title>
<path fill="none" stroke="midnightblue" d="M228.872,-172.619C245.919,-198.565 272.032,-233.501 302,-257 306.901,-260.843 312.354,-264.334 317.981,-267.471"/>
<polygon fill="midnightblue" stroke="midnightblue" points="231.804,-170.707 223.447,-164.195 225.919,-174.497 231.804,-170.707"/>
</g>
<!-- Node5 -->
<g id="node5" class="node"><title>Node5</title>
<g id="a_node5"><a xlink:href="structfactory_1_1basic__socket__pipeline.html" target="_top" xlink:title="basic_socket_pipeline\l\&lt; T, process_handler\l\&lt; T, basic_router\&lt; T \&gt; \&gt; \&gt;">
<polygon fill="white" stroke="black" points="304.5,-207.5 304.5,-248.5 437.5,-248.5 437.5,-207.5 304.5,-207.5"/>
<text text-anchor="start" x="312.5" y="-236.5" font-family="Helvetica,sans-Serif" font-size="10.00">basic_socket_pipeline</text>
<text text-anchor="start" x="312.5" y="-225.5" font-family="Helvetica,sans-Serif" font-size="10.00">&lt; T, process_handler</text>
<text text-anchor="middle" x="371" y="-214.5" font-family="Helvetica,sans-Serif" font-size="10.00">&lt; T, basic_router&lt; T &gt; &gt; &gt;</text>
</a>
</g>
</g>
<!-- Node1&#45;&gt;Node5 -->
<g id="edge4" class="edge"><title>Node1&#45;&gt;Node5</title>
<path fill="none" stroke="midnightblue" d="M255.929,-169.796C270.488,-178.985 286.688,-188.752 302,-197 308.625,-200.569 315.739,-204.112 322.779,-207.457"/>
<polygon fill="midnightblue" stroke="midnightblue" points="257.412,-166.591 247.098,-164.168 253.65,-172.494 257.412,-166.591"/>
</g>
<!-- Node7 -->
<g id="node7" class="node"><title>Node7</title>
<g id="a_node7"><a xlink:href="structfactory_1_1basic__socket__pipeline.html" target="_top" xlink:title="basic_socket_pipeline\l\&lt; T, process_handler\l\&lt; T, Router \&gt; \&gt;">
<polygon fill="white" stroke="black" points="314.5,-147.5 314.5,-188.5 427.5,-188.5 427.5,-147.5 314.5,-147.5"/>
<text text-anchor="start" x="322.5" y="-176.5" font-family="Helvetica,sans-Serif" font-size="10.00">basic_socket_pipeline</text>
<text text-anchor="start" x="322.5" y="-165.5" font-family="Helvetica,sans-Serif" font-size="10.00">&lt; T, process_handler</text>
<text text-anchor="middle" x="371" y="-154.5" font-family="Helvetica,sans-Serif" font-size="10.00">&lt; T, Router &gt; &gt;</text>
</a>
</g>
</g>
<!-- Node1&#45;&gt;Node7 -->
<g id="edge6" class="edge"><title>Node1&#45;&gt;Node7</title>
<path fill="none" stroke="midnightblue" d="M276.11,-150.613C288.829,-152.968 301.983,-155.404 314.274,-157.68"/>
<polygon fill="midnightblue" stroke="midnightblue" points="276.498,-147.125 266.028,-148.746 275.224,-154.008 276.498,-147.125"/>
</g>
<!-- Node10 -->
<g id="node10" class="node"><title>Node10</title>
<g id="a_node10"><a xlink:href="structfactory_1_1basic__socket__pipeline.html" target="_top" xlink:title="basic_socket_pipeline\l\&lt; T, remote_client\&lt; T,\l Socket, Router \&gt; \&gt;">
<polygon fill="white" stroke="black" points="314,-87.5 314,-128.5 428,-128.5 428,-87.5 314,-87.5"/>
<text text-anchor="start" x="322" y="-116.5" font-family="Helvetica,sans-Serif" font-size="10.00">basic_socket_pipeline</text>
<text text-anchor="start" x="322" y="-105.5" font-family="Helvetica,sans-Serif" font-size="10.00">&lt; T, remote_client&lt; T,</text>
<text text-anchor="middle" x="371" y="-94.5" font-family="Helvetica,sans-Serif" font-size="10.00"> Socket, Router &gt; &gt;</text>
</a>
</g>
</g>
<!-- Node1&#45;&gt;Node10 -->
<g id="edge9" class="edge"><title>Node1&#45;&gt;Node10</title>
<path fill="none" stroke="midnightblue" d="M275.992,-125.409C288.562,-123.081 301.56,-120.674 313.734,-118.42"/>
<polygon fill="midnightblue" stroke="midnightblue" points="275.224,-121.992 266.028,-127.254 276.498,-128.875 275.224,-121.992"/>
</g>
<!-- Node12 -->
<g id="node12" class="node"><title>Node12</title>
<g id="a_node12"><a xlink:href="structfactory_1_1basic__socket__pipeline.html" target="_top" xlink:title="factory::basic_socket\l_pipeline\&lt; T, Handler \&gt;">
<polygon fill="white" stroke="black" points="311.5,-39 311.5,-69 430.5,-69 430.5,-39 311.5,-39"/>
<text text-anchor="start" x="319.5" y="-57" font-family="Helvetica,sans-Serif" font-size="10.00">factory::basic_socket</text>
<text text-anchor="middle" x="371" y="-46" font-family="Helvetica,sans-Serif" font-size="10.00">_pipeline&lt; T, Handler &gt;</text>
</a>
</g>
</g>
<!-- Node1&#45;&gt;Node12 -->
<g id="edge11" class="edge"><title>Node1&#45;&gt;Node12</title>
<path fill="none" stroke="midnightblue" d="M253.414,-106.054C268.457,-96.285 285.562,-86.0156 302,-78 308.639,-74.7626 315.83,-71.7427 322.965,-69.0119"/>
<polygon fill="midnightblue" stroke="midnightblue" points="251.236,-103.298 244.817,-111.727 255.091,-109.14 251.236,-103.298"/>
</g>
<!-- Node13 -->
<g id="node13" class="node"><title>Node13</title>
<g id="a_node13"><a xlink:href="structfactory_1_1timer__pipeline.html" target="_top" xlink:title="factory::timer_pipeline\&lt; T \&gt;">
<polygon fill="white" stroke="black" points="302.5,-0.5 302.5,-19.5 439.5,-19.5 439.5,-0.5 302.5,-0.5"/>
<text text-anchor="middle" x="371" y="-7.5" font-family="Helvetica,sans-Serif" font-size="10.00">factory::timer_pipeline&lt; T &gt;</text>
</a>
</g>
</g>
<!-- Node1&#45;&gt;Node13 -->
<g id="edge12" class="edge"><title>Node1&#45;&gt;Node13</title>
<path fill="none" stroke="midnightblue" d="M229.96,-103.065C246.864,-78.9125 272.317,-47.8512 302,-29 308.105,-25.1229 315.008,-22.0237 322.016,-19.5498"/>
<polygon fill="midnightblue" stroke="midnightblue" points="226.871,-101.382 224.127,-111.615 232.653,-105.327 226.871,-101.382"/>
</g>
<!-- Node2 -->
<g id="node2" class="node"><title>Node2</title>
<g id="a_node2"><a xlink:href="classfactory_1_1pipeline__base.html" target="_top" xlink:title="factory::pipeline_base">
<polygon fill="white" stroke="black" points="0,-128.5 0,-147.5 112,-147.5 112,-128.5 0,-128.5"/>
<text text-anchor="middle" x="56" y="-135.5" font-family="Helvetica,sans-Serif" font-size="10.00">factory::pipeline_base</text>
</a>
</g>
</g>
<!-- Node2&#45;&gt;Node1 -->
<g id="edge1" class="edge"><title>Node2&#45;&gt;Node1</title>
<path fill="none" stroke="midnightblue" d="M122.337,-138C130.854,-138 139.533,-138 147.92,-138"/>
<polygon fill="midnightblue" stroke="midnightblue" points="122.059,-134.5 112.059,-138 122.059,-141.5 122.059,-134.5"/>
</g>
<!-- Node4 -->
<g id="node4" class="node"><title>Node4</title>
<g id="a_node4"><a xlink:href="classfactory_1_1unix__domain__socket__pipeline.html" target="_top" xlink:title="factory::unix_domain\l_socket_pipeline\&lt; T,\l Router \&gt;">
<polygon fill="white" stroke="black" points="487.5,-267.5 487.5,-308.5 594.5,-308.5 594.5,-267.5 487.5,-267.5"/>
<text text-anchor="start" x="495.5" y="-296.5" font-family="Helvetica,sans-Serif" font-size="10.00">factory::unix_domain</text>
<text text-anchor="start" x="495.5" y="-285.5" font-family="Helvetica,sans-Serif" font-size="10.00">_socket_pipeline&lt; T,</text>
<text text-anchor="middle" x="541" y="-274.5" font-family="Helvetica,sans-Serif" font-size="10.00"> Router &gt;</text>
</a>
</g>
</g>
<!-- Node3&#45;&gt;Node4 -->
<g id="edge3" class="edge"><title>Node3&#45;&gt;Node4</title>
<path fill="none" stroke="midnightblue" d="M442.49,-288C457.56,-288 473.225,-288 487.477,-288"/>
<polygon fill="midnightblue" stroke="midnightblue" points="442.177,-284.5 432.177,-288 442.177,-291.5 442.177,-284.5"/>
</g>
<!-- Node6 -->
<g id="node6" class="node"><title>Node6</title>
<g id="a_node6"><a xlink:href="classfactory_1_1child__process__pipeline.html" target="_top" xlink:title="factory::child_process\l_pipeline\&lt; T, basic_router\l\&lt; T \&gt; \&gt;">
<polygon fill="white" stroke="black" points="476.5,-207.5 476.5,-248.5 605.5,-248.5 605.5,-207.5 476.5,-207.5"/>
<text text-anchor="start" x="484.5" y="-236.5" font-family="Helvetica,sans-Serif" font-size="10.00">factory::child_process</text>
<text text-anchor="start" x="484.5" y="-225.5" font-family="Helvetica,sans-Serif" font-size="10.00">_pipeline&lt; T, basic_router</text>
<text text-anchor="middle" x="541" y="-214.5" font-family="Helvetica,sans-Serif" font-size="10.00">&lt; T &gt; &gt;</text>
</a>
</g>
</g>
<!-- Node5&#45;&gt;Node6 -->
<g id="edge5" class="edge"><title>Node5&#45;&gt;Node6</title>
<path fill="none" stroke="midnightblue" d="M448.124,-228C457.602,-228 467.214,-228 476.473,-228"/>
<polygon fill="midnightblue" stroke="midnightblue" points="447.916,-224.5 437.916,-228 447.916,-231.5 447.916,-224.5"/>
</g>
<!-- Node8 -->
<g id="node8" class="node"><title>Node8</title>
<g id="a_node8"><a xlink:href="classfactory_1_1child__process__pipeline.html" target="_top" xlink:title="factory::child_process\l_pipeline\&lt; T, Router \&gt;">
<polygon fill="white" stroke="black" points="484,-159 484,-189 598,-189 598,-159 484,-159"/>
<text text-anchor="start" x="492" y="-177" font-family="Helvetica,sans-Serif" font-size="10.00">factory::child_process</text>
<text text-anchor="middle" x="541" y="-166" font-family="Helvetica,sans-Serif" font-size="10.00">_pipeline&lt; T, Router &gt;</text>
</a>
</g>
</g>
<!-- Node7&#45;&gt;Node8 -->
<g id="edge7" class="edge"><title>Node7&#45;&gt;Node8</title>
<path fill="none" stroke="midnightblue" d="M438.214,-170.365C453.273,-170.903 469.131,-171.469 483.73,-171.99"/>
<polygon fill="midnightblue" stroke="midnightblue" points="438.06,-166.857 427.942,-169.998 437.81,-173.853 438.06,-166.857"/>
</g>
<!-- Node9 -->
<g id="node9" class="node"><title>Node9</title>
<g id="a_node9"><a xlink:href="classfactory_1_1process__pipeline.html" target="_top" xlink:title="factory::process_pipeline\l\&lt; T, Router \&gt;">
<polygon fill="white" stroke="black" points="478.5,-110 478.5,-140 603.5,-140 603.5,-110 478.5,-110"/>
<text text-anchor="start" x="486.5" y="-128" font-family="Helvetica,sans-Serif" font-size="10.00">factory::process_pipeline</text>
<text text-anchor="middle" x="541" y="-117" font-family="Helvetica,sans-Serif" font-size="10.00">&lt; T, Router &gt;</text>
</a>
</g>
</g>
<!-- Node7&#45;&gt;Node9 -->
<g id="edge8" class="edge"><title>Node7&#45;&gt;Node9</title>
<path fill="none" stroke="midnightblue" d="M437.715,-151.18C452.036,-147.515 467.102,-143.658 481.137,-140.066"/>
<polygon fill="midnightblue" stroke="midnightblue" points="436.761,-147.811 427.942,-153.682 438.497,-154.593 436.761,-147.811"/>
</g>
<!-- Node11 -->
<g id="node11" class="node"><title>Node11</title>
<g id="a_node11"><a xlink:href="classfactory_1_1socket__pipeline.html" target="_top" xlink:title="factory::socket_pipeline\l\&lt; T, Socket, Router \&gt;">
<polygon fill="white" stroke="black" points="481,-61 481,-91 601,-91 601,-61 481,-61"/>
<text text-anchor="start" x="489" y="-79" font-family="Helvetica,sans-Serif" font-size="10.00">factory::socket_pipeline</text>
<text text-anchor="middle" x="541" y="-68" font-family="Helvetica,sans-Serif" font-size="10.00">&lt; T, Socket, Router &gt;</text>
</a>
</g>
</g>
<!-- Node10&#45;&gt;Node11 -->
<g id="edge10" class="edge"><title>Node10&#45;&gt;Node11</title>
<path fill="none" stroke="midnightblue" d="M438.463,-95.3405C452.467,-92.6729 467.153,-89.8757 480.866,-87.2635"/>
<polygon fill="midnightblue" stroke="midnightblue" points="437.577,-91.9461 428.409,-97.2554 438.887,-98.8224 437.577,-91.9461"/>
</g>
</g>
</svg>
