<?xml version="1.0" encoding="UTF-8" standalone="no"?>
<!DOCTYPE svg PUBLIC "-//W3C//DTD SVG 1.1//EN"
 "http://www.w3.org/Graphics/SVG/1.1/DTD/svg11.dtd">
<!-- Generated by graphviz version 2.36.0 (20140111.2315)
 -->
<!-- Title: asc::pipeline_base Pages: 1 -->
<svg width="600pt" height="435pt"
 viewBox="0.00 0.00 600.00 435.00" xmlns="http://www.w3.org/2000/svg" xmlns:xlink="http://www.w3.org/1999/xlink">
<g id="graph0" class="graph" transform="scale(1 1) rotate(0) translate(4 431)">
<title>asc::pipeline_base</title>
<polygon fill="white" stroke="none" points="-4,4 -4,-431 596,-431 596,4 -4,4"/>
<!-- Node1 -->
<g id="node1" class="node"><title>Node1</title>
<polygon fill="#bfbfbf" stroke="black" points="0,-137.5 0,-156.5 98,-156.5 98,-137.5 0,-137.5"/>
<text text-anchor="middle" x="49" y="-144.5" font-family="Helvetica,sans-Serif" font-size="10.00">asc::pipeline_base</text>
</g>
<!-- Node2 -->
<g id="node2" class="node"><title>Node2</title>
<g id="a_node2"><a xlink:href="classasc_1_1basic__pipeline.html" target="_top" xlink:title="asc::basic_pipeline\l\&lt; T, Kernels, Traits,\l Threads, Mutex, Lock,\l Semaphore \&gt;">
<polygon fill="white" stroke="black" points="137,-263 137,-315 255,-315 255,-263 137,-263"/>
<text text-anchor="start" x="145" y="-303" font-family="Helvetica,sans-Serif" font-size="10.00">asc::basic_pipeline</text>
<text text-anchor="start" x="145" y="-292" font-family="Helvetica,sans-Serif" font-size="10.00">&lt; T, Kernels, Traits,</text>
<text text-anchor="start" x="145" y="-281" font-family="Helvetica,sans-Serif" font-size="10.00"> Threads, Mutex, Lock,</text>
<text text-anchor="middle" x="196" y="-270" font-family="Helvetica,sans-Serif" font-size="10.00"> Semaphore &gt;</text>
</a>
</g>
</g>
<!-- Node1&#45;&gt;Node2 -->
<g id="edge1" class="edge"><title>Node1&#45;&gt;Node2</title>
<path fill="none" stroke="midnightblue" d="M61.492,-165.374C76.2613,-187.96 103.644,-226.541 134,-253 137.986,-256.474 142.354,-259.797 146.863,-262.921"/>
<polygon fill="midnightblue" stroke="midnightblue" points="64.3084,-163.282 55.9626,-156.756 58.4166,-167.062 64.3084,-163.282"/>
</g>
<!-- Node14 -->
<g id="node14" class="node"><title>Node14</title>
<g id="a_node14"><a xlink:href="classasc_1_1external__process__handler.html" target="_top" xlink:title="asc::external_process\l_handler\&lt; T, Router \&gt;">
<polygon fill="white" stroke="black" points="139.5,-214 139.5,-244 252.5,-244 252.5,-214 139.5,-214"/>
<text text-anchor="start" x="147.5" y="-232" font-family="Helvetica,sans-Serif" font-size="10.00">asc::external_process</text>
<text text-anchor="middle" x="196" y="-221" font-family="Helvetica,sans-Serif" font-size="10.00">_handler&lt; T, Router &gt;</text>
</a>
</g>
</g>
<!-- Node1&#45;&gt;Node14 -->
<g id="edge13" class="edge"><title>Node1&#45;&gt;Node14</title>
<path fill="none" stroke="midnightblue" d="M70.6518,-162.796C87.2051,-175.011 111.333,-191.835 134,-204 140.555,-207.518 147.714,-210.861 154.747,-213.892"/>
<polygon fill="midnightblue" stroke="midnightblue" points="72.3963,-159.73 62.2922,-156.543 68.2035,-165.335 72.3963,-159.73"/>
</g>
<!-- Node15 -->
<g id="node15" class="node"><title>Node15</title>
<g id="a_node15"><a xlink:href="classasc_1_1Factory.html" target="_top" xlink:title="asc::Factory\&lt; T \&gt;">
<polygon fill="white" stroke="black" points="148.5,-175.5 148.5,-194.5 243.5,-194.5 243.5,-175.5 148.5,-175.5"/>
<text text-anchor="middle" x="196" y="-182.5" font-family="Helvetica,sans-Serif" font-size="10.00">asc::Factory&lt; T &gt;</text>
</a>
</g>
</g>
<!-- Node1&#45;&gt;Node15 -->
<g id="edge14" class="edge"><title>Node1&#45;&gt;Node15</title>
<path fill="none" stroke="midnightblue" d="M96.4928,-159.184C116.624,-164.46 139.838,-170.544 158.673,-175.48"/>
<polygon fill="midnightblue" stroke="midnightblue" points="97.1503,-155.738 86.5896,-156.589 95.3757,-162.51 97.1503,-155.738"/>
</g>
<!-- Node16 -->
<g id="node16" class="node"><title>Node16</title>
<g id="a_node16"><a xlink:href="classasc_1_1Multi__pipeline.html" target="_top" xlink:title="asc::Multi_pipeline\&lt; T \&gt;">
<polygon fill="white" stroke="black" points="135,-137.5 135,-156.5 257,-156.5 257,-137.5 135,-137.5"/>
<text text-anchor="middle" x="196" y="-144.5" font-family="Helvetica,sans-Serif" font-size="10.00">asc::Multi_pipeline&lt; T &gt;</text>
</a>
</g>
</g>
<!-- Node1&#45;&gt;Node16 -->
<g id="edge15" class="edge"><title>Node1&#45;&gt;Node16</title>
<path fill="none" stroke="midnightblue" d="M108.347,-147C117.059,-147 126.054,-147 134.803,-147"/>
<polygon fill="midnightblue" stroke="midnightblue" points="108.283,-143.5 98.2829,-147 108.283,-150.5 108.283,-143.5"/>
</g>
<!-- Node17 -->
<g id="node17" class="node"><title>Node17</title>
<g id="a_node17"><a xlink:href="classasc_1_1process__handler.html" target="_top" xlink:title="asc::process_handler\l\&lt; K, R \&gt;">
<polygon fill="white" stroke="black" points="141,-88 141,-118 251,-118 251,-88 141,-88"/>
<text text-anchor="start" x="149" y="-106" font-family="Helvetica,sans-Serif" font-size="10.00">asc::process_handler</text>
<text text-anchor="middle" x="196" y="-95" font-family="Helvetica,sans-Serif" font-size="10.00">&lt; K, R &gt;</text>
</a>
</g>
</g>
<!-- Node1&#45;&gt;Node17 -->
<g id="edge16" class="edge"><title>Node1&#45;&gt;Node17</title>
<path fill="none" stroke="midnightblue" d="M91.0457,-134.545C107.938,-129.419 127.657,-123.435 145.353,-118.065"/>
<polygon fill="midnightblue" stroke="midnightblue" points="90.0156,-131.2 81.4628,-137.453 92.0483,-137.898 90.0156,-131.2"/>
</g>
<!-- Node18 -->
<g id="node18" class="node"><title>Node18</title>
<g id="a_node18"><a xlink:href="classasc_1_1remote__client.html" target="_top" xlink:title="asc::remote_client\l\&lt; T, Socket, Router \&gt;">
<polygon fill="white" stroke="black" points="139.5,-39 139.5,-69 252.5,-69 252.5,-39 139.5,-39"/>
<text text-anchor="start" x="147.5" y="-57" font-family="Helvetica,sans-Serif" font-size="10.00">asc::remote_client</text>
<text text-anchor="middle" x="196" y="-46" font-family="Helvetica,sans-Serif" font-size="10.00">&lt; T, Socket, Router &gt;</text>
</a>
</g>
</g>
<!-- Node1&#45;&gt;Node18 -->
<g id="edge17" class="edge"><title>Node1&#45;&gt;Node18</title>
<path fill="none" stroke="midnightblue" d="M67.1358,-130.17C83.3107,-114.984 108.782,-92.8183 134,-78 139.593,-74.7136 145.719,-71.7009 151.864,-69.0029"/>
<polygon fill="midnightblue" stroke="midnightblue" points="64.3843,-127.958 59.5753,-137.399 69.2219,-133.018 64.3843,-127.958"/>
</g>
<!-- Node19 -->
<g id="node19" class="node"><title>Node19</title>
<g id="a_node19"><a xlink:href="classasc_1_1basic__pipeline.html" target="_top" xlink:title="asc::basic_pipeline\&lt; T \&gt;">
<polygon fill="white" stroke="black" points="134,-0.5 134,-19.5 258,-19.5 258,-0.5 134,-0.5"/>
<text text-anchor="middle" x="196" y="-7.5" font-family="Helvetica,sans-Serif" font-size="10.00">asc::basic_pipeline&lt; T &gt;</text>
</a>
</g>
</g>
<!-- Node1&#45;&gt;Node19 -->
<g id="edge18" class="edge"><title>Node1&#45;&gt;Node19</title>
<path fill="none" stroke="midnightblue" d="M58.4774,-128.271C71.2047,-102.225 97.6874,-55.3124 134,-29 139.299,-25.16 145.396,-22.0809 151.641,-19.6158"/>
<polygon fill="midnightblue" stroke="midnightblue" points="55.2514,-126.905 54.1453,-137.442 61.5809,-129.895 55.2514,-126.905"/>
</g>
<!-- Node3 -->
<g id="node3" class="node"><title>Node3</title>
<g id="a_node3"><a xlink:href="structasc_1_1basic__socket__pipeline.html" target="_top" xlink:title="asc::basic_socket_pipeline\l\&lt; T, Handler \&gt;">
<polygon fill="white" stroke="black" points="294,-397 294,-427 428,-427 428,-397 294,-397"/>
<text text-anchor="start" x="302" y="-415" font-family="Helvetica,sans-Serif" font-size="10.00">asc::basic_socket_pipeline</text>
<text text-anchor="middle" x="361" y="-404" font-family="Helvetica,sans-Serif" font-size="10.00">&lt; T, Handler &gt;</text>
</a>
</g>
</g>
<!-- Node2&#45;&gt;Node3 -->
<g id="edge2" class="edge"><title>Node2&#45;&gt;Node3</title>
<path fill="none" stroke="midnightblue" d="M224.168,-323.111C242.162,-343.873 267.302,-369.649 294,-387 299.753,-390.739 306.148,-394.039 312.628,-396.912"/>
<polygon fill="midnightblue" stroke="midnightblue" points="226.778,-320.777 217.633,-315.427 221.446,-325.312 226.778,-320.777"/>
</g>
<!-- Node4 -->
<g id="node4" class="node"><title>Node4</title>
<g id="a_node4"><a xlink:href="structasc_1_1timer__pipeline.html" target="_top" xlink:title="asc::timer_pipeline\&lt; T \&gt;">
<polygon fill="white" stroke="black" points="300,-358.5 300,-377.5 422,-377.5 422,-358.5 300,-358.5"/>
<text text-anchor="middle" x="361" y="-365.5" font-family="Helvetica,sans-Serif" font-size="10.00">asc::timer_pipeline&lt; T &gt;</text>
</a>
</g>
</g>
<!-- Node2&#45;&gt;Node4 -->
<g id="edge3" class="edge"><title>Node2&#45;&gt;Node4</title>
<path fill="none" stroke="midnightblue" d="M243.821,-320.753C259.341,-330.378 277.002,-340.402 294,-348 303.072,-352.055 313.2,-355.583 322.744,-358.5"/>
<polygon fill="midnightblue" stroke="midnightblue" points="245.276,-317.533 234.952,-315.154 241.539,-323.452 245.276,-317.533"/>
</g>
<!-- Node5 -->
<g id="node5" class="node"><title>Node5</title>
<g id="a_node5"><a xlink:href="structasc_1_1basic__socket__pipeline.html" target="_top" xlink:title="basic_socket_pipeline\l\&lt; K, external_process\l_handler\&lt; K, R \&gt; \&gt;">
<polygon fill="white" stroke="black" points="304.5,-298.5 304.5,-339.5 417.5,-339.5 417.5,-298.5 304.5,-298.5"/>
<text text-anchor="start" x="312.5" y="-327.5" font-family="Helvetica,sans-Serif" font-size="10.00">basic_socket_pipeline</text>
<text text-anchor="start" x="312.5" y="-316.5" font-family="Helvetica,sans-Serif" font-size="10.00">&lt; K, external_process</text>
<text text-anchor="middle" x="361" y="-305.5" font-family="Helvetica,sans-Serif" font-size="10.00">_handler&lt; K, R &gt; &gt;</text>
</a>
</g>
</g>
<!-- Node2&#45;&gt;Node5 -->
<g id="edge4" class="edge"><title>Node2&#45;&gt;Node5</title>
<path fill="none" stroke="midnightblue" d="M265.265,-301.564C278.332,-303.969 291.866,-306.46 304.474,-308.78"/>
<polygon fill="midnightblue" stroke="midnightblue" points="265.855,-298.114 255.386,-299.746 264.588,-304.998 265.855,-298.114"/>
</g>
<!-- Node7 -->
<g id="node7" class="node"><title>Node7</title>
<g id="a_node7"><a xlink:href="structasc_1_1basic__socket__pipeline.html" target="_top" xlink:title="basic_socket_pipeline\l\&lt; K, process_handler\l\&lt; K, R \&gt; \&gt;">
<polygon fill="white" stroke="black" points="304.5,-238.5 304.5,-279.5 417.5,-279.5 417.5,-238.5 304.5,-238.5"/>
<text text-anchor="start" x="312.5" y="-267.5" font-family="Helvetica,sans-Serif" font-size="10.00">basic_socket_pipeline</text>
<text text-anchor="start" x="312.5" y="-256.5" font-family="Helvetica,sans-Serif" font-size="10.00">&lt; K, process_handler</text>
<text text-anchor="middle" x="361" y="-245.5" font-family="Helvetica,sans-Serif" font-size="10.00">&lt; K, R &gt; &gt;</text>
</a>
</g>
</g>
<!-- Node2&#45;&gt;Node7 -->
<g id="edge6" class="edge"><title>Node2&#45;&gt;Node7</title>
<path fill="none" stroke="midnightblue" d="M265.265,-276.436C278.332,-274.031 291.866,-271.54 304.474,-269.22"/>
<polygon fill="midnightblue" stroke="midnightblue" points="264.588,-273.002 255.386,-278.254 265.855,-279.886 264.588,-273.002"/>
</g>
<!-- Node10 -->
<g id="node10" class="node"><title>Node10</title>
<g id="a_node10"><a xlink:href="structasc_1_1basic__socket__pipeline.html" target="_top" xlink:title="basic_socket_pipeline\l\&lt; T, process_handler\l\&lt; T, basic_router\&lt; T \&gt; \&gt; \&gt;">
<polygon fill="white" stroke="black" points="294.5,-178.5 294.5,-219.5 427.5,-219.5 427.5,-178.5 294.5,-178.5"/>
<text text-anchor="start" x="302.5" y="-207.5" font-family="Helvetica,sans-Serif" font-size="10.00">basic_socket_pipeline</text>
<text text-anchor="start" x="302.5" y="-196.5" font-family="Helvetica,sans-Serif" font-size="10.00">&lt; T, process_handler</text>
<text text-anchor="middle" x="361" y="-185.5" font-family="Helvetica,sans-Serif" font-size="10.00">&lt; T, basic_router&lt; T &gt; &gt; &gt;</text>
</a>
</g>
</g>
<!-- Node2&#45;&gt;Node10 -->
<g id="edge9" class="edge"><title>Node2&#45;&gt;Node10</title>
<path fill="none" stroke="midnightblue" d="M250.516,-257.644C253.054,-256.086 255.559,-254.532 258,-253 274.286,-242.776 277.192,-238.342 294,-229 299.831,-225.759 306.076,-222.574 312.314,-219.561"/>
<polygon fill="midnightblue" stroke="midnightblue" points="248.54,-254.749 241.812,-262.934 252.176,-260.731 248.54,-254.749"/>
</g>
<!-- Node12 -->
<g id="node12" class="node"><title>Node12</title>
<g id="a_node12"><a xlink:href="structasc_1_1basic__socket__pipeline.html" target="_top" xlink:title="basic_socket_pipeline\l\&lt; T, remote_client\&lt; T,\l Socket, Router \&gt; \&gt;">
<polygon fill="white" stroke="black" points="304,-118.5 304,-159.5 418,-159.5 418,-118.5 304,-118.5"/>
<text text-anchor="start" x="312" y="-147.5" font-family="Helvetica,sans-Serif" font-size="10.00">basic_socket_pipeline</text>
<text text-anchor="start" x="312" y="-136.5" font-family="Helvetica,sans-Serif" font-size="10.00">&lt; T, remote_client&lt; T,</text>
<text text-anchor="middle" x="361" y="-125.5" font-family="Helvetica,sans-Serif" font-size="10.00"> Socket, Router &gt; &gt;</text>
</a>
</g>
</g>
<!-- Node2&#45;&gt;Node12 -->
<g id="edge11" class="edge"><title>Node2&#45;&gt;Node12</title>
<path fill="none" stroke="midnightblue" d="M255.299,-255.902C256.23,-254.954 257.132,-253.987 258,-253 284.821,-222.498 265.593,-198.031 294,-169 297.433,-165.491 301.352,-162.356 305.529,-159.561"/>
<polygon fill="midnightblue" stroke="midnightblue" points="252.748,-253.489 247.654,-262.778 257.43,-258.693 252.748,-253.489"/>
</g>
<!-- Node6 -->
<g id="node6" class="node"><title>Node6</title>
<g id="a_node6"><a xlink:href="classasc_1_1unix__domain__socket__pipeline.html" target="_top" xlink:title="asc::unix_domain_socket\l_pipeline\&lt; K, R \&gt;">
<polygon fill="white" stroke="black" points="464,-333 464,-363 592,-363 592,-333 464,-333"/>
<text text-anchor="start" x="472" y="-351" font-family="Helvetica,sans-Serif" font-size="10.00">asc::unix_domain_socket</text>
<text text-anchor="middle" x="528" y="-340" font-family="Helvetica,sans-Serif" font-size="10.00">_pipeline&lt; K, R &gt;</text>
</a>
</g>
</g>
<!-- Node5&#45;&gt;Node6 -->
<g id="edge5" class="edge"><title>Node5&#45;&gt;Node6</title>
<path fill="none" stroke="midnightblue" d="M427.716,-330.55C439.61,-332.641 451.991,-334.817 463.811,-336.894"/>
<polygon fill="midnightblue" stroke="midnightblue" points="428.316,-327.102 417.861,-328.818 427.105,-333.996 428.316,-327.102"/>
</g>
<!-- Node8 -->
<g id="node8" class="node"><title>Node8</title>
<g id="a_node8"><a xlink:href="classasc_1_1child__process__pipeline.html" target="_top" xlink:title="asc::child_process\l_pipeline\&lt; K, R \&gt;">
<polygon fill="white" stroke="black" points="479,-284 479,-314 577,-314 577,-284 479,-284"/>
<text text-anchor="start" x="487" y="-302" font-family="Helvetica,sans-Serif" font-size="10.00">asc::child_process</text>
<text text-anchor="middle" x="528" y="-291" font-family="Helvetica,sans-Serif" font-size="10.00">_pipeline&lt; K, R &gt;</text>
</a>
</g>
</g>
<!-- Node7&#45;&gt;Node8 -->
<g id="edge7" class="edge"><title>Node7&#45;&gt;Node8</title>
<path fill="none" stroke="midnightblue" d="M427.779,-274.946C444.858,-279.087 462.936,-283.469 478.915,-287.343"/>
<polygon fill="midnightblue" stroke="midnightblue" points="428.405,-271.497 417.861,-272.542 426.755,-278.3 428.405,-271.497"/>
</g>
<!-- Node9 -->
<g id="node9" class="node"><title>Node9</title>
<g id="a_node9"><a xlink:href="classasc_1_1process__pipeline.html" target="_top" xlink:title="asc::process_pipeline\l\&lt; K, R \&gt;">
<polygon fill="white" stroke="black" points="472.5,-235 472.5,-265 583.5,-265 583.5,-235 472.5,-235"/>
<text text-anchor="start" x="480.5" y="-253" font-family="Helvetica,sans-Serif" font-size="10.00">asc::process_pipeline</text>
<text text-anchor="middle" x="528" y="-242" font-family="Helvetica,sans-Serif" font-size="10.00">&lt; K, R &gt;</text>
</a>
</g>
</g>
<!-- Node7&#45;&gt;Node9 -->
<g id="edge8" class="edge"><title>Node7&#45;&gt;Node9</title>
<path fill="none" stroke="midnightblue" d="M427.914,-255.405C442.64,-254.601 458.102,-253.758 472.315,-252.983"/>
<polygon fill="midnightblue" stroke="midnightblue" points="427.656,-251.913 417.861,-255.953 428.037,-258.903 427.656,-251.913"/>
</g>
<!-- Node11 -->
<g id="node11" class="node"><title>Node11</title>
<g id="a_node11"><a xlink:href="classasc_1_1child__process__pipeline.html" target="_top" xlink:title="asc::child_process\l_pipeline\&lt; T, basic\l_router\&lt; T \&gt; \&gt;">
<polygon fill="white" stroke="black" points="478.5,-175.5 478.5,-216.5 577.5,-216.5 577.5,-175.5 478.5,-175.5"/>
<text text-anchor="start" x="486.5" y="-204.5" font-family="Helvetica,sans-Serif" font-size="10.00">asc::child_process</text>
<text text-anchor="start" x="486.5" y="-193.5" font-family="Helvetica,sans-Serif" font-size="10.00">_pipeline&lt; T, basic</text>
<text text-anchor="middle" x="528" y="-182.5" font-family="Helvetica,sans-Serif" font-size="10.00">_router&lt; T &gt; &gt;</text>
</a>
</g>
</g>
<!-- Node10&#45;&gt;Node11 -->
<g id="edge10" class="edge"><title>Node10&#45;&gt;Node11</title>
<path fill="none" stroke="midnightblue" d="M438.079,-197.617C451.762,-197.368 465.682,-197.115 478.321,-196.885"/>
<polygon fill="midnightblue" stroke="midnightblue" points="437.621,-194.124 427.686,-197.806 437.748,-201.123 437.621,-194.124"/>
</g>
<!-- Node13 -->
<g id="node13" class="node"><title>Node13</title>
<g id="a_node13"><a xlink:href="classasc_1_1socket__pipeline.html" target="_top" xlink:title="asc::socket_pipeline\l\&lt; T, Socket, Router \&gt;">
<polygon fill="white" stroke="black" points="471.5,-124 471.5,-154 584.5,-154 584.5,-124 471.5,-124"/>
<text text-anchor="start" x="479.5" y="-142" font-family="Helvetica,sans-Serif" font-size="10.00">asc::socket_pipeline</text>
<text text-anchor="middle" x="528" y="-131" font-family="Helvetica,sans-Serif" font-size="10.00">&lt; T, Socket, Router &gt;</text>
</a>
</g>
</g>
<!-- Node12&#45;&gt;Node13 -->
<g id="edge12" class="edge"><title>Node12&#45;&gt;Node13</title>
<path fill="none" stroke="midnightblue" d="M428.555,-139C442.803,-139 457.712,-139 471.491,-139"/>
<polygon fill="midnightblue" stroke="midnightblue" points="428.322,-135.5 418.322,-139 428.322,-142.5 428.322,-135.5"/>
</g>
<!-- Node20 -->
<g id="node20" class="node"><title>Node20</title>
<g id="a_node20"><a xlink:href="classasc_1_1parallel__pipeline.html" target="_top" xlink:title="asc::parallel_pipeline\&lt; T \&gt;">
<polygon fill="white" stroke="black" points="295.5,-0.5 295.5,-19.5 426.5,-19.5 426.5,-0.5 295.5,-0.5"/>
<text text-anchor="middle" x="361" y="-7.5" font-family="Helvetica,sans-Serif" font-size="10.00">asc::parallel_pipeline&lt; T &gt;</text>
</a>
</g>
</g>
<!-- Node19&#45;&gt;Node20 -->
<g id="edge19" class="edge"><title>Node19&#45;&gt;Node20</title>
<path fill="none" stroke="midnightblue" d="M268.208,-10C277.194,-10 286.35,-10 295.229,-10"/>
<polygon fill="midnightblue" stroke="midnightblue" points="268.159,-6.5001 258.159,-10 268.159,-13.5001 268.159,-6.5001"/>
</g>
<!-- Node21 -->
<g id="node21" class="node"><title>Node21</title>
<g id="a_node21"><a xlink:href="structasc_1_1io__pipeline.html" target="_top" xlink:title="asc::io_pipeline\&lt; T \&gt;">
<polygon fill="white" stroke="black" points="474,-0.5 474,-19.5 582,-19.5 582,-0.5 474,-0.5"/>
<text text-anchor="middle" x="528" y="-7.5" font-family="Helvetica,sans-Serif" font-size="10.00">asc::io_pipeline&lt; T &gt;</text>
</a>
</g>
</g>
<!-- Node20&#45;&gt;Node21 -->
<g id="edge20" class="edge"><title>Node20&#45;&gt;Node21</title>
<path fill="none" stroke="midnightblue" d="M437.092,-10C449.51,-10 462.154,-10 473.886,-10"/>
<polygon fill="midnightblue" stroke="midnightblue" points="436.739,-6.5001 426.739,-10 436.739,-13.5001 436.739,-6.5001"/>
</g>
</g>
</svg>
