<?xml version="1.0" encoding="UTF-8" standalone="no"?>
<!DOCTYPE svg PUBLIC "-//W3C//DTD SVG 1.1//EN"
 "http://www.w3.org/Graphics/SVG/1.1/DTD/svg11.dtd">
<!-- Generated by graphviz version 2.36.0 (20140111.2315)
 -->
<!-- Title: bsc::kernel_base Pages: 1 -->
<svg width="676pt" height="1188pt"
 viewBox="0.00 0.00 676.00 1188.00" xmlns="http://www.w3.org/2000/svg" xmlns:xlink="http://www.w3.org/1999/xlink">
<g id="graph0" class="graph" transform="scale(1 1) rotate(0) translate(4 1184)">
<title>bsc::kernel_base</title>
<polygon fill="white" stroke="none" points="-4,4 -4,-1184 672,-1184 672,4 -4,4"/>
<!-- Node1 -->
<g id="node1" class="node"><title>Node1</title>
<polygon fill="#bfbfbf" stroke="black" points="0.5,-487.5 0.5,-506.5 91.5,-506.5 91.5,-487.5 0.5,-487.5"/>
<text text-anchor="middle" x="46" y="-494.5" font-family="Helvetica,sans-Serif" font-size="10.00">bsc::kernel_base</text>
</g>
<!-- Node2 -->
<g id="node2" class="node"><title>Node2</title>
<g id="a_node2"><a xlink:href="classbsc_1_1mobile__kernel.html" target="_top" xlink:title="bsc::mobile_kernel">
<polygon fill="white" stroke="black" points="128,-487.5 128,-506.5 226,-506.5 226,-487.5 128,-487.5"/>
<text text-anchor="middle" x="177" y="-494.5" font-family="Helvetica,sans-Serif" font-size="10.00">bsc::mobile_kernel</text>
</a>
</g>
</g>
<!-- Node1&#45;&gt;Node2 -->
<g id="edge1" class="edge"><title>Node1&#45;&gt;Node2</title>
<path fill="none" stroke="midnightblue" d="M101.767,-497C110.421,-497 119.315,-497 127.805,-497"/>
<polygon fill="midnightblue" stroke="midnightblue" points="101.756,-493.5 91.7559,-497 101.756,-500.5 101.756,-493.5"/>
</g>
<!-- Node3 -->
<g id="node3" class="node"><title>Node3</title>
<g id="a_node3"><a xlink:href="structbsc_1_1kernel.html" target="_top" xlink:title="bsc::kernel">
<polygon fill="white" stroke="black" points="262.5,-487.5 262.5,-506.5 327.5,-506.5 327.5,-487.5 262.5,-487.5"/>
<text text-anchor="middle" x="295" y="-494.5" font-family="Helvetica,sans-Serif" font-size="10.00">bsc::kernel</text>
</a>
</g>
</g>
<!-- Node2&#45;&gt;Node3 -->
<g id="edge2" class="edge"><title>Node2&#45;&gt;Node3</title>
<path fill="none" stroke="midnightblue" d="M236.283,-497C245.263,-497 254.233,-497 262.334,-497"/>
<polygon fill="midnightblue" stroke="midnightblue" points="236.187,-493.5 226.187,-497 236.187,-500.5 236.187,-493.5"/>
</g>
<!-- Node4 -->
<g id="node4" class="node"><title>Node4</title>
<g id="a_node4"><a xlink:href="structautoreg_1_1ACF__generator.html" target="_top" xlink:title="autoreg::ACF_generator\&lt; T \&gt;">
<polygon fill="white" stroke="black" points="364.5,-1160.5 364.5,-1179.5 509.5,-1179.5 509.5,-1160.5 364.5,-1160.5"/>
<text text-anchor="middle" x="437" y="-1167.5" font-family="Helvetica,sans-Serif" font-size="10.00">autoreg::ACF_generator&lt; T &gt;</text>
</a>
</g>
</g>
<!-- Node3&#45;&gt;Node4 -->
<g id="edge3" class="edge"><title>Node3&#45;&gt;Node4</title>
<path fill="none" stroke="midnightblue" d="M296.746,-517.049C300.811,-621.619 321.684,-1101.59 364,-1151 367.28,-1154.83 371.231,-1157.93 375.573,-1160.44"/>
<polygon fill="midnightblue" stroke="midnightblue" points="300.238,-516.773 296.359,-506.913 293.243,-517.04 300.238,-516.773"/>
</g>
<!-- Node5 -->
<g id="node5" class="node"><title>Node5</title>
<g id="a_node5"><a xlink:href="structautoreg_1_1Autoreg__coefs.html" target="_top" xlink:title="autoreg::Autoreg_coefs\&lt; T \&gt;">
<polygon fill="white" stroke="black" points="366,-1122.5 366,-1141.5 508,-1141.5 508,-1122.5 366,-1122.5"/>
<text text-anchor="middle" x="437" y="-1129.5" font-family="Helvetica,sans-Serif" font-size="10.00">autoreg::Autoreg_coefs&lt; T &gt;</text>
</a>
</g>
</g>
<!-- Node3&#45;&gt;Node5 -->
<g id="edge4" class="edge"><title>Node3&#45;&gt;Node5</title>
<path fill="none" stroke="midnightblue" d="M296.871,-516.821C301.454,-617.221 324.093,-1066.7 364,-1113 367.292,-1116.82 371.251,-1119.92 375.599,-1122.42"/>
<polygon fill="midnightblue" stroke="midnightblue" points="300.366,-516.644 296.421,-506.811 293.373,-516.958 300.366,-516.644"/>
</g>
<!-- Node6 -->
<g id="node6" class="node"><title>Node6</title>
<g id="a_node6"><a xlink:href="classautoreg_1_1Autoreg__model.html" target="_top" xlink:title="autoreg::Autoreg_model\&lt; T \&gt;">
<polygon fill="white" stroke="black" points="365,-1084.5 365,-1103.5 509,-1103.5 509,-1084.5 365,-1084.5"/>
<text text-anchor="middle" x="437" y="-1091.5" font-family="Helvetica,sans-Serif" font-size="10.00">autoreg::Autoreg_model&lt; T &gt;</text>
</a>
</g>
</g>
<!-- Node3&#45;&gt;Node6 -->
<g id="edge5" class="edge"><title>Node3&#45;&gt;Node6</title>
<path fill="none" stroke="midnightblue" d="M297.034,-516.746C302.246,-613.059 326.864,-1030.67 364,-1074 367.715,-1078.33 372.279,-1081.77 377.292,-1084.49"/>
<polygon fill="midnightblue" stroke="midnightblue" points="300.523,-516.439 296.495,-506.64 293.532,-516.812 300.523,-516.439"/>
</g>
<!-- Node7 -->
<g id="node7" class="node"><title>Node7</title>
<g id="a_node7"><a xlink:href="structautoreg_1_1Generator1.html" target="_top" xlink:title="autoreg::Generator1\l\&lt; T, Grid \&gt;">
<polygon fill="white" stroke="black" points="385.5,-1035 385.5,-1065 488.5,-1065 488.5,-1035 385.5,-1035"/>
<text text-anchor="start" x="393.5" y="-1053" font-family="Helvetica,sans-Serif" font-size="10.00">autoreg::Generator1</text>
<text text-anchor="middle" x="437" y="-1042" font-family="Helvetica,sans-Serif" font-size="10.00">&lt; T, Grid &gt;</text>
</a>
</g>
</g>
<!-- Node3&#45;&gt;Node7 -->
<g id="edge6" class="edge"><title>Node3&#45;&gt;Node7</title>
<path fill="none" stroke="midnightblue" d="M295.86,-516.795C295.64,-603.001 298.944,-944.935 364,-1025 369.591,-1031.88 377.187,-1036.87 385.356,-1040.49"/>
<polygon fill="midnightblue" stroke="midnightblue" points="299.36,-516.594 295.907,-506.578 292.361,-516.562 299.36,-516.594"/>
</g>
<!-- Node8 -->
<g id="node8" class="node"><title>Node8</title>
<g id="a_node8"><a xlink:href="structautoreg_1_1Solve__Yule__Walker.html" target="_top" xlink:title="autoreg::Solve_Yule\l_Walker\&lt; T \&gt;">
<polygon fill="white" stroke="black" points="385,-986 385,-1016 489,-1016 489,-986 385,-986"/>
<text text-anchor="start" x="393" y="-1004" font-family="Helvetica,sans-Serif" font-size="10.00">autoreg::Solve_Yule</text>
<text text-anchor="middle" x="437" y="-993" font-family="Helvetica,sans-Serif" font-size="10.00">_Walker&lt; T &gt;</text>
</a>
</g>
</g>
<!-- Node3&#45;&gt;Node8 -->
<g id="edge7" class="edge"><title>Node3&#45;&gt;Node8</title>
<path fill="none" stroke="midnightblue" d="M296.156,-517.255C297.183,-599.086 304.973,-904.308 364,-976 369.467,-982.64 376.799,-987.52 384.698,-991.105"/>
<polygon fill="midnightblue" stroke="midnightblue" points="299.652,-516.82 296.048,-506.857 292.652,-516.893 299.652,-516.82"/>
</g>
<!-- Node9 -->
<g id="node9" class="node"><title>Node9</title>
<g id="a_node9"><a xlink:href="structautoreg_1_1Wave__surface__generator.html" target="_top" xlink:title="autoreg::Wave_surface\l_generator\&lt; T, Grid \&gt;">
<polygon fill="white" stroke="black" points="378,-937 378,-967 496,-967 496,-937 378,-937"/>
<text text-anchor="start" x="386" y="-955" font-family="Helvetica,sans-Serif" font-size="10.00">autoreg::Wave_surface</text>
<text text-anchor="middle" x="437" y="-944" font-family="Helvetica,sans-Serif" font-size="10.00">_generator&lt; T, Grid &gt;</text>
</a>
</g>
</g>
<!-- Node3&#45;&gt;Node9 -->
<g id="edge8" class="edge"><title>Node3&#45;&gt;Node9</title>
<path fill="none" stroke="midnightblue" d="M296.5,-516.623C298.806,-592.19 310.717,-863.318 364,-927 367.821,-931.567 372.523,-935.301 377.679,-938.353"/>
<polygon fill="midnightblue" stroke="midnightblue" points="299.997,-516.483 296.216,-506.586 293,-516.681 299.997,-516.483"/>
</g>
<!-- Node10 -->
<g id="node10" class="node"><title>Node10</title>
<g id="a_node10"><a xlink:href="structAutoreg__app.html" target="_top" xlink:title="Autoreg_app">
<polygon fill="white" stroke="black" points="401.5,-898.5 401.5,-917.5 472.5,-917.5 472.5,-898.5 401.5,-898.5"/>
<text text-anchor="middle" x="437" y="-905.5" font-family="Helvetica,sans-Serif" font-size="10.00">Autoreg_app</text>
</a>
</g>
</g>
<!-- Node3&#45;&gt;Node10 -->
<g id="edge9" class="edge"><title>Node3&#45;&gt;Node10</title>
<path fill="none" stroke="midnightblue" d="M296.71,-517.278C299.656,-589.621 313.248,-833.671 364,-889 373.525,-899.384 387.992,-904.37 401.466,-906.672"/>
<polygon fill="midnightblue" stroke="midnightblue" points="300.191,-516.713 296.313,-506.854 293.196,-516.98 300.191,-516.713"/>
</g>
<!-- Node11 -->
<g id="node11" class="node"><title>Node11</title>
<g id="a_node11"><a xlink:href="structBig__kernel.html" target="_top" xlink:title="Big_kernel\&lt; Size \&gt;">
<polygon fill="white" stroke="black" points="387,-860.5 387,-879.5 487,-879.5 487,-860.5 387,-860.5"/>
<text text-anchor="middle" x="437" y="-867.5" font-family="Helvetica,sans-Serif" font-size="10.00">Big_kernel&lt; Size &gt;</text>
</a>
</g>
</g>
<!-- Node3&#45;&gt;Node11 -->
<g id="edge10" class="edge"><title>Node3&#45;&gt;Node11</title>
<path fill="none" stroke="midnightblue" d="M297.082,-516.606C301.172,-583.539 317.865,-801.605 364,-851 370.177,-857.614 378.359,-862.031 386.988,-864.959"/>
<polygon fill="midnightblue" stroke="midnightblue" points="300.573,-516.347 296.496,-506.568 293.585,-516.756 300.573,-516.347"/>
</g>
<!-- Node12 -->
<g id="node12" class="node"><title>Node12</title>
<g id="a_node12"><a xlink:href="classbsc_1_1discovery__timer.html" target="_top" xlink:title="bsc::discovery_timer">
<polygon fill="white" stroke="black" points="383.5,-822.5 383.5,-841.5 490.5,-841.5 490.5,-822.5 383.5,-822.5"/>
<text text-anchor="middle" x="437" y="-829.5" font-family="Helvetica,sans-Serif" font-size="10.00">bsc::discovery_timer</text>
</a>
</g>
</g>
<!-- Node3&#45;&gt;Node12 -->
<g id="edge11" class="edge"><title>Node3&#45;&gt;Node12</title>
<path fill="none" stroke="midnightblue" d="M297.6,-516.892C303.017,-579.313 322.68,-769.732 364,-813 369.357,-818.61 376.158,-822.634 383.432,-825.507"/>
<polygon fill="midnightblue" stroke="midnightblue" points="301.076,-516.463 296.752,-506.79 294.101,-517.048 301.076,-516.463"/>
</g>
<!-- Node13 -->
<g id="node13" class="node"><title>Node13</title>
<g id="a_node13"><a xlink:href="classbsc_1_1hierarchy__kernel.html" target="_top" xlink:title="bsc::hierarchy_kernel">
<polygon fill="white" stroke="black" points="382,-784.5 382,-803.5 492,-803.5 492,-784.5 382,-784.5"/>
<text text-anchor="middle" x="437" y="-791.5" font-family="Helvetica,sans-Serif" font-size="10.00">bsc::hierarchy_kernel</text>
</a>
</g>
</g>
<!-- Node3&#45;&gt;Node13 -->
<g id="edge12" class="edge"><title>Node3&#45;&gt;Node13</title>
<path fill="none" stroke="midnightblue" d="M298.254,-517.072C305.099,-574.506 327.44,-737.772 364,-775 368.982,-780.073 375.147,-783.843 381.756,-786.636"/>
<polygon fill="midnightblue" stroke="midnightblue" points="301.69,-516.314 297.06,-506.784 294.736,-517.121 301.69,-516.314"/>
</g>
<!-- Node14 -->
<g id="node14" class="node"><title>Node14</title>
<g id="a_node14"><a xlink:href="structbsc_1_1Map.html" target="_top" xlink:title="bsc::Map\&lt; F, G, I \&gt;">
<polygon fill="white" stroke="black" points="385,-746.5 385,-765.5 489,-765.5 489,-746.5 385,-746.5"/>
<text text-anchor="middle" x="437" y="-753.5" font-family="Helvetica,sans-Serif" font-size="10.00">bsc::Map&lt; F, G, I &gt;</text>
</a>
</g>
</g>
<!-- Node3&#45;&gt;Node14 -->
<g id="edge13" class="edge"><title>Node3&#45;&gt;Node14</title>
<path fill="none" stroke="midnightblue" d="M295.551,-516.912C295.654,-562.435 302.504,-674.887 364,-736 369.797,-741.761 377.102,-745.898 384.82,-748.861"/>
<polygon fill="midnightblue" stroke="midnightblue" points="299.051,-516.884 295.641,-506.853 292.051,-516.821 299.051,-516.884"/>
</g>
<!-- Node15 -->
<g id="node15" class="node"><title>Node15</title>
<g id="a_node15"><a xlink:href="structbsc_1_1Map_1_1Worker.html" target="_top" xlink:title="bsc::Map\&lt; F, G, I \&gt;\l::Worker">
<polygon fill="white" stroke="black" points="385,-697 385,-727 489,-727 489,-697 385,-697"/>
<text text-anchor="start" x="393" y="-715" font-family="Helvetica,sans-Serif" font-size="10.00">bsc::Map&lt; F, G, I &gt;</text>
<text text-anchor="middle" x="437" y="-704" font-family="Helvetica,sans-Serif" font-size="10.00">::Worker</text>
</a>
</g>
</g>
<!-- Node3&#45;&gt;Node15 -->
<g id="edge14" class="edge"><title>Node3&#45;&gt;Node15</title>
<path fill="none" stroke="midnightblue" d="M297.598,-517.193C301.702,-555.561 315.953,-639.407 364,-687 369.828,-692.773 377.057,-697.217 384.665,-700.636"/>
<polygon fill="midnightblue" stroke="midnightblue" points="301.045,-516.464 296.624,-506.836 294.075,-517.12 301.045,-516.464"/>
</g>
<!-- Node16 -->
<g id="node16" class="node"><title>Node16</title>
<g id="a_node16"><a xlink:href="classbsc_1_1network__master.html" target="_top" xlink:title="bsc::network_master">
<polygon fill="white" stroke="black" points="383,-658.5 383,-677.5 491,-677.5 491,-658.5 383,-658.5"/>
<text text-anchor="middle" x="437" y="-665.5" font-family="Helvetica,sans-Serif" font-size="10.00">bsc::network_master</text>
</a>
</g>
</g>
<!-- Node3&#45;&gt;Node16 -->
<g id="edge15" class="edge"><title>Node3&#45;&gt;Node16</title>
<path fill="none" stroke="midnightblue" d="M299.181,-516.57C305.512,-549.061 322.804,-614.013 364,-649 369.518,-653.686 376.067,-657.232 382.933,-659.911"/>
<polygon fill="midnightblue" stroke="midnightblue" points="302.591,-515.757 297.378,-506.534 295.701,-516.995 302.591,-515.757"/>
</g>
<!-- Node17 -->
<g id="node17" class="node"><title>Node17</title>
<g id="a_node17"><a xlink:href="classbsc_1_1network__timer.html" target="_top" xlink:title="bsc::network_timer">
<polygon fill="white" stroke="black" points="387,-620.5 387,-639.5 487,-639.5 487,-620.5 387,-620.5"/>
<text text-anchor="middle" x="437" y="-627.5" font-family="Helvetica,sans-Serif" font-size="10.00">bsc::network_timer</text>
</a>
</g>
</g>
<!-- Node3&#45;&gt;Node17 -->
<g id="edge16" class="edge"><title>Node3&#45;&gt;Node17</title>
<path fill="none" stroke="midnightblue" d="M302.299,-516.347C311.638,-541.931 331.624,-586.617 364,-611 370.713,-616.055 378.658,-619.768 386.778,-622.495"/>
<polygon fill="midnightblue" stroke="midnightblue" points="305.526,-514.968 298.944,-506.666 298.912,-517.261 305.526,-514.968"/>
</g>
<!-- Node18 -->
<g id="node18" class="node"><title>Node18</title>
<g id="a_node18"><a xlink:href="classbsc_1_1Notification.html" target="_top" xlink:title="bsc::Notification">
<polygon fill="white" stroke="black" points="393,-582.5 393,-601.5 481,-601.5 481,-582.5 393,-582.5"/>
<text text-anchor="middle" x="437" y="-589.5" font-family="Helvetica,sans-Serif" font-size="10.00">bsc::Notification</text>
</a>
</g>
</g>
<!-- Node3&#45;&gt;Node18 -->
<g id="edge17" class="edge"><title>Node3&#45;&gt;Node18</title>
<path fill="none" stroke="midnightblue" d="M307.635,-515.257C319.672,-532.663 340.049,-558.334 364,-573 372.71,-578.333 382.901,-582.185 392.829,-584.96"/>
<polygon fill="midnightblue" stroke="midnightblue" points="310.296,-512.938 301.836,-506.559 304.471,-516.821 310.296,-512.938"/>
</g>
<!-- Node19 -->
<g id="node19" class="node"><title>Node19</title>
<g id="a_node19"><a xlink:href="classbsc_1_1probe.html" target="_top" xlink:title="bsc::probe">
<polygon fill="white" stroke="black" points="406,-544.5 406,-563.5 468,-563.5 468,-544.5 406,-544.5"/>
<text text-anchor="middle" x="437" y="-551.5" font-family="Helvetica,sans-Serif" font-size="10.00">bsc::probe</text>
</a>
</g>
</g>
<!-- Node3&#45;&gt;Node19 -->
<g id="edge18" class="edge"><title>Node3&#45;&gt;Node19</title>
<path fill="none" stroke="midnightblue" d="M319.215,-511.897C332.031,-519.62 348.46,-528.725 364,-535 377.306,-540.373 392.609,-544.659 405.677,-547.79"/>
<polygon fill="midnightblue" stroke="midnightblue" points="320.935,-508.845 310.586,-506.576 317.261,-514.804 320.935,-508.845"/>
</g>
<!-- Node20 -->
<g id="node20" class="node"><title>Node20</title>
<g id="a_node20"><a xlink:href="classbsc_1_1prober.html" target="_top" xlink:title="bsc::prober">
<polygon fill="white" stroke="black" points="404.5,-506.5 404.5,-525.5 469.5,-525.5 469.5,-506.5 404.5,-506.5"/>
<text text-anchor="middle" x="437" y="-513.5" font-family="Helvetica,sans-Serif" font-size="10.00">bsc::prober</text>
</a>
</g>
</g>
<!-- Node3&#45;&gt;Node20 -->
<g id="edge19" class="edge"><title>Node3&#45;&gt;Node20</title>
<path fill="none" stroke="midnightblue" d="M337.858,-502.681C359.185,-505.575 384.693,-509.037 404.358,-511.706"/>
<polygon fill="midnightblue" stroke="midnightblue" points="338.148,-499.188 327.768,-501.311 337.207,-506.125 338.148,-499.188"/>
</g>
<!-- Node21 -->
<g id="node21" class="node"><title>Node21</title>
<g id="a_node21"><a xlink:href="classbsc_1_1resident__kernel.html" target="_top" xlink:title="bsc::resident_kernel">
<polygon fill="white" stroke="black" points="385,-468.5 385,-487.5 489,-487.5 489,-468.5 385,-468.5"/>
<text text-anchor="middle" x="437" y="-475.5" font-family="Helvetica,sans-Serif" font-size="10.00">bsc::resident_kernel</text>
</a>
</g>
</g>
<!-- Node3&#45;&gt;Node21 -->
<g id="edge20" class="edge"><title>Node3&#45;&gt;Node21</title>
<path fill="none" stroke="midnightblue" d="M338.089,-491.288C352.806,-489.291 369.491,-487.026 384.864,-484.94"/>
<polygon fill="midnightblue" stroke="midnightblue" points="337.207,-487.876 327.768,-492.689 338.148,-494.812 337.207,-487.876"/>
</g>
<!-- Node23 -->
<g id="node23" class="node"><title>Node23</title>
<g id="a_node23"><a xlink:href="structDummy__kernel.html" target="_top" xlink:title="Dummy_kernel">
<polygon fill="white" stroke="black" points="395.5,-430.5 395.5,-449.5 478.5,-449.5 478.5,-430.5 395.5,-430.5"/>
<text text-anchor="middle" x="437" y="-437.5" font-family="Helvetica,sans-Serif" font-size="10.00">Dummy_kernel</text>
</a>
</g>
</g>
<!-- Node3&#45;&gt;Node23 -->
<g id="edge22" class="edge"><title>Node3&#45;&gt;Node23</title>
<path fill="none" stroke="midnightblue" d="M319.215,-482.103C332.031,-474.38 348.46,-465.275 364,-459 373.95,-454.982 385.016,-451.572 395.429,-448.799"/>
<polygon fill="midnightblue" stroke="midnightblue" points="317.261,-479.196 310.586,-487.424 320.935,-485.155 317.261,-479.196"/>
</g>
<!-- Node24 -->
<g id="node24" class="node"><title>Node24</title>
<g id="a_node24"><a xlink:href="structGood__kernel.html" target="_top" xlink:title="Good_kernel">
<polygon fill="white" stroke="black" points="401.5,-392.5 401.5,-411.5 472.5,-411.5 472.5,-392.5 401.5,-392.5"/>
<text text-anchor="middle" x="437" y="-399.5" font-family="Helvetica,sans-Serif" font-size="10.00">Good_kernel</text>
</a>
</g>
</g>
<!-- Node3&#45;&gt;Node24 -->
<g id="edge23" class="edge"><title>Node3&#45;&gt;Node24</title>
<path fill="none" stroke="midnightblue" d="M307.635,-478.743C319.672,-461.337 340.049,-435.666 364,-421 375.246,-414.114 388.96,-409.699 401.391,-406.879"/>
<polygon fill="midnightblue" stroke="midnightblue" points="304.471,-477.179 301.836,-487.441 310.296,-481.062 304.471,-477.179"/>
</g>
<!-- Node27 -->
<g id="node27" class="node"><title>Node27</title>
<g id="a_node27"><a xlink:href="structKernel__that__carries__its__parent.html" target="_top" xlink:title="Kernel_that_carries\l_its_parent">
<polygon fill="white" stroke="black" points="386.5,-343 386.5,-373 487.5,-373 487.5,-343 386.5,-343"/>
<text text-anchor="start" x="394.5" y="-361" font-family="Helvetica,sans-Serif" font-size="10.00">Kernel_that_carries</text>
<text text-anchor="middle" x="437" y="-350" font-family="Helvetica,sans-Serif" font-size="10.00">_its_parent</text>
</a>
</g>
</g>
<!-- Node3&#45;&gt;Node27 -->
<g id="edge26" class="edge"><title>Node3&#45;&gt;Node27</title>
<path fill="none" stroke="midnightblue" d="M302.724,-477.633C312.437,-452.39 332.732,-408.471 364,-383 370.566,-377.652 378.349,-373.415 386.33,-370.068"/>
<polygon fill="midnightblue" stroke="midnightblue" points="299.373,-476.607 299.208,-487.2 305.943,-479.021 299.373,-476.607"/>
</g>
<!-- Node28 -->
<g id="node28" class="node"><title>Node28</title>
<g id="a_node28"><a xlink:href="structLauncher.html" target="_top" xlink:title="Launcher">
<polygon fill="white" stroke="black" points="409,-304.5 409,-323.5 465,-323.5 465,-304.5 409,-304.5"/>
<text text-anchor="middle" x="437" y="-311.5" font-family="Helvetica,sans-Serif" font-size="10.00">Launcher</text>
</a>
</g>
</g>
<!-- Node3&#45;&gt;Node28 -->
<g id="edge27" class="edge"><title>Node3&#45;&gt;Node28</title>
<path fill="none" stroke="midnightblue" d="M298.637,-477.052C304.253,-442.676 320.632,-372.288 364,-334 376.351,-323.096 394.168,-318.088 408.987,-315.811"/>
<polygon fill="midnightblue" stroke="midnightblue" points="295.133,-476.824 297.122,-487.231 302.056,-477.855 295.133,-476.824"/>
</g>
<!-- Node29 -->
<g id="node29" class="node"><title>Node29</title>
<g id="a_node29"><a xlink:href="classMain.html" target="_top" xlink:title="Main">
<polygon fill="white" stroke="black" points="418,-266.5 418,-285.5 456,-285.5 456,-266.5 418,-266.5"/>
<text text-anchor="middle" x="437" y="-273.5" font-family="Helvetica,sans-Serif" font-size="10.00">Main</text>
</a>
</g>
</g>
<!-- Node3&#45;&gt;Node29 -->
<g id="edge28" class="edge"><title>Node3&#45;&gt;Node29</title>
<path fill="none" stroke="midnightblue" d="M296.177,-477.38C297.302,-429.486 305.461,-322.759 364,-268 384.959,-248.394 423.712,-248.504 433.636,-266.487"/>
<polygon fill="midnightblue" stroke="midnightblue" points="292.676,-477.396 296.021,-487.449 299.675,-477.504 292.676,-477.396"/>
</g>
<!-- Node3&#45;&gt;Node29 -->
<g id="edge29" class="edge"><title>Node3&#45;&gt;Node29</title>
<path fill="none" stroke="midnightblue" d="M296.472,-476.919C298.49,-434.605 309.047,-337.404 364,-286 378.539,-272.4 401.641,-268.286 417.742,-269.127"/>
<polygon fill="midnightblue" stroke="midnightblue" points="292.968,-476.976 296.105,-487.096 299.964,-477.229 292.968,-476.976"/>
</g>
<!-- Node3&#45;&gt;Node29 -->
<g id="edge30" class="edge"><title>Node3&#45;&gt;Node29</title>
<path fill="none" stroke="midnightblue" d="M297.118,-476.991C300.407,-437.719 313.334,-351.394 364,-304 378.539,-290.4 401.641,-286.286 417.742,-283.209"/>
<polygon fill="midnightblue" stroke="midnightblue" points="293.612,-476.941 296.398,-487.163 300.595,-477.435 293.612,-476.941"/>
</g>
<!-- Node3&#45;&gt;Node29 -->
<g id="edge31" class="edge"><title>Node3&#45;&gt;Node29</title>
<path fill="none" stroke="midnightblue" d="M298.335,-477.399C303.193,-439.724 318.13,-364.908 364,-322 384.771,-302.571 423.016,-302.504 433.361,-285.733"/>
<polygon fill="midnightblue" stroke="midnightblue" points="294.85,-477.066 297.171,-487.404 301.803,-477.875 294.85,-477.066"/>
</g>
<!-- Node30 -->
<g id="node30" class="node"><title>Node30</title>
<g id="a_node30"><a xlink:href="structSender.html" target="_top" xlink:title="Sender">
<polygon fill="white" stroke="black" points="413.5,-228.5 413.5,-247.5 460.5,-247.5 460.5,-228.5 413.5,-228.5"/>
<text text-anchor="middle" x="437" y="-235.5" font-family="Helvetica,sans-Serif" font-size="10.00">Sender</text>
</a>
</g>
</g>
<!-- Node3&#45;&gt;Node30 -->
<g id="edge32" class="edge"><title>Node3&#45;&gt;Node30</title>
<path fill="none" stroke="midnightblue" d="M295.468,-476.951C295.396,-431.125 301.904,-317.983 364,-257 377.005,-244.228 397.526,-239.761 413.339,-238.325"/>
<polygon fill="midnightblue" stroke="midnightblue" points="291.969,-477.124 295.598,-487.078 298.969,-477.034 291.969,-477.124"/>
</g>
<!-- Node31 -->
<g id="node31" class="node"><title>Node31</title>
<g id="a_node31"><a xlink:href="structSleepy__kernel.html" target="_top" xlink:title="Sleepy_kernel">
<polygon fill="white" stroke="black" points="398,-190.5 398,-209.5 476,-209.5 476,-190.5 398,-190.5"/>
<text text-anchor="middle" x="437" y="-197.5" font-family="Helvetica,sans-Serif" font-size="10.00">Sleepy_kernel</text>
</a>
</g>
</g>
<!-- Node3&#45;&gt;Node31 -->
<g id="edge33" class="edge"><title>Node3&#45;&gt;Node31</title>
<path fill="none" stroke="midnightblue" d="M298.254,-476.928C305.099,-419.494 327.44,-256.228 364,-219 372.877,-209.961 385.509,-205.058 397.72,-202.449"/>
<polygon fill="midnightblue" stroke="midnightblue" points="294.736,-476.879 297.06,-487.216 301.69,-477.686 294.736,-476.879"/>
</g>
<!-- Node32 -->
<g id="node32" class="node"><title>Node32</title>
<g id="a_node32"><a xlink:href="structSpec__app.html" target="_top" xlink:title="Spec_app">
<polygon fill="white" stroke="black" points="407,-152.5 407,-171.5 467,-171.5 467,-152.5 407,-152.5"/>
<text text-anchor="middle" x="437" y="-159.5" font-family="Helvetica,sans-Serif" font-size="10.00">Spec_app</text>
</a>
</g>
</g>
<!-- Node3&#45;&gt;Node32 -->
<g id="edge34" class="edge"><title>Node3&#45;&gt;Node32</title>
<path fill="none" stroke="midnightblue" d="M297.6,-477.108C303.017,-414.687 322.68,-224.268 364,-181 374.982,-169.5 392.032,-164.665 406.784,-162.745"/>
<polygon fill="midnightblue" stroke="midnightblue" points="294.101,-476.952 296.752,-487.21 301.076,-477.537 294.101,-476.952"/>
</g>
<!-- Node33 -->
<g id="node33" class="node"><title>Node33</title>
<g id="a_node33"><a xlink:href="structSpectrum__kernel.html" target="_top" xlink:title="Spectrum_kernel">
<polygon fill="white" stroke="black" points="392,-114.5 392,-133.5 482,-133.5 482,-114.5 392,-114.5"/>
<text text-anchor="middle" x="437" y="-121.5" font-family="Helvetica,sans-Serif" font-size="10.00">Spectrum_kernel</text>
</a>
</g>
</g>
<!-- Node3&#45;&gt;Node33 -->
<g id="edge35" class="edge"><title>Node3&#45;&gt;Node33</title>
<path fill="none" stroke="midnightblue" d="M297.082,-477.394C301.172,-410.461 317.865,-192.395 364,-143 371.324,-135.158 381.468,-130.404 391.832,-127.56"/>
<polygon fill="midnightblue" stroke="midnightblue" points="293.585,-477.244 296.496,-487.432 300.573,-477.653 293.585,-477.244"/>
</g>
<!-- Node34 -->
<g id="node34" class="node"><title>Node34</title>
<g id="a_node34"><a xlink:href="structStation__kernel.html" target="_top" xlink:title="Station_kernel">
<polygon fill="white" stroke="black" points="397.5,-76.5 397.5,-95.5 476.5,-95.5 476.5,-76.5 397.5,-76.5"/>
<text text-anchor="middle" x="437" y="-83.5" font-family="Helvetica,sans-Serif" font-size="10.00">Station_kernel</text>
</a>
</g>
</g>
<!-- Node3&#45;&gt;Node34 -->
<g id="edge36" class="edge"><title>Node3&#45;&gt;Node34</title>
<path fill="none" stroke="midnightblue" d="M296.71,-476.722C299.656,-404.379 313.248,-160.329 364,-105 372.564,-95.6635 385.123,-90.6909 397.362,-88.1093"/>
<polygon fill="midnightblue" stroke="midnightblue" points="293.196,-477.02 296.313,-487.146 300.191,-477.287 293.196,-477.02"/>
</g>
<!-- Node35 -->
<g id="node35" class="node"><title>Node35</title>
<g id="a_node35"><a xlink:href="structTest__socket.html" target="_top" xlink:title="Test_socket">
<polygon fill="white" stroke="black" points="401.5,-38.5 401.5,-57.5 472.5,-57.5 472.5,-38.5 401.5,-38.5"/>
<text text-anchor="middle" x="437" y="-45.5" font-family="Helvetica,sans-Serif" font-size="10.00">Test_socket</text>
</a>
</g>
</g>
<!-- Node3&#45;&gt;Node35 -->
<g id="edge37" class="edge"><title>Node3&#45;&gt;Node35</title>
<path fill="none" stroke="midnightblue" d="M296.291,-477.029C297.872,-399.338 307.608,-120.407 364,-58 373.448,-47.5448 387.903,-42.5484 401.389,-40.9523"/>
<polygon fill="midnightblue" stroke="midnightblue" points="292.786,-477.285 296.107,-487.346 299.785,-477.41 292.786,-477.285"/>
</g>
<!-- Node3&#45;&gt;Node35 -->
<g id="edge38" class="edge"><title>Node3&#45;&gt;Node35</title>
<path fill="none" stroke="midnightblue" d="M296.442,-477.226C298.449,-402.009 309.174,-136.673 364,-76 373.448,-65.5448 387.903,-60.5484 401.389,-57.5629"/>
<polygon fill="midnightblue" stroke="midnightblue" points="292.943,-477.171 296.198,-487.254 299.941,-477.342 292.943,-477.171"/>
</g>
<!-- Node36 -->
<g id="node36" class="node"><title>Node36</title>
<g id="a_node36"><a xlink:href="structYear__kernel.html" target="_top" xlink:title="Year_kernel">
<polygon fill="white" stroke="black" points="403,-0.5 403,-19.5 471,-19.5 471,-0.5 403,-0.5"/>
<text text-anchor="middle" x="437" y="-7.5" font-family="Helvetica,sans-Serif" font-size="10.00">Year_kernel</text>
</a>
</g>
</g>
<!-- Node3&#45;&gt;Node36 -->
<g id="edge39" class="edge"><title>Node3&#45;&gt;Node36</title>
<path fill="none" stroke="midnightblue" d="M296.077,-477.081C296.799,-396.628 303.564,-96.7318 364,-29 373.726,-18.0999 388.894,-13.1206 402.805,-10.9589"/>
<polygon fill="midnightblue" stroke="midnightblue" points="292.576,-477.282 296.009,-487.305 299.576,-477.329 292.576,-477.282"/>
</g>
<!-- Node22 -->
<g id="node22" class="node"><title>Node22</title>
<g id="a_node22"><a xlink:href="classbsc_1_1master__discoverer.html" target="_top" xlink:title="bsc::master_discoverer">
<polygon fill="white" stroke="black" points="547.5,-468.5 547.5,-487.5 666.5,-487.5 666.5,-468.5 547.5,-468.5"/>
<text text-anchor="middle" x="607" y="-475.5" font-family="Helvetica,sans-Serif" font-size="10.00">bsc::master_discoverer</text>
</a>
</g>
</g>
<!-- Node21&#45;&gt;Node22 -->
<g id="edge21" class="edge"><title>Node21&#45;&gt;Node22</title>
<path fill="none" stroke="midnightblue" d="M499.415,-478C515.065,-478 531.845,-478 547.352,-478"/>
<polygon fill="midnightblue" stroke="midnightblue" points="499.318,-474.5 489.318,-478 499.318,-481.5 499.318,-474.5"/>
</g>
<!-- Node25 -->
<g id="node25" class="node"><title>Node25</title>
<g id="a_node25"><a xlink:href="structKernel__that__reads__more__than__writes.html" target="_top" xlink:title="Kernel_that_reads_more\l_than_writes">
<polygon fill="white" stroke="black" points="546,-403 546,-433 668,-433 668,-403 546,-403"/>
<text text-anchor="start" x="554" y="-421" font-family="Helvetica,sans-Serif" font-size="10.00">Kernel_that_reads_more</text>
<text text-anchor="middle" x="607" y="-410" font-family="Helvetica,sans-Serif" font-size="10.00">_than_writes</text>
</a>
</g>
</g>
<!-- Node24&#45;&gt;Node25 -->
<g id="edge24" class="edge"><title>Node24&#45;&gt;Node25</title>
<path fill="none" stroke="midnightblue" d="M482.839,-406.27C502.141,-408.109 524.997,-410.285 545.747,-412.262"/>
<polygon fill="midnightblue" stroke="midnightblue" points="483.097,-402.779 472.81,-405.315 482.433,-409.748 483.097,-402.779"/>
</g>
<!-- Node26 -->
<g id="node26" class="node"><title>Node26</title>
<g id="a_node26"><a xlink:href="structKernel__that__writes__more__than__reads.html" target="_top" xlink:title="Kernel_that_writes\l_more_than_reads">
<polygon fill="white" stroke="black" points="558,-354 558,-384 656,-384 656,-354 558,-354"/>
<text text-anchor="start" x="566" y="-372" font-family="Helvetica,sans-Serif" font-size="10.00">Kernel_that_writes</text>
<text text-anchor="middle" x="607" y="-361" font-family="Helvetica,sans-Serif" font-size="10.00">_more_than_reads</text>
</a>
</g>
</g>
<!-- Node24&#45;&gt;Node26 -->
<g id="edge25" class="edge"><title>Node24&#45;&gt;Node26</title>
<path fill="none" stroke="midnightblue" d="M482.726,-393.215C505.896,-388.663 534.211,-383.101 557.858,-378.456"/>
<polygon fill="midnightblue" stroke="midnightblue" points="481.948,-389.8 472.81,-395.162 483.297,-396.669 481.948,-389.8"/>
</g>
</g>
</svg>
