<?xml version="1.0" encoding="UTF-8" standalone="no"?>
<!DOCTYPE svg PUBLIC "-//W3C//DTD SVG 1.1//EN"
 "http://www.w3.org/Graphics/SVG/1.1/DTD/svg11.dtd">
<!-- Generated by graphviz version 2.36.0 (20140111.2315)
 -->
<!-- Title: asc::mobile_kernel Pages: 1 -->
<svg width="215pt" height="84pt"
 viewBox="0.00 0.00 215.00 84.00" xmlns="http://www.w3.org/2000/svg" xmlns:xlink="http://www.w3.org/1999/xlink">
<g id="graph0" class="graph" transform="scale(1 1) rotate(0) translate(4 80)">
<title>asc::mobile_kernel</title>
<polygon fill="white" stroke="none" points="-4,4 -4,-80 211,-80 211,4 -4,4"/>
<!-- Node1 -->
<g id="node1" class="node"><title>Node1</title>
<polygon fill="#bfbfbf" stroke="black" points="52,-0.5 52,-19.5 150,-19.5 150,-0.5 52,-0.5"/>
<text text-anchor="middle" x="101" y="-7.5" font-family="Helvetica,sans-Serif" font-size="10.00">asc::mobile_kernel</text>
</g>
<!-- Node2 -->
<g id="node2" class="node"><title>Node2</title>
<g id="a_node2"><a xlink:href="classasc_1_1kernel__base.html" target="_top" xlink:title="asc::kernel_base">
<polygon fill="white" stroke="black" points="-0.5,-56.5 -0.5,-75.5 90.5,-75.5 90.5,-56.5 -0.5,-56.5"/>
<text text-anchor="middle" x="45" y="-63.5" font-family="Helvetica,sans-Serif" font-size="10.00">asc::kernel_base</text>
</a>
</g>
</g>
<!-- Node2&#45;&gt;Node1 -->
<g id="edge1" class="edge"><title>Node2&#45;&gt;Node1</title>
<path fill="none" stroke="midnightblue" d="M61.3299,-49.2533C71.265,-39.6731 83.5875,-27.7906 91.8389,-19.8339"/>
<polygon fill="midnightblue" stroke="midnightblue" points="58.7664,-46.8631 53.9974,-56.324 63.6253,-51.902 58.7664,-46.8631"/>
</g>
<!-- Node3 -->
<g id="node3" class="node"><title>Node3</title>
<g id="a_node3"><a xlink:href="classasc_1_1kernel__header.html" target="_top" xlink:title="asc::kernel_header">
<polygon fill="white" stroke="black" points="108.5,-56.5 108.5,-75.5 207.5,-75.5 207.5,-56.5 108.5,-56.5"/>
<text text-anchor="middle" x="158" y="-63.5" font-family="Helvetica,sans-Serif" font-size="10.00">asc::kernel_header</text>
</a>
</g>
</g>
<!-- Node3&#45;&gt;Node1 -->
<g id="edge2" class="edge"><title>Node3&#45;&gt;Node1</title>
<path fill="none" stroke="midnightblue" d="M141.379,-49.2533C131.266,-39.6731 118.723,-27.7906 110.325,-19.8339"/>
<polygon fill="midnightblue" stroke="midnightblue" points="139.175,-51.9873 148.842,-56.324 143.99,-46.9056 139.175,-51.9873"/>
</g>
</g>
</svg>
