<?xml version="1.0" encoding="UTF-8" standalone="no"?>
<!DOCTYPE svg PUBLIC "-//W3C//DTD SVG 1.1//EN"
 "http://www.w3.org/Graphics/SVG/1.1/DTD/svg11.dtd">
<!-- Generated by graphviz version 2.36.0 (20140111.2315)
 -->
<!-- Title: bsc::socket_pipeline&lt; T, Socket, Router &gt; Pages: 1 -->
<svg width="391pt" height="224pt"
 viewBox="0.00 0.00 391.00 224.00" xmlns="http://www.w3.org/2000/svg" xmlns:xlink="http://www.w3.org/1999/xlink">
<g id="graph0" class="graph" transform="scale(1 1) rotate(0) translate(4 220)">
<title>bsc::socket_pipeline&lt; T, Socket, Router &gt;</title>
<polygon fill="white" stroke="none" points="-4,4 -4,-220 387,-220 387,4 -4,4"/>
<!-- Node1 -->
<g id="node1" class="node"><title>Node1</title>
<polygon fill="#bfbfbf" stroke="black" points="158.5,-1 158.5,-31 271.5,-31 271.5,-1 158.5,-1"/>
<text text-anchor="start" x="166.5" y="-19" font-family="Helvetica,sans-Serif" font-size="10.00">bsc::socket_pipeline</text>
<text text-anchor="middle" x="215" y="-8" font-family="Helvetica,sans-Serif" font-size="10.00">&lt; T, Socket, Router &gt;</text>
</g>
<!-- Node2 -->
<g id="node2" class="node"><title>Node2</title>
<g id="a_node2"><a xlink:href="classbsc_1_1basic__socket__pipeline.html" target="_top" xlink:title="bsc::basic_socket_pipeline\&lt; T \&gt;">
<polygon fill="white" stroke="black" points="136,-70.5 136,-89.5 294,-89.5 294,-70.5 136,-70.5"/>
<text text-anchor="middle" x="215" y="-77.5" font-family="Helvetica,sans-Serif" font-size="10.00">bsc::basic_socket_pipeline&lt; T &gt;</text>
</a>
</g>
</g>
<!-- Node2&#45;&gt;Node1 -->
<g id="edge1" class="edge"><title>Node2&#45;&gt;Node1</title>
<path fill="none" stroke="midnightblue" d="M215,-60.1826C215,-50.8859 215,-39.8507 215,-31.263"/>
<polygon fill="midnightblue" stroke="midnightblue" points="211.5,-60.3791 215,-70.3792 218.5,-60.3792 211.5,-60.3791"/>
</g>
<!-- Node3 -->
<g id="node3" class="node"><title>Node3</title>
<g id="a_node3"><a xlink:href="classbsc_1_1basic__pipeline.html" target="_top" xlink:title="Proxy_pipeline_base\&lt; T \&gt;">
<polygon fill="white" stroke="black" points="149.5,-128.5 149.5,-147.5 280.5,-147.5 280.5,-128.5 149.5,-128.5"/>
<text text-anchor="middle" x="215" y="-135.5" font-family="Helvetica,sans-Serif" font-size="10.00">Proxy_pipeline_base&lt; T &gt;</text>
</a>
</g>
</g>
<!-- Node3&#45;&gt;Node2 -->
<g id="edge2" class="edge"><title>Node3&#45;&gt;Node2</title>
<path fill="none" stroke="midnightblue" d="M215,-117.953C215,-108.287 215,-97.0312 215,-89.5052"/>
<polygon fill="midnightblue" stroke="midnightblue" points="211.5,-118.25 215,-128.25 218.5,-118.25 211.5,-118.25"/>
</g>
<!-- Node4 -->
<g id="node4" class="node"><title>Node4</title>
<g id="a_node4"><a xlink:href="classbsc_1_1pipeline__base.html" target="_top" xlink:title="bsc::pipeline_base">
<polygon fill="white" stroke="black" points="0,-196.5 0,-215.5 98,-215.5 98,-196.5 0,-196.5"/>
<text text-anchor="middle" x="49" y="-203.5" font-family="Helvetica,sans-Serif" font-size="10.00">bsc::pipeline_base</text>
</a>
</g>
</g>
<!-- Node4&#45;&gt;Node3 -->
<g id="edge3" class="edge"><title>Node4&#45;&gt;Node3</title>
<path fill="none" stroke="midnightblue" d="M80.3486,-192.536C113.462,-179.371 164.779,-158.967 193.556,-147.526"/>
<polygon fill="midnightblue" stroke="midnightblue" points="78.7009,-189.425 70.7016,-196.372 81.2872,-195.929 78.7009,-189.425"/>
</g>
<!-- Node5 -->
<g id="node5" class="node"><title>Node5</title>
<polygon fill="white" stroke="#bfbfbf" points="116,-196.5 116,-215.5 166,-215.5 166,-196.5 116,-196.5"/>
<text text-anchor="middle" x="141" y="-203.5" font-family="Helvetica,sans-Serif" font-size="10.00">Kernels</text>
</g>
<!-- Node5&#45;&gt;Node3 -->
<g id="edge4" class="edge"><title>Node5&#45;&gt;Node3</title>
<path fill="none" stroke="#9a32cd" stroke-dasharray="5,2" d="M152.174,-187.761C157.364,-180.531 163.946,-172.348 171,-166 178.995,-158.806 189.162,-152.424 197.709,-147.673"/>
<polygon fill="#9a32cd" stroke="#9a32cd" points="149.161,-185.967 146.412,-196.199 154.942,-189.914 149.161,-185.967"/>
<text text-anchor="middle" x="191" y="-169.5" font-family="Helvetica,sans-Serif" font-size="10.00"> _kernels</text>
</g>
<!-- Node6 -->
<g id="node6" class="node"><title>Node6</title>
<polygon fill="white" stroke="#bfbfbf" points="184,-196.5 184,-215.5 250,-215.5 250,-196.5 184,-196.5"/>
<text text-anchor="middle" x="217" y="-203.5" font-family="Helvetica,sans-Serif" font-size="10.00">Semaphore</text>
</g>
<!-- Node6&#45;&gt;Node3 -->
<g id="edge5" class="edge"><title>Node6&#45;&gt;Node3</title>
<path fill="none" stroke="#9a32cd" stroke-dasharray="5,2" d="M216.282,-186.373C216.182,-183.568 216.085,-180.708 216,-178 215.673,-167.575 215.378,-155.579 215.194,-147.675"/>
<polygon fill="#9a32cd" stroke="#9a32cd" points="212.789,-186.626 216.66,-196.489 219.784,-186.365 212.789,-186.626"/>
<text text-anchor="middle" x="244.5" y="-169.5" font-family="Helvetica,sans-Serif" font-size="10.00"> _semaphore</text>
</g>
<!-- Node7 -->
<g id="node7" class="node"><title>Node7</title>
<polygon fill="white" stroke="#bfbfbf" points="269,-196.5 269,-215.5 321,-215.5 321,-196.5 269,-196.5"/>
<text text-anchor="middle" x="295" y="-203.5" font-family="Helvetica,sans-Serif" font-size="10.00">Threads</text>
</g>
<!-- Node7&#45;&gt;Node3 -->
<g id="edge6" class="edge"><title>Node7&#45;&gt;Node3</title>
<path fill="none" stroke="#9a32cd" stroke-dasharray="5,2" d="M287.82,-187.08C284.222,-179.824 279.278,-171.807 273,-166 264.275,-157.93 252.712,-151.889 242.206,-147.591"/>
<polygon fill="#9a32cd" stroke="#9a32cd" points="284.627,-188.511 291.891,-196.223 291.021,-185.664 284.627,-188.511"/>
<text text-anchor="middle" x="302.5" y="-169.5" font-family="Helvetica,sans-Serif" font-size="10.00"> _threads</text>
</g>
<!-- Node8 -->
<g id="node8" class="node"><title>Node8</title>
<polygon fill="white" stroke="#bfbfbf" points="339,-196.5 339,-215.5 383,-215.5 383,-196.5 339,-196.5"/>
<text text-anchor="middle" x="361" y="-203.5" font-family="Helvetica,sans-Serif" font-size="10.00">Mutex</text>
</g>
<!-- Node8&#45;&gt;Node3 -->
<g id="edge7" class="edge"><title>Node8&#45;&gt;Node3</title>
<path fill="none" stroke="#9a32cd" stroke-dasharray="5,2" d="M350.086,-188.24C344.15,-180.383 336.152,-171.55 327,-166 312.805,-157.391 296.042,-151.526 279.867,-147.531"/>
<polygon fill="#9a32cd" stroke="#9a32cd" points="347.253,-190.296 355.863,-196.469 352.982,-186.274 347.253,-190.296"/>
<text text-anchor="middle" x="359" y="-169.5" font-family="Helvetica,sans-Serif" font-size="10.00"> _mutex</text>
</g>
</g>
</svg>
