<?xml version="1.0" encoding="UTF-8" standalone="no"?>
<!DOCTYPE svg PUBLIC "-//W3C//DTD SVG 1.1//EN"
 "http://www.w3.org/Graphics/SVG/1.1/DTD/svg11.dtd">
<!-- Generated by graphviz version 2.36.0 (20140111.2315)
 -->
<!-- Title: asc::master_discoverer Pages: 1 -->
<svg width="215pt" height="262pt"
 viewBox="0.00 0.00 215.00 262.00" xmlns="http://www.w3.org/2000/svg" xmlns:xlink="http://www.w3.org/1999/xlink">
<g id="graph0" class="graph" transform="scale(1 1) rotate(0) translate(4 258)">
<title>asc::master_discoverer</title>
<polygon fill="white" stroke="none" points="-4,4 -4,-258 211,-258 211,4 -4,4"/>
<!-- Node1 -->
<g id="node1" class="node"><title>Node1</title>
<polygon fill="#bfbfbf" stroke="black" points="41.5,-0.5 41.5,-19.5 160.5,-19.5 160.5,-0.5 41.5,-0.5"/>
<text text-anchor="middle" x="101" y="-7.5" font-family="Helvetica,sans-Serif" font-size="10.00">asc::master_discoverer</text>
</g>
<!-- Node2 -->
<g id="node2" class="node"><title>Node2</title>
<g id="a_node2"><a xlink:href="classasc_1_1resident__kernel.html" target="_top" xlink:title="asc::resident_kernel">
<polygon fill="white" stroke="black" points="49,-58.5 49,-77.5 153,-77.5 153,-58.5 49,-58.5"/>
<text text-anchor="middle" x="101" y="-65.5" font-family="Helvetica,sans-Serif" font-size="10.00">asc::resident_kernel</text>
</a>
</g>
</g>
<!-- Node2&#45;&gt;Node1 -->
<g id="edge1" class="edge"><title>Node2&#45;&gt;Node1</title>
<path fill="none" stroke="midnightblue" d="M101,-47.953C101,-38.2875 101,-27.0312 101,-19.5052"/>
<polygon fill="midnightblue" stroke="midnightblue" points="97.5001,-48.25 101,-58.25 104.5,-48.25 97.5001,-48.25"/>
</g>
<!-- Node3 -->
<g id="node3" class="node"><title>Node3</title>
<g id="a_node3"><a xlink:href="structasc_1_1Kernel.html" target="_top" xlink:title="asc::Kernel">
<polygon fill="white" stroke="black" points="68,-117.5 68,-136.5 134,-136.5 134,-117.5 68,-117.5"/>
<text text-anchor="middle" x="101" y="-124.5" font-family="Helvetica,sans-Serif" font-size="10.00">asc::Kernel</text>
</a>
</g>
</g>
<!-- Node3&#45;&gt;Node2 -->
<g id="edge2" class="edge"><title>Node3&#45;&gt;Node2</title>
<path fill="none" stroke="midnightblue" d="M101,-106.933C101,-97.0243 101,-85.4007 101,-77.6571"/>
<polygon fill="midnightblue" stroke="midnightblue" points="97.5001,-107.094 101,-117.094 104.5,-107.094 97.5001,-107.094"/>
</g>
<!-- Node3&#45;&gt;Node3 -->
<g id="edge6" class="edge"><title>Node3&#45;&gt;Node3</title>
<path fill="none" stroke="#9a32cd" stroke-dasharray="5,2" d="M144.647,-131.637C149.133,-130.724 152,-129.178 152,-127 152,-123.426 144.278,-121.555 134.354,-121.387"/>
<polygon fill="#9a32cd" stroke="#9a32cd" points="143.979,-128.184 134.354,-132.613 144.64,-135.153 143.979,-128.184"/>
<text text-anchor="middle" x="174.5" y="-130" font-family="Helvetica,sans-Serif" font-size="10.00"> _principal</text>
<text text-anchor="middle" x="174.5" y="-119" font-family="Helvetica,sans-Serif" font-size="10.00">_parent</text>
</g>
<!-- Node4 -->
<g id="node4" class="node"><title>Node4</title>
<g id="a_node4"><a xlink:href="classasc_1_1mobile__kernel.html" target="_top" xlink:title="asc::mobile_kernel">
<polygon fill="white" stroke="black" points="52,-176.5 52,-195.5 150,-195.5 150,-176.5 52,-176.5"/>
<text text-anchor="middle" x="101" y="-183.5" font-family="Helvetica,sans-Serif" font-size="10.00">asc::mobile_kernel</text>
</a>
</g>
</g>
<!-- Node4&#45;&gt;Node3 -->
<g id="edge3" class="edge"><title>Node4&#45;&gt;Node3</title>
<path fill="none" stroke="midnightblue" d="M101,-165.933C101,-156.024 101,-144.401 101,-136.657"/>
<polygon fill="midnightblue" stroke="midnightblue" points="97.5001,-166.094 101,-176.094 104.5,-166.094 97.5001,-166.094"/>
</g>
<!-- Node5 -->
<g id="node5" class="node"><title>Node5</title>
<g id="a_node5"><a xlink:href="classasc_1_1kernel__base.html" target="_top" xlink:title="asc::kernel_base">
<polygon fill="white" stroke="black" points="-0.5,-234.5 -0.5,-253.5 90.5,-253.5 90.5,-234.5 -0.5,-234.5"/>
<text text-anchor="middle" x="45" y="-241.5" font-family="Helvetica,sans-Serif" font-size="10.00">asc::kernel_base</text>
</a>
</g>
</g>
<!-- Node5&#45;&gt;Node4 -->
<g id="edge4" class="edge"><title>Node5&#45;&gt;Node4</title>
<path fill="none" stroke="midnightblue" d="M60.9584,-227.042C71.2214,-216.779 84.1508,-203.849 92.4948,-195.505"/>
<polygon fill="midnightblue" stroke="midnightblue" points="58.3462,-224.704 53.75,-234.25 63.296,-229.654 58.3462,-224.704"/>
</g>
<!-- Node6 -->
<g id="node6" class="node"><title>Node6</title>
<g id="a_node6"><a xlink:href="classasc_1_1kernel__header.html" target="_top" xlink:title="asc::kernel_header">
<polygon fill="white" stroke="black" points="108.5,-234.5 108.5,-253.5 207.5,-253.5 207.5,-234.5 108.5,-234.5"/>
<text text-anchor="middle" x="158" y="-241.5" font-family="Helvetica,sans-Serif" font-size="10.00">asc::kernel_header</text>
</a>
</g>
</g>
<!-- Node6&#45;&gt;Node4 -->
<g id="edge5" class="edge"><title>Node6&#45;&gt;Node4</title>
<path fill="none" stroke="midnightblue" d="M141.757,-227.042C131.31,-216.779 118.15,-203.849 109.657,-195.505"/>
<polygon fill="midnightblue" stroke="midnightblue" points="139.507,-229.738 149.094,-234.25 144.413,-224.745 139.507,-229.738"/>
</g>
</g>
</svg>
