<?xml version="1.0" encoding="UTF-8" standalone="no"?>
<!DOCTYPE svg PUBLIC "-//W3C//DTD SVG 1.1//EN"
 "http://www.w3.org/Graphics/SVG/1.1/DTD/svg11.dtd">
<!-- Generated by graphviz version 2.36.0 (20140111.2315)
 -->
<!-- Title: bsc::basic_socket_pipeline&lt; T &gt; Pages: 1 -->
<svg width="391pt" height="154pt"
 viewBox="0.00 0.00 391.00 154.00" xmlns="http://www.w3.org/2000/svg" xmlns:xlink="http://www.w3.org/1999/xlink">
<g id="graph0" class="graph" transform="scale(1 1) rotate(0) translate(4 150)">
<title>bsc::basic_socket_pipeline&lt; T &gt;</title>
<polygon fill="white" stroke="none" points="-4,4 -4,-150 387,-150 387,4 -4,4"/>
<!-- Node1 -->
<g id="node1" class="node"><title>Node1</title>
<polygon fill="#bfbfbf" stroke="black" points="136,-0.5 136,-19.5 294,-19.5 294,-0.5 136,-0.5"/>
<text text-anchor="middle" x="215" y="-7.5" font-family="Helvetica,sans-Serif" font-size="10.00">bsc::basic_socket_pipeline&lt; T &gt;</text>
</g>
<!-- Node2 -->
<g id="node2" class="node"><title>Node2</title>
<g id="a_node2"><a xlink:href="classbsc_1_1basic__pipeline.html" target="_top" xlink:title="Proxy_pipeline_base\&lt; T \&gt;">
<polygon fill="white" stroke="black" points="149.5,-58.5 149.5,-77.5 280.5,-77.5 280.5,-58.5 149.5,-58.5"/>
<text text-anchor="middle" x="215" y="-65.5" font-family="Helvetica,sans-Serif" font-size="10.00">Proxy_pipeline_base&lt; T &gt;</text>
</a>
</g>
</g>
<!-- Node2&#45;&gt;Node1 -->
<g id="edge1" class="edge"><title>Node2&#45;&gt;Node1</title>
<path fill="none" stroke="midnightblue" d="M215,-47.953C215,-38.2875 215,-27.0312 215,-19.5052"/>
<polygon fill="midnightblue" stroke="midnightblue" points="211.5,-48.25 215,-58.25 218.5,-48.25 211.5,-48.25"/>
</g>
<!-- Node3 -->
<g id="node3" class="node"><title>Node3</title>
<g id="a_node3"><a xlink:href="classbsc_1_1pipeline__base.html" target="_top" xlink:title="bsc::pipeline_base">
<polygon fill="white" stroke="black" points="0,-126.5 0,-145.5 98,-145.5 98,-126.5 0,-126.5"/>
<text text-anchor="middle" x="49" y="-133.5" font-family="Helvetica,sans-Serif" font-size="10.00">bsc::pipeline_base</text>
</a>
</g>
</g>
<!-- Node3&#45;&gt;Node2 -->
<g id="edge2" class="edge"><title>Node3&#45;&gt;Node2</title>
<path fill="none" stroke="midnightblue" d="M80.3486,-122.536C113.462,-109.371 164.779,-88.9673 193.556,-77.5259"/>
<polygon fill="midnightblue" stroke="midnightblue" points="78.7009,-119.425 70.7016,-126.372 81.2872,-125.929 78.7009,-119.425"/>
</g>
<!-- Node4 -->
<g id="node4" class="node"><title>Node4</title>
<polygon fill="white" stroke="#bfbfbf" points="116,-126.5 116,-145.5 166,-145.5 166,-126.5 116,-126.5"/>
<text text-anchor="middle" x="141" y="-133.5" font-family="Helvetica,sans-Serif" font-size="10.00">Kernels</text>
</g>
<!-- Node4&#45;&gt;Node2 -->
<g id="edge3" class="edge"><title>Node4&#45;&gt;Node2</title>
<path fill="none" stroke="#9a32cd" stroke-dasharray="5,2" d="M152.174,-117.761C157.364,-110.531 163.946,-102.348 171,-96 178.995,-88.8059 189.162,-82.4237 197.709,-77.6729"/>
<polygon fill="#9a32cd" stroke="#9a32cd" points="149.161,-115.967 146.412,-126.199 154.942,-119.914 149.161,-115.967"/>
<text text-anchor="middle" x="191" y="-99.5" font-family="Helvetica,sans-Serif" font-size="10.00"> _kernels</text>
</g>
<!-- Node5 -->
<g id="node5" class="node"><title>Node5</title>
<polygon fill="white" stroke="#bfbfbf" points="184,-126.5 184,-145.5 250,-145.5 250,-126.5 184,-126.5"/>
<text text-anchor="middle" x="217" y="-133.5" font-family="Helvetica,sans-Serif" font-size="10.00">Semaphore</text>
</g>
<!-- Node5&#45;&gt;Node2 -->
<g id="edge4" class="edge"><title>Node5&#45;&gt;Node2</title>
<path fill="none" stroke="#9a32cd" stroke-dasharray="5,2" d="M216.282,-116.373C216.182,-113.568 216.085,-110.708 216,-108 215.673,-97.5746 215.378,-85.579 215.194,-77.6751"/>
<polygon fill="#9a32cd" stroke="#9a32cd" points="212.789,-116.626 216.66,-126.489 219.784,-116.365 212.789,-116.626"/>
<text text-anchor="middle" x="244.5" y="-99.5" font-family="Helvetica,sans-Serif" font-size="10.00"> _semaphore</text>
</g>
<!-- Node6 -->
<g id="node6" class="node"><title>Node6</title>
<polygon fill="white" stroke="#bfbfbf" points="269,-126.5 269,-145.5 321,-145.5 321,-126.5 269,-126.5"/>
<text text-anchor="middle" x="295" y="-133.5" font-family="Helvetica,sans-Serif" font-size="10.00">Threads</text>
</g>
<!-- Node6&#45;&gt;Node2 -->
<g id="edge5" class="edge"><title>Node6&#45;&gt;Node2</title>
<path fill="none" stroke="#9a32cd" stroke-dasharray="5,2" d="M287.82,-117.08C284.222,-109.824 279.278,-101.807 273,-96 264.275,-87.9301 252.712,-81.8893 242.206,-77.5911"/>
<polygon fill="#9a32cd" stroke="#9a32cd" points="284.627,-118.511 291.891,-126.223 291.021,-115.664 284.627,-118.511"/>
<text text-anchor="middle" x="302.5" y="-99.5" font-family="Helvetica,sans-Serif" font-size="10.00"> _threads</text>
</g>
<!-- Node7 -->
<g id="node7" class="node"><title>Node7</title>
<polygon fill="white" stroke="#bfbfbf" points="339,-126.5 339,-145.5 383,-145.5 383,-126.5 339,-126.5"/>
<text text-anchor="middle" x="361" y="-133.5" font-family="Helvetica,sans-Serif" font-size="10.00">Mutex</text>
</g>
<!-- Node7&#45;&gt;Node2 -->
<g id="edge6" class="edge"><title>Node7&#45;&gt;Node2</title>
<path fill="none" stroke="#9a32cd" stroke-dasharray="5,2" d="M350.086,-118.24C344.15,-110.383 336.152,-101.55 327,-96 312.805,-87.3912 296.042,-81.5265 279.867,-77.5314"/>
<polygon fill="#9a32cd" stroke="#9a32cd" points="347.253,-120.296 355.863,-126.469 352.982,-116.274 347.253,-120.296"/>
<text text-anchor="middle" x="359" y="-99.5" font-family="Helvetica,sans-Serif" font-size="10.00"> _mutex</text>
</g>
</g>
</svg>
