<?xml version="1.0" encoding="UTF-8" standalone="no"?>
<!DOCTYPE svg PUBLIC "-//W3C//DTD SVG 1.1//EN"
 "http://www.w3.org/Graphics/SVG/1.1/DTD/svg11.dtd">
<!-- Generated by graphviz version 2.36.0 (20140111.2315)
 -->
<!-- Title: bsc::child_notify_handler&lt; K, R &gt; Pages: 1 -->
<svg width="132pt" height="152pt"
 viewBox="0.00 0.00 132.00 152.00" xmlns="http://www.w3.org/2000/svg" xmlns:xlink="http://www.w3.org/1999/xlink">
<g id="graph0" class="graph" transform="scale(1 1) rotate(0) translate(4 148)">
<title>bsc::child_notify_handler&lt; K, R &gt;</title>
<polygon fill="white" stroke="none" points="-4,4 -4,-148 128,-148 128,4 -4,4"/>
<!-- Node1 -->
<g id="node1" class="node"><title>Node1</title>
<polygon fill="#bfbfbf" stroke="black" points="-0.5,-1 -0.5,-31 124.5,-31 124.5,-1 -0.5,-1"/>
<text text-anchor="start" x="7.5" y="-19" font-family="Helvetica,sans-Serif" font-size="10.00">bsc::child_notify_handler</text>
<text text-anchor="middle" x="62" y="-8" font-family="Helvetica,sans-Serif" font-size="10.00">&lt; K, R &gt;</text>
</g>
<!-- Node2 -->
<g id="node2" class="node"><title>Node2</title>
<g id="a_node2"><a xlink:href="classbsc_1_1basic__handler.html" target="_top" xlink:title="bsc::basic_handler">
<polygon fill="white" stroke="black" points="13,-68.5 13,-87.5 111,-87.5 111,-68.5 13,-68.5"/>
<text text-anchor="middle" x="62" y="-75.5" font-family="Helvetica,sans-Serif" font-size="10.00">bsc::basic_handler</text>
</a>
</g>
</g>
<!-- Node2&#45;&gt;Node1 -->
<g id="edge1" class="edge"><title>Node2&#45;&gt;Node1</title>
<path fill="none" stroke="midnightblue" d="M62,-58.3707C62,-49.5849 62,-39.2721 62,-31.1408"/>
<polygon fill="midnightblue" stroke="midnightblue" points="58.5001,-58.4034 62,-68.4035 65.5001,-58.4035 58.5001,-58.4034"/>
</g>
<!-- Node3 -->
<g id="node3" class="node"><title>Node3</title>
<g id="a_node3"><a xlink:href="classbsc_1_1pipeline__base.html" target="_top" xlink:title="bsc::pipeline_base">
<polygon fill="white" stroke="black" points="13,-124.5 13,-143.5 111,-143.5 111,-124.5 13,-124.5"/>
<text text-anchor="middle" x="62" y="-131.5" font-family="Helvetica,sans-Serif" font-size="10.00">bsc::pipeline_base</text>
</a>
</g>
</g>
<!-- Node3&#45;&gt;Node2 -->
<g id="edge2" class="edge"><title>Node3&#45;&gt;Node2</title>
<path fill="none" stroke="midnightblue" d="M62,-113.805C62,-104.91 62,-94.7798 62,-87.7511"/>
<polygon fill="midnightblue" stroke="midnightblue" points="58.5001,-114.083 62,-124.083 65.5001,-114.083 58.5001,-114.083"/>
</g>
</g>
</svg>
