<?xml version="1.0" encoding="UTF-8" standalone="no"?>
<!DOCTYPE svg PUBLIC "-//W3C//DTD SVG 1.1//EN"
 "http://www.w3.org/Graphics/SVG/1.1/DTD/svg11.dtd">
<!-- Generated by graphviz version 2.36.0 (20140111.2315)
 -->
<!-- Title: factory::kenel_type_error Pages: 1 -->
<svg width="108pt" height="152pt"
 viewBox="0.00 0.00 108.00 152.00" xmlns="http://www.w3.org/2000/svg" xmlns:xlink="http://www.w3.org/1999/xlink">
<g id="graph0" class="graph" transform="scale(1 1) rotate(0) translate(4 148)">
<title>factory::kenel_type_error</title>
<polygon fill="white" stroke="none" points="-4,4 -4,-148 104,-148 104,4 -4,4"/>
<!-- Node1 -->
<g id="node1" class="node"><title>Node1</title>
<polygon fill="#bfbfbf" stroke="black" points="0,-1 0,-31 100,-31 100,-1 0,-1"/>
<text text-anchor="start" x="8" y="-19" font-family="Helvetica,sans-Serif" font-size="10.00">factory::kenel_type</text>
<text text-anchor="middle" x="50" y="-8" font-family="Helvetica,sans-Serif" font-size="10.00">_error</text>
</g>
<!-- Node2 -->
<g id="node2" class="node"><title>Node2</title>
<g id="a_node2"><a xlink:href="classfactory_1_1Error.html" target="_top" xlink:title="factory::Error">
<polygon fill="white" stroke="black" points="13,-68.5 13,-87.5 87,-87.5 87,-68.5 13,-68.5"/>
<text text-anchor="middle" x="50" y="-75.5" font-family="Helvetica,sans-Serif" font-size="10.00">factory::Error</text>
</a>
</g>
</g>
<!-- Node2&#45;&gt;Node1 -->
<g id="edge1" class="edge"><title>Node2&#45;&gt;Node1</title>
<path fill="none" stroke="midnightblue" d="M50,-58.3707C50,-49.5849 50,-39.2721 50,-31.1408"/>
<polygon fill="midnightblue" stroke="midnightblue" points="46.5001,-58.4034 50,-68.4035 53.5001,-58.4035 46.5001,-58.4034"/>
</g>
<!-- Node3 -->
<g id="node3" class="node"><title>Node3</title>
<polygon fill="white" stroke="#bfbfbf" points="3.5,-124.5 3.5,-143.5 96.5,-143.5 96.5,-124.5 3.5,-124.5"/>
<text text-anchor="middle" x="50" y="-131.5" font-family="Helvetica,sans-Serif" font-size="10.00">std::runtime_error</text>
</g>
<!-- Node3&#45;&gt;Node2 -->
<g id="edge2" class="edge"><title>Node3&#45;&gt;Node2</title>
<path fill="none" stroke="midnightblue" d="M50,-113.805C50,-104.91 50,-94.7798 50,-87.7511"/>
<polygon fill="midnightblue" stroke="midnightblue" points="46.5001,-114.083 50,-124.083 53.5001,-114.083 46.5001,-114.083"/>
</g>
</g>
</svg>
