<?xml version="1.0" encoding="UTF-8" standalone="no"?>
<!DOCTYPE svg PUBLIC "-//W3C//DTD SVG 1.1//EN"
 "http://www.w3.org/Graphics/SVG/1.1/DTD/svg11.dtd">
<!-- Generated by graphviz version 2.36.0 (20140111.2315)
 -->
<!-- Title: factory::unix_domain_socket_pipeline&lt; T, Router &gt; Pages: 1 -->
<svg width="405pt" height="278pt"
 viewBox="0.00 0.00 405.00 278.00" xmlns="http://www.w3.org/2000/svg" xmlns:xlink="http://www.w3.org/1999/xlink">
<g id="graph0" class="graph" transform="scale(1 1) rotate(0) translate(4 274)">
<title>factory::unix_domain_socket_pipeline&lt; T, Router &gt;</title>
<polygon fill="white" stroke="none" points="-4,4 -4,-274 401,-274 401,4 -4,4"/>
<!-- Node1 -->
<g id="node1" class="node"><title>Node1</title>
<polygon fill="#bfbfbf" stroke="black" points="175.5,-0.5 175.5,-41.5 282.5,-41.5 282.5,-0.5 175.5,-0.5"/>
<text text-anchor="start" x="183.5" y="-29.5" font-family="Helvetica,sans-Serif" font-size="10.00">factory::unix_domain</text>
<text text-anchor="start" x="183.5" y="-18.5" font-family="Helvetica,sans-Serif" font-size="10.00">_socket_pipeline&lt; T,</text>
<text text-anchor="middle" x="229" y="-7.5" font-family="Helvetica,sans-Serif" font-size="10.00"> Router &gt;</text>
</g>
<!-- Node2 -->
<g id="node2" class="node"><title>Node2</title>
<g id="a_node2"><a xlink:href="structfactory_1_1basic__socket__pipeline.html" target="_top" xlink:title="factory::basic_socket\l_pipeline\&lt; T, external\l_process_handler\&lt; T, Router \&gt; \&gt;">
<polygon fill="white" stroke="black" points="148.5,-80.5 148.5,-121.5 309.5,-121.5 309.5,-80.5 148.5,-80.5"/>
<text text-anchor="start" x="156.5" y="-109.5" font-family="Helvetica,sans-Serif" font-size="10.00">factory::basic_socket</text>
<text text-anchor="start" x="156.5" y="-98.5" font-family="Helvetica,sans-Serif" font-size="10.00">_pipeline&lt; T, external</text>
<text text-anchor="middle" x="229" y="-87.5" font-family="Helvetica,sans-Serif" font-size="10.00">_process_handler&lt; T, Router &gt; &gt;</text>
</a>
</g>
</g>
<!-- Node2&#45;&gt;Node1 -->
<g id="edge1" class="edge"><title>Node2&#45;&gt;Node1</title>
<path fill="none" stroke="midnightblue" d="M229,-70.0365C229,-60.5305 229,-50.2666 229,-41.6764"/>
<polygon fill="midnightblue" stroke="midnightblue" points="225.5,-70.3173 229,-80.3173 232.5,-70.3173 225.5,-70.3173"/>
</g>
<!-- Node3 -->
<g id="node3" class="node"><title>Node3</title>
<g id="a_node3"><a xlink:href="classfactory_1_1basic__pipeline.html" target="_top" xlink:title="Proxy_pipeline_base\l\&lt; T, external_process\l_handler\&lt; T, Router \&gt; &#160;\&gt;">
<polygon fill="white" stroke="black" points="168,-160.5 168,-201.5 290,-201.5 290,-160.5 168,-160.5"/>
<text text-anchor="start" x="176" y="-189.5" font-family="Helvetica,sans-Serif" font-size="10.00">Proxy_pipeline_base</text>
<text text-anchor="start" x="176" y="-178.5" font-family="Helvetica,sans-Serif" font-size="10.00">&lt; T, external_process</text>
<text text-anchor="middle" x="229" y="-167.5" font-family="Helvetica,sans-Serif" font-size="10.00">_handler&lt; T, Router &gt; &gt;</text>
</a>
</g>
</g>
<!-- Node3&#45;&gt;Node2 -->
<g id="edge2" class="edge"><title>Node3&#45;&gt;Node2</title>
<path fill="none" stroke="midnightblue" d="M229,-150.036C229,-140.531 229,-130.267 229,-121.676"/>
<polygon fill="midnightblue" stroke="midnightblue" points="225.5,-150.317 229,-160.317 232.5,-150.317 225.5,-150.317"/>
</g>
<!-- Node4 -->
<g id="node4" class="node"><title>Node4</title>
<g id="a_node4"><a xlink:href="classfactory_1_1pipeline__base.html" target="_top" xlink:title="factory::pipeline_base">
<polygon fill="white" stroke="black" points="0,-250.5 0,-269.5 112,-269.5 112,-250.5 0,-250.5"/>
<text text-anchor="middle" x="56" y="-257.5" font-family="Helvetica,sans-Serif" font-size="10.00">factory::pipeline_base</text>
</a>
</g>
</g>
<!-- Node4&#45;&gt;Node3 -->
<g id="edge3" class="edge"><title>Node4&#45;&gt;Node3</title>
<path fill="none" stroke="midnightblue" d="M84.5413,-246.297C111.837,-234.148 153.395,-215.651 184.941,-201.61"/>
<polygon fill="midnightblue" stroke="midnightblue" points="82.8878,-243.202 75.175,-250.465 85.7342,-249.597 82.8878,-243.202"/>
</g>
<!-- Node5 -->
<g id="node5" class="node"><title>Node5</title>
<polygon fill="white" stroke="#bfbfbf" points="130,-250.5 130,-269.5 180,-269.5 180,-250.5 130,-250.5"/>
<text text-anchor="middle" x="155" y="-257.5" font-family="Helvetica,sans-Serif" font-size="10.00">Kernels</text>
</g>
<!-- Node5&#45;&gt;Node3 -->
<g id="edge4" class="edge"><title>Node5&#45;&gt;Node3</title>
<path fill="none" stroke="#9a32cd" stroke-dasharray="5,2" d="M166.891,-242.018C172.137,-234.945 178.565,-226.81 185,-220 190.962,-213.691 197.883,-207.332 204.447,-201.669"/>
<polygon fill="#9a32cd" stroke="#9a32cd" points="163.979,-240.072 160.967,-250.23 169.656,-244.168 163.979,-240.072"/>
<text text-anchor="middle" x="205" y="-223.5" font-family="Helvetica,sans-Serif" font-size="10.00"> _kernels</text>
</g>
<!-- Node6 -->
<g id="node6" class="node"><title>Node6</title>
<polygon fill="white" stroke="#bfbfbf" points="198,-250.5 198,-269.5 264,-269.5 264,-250.5 198,-250.5"/>
<text text-anchor="middle" x="231" y="-257.5" font-family="Helvetica,sans-Serif" font-size="10.00">Semaphore</text>
</g>
<!-- Node6&#45;&gt;Node3 -->
<g id="edge5" class="edge"><title>Node6&#45;&gt;Node3</title>
<path fill="none" stroke="#9a32cd" stroke-dasharray="5,2" d="M230.269,-240.374C230.17,-237.568 230.077,-234.708 230,-232 229.718,-222.106 229.489,-211.109 229.321,-201.953"/>
<polygon fill="#9a32cd" stroke="#9a32cd" points="226.776,-240.627 230.648,-250.489 233.771,-240.365 226.776,-240.627"/>
<text text-anchor="middle" x="258.5" y="-223.5" font-family="Helvetica,sans-Serif" font-size="10.00"> _semaphore</text>
</g>
<!-- Node7 -->
<g id="node7" class="node"><title>Node7</title>
<polygon fill="white" stroke="#bfbfbf" points="283,-250.5 283,-269.5 335,-269.5 335,-250.5 283,-250.5"/>
<text text-anchor="middle" x="309" y="-257.5" font-family="Helvetica,sans-Serif" font-size="10.00">Threads</text>
</g>
<!-- Node7&#45;&gt;Node3 -->
<g id="edge6" class="edge"><title>Node7&#45;&gt;Node3</title>
<path fill="none" stroke="#9a32cd" stroke-dasharray="5,2" d="M301.144,-241.015C297.504,-233.956 292.71,-226.102 287,-220 280.584,-213.144 272.694,-206.938 264.823,-201.622"/>
<polygon fill="#9a32cd" stroke="#9a32cd" points="298.186,-242.947 305.624,-250.492 304.514,-239.955 298.186,-242.947"/>
<text text-anchor="middle" x="315.5" y="-223.5" font-family="Helvetica,sans-Serif" font-size="10.00"> _threads</text>
</g>
<!-- Node8 -->
<g id="node8" class="node"><title>Node8</title>
<polygon fill="white" stroke="#bfbfbf" points="353,-250.5 353,-269.5 397,-269.5 397,-250.5 353,-250.5"/>
<text text-anchor="middle" x="375" y="-257.5" font-family="Helvetica,sans-Serif" font-size="10.00">Mutex</text>
</g>
<!-- Node8&#45;&gt;Node3 -->
<g id="edge7" class="edge"><title>Node8&#45;&gt;Node3</title>
<path fill="none" stroke="#9a32cd" stroke-dasharray="5,2" d="M363.012,-242.077C356.872,-234.442 348.834,-225.846 340,-220 324.967,-210.052 307.063,-202.44 290.068,-196.739"/>
<polygon fill="#9a32cd" stroke="#9a32cd" points="360.46,-244.506 369.28,-250.377 366.046,-240.288 360.46,-244.506"/>
<text text-anchor="middle" x="371" y="-223.5" font-family="Helvetica,sans-Serif" font-size="10.00"> _mutex</text>
</g>
</g>
</svg>
