<?xml version="1.0" encoding="UTF-8" standalone="no"?>
<!DOCTYPE svg PUBLIC "-//W3C//DTD SVG 1.1//EN"
 "http://www.w3.org/Graphics/SVG/1.1/DTD/svg11.dtd">
<!-- Generated by graphviz version 2.36.0 (20140111.2315)
 -->
<!-- Title: bsc::network_master Pages: 1 -->
<svg width="215pt" height="204pt"
 viewBox="0.00 0.00 215.00 204.00" xmlns="http://www.w3.org/2000/svg" xmlns:xlink="http://www.w3.org/1999/xlink">
<g id="graph0" class="graph" transform="scale(1 1) rotate(0) translate(4 200)">
<title>bsc::network_master</title>
<polygon fill="white" stroke="none" points="-4,4 -4,-200 211,-200 211,4 -4,4"/>
<!-- Node1 -->
<g id="node1" class="node"><title>Node1</title>
<polygon fill="#bfbfbf" stroke="black" points="47,-0.5 47,-19.5 155,-19.5 155,-0.5 47,-0.5"/>
<text text-anchor="middle" x="101" y="-7.5" font-family="Helvetica,sans-Serif" font-size="10.00">bsc::network_master</text>
</g>
<!-- Node2 -->
<g id="node2" class="node"><title>Node2</title>
<g id="a_node2"><a xlink:href="structbsc_1_1kernel.html" target="_top" xlink:title="bsc::kernel">
<polygon fill="white" stroke="black" points="68.5,-59.5 68.5,-78.5 133.5,-78.5 133.5,-59.5 68.5,-59.5"/>
<text text-anchor="middle" x="101" y="-66.5" font-family="Helvetica,sans-Serif" font-size="10.00">bsc::kernel</text>
</a>
</g>
</g>
<!-- Node2&#45;&gt;Node1 -->
<g id="edge1" class="edge"><title>Node2&#45;&gt;Node1</title>
<path fill="none" stroke="midnightblue" d="M101,-48.9331C101,-39.0243 101,-27.4007 101,-19.6571"/>
<polygon fill="midnightblue" stroke="midnightblue" points="97.5001,-49.0937 101,-59.0938 104.5,-49.0938 97.5001,-49.0937"/>
</g>
<!-- Node2&#45;&gt;Node2 -->
<g id="edge5" class="edge"><title>Node2&#45;&gt;Node2</title>
<path fill="none" stroke="#9a32cd" stroke-dasharray="5,2" d="M143.791,-73.6366C148.189,-72.7236 151,-71.178 151,-69 151,-65.4258 143.43,-63.5549 133.7,-63.3874"/>
<polygon fill="#9a32cd" stroke="#9a32cd" points="143.317,-70.166 133.7,-74.6126 143.991,-77.1335 143.317,-70.166"/>
<text text-anchor="middle" x="173.5" y="-72" font-family="Helvetica,sans-Serif" font-size="10.00"> _principal</text>
<text text-anchor="middle" x="173.5" y="-61" font-family="Helvetica,sans-Serif" font-size="10.00">_parent</text>
</g>
<!-- Node3 -->
<g id="node3" class="node"><title>Node3</title>
<g id="a_node3"><a xlink:href="classbsc_1_1mobile__kernel.html" target="_top" xlink:title="bsc::mobile_kernel">
<polygon fill="white" stroke="black" points="52,-118.5 52,-137.5 150,-137.5 150,-118.5 52,-118.5"/>
<text text-anchor="middle" x="101" y="-125.5" font-family="Helvetica,sans-Serif" font-size="10.00">bsc::mobile_kernel</text>
</a>
</g>
</g>
<!-- Node3&#45;&gt;Node2 -->
<g id="edge2" class="edge"><title>Node3&#45;&gt;Node2</title>
<path fill="none" stroke="midnightblue" d="M101,-107.933C101,-98.0243 101,-86.4007 101,-78.6571"/>
<polygon fill="midnightblue" stroke="midnightblue" points="97.5001,-108.094 101,-118.094 104.5,-108.094 97.5001,-108.094"/>
</g>
<!-- Node4 -->
<g id="node4" class="node"><title>Node4</title>
<g id="a_node4"><a xlink:href="classbsc_1_1kernel__base.html" target="_top" xlink:title="bsc::kernel_base">
<polygon fill="white" stroke="black" points="-0.5,-176.5 -0.5,-195.5 90.5,-195.5 90.5,-176.5 -0.5,-176.5"/>
<text text-anchor="middle" x="45" y="-183.5" font-family="Helvetica,sans-Serif" font-size="10.00">bsc::kernel_base</text>
</a>
</g>
</g>
<!-- Node4&#45;&gt;Node3 -->
<g id="edge3" class="edge"><title>Node4&#45;&gt;Node3</title>
<path fill="none" stroke="midnightblue" d="M60.9584,-169.042C71.2214,-158.779 84.1508,-145.849 92.4948,-137.505"/>
<polygon fill="midnightblue" stroke="midnightblue" points="58.3462,-166.704 53.75,-176.25 63.296,-171.654 58.3462,-166.704"/>
</g>
<!-- Node5 -->
<g id="node5" class="node"><title>Node5</title>
<g id="a_node5"><a xlink:href="classbsc_1_1kernel__header.html" target="_top" xlink:title="bsc::kernel_header">
<polygon fill="white" stroke="black" points="108.5,-176.5 108.5,-195.5 207.5,-195.5 207.5,-176.5 108.5,-176.5"/>
<text text-anchor="middle" x="158" y="-183.5" font-family="Helvetica,sans-Serif" font-size="10.00">bsc::kernel_header</text>
</a>
</g>
</g>
<!-- Node5&#45;&gt;Node3 -->
<g id="edge4" class="edge"><title>Node5&#45;&gt;Node3</title>
<path fill="none" stroke="midnightblue" d="M141.757,-169.042C131.31,-158.779 118.15,-145.849 109.657,-137.505"/>
<polygon fill="midnightblue" stroke="midnightblue" points="139.507,-171.738 149.094,-176.25 144.413,-166.745 139.507,-171.738"/>
</g>
</g>
</svg>
