<?xml version="1.0" encoding="UTF-8" standalone="no"?>
<!DOCTYPE svg PUBLIC "-//W3C//DTD SVG 1.1//EN"
 "http://www.w3.org/Graphics/SVG/1.1/DTD/svg11.dtd">
<!-- Generated by graphviz version 2.38.0 (20140413.2041)
 -->
<!-- Title: sys::basic_fildesbuf&lt; Ch, Tr, Fd &gt; Pages: 1 -->
<svg width="121pt" height="240pt"
 viewBox="0.00 0.00 121.00 240.00" xmlns="http://www.w3.org/2000/svg" xmlns:xlink="http://www.w3.org/1999/xlink">
<g id="graph0" class="graph" transform="scale(1 1) rotate(0) translate(4 236)">
<title>sys::basic_fildesbuf&lt; Ch, Tr, Fd &gt;</title>
<polygon fill="white" stroke="none" points="-4,4 -4,-236 117,-236 117,4 -4,4"/>
<!-- Node1 -->
<g id="node1" class="node"><title>Node1</title>
<polygon fill="#bfbfbf" stroke="black" points="4.5,-67.5 4.5,-97.5 108.5,-97.5 108.5,-67.5 4.5,-67.5"/>
<text text-anchor="start" x="12.5" y="-85.5" font-family="Helvetica,sans-Serif" font-size="10.00">sys::basic_fildesbuf</text>
<text text-anchor="middle" x="56.5" y="-74.5" font-family="Helvetica,sans-Serif" font-size="10.00">&lt; Ch, Tr, Fd &gt;</text>
</g>
<!-- Node4 -->
<g id="node4" class="node"><title>Node4</title>
<g id="a_node4"><a xlink:href="structfactory_1_1basic__kernelbuf.html" target="_top" xlink:title="basic_kernelbuf\&lt; sys\l::fildesbuf \&gt;">
<polygon fill="white" stroke="black" points="1.5,-0.5 1.5,-30.5 111.5,-30.5 111.5,-0.5 1.5,-0.5"/>
<text text-anchor="start" x="9.5" y="-18.5" font-family="Helvetica,sans-Serif" font-size="10.00">basic_kernelbuf&lt; sys</text>
<text text-anchor="middle" x="56.5" y="-7.5" font-family="Helvetica,sans-Serif" font-size="10.00">::fildesbuf &gt;</text>
</a>
</g>
</g>
<!-- Node1&#45;&gt;Node4 -->
<g id="edge3" class="edge"><title>Node1&#45;&gt;Node4</title>
<path fill="none" stroke="midnightblue" d="M56.5,-57.1081C56.5,-48.1539 56.5,-38.3227 56.5,-30.5765"/>
<polygon fill="midnightblue" stroke="midnightblue" points="53.0001,-57.3959 56.5,-67.396 60.0001,-57.396 53.0001,-57.3959"/>
</g>
<!-- Node2 -->
<g id="node2" class="node"><title>Node2</title>
<g id="a_node2"><a xlink:href="structstdx_1_1basic__packetbuf.html" target="_top" xlink:title="stdx::basic_packetbuf\l\&lt; Ch, Tr \&gt;">
<polygon fill="white" stroke="black" points="0,-134.5 0,-164.5 113,-164.5 113,-134.5 0,-134.5"/>
<text text-anchor="start" x="8" y="-152.5" font-family="Helvetica,sans-Serif" font-size="10.00">stdx::basic_packetbuf</text>
<text text-anchor="middle" x="56.5" y="-141.5" font-family="Helvetica,sans-Serif" font-size="10.00">&lt; Ch, Tr &gt;</text>
</a>
</g>
</g>
<!-- Node2&#45;&gt;Node1 -->
<g id="edge1" class="edge"><title>Node2&#45;&gt;Node1</title>
<path fill="none" stroke="midnightblue" d="M56.5,-124.108C56.5,-115.154 56.5,-105.323 56.5,-97.5765"/>
<polygon fill="midnightblue" stroke="midnightblue" points="53.0001,-124.396 56.5,-134.396 60.0001,-124.396 53.0001,-124.396"/>
</g>
<!-- Node3 -->
<g id="node3" class="node"><title>Node3</title>
<polygon fill="white" stroke="#bfbfbf" points="2.5,-201.5 2.5,-231.5 110.5,-231.5 110.5,-201.5 2.5,-201.5"/>
<text text-anchor="start" x="10.5" y="-219.5" font-family="Helvetica,sans-Serif" font-size="10.00">std::basic_streambuf</text>
<text text-anchor="middle" x="56.5" y="-208.5" font-family="Helvetica,sans-Serif" font-size="10.00">&lt; Ch, Tr &gt;</text>
</g>
<!-- Node3&#45;&gt;Node2 -->
<g id="edge2" class="edge"><title>Node3&#45;&gt;Node2</title>
<path fill="none" stroke="midnightblue" d="M56.5,-191.108C56.5,-182.154 56.5,-172.323 56.5,-164.577"/>
<polygon fill="midnightblue" stroke="midnightblue" points="53.0001,-191.396 56.5,-201.396 60.0001,-191.396 53.0001,-191.396"/>
</g>
</g>
</svg>
