<?xml version="1.0" encoding="UTF-8" standalone="no"?>
<!DOCTYPE svg PUBLIC "-//W3C//DTD SVG 1.1//EN"
 "http://www.w3.org/Graphics/SVG/1.1/DTD/svg11.dtd">
<!-- Generated by graphviz version 2.36.0 (20140111.2315)
 -->
<!-- Title: bsc::socket_pipeline&lt; T, Socket, Router &gt; Pages: 1 -->
<svg width="391pt" height="268pt"
 viewBox="0.00 0.00 391.00 268.00" xmlns="http://www.w3.org/2000/svg" xmlns:xlink="http://www.w3.org/1999/xlink">
<g id="graph0" class="graph" transform="scale(1 1) rotate(0) translate(4 264)">
<title>bsc::socket_pipeline&lt; T, Socket, Router &gt;</title>
<polygon fill="white" stroke="none" points="-4,4 -4,-264 387,-264 387,4 -4,4"/>
<!-- Node1 -->
<g id="node1" class="node"><title>Node1</title>
<polygon fill="#bfbfbf" stroke="black" points="158.5,-1 158.5,-31 271.5,-31 271.5,-1 158.5,-1"/>
<text text-anchor="start" x="166.5" y="-19" font-family="Helvetica,sans-Serif" font-size="10.00">bsc::socket_pipeline</text>
<text text-anchor="middle" x="215" y="-8" font-family="Helvetica,sans-Serif" font-size="10.00">&lt; T, Socket, Router &gt;</text>
</g>
<!-- Node2 -->
<g id="node2" class="node"><title>Node2</title>
<g id="a_node2"><a xlink:href="structbsc_1_1basic__socket__pipeline.html" target="_top" xlink:title="bsc::basic_socket_pipeline\l\&lt; T, remote_client\&lt; T, Socket,\l Router \&gt; \&gt;">
<polygon fill="white" stroke="black" points="139.5,-70.5 139.5,-111.5 290.5,-111.5 290.5,-70.5 139.5,-70.5"/>
<text text-anchor="start" x="147.5" y="-99.5" font-family="Helvetica,sans-Serif" font-size="10.00">bsc::basic_socket_pipeline</text>
<text text-anchor="start" x="147.5" y="-88.5" font-family="Helvetica,sans-Serif" font-size="10.00">&lt; T, remote_client&lt; T, Socket,</text>
<text text-anchor="middle" x="215" y="-77.5" font-family="Helvetica,sans-Serif" font-size="10.00"> Router &gt; &gt;</text>
</a>
</g>
</g>
<!-- Node2&#45;&gt;Node1 -->
<g id="edge1" class="edge"><title>Node2&#45;&gt;Node1</title>
<path fill="none" stroke="midnightblue" d="M215,-60.3718C215,-50.335 215,-39.579 215,-31.2892"/>
<polygon fill="midnightblue" stroke="midnightblue" points="211.5,-60.4373 215,-70.4373 218.5,-60.4374 211.5,-60.4373"/>
</g>
<!-- Node3 -->
<g id="node3" class="node"><title>Node3</title>
<g id="a_node3"><a xlink:href="classbsc_1_1basic__pipeline.html" target="_top" xlink:title="Proxy_pipeline_base\l\&lt; T, remote_client\&lt;\l T, Socket, Router \&gt; &#160;\&gt;">
<polygon fill="white" stroke="black" points="157,-150.5 157,-191.5 273,-191.5 273,-150.5 157,-150.5"/>
<text text-anchor="start" x="165" y="-179.5" font-family="Helvetica,sans-Serif" font-size="10.00">Proxy_pipeline_base</text>
<text text-anchor="start" x="165" y="-168.5" font-family="Helvetica,sans-Serif" font-size="10.00">&lt; T, remote_client&lt;</text>
<text text-anchor="middle" x="215" y="-157.5" font-family="Helvetica,sans-Serif" font-size="10.00"> T, Socket, Router &gt; &gt;</text>
</a>
</g>
</g>
<!-- Node3&#45;&gt;Node2 -->
<g id="edge2" class="edge"><title>Node3&#45;&gt;Node2</title>
<path fill="none" stroke="midnightblue" d="M215,-140.036C215,-130.531 215,-120.267 215,-111.676"/>
<polygon fill="midnightblue" stroke="midnightblue" points="211.5,-140.317 215,-150.317 218.5,-140.317 211.5,-140.317"/>
</g>
<!-- Node4 -->
<g id="node4" class="node"><title>Node4</title>
<g id="a_node4"><a xlink:href="classbsc_1_1pipeline__base.html" target="_top" xlink:title="bsc::pipeline_base">
<polygon fill="white" stroke="black" points="0,-240.5 0,-259.5 98,-259.5 98,-240.5 0,-240.5"/>
<text text-anchor="middle" x="49" y="-247.5" font-family="Helvetica,sans-Serif" font-size="10.00">bsc::pipeline_base</text>
</a>
</g>
</g>
<!-- Node4&#45;&gt;Node3 -->
<g id="edge3" class="edge"><title>Node4&#45;&gt;Node3</title>
<path fill="none" stroke="midnightblue" d="M76.7318,-236.136C102.928,-223.985 142.587,-205.589 172.724,-191.61"/>
<polygon fill="midnightblue" stroke="midnightblue" points="74.998,-233.082 67.3992,-240.465 77.9435,-239.433 74.998,-233.082"/>
</g>
<!-- Node5 -->
<g id="node5" class="node"><title>Node5</title>
<polygon fill="white" stroke="#bfbfbf" points="116,-240.5 116,-259.5 166,-259.5 166,-240.5 116,-240.5"/>
<text text-anchor="middle" x="141" y="-247.5" font-family="Helvetica,sans-Serif" font-size="10.00">Kernels</text>
</g>
<!-- Node5&#45;&gt;Node3 -->
<g id="edge4" class="edge"><title>Node5&#45;&gt;Node3</title>
<path fill="none" stroke="#9a32cd" stroke-dasharray="5,2" d="M152.891,-232.018C158.137,-224.945 164.565,-216.81 171,-210 176.962,-203.691 183.883,-197.332 190.447,-191.669"/>
<polygon fill="#9a32cd" stroke="#9a32cd" points="149.979,-230.072 146.967,-240.23 155.656,-234.168 149.979,-230.072"/>
<text text-anchor="middle" x="191" y="-213.5" font-family="Helvetica,sans-Serif" font-size="10.00"> _kernels</text>
</g>
<!-- Node6 -->
<g id="node6" class="node"><title>Node6</title>
<polygon fill="white" stroke="#bfbfbf" points="184,-240.5 184,-259.5 250,-259.5 250,-240.5 184,-240.5"/>
<text text-anchor="middle" x="217" y="-247.5" font-family="Helvetica,sans-Serif" font-size="10.00">Semaphore</text>
</g>
<!-- Node6&#45;&gt;Node3 -->
<g id="edge5" class="edge"><title>Node6&#45;&gt;Node3</title>
<path fill="none" stroke="#9a32cd" stroke-dasharray="5,2" d="M216.269,-230.374C216.17,-227.568 216.077,-224.708 216,-222 215.718,-212.106 215.489,-201.109 215.321,-191.953"/>
<polygon fill="#9a32cd" stroke="#9a32cd" points="212.776,-230.627 216.648,-240.489 219.771,-230.365 212.776,-230.627"/>
<text text-anchor="middle" x="244.5" y="-213.5" font-family="Helvetica,sans-Serif" font-size="10.00"> _semaphore</text>
</g>
<!-- Node7 -->
<g id="node7" class="node"><title>Node7</title>
<polygon fill="white" stroke="#bfbfbf" points="269,-240.5 269,-259.5 321,-259.5 321,-240.5 269,-240.5"/>
<text text-anchor="middle" x="295" y="-247.5" font-family="Helvetica,sans-Serif" font-size="10.00">Threads</text>
</g>
<!-- Node7&#45;&gt;Node3 -->
<g id="edge6" class="edge"><title>Node7&#45;&gt;Node3</title>
<path fill="none" stroke="#9a32cd" stroke-dasharray="5,2" d="M287.144,-231.015C283.504,-223.956 278.71,-216.102 273,-210 266.584,-203.144 258.694,-196.938 250.823,-191.622"/>
<polygon fill="#9a32cd" stroke="#9a32cd" points="284.186,-232.947 291.624,-240.492 290.514,-229.955 284.186,-232.947"/>
<text text-anchor="middle" x="301.5" y="-213.5" font-family="Helvetica,sans-Serif" font-size="10.00"> _threads</text>
</g>
<!-- Node8 -->
<g id="node8" class="node"><title>Node8</title>
<polygon fill="white" stroke="#bfbfbf" points="339,-240.5 339,-259.5 383,-259.5 383,-240.5 339,-240.5"/>
<text text-anchor="middle" x="361" y="-247.5" font-family="Helvetica,sans-Serif" font-size="10.00">Mutex</text>
</g>
<!-- Node8&#45;&gt;Node3 -->
<g id="edge7" class="edge"><title>Node8&#45;&gt;Node3</title>
<path fill="none" stroke="#9a32cd" stroke-dasharray="5,2" d="M349.012,-232.077C342.872,-224.442 334.834,-215.846 326,-210 310.118,-199.49 291.03,-191.588 273.197,-185.791"/>
<polygon fill="#9a32cd" stroke="#9a32cd" points="346.46,-234.506 355.28,-240.377 352.046,-230.288 346.46,-234.506"/>
<text text-anchor="middle" x="357" y="-213.5" font-family="Helvetica,sans-Serif" font-size="10.00"> _mutex</text>
</g>
</g>
</svg>
