<?xml version="1.0" encoding="UTF-8" standalone="no"?>
<!DOCTYPE svg PUBLIC "-//W3C//DTD SVG 1.1//EN"
 "http://www.w3.org/Graphics/SVG/1.1/DTD/svg11.dtd">
<!-- Generated by graphviz version 2.36.0 (20140111.2315)
 -->
<!-- Title: factory::pipeline_base Pages: 1 -->
<svg width="642pt" height="437pt"
 viewBox="0.00 0.00 642.00 437.00" xmlns="http://www.w3.org/2000/svg" xmlns:xlink="http://www.w3.org/1999/xlink">
<g id="graph0" class="graph" transform="scale(1 1) rotate(0) translate(4 433)">
<title>factory::pipeline_base</title>
<polygon fill="white" stroke="none" points="-4,4 -4,-433 638,-433 638,4 -4,4"/>
<!-- Node1 -->
<g id="node1" class="node"><title>Node1</title>
<polygon fill="#bfbfbf" stroke="black" points="0,-136.5 0,-155.5 112,-155.5 112,-136.5 0,-136.5"/>
<text text-anchor="middle" x="56" y="-143.5" font-family="Helvetica,sans-Serif" font-size="10.00">factory::pipeline_base</text>
</g>
<!-- Node2 -->
<g id="node2" class="node"><title>Node2</title>
<g id="a_node2"><a xlink:href="classfactory_1_1basic__pipeline.html" target="_top" xlink:title="factory::basic_pipeline\&lt; T \&gt;">
<polygon fill="white" stroke="black" points="148,-352.5 148,-371.5 286,-371.5 286,-352.5 148,-352.5"/>
<text text-anchor="middle" x="217" y="-359.5" font-family="Helvetica,sans-Serif" font-size="10.00">factory::basic_pipeline&lt; T &gt;</text>
</a>
</g>
</g>
<!-- Node1&#45;&gt;Node2 -->
<g id="edge1" class="edge"><title>Node1&#45;&gt;Node2</title>
<path fill="none" stroke="midnightblue" d="M67.9999,-164.605C84.3512,-191.823 116.533,-243.738 148,-285 167.467,-310.526 193.177,-338.224 206.726,-352.42"/>
<polygon fill="midnightblue" stroke="midnightblue" points="70.8523,-162.555 62.7227,-155.761 64.841,-166.142 70.8523,-162.555"/>
</g>
<!-- Node5 -->
<g id="node5" class="node"><title>Node5</title>
<g id="a_node5"><a xlink:href="classfactory_1_1basic__pipeline.html" target="_top" xlink:title="factory::basic_pipeline\l\&lt; T, Kernels, Traits,\l Threads, Mutex, Lock,\l Semaphore \&gt;">
<polygon fill="white" stroke="black" points="158,-224 158,-276 276,-276 276,-224 158,-224"/>
<text text-anchor="start" x="166" y="-264" font-family="Helvetica,sans-Serif" font-size="10.00">factory::basic_pipeline</text>
<text text-anchor="start" x="166" y="-253" font-family="Helvetica,sans-Serif" font-size="10.00">&lt; T, Kernels, Traits,</text>
<text text-anchor="start" x="166" y="-242" font-family="Helvetica,sans-Serif" font-size="10.00"> Threads, Mutex, Lock,</text>
<text text-anchor="middle" x="217" y="-231" font-family="Helvetica,sans-Serif" font-size="10.00"> Semaphore &gt;</text>
</a>
</g>
</g>
<!-- Node1&#45;&gt;Node5 -->
<g id="edge4" class="edge"><title>Node1&#45;&gt;Node5</title>
<path fill="none" stroke="midnightblue" d="M76.6655,-162.095C94.6807,-176.495 122.366,-197.774 148,-214 153.305,-217.358 158.954,-220.696 164.642,-223.909"/>
<polygon fill="midnightblue" stroke="midnightblue" points="78.631,-159.184 68.6498,-155.63 74.2367,-164.632 78.631,-159.184"/>
</g>
<!-- Node17 -->
<g id="node17" class="node"><title>Node17</title>
<g id="a_node17"><a xlink:href="classfactory_1_1external__process__handler.html" target="_top" xlink:title="factory::external_process\l_handler\&lt; T, Router \&gt;">
<polygon fill="white" stroke="black" points="153.5,-175 153.5,-205 280.5,-205 280.5,-175 153.5,-175"/>
<text text-anchor="start" x="161.5" y="-193" font-family="Helvetica,sans-Serif" font-size="10.00">factory::external_process</text>
<text text-anchor="middle" x="217" y="-182" font-family="Helvetica,sans-Serif" font-size="10.00">_handler&lt; T, Router &gt;</text>
</a>
</g>
</g>
<!-- Node1&#45;&gt;Node17 -->
<g id="edge16" class="edge"><title>Node1&#45;&gt;Node17</title>
<path fill="none" stroke="midnightblue" d="M101.232,-158.24C119.926,-163.413 141.883,-169.49 161.559,-174.935"/>
<polygon fill="midnightblue" stroke="midnightblue" points="102.072,-154.841 91.5006,-155.547 100.205,-161.588 102.072,-154.841"/>
</g>
<!-- Node18 -->
<g id="node18" class="node"><title>Node18</title>
<g id="a_node18"><a xlink:href="classfactory_1_1Factory.html" target="_top" xlink:title="factory::Factory\&lt; T \&gt;">
<polygon fill="white" stroke="black" points="162,-136.5 162,-155.5 272,-155.5 272,-136.5 162,-136.5"/>
<text text-anchor="middle" x="217" y="-143.5" font-family="Helvetica,sans-Serif" font-size="10.00">factory::Factory&lt; T &gt;</text>
</a>
</g>
</g>
<!-- Node1&#45;&gt;Node18 -->
<g id="edge17" class="edge"><title>Node1&#45;&gt;Node18</title>
<path fill="none" stroke="midnightblue" d="M122.492,-146C135.543,-146 149.115,-146 161.739,-146"/>
<polygon fill="midnightblue" stroke="midnightblue" points="122.164,-142.5 112.164,-146 122.164,-149.5 122.164,-142.5"/>
</g>
<!-- Node19 -->
<g id="node19" class="node"><title>Node19</title>
<g id="a_node19"><a xlink:href="classfactory_1_1Multi__pipeline.html" target="_top" xlink:title="factory::Multi_pipeline\&lt; T \&gt;">
<polygon fill="white" stroke="black" points="149,-98.5 149,-117.5 285,-117.5 285,-98.5 149,-98.5"/>
<text text-anchor="middle" x="217" y="-105.5" font-family="Helvetica,sans-Serif" font-size="10.00">factory::Multi_pipeline&lt; T &gt;</text>
</a>
</g>
</g>
<!-- Node1&#45;&gt;Node19 -->
<g id="edge18" class="edge"><title>Node1&#45;&gt;Node19</title>
<path fill="none" stroke="midnightblue" d="M107.077,-134.032C129.358,-128.707 155.229,-122.524 176.166,-117.52"/>
<polygon fill="midnightblue" stroke="midnightblue" points="106.035,-130.682 97.1224,-136.411 107.662,-137.491 106.035,-130.682"/>
</g>
<!-- Node20 -->
<g id="node20" class="node"><title>Node20</title>
<g id="a_node20"><a xlink:href="classfactory_1_1process__handler.html" target="_top" xlink:title="factory::process_handler\l\&lt; T, Router \&gt;">
<polygon fill="white" stroke="black" points="155,-49 155,-79 279,-79 279,-49 155,-49"/>
<text text-anchor="start" x="163" y="-67" font-family="Helvetica,sans-Serif" font-size="10.00">factory::process_handler</text>
<text text-anchor="middle" x="217" y="-56" font-family="Helvetica,sans-Serif" font-size="10.00">&lt; T, Router &gt;</text>
</a>
</g>
</g>
<!-- Node1&#45;&gt;Node20 -->
<g id="edge19" class="edge"><title>Node1&#45;&gt;Node20</title>
<path fill="none" stroke="midnightblue" d="M78.9446,-130.442C96.9279,-118.144 123.342,-101.093 148,-89 155.228,-85.4555 163.091,-82.1207 170.822,-79.1124"/>
<polygon fill="midnightblue" stroke="midnightblue" points="76.5891,-127.816 70.363,-136.388 80.576,-133.57 76.5891,-127.816"/>
</g>
<!-- Node21 -->
<g id="node21" class="node"><title>Node21</title>
<g id="a_node21"><a xlink:href="classfactory_1_1remote__client.html" target="_top" xlink:title="factory::remote_client\l\&lt; T, Socket, Router \&gt;">
<polygon fill="white" stroke="black" points="160.5,-0 160.5,-30 273.5,-30 273.5,-0 160.5,-0"/>
<text text-anchor="start" x="168.5" y="-18" font-family="Helvetica,sans-Serif" font-size="10.00">factory::remote_client</text>
<text text-anchor="middle" x="217" y="-7" font-family="Helvetica,sans-Serif" font-size="10.00">&lt; T, Socket, Router &gt;</text>
</a>
</g>
</g>
<!-- Node1&#45;&gt;Node21 -->
<g id="edge20" class="edge"><title>Node1&#45;&gt;Node21</title>
<path fill="none" stroke="midnightblue" d="M68.2628,-127.511C83.5583,-103.851 113.039,-63.0551 148,-39 152.951,-35.5937 158.435,-32.6211 164.08,-30.0391"/>
<polygon fill="midnightblue" stroke="midnightblue" points="65.1411,-125.9 62.7712,-136.226 71.0634,-129.632 65.1411,-125.9"/>
</g>
<!-- Node3 -->
<g id="node3" class="node"><title>Node3</title>
<g id="a_node3"><a xlink:href="classfactory_1_1parallel__pipeline.html" target="_top" xlink:title="factory::parallel_pipeline\&lt; T \&gt;">
<polygon fill="white" stroke="black" points="322,-409.5 322,-428.5 468,-428.5 468,-409.5 322,-409.5"/>
<text text-anchor="middle" x="395" y="-416.5" font-family="Helvetica,sans-Serif" font-size="10.00">factory::parallel_pipeline&lt; T &gt;</text>
</a>
</g>
</g>
<!-- Node2&#45;&gt;Node3 -->
<g id="edge2" class="edge"><title>Node2&#45;&gt;Node3</title>
<path fill="none" stroke="midnightblue" d="M253.118,-375.193C273.177,-382.552 298.866,-391.682 322,-399 333.503,-402.639 346.151,-406.273 357.593,-409.426"/>
<polygon fill="midnightblue" stroke="midnightblue" points="254.066,-371.812 243.473,-371.632 251.642,-378.379 254.066,-371.812"/>
</g>
<!-- Node4 -->
<g id="node4" class="node"><title>Node4</title>
<g id="a_node4"><a xlink:href="structfactory_1_1io__pipeline.html" target="_top" xlink:title="factory::io_pipeline\&lt; T \&gt;">
<polygon fill="white" stroke="black" points="508,-409.5 508,-428.5 630,-428.5 630,-409.5 508,-409.5"/>
<text text-anchor="middle" x="569" y="-416.5" font-family="Helvetica,sans-Serif" font-size="10.00">factory::io_pipeline&lt; T &gt;</text>
</a>
</g>
</g>
<!-- Node3&#45;&gt;Node4 -->
<g id="edge3" class="edge"><title>Node3&#45;&gt;Node4</title>
<path fill="none" stroke="midnightblue" d="M478.664,-419C488.511,-419 498.416,-419 507.863,-419"/>
<polygon fill="midnightblue" stroke="midnightblue" points="478.445,-415.5 468.445,-419 478.445,-422.5 478.445,-415.5"/>
</g>
<!-- Node6 -->
<g id="node6" class="node"><title>Node6</title>
<g id="a_node6"><a xlink:href="structfactory_1_1basic__socket__pipeline.html" target="_top" xlink:title="basic_socket_pipeline\l\&lt; T, external_process\l_handler\&lt; T, Router \&gt; \&gt;">
<polygon fill="white" stroke="black" points="334,-349.5 334,-390.5 456,-390.5 456,-349.5 334,-349.5"/>
<text text-anchor="start" x="342" y="-378.5" font-family="Helvetica,sans-Serif" font-size="10.00">basic_socket_pipeline</text>
<text text-anchor="start" x="342" y="-367.5" font-family="Helvetica,sans-Serif" font-size="10.00">&lt; T, external_process</text>
<text text-anchor="middle" x="395" y="-356.5" font-family="Helvetica,sans-Serif" font-size="10.00">_handler&lt; T, Router &gt; &gt;</text>
</a>
</g>
</g>
<!-- Node5&#45;&gt;Node6 -->
<g id="edge5" class="edge"><title>Node5&#45;&gt;Node6</title>
<path fill="none" stroke="midnightblue" d="M251.446,-283.189C270.897,-301.274 296.537,-323.135 322,-339 328.006,-342.742 334.543,-346.243 341.148,-349.447"/>
<polygon fill="midnightblue" stroke="midnightblue" points="253.719,-280.522 244.042,-276.209 248.918,-285.616 253.719,-280.522"/>
</g>
<!-- Node8 -->
<g id="node8" class="node"><title>Node8</title>
<g id="a_node8"><a xlink:href="structfactory_1_1basic__socket__pipeline.html" target="_top" xlink:title="basic_socket_pipeline\l\&lt; T, process_handler\l\&lt; T, basic_router\&lt; T \&gt; \&gt; \&gt;">
<polygon fill="white" stroke="black" points="328.5,-289.5 328.5,-330.5 461.5,-330.5 461.5,-289.5 328.5,-289.5"/>
<text text-anchor="start" x="336.5" y="-318.5" font-family="Helvetica,sans-Serif" font-size="10.00">basic_socket_pipeline</text>
<text text-anchor="start" x="336.5" y="-307.5" font-family="Helvetica,sans-Serif" font-size="10.00">&lt; T, process_handler</text>
<text text-anchor="middle" x="395" y="-296.5" font-family="Helvetica,sans-Serif" font-size="10.00">&lt; T, basic_router&lt; T &gt; &gt; &gt;</text>
</a>
</g>
</g>
<!-- Node5&#45;&gt;Node8 -->
<g id="edge7" class="edge"><title>Node5&#45;&gt;Node8</title>
<path fill="none" stroke="midnightblue" d="M285.826,-273.122C301.642,-278.514 318.376,-284.219 333.834,-289.489"/>
<polygon fill="midnightblue" stroke="midnightblue" points="286.711,-269.727 276.117,-269.813 284.452,-276.352 286.711,-269.727"/>
</g>
<!-- Node10 -->
<g id="node10" class="node"><title>Node10</title>
<g id="a_node10"><a xlink:href="structfactory_1_1basic__socket__pipeline.html" target="_top" xlink:title="basic_socket_pipeline\l\&lt; T, process_handler\l\&lt; T, Router \&gt; \&gt;">
<polygon fill="white" stroke="black" points="338.5,-229.5 338.5,-270.5 451.5,-270.5 451.5,-229.5 338.5,-229.5"/>
<text text-anchor="start" x="346.5" y="-258.5" font-family="Helvetica,sans-Serif" font-size="10.00">basic_socket_pipeline</text>
<text text-anchor="start" x="346.5" y="-247.5" font-family="Helvetica,sans-Serif" font-size="10.00">&lt; T, process_handler</text>
<text text-anchor="middle" x="395" y="-236.5" font-family="Helvetica,sans-Serif" font-size="10.00">&lt; T, Router &gt; &gt;</text>
</a>
</g>
</g>
<!-- Node5&#45;&gt;Node10 -->
<g id="edge9" class="edge"><title>Node5&#45;&gt;Node10</title>
<path fill="none" stroke="midnightblue" d="M286.141,-250C303.413,-250 321.763,-250 338.335,-250"/>
<polygon fill="midnightblue" stroke="midnightblue" points="286.117,-246.5 276.117,-250 286.117,-253.5 286.117,-246.5"/>
</g>
<!-- Node13 -->
<g id="node13" class="node"><title>Node13</title>
<g id="a_node13"><a xlink:href="structfactory_1_1basic__socket__pipeline.html" target="_top" xlink:title="basic_socket_pipeline\l\&lt; T, remote_client\&lt; T,\l Socket, Router \&gt; \&gt;">
<polygon fill="white" stroke="black" points="338,-169.5 338,-210.5 452,-210.5 452,-169.5 338,-169.5"/>
<text text-anchor="start" x="346" y="-198.5" font-family="Helvetica,sans-Serif" font-size="10.00">basic_socket_pipeline</text>
<text text-anchor="start" x="346" y="-187.5" font-family="Helvetica,sans-Serif" font-size="10.00">&lt; T, remote_client&lt; T,</text>
<text text-anchor="middle" x="395" y="-176.5" font-family="Helvetica,sans-Serif" font-size="10.00"> Socket, Router &gt; &gt;</text>
</a>
</g>
</g>
<!-- Node5&#45;&gt;Node13 -->
<g id="edge12" class="edge"><title>Node5&#45;&gt;Node13</title>
<path fill="none" stroke="midnightblue" d="M286.039,-226.805C303.135,-220.977 321.291,-214.787 337.74,-209.18"/>
<polygon fill="midnightblue" stroke="midnightblue" points="284.452,-223.648 276.117,-230.187 286.711,-230.273 284.452,-223.648"/>
</g>
<!-- Node15 -->
<g id="node15" class="node"><title>Node15</title>
<g id="a_node15"><a xlink:href="structfactory_1_1basic__socket__pipeline.html" target="_top" xlink:title="factory::basic_socket\l_pipeline\&lt; T, Handler \&gt;">
<polygon fill="white" stroke="black" points="335.5,-121 335.5,-151 454.5,-151 454.5,-121 335.5,-121"/>
<text text-anchor="start" x="343.5" y="-139" font-family="Helvetica,sans-Serif" font-size="10.00">factory::basic_socket</text>
<text text-anchor="middle" x="395" y="-128" font-family="Helvetica,sans-Serif" font-size="10.00">_pipeline&lt; T, Handler &gt;</text>
</a>
</g>
</g>
<!-- Node5&#45;&gt;Node15 -->
<g id="edge14" class="edge"><title>Node5&#45;&gt;Node15</title>
<path fill="none" stroke="midnightblue" d="M281.494,-217.832C283.045,-216.587 284.551,-215.31 286,-214 307.401,-194.661 299.077,-177.508 322,-160 326.503,-156.561 331.524,-153.6 336.763,-151.054"/>
<polygon fill="midnightblue" stroke="midnightblue" points="279.392,-215.033 273.415,-223.781 283.543,-220.67 279.392,-215.033"/>
</g>
<!-- Node16 -->
<g id="node16" class="node"><title>Node16</title>
<g id="a_node16"><a xlink:href="structfactory_1_1timer__pipeline.html" target="_top" xlink:title="factory::timer_pipeline\&lt; T \&gt;">
<polygon fill="white" stroke="black" points="326.5,-82.5 326.5,-101.5 463.5,-101.5 463.5,-82.5 326.5,-82.5"/>
<text text-anchor="middle" x="395" y="-89.5" font-family="Helvetica,sans-Serif" font-size="10.00">factory::timer_pipeline&lt; T &gt;</text>
</a>
</g>
</g>
<!-- Node5&#45;&gt;Node16 -->
<g id="edge15" class="edge"><title>Node5&#45;&gt;Node16</title>
<path fill="none" stroke="midnightblue" d="M283.329,-216.921C284.251,-215.971 285.143,-214.997 286,-214 317.612,-177.227 286.395,-143.923 322,-111 326.176,-107.138 331.044,-104.043 336.242,-101.564"/>
<polygon fill="midnightblue" stroke="midnightblue" points="280.817,-214.473 275.72,-223.761 285.497,-219.678 280.817,-214.473"/>
</g>
<!-- Node7 -->
<g id="node7" class="node"><title>Node7</title>
<g id="a_node7"><a xlink:href="classfactory_1_1unix__domain__socket__pipeline.html" target="_top" xlink:title="factory::unix_domain\l_socket_pipeline\&lt; T,\l Router \&gt;">
<polygon fill="white" stroke="black" points="515.5,-349.5 515.5,-390.5 622.5,-390.5 622.5,-349.5 515.5,-349.5"/>
<text text-anchor="start" x="523.5" y="-378.5" font-family="Helvetica,sans-Serif" font-size="10.00">factory::unix_domain</text>
<text text-anchor="start" x="523.5" y="-367.5" font-family="Helvetica,sans-Serif" font-size="10.00">_socket_pipeline&lt; T,</text>
<text text-anchor="middle" x="569" y="-356.5" font-family="Helvetica,sans-Serif" font-size="10.00"> Router &gt;</text>
</a>
</g>
</g>
<!-- Node6&#45;&gt;Node7 -->
<g id="edge6" class="edge"><title>Node6&#45;&gt;Node7</title>
<path fill="none" stroke="midnightblue" d="M466.244,-370C482.645,-370 499.838,-370 515.324,-370"/>
<polygon fill="midnightblue" stroke="midnightblue" points="466.157,-366.5 456.157,-370 466.157,-373.5 466.157,-366.5"/>
</g>
<!-- Node9 -->
<g id="node9" class="node"><title>Node9</title>
<g id="a_node9"><a xlink:href="classfactory_1_1child__process__pipeline.html" target="_top" xlink:title="factory::child_process\l_pipeline\&lt; T, basic_router\l\&lt; T \&gt; \&gt;">
<polygon fill="white" stroke="black" points="504.5,-289.5 504.5,-330.5 633.5,-330.5 633.5,-289.5 504.5,-289.5"/>
<text text-anchor="start" x="512.5" y="-318.5" font-family="Helvetica,sans-Serif" font-size="10.00">factory::child_process</text>
<text text-anchor="start" x="512.5" y="-307.5" font-family="Helvetica,sans-Serif" font-size="10.00">_pipeline&lt; T, basic_router</text>
<text text-anchor="middle" x="569" y="-296.5" font-family="Helvetica,sans-Serif" font-size="10.00">&lt; T &gt; &gt;</text>
</a>
</g>
</g>
<!-- Node8&#45;&gt;Node9 -->
<g id="edge8" class="edge"><title>Node8&#45;&gt;Node9</title>
<path fill="none" stroke="midnightblue" d="M471.838,-310C482.698,-310 493.777,-310 504.37,-310"/>
<polygon fill="midnightblue" stroke="midnightblue" points="471.517,-306.5 461.516,-310 471.516,-313.5 471.517,-306.5"/>
</g>
<!-- Node11 -->
<g id="node11" class="node"><title>Node11</title>
<g id="a_node11"><a xlink:href="classfactory_1_1child__process__pipeline.html" target="_top" xlink:title="factory::child_process\l_pipeline\&lt; T, Router \&gt;">
<polygon fill="white" stroke="black" points="512,-241 512,-271 626,-271 626,-241 512,-241"/>
<text text-anchor="start" x="520" y="-259" font-family="Helvetica,sans-Serif" font-size="10.00">factory::child_process</text>
<text text-anchor="middle" x="569" y="-248" font-family="Helvetica,sans-Serif" font-size="10.00">_pipeline&lt; T, Router &gt;</text>
</a>
</g>
</g>
<!-- Node10&#45;&gt;Node11 -->
<g id="edge10" class="edge"><title>Node10&#45;&gt;Node11</title>
<path fill="none" stroke="midnightblue" d="M461.938,-252.3C478.402,-252.875 495.906,-253.485 511.848,-254.041"/>
<polygon fill="midnightblue" stroke="midnightblue" points="461.959,-248.799 451.843,-251.948 461.715,-255.795 461.959,-248.799"/>
</g>
<!-- Node12 -->
<g id="node12" class="node"><title>Node12</title>
<g id="a_node12"><a xlink:href="classfactory_1_1process__pipeline.html" target="_top" xlink:title="factory::process_pipeline\l\&lt; T, Router \&gt;">
<polygon fill="white" stroke="black" points="506.5,-192 506.5,-222 631.5,-222 631.5,-192 506.5,-192"/>
<text text-anchor="start" x="514.5" y="-210" font-family="Helvetica,sans-Serif" font-size="10.00">factory::process_pipeline</text>
<text text-anchor="middle" x="569" y="-199" font-family="Helvetica,sans-Serif" font-size="10.00">&lt; T, Router &gt;</text>
</a>
</g>
</g>
<!-- Node10&#45;&gt;Node12 -->
<g id="edge11" class="edge"><title>Node10&#45;&gt;Node12</title>
<path fill="none" stroke="midnightblue" d="M461.693,-233.577C476.911,-229.772 493.029,-225.743 507.989,-222.003"/>
<polygon fill="midnightblue" stroke="midnightblue" points="460.696,-230.218 451.843,-236.039 462.394,-237.009 460.696,-230.218"/>
</g>
<!-- Node14 -->
<g id="node14" class="node"><title>Node14</title>
<g id="a_node14"><a xlink:href="classfactory_1_1socket__pipeline.html" target="_top" xlink:title="factory::socket_pipeline\l\&lt; T, Socket, Router \&gt;">
<polygon fill="white" stroke="black" points="509,-143 509,-173 629,-173 629,-143 509,-143"/>
<text text-anchor="start" x="517" y="-161" font-family="Helvetica,sans-Serif" font-size="10.00">factory::socket_pipeline</text>
<text text-anchor="middle" x="569" y="-150" font-family="Helvetica,sans-Serif" font-size="10.00">&lt; T, Socket, Router &gt;</text>
</a>
</g>
</g>
<!-- Node13&#45;&gt;Node14 -->
<g id="edge13" class="edge"><title>Node13&#45;&gt;Node14</title>
<path fill="none" stroke="midnightblue" d="M462.262,-177.672C477.62,-174.815 493.866,-171.792 508.894,-168.996"/>
<polygon fill="midnightblue" stroke="midnightblue" points="461.51,-174.252 452.319,-179.522 462.791,-181.134 461.51,-174.252"/>
</g>
</g>
</svg>
