<?xml version="1.0" encoding="UTF-8" standalone="no"?>
<!DOCTYPE svg PUBLIC "-//W3C//DTD SVG 1.1//EN"
 "http://www.w3.org/Graphics/SVG/1.1/DTD/svg11.dtd">
<!-- Generated by graphviz version 2.36.0 (20140111.2315)
 -->
<!-- Title: bsc::process_handler&lt; K, R &gt; Pages: 1 -->
<svg width="118pt" height="152pt"
 viewBox="0.00 0.00 118.00 152.00" xmlns="http://www.w3.org/2000/svg" xmlns:xlink="http://www.w3.org/1999/xlink">
<g id="graph0" class="graph" transform="scale(1 1) rotate(0) translate(4 148)">
<title>bsc::process_handler&lt; K, R &gt;</title>
<polygon fill="white" stroke="none" points="-4,4 -4,-148 114,-148 114,4 -4,4"/>
<!-- Node1 -->
<g id="node1" class="node"><title>Node1</title>
<polygon fill="#bfbfbf" stroke="black" points="0,-1 0,-31 110,-31 110,-1 0,-1"/>
<text text-anchor="start" x="8" y="-19" font-family="Helvetica,sans-Serif" font-size="10.00">bsc::process_handler</text>
<text text-anchor="middle" x="55" y="-8" font-family="Helvetica,sans-Serif" font-size="10.00">&lt; K, R &gt;</text>
</g>
<!-- Node2 -->
<g id="node2" class="node"><title>Node2</title>
<g id="a_node2"><a xlink:href="classbsc_1_1basic__handler.html" target="_top" xlink:title="bsc::basic_handler">
<polygon fill="white" stroke="black" points="6,-68.5 6,-87.5 104,-87.5 104,-68.5 6,-68.5"/>
<text text-anchor="middle" x="55" y="-75.5" font-family="Helvetica,sans-Serif" font-size="10.00">bsc::basic_handler</text>
</a>
</g>
</g>
<!-- Node2&#45;&gt;Node1 -->
<g id="edge1" class="edge"><title>Node2&#45;&gt;Node1</title>
<path fill="none" stroke="midnightblue" d="M55,-58.3707C55,-49.5849 55,-39.2721 55,-31.1408"/>
<polygon fill="midnightblue" stroke="midnightblue" points="51.5001,-58.4034 55,-68.4035 58.5001,-58.4035 51.5001,-58.4034"/>
</g>
<!-- Node3 -->
<g id="node3" class="node"><title>Node3</title>
<g id="a_node3"><a xlink:href="classbsc_1_1pipeline__base.html" target="_top" xlink:title="bsc::pipeline_base">
<polygon fill="white" stroke="black" points="6,-124.5 6,-143.5 104,-143.5 104,-124.5 6,-124.5"/>
<text text-anchor="middle" x="55" y="-131.5" font-family="Helvetica,sans-Serif" font-size="10.00">bsc::pipeline_base</text>
</a>
</g>
</g>
<!-- Node3&#45;&gt;Node2 -->
<g id="edge2" class="edge"><title>Node3&#45;&gt;Node2</title>
<path fill="none" stroke="midnightblue" d="M55,-113.805C55,-104.91 55,-94.7798 55,-87.7511"/>
<polygon fill="midnightblue" stroke="midnightblue" points="51.5001,-114.083 55,-124.083 58.5001,-114.083 51.5001,-114.083"/>
</g>
</g>
</svg>
