<?xml version="1.0" encoding="UTF-8" standalone="no"?>
<!DOCTYPE svg PUBLIC "-//W3C//DTD SVG 1.1//EN"
 "http://www.w3.org/Graphics/SVG/1.1/DTD/svg11.dtd">
<!-- Generated by graphviz version 2.36.0 (20140111.2315)
 -->
<!-- Title: bsc::child_process_pipeline&lt; K, R &gt; Pages: 1 -->
<svg width="164pt" height="232pt"
 viewBox="0.00 0.00 164.00 232.00" xmlns="http://www.w3.org/2000/svg" xmlns:xlink="http://www.w3.org/1999/xlink">
<g id="graph0" class="graph" transform="scale(1 1) rotate(0) translate(4 228)">
<title>bsc::child_process_pipeline&lt; K, R &gt;</title>
<polygon fill="white" stroke="none" points="-4,4 -4,-228 160,-228 160,4 -4,4"/>
<!-- Node1 -->
<g id="node1" class="node"><title>Node1</title>
<polygon fill="#bfbfbf" stroke="black" points="29,-1 29,-31 127,-31 127,-1 29,-1"/>
<text text-anchor="start" x="37" y="-19" font-family="Helvetica,sans-Serif" font-size="10.00">bsc::child_process</text>
<text text-anchor="middle" x="78" y="-8" font-family="Helvetica,sans-Serif" font-size="10.00">_pipeline&lt; K, R &gt;</text>
</g>
<!-- Node2 -->
<g id="node2" class="node"><title>Node2</title>
<g id="a_node2"><a xlink:href="classbsc_1_1basic__socket__pipeline.html" target="_top" xlink:title="bsc::basic_socket_pipeline\l\&lt; K, process_handler\&lt; K, R \&gt; \&gt;">
<polygon fill="white" stroke="black" points="-0.5,-69 -0.5,-99 156.5,-99 156.5,-69 -0.5,-69"/>
<text text-anchor="start" x="7.5" y="-87" font-family="Helvetica,sans-Serif" font-size="10.00">bsc::basic_socket_pipeline</text>
<text text-anchor="middle" x="78" y="-76" font-family="Helvetica,sans-Serif" font-size="10.00">&lt; K, process_handler&lt; K, R &gt; &gt;</text>
</a>
</g>
</g>
<!-- Node2&#45;&gt;Node1 -->
<g id="edge1" class="edge"><title>Node2&#45;&gt;Node1</title>
<path fill="none" stroke="midnightblue" d="M78,-58.5322C78,-49.3606 78,-39.2449 78,-31.2931"/>
<polygon fill="midnightblue" stroke="midnightblue" points="74.5001,-58.6789 78,-68.679 81.5001,-58.679 74.5001,-58.6789"/>
</g>
<!-- Node3 -->
<g id="node3" class="node"><title>Node3</title>
<g id="a_node3"><a xlink:href="classbsc_1_1basic__pipeline.html" target="_top" xlink:title="Proxy_pipeline_base\l\&lt; K &#160;\&gt;">
<polygon fill="white" stroke="black" points="24.5,-137 24.5,-167 131.5,-167 131.5,-137 24.5,-137"/>
<text text-anchor="start" x="32.5" y="-155" font-family="Helvetica,sans-Serif" font-size="10.00">Proxy_pipeline_base</text>
<text text-anchor="middle" x="78" y="-144" font-family="Helvetica,sans-Serif" font-size="10.00">&lt; K &gt;</text>
</a>
</g>
</g>
<!-- Node3&#45;&gt;Node2 -->
<g id="edge2" class="edge"><title>Node3&#45;&gt;Node2</title>
<path fill="none" stroke="midnightblue" d="M78,-126.532C78,-117.361 78,-107.245 78,-99.2931"/>
<polygon fill="midnightblue" stroke="midnightblue" points="74.5001,-126.679 78,-136.679 81.5001,-126.679 74.5001,-126.679"/>
</g>
<!-- Node4 -->
<g id="node4" class="node"><title>Node4</title>
<g id="a_node4"><a xlink:href="classbsc_1_1pipeline__base.html" target="_top" xlink:title="bsc::pipeline_base">
<polygon fill="white" stroke="black" points="29,-204.5 29,-223.5 127,-223.5 127,-204.5 29,-204.5"/>
<text text-anchor="middle" x="78" y="-211.5" font-family="Helvetica,sans-Serif" font-size="10.00">bsc::pipeline_base</text>
</a>
</g>
</g>
<!-- Node4&#45;&gt;Node3 -->
<g id="edge3" class="edge"><title>Node4&#45;&gt;Node3</title>
<path fill="none" stroke="midnightblue" d="M78,-194.371C78,-185.585 78,-175.272 78,-167.141"/>
<polygon fill="midnightblue" stroke="midnightblue" points="74.5001,-194.403 78,-204.403 81.5001,-194.403 74.5001,-194.403"/>
</g>
</g>
</svg>
