<?xml version="1.0" encoding="UTF-8" standalone="no"?>
<!DOCTYPE svg PUBLIC "-//W3C//DTD SVG 1.1//EN"
 "http://www.w3.org/Graphics/SVG/1.1/DTD/svg11.dtd">
<!-- Generated by graphviz version 2.36.0 (20140111.2315)
 -->
<!-- Title: factory::mobile_kernel Pages: 1 -->
<svg width="684pt" height="306pt"
 viewBox="0.00 0.00 684.00 306.00" xmlns="http://www.w3.org/2000/svg" xmlns:xlink="http://www.w3.org/1999/xlink">
<g id="graph0" class="graph" transform="scale(1 1) rotate(0) translate(4 302)">
<title>factory::mobile_kernel</title>
<polygon fill="white" stroke="none" points="-4,4 -4,-302 680,-302 680,4 -4,4"/>
<!-- Node1 -->
<g id="node1" class="node"><title>Node1</title>
<polygon fill="#bfbfbf" stroke="black" points="150.5,-114.5 150.5,-133.5 263.5,-133.5 263.5,-114.5 150.5,-114.5"/>
<text text-anchor="middle" x="207" y="-121.5" font-family="Helvetica,sans-Serif" font-size="10.00">factory::mobile_kernel</text>
</g>
<!-- Node4 -->
<g id="node4" class="node"><title>Node4</title>
<g id="a_node4"><a xlink:href="structfactory_1_1Kernel.html" target="_top" xlink:title="factory::Kernel">
<polygon fill="white" stroke="black" points="300,-114.5 300,-133.5 380,-133.5 380,-114.5 300,-114.5"/>
<text text-anchor="middle" x="340" y="-121.5" font-family="Helvetica,sans-Serif" font-size="10.00">factory::Kernel</text>
</a>
</g>
</g>
<!-- Node1&#45;&gt;Node4 -->
<g id="edge3" class="edge"><title>Node1&#45;&gt;Node4</title>
<path fill="none" stroke="midnightblue" d="M273.579,-124C282.487,-124 291.392,-124 299.637,-124"/>
<polygon fill="midnightblue" stroke="midnightblue" points="273.556,-120.5 263.556,-124 273.556,-127.5 273.556,-120.5"/>
</g>
<!-- Node2 -->
<g id="node2" class="node"><title>Node2</title>
<g id="a_node2"><a xlink:href="classfactory_1_1kernel__base.html" target="_top" xlink:title="factory::kernel_base">
<polygon fill="white" stroke="black" points="4.5,-133.5 4.5,-152.5 109.5,-152.5 109.5,-133.5 4.5,-133.5"/>
<text text-anchor="middle" x="57" y="-140.5" font-family="Helvetica,sans-Serif" font-size="10.00">factory::kernel_base</text>
</a>
</g>
</g>
<!-- Node2&#45;&gt;Node1 -->
<g id="edge1" class="edge"><title>Node2&#45;&gt;Node1</title>
<path fill="none" stroke="midnightblue" d="M119.806,-135.065C129.983,-133.759 140.477,-132.412 150.489,-131.126"/>
<polygon fill="midnightblue" stroke="midnightblue" points="119.236,-131.61 109.763,-136.355 120.128,-138.553 119.236,-131.61"/>
</g>
<!-- Node3 -->
<g id="node3" class="node"><title>Node3</title>
<g id="a_node3"><a xlink:href="classfactory_1_1kernel__header.html" target="_top" xlink:title="factory::kernel_header">
<polygon fill="white" stroke="black" points="0.5,-95.5 0.5,-114.5 113.5,-114.5 113.5,-95.5 0.5,-95.5"/>
<text text-anchor="middle" x="57" y="-102.5" font-family="Helvetica,sans-Serif" font-size="10.00">factory::kernel_header</text>
</a>
</g>
</g>
<!-- Node3&#45;&gt;Node1 -->
<g id="edge2" class="edge"><title>Node3&#45;&gt;Node1</title>
<path fill="none" stroke="midnightblue" d="M123.481,-113.406C132.381,-114.549 141.449,-115.713 150.158,-116.831"/>
<polygon fill="midnightblue" stroke="midnightblue" points="123.895,-109.931 113.531,-112.129 123.004,-116.874 123.895,-109.931"/>
</g>
<!-- Node5 -->
<g id="node5" class="node"><title>Node5</title>
<g id="a_node5"><a xlink:href="structBig__kernel.html" target="_top" xlink:title="Big_kernel\&lt; Size \&gt;">
<polygon fill="white" stroke="black" points="417,-278.5 417,-297.5 517,-297.5 517,-278.5 417,-278.5"/>
<text text-anchor="middle" x="467" y="-285.5" font-family="Helvetica,sans-Serif" font-size="10.00">Big_kernel&lt; Size &gt;</text>
</a>
</g>
</g>
<!-- Node4&#45;&gt;Node5 -->
<g id="edge4" class="edge"><title>Node4&#45;&gt;Node5</title>
<path fill="none" stroke="midnightblue" d="M346.172,-143.54C355.278,-174.335 377.005,-234.222 416,-269 420.297,-272.832 425.445,-275.923 430.78,-278.406"/>
<polygon fill="midnightblue" stroke="midnightblue" points="349.456,-142.29 343.379,-133.611 342.717,-144.186 349.456,-142.29"/>
</g>
<!-- Node6 -->
<g id="node6" class="node"><title>Node6</title>
<g id="a_node6"><a xlink:href="structDummy__kernel.html" target="_top" xlink:title="Dummy_kernel">
<polygon fill="white" stroke="black" points="425.5,-240.5 425.5,-259.5 508.5,-259.5 508.5,-240.5 425.5,-240.5"/>
<text text-anchor="middle" x="467" y="-247.5" font-family="Helvetica,sans-Serif" font-size="10.00">Dummy_kernel</text>
</a>
</g>
</g>
<!-- Node4&#45;&gt;Node6 -->
<g id="edge5" class="edge"><title>Node4&#45;&gt;Node6</title>
<path fill="none" stroke="midnightblue" d="M349.721,-142.746C361.598,-166.39 384.983,-206.863 416,-231 420.91,-234.821 426.675,-237.943 432.511,-240.471"/>
<polygon fill="midnightblue" stroke="midnightblue" points="352.864,-141.206 345.346,-133.74 346.567,-144.265 352.864,-141.206"/>
</g>
<!-- Node7 -->
<g id="node7" class="node"><title>Node7</title>
<g id="a_node7"><a xlink:href="structGood__kernel.html" target="_top" xlink:title="Good_kernel">
<polygon fill="white" stroke="black" points="431.5,-202.5 431.5,-221.5 502.5,-221.5 502.5,-202.5 431.5,-202.5"/>
<text text-anchor="middle" x="467" y="-209.5" font-family="Helvetica,sans-Serif" font-size="10.00">Good_kernel</text>
</a>
</g>
</g>
<!-- Node4&#45;&gt;Node7 -->
<g id="edge6" class="edge"><title>Node4&#45;&gt;Node7</title>
<path fill="none" stroke="midnightblue" d="M356.421,-141.08C370.695,-156.086 393.111,-177.698 416,-192 422.501,-196.063 429.968,-199.574 437.114,-202.472"/>
<polygon fill="midnightblue" stroke="midnightblue" points="358.752,-138.447 349.377,-133.512 353.628,-143.216 358.752,-138.447"/>
</g>
<!-- Node10 -->
<g id="node10" class="node"><title>Node10</title>
<g id="a_node10"><a xlink:href="structKernel__that__carries__its__parent.html" target="_top" xlink:title="Kernel_that_carries\l_its_parent">
<polygon fill="white" stroke="black" points="416.5,-153 416.5,-183 517.5,-183 517.5,-153 416.5,-153"/>
<text text-anchor="start" x="424.5" y="-171" font-family="Helvetica,sans-Serif" font-size="10.00">Kernel_that_carries</text>
<text text-anchor="middle" x="467" y="-160" font-family="Helvetica,sans-Serif" font-size="10.00">_its_parent</text>
</a>
</g>
</g>
<!-- Node4&#45;&gt;Node10 -->
<g id="edge9" class="edge"><title>Node4&#45;&gt;Node10</title>
<path fill="none" stroke="midnightblue" d="M377.615,-136.888C391.899,-141.916 408.374,-147.715 423.201,-152.935"/>
<polygon fill="midnightblue" stroke="midnightblue" points="378.718,-133.566 368.123,-133.547 376.394,-140.169 378.718,-133.566"/>
</g>
<!-- Node11 -->
<g id="node11" class="node"><title>Node11</title>
<g id="a_node11"><a xlink:href="structMain.html" target="_top" xlink:title="Main\&lt; Address \&gt;">
<polygon fill="white" stroke="black" points="421,-114.5 421,-133.5 513,-133.5 513,-114.5 421,-114.5"/>
<text text-anchor="middle" x="467" y="-121.5" font-family="Helvetica,sans-Serif" font-size="10.00">Main&lt; Address &gt;</text>
</a>
</g>
</g>
<!-- Node4&#45;&gt;Node11 -->
<g id="edge10" class="edge"><title>Node4&#45;&gt;Node11</title>
<path fill="none" stroke="midnightblue" d="M390.437,-117.383C400.46,-117.176 410.953,-117.211 420.82,-117.486"/>
<polygon fill="midnightblue" stroke="midnightblue" points="390.1,-113.891 380.208,-117.685 390.307,-120.888 390.1,-113.891"/>
</g>
<!-- Node4&#45;&gt;Node11 -->
<g id="edge11" class="edge"><title>Node4&#45;&gt;Node11</title>
<path fill="none" stroke="midnightblue" d="M390.437,-130.617C400.46,-130.824 410.953,-130.789 420.82,-130.514"/>
<polygon fill="midnightblue" stroke="midnightblue" points="390.307,-127.112 380.208,-130.315 390.1,-134.109 390.307,-127.112"/>
</g>
<!-- Node12 -->
<g id="node12" class="node"><title>Node12</title>
<g id="a_node12"><a xlink:href="structSender.html" target="_top" xlink:title="Sender">
<polygon fill="white" stroke="black" points="443.5,-76.5 443.5,-95.5 490.5,-95.5 490.5,-76.5 443.5,-76.5"/>
<text text-anchor="middle" x="467" y="-83.5" font-family="Helvetica,sans-Serif" font-size="10.00">Sender</text>
</a>
</g>
</g>
<!-- Node4&#45;&gt;Node12 -->
<g id="edge12" class="edge"><title>Node4&#45;&gt;Node12</title>
<path fill="none" stroke="midnightblue" d="M382.18,-111.481C402.458,-105.317 426.137,-98.1182 443.146,-92.9477"/>
<polygon fill="midnightblue" stroke="midnightblue" points="381.092,-108.154 372.543,-114.411 383.128,-114.851 381.092,-108.154"/>
</g>
<!-- Node13 -->
<g id="node13" class="node"><title>Node13</title>
<g id="a_node13"><a xlink:href="structSleepy__kernel.html" target="_top" xlink:title="Sleepy_kernel">
<polygon fill="white" stroke="black" points="428,-38.5 428,-57.5 506,-57.5 506,-38.5 428,-38.5"/>
<text text-anchor="middle" x="467" y="-45.5" font-family="Helvetica,sans-Serif" font-size="10.00">Sleepy_kernel</text>
</a>
</g>
</g>
<!-- Node4&#45;&gt;Node13 -->
<g id="edge13" class="edge"><title>Node4&#45;&gt;Node13</title>
<path fill="none" stroke="midnightblue" d="M359.241,-107.749C373.823,-95.3677 395.199,-78.5403 416,-67 422.415,-63.4411 429.632,-60.2693 436.546,-57.5846"/>
<polygon fill="midnightblue" stroke="midnightblue" points="356.768,-105.261 351.496,-114.451 361.348,-110.554 356.768,-105.261"/>
</g>
<!-- Node14 -->
<g id="node14" class="node"><title>Node14</title>
<g id="a_node14"><a xlink:href="structTest__socket.html" target="_top" xlink:title="Test_socket">
<polygon fill="white" stroke="black" points="431.5,-0.5 431.5,-19.5 502.5,-19.5 502.5,-0.5 431.5,-0.5"/>
<text text-anchor="middle" x="467" y="-7.5" font-family="Helvetica,sans-Serif" font-size="10.00">Test_socket</text>
</a>
</g>
</g>
<!-- Node4&#45;&gt;Node14 -->
<g id="edge14" class="edge"><title>Node4&#45;&gt;Node14</title>
<path fill="none" stroke="midnightblue" d="M351.35,-105.531C364.064,-84.3633 387.494,-49.908 416,-29 421.167,-25.2105 427.181,-22.0834 433.21,-19.5371"/>
<polygon fill="midnightblue" stroke="midnightblue" points="348.294,-103.823 346.282,-114.225 354.342,-107.348 348.294,-103.823"/>
</g>
<!-- Node8 -->
<g id="node8" class="node"><title>Node8</title>
<g id="a_node8"><a xlink:href="structKernel__that__reads__more__than__writes.html" target="_top" xlink:title="Kernel_that_reads_more\l_than_writes">
<polygon fill="white" stroke="black" points="554,-222 554,-252 676,-252 676,-222 554,-222"/>
<text text-anchor="start" x="562" y="-240" font-family="Helvetica,sans-Serif" font-size="10.00">Kernel_that_reads_more</text>
<text text-anchor="middle" x="615" y="-229" font-family="Helvetica,sans-Serif" font-size="10.00">_than_writes</text>
</a>
</g>
</g>
<!-- Node7&#45;&gt;Node8 -->
<g id="edge7" class="edge"><title>Node7&#45;&gt;Node8</title>
<path fill="none" stroke="midnightblue" d="M512.695,-219.653C525.711,-221.882 540.149,-224.354 553.948,-226.717"/>
<polygon fill="midnightblue" stroke="midnightblue" points="513.047,-216.163 502.6,-217.925 511.866,-223.062 513.047,-216.163"/>
</g>
<!-- Node9 -->
<g id="node9" class="node"><title>Node9</title>
<g id="a_node9"><a xlink:href="structKernel__that__writes__more__than__reads.html" target="_top" xlink:title="Kernel_that_writes\l_more_than_reads">
<polygon fill="white" stroke="black" points="566,-173 566,-203 664,-203 664,-173 566,-173"/>
<text text-anchor="start" x="574" y="-191" font-family="Helvetica,sans-Serif" font-size="10.00">Kernel_that_writes</text>
<text text-anchor="middle" x="615" y="-180" font-family="Helvetica,sans-Serif" font-size="10.00">_more_than_reads</text>
</a>
</g>
</g>
<!-- Node7&#45;&gt;Node9 -->
<g id="edge8" class="edge"><title>Node7&#45;&gt;Node9</title>
<path fill="none" stroke="midnightblue" d="M512.725,-204.648C529.541,-201.884 548.725,-198.73 565.84,-195.917"/>
<polygon fill="midnightblue" stroke="midnightblue" points="511.9,-201.237 502.6,-206.312 513.035,-208.144 511.9,-201.237"/>
</g>
</g>
</svg>
