<?xml version="1.0" encoding="UTF-8" standalone="no"?>
<!DOCTYPE svg PUBLIC "-//W3C//DTD SVG 1.1//EN"
 "http://www.w3.org/Graphics/SVG/1.1/DTD/svg11.dtd">
<!-- Generated by graphviz version 2.36.0 (20140111.2315)
 -->
<!-- Title: /home/travis/build/igankevich/factory/src/apps Pages: 1 -->
<svg width="326pt" height="111pt"
 viewBox="0.00 0.00 326.00 111.00" xmlns="http://www.w3.org/2000/svg" xmlns:xlink="http://www.w3.org/1999/xlink">
<g id="graph0" class="graph" transform="scale(1 1) rotate(0) translate(4 107)">
<title>/home/travis/build/igankevich/factory/src/apps</title>
<polygon fill="white" stroke="none" points="-4,4 -4,-107 322,-107 322,4 -4,4"/>
<g id="clust1" class="cluster"><title>clusterdir_68267d1309a1af8e8297ef4c3efbcdba</title>
<g id="a_clust1"><a xlink:href="dir_68267d1309a1af8e8297ef4c3efbcdba.html" target="_top" xlink:title="src">
<polygon fill="#ddddee" stroke="black" points="8,-8 8,-95 310,-95 310,-8 8,-8"/>
<text text-anchor="middle" x="159" y="-83" font-family="Helvetica,sans-Serif" font-size="10.00">src</text>
</a>
</g>
</g>
<g id="clust2" class="cluster"><title>clusterdir_53adf0b982dc8545998aae3f283a5a58</title>
<g id="a_clust2"><a xlink:href="dir_53adf0b982dc8545998aae3f283a5a58.html" target="_top">
<polygon fill="#eeeeff" stroke="black" points="16,-16 16,-68 302,-68 302,-16 16,-16"/>
</a>
</g>
</g>
<!-- dir_53adf0b982dc8545998aae3f283a5a58 -->
<g id="node1" class="node"><title>dir_53adf0b982dc8545998aae3f283a5a58</title>
<text text-anchor="middle" x="267" y="-39.5" font-family="Helvetica,sans-Serif" font-size="10.00">apps</text>
</g>
<!-- dir_1667a0e0ae003b1e9efd2e913ca7d2a6 -->
<g id="node2" class="node"><title>dir_1667a0e0ae003b1e9efd2e913ca7d2a6</title>
<g id="a_node2"><a xlink:href="dir_1667a0e0ae003b1e9efd2e913ca7d2a6.html" target="_top" xlink:title="autoreg">
<polygon fill="white" stroke="black" points="222,-60 168,-60 168,-24 222,-24 222,-60"/>
<text text-anchor="middle" x="195" y="-39.5" font-family="Helvetica,sans-Serif" font-size="10.00">autoreg</text>
</a>
</g>
</g>
<!-- dir_24536ee32fa6f18c1ab4cc4a85cd7755 -->
<g id="node3" class="node"><title>dir_24536ee32fa6f18c1ab4cc4a85cd7755</title>
<g id="a_node3"><a xlink:href="dir_24536ee32fa6f18c1ab4cc4a85cd7755.html" target="_top" xlink:title="factory">
<polygon fill="white" stroke="black" points="150,-60 96,-60 96,-24 150,-24 150,-60"/>
<text text-anchor="middle" x="123" y="-39.5" font-family="Helvetica,sans-Serif" font-size="10.00">factory</text>
</a>
</g>
</g>
<!-- dir_f9cead73bb5e69e9f75c5a9a06c4ff5a -->
<g id="node4" class="node"><title>dir_f9cead73bb5e69e9f75c5a9a06c4ff5a</title>
<g id="a_node4"><a xlink:href="dir_f9cead73bb5e69e9f75c5a9a06c4ff5a.html" target="_top" xlink:title="spec">
<polygon fill="white" stroke="black" points="78,-60 24,-60 24,-24 78,-24 78,-60"/>
<text text-anchor="middle" x="51" y="-39.5" font-family="Helvetica,sans-Serif" font-size="10.00">spec</text>
</a>
</g>
</g>
</g>
</svg>
