<?xml version="1.0" encoding="UTF-8" standalone="no"?>
<!DOCTYPE svg PUBLIC "-//W3C//DTD SVG 1.1//EN"
 "http://www.w3.org/Graphics/SVG/1.1/DTD/svg11.dtd">
<!-- Generated by graphviz version 2.36.0 (20140111.2315)
 -->
<!-- Title: /home/travis/build/igankevich/factory/src Pages: 1 -->
<svg width="382pt" height="76pt"
 viewBox="0.00 0.00 382.00 76.00" xmlns="http://www.w3.org/2000/svg" xmlns:xlink="http://www.w3.org/1999/xlink">
<g id="graph0" class="graph" transform="scale(1 1) rotate(0) translate(4 72)">
<title>/home/travis/build/igankevich/factory/src</title>
<polygon fill="white" stroke="none" points="-4,4 -4,-72 378,-72 378,4 -4,4"/>
<g id="clust1" class="cluster"><title>clusterdir_68267d1309a1af8e8297ef4c3efbcdba</title>
<g id="a_clust1"><a xlink:href="dir_68267d1309a1af8e8297ef4c3efbcdba.html" target="_top">
<polygon fill="#eeeeff" stroke="black" points="8,-8 8,-60 366,-60 366,-8 8,-8"/>
</a>
</g>
</g>
<!-- dir_68267d1309a1af8e8297ef4c3efbcdba -->
<g id="node1" class="node"><title>dir_68267d1309a1af8e8297ef4c3efbcdba</title>
<text text-anchor="middle" x="331" y="-31.5" font-family="Helvetica,sans-Serif" font-size="10.00">src</text>
</g>
<!-- dir_53adf0b982dc8545998aae3f283a5a58 -->
<g id="node2" class="node"><title>dir_53adf0b982dc8545998aae3f283a5a58</title>
<g id="a_node2"><a xlink:href="dir_53adf0b982dc8545998aae3f283a5a58.html" target="_top" xlink:title="apps">
<polygon fill="white" stroke="red" points="286,-52 232,-52 232,-16 286,-16 286,-52"/>
<text text-anchor="middle" x="259" y="-31.5" font-family="Helvetica,sans-Serif" font-size="10.00">apps</text>
</a>
</g>
</g>
<!-- dir_339115f1b781ea71218b7406990eb67d -->
<g id="node3" class="node"><title>dir_339115f1b781ea71218b7406990eb67d</title>
<g id="a_node3"><a xlink:href="dir_339115f1b781ea71218b7406990eb67d.html" target="_top" xlink:title="factory">
<polygon fill="white" stroke="red" points="214,-52 160,-52 160,-16 214,-16 214,-52"/>
<text text-anchor="middle" x="187" y="-31.5" font-family="Helvetica,sans-Serif" font-size="10.00">factory</text>
</a>
</g>
</g>
<!-- dir_86109a6106978d9b16240df2e9f59e78 -->
<g id="node4" class="node"><title>dir_86109a6106978d9b16240df2e9f59e78</title>
<g id="a_node4"><a xlink:href="dir_86109a6106978d9b16240df2e9f59e78.html" target="_top" xlink:title="springy">
<polygon fill="white" stroke="black" points="142,-52 88,-52 88,-16 142,-16 142,-52"/>
<text text-anchor="middle" x="115" y="-31.5" font-family="Helvetica,sans-Serif" font-size="10.00">springy</text>
</a>
</g>
</g>
<!-- dir_120ed4da3e3217b1e7fc0b4f48568e79 -->
<g id="node5" class="node"><title>dir_120ed4da3e3217b1e7fc0b4f48568e79</title>
<g id="a_node5"><a xlink:href="dir_120ed4da3e3217b1e7fc0b4f48568e79.html" target="_top" xlink:title="test">
<polygon fill="white" stroke="black" points="70,-52 16,-52 16,-16 70,-16 70,-52"/>
<text text-anchor="middle" x="43" y="-31.5" font-family="Helvetica,sans-Serif" font-size="10.00">test</text>
</a>
</g>
</g>
</g>
</svg>
