<?xml version="1.0" encoding="UTF-8" standalone="no"?>
<!DOCTYPE svg PUBLIC "-//W3C//DTD SVG 1.1//EN"
 "http://www.w3.org/Graphics/SVG/1.1/DTD/svg11.dtd">
<!-- Generated by graphviz version 2.36.0 (20140111.2315)
 -->
<!-- Title: src/apps Pages: 1 -->
<svg width="476pt" height="111pt"
 viewBox="0.00 0.00 476.00 111.00" xmlns="http://www.w3.org/2000/svg" xmlns:xlink="http://www.w3.org/1999/xlink">
<g id="graph0" class="graph" transform="scale(1 1) rotate(0) translate(4 107)">
<title>src/apps</title>
<polygon fill="white" stroke="none" points="-4,4 -4,-107 472,-107 472,4 -4,4"/>
<g id="clust1" class="cluster"><title>clusterdir_68267d1309a1af8e8297ef4c3efbcdba</title>
<g id="a_clust1"><a xlink:href="dir_68267d1309a1af8e8297ef4c3efbcdba.html" target="_top" xlink:title="src">
<polygon fill="#ddddee" stroke="black" points="8,-8 8,-95 460,-95 460,-8 8,-8"/>
<text text-anchor="middle" x="234" y="-83" font-family="Helvetica,sans-Serif" font-size="10.00">src</text>
</a>
</g>
</g>
<g id="clust2" class="cluster"><title>clusterdir_53adf0b982dc8545998aae3f283a5a58</title>
<g id="a_clust2"><a xlink:href="dir_53adf0b982dc8545998aae3f283a5a58.html" target="_top">
<polygon fill="#eeeeff" stroke="black" points="16,-16 16,-68 452,-68 452,-16 16,-16"/>
</a>
</g>
</g>
<!-- dir_53adf0b982dc8545998aae3f283a5a58 -->
<g id="node1" class="node"><title>dir_53adf0b982dc8545998aae3f283a5a58</title>
<text text-anchor="middle" x="417" y="-39.5" font-family="Helvetica,sans-Serif" font-size="10.00">apps</text>
</g>
<!-- dir_1667a0e0ae003b1e9efd2e913ca7d2a6 -->
<g id="node2" class="node"><title>dir_1667a0e0ae003b1e9efd2e913ca7d2a6</title>
<g id="a_node2"><a xlink:href="dir_1667a0e0ae003b1e9efd2e913ca7d2a6.html" target="_top" xlink:title="autoreg">
<polygon fill="white" stroke="black" points="372,-60 318,-60 318,-24 372,-24 372,-60"/>
<text text-anchor="middle" x="345" y="-39.5" font-family="Helvetica,sans-Serif" font-size="10.00">autoreg</text>
</a>
</g>
</g>
<!-- dir_3a1117c7032e7a6cd843fb76c473df62 -->
<g id="node3" class="node"><title>dir_3a1117c7032e7a6cd843fb76c473df62</title>
<g id="a_node3"><a xlink:href="dir_3a1117c7032e7a6cd843fb76c473df62.html" target="_top" xlink:title="discovery">
<polygon fill="white" stroke="black" points="299.25,-60 240.75,-60 240.75,-24 299.25,-24 299.25,-60"/>
<text text-anchor="middle" x="270" y="-39.5" font-family="Helvetica,sans-Serif" font-size="10.00">discovery</text>
</a>
</g>
</g>
<!-- dir_24536ee32fa6f18c1ab4cc4a85cd7755 -->
<g id="node4" class="node"><title>dir_24536ee32fa6f18c1ab4cc4a85cd7755</title>
<g id="a_node4"><a xlink:href="dir_24536ee32fa6f18c1ab4cc4a85cd7755.html" target="_top" xlink:title="factory">
<polygon fill="white" stroke="black" points="222,-60 168,-60 168,-24 222,-24 222,-60"/>
<text text-anchor="middle" x="195" y="-39.5" font-family="Helvetica,sans-Serif" font-size="10.00">factory</text>
</a>
</g>
</g>
<!-- dir_f9cead73bb5e69e9f75c5a9a06c4ff5a -->
<g id="node5" class="node"><title>dir_f9cead73bb5e69e9f75c5a9a06c4ff5a</title>
<g id="a_node5"><a xlink:href="dir_f9cead73bb5e69e9f75c5a9a06c4ff5a.html" target="_top" xlink:title="spec">
<polygon fill="white" stroke="black" points="150,-60 96,-60 96,-24 150,-24 150,-60"/>
<text text-anchor="middle" x="123" y="-39.5" font-family="Helvetica,sans-Serif" font-size="10.00">spec</text>
</a>
</g>
</g>
<!-- dir_babd3d2367546d3c8753a845daedbdb5 -->
<g id="node6" class="node"><title>dir_babd3d2367546d3c8753a845daedbdb5</title>
<g id="a_node6"><a xlink:href="dir_babd3d2367546d3c8753a845daedbdb5.html" target="_top" xlink:title="web">
<polygon fill="white" stroke="black" points="78,-60 24,-60 24,-24 78,-24 78,-60"/>
<text text-anchor="middle" x="51" y="-39.5" font-family="Helvetica,sans-Serif" font-size="10.00">web</text>
</a>
</g>
</g>
</g>
</svg>
