<?xml version="1.0" encoding="UTF-8" standalone="no"?>
<!DOCTYPE svg PUBLIC "-//W3C//DTD SVG 1.1//EN"
 "http://www.w3.org/Graphics/SVG/1.1/DTD/svg11.dtd">
<!-- Generated by graphviz version 2.36.0 (20140111.2315)
 -->
<!-- Title: /home/travis/build/igankevich/bscheduler/src Pages: 1 -->
<svg width="326pt" height="76pt"
 viewBox="0.00 0.00 326.00 76.00" xmlns="http://www.w3.org/2000/svg" xmlns:xlink="http://www.w3.org/1999/xlink">
<g id="graph0" class="graph" transform="scale(1 1) rotate(0) translate(4 72)">
<title>/home/travis/build/igankevich/bscheduler/src</title>
<polygon fill="white" stroke="none" points="-4,4 -4,-72 322,-72 322,4 -4,4"/>
<g id="clust1" class="cluster"><title>clusterdir_68267d1309a1af8e8297ef4c3efbcdba</title>
<g id="a_clust1"><a xlink:href="dir_68267d1309a1af8e8297ef4c3efbcdba.html" target="_top">
<polygon fill="#eeeeff" stroke="black" points="8,-8 8,-60 310,-60 310,-8 8,-8"/>
</a>
</g>
</g>
<!-- dir_68267d1309a1af8e8297ef4c3efbcdba -->
<g id="node1" class="node"><title>dir_68267d1309a1af8e8297ef4c3efbcdba</title>
<text text-anchor="middle" x="275" y="-31.5" font-family="Helvetica,sans-Serif" font-size="10.00">src</text>
</g>
<!-- dir_9064d019dae850459a9718f9c65e62b5 -->
<g id="node2" class="node"><title>dir_9064d019dae850459a9718f9c65e62b5</title>
<g id="a_node2"><a xlink:href="dir_9064d019dae850459a9718f9c65e62b5.html" target="_top" xlink:title="bscheduler">
<polygon fill="white" stroke="red" points="230,-52 166,-52 166,-16 230,-16 230,-52"/>
<text text-anchor="middle" x="198" y="-31.5" font-family="Helvetica,sans-Serif" font-size="10.00">bscheduler</text>
</a>
</g>
</g>
<!-- dir_e931c1a3f0014e624d0645a271726ad2 -->
<g id="node3" class="node"><title>dir_e931c1a3f0014e624d0645a271726ad2</title>
<g id="a_node3"><a xlink:href="dir_e931c1a3f0014e624d0645a271726ad2.html" target="_top" xlink:title="examples">
<polygon fill="white" stroke="red" points="147.25,-52 88.75,-52 88.75,-16 147.25,-16 147.25,-52"/>
<text text-anchor="middle" x="118" y="-31.5" font-family="Helvetica,sans-Serif" font-size="10.00">examples</text>
</a>
</g>
</g>
<!-- dir_120ed4da3e3217b1e7fc0b4f48568e79 -->
<g id="node4" class="node"><title>dir_120ed4da3e3217b1e7fc0b4f48568e79</title>
<g id="a_node4"><a xlink:href="dir_120ed4da3e3217b1e7fc0b4f48568e79.html" target="_top" xlink:title="test">
<polygon fill="white" stroke="black" points="70,-52 16,-52 16,-16 70,-16 70,-52"/>
<text text-anchor="middle" x="43" y="-31.5" font-family="Helvetica,sans-Serif" font-size="10.00">test</text>
</a>
</g>
</g>
</g>
</svg>
