<?xml version="1.0" encoding="UTF-8" standalone="no"?>
<!DOCTYPE svg PUBLIC "-//W3C//DTD SVG 1.1//EN"
 "http://www.w3.org/Graphics/SVG/1.1/DTD/svg11.dtd">
<!-- Generated by graphviz version 2.36.0 (20140111.2315)
 -->
<!-- Title: /home/travis/build/igankevich/factory/src/examples Pages: 1 -->
<svg width="332pt" height="111pt"
 viewBox="0.00 0.00 332.00 111.00" xmlns="http://www.w3.org/2000/svg" xmlns:xlink="http://www.w3.org/1999/xlink">
<g id="graph0" class="graph" transform="scale(1 1) rotate(0) translate(4 107)">
<title>/home/travis/build/igankevich/factory/src/examples</title>
<polygon fill="white" stroke="none" points="-4,4 -4,-107 328,-107 328,4 -4,4"/>
<g id="clust1" class="cluster"><title>clusterdir_68267d1309a1af8e8297ef4c3efbcdba</title>
<g id="a_clust1"><a xlink:href="dir_68267d1309a1af8e8297ef4c3efbcdba.html" target="_top" xlink:title="src">
<polygon fill="#ddddee" stroke="black" points="8,-8 8,-95 316,-95 316,-8 8,-8"/>
<text text-anchor="middle" x="162" y="-83" font-family="Helvetica,sans-Serif" font-size="10.00">src</text>
</a>
</g>
</g>
<g id="clust2" class="cluster"><title>clusterdir_e931c1a3f0014e624d0645a271726ad2</title>
<g id="a_clust2"><a xlink:href="dir_e931c1a3f0014e624d0645a271726ad2.html" target="_top">
<polygon fill="#eeeeff" stroke="black" points="16,-16 16,-68 308,-68 308,-16 16,-16"/>
</a>
</g>
</g>
<!-- dir_e931c1a3f0014e624d0645a271726ad2 -->
<g id="node1" class="node"><title>dir_e931c1a3f0014e624d0645a271726ad2</title>
<text text-anchor="middle" x="270" y="-39.5" font-family="Helvetica,sans-Serif" font-size="10.00">examples</text>
</g>
<!-- dir_d5a82eb2ac910daf69f34bc6aeef9b6d -->
<g id="node2" class="node"><title>dir_d5a82eb2ac910daf69f34bc6aeef9b6d</title>
<g id="a_node2"><a xlink:href="dir_d5a82eb2ac910daf69f34bc6aeef9b6d.html" target="_top" xlink:title="autoreg">
<polygon fill="white" stroke="black" points="222,-60 168,-60 168,-24 222,-24 222,-60"/>
<text text-anchor="middle" x="195" y="-39.5" font-family="Helvetica,sans-Serif" font-size="10.00">autoreg</text>
</a>
</g>
</g>
<!-- dir_39a7156680b0b07371d868a2a5b07519 -->
<g id="node3" class="node"><title>dir_39a7156680b0b07371d868a2a5b07519</title>
<g id="a_node3"><a xlink:href="dir_39a7156680b0b07371d868a2a5b07519.html" target="_top" xlink:title="factory">
<polygon fill="white" stroke="black" points="150,-60 96,-60 96,-24 150,-24 150,-60"/>
<text text-anchor="middle" x="123" y="-39.5" font-family="Helvetica,sans-Serif" font-size="10.00">factory</text>
</a>
</g>
</g>
<!-- dir_100849c24c8fb9f8a82769c08d688f4c -->
<g id="node4" class="node"><title>dir_100849c24c8fb9f8a82769c08d688f4c</title>
<g id="a_node4"><a xlink:href="dir_100849c24c8fb9f8a82769c08d688f4c.html" target="_top" xlink:title="spec">
<polygon fill="white" stroke="black" points="78,-60 24,-60 24,-24 78,-24 78,-60"/>
<text text-anchor="middle" x="51" y="-39.5" font-family="Helvetica,sans-Serif" font-size="10.00">spec</text>
</a>
</g>
</g>
</g>
</svg>
