<?xml version="1.0" encoding="UTF-8" standalone="no"?>
<!DOCTYPE svg PUBLIC "-//W3C//DTD SVG 1.1//EN"
 "http://www.w3.org/Graphics/SVG/1.1/DTD/svg11.dtd">
<!-- Generated by graphviz version 2.36.0 (20140111.2315)
 -->
<!-- Title: /home/travis/build/igankevich/factory/src/bscheduler Pages: 1 -->
<svg width="408pt" height="111pt"
 viewBox="0.00 0.00 408.00 111.00" xmlns="http://www.w3.org/2000/svg" xmlns:xlink="http://www.w3.org/1999/xlink">
<g id="graph0" class="graph" transform="scale(1 1) rotate(0) translate(4 107)">
<title>/home/travis/build/igankevich/factory/src/bscheduler</title>
<polygon fill="white" stroke="none" points="-4,4 -4,-107 404,-107 404,4 -4,4"/>
<g id="clust1" class="cluster"><title>clusterdir_68267d1309a1af8e8297ef4c3efbcdba</title>
<g id="a_clust1"><a xlink:href="dir_68267d1309a1af8e8297ef4c3efbcdba.html" target="_top" xlink:title="src">
<polygon fill="#ddddee" stroke="black" points="8,-8 8,-95 392,-95 392,-8 8,-8"/>
<text text-anchor="middle" x="200" y="-83" font-family="Helvetica,sans-Serif" font-size="10.00">src</text>
</a>
</g>
</g>
<g id="clust2" class="cluster"><title>clusterdir_9064d019dae850459a9718f9c65e62b5</title>
<g id="a_clust2"><a xlink:href="dir_9064d019dae850459a9718f9c65e62b5.html" target="_top">
<polygon fill="#eeeeff" stroke="black" points="16,-16 16,-68 384,-68 384,-16 16,-16"/>
</a>
</g>
</g>
<!-- dir_9064d019dae850459a9718f9c65e62b5 -->
<g id="node1" class="node"><title>dir_9064d019dae850459a9718f9c65e62b5</title>
<text text-anchor="middle" x="344" y="-39.5" font-family="Helvetica,sans-Serif" font-size="10.00">bscheduler</text>
</g>
<!-- dir_f8cefcc49538e70c86c5517d7de976f5 -->
<g id="node2" class="node"><title>dir_f8cefcc49538e70c86c5517d7de976f5</title>
<g id="a_node2"><a xlink:href="dir_f8cefcc49538e70c86c5517d7de976f5.html" target="_top" xlink:title="base">
<polygon fill="white" stroke="black" points="294,-60 240,-60 240,-24 294,-24 294,-60"/>
<text text-anchor="middle" x="267" y="-39.5" font-family="Helvetica,sans-Serif" font-size="10.00">base</text>
</a>
</g>
</g>
<!-- dir_4bc0a80f170c59706b7d73392bd9ebae -->
<g id="node3" class="node"><title>dir_4bc0a80f170c59706b7d73392bd9ebae</title>
<g id="a_node3"><a xlink:href="dir_4bc0a80f170c59706b7d73392bd9ebae.html" target="_top" xlink:title="daemon">
<polygon fill="white" stroke="black" points="222,-60 168,-60 168,-24 222,-24 222,-60"/>
<text text-anchor="middle" x="195" y="-39.5" font-family="Helvetica,sans-Serif" font-size="10.00">daemon</text>
</a>
</g>
</g>
<!-- dir_cd2ce5e2c8584e866c53e83e2e4fa35c -->
<g id="node4" class="node"><title>dir_cd2ce5e2c8584e866c53e83e2e4fa35c</title>
<g id="a_node4"><a xlink:href="dir_cd2ce5e2c8584e866c53e83e2e4fa35c.html" target="_top" xlink:title="kernel">
<polygon fill="white" stroke="black" points="150,-60 96,-60 96,-24 150,-24 150,-60"/>
<text text-anchor="middle" x="123" y="-39.5" font-family="Helvetica,sans-Serif" font-size="10.00">kernel</text>
</a>
</g>
</g>
<!-- dir_ad561abfde7f3df40495259e7ef59026 -->
<g id="node5" class="node"><title>dir_ad561abfde7f3df40495259e7ef59026</title>
<g id="a_node5"><a xlink:href="dir_ad561abfde7f3df40495259e7ef59026.html" target="_top" xlink:title="ppl">
<polygon fill="white" stroke="black" points="78,-60 24,-60 24,-24 78,-24 78,-60"/>
<text text-anchor="middle" x="51" y="-39.5" font-family="Helvetica,sans-Serif" font-size="10.00">ppl</text>
</a>
</g>
</g>
</g>
</svg>
