<?xml version="1.0" encoding="UTF-8" standalone="no"?>
<!DOCTYPE svg PUBLIC "-//W3C//DTD SVG 1.1//EN"
 "http://www.w3.org/Graphics/SVG/1.1/DTD/svg11.dtd">
<!-- Generated by graphviz version 2.36.0 (20140111.2315)
 -->
<!-- Title: Graphical Class Hierarchy Pages: 1 -->
<svg width="650pt" height="430pt"
 viewBox="0.00 0.00 650.00 430.00" xmlns="http://www.w3.org/2000/svg" xmlns:xlink="http://www.w3.org/1999/xlink">
<g id="graph0" class="graph" transform="scale(1 1) rotate(0) translate(4 426)">
<title>Graphical Class Hierarchy</title>
<polygon fill="white" stroke="none" points="-4,4 -4,-426 646,-426 646,4 -4,4"/>
<!-- Node1 -->
<g id="node1" class="node"><title>Node1</title>
<g id="a_node1"><a xlink:href="structfactory_1_1pipeline__base.html" target="_top" xlink:title="factory::pipeline_base">
<polygon fill="white" stroke="black" points="0,-142.5 0,-161.5 112,-161.5 112,-142.5 0,-142.5"/>
<text text-anchor="middle" x="56" y="-149.5" font-family="Helvetica,sans-Serif" font-size="10.00">factory::pipeline_base</text>
</a>
</g>
</g>
<!-- Node2 -->
<g id="node2" class="node"><title>Node2</title>
<g id="a_node2"><a xlink:href="classfactory_1_1basic__pipeline.html" target="_top" xlink:title="factory::basic_pipeline\&lt; T \&gt;">
<polygon fill="white" stroke="black" points="152,-355.5 152,-374.5 290,-374.5 290,-355.5 152,-355.5"/>
<text text-anchor="middle" x="221" y="-362.5" font-family="Helvetica,sans-Serif" font-size="10.00">factory::basic_pipeline&lt; T &gt;</text>
</a>
</g>
</g>
<!-- Node1&#45;&gt;Node2 -->
<g id="edge1" class="edge"><title>Node1&#45;&gt;Node2</title>
<path fill="none" stroke="midnightblue" d="M64.643,-170.935C78.0818,-202.637 108.324,-267.368 148,-312 164.087,-330.097 187.305,-345.819 202.988,-355.341"/>
<polygon fill="midnightblue" stroke="midnightblue" points="67.8048,-169.422 60.7403,-161.526 61.339,-172.104 67.8048,-169.422"/>
</g>
<!-- Node5 -->
<g id="node5" class="node"><title>Node5</title>
<g id="a_node5"><a xlink:href="structfactory_1_1Buffered__pipeline.html" target="_top" xlink:title="factory::Buffered_pipeline\l\&lt; T, Router \&gt;">
<polygon fill="white" stroke="black" points="157,-273 157,-303 285,-303 285,-273 157,-273"/>
<text text-anchor="start" x="165" y="-291" font-family="Helvetica,sans-Serif" font-size="10.00">factory::Buffered_pipeline</text>
<text text-anchor="middle" x="221" y="-280" font-family="Helvetica,sans-Serif" font-size="10.00">&lt; T, Router &gt;</text>
</a>
</g>
</g>
<!-- Node1&#45;&gt;Node5 -->
<g id="edge4" class="edge"><title>Node1&#45;&gt;Node5</title>
<path fill="none" stroke="midnightblue" d="M70.8774,-169.28C87.6975,-189.517 117.584,-223.283 148,-247 160.591,-256.818 175.8,-265.83 188.989,-272.89"/>
<polygon fill="midnightblue" stroke="midnightblue" points="73.5509,-167.02 64.5054,-161.504 68.1366,-171.457 73.5509,-167.02"/>
</g>
<!-- Node7 -->
<g id="node7" class="node"><title>Node7</title>
<g id="a_node7"><a xlink:href="classfactory_1_1basic__pipeline.html" target="_top" xlink:title="factory::basic_pipeline\l\&lt; T, Kernels, Traits,\l Threads, Mutex, Lock,\l Semaphore \&gt;">
<polygon fill="white" stroke="black" points="162,-186 162,-238 280,-238 280,-186 162,-186"/>
<text text-anchor="start" x="170" y="-226" font-family="Helvetica,sans-Serif" font-size="10.00">factory::basic_pipeline</text>
<text text-anchor="start" x="170" y="-215" font-family="Helvetica,sans-Serif" font-size="10.00">&lt; T, Kernels, Traits,</text>
<text text-anchor="start" x="170" y="-204" font-family="Helvetica,sans-Serif" font-size="10.00"> Threads, Mutex, Lock,</text>
<text text-anchor="middle" x="221" y="-193" font-family="Helvetica,sans-Serif" font-size="10.00"> Semaphore &gt;</text>
</a>
</g>
</g>
<!-- Node1&#45;&gt;Node7 -->
<g id="edge6" class="edge"><title>Node1&#45;&gt;Node7</title>
<path fill="none" stroke="midnightblue" d="M92.2986,-164.993C112.601,-172.467 138.616,-182.043 161.862,-190.599"/>
<polygon fill="midnightblue" stroke="midnightblue" points="93.4213,-161.677 82.8278,-161.507 91.0032,-168.246 93.4213,-161.677"/>
</g>
<!-- Node19 -->
<g id="node19" class="node"><title>Node19</title>
<g id="a_node19"><a xlink:href="structfactory_1_1Buffered__pipeline.html" target="_top" xlink:title="factory::Buffered_pipeline\l\&lt; T, Router, Kernels, Traits \&gt;">
<polygon fill="white" stroke="black" points="148,-137 148,-167 294,-167 294,-137 148,-137"/>
<text text-anchor="start" x="156" y="-155" font-family="Helvetica,sans-Serif" font-size="10.00">factory::Buffered_pipeline</text>
<text text-anchor="middle" x="221" y="-144" font-family="Helvetica,sans-Serif" font-size="10.00">&lt; T, Router, Kernels, Traits &gt;</text>
</a>
</g>
</g>
<!-- Node1&#45;&gt;Node19 -->
<g id="edge18" class="edge"><title>Node1&#45;&gt;Node19</title>
<path fill="none" stroke="midnightblue" d="M122.285,-152C130.684,-152 139.322,-152 147.824,-152"/>
<polygon fill="midnightblue" stroke="midnightblue" points="122.184,-148.5 112.184,-152 122.184,-155.5 122.184,-148.5"/>
</g>
<!-- Node20 -->
<g id="node20" class="node"><title>Node20</title>
<g id="a_node20"><a xlink:href="classfactory_1_1Factory.html" target="_top" xlink:title="factory::Factory\&lt; T \&gt;">
<polygon fill="white" stroke="black" points="166,-98.5 166,-117.5 276,-117.5 276,-98.5 166,-98.5"/>
<text text-anchor="middle" x="221" y="-105.5" font-family="Helvetica,sans-Serif" font-size="10.00">factory::Factory&lt; T &gt;</text>
</a>
</g>
</g>
<!-- Node1&#45;&gt;Node20 -->
<g id="edge19" class="edge"><title>Node1&#45;&gt;Node20</title>
<path fill="none" stroke="midnightblue" d="M102.028,-139.845C128.111,-132.805 160.472,-124.069 184.7,-117.529"/>
<polygon fill="midnightblue" stroke="midnightblue" points="101.111,-136.467 92.3686,-142.453 102.935,-143.226 101.111,-136.467"/>
</g>
<!-- Node21 -->
<g id="node21" class="node"><title>Node21</title>
<g id="a_node21"><a xlink:href="classfactory_1_1Multi__pipeline.html" target="_top" xlink:title="factory::Multi_pipeline\&lt; T \&gt;">
<polygon fill="white" stroke="black" points="153,-60.5 153,-79.5 289,-79.5 289,-60.5 153,-60.5"/>
<text text-anchor="middle" x="221" y="-67.5" font-family="Helvetica,sans-Serif" font-size="10.00">factory::Multi_pipeline&lt; T &gt;</text>
</a>
</g>
</g>
<!-- Node1&#45;&gt;Node21 -->
<g id="edge20" class="edge"><title>Node1&#45;&gt;Node21</title>
<path fill="none" stroke="midnightblue" d="M75.7922,-136.053C93.4073,-121.848 121.004,-101.439 148,-89 156.219,-85.2129 165.327,-82.0763 174.222,-79.5176"/>
<polygon fill="midnightblue" stroke="midnightblue" points="73.494,-133.412 67.993,-142.466 77.94,-138.818 73.494,-133.412"/>
</g>
<!-- Node22 -->
<g id="node22" class="node"><title>Node22</title>
<g id="a_node22"><a xlink:href="structfactory_1_1remote__client.html" target="_top" xlink:title="factory::remote_client\l\&lt; T, Socket, Router, Kernels,\l Traits \&gt;">
<polygon fill="white" stroke="black" points="148,-0.5 148,-41.5 294,-41.5 294,-0.5 148,-0.5"/>
<text text-anchor="start" x="156" y="-29.5" font-family="Helvetica,sans-Serif" font-size="10.00">factory::remote_client</text>
<text text-anchor="start" x="156" y="-18.5" font-family="Helvetica,sans-Serif" font-size="10.00">&lt; T, Socket, Router, Kernels,</text>
<text text-anchor="middle" x="221" y="-7.5" font-family="Helvetica,sans-Serif" font-size="10.00"> Traits &gt;</text>
</a>
</g>
</g>
<!-- Node1&#45;&gt;Node22 -->
<g id="edge21" class="edge"><title>Node1&#45;&gt;Node22</title>
<path fill="none" stroke="midnightblue" d="M69.4009,-133.897C85.3513,-111.77 114.965,-74.3907 148,-51 152.863,-47.5569 158.181,-44.4111 163.654,-41.5622"/>
<polygon fill="midnightblue" stroke="midnightblue" points="66.3347,-132.172 63.4314,-142.362 72.0551,-136.207 66.3347,-132.172"/>
</g>
<!-- Node3 -->
<g id="node3" class="node"><title>Node3</title>
<g id="a_node3"><a xlink:href="classfactory_1_1parallel__pipeline.html" target="_top" xlink:title="factory::parallel_pipeline\&lt; T \&gt;">
<polygon fill="white" stroke="black" points="332,-402.5 332,-421.5 478,-421.5 478,-402.5 332,-402.5"/>
<text text-anchor="middle" x="405" y="-409.5" font-family="Helvetica,sans-Serif" font-size="10.00">factory::parallel_pipeline&lt; T &gt;</text>
</a>
</g>
</g>
<!-- Node2&#45;&gt;Node3 -->
<g id="edge2" class="edge"><title>Node2&#45;&gt;Node3</title>
<path fill="none" stroke="midnightblue" d="M268.812,-377.089C299.317,-384.966 338.57,-395.103 366.912,-402.422"/>
<polygon fill="midnightblue" stroke="midnightblue" points="269.388,-373.623 258.83,-374.511 267.638,-380.4 269.388,-373.623"/>
</g>
<!-- Node4 -->
<g id="node4" class="node"><title>Node4</title>
<g id="a_node4"><a xlink:href="structfactory_1_1io__pipeline.html" target="_top" xlink:title="factory::io_pipeline\&lt; T \&gt;">
<polygon fill="white" stroke="black" points="518,-402.5 518,-421.5 640,-421.5 640,-402.5 518,-402.5"/>
<text text-anchor="middle" x="579" y="-409.5" font-family="Helvetica,sans-Serif" font-size="10.00">factory::io_pipeline&lt; T &gt;</text>
</a>
</g>
</g>
<!-- Node3&#45;&gt;Node4 -->
<g id="edge3" class="edge"><title>Node3&#45;&gt;Node4</title>
<path fill="none" stroke="midnightblue" d="M488.664,-412C498.511,-412 508.416,-412 517.863,-412"/>
<polygon fill="midnightblue" stroke="midnightblue" points="488.445,-408.5 478.445,-412 488.445,-415.5 488.445,-408.5"/>
</g>
<!-- Node6 -->
<g id="node6" class="node"><title>Node6</title>
<g id="a_node6"><a xlink:href="structfactory_1_1process__handler.html" target="_top" xlink:title="factory::process_handler\l\&lt; T, Router \&gt;">
<polygon fill="white" stroke="black" points="343,-353 343,-383 467,-383 467,-353 343,-353"/>
<text text-anchor="start" x="351" y="-371" font-family="Helvetica,sans-Serif" font-size="10.00">factory::process_handler</text>
<text text-anchor="middle" x="405" y="-360" font-family="Helvetica,sans-Serif" font-size="10.00">&lt; T, Router &gt;</text>
</a>
</g>
</g>
<!-- Node5&#45;&gt;Node6 -->
<g id="edge5" class="edge"><title>Node5&#45;&gt;Node6</title>
<path fill="none" stroke="midnightblue" d="M258.062,-308.027C278.763,-319.1 305.446,-332.665 330,-343 338.249,-346.472 347.163,-349.816 355.851,-352.866"/>
<polygon fill="midnightblue" stroke="midnightblue" points="259.464,-304.806 249.001,-303.136 256.138,-310.966 259.464,-304.806"/>
</g>
<!-- Node8 -->
<g id="node8" class="node"><title>Node8</title>
<g id="a_node8"><a xlink:href="structfactory_1_1basic__socket__pipeline.html" target="_top" xlink:title="factory::basic_socket\l_pipeline\&lt; T, process\l_handler\&lt; T, basic_router\l\&lt; T \&gt; \&gt; \&gt;">
<polygon fill="white" stroke="black" points="341,-282 341,-334 469,-334 469,-282 341,-282"/>
<text text-anchor="start" x="349" y="-322" font-family="Helvetica,sans-Serif" font-size="10.00">factory::basic_socket</text>
<text text-anchor="start" x="349" y="-311" font-family="Helvetica,sans-Serif" font-size="10.00">_pipeline&lt; T, process</text>
<text text-anchor="start" x="349" y="-300" font-family="Helvetica,sans-Serif" font-size="10.00">_handler&lt; T, basic_router</text>
<text text-anchor="middle" x="405" y="-289" font-family="Helvetica,sans-Serif" font-size="10.00">&lt; T &gt; &gt; &gt;</text>
</a>
</g>
</g>
<!-- Node7&#45;&gt;Node8 -->
<g id="edge7" class="edge"><title>Node7&#45;&gt;Node8</title>
<path fill="none" stroke="midnightblue" d="M277.925,-243.054C294.611,-252.183 312.987,-262.103 330,-271 336.873,-274.594 344.14,-278.318 351.327,-281.958"/>
<polygon fill="midnightblue" stroke="midnightblue" points="279.299,-239.816 268.848,-238.075 275.932,-245.953 279.299,-239.816"/>
</g>
<!-- Node10 -->
<g id="node10" class="node"><title>Node10</title>
<g id="a_node10"><a xlink:href="structfactory_1_1basic__socket__pipeline.html" target="_top" xlink:title="factory::basic_socket\l_pipeline\&lt; T, process\l_handler\&lt; T, Router \&gt; \&gt;">
<polygon fill="white" stroke="black" points="344,-221.5 344,-262.5 466,-262.5 466,-221.5 344,-221.5"/>
<text text-anchor="start" x="352" y="-250.5" font-family="Helvetica,sans-Serif" font-size="10.00">factory::basic_socket</text>
<text text-anchor="start" x="352" y="-239.5" font-family="Helvetica,sans-Serif" font-size="10.00">_pipeline&lt; T, process</text>
<text text-anchor="middle" x="405" y="-228.5" font-family="Helvetica,sans-Serif" font-size="10.00">_handler&lt; T, Router &gt; &gt;</text>
</a>
</g>
</g>
<!-- Node7&#45;&gt;Node10 -->
<g id="edge9" class="edge"><title>Node7&#45;&gt;Node10</title>
<path fill="none" stroke="midnightblue" d="M290.306,-223.259C307.938,-226.166 326.785,-229.272 343.961,-232.103"/>
<polygon fill="midnightblue" stroke="midnightblue" points="290.522,-219.748 280.086,-221.575 289.384,-226.655 290.522,-219.748"/>
</g>
<!-- Node13 -->
<g id="node13" class="node"><title>Node13</title>
<g id="a_node13"><a xlink:href="structfactory_1_1basic__socket__pipeline.html" target="_top" xlink:title="factory::basic_socket\l_pipeline\&lt; T, remote\l_client\&lt; T, Socket, Router \&gt; \&gt;">
<polygon fill="white" stroke="black" points="330,-161.5 330,-202.5 480,-202.5 480,-161.5 330,-161.5"/>
<text text-anchor="start" x="338" y="-190.5" font-family="Helvetica,sans-Serif" font-size="10.00">factory::basic_socket</text>
<text text-anchor="start" x="338" y="-179.5" font-family="Helvetica,sans-Serif" font-size="10.00">_pipeline&lt; T, remote</text>
<text text-anchor="middle" x="405" y="-168.5" font-family="Helvetica,sans-Serif" font-size="10.00">_client&lt; T, Socket, Router &gt; &gt;</text>
</a>
</g>
</g>
<!-- Node7&#45;&gt;Node13 -->
<g id="edge12" class="edge"><title>Node7&#45;&gt;Node13</title>
<path fill="none" stroke="midnightblue" d="M290.276,-200.746C303.182,-198.618 316.74,-196.384 329.818,-194.228"/>
<polygon fill="midnightblue" stroke="midnightblue" points="289.384,-197.345 280.086,-202.425 290.522,-204.252 289.384,-197.345"/>
</g>
<!-- Node15 -->
<g id="node15" class="node"><title>Node15</title>
<g id="a_node15"><a xlink:href="structfactory_1_1basic__socket__pipeline.html" target="_top" xlink:title="factory::basic_socket\l_pipeline\&lt; T, remote\l_client\&lt; T, sys::socket,\l basic_router\&lt; T \&gt; \&gt; \&gt;">
<polygon fill="white" stroke="black" points="345,-90 345,-142 465,-142 465,-90 345,-90"/>
<text text-anchor="start" x="353" y="-130" font-family="Helvetica,sans-Serif" font-size="10.00">factory::basic_socket</text>
<text text-anchor="start" x="353" y="-119" font-family="Helvetica,sans-Serif" font-size="10.00">_pipeline&lt; T, remote</text>
<text text-anchor="start" x="353" y="-108" font-family="Helvetica,sans-Serif" font-size="10.00">_client&lt; T, sys::socket,</text>
<text text-anchor="middle" x="405" y="-97" font-family="Helvetica,sans-Serif" font-size="10.00"> basic_router&lt; T &gt; &gt; &gt;</text>
</a>
</g>
</g>
<!-- Node7&#45;&gt;Node15 -->
<g id="edge14" class="edge"><title>Node7&#45;&gt;Node15</title>
<path fill="none" stroke="midnightblue" d="M284.788,-181.194C287.922,-179.473 291.008,-177.736 294,-176 310.632,-166.348 313.316,-161.561 330,-152 335.826,-148.661 342.007,-145.335 348.216,-142.129"/>
<polygon fill="midnightblue" stroke="midnightblue" points="283.016,-178.173 275.865,-185.991 286.33,-184.339 283.016,-178.173"/>
</g>
<!-- Node17 -->
<g id="node17" class="node"><title>Node17</title>
<g id="a_node17"><a xlink:href="structfactory_1_1basic__socket__pipeline.html" target="_top" xlink:title="factory::basic_socket\l_pipeline\&lt; T, Handler \&gt;">
<polygon fill="white" stroke="black" points="345.5,-41 345.5,-71 464.5,-71 464.5,-41 345.5,-41"/>
<text text-anchor="start" x="353.5" y="-59" font-family="Helvetica,sans-Serif" font-size="10.00">factory::basic_socket</text>
<text text-anchor="middle" x="405" y="-48" font-family="Helvetica,sans-Serif" font-size="10.00">_pipeline&lt; T, Handler &gt;</text>
</a>
</g>
</g>
<!-- Node7&#45;&gt;Node17 -->
<g id="edge16" class="edge"><title>Node7&#45;&gt;Node17</title>
<path fill="none" stroke="midnightblue" d="M288.361,-181.587C290.352,-179.815 292.241,-177.954 294,-176 324.488,-142.134 297.059,-111.486 330,-80 334.491,-75.7072 339.758,-72.1822 345.376,-69.2877"/>
<polygon fill="midnightblue" stroke="midnightblue" points="285.93,-179.046 280.238,-187.981 290.26,-184.546 285.93,-179.046"/>
</g>
<!-- Node18 -->
<g id="node18" class="node"><title>Node18</title>
<g id="a_node18"><a xlink:href="structfactory_1_1timer__pipeline.html" target="_top" xlink:title="factory::timer_pipeline\&lt; T \&gt;">
<polygon fill="white" stroke="black" points="336.5,-2.5 336.5,-21.5 473.5,-21.5 473.5,-2.5 336.5,-2.5"/>
<text text-anchor="middle" x="405" y="-9.5" font-family="Helvetica,sans-Serif" font-size="10.00">factory::timer_pipeline&lt; T &gt;</text>
</a>
</g>
</g>
<!-- Node7&#45;&gt;Node18 -->
<g id="edge17" class="edge"><title>Node7&#45;&gt;Node18</title>
<path fill="none" stroke="midnightblue" d="M287.959,-182.505C290.129,-180.467 292.157,-178.301 294,-176 335.507,-124.171 283.235,-78.1394 330,-31 333.83,-27.1393 338.331,-24.0279 343.191,-21.5248"/>
<polygon fill="midnightblue" stroke="midnightblue" points="285.612,-179.904 280.096,-188.95 290.049,-185.318 285.612,-179.904"/>
</g>
<!-- Node9 -->
<g id="node9" class="node"><title>Node9</title>
<g id="a_node9"><a xlink:href="structfactory_1_1process__pipeline.html" target="_top" xlink:title="factory::process_pipeline\l\&lt; T, basic_router\&lt; T \&gt; \&gt;">
<polygon fill="white" stroke="black" points="516.5,-308 516.5,-338 641.5,-338 641.5,-308 516.5,-308"/>
<text text-anchor="start" x="524.5" y="-326" font-family="Helvetica,sans-Serif" font-size="10.00">factory::process_pipeline</text>
<text text-anchor="middle" x="579" y="-315" font-family="Helvetica,sans-Serif" font-size="10.00">&lt; T, basic_router&lt; T &gt; &gt;</text>
</a>
</g>
</g>
<!-- Node8&#45;&gt;Node9 -->
<g id="edge8" class="edge"><title>Node8&#45;&gt;Node9</title>
<path fill="none" stroke="midnightblue" d="M479.329,-314.395C491.67,-315.471 504.367,-316.579 516.373,-317.626"/>
<polygon fill="midnightblue" stroke="midnightblue" points="479.336,-310.882 469.07,-313.5 478.728,-317.856 479.336,-310.882"/>
</g>
<!-- Node11 -->
<g id="node11" class="node"><title>Node11</title>
<g id="a_node11"><a xlink:href="structfactory_1_1child__process__pipeline.html" target="_top" xlink:title="factory::child_process\l_pipeline\&lt; T, Router \&gt;">
<polygon fill="white" stroke="black" points="522,-259 522,-289 636,-289 636,-259 522,-259"/>
<text text-anchor="start" x="530" y="-277" font-family="Helvetica,sans-Serif" font-size="10.00">factory::child_process</text>
<text text-anchor="middle" x="579" y="-266" font-family="Helvetica,sans-Serif" font-size="10.00">_pipeline&lt; T, Router &gt;</text>
</a>
</g>
</g>
<!-- Node10&#45;&gt;Node11 -->
<g id="edge10" class="edge"><title>Node10&#45;&gt;Node11</title>
<path fill="none" stroke="midnightblue" d="M476.065,-255.035C491.326,-257.875 507.281,-260.843 521.915,-263.566"/>
<polygon fill="midnightblue" stroke="midnightblue" points="476.629,-251.58 466.157,-253.192 475.348,-258.462 476.629,-251.58"/>
</g>
<!-- Node12 -->
<g id="node12" class="node"><title>Node12</title>
<g id="a_node12"><a xlink:href="structfactory_1_1process__pipeline.html" target="_top" xlink:title="factory::process_pipeline\l\&lt; T, Router \&gt;">
<polygon fill="white" stroke="black" points="516.5,-210 516.5,-240 641.5,-240 641.5,-210 516.5,-210"/>
<text text-anchor="start" x="524.5" y="-228" font-family="Helvetica,sans-Serif" font-size="10.00">factory::process_pipeline</text>
<text text-anchor="middle" x="579" y="-217" font-family="Helvetica,sans-Serif" font-size="10.00">&lt; T, Router &gt;</text>
</a>
</g>
</g>
<!-- Node10&#45;&gt;Node12 -->
<g id="edge11" class="edge"><title>Node10&#45;&gt;Node12</title>
<path fill="none" stroke="midnightblue" d="M476.221,-235.06C489.544,-233.743 503.39,-232.374 516.42,-231.086"/>
<polygon fill="midnightblue" stroke="midnightblue" points="475.764,-231.588 466.157,-236.054 476.453,-238.554 475.764,-231.588"/>
</g>
<!-- Node14 -->
<g id="node14" class="node"><title>Node14</title>
<g id="a_node14"><a xlink:href="structfactory_1_1socket__pipeline.html" target="_top" xlink:title="factory::socket_pipeline\l\&lt; T, Socket, Router \&gt;">
<polygon fill="white" stroke="black" points="519,-161 519,-191 639,-191 639,-161 519,-161"/>
<text text-anchor="start" x="527" y="-179" font-family="Helvetica,sans-Serif" font-size="10.00">factory::socket_pipeline</text>
<text text-anchor="middle" x="579" y="-168" font-family="Helvetica,sans-Serif" font-size="10.00">&lt; T, Socket, Router &gt;</text>
</a>
</g>
</g>
<!-- Node13&#45;&gt;Node14 -->
<g id="edge13" class="edge"><title>Node13&#45;&gt;Node14</title>
<path fill="none" stroke="midnightblue" d="M490.229,-179.062C499.891,-178.725 509.582,-178.387 518.816,-178.065"/>
<polygon fill="midnightblue" stroke="midnightblue" points="490.063,-175.565 480.191,-179.412 490.307,-182.561 490.063,-175.565"/>
</g>
<!-- Node16 -->
<g id="node16" class="node"><title>Node16</title>
<g id="a_node16"><a xlink:href="structfactory_1_1socket__pipeline.html" target="_top" xlink:title="factory::socket_pipeline\l\&lt; T, sys::socket, basic\l_router\&lt; T \&gt; \&gt;">
<polygon fill="white" stroke="black" points="519,-95.5 519,-136.5 639,-136.5 639,-95.5 519,-95.5"/>
<text text-anchor="start" x="527" y="-124.5" font-family="Helvetica,sans-Serif" font-size="10.00">factory::socket_pipeline</text>
<text text-anchor="start" x="527" y="-113.5" font-family="Helvetica,sans-Serif" font-size="10.00">&lt; T, sys::socket, basic</text>
<text text-anchor="middle" x="579" y="-102.5" font-family="Helvetica,sans-Serif" font-size="10.00">_router&lt; T &gt; &gt;</text>
</a>
</g>
</g>
<!-- Node15&#45;&gt;Node16 -->
<g id="edge15" class="edge"><title>Node15&#45;&gt;Node16</title>
<path fill="none" stroke="midnightblue" d="M475.546,-116C489.954,-116 505.002,-116 518.99,-116"/>
<polygon fill="midnightblue" stroke="midnightblue" points="475.193,-112.5 465.193,-116 475.193,-119.5 475.193,-112.5"/>
</g>
</g>
</svg>
