<?xml version="1.0" encoding="UTF-8" standalone="no"?>
<!DOCTYPE svg PUBLIC "-//W3C//DTD SVG 1.1//EN"
 "http://www.w3.org/Graphics/SVG/1.1/DTD/svg11.dtd">
<!-- Generated by graphviz version 2.36.0 (20140111.2315)
 -->
<!-- Title: Graphical Class Hierarchy Pages: 1 -->
<svg width="728pt" height="720pt"
 viewBox="0.00 0.00 728.00 720.00" xmlns="http://www.w3.org/2000/svg" xmlns:xlink="http://www.w3.org/1999/xlink">
<g id="graph0" class="graph" transform="scale(1 1) rotate(0) translate(4 716)">
<title>Graphical Class Hierarchy</title>
<polygon fill="white" stroke="none" points="-4,4 -4,-716 724,-716 724,4 -4,4"/>
<!-- Node1 -->
<g id="node1" class="node"><title>Node1</title>
<polygon fill="white" stroke="#bfbfbf" points="318,-480.5 318,-499.5 362,-499.5 362,-480.5 318,-480.5"/>
<text text-anchor="middle" x="340" y="-487.5" font-family="Helvetica,sans-Serif" font-size="10.00">Kernel</text>
</g>
<!-- Node2 -->
<g id="node2" class="node"><title>Node2</title>
<g id="a_node2"><a xlink:href="structautoreg_1_1ACF__generator.html" target="_top" xlink:title="autoreg::ACF_generator\&lt; T \&gt;">
<polygon fill="white" stroke="black" points="416.5,-540.5 416.5,-559.5 561.5,-559.5 561.5,-540.5 416.5,-540.5"/>
<text text-anchor="middle" x="489" y="-547.5" font-family="Helvetica,sans-Serif" font-size="10.00">autoreg::ACF_generator&lt; T &gt;</text>
</a>
</g>
</g>
<!-- Node1&#45;&gt;Node2 -->
<g id="edge1" class="edge"><title>Node1&#45;&gt;Node2</title>
<path fill="none" stroke="midnightblue" d="M364.727,-504.908C379.133,-513.461 398.133,-523.881 416,-531 425.127,-534.637 435.181,-537.788 444.807,-540.423"/>
<polygon fill="midnightblue" stroke="midnightblue" points="366.348,-501.798 355.982,-499.61 362.721,-507.785 366.348,-501.798"/>
</g>
<!-- Node3 -->
<g id="node3" class="node"><title>Node3</title>
<g id="a_node3"><a xlink:href="structautoreg_1_1Autoreg__coefs.html" target="_top" xlink:title="autoreg::Autoreg_coefs\&lt; T \&gt;">
<polygon fill="white" stroke="black" points="418,-502.5 418,-521.5 560,-521.5 560,-502.5 418,-502.5"/>
<text text-anchor="middle" x="489" y="-509.5" font-family="Helvetica,sans-Serif" font-size="10.00">autoreg::Autoreg_coefs&lt; T &gt;</text>
</a>
</g>
</g>
<!-- Node1&#45;&gt;Node3 -->
<g id="edge2" class="edge"><title>Node1&#45;&gt;Node3</title>
<path fill="none" stroke="midnightblue" d="M371.967,-494.635C387.215,-496.917 406.186,-499.756 424.342,-502.473"/>
<polygon fill="midnightblue" stroke="midnightblue" points="372.469,-491.171 362.062,-493.152 371.433,-498.094 372.469,-491.171"/>
</g>
<!-- Node4 -->
<g id="node4" class="node"><title>Node4</title>
<g id="a_node4"><a xlink:href="structautoreg_1_1Generator1.html" target="_top" xlink:title="autoreg::Generator1\l\&lt; T, Grid \&gt;">
<polygon fill="white" stroke="black" points="437.5,-453 437.5,-483 540.5,-483 540.5,-453 437.5,-453"/>
<text text-anchor="start" x="445.5" y="-471" font-family="Helvetica,sans-Serif" font-size="10.00">autoreg::Generator1</text>
<text text-anchor="middle" x="489" y="-460" font-family="Helvetica,sans-Serif" font-size="10.00">&lt; T, Grid &gt;</text>
</a>
</g>
</g>
<!-- Node1&#45;&gt;Node4 -->
<g id="edge3" class="edge"><title>Node1&#45;&gt;Node4</title>
<path fill="none" stroke="midnightblue" d="M371.959,-485.367C390.943,-482.526 415.701,-478.82 437.47,-475.562"/>
<polygon fill="midnightblue" stroke="midnightblue" points="371.433,-481.906 362.062,-486.848 372.469,-488.829 371.433,-481.906"/>
</g>
<!-- Node5 -->
<g id="node5" class="node"><title>Node5</title>
<g id="a_node5"><a xlink:href="structautoreg_1_1Solve__Yule__Walker.html" target="_top" xlink:title="autoreg::Solve_Yule\l_Walker\&lt; T \&gt;">
<polygon fill="white" stroke="black" points="437,-404 437,-434 541,-434 541,-404 437,-404"/>
<text text-anchor="start" x="445" y="-422" font-family="Helvetica,sans-Serif" font-size="10.00">autoreg::Solve_Yule</text>
<text text-anchor="middle" x="489" y="-411" font-family="Helvetica,sans-Serif" font-size="10.00">_Walker&lt; T &gt;</text>
</a>
</g>
</g>
<!-- Node1&#45;&gt;Node5 -->
<g id="edge4" class="edge"><title>Node1&#45;&gt;Node5</title>
<path fill="none" stroke="midnightblue" d="M362.941,-474.795C377.529,-465.131 397.364,-452.823 416,-444 423.534,-440.433 431.721,-437.107 439.782,-434.121"/>
<polygon fill="midnightblue" stroke="midnightblue" points="360.933,-471.928 354.593,-480.417 364.843,-477.734 360.933,-471.928"/>
</g>
<!-- Node6 -->
<g id="node6" class="node"><title>Node6</title>
<g id="a_node6"><a xlink:href="structautoreg_1_1Wave__surface__generator.html" target="_top" xlink:title="autoreg::Wave_surface\l_generator\&lt; T, Grid \&gt;">
<polygon fill="white" stroke="black" points="430,-355 430,-385 548,-385 548,-355 430,-355"/>
<text text-anchor="start" x="438" y="-373" font-family="Helvetica,sans-Serif" font-size="10.00">autoreg::Wave_surface</text>
<text text-anchor="middle" x="489" y="-362" font-family="Helvetica,sans-Serif" font-size="10.00">_generator&lt; T, Grid &gt;</text>
</a>
</g>
</g>
<!-- Node1&#45;&gt;Node6 -->
<g id="edge5" class="edge"><title>Node1&#45;&gt;Node6</title>
<path fill="none" stroke="midnightblue" d="M351.05,-471.713C363.618,-450.436 387.046,-415.599 416,-395 421.391,-391.165 427.423,-387.874 433.639,-385.061"/>
<polygon fill="midnightblue" stroke="midnightblue" points="347.988,-470.017 346.058,-480.435 354.063,-473.494 347.988,-470.017"/>
</g>
<!-- Node7 -->
<g id="node7" class="node"><title>Node7</title>
<g id="a_node7"><a xlink:href="structAutoreg__app.html" target="_top" xlink:title="Autoreg_app">
<polygon fill="white" stroke="black" points="453.5,-316.5 453.5,-335.5 524.5,-335.5 524.5,-316.5 453.5,-316.5"/>
<text text-anchor="middle" x="489" y="-323.5" font-family="Helvetica,sans-Serif" font-size="10.00">Autoreg_app</text>
</a>
</g>
</g>
<!-- Node1&#45;&gt;Node7 -->
<g id="edge6" class="edge"><title>Node1&#45;&gt;Node7</title>
<path fill="none" stroke="midnightblue" d="M345.846,-470.165C354.502,-438.988 375.618,-378.708 416,-346 426.585,-337.426 440.6,-332.521 453.45,-329.718"/>
<polygon fill="midnightblue" stroke="midnightblue" points="342.358,-469.668 343.208,-480.229 349.129,-471.443 342.358,-469.668"/>
</g>
<!-- Node8 -->
<g id="node8" class="node"><title>Node8</title>
<g id="a_node8"><a xlink:href="structLauncher.html" target="_top" xlink:title="Launcher">
<polygon fill="white" stroke="black" points="461,-692.5 461,-711.5 517,-711.5 517,-692.5 461,-692.5"/>
<text text-anchor="middle" x="489" y="-699.5" font-family="Helvetica,sans-Serif" font-size="10.00">Launcher</text>
</a>
</g>
</g>
<!-- Node1&#45;&gt;Node8 -->
<g id="edge7" class="edge"><title>Node1&#45;&gt;Node8</title>
<path fill="none" stroke="midnightblue" d="M342.857,-509.834C347.607,-548.967 363.782,-636.356 416,-683 428.245,-693.938 446.06,-698.699 460.906,-700.721"/>
<polygon fill="midnightblue" stroke="midnightblue" points="346.321,-509.305 341.761,-499.742 339.362,-510.061 346.321,-509.305"/>
</g>
<!-- Node9 -->
<g id="node9" class="node"><title>Node9</title>
<g id="a_node9"><a xlink:href="classMain.html" target="_top" xlink:title="Main">
<polygon fill="white" stroke="black" points="470,-278.5 470,-297.5 508,-297.5 508,-278.5 470,-278.5"/>
<text text-anchor="middle" x="489" y="-285.5" font-family="Helvetica,sans-Serif" font-size="10.00">Main</text>
</a>
</g>
</g>
<!-- Node1&#45;&gt;Node9 -->
<g id="edge8" class="edge"><title>Node1&#45;&gt;Node9</title>
<path fill="none" stroke="midnightblue" d="M343.336,-470.163C348.844,-432.544 366.168,-350.699 416,-307 430.969,-293.873 453.983,-289.664 469.947,-288.394"/>
<polygon fill="midnightblue" stroke="midnightblue" points="339.833,-469.952 341.983,-480.327 346.772,-470.876 339.833,-469.952"/>
</g>
<!-- Node10 -->
<g id="node10" class="node"><title>Node10</title>
<g id="a_node10"><a xlink:href="structSpec__app.html" target="_top" xlink:title="Spec_app">
<polygon fill="white" stroke="black" points="459,-654.5 459,-673.5 519,-673.5 519,-654.5 459,-654.5"/>
<text text-anchor="middle" x="489" y="-661.5" font-family="Helvetica,sans-Serif" font-size="10.00">Spec_app</text>
</a>
</g>
</g>
<!-- Node1&#45;&gt;Node10 -->
<g id="edge9" class="edge"><title>Node1&#45;&gt;Node10</title>
<path fill="none" stroke="midnightblue" d="M344.91,-509.555C352.556,-542.585 372.674,-609.309 416,-645 427.974,-654.864 444.543,-659.655 458.767,-661.962"/>
<polygon fill="midnightblue" stroke="midnightblue" points="348.321,-508.768 342.779,-499.738 341.48,-510.253 348.321,-508.768"/>
</g>
<!-- Node11 -->
<g id="node11" class="node"><title>Node11</title>
<g id="a_node11"><a xlink:href="structSpectrum__kernel.html" target="_top" xlink:title="Spectrum_kernel">
<polygon fill="white" stroke="black" points="444,-616.5 444,-635.5 534,-635.5 534,-616.5 444,-616.5"/>
<text text-anchor="middle" x="489" y="-623.5" font-family="Helvetica,sans-Serif" font-size="10.00">Spectrum_kernel</text>
</a>
</g>
</g>
<!-- Node1&#45;&gt;Node11 -->
<g id="edge10" class="edge"><title>Node1&#45;&gt;Node11</title>
<path fill="none" stroke="midnightblue" d="M348.058,-509.129C358.702,-535.272 381.372,-581.785 416,-607 424.152,-612.936 434.02,-617.018 443.802,-619.826"/>
<polygon fill="midnightblue" stroke="midnightblue" points="351.235,-507.64 344.344,-499.592 344.712,-510.18 351.235,-507.64"/>
</g>
<!-- Node12 -->
<g id="node12" class="node"><title>Node12</title>
<g id="a_node12"><a xlink:href="structStation__kernel.html" target="_top" xlink:title="Station_kernel">
<polygon fill="white" stroke="black" points="449.5,-578.5 449.5,-597.5 528.5,-597.5 528.5,-578.5 449.5,-578.5"/>
<text text-anchor="middle" x="489" y="-585.5" font-family="Helvetica,sans-Serif" font-size="10.00">Station_kernel</text>
</a>
</g>
</g>
<!-- Node1&#45;&gt;Node12 -->
<g id="edge11" class="edge"><title>Node1&#45;&gt;Node12</title>
<path fill="none" stroke="midnightblue" d="M353.51,-508.172C366.907,-526.257 389.811,-553.49 416,-569 426.122,-574.995 438.146,-579.128 449.441,-581.967"/>
<polygon fill="midnightblue" stroke="midnightblue" points="356.076,-505.744 347.403,-499.659 350.388,-509.824 356.076,-505.744"/>
</g>
<!-- Node13 -->
<g id="node13" class="node"><title>Node13</title>
<g id="a_node13"><a xlink:href="structTest__socket.html" target="_top" xlink:title="Test_socket">
<polygon fill="white" stroke="black" points="453.5,-240.5 453.5,-259.5 524.5,-259.5 524.5,-240.5 453.5,-240.5"/>
<text text-anchor="middle" x="489" y="-247.5" font-family="Helvetica,sans-Serif" font-size="10.00">Test_socket</text>
</a>
</g>
</g>
<!-- Node1&#45;&gt;Node13 -->
<g id="edge12" class="edge"><title>Node1&#45;&gt;Node13</title>
<path fill="none" stroke="midnightblue" d="M341.723,-470.321C344.404,-427.244 356.99,-324.063 416,-269 426.114,-259.563 440.351,-254.695 453.498,-252.226"/>
<polygon fill="midnightblue" stroke="midnightblue" points="338.225,-470.188 341.216,-480.352 345.217,-470.541 338.225,-470.188"/>
</g>
<!-- Node14 -->
<g id="node14" class="node"><title>Node14</title>
<g id="a_node14"><a xlink:href="classfactory_1_1kernel__base.html" target="_top" xlink:title="factory::kernel_base">
<polygon fill="white" stroke="black" points="4.5,-164.5 4.5,-183.5 109.5,-183.5 109.5,-164.5 4.5,-164.5"/>
<text text-anchor="middle" x="57" y="-171.5" font-family="Helvetica,sans-Serif" font-size="10.00">factory::kernel_base</text>
</a>
</g>
</g>
<!-- Node15 -->
<g id="node15" class="node"><title>Node15</title>
<g id="a_node15"><a xlink:href="classfactory_1_1mobile__kernel.html" target="_top" xlink:title="factory::mobile_kernel">
<polygon fill="white" stroke="black" points="150.5,-145.5 150.5,-164.5 263.5,-164.5 263.5,-145.5 150.5,-145.5"/>
<text text-anchor="middle" x="207" y="-152.5" font-family="Helvetica,sans-Serif" font-size="10.00">factory::mobile_kernel</text>
</a>
</g>
</g>
<!-- Node14&#45;&gt;Node15 -->
<g id="edge13" class="edge"><title>Node14&#45;&gt;Node15</title>
<path fill="none" stroke="midnightblue" d="M119.806,-166.065C129.983,-164.759 140.477,-163.412 150.489,-162.126"/>
<polygon fill="midnightblue" stroke="midnightblue" points="119.236,-162.61 109.763,-167.355 120.128,-169.553 119.236,-162.61"/>
</g>
<!-- Node16 -->
<g id="node16" class="node"><title>Node16</title>
<g id="a_node16"><a xlink:href="structfactory_1_1Kernel.html" target="_top" xlink:title="factory::Kernel">
<polygon fill="white" stroke="black" points="300,-145.5 300,-164.5 380,-164.5 380,-145.5 300,-145.5"/>
<text text-anchor="middle" x="340" y="-152.5" font-family="Helvetica,sans-Serif" font-size="10.00">factory::Kernel</text>
</a>
</g>
</g>
<!-- Node15&#45;&gt;Node16 -->
<g id="edge14" class="edge"><title>Node15&#45;&gt;Node16</title>
<path fill="none" stroke="midnightblue" d="M273.579,-155C282.487,-155 291.392,-155 299.637,-155"/>
<polygon fill="midnightblue" stroke="midnightblue" points="273.556,-151.5 263.556,-155 273.556,-158.5 273.556,-151.5"/>
</g>
<!-- Node16&#45;&gt;Node9 -->
<g id="edge21" class="edge"><title>Node16&#45;&gt;Node9</title>
<path fill="none" stroke="midnightblue" d="M348.355,-174.021C359.223,-199.566 382.022,-244.565 416,-269 431.954,-280.473 454.345,-285.02 469.905,-286.821"/>
<polygon fill="midnightblue" stroke="midnightblue" points="351.561,-172.614 344.545,-164.675 345.079,-175.257 351.561,-172.614"/>
</g>
<!-- Node16&#45;&gt;Node13 -->
<g id="edge24" class="edge"><title>Node16&#45;&gt;Node13</title>
<path fill="none" stroke="midnightblue" d="M353.879,-172.745C367.427,-190.132 390.32,-216.125 416,-231 427.299,-237.545 440.889,-241.883 453.204,-244.736"/>
<polygon fill="midnightblue" stroke="midnightblue" points="356.502,-170.41 347.681,-164.541 350.917,-174.629 356.502,-170.41"/>
</g>
<!-- Node17 -->
<g id="node17" class="node"><title>Node17</title>
<g id="a_node17"><a xlink:href="structBig__kernel.html" target="_top" xlink:title="Big_kernel\&lt; Size \&gt;">
<polygon fill="white" stroke="black" points="439,-202.5 439,-221.5 539,-221.5 539,-202.5 439,-202.5"/>
<text text-anchor="middle" x="489" y="-209.5" font-family="Helvetica,sans-Serif" font-size="10.00">Big_kernel&lt; Size &gt;</text>
</a>
</g>
</g>
<!-- Node16&#45;&gt;Node17 -->
<g id="edge15" class="edge"><title>Node16&#45;&gt;Node17</title>
<path fill="none" stroke="midnightblue" d="M366.657,-169.699C380.866,-177.402 399.04,-186.549 416,-193 425.425,-196.585 435.791,-199.749 445.649,-202.417"/>
<polygon fill="midnightblue" stroke="midnightblue" points="367.962,-166.422 357.516,-164.648 364.576,-172.548 367.962,-166.422"/>
</g>
<!-- Node18 -->
<g id="node18" class="node"><title>Node18</title>
<g id="a_node18"><a xlink:href="structDummy__kernel.html" target="_top" xlink:title="Dummy_kernel">
<polygon fill="white" stroke="black" points="447.5,-164.5 447.5,-183.5 530.5,-183.5 530.5,-164.5 447.5,-164.5"/>
<text text-anchor="middle" x="489" y="-171.5" font-family="Helvetica,sans-Serif" font-size="10.00">Dummy_kernel</text>
</a>
</g>
</g>
<!-- Node16&#45;&gt;Node18 -->
<g id="edge16" class="edge"><title>Node16&#45;&gt;Node18</title>
<path fill="none" stroke="midnightblue" d="M390.048,-161.34C408.62,-163.74 429.543,-166.444 447.269,-168.735"/>
<polygon fill="midnightblue" stroke="midnightblue" points="390.374,-157.853 380.007,-160.042 389.476,-164.795 390.374,-157.853"/>
</g>
<!-- Node19 -->
<g id="node19" class="node"><title>Node19</title>
<g id="a_node19"><a xlink:href="structGood__kernel.html" target="_top" xlink:title="Good_kernel">
<polygon fill="white" stroke="black" points="453.5,-126.5 453.5,-145.5 524.5,-145.5 524.5,-126.5 453.5,-126.5"/>
<text text-anchor="middle" x="489" y="-133.5" font-family="Helvetica,sans-Serif" font-size="10.00">Good_kernel</text>
</a>
</g>
</g>
<!-- Node16&#45;&gt;Node19 -->
<g id="edge17" class="edge"><title>Node16&#45;&gt;Node19</title>
<path fill="none" stroke="midnightblue" d="M389.93,-148.676C410.695,-145.992 434.417,-142.926 453.329,-140.481"/>
<polygon fill="midnightblue" stroke="midnightblue" points="389.476,-145.205 380.007,-149.958 390.374,-152.147 389.476,-145.205"/>
</g>
<!-- Node22 -->
<g id="node22" class="node"><title>Node22</title>
<g id="a_node22"><a xlink:href="structKernel__that__carries__its__parent.html" target="_top" xlink:title="Kernel_that_carries\l_its_parent">
<polygon fill="white" stroke="black" points="438.5,-77 438.5,-107 539.5,-107 539.5,-77 438.5,-77"/>
<text text-anchor="start" x="446.5" y="-95" font-family="Helvetica,sans-Serif" font-size="10.00">Kernel_that_carries</text>
<text text-anchor="middle" x="489" y="-84" font-family="Helvetica,sans-Serif" font-size="10.00">_its_parent</text>
</a>
</g>
</g>
<!-- Node16&#45;&gt;Node22 -->
<g id="edge20" class="edge"><title>Node16&#45;&gt;Node22</title>
<path fill="none" stroke="midnightblue" d="M367.423,-140.513C381.606,-133.018 399.516,-124 416,-117 424.16,-113.535 432.981,-110.171 441.557,-107.093"/>
<polygon fill="midnightblue" stroke="midnightblue" points="365.429,-137.61 358.263,-145.414 368.731,-143.782 365.429,-137.61"/>
</g>
<!-- Node23 -->
<g id="node23" class="node"><title>Node23</title>
<g id="a_node23"><a xlink:href="structSender.html" target="_top" xlink:title="Sender">
<polygon fill="white" stroke="black" points="465.5,-38.5 465.5,-57.5 512.5,-57.5 512.5,-38.5 465.5,-38.5"/>
<text text-anchor="middle" x="489" y="-45.5" font-family="Helvetica,sans-Serif" font-size="10.00">Sender</text>
</a>
</g>
</g>
<!-- Node16&#45;&gt;Node23 -->
<g id="edge22" class="edge"><title>Node16&#45;&gt;Node23</title>
<path fill="none" stroke="midnightblue" d="M351.691,-136.819C364.461,-116.711 387.69,-84.8081 416,-67 430.882,-57.6384 450.273,-52.8612 465.181,-50.4396"/>
<polygon fill="midnightblue" stroke="midnightblue" points="348.683,-135.03 346.433,-145.383 354.648,-138.693 348.683,-135.03"/>
</g>
<!-- Node24 -->
<g id="node24" class="node"><title>Node24</title>
<g id="a_node24"><a xlink:href="structSleepy__kernel.html" target="_top" xlink:title="Sleepy_kernel">
<polygon fill="white" stroke="black" points="450,-0.5 450,-19.5 528,-19.5 528,-0.5 450,-0.5"/>
<text text-anchor="middle" x="489" y="-7.5" font-family="Helvetica,sans-Serif" font-size="10.00">Sleepy_kernel</text>
</a>
</g>
</g>
<!-- Node16&#45;&gt;Node24 -->
<g id="edge23" class="edge"><title>Node16&#45;&gt;Node24</title>
<path fill="none" stroke="midnightblue" d="M347.215,-135.615C357.172,-107.723 379.39,-56.5975 416,-29 425.704,-21.6849 437.989,-17.1801 449.651,-14.4081"/>
<polygon fill="midnightblue" stroke="midnightblue" points="343.799,-134.791 343.893,-145.385 350.426,-137.044 343.799,-134.791"/>
</g>
<!-- Node20 -->
<g id="node20" class="node"><title>Node20</title>
<g id="a_node20"><a xlink:href="structKernel__that__reads__more__than__writes.html" target="_top" xlink:title="Kernel_that_reads_more\l_than_writes">
<polygon fill="white" stroke="black" points="598,-146 598,-176 720,-176 720,-146 598,-146"/>
<text text-anchor="start" x="606" y="-164" font-family="Helvetica,sans-Serif" font-size="10.00">Kernel_that_reads_more</text>
<text text-anchor="middle" x="659" y="-153" font-family="Helvetica,sans-Serif" font-size="10.00">_than_writes</text>
</a>
</g>
</g>
<!-- Node19&#45;&gt;Node20 -->
<g id="edge18" class="edge"><title>Node19&#45;&gt;Node20</title>
<path fill="none" stroke="midnightblue" d="M534.839,-142.673C554.141,-145.545 576.997,-148.946 597.747,-152.034"/>
<polygon fill="midnightblue" stroke="midnightblue" points="535.216,-139.19 524.81,-141.18 534.186,-146.114 535.216,-139.19"/>
</g>
<!-- Node21 -->
<g id="node21" class="node"><title>Node21</title>
<g id="a_node21"><a xlink:href="structKernel__that__writes__more__than__reads.html" target="_top" xlink:title="Kernel_that_writes\l_more_than_reads">
<polygon fill="white" stroke="black" points="610,-97 610,-127 708,-127 708,-97 610,-97"/>
<text text-anchor="start" x="618" y="-115" font-family="Helvetica,sans-Serif" font-size="10.00">Kernel_that_writes</text>
<text text-anchor="middle" x="659" y="-104" font-family="Helvetica,sans-Serif" font-size="10.00">_more_than_reads</text>
</a>
</g>
</g>
<!-- Node19&#45;&gt;Node21 -->
<g id="edge19" class="edge"><title>Node19&#45;&gt;Node21</title>
<path fill="none" stroke="midnightblue" d="M534.726,-129.611C557.896,-126.301 586.211,-122.256 609.858,-118.877"/>
<polygon fill="midnightblue" stroke="midnightblue" points="534.214,-126.148 524.81,-131.027 535.204,-133.078 534.214,-126.148"/>
</g>
<!-- Node25 -->
<g id="node25" class="node"><title>Node25</title>
<g id="a_node25"><a xlink:href="classfactory_1_1kernel__header.html" target="_top" xlink:title="factory::kernel_header">
<polygon fill="white" stroke="black" points="0.5,-126.5 0.5,-145.5 113.5,-145.5 113.5,-126.5 0.5,-126.5"/>
<text text-anchor="middle" x="57" y="-133.5" font-family="Helvetica,sans-Serif" font-size="10.00">factory::kernel_header</text>
</a>
</g>
</g>
<!-- Node25&#45;&gt;Node15 -->
<g id="edge25" class="edge"><title>Node25&#45;&gt;Node15</title>
<path fill="none" stroke="midnightblue" d="M123.481,-144.406C132.381,-145.549 141.449,-146.713 150.158,-147.831"/>
<polygon fill="midnightblue" stroke="midnightblue" points="123.895,-140.931 113.531,-143.129 123.004,-147.874 123.895,-140.931"/>
</g>
</g>
</svg>
