<?xml version="1.0" encoding="UTF-8" standalone="no"?>
<!DOCTYPE svg PUBLIC "-//W3C//DTD SVG 1.1//EN"
 "http://www.w3.org/Graphics/SVG/1.1/DTD/svg11.dtd">
<!-- Generated by graphviz version 2.36.0 (20140111.2315)
 -->
<!-- Title: Graphical Class Hierarchy Pages: 1 -->
<svg width="736pt" height="720pt"
 viewBox="0.00 0.00 736.00 720.00" xmlns="http://www.w3.org/2000/svg" xmlns:xlink="http://www.w3.org/1999/xlink">
<g id="graph0" class="graph" transform="scale(1 1) rotate(0) translate(4 716)">
<title>Graphical Class Hierarchy</title>
<polygon fill="white" stroke="none" points="-4,4 -4,-716 732,-716 732,4 -4,4"/>
<!-- Node1 -->
<g id="node1" class="node"><title>Node1</title>
<polygon fill="white" stroke="#bfbfbf" points="318,-480.5 318,-499.5 362,-499.5 362,-480.5 318,-480.5"/>
<text text-anchor="middle" x="340" y="-487.5" font-family="Helvetica,sans-Serif" font-size="10.00">Kernel</text>
</g>
<!-- Node2 -->
<g id="node2" class="node"><title>Node2</title>
<g id="a_node2"><a xlink:href="structautoreg_1_1ACF__generator.html" target="_top" xlink:title="autoreg::ACF_generator\&lt; T \&gt;">
<polygon fill="white" stroke="black" points="420.5,-540.5 420.5,-559.5 565.5,-559.5 565.5,-540.5 420.5,-540.5"/>
<text text-anchor="middle" x="493" y="-547.5" font-family="Helvetica,sans-Serif" font-size="10.00">autoreg::ACF_generator&lt; T &gt;</text>
</a>
</g>
</g>
<!-- Node1&#45;&gt;Node2 -->
<g id="edge1" class="edge"><title>Node1&#45;&gt;Node2</title>
<path fill="none" stroke="midnightblue" d="M364.693,-504.993C379.087,-513.576 398.087,-523.998 416,-531 425.374,-534.664 435.679,-537.797 445.593,-540.401"/>
<polygon fill="midnightblue" stroke="midnightblue" points="366.319,-501.885 355.957,-499.672 362.677,-507.863 366.319,-501.885"/>
</g>
<!-- Node3 -->
<g id="node3" class="node"><title>Node3</title>
<g id="a_node3"><a xlink:href="structautoreg_1_1Autoreg__coefs.html" target="_top" xlink:title="autoreg::Autoreg_coefs\&lt; T \&gt;">
<polygon fill="white" stroke="black" points="422,-502.5 422,-521.5 564,-521.5 564,-502.5 422,-502.5"/>
<text text-anchor="middle" x="493" y="-509.5" font-family="Helvetica,sans-Serif" font-size="10.00">autoreg::Autoreg_coefs&lt; T &gt;</text>
</a>
</g>
</g>
<!-- Node1&#45;&gt;Node3 -->
<g id="edge2" class="edge"><title>Node1&#45;&gt;Node3</title>
<path fill="none" stroke="midnightblue" d="M372.522,-494.593C388.254,-496.885 407.897,-499.747 426.683,-502.484"/>
<polygon fill="midnightblue" stroke="midnightblue" points="372.715,-491.084 362.314,-493.105 371.705,-498.011 372.715,-491.084"/>
</g>
<!-- Node4 -->
<g id="node4" class="node"><title>Node4</title>
<g id="a_node4"><a xlink:href="structautoreg_1_1Generator1.html" target="_top" xlink:title="autoreg::Generator1\l\&lt; T, Grid \&gt;">
<polygon fill="white" stroke="black" points="441.5,-453 441.5,-483 544.5,-483 544.5,-453 441.5,-453"/>
<text text-anchor="start" x="449.5" y="-471" font-family="Helvetica,sans-Serif" font-size="10.00">autoreg::Generator1</text>
<text text-anchor="middle" x="493" y="-460" font-family="Helvetica,sans-Serif" font-size="10.00">&lt; T, Grid &gt;</text>
</a>
</g>
</g>
<!-- Node1&#45;&gt;Node4 -->
<g id="edge3" class="edge"><title>Node1&#45;&gt;Node4</title>
<path fill="none" stroke="midnightblue" d="M372.404,-485.425C392.359,-482.517 418.643,-478.688 441.486,-475.36"/>
<polygon fill="midnightblue" stroke="midnightblue" points="371.705,-481.989 362.314,-486.895 372.715,-488.916 371.705,-481.989"/>
</g>
<!-- Node5 -->
<g id="node5" class="node"><title>Node5</title>
<g id="a_node5"><a xlink:href="structautoreg_1_1Solve__Yule__Walker.html" target="_top" xlink:title="autoreg::Solve_Yule\l_Walker\&lt; T \&gt;">
<polygon fill="white" stroke="black" points="441,-404 441,-434 545,-434 545,-404 441,-404"/>
<text text-anchor="start" x="449" y="-422" font-family="Helvetica,sans-Serif" font-size="10.00">autoreg::Solve_Yule</text>
<text text-anchor="middle" x="493" y="-411" font-family="Helvetica,sans-Serif" font-size="10.00">_Walker&lt; T &gt;</text>
</a>
</g>
</g>
<!-- Node1&#45;&gt;Node5 -->
<g id="edge4" class="edge"><title>Node1&#45;&gt;Node5</title>
<path fill="none" stroke="midnightblue" d="M362.893,-474.693C377.461,-464.986 397.293,-452.67 416,-444 423.813,-440.379 432.3,-437.045 440.675,-434.073"/>
<polygon fill="midnightblue" stroke="midnightblue" points="360.871,-471.835 354.559,-480.343 364.8,-477.628 360.871,-471.835"/>
</g>
<!-- Node6 -->
<g id="node6" class="node"><title>Node6</title>
<g id="a_node6"><a xlink:href="structautoreg_1_1Wave__surface__generator.html" target="_top" xlink:title="autoreg::Wave_surface\l_generator\&lt; T, Grid \&gt;">
<polygon fill="white" stroke="black" points="434,-355 434,-385 552,-385 552,-355 434,-355"/>
<text text-anchor="start" x="442" y="-373" font-family="Helvetica,sans-Serif" font-size="10.00">autoreg::Wave_surface</text>
<text text-anchor="middle" x="493" y="-362" font-family="Helvetica,sans-Serif" font-size="10.00">_generator&lt; T, Grid &gt;</text>
</a>
</g>
</g>
<!-- Node1&#45;&gt;Node6 -->
<g id="edge5" class="edge"><title>Node1&#45;&gt;Node6</title>
<path fill="none" stroke="midnightblue" d="M350.992,-471.631C363.504,-450.274 386.878,-415.361 416,-395 421.464,-391.18 427.551,-387.913 433.835,-385.127"/>
<polygon fill="midnightblue" stroke="midnightblue" points="347.914,-469.963 346.025,-480.388 354.003,-473.416 347.914,-469.963"/>
</g>
<!-- Node7 -->
<g id="node7" class="node"><title>Node7</title>
<g id="a_node7"><a xlink:href="structAutoreg__app.html" target="_top" xlink:title="Autoreg_app">
<polygon fill="white" stroke="black" points="457.5,-316.5 457.5,-335.5 528.5,-335.5 528.5,-316.5 457.5,-316.5"/>
<text text-anchor="middle" x="493" y="-323.5" font-family="Helvetica,sans-Serif" font-size="10.00">Autoreg_app</text>
</a>
</g>
</g>
<!-- Node1&#45;&gt;Node7 -->
<g id="edge6" class="edge"><title>Node1&#45;&gt;Node7</title>
<path fill="none" stroke="midnightblue" d="M345.681,-470.51C354.194,-439.364 375.218,-378.574 416,-346 427.727,-336.634 443.408,-331.624 457.48,-328.956"/>
<polygon fill="midnightblue" stroke="midnightblue" points="342.292,-469.638 343.181,-480.195 349.07,-471.388 342.292,-469.638"/>
</g>
<!-- Node8 -->
<g id="node8" class="node"><title>Node8</title>
<g id="a_node8"><a xlink:href="structDelayed__shutdown.html" target="_top" xlink:title="Delayed_shutdown\&lt; Address \&gt;">
<polygon fill="white" stroke="black" points="416,-692.5 416,-711.5 570,-711.5 570,-692.5 416,-692.5"/>
<text text-anchor="middle" x="493" y="-699.5" font-family="Helvetica,sans-Serif" font-size="10.00">Delayed_shutdown&lt; Address &gt;</text>
</a>
</g>
</g>
<!-- Node1&#45;&gt;Node8 -->
<g id="edge7" class="edge"><title>Node1&#45;&gt;Node8</title>
<path fill="none" stroke="midnightblue" d="M342.805,-509.893C347.463,-549.13 363.479,-636.697 416,-683 420.387,-686.868 425.444,-689.972 430.823,-692.46"/>
<polygon fill="midnightblue" stroke="midnightblue" points="346.267,-509.348 341.734,-499.772 339.306,-510.085 346.267,-509.348"/>
</g>
<!-- Node9 -->
<g id="node9" class="node"><title>Node9</title>
<g id="a_node9"><a xlink:href="structMain.html" target="_top" xlink:title="Main\&lt; Address \&gt;">
<polygon fill="white" stroke="black" points="447,-278.5 447,-297.5 539,-297.5 539,-278.5 447,-278.5"/>
<text text-anchor="middle" x="493" y="-285.5" font-family="Helvetica,sans-Serif" font-size="10.00">Main&lt; Address &gt;</text>
</a>
</g>
</g>
<!-- Node1&#45;&gt;Node9 -->
<g id="edge8" class="edge"><title>Node1&#45;&gt;Node9</title>
<path fill="none" stroke="midnightblue" d="M343.284,-470.104C348.704,-432.384 365.885,-350.374 416,-307 424.638,-299.524 435.79,-294.908 446.877,-292.081"/>
<polygon fill="midnightblue" stroke="midnightblue" points="339.778,-469.928 341.957,-480.296 346.719,-470.832 339.778,-469.928"/>
</g>
<!-- Node10 -->
<g id="node10" class="node"><title>Node10</title>
<g id="a_node10"><a xlink:href="structSpec__app.html" target="_top" xlink:title="Spec_app">
<polygon fill="white" stroke="black" points="463,-654.5 463,-673.5 523,-673.5 523,-654.5 463,-654.5"/>
<text text-anchor="middle" x="493" y="-661.5" font-family="Helvetica,sans-Serif" font-size="10.00">Spec_app</text>
</a>
</g>
</g>
<!-- Node1&#45;&gt;Node10 -->
<g id="edge9" class="edge"><title>Node1&#45;&gt;Node10</title>
<path fill="none" stroke="midnightblue" d="M344.86,-509.615C352.432,-542.736 372.442,-609.592 416,-645 429.086,-655.638 447.326,-660.428 462.657,-662.54"/>
<polygon fill="midnightblue" stroke="midnightblue" points="348.269,-508.816 342.753,-499.77 341.424,-510.281 348.269,-508.816"/>
</g>
<!-- Node11 -->
<g id="node11" class="node"><title>Node11</title>
<g id="a_node11"><a xlink:href="structSpectrum__kernel.html" target="_top" xlink:title="Spectrum_kernel">
<polygon fill="white" stroke="black" points="448,-616.5 448,-635.5 538,-635.5 538,-616.5 448,-616.5"/>
<text text-anchor="middle" x="493" y="-623.5" font-family="Helvetica,sans-Serif" font-size="10.00">Spectrum_kernel</text>
</a>
</g>
</g>
<!-- Node1&#45;&gt;Node11 -->
<g id="edge10" class="edge"><title>Node1&#45;&gt;Node11</title>
<path fill="none" stroke="midnightblue" d="M348.012,-509.192C358.602,-535.41 381.208,-582.011 416,-607 425.279,-613.665 436.651,-618.001 447.744,-620.82"/>
<polygon fill="midnightblue" stroke="midnightblue" points="351.186,-507.695 344.319,-499.626 344.656,-510.216 351.186,-507.695"/>
</g>
<!-- Node12 -->
<g id="node12" class="node"><title>Node12</title>
<g id="a_node12"><a xlink:href="structStation__kernel.html" target="_top" xlink:title="Station_kernel">
<polygon fill="white" stroke="black" points="453.5,-578.5 453.5,-597.5 532.5,-597.5 532.5,-578.5 453.5,-578.5"/>
<text text-anchor="middle" x="493" y="-585.5" font-family="Helvetica,sans-Serif" font-size="10.00">Station_kernel</text>
</a>
</g>
</g>
<!-- Node1&#45;&gt;Node12 -->
<g id="edge11" class="edge"><title>Node1&#45;&gt;Node12</title>
<path fill="none" stroke="midnightblue" d="M353.468,-508.242C366.833,-526.384 389.71,-553.661 416,-569 427.277,-575.58 440.784,-579.897 453.262,-582.723"/>
<polygon fill="midnightblue" stroke="midnightblue" points="356.033,-505.811 347.379,-499.7 350.333,-509.874 356.033,-505.811"/>
</g>
<!-- Node13 -->
<g id="node13" class="node"><title>Node13</title>
<g id="a_node13"><a xlink:href="structTest__socket.html" target="_top" xlink:title="Test_socket">
<polygon fill="white" stroke="black" points="457.5,-240.5 457.5,-259.5 528.5,-259.5 528.5,-240.5 457.5,-240.5"/>
<text text-anchor="middle" x="493" y="-247.5" font-family="Helvetica,sans-Serif" font-size="10.00">Test_socket</text>
</a>
</g>
</g>
<!-- Node1&#45;&gt;Node13 -->
<g id="edge12" class="edge"><title>Node1&#45;&gt;Node13</title>
<path fill="none" stroke="midnightblue" d="M341.67,-470.264C344.245,-427.073 356.633,-323.678 416,-269 427.104,-258.773 442.868,-253.842 457.162,-251.538"/>
<polygon fill="midnightblue" stroke="midnightblue" points="338.171,-470.167 341.189,-480.323 345.163,-470.502 338.171,-470.167"/>
</g>
<!-- Node14 -->
<g id="node14" class="node"><title>Node14</title>
<g id="a_node14"><a xlink:href="classfactory_1_1kernel__base.html" target="_top" xlink:title="factory::kernel_base">
<polygon fill="white" stroke="black" points="4.5,-164.5 4.5,-183.5 109.5,-183.5 109.5,-164.5 4.5,-164.5"/>
<text text-anchor="middle" x="57" y="-171.5" font-family="Helvetica,sans-Serif" font-size="10.00">factory::kernel_base</text>
</a>
</g>
</g>
<!-- Node15 -->
<g id="node15" class="node"><title>Node15</title>
<g id="a_node15"><a xlink:href="classfactory_1_1mobile__kernel.html" target="_top" xlink:title="factory::mobile_kernel">
<polygon fill="white" stroke="black" points="150.5,-145.5 150.5,-164.5 263.5,-164.5 263.5,-145.5 150.5,-145.5"/>
<text text-anchor="middle" x="207" y="-152.5" font-family="Helvetica,sans-Serif" font-size="10.00">factory::mobile_kernel</text>
</a>
</g>
</g>
<!-- Node14&#45;&gt;Node15 -->
<g id="edge13" class="edge"><title>Node14&#45;&gt;Node15</title>
<path fill="none" stroke="midnightblue" d="M119.806,-166.065C129.983,-164.759 140.477,-163.412 150.489,-162.126"/>
<polygon fill="midnightblue" stroke="midnightblue" points="119.236,-162.61 109.763,-167.355 120.128,-169.553 119.236,-162.61"/>
</g>
<!-- Node16 -->
<g id="node16" class="node"><title>Node16</title>
<g id="a_node16"><a xlink:href="structfactory_1_1Kernel.html" target="_top" xlink:title="factory::Kernel">
<polygon fill="white" stroke="black" points="300,-145.5 300,-164.5 380,-164.5 380,-145.5 300,-145.5"/>
<text text-anchor="middle" x="340" y="-152.5" font-family="Helvetica,sans-Serif" font-size="10.00">factory::Kernel</text>
</a>
</g>
</g>
<!-- Node15&#45;&gt;Node16 -->
<g id="edge14" class="edge"><title>Node15&#45;&gt;Node16</title>
<path fill="none" stroke="midnightblue" d="M273.579,-155C282.487,-155 291.392,-155 299.637,-155"/>
<polygon fill="midnightblue" stroke="midnightblue" points="273.556,-151.5 263.556,-155 273.556,-158.5 273.556,-151.5"/>
</g>
<!-- Node16&#45;&gt;Node9 -->
<g id="edge21" class="edge"><title>Node16&#45;&gt;Node9</title>
<path fill="none" stroke="midnightblue" d="M348.31,-174.085C359.125,-199.704 381.863,-244.787 416,-269 424.986,-275.373 435.894,-279.616 446.608,-282.438"/>
<polygon fill="midnightblue" stroke="midnightblue" points="351.513,-172.669 344.52,-164.71 345.023,-175.293 351.513,-172.669"/>
</g>
<!-- Node16&#45;&gt;Node13 -->
<g id="edge24" class="edge"><title>Node16&#45;&gt;Node13</title>
<path fill="none" stroke="midnightblue" d="M353.839,-172.815C367.355,-190.258 390.223,-216.293 416,-231 428.522,-238.145 443.704,-242.63 457.197,-245.434"/>
<polygon fill="midnightblue" stroke="midnightblue" points="356.46,-170.478 347.657,-164.582 350.863,-174.681 356.46,-170.478"/>
</g>
<!-- Node17 -->
<g id="node17" class="node"><title>Node17</title>
<g id="a_node17"><a xlink:href="structBig__kernel.html" target="_top" xlink:title="Big_kernel\&lt; Size \&gt;">
<polygon fill="white" stroke="black" points="443,-202.5 443,-221.5 543,-221.5 543,-202.5 443,-202.5"/>
<text text-anchor="middle" x="493" y="-209.5" font-family="Helvetica,sans-Serif" font-size="10.00">Big_kernel&lt; Size &gt;</text>
</a>
</g>
</g>
<!-- Node16&#45;&gt;Node17 -->
<g id="edge15" class="edge"><title>Node16&#45;&gt;Node17</title>
<path fill="none" stroke="midnightblue" d="M366.346,-169.636C380.586,-177.396 398.887,-186.618 416,-193 425.812,-196.659 436.597,-199.836 446.883,-202.49"/>
<polygon fill="midnightblue" stroke="midnightblue" points="367.641,-166.351 357.2,-164.55 364.238,-172.469 367.641,-166.351"/>
</g>
<!-- Node18 -->
<g id="node18" class="node"><title>Node18</title>
<g id="a_node18"><a xlink:href="structDummy__kernel.html" target="_top" xlink:title="Dummy_kernel">
<polygon fill="white" stroke="black" points="451.5,-164.5 451.5,-183.5 534.5,-183.5 534.5,-164.5 451.5,-164.5"/>
<text text-anchor="middle" x="493" y="-171.5" font-family="Helvetica,sans-Serif" font-size="10.00">Dummy_kernel</text>
</a>
</g>
</g>
<!-- Node16&#45;&gt;Node18 -->
<g id="edge16" class="edge"><title>Node16&#45;&gt;Node18</title>
<path fill="none" stroke="midnightblue" d="M390.324,-161.206C410.073,-163.691 432.549,-166.519 451.338,-168.884"/>
<polygon fill="midnightblue" stroke="midnightblue" points="390.638,-157.718 380.279,-159.942 389.764,-164.664 390.638,-157.718"/>
</g>
<!-- Node19 -->
<g id="node19" class="node"><title>Node19</title>
<g id="a_node19"><a xlink:href="structGood__kernel.html" target="_top" xlink:title="Good_kernel">
<polygon fill="white" stroke="black" points="457.5,-126.5 457.5,-145.5 528.5,-145.5 528.5,-126.5 457.5,-126.5"/>
<text text-anchor="middle" x="493" y="-133.5" font-family="Helvetica,sans-Serif" font-size="10.00">Good_kernel</text>
</a>
</g>
</g>
<!-- Node16&#45;&gt;Node19 -->
<g id="edge17" class="edge"><title>Node16&#45;&gt;Node19</title>
<path fill="none" stroke="midnightblue" d="M390.384,-148.786C412.252,-146.034 437.455,-142.863 457.29,-140.367"/>
<polygon fill="midnightblue" stroke="midnightblue" points="389.764,-145.336 380.279,-150.058 390.638,-152.282 389.764,-145.336"/>
</g>
<!-- Node22 -->
<g id="node22" class="node"><title>Node22</title>
<g id="a_node22"><a xlink:href="structKernel__that__carries__its__parent.html" target="_top" xlink:title="Kernel_that_carries\l_its_parent">
<polygon fill="white" stroke="black" points="442.5,-77 442.5,-107 543.5,-107 543.5,-77 442.5,-77"/>
<text text-anchor="start" x="450.5" y="-95" font-family="Helvetica,sans-Serif" font-size="10.00">Kernel_that_carries</text>
<text text-anchor="middle" x="493" y="-84" font-family="Helvetica,sans-Serif" font-size="10.00">_its_parent</text>
</a>
</g>
</g>
<!-- Node16&#45;&gt;Node22 -->
<g id="edge20" class="edge"><title>Node16&#45;&gt;Node22</title>
<path fill="none" stroke="midnightblue" d="M367.096,-140.552C381.31,-132.997 399.35,-123.91 416,-117 424.467,-113.486 433.62,-110.122 442.542,-107.065"/>
<polygon fill="midnightblue" stroke="midnightblue" points="365.073,-137.666 357.931,-145.492 368.394,-143.828 365.073,-137.666"/>
</g>
<!-- Node23 -->
<g id="node23" class="node"><title>Node23</title>
<g id="a_node23"><a xlink:href="structSender.html" target="_top" xlink:title="Sender">
<polygon fill="white" stroke="black" points="469.5,-38.5 469.5,-57.5 516.5,-57.5 516.5,-38.5 469.5,-38.5"/>
<text text-anchor="middle" x="493" y="-45.5" font-family="Helvetica,sans-Serif" font-size="10.00">Sender</text>
</a>
</g>
</g>
<!-- Node16&#45;&gt;Node23 -->
<g id="edge22" class="edge"><title>Node16&#45;&gt;Node23</title>
<path fill="none" stroke="midnightblue" d="M351.649,-136.752C364.381,-116.582 387.574,-84.6233 416,-67 432.183,-56.9669 453.395,-52.2251 469.296,-49.9879"/>
<polygon fill="midnightblue" stroke="midnightblue" points="348.628,-134.984 346.408,-145.344 354.604,-138.629 348.628,-134.984"/>
</g>
<!-- Node24 -->
<g id="node24" class="node"><title>Node24</title>
<g id="a_node24"><a xlink:href="structSleepy__kernel.html" target="_top" xlink:title="Sleepy_kernel">
<polygon fill="white" stroke="black" points="454,-0.5 454,-19.5 532,-19.5 532,-0.5 454,-0.5"/>
<text text-anchor="middle" x="493" y="-7.5" font-family="Helvetica,sans-Serif" font-size="10.00">Sleepy_kernel</text>
</a>
</g>
</g>
<!-- Node16&#45;&gt;Node24 -->
<g id="edge23" class="edge"><title>Node16&#45;&gt;Node24</title>
<path fill="none" stroke="midnightblue" d="M347.168,-135.552C357.066,-107.581 379.211,-56.3584 416,-29 426.914,-20.884 440.898,-16.2095 453.888,-13.5262"/>
<polygon fill="midnightblue" stroke="midnightblue" points="343.743,-134.758 343.868,-145.352 350.377,-136.992 343.743,-134.758"/>
</g>
<!-- Node20 -->
<g id="node20" class="node"><title>Node20</title>
<g id="a_node20"><a xlink:href="structKernel__that__reads__more__than__writes.html" target="_top" xlink:title="Kernel_that_reads_more\l_than_writes">
<polygon fill="white" stroke="black" points="606,-146 606,-176 728,-176 728,-146 606,-146"/>
<text text-anchor="start" x="614" y="-164" font-family="Helvetica,sans-Serif" font-size="10.00">Kernel_that_reads_more</text>
<text text-anchor="middle" x="667" y="-153" font-family="Helvetica,sans-Serif" font-size="10.00">_than_writes</text>
</a>
</g>
</g>
<!-- Node19&#45;&gt;Node20 -->
<g id="edge18" class="edge"><title>Node19&#45;&gt;Node20</title>
<path fill="none" stroke="midnightblue" d="M538.795,-142.511C559.254,-145.485 583.786,-149.05 605.824,-152.253"/>
<polygon fill="midnightblue" stroke="midnightblue" points="539.206,-139.034 528.807,-141.059 538.199,-145.961 539.206,-139.034"/>
</g>
<!-- Node21 -->
<g id="node21" class="node"><title>Node21</title>
<g id="a_node21"><a xlink:href="structKernel__that__writes__more__than__reads.html" target="_top" xlink:title="Kernel_that_writes\l_more_than_reads">
<polygon fill="white" stroke="black" points="618,-97 618,-127 716,-127 716,-97 618,-97"/>
<text text-anchor="start" x="626" y="-115" font-family="Helvetica,sans-Serif" font-size="10.00">Kernel_that_writes</text>
<text text-anchor="middle" x="667" y="-104" font-family="Helvetica,sans-Serif" font-size="10.00">_more_than_reads</text>
</a>
</g>
</g>
<!-- Node19&#45;&gt;Node21 -->
<g id="edge19" class="edge"><title>Node19&#45;&gt;Node21</title>
<path fill="none" stroke="midnightblue" d="M538.829,-129.745C563.108,-126.357 593.116,-122.17 617.885,-118.714"/>
<polygon fill="midnightblue" stroke="midnightblue" points="538.227,-126.295 528.807,-131.143 539.195,-133.228 538.227,-126.295"/>
</g>
<!-- Node25 -->
<g id="node25" class="node"><title>Node25</title>
<g id="a_node25"><a xlink:href="classfactory_1_1kernel__header.html" target="_top" xlink:title="factory::kernel_header">
<polygon fill="white" stroke="black" points="0.5,-126.5 0.5,-145.5 113.5,-145.5 113.5,-126.5 0.5,-126.5"/>
<text text-anchor="middle" x="57" y="-133.5" font-family="Helvetica,sans-Serif" font-size="10.00">factory::kernel_header</text>
</a>
</g>
</g>
<!-- Node25&#45;&gt;Node15 -->
<g id="edge25" class="edge"><title>Node25&#45;&gt;Node15</title>
<path fill="none" stroke="midnightblue" d="M123.481,-144.406C132.381,-145.549 141.449,-146.713 150.158,-147.831"/>
<polygon fill="midnightblue" stroke="midnightblue" points="123.895,-140.931 113.531,-143.129 123.004,-147.874 123.895,-140.931"/>
</g>
</g>
</svg>
