<?xml version="1.0" encoding="UTF-8" standalone="no"?>
<!DOCTYPE svg PUBLIC "-//W3C//DTD SVG 1.1//EN"
 "http://www.w3.org/Graphics/SVG/1.1/DTD/svg11.dtd">
<!-- Generated by graphviz version 2.36.0 (20140111.2315)
 -->
<!-- Title: Graphical Class Hierarchy Pages: 1 -->
<svg width="212pt" height="136pt"
 viewBox="0.00 0.00 212.00 136.00" xmlns="http://www.w3.org/2000/svg" xmlns:xlink="http://www.w3.org/1999/xlink">
<g id="graph0" class="graph" transform="scale(1 1) rotate(0) translate(4 132)">
<title>Graphical Class Hierarchy</title>
<polygon fill="white" stroke="none" points="-4,4 -4,-132 208,-132 208,4 -4,4"/>
<!-- Node1 -->
<g id="node1" class="node"><title>Node1</title>
<polygon fill="white" stroke="#bfbfbf" points="0,-54.5 0,-73.5 46,-73.5 46,-54.5 0,-54.5"/>
<text text-anchor="middle" x="23" y="-61.5" font-family="Helvetica,sans-Serif" font-size="10.00">Router</text>
</g>
<!-- Node2 -->
<g id="node2" class="node"><title>Node2</title>
<g id="a_node2"><a xlink:href="structfactory_1_1bits_1_1forward__to__child.html" target="_top" xlink:title="factory::bits::forward\l_to_child\&lt; Router \&gt;">
<polygon fill="white" stroke="black" points="89.5,-98 89.5,-128 196.5,-128 196.5,-98 89.5,-98"/>
<text text-anchor="start" x="97.5" y="-116" font-family="Helvetica,sans-Serif" font-size="10.00">factory::bits::forward</text>
<text text-anchor="middle" x="143" y="-105" font-family="Helvetica,sans-Serif" font-size="10.00">_to_child&lt; Router &gt;</text>
</a>
</g>
</g>
<!-- Node1&#45;&gt;Node2 -->
<g id="edge1" class="edge"><title>Node1&#45;&gt;Node2</title>
<path fill="none" stroke="midnightblue" d="M55.7656,-77.1908C71.111,-83.563 89.6053,-91.2429 105.525,-97.8536"/>
<polygon fill="midnightblue" stroke="midnightblue" points="56.7726,-73.8192 46.1949,-73.2165 54.088,-80.284 56.7726,-73.8192"/>
</g>
<!-- Node3 -->
<g id="node3" class="node"><title>Node3</title>
<g id="a_node3"><a xlink:href="structfactory_1_1bits_1_1forward__to__parent.html" target="_top" xlink:title="factory::bits::forward\l_to_parent\&lt; Router \&gt;">
<polygon fill="white" stroke="black" points="88,-49 88,-79 198,-79 198,-49 88,-49"/>
<text text-anchor="start" x="96" y="-67" font-family="Helvetica,sans-Serif" font-size="10.00">factory::bits::forward</text>
<text text-anchor="middle" x="143" y="-56" font-family="Helvetica,sans-Serif" font-size="10.00">_to_parent&lt; Router &gt;</text>
</a>
</g>
</g>
<!-- Node1&#45;&gt;Node3 -->
<g id="edge2" class="edge"><title>Node1&#45;&gt;Node3</title>
<path fill="none" stroke="midnightblue" d="M56.4869,-64C66.1159,-64 76.9344,-64 87.5549,-64"/>
<polygon fill="midnightblue" stroke="midnightblue" points="56.1949,-60.5001 46.1949,-64 56.1949,-67.5001 56.1949,-60.5001"/>
</g>
<!-- Node4 -->
<g id="node4" class="node"><title>Node4</title>
<g id="a_node4"><a xlink:href="structfactory_1_1bits_1_1no__forward.html" target="_top" xlink:title="factory::bits::no_forward\l\&lt; Router \&gt;">
<polygon fill="white" stroke="black" points="82,-0 82,-30 204,-30 204,-0 82,-0"/>
<text text-anchor="start" x="90" y="-18" font-family="Helvetica,sans-Serif" font-size="10.00">factory::bits::no_forward</text>
<text text-anchor="middle" x="143" y="-7" font-family="Helvetica,sans-Serif" font-size="10.00">&lt; Router &gt;</text>
</a>
</g>
</g>
<!-- Node1&#45;&gt;Node4 -->
<g id="edge3" class="edge"><title>Node1&#45;&gt;Node4</title>
<path fill="none" stroke="midnightblue" d="M55.7656,-50.8092C71.111,-44.437 89.6053,-36.7571 105.525,-30.1464"/>
<polygon fill="midnightblue" stroke="midnightblue" points="54.088,-47.716 46.1949,-54.7835 56.7726,-54.1808 54.088,-47.716"/>
</g>
</g>
</svg>
