<?xml version="1.0" encoding="UTF-8" standalone="no"?>
<!DOCTYPE svg PUBLIC "-//W3C//DTD SVG 1.1//EN"
 "http://www.w3.org/Graphics/SVG/1.1/DTD/svg11.dtd">
<!-- Generated by graphviz version 2.36.0 (20140111.2315)
 -->
<!-- Title: Graphical Class Hierarchy Pages: 1 -->
<svg width="642pt" height="305pt"
 viewBox="0.00 0.00 642.00 305.00" xmlns="http://www.w3.org/2000/svg" xmlns:xlink="http://www.w3.org/1999/xlink">
<g id="graph0" class="graph" transform="scale(1 1) rotate(0) translate(4 301)">
<title>Graphical Class Hierarchy</title>
<polygon fill="white" stroke="none" points="-4,4 -4,-301 638,-301 638,4 -4,4"/>
<!-- Node1 -->
<g id="node1" class="node"><title>Node1</title>
<g id="a_node1"><a xlink:href="structfactory_1_1Server__base.html" target="_top" xlink:title="factory::Server_base">
<polygon fill="white" stroke="black" points="0.5,-198.5 0.5,-217.5 107.5,-217.5 107.5,-198.5 0.5,-198.5"/>
<text text-anchor="middle" x="54" y="-205.5" font-family="Helvetica,sans-Serif" font-size="10.00">factory::Server_base</text>
</a>
</g>
</g>
<!-- Node2 -->
<g id="node2" class="node"><title>Node2</title>
<g id="a_node2"><a xlink:href="structfactory_1_1Buffered__server.html" target="_top" xlink:title="factory::Buffered_server\l\&lt; T, Router \&gt;">
<polygon fill="white" stroke="black" points="159,-267 159,-297 281,-297 281,-267 159,-267"/>
<text text-anchor="start" x="167" y="-285" font-family="Helvetica,sans-Serif" font-size="10.00">factory::Buffered_server</text>
<text text-anchor="middle" x="220" y="-274" font-family="Helvetica,sans-Serif" font-size="10.00">&lt; T, Router &gt;</text>
</a>
</g>
</g>
<!-- Node1&#45;&gt;Node2 -->
<g id="edge1" class="edge"><title>Node1&#45;&gt;Node2</title>
<path fill="none" stroke="midnightblue" d="M79.3024,-222.953C96.8592,-233.361 121.368,-247.096 144,-257 152.173,-260.577 161.031,-263.949 169.699,-266.99"/>
<polygon fill="midnightblue" stroke="midnightblue" points="80.6946,-219.706 70.3199,-217.558 77.0904,-225.707 80.6946,-219.706"/>
</g>
<!-- Node4 -->
<g id="node4" class="node"><title>Node4</title>
<g id="a_node4"><a xlink:href="structfactory_1_1Buffered__server.html" target="_top" xlink:title="factory::Buffered_server\l\&lt; T, Router, Kernels \&gt;">
<polygon fill="white" stroke="black" points="159,-218 159,-248 281,-248 281,-218 159,-218"/>
<text text-anchor="start" x="167" y="-236" font-family="Helvetica,sans-Serif" font-size="10.00">factory::Buffered_server</text>
<text text-anchor="middle" x="220" y="-225" font-family="Helvetica,sans-Serif" font-size="10.00">&lt; T, Router, Kernels &gt;</text>
</a>
</g>
</g>
<!-- Node1&#45;&gt;Node4 -->
<g id="edge3" class="edge"><title>Node1&#45;&gt;Node4</title>
<path fill="none" stroke="midnightblue" d="M117.915,-217.591C131.37,-219.642 145.551,-221.803 158.896,-223.838"/>
<polygon fill="midnightblue" stroke="midnightblue" points="118.207,-214.095 107.793,-216.048 117.152,-221.015 118.207,-214.095"/>
</g>
<!-- Node5 -->
<g id="node5" class="node"><title>Node5</title>
<g id="a_node5"><a xlink:href="structfactory_1_1Remote__Rserver.html" target="_top" xlink:title="factory::Remote_Rserver\l\&lt; T, Socket, Router, Kernels \&gt;">
<polygon fill="white" stroke="black" points="144,-169 144,-199 296,-199 296,-169 144,-169"/>
<text text-anchor="start" x="152" y="-187" font-family="Helvetica,sans-Serif" font-size="10.00">factory::Remote_Rserver</text>
<text text-anchor="middle" x="220" y="-176" font-family="Helvetica,sans-Serif" font-size="10.00">&lt; T, Socket, Router, Kernels &gt;</text>
</a>
</g>
</g>
<!-- Node1&#45;&gt;Node5 -->
<g id="edge4" class="edge"><title>Node1&#45;&gt;Node5</title>
<path fill="none" stroke="midnightblue" d="M117.697,-198.825C126.27,-197.57 135.143,-196.272 143.909,-194.989"/>
<polygon fill="midnightblue" stroke="midnightblue" points="117.181,-195.363 107.793,-200.274 118.195,-202.289 117.181,-195.363"/>
</g>
<!-- Node6 -->
<g id="node6" class="node"><title>Node6</title>
<g id="a_node6"><a xlink:href="structfactory_1_1Server__with__pool.html" target="_top" xlink:title="factory::Server_with\l_pool\&lt; T, Kernels, Threads,\l Mutex, Lock, Semaphore \&gt;">
<polygon fill="white" stroke="black" points="151,-109.5 151,-150.5 289,-150.5 289,-109.5 151,-109.5"/>
<text text-anchor="start" x="159" y="-138.5" font-family="Helvetica,sans-Serif" font-size="10.00">factory::Server_with</text>
<text text-anchor="start" x="159" y="-127.5" font-family="Helvetica,sans-Serif" font-size="10.00">_pool&lt; T, Kernels, Threads,</text>
<text text-anchor="middle" x="220" y="-116.5" font-family="Helvetica,sans-Serif" font-size="10.00"> Mutex, Lock, Semaphore &gt;</text>
</a>
</g>
</g>
<!-- Node1&#45;&gt;Node6 -->
<g id="edge5" class="edge"><title>Node1&#45;&gt;Node6</title>
<path fill="none" stroke="midnightblue" d="M79.7694,-193.189C97.3721,-182.955 121.742,-169.373 144,-159 150.2,-156.11 156.775,-153.265 163.353,-150.551"/>
<polygon fill="midnightblue" stroke="midnightblue" points="77.5948,-190.407 70.7428,-198.487 81.1386,-196.443 77.5948,-190.407"/>
</g>
<!-- Node3 -->
<g id="node3" class="node"><title>Node3</title>
<g id="a_node3"><a xlink:href="structfactory_1_1Process__rserver.html" target="_top" xlink:title="factory::Process_rserver\l\&lt; T, Router \&gt;">
<polygon fill="white" stroke="black" points="337,-267 337,-297 461,-297 461,-267 337,-267"/>
<text text-anchor="start" x="345" y="-285" font-family="Helvetica,sans-Serif" font-size="10.00">factory::Process_rserver</text>
<text text-anchor="middle" x="399" y="-274" font-family="Helvetica,sans-Serif" font-size="10.00">&lt; T, Router &gt;</text>
</a>
</g>
</g>
<!-- Node2&#45;&gt;Node3 -->
<g id="edge2" class="edge"><title>Node2&#45;&gt;Node3</title>
<path fill="none" stroke="midnightblue" d="M291.66,-282C306.651,-282 322.355,-282 336.952,-282"/>
<polygon fill="midnightblue" stroke="midnightblue" points="291.418,-278.5 281.418,-282 291.418,-285.5 291.418,-278.5"/>
</g>
<!-- Node7 -->
<g id="node7" class="node"><title>Node7</title>
<g id="a_node7"><a xlink:href="structfactory_1_1Basic__CPU__server.html" target="_top" xlink:title="factory::Basic_CPU\l_server\&lt; T \&gt;">
<polygon fill="white" stroke="black" points="347,-208 347,-238 451,-238 451,-208 347,-208"/>
<text text-anchor="start" x="355" y="-226" font-family="Helvetica,sans-Serif" font-size="10.00">factory::Basic_CPU</text>
<text text-anchor="middle" x="399" y="-215" font-family="Helvetica,sans-Serif" font-size="10.00">_server&lt; T &gt;</text>
</a>
</g>
</g>
<!-- Node6&#45;&gt;Node7 -->
<g id="edge6" class="edge"><title>Node6&#45;&gt;Node7</title>
<path fill="none" stroke="midnightblue" d="M290.791,-155.665C292.571,-156.74 294.312,-157.852 296,-159 315.507,-172.264 312.448,-184.803 332,-198 337.586,-201.77 343.818,-205.074 350.161,-207.939"/>
<polygon fill="midnightblue" stroke="midnightblue" points="292.049,-152.361 281.604,-150.587 288.662,-158.488 292.049,-152.361"/>
</g>
<!-- Node10 -->
<g id="node10" class="node"><title>Node10</title>
<g id="a_node10"><a xlink:href="structfactory_1_1Proxy__server.html" target="_top" xlink:title="factory::Proxy_server\l\&lt; T, Rserver \&gt;">
<polygon fill="white" stroke="black" points="344,-159 344,-189 454,-189 454,-159 344,-159"/>
<text text-anchor="start" x="352" y="-177" font-family="Helvetica,sans-Serif" font-size="10.00">factory::Proxy_server</text>
<text text-anchor="middle" x="399" y="-166" font-family="Helvetica,sans-Serif" font-size="10.00">&lt; T, Rserver &gt;</text>
</a>
</g>
</g>
<!-- Node6&#45;&gt;Node10 -->
<g id="edge9" class="edge"><title>Node6&#45;&gt;Node10</title>
<path fill="none" stroke="midnightblue" d="M299.041,-149.4C314.168,-153.16 329.708,-157.023 343.86,-160.541"/>
<polygon fill="midnightblue" stroke="midnightblue" points="299.729,-145.965 289.18,-146.949 298.04,-152.758 299.729,-145.965"/>
</g>
<!-- Node11 -->
<g id="node11" class="node"><title>Node11</title>
<g id="a_node11"><a xlink:href="structfactory_1_1Timer__server.html" target="_top" xlink:title="factory::Timer_server\&lt; T \&gt;">
<polygon fill="white" stroke="black" points="332,-120.5 332,-139.5 466,-139.5 466,-120.5 332,-120.5"/>
<text text-anchor="middle" x="399" y="-127.5" font-family="Helvetica,sans-Serif" font-size="10.00">factory::Timer_server&lt; T &gt;</text>
</a>
</g>
</g>
<!-- Node6&#45;&gt;Node11 -->
<g id="edge10" class="edge"><title>Node6&#45;&gt;Node11</title>
<path fill="none" stroke="midnightblue" d="M299.474,-130C310.298,-130 321.325,-130 331.895,-130"/>
<polygon fill="midnightblue" stroke="midnightblue" points="299.18,-126.5 289.18,-130 299.18,-133.5 299.18,-126.5"/>
</g>
<!-- Node12 -->
<g id="node12" class="node"><title>Node12</title>
<g id="a_node12"><a xlink:href="structfactory_1_1Proxy__server.html" target="_top" xlink:title="factory::Proxy_server\l\&lt; T, Process_rserver\l\&lt; T, Router \&gt; \&gt;">
<polygon fill="white" stroke="black" points="344,-60.5 344,-101.5 454,-101.5 454,-60.5 344,-60.5"/>
<text text-anchor="start" x="352" y="-89.5" font-family="Helvetica,sans-Serif" font-size="10.00">factory::Proxy_server</text>
<text text-anchor="start" x="352" y="-78.5" font-family="Helvetica,sans-Serif" font-size="10.00">&lt; T, Process_rserver</text>
<text text-anchor="middle" x="399" y="-67.5" font-family="Helvetica,sans-Serif" font-size="10.00">&lt; T, Router &gt; &gt;</text>
</a>
</g>
</g>
<!-- Node6&#45;&gt;Node12 -->
<g id="edge11" class="edge"><title>Node6&#45;&gt;Node12</title>
<path fill="none" stroke="midnightblue" d="M299.041,-108.395C314.168,-104.208 329.708,-99.9058 343.86,-95.9879"/>
<polygon fill="midnightblue" stroke="midnightblue" points="297.883,-105.084 289.18,-111.125 299.751,-111.83 297.883,-105.084"/>
</g>
<!-- Node15 -->
<g id="node15" class="node"><title>Node15</title>
<g id="a_node15"><a xlink:href="structfactory_1_1Proxy__server.html" target="_top" xlink:title="factory::Proxy_server\l\&lt; T, Remote_Rserver\&lt;\l T, Socket, Router \&gt; \&gt;">
<polygon fill="white" stroke="black" points="340,-0.5 340,-41.5 458,-41.5 458,-0.5 340,-0.5"/>
<text text-anchor="start" x="348" y="-29.5" font-family="Helvetica,sans-Serif" font-size="10.00">factory::Proxy_server</text>
<text text-anchor="start" x="348" y="-18.5" font-family="Helvetica,sans-Serif" font-size="10.00">&lt; T, Remote_Rserver&lt;</text>
<text text-anchor="middle" x="399" y="-7.5" font-family="Helvetica,sans-Serif" font-size="10.00"> T, Socket, Router &gt; &gt;</text>
</a>
</g>
</g>
<!-- Node6&#45;&gt;Node15 -->
<g id="edge14" class="edge"><title>Node6&#45;&gt;Node15</title>
<path fill="none" stroke="midnightblue" d="M255.081,-103.15C276.479,-86.9571 305.039,-66.5293 332,-51 337.671,-47.7333 343.762,-44.5558 349.867,-41.5662"/>
<polygon fill="midnightblue" stroke="midnightblue" points="252.782,-100.502 246.959,-109.353 257.031,-106.065 252.782,-100.502"/>
</g>
<!-- Node8 -->
<g id="node8" class="node"><title>Node8</title>
<g id="a_node8"><a xlink:href="structfactory_1_1CPU__server.html" target="_top" xlink:title="factory::CPU_server\&lt; T \&gt;">
<polygon fill="white" stroke="black" points="502.5,-232.5 502.5,-251.5 633.5,-251.5 633.5,-232.5 502.5,-232.5"/>
<text text-anchor="middle" x="568" y="-239.5" font-family="Helvetica,sans-Serif" font-size="10.00">factory::CPU_server&lt; T &gt;</text>
</a>
</g>
</g>
<!-- Node7&#45;&gt;Node8 -->
<g id="edge7" class="edge"><title>Node7&#45;&gt;Node8</title>
<path fill="none" stroke="midnightblue" d="M461.105,-229.952C474.55,-231.482 488.83,-233.106 502.407,-234.651"/>
<polygon fill="midnightblue" stroke="midnightblue" points="461.345,-226.457 451.013,-228.804 460.553,-233.412 461.345,-226.457"/>
</g>
<!-- Node9 -->
<g id="node9" class="node"><title>Node9</title>
<g id="a_node9"><a xlink:href="structfactory_1_1IO__server.html" target="_top" xlink:title="factory::IO_server\&lt; T \&gt;">
<polygon fill="white" stroke="black" points="508.5,-194.5 508.5,-213.5 627.5,-213.5 627.5,-194.5 508.5,-194.5"/>
<text text-anchor="middle" x="568" y="-201.5" font-family="Helvetica,sans-Serif" font-size="10.00">factory::IO_server&lt; T &gt;</text>
</a>
</g>
</g>
<!-- Node7&#45;&gt;Node9 -->
<g id="edge8" class="edge"><title>Node7&#45;&gt;Node9</title>
<path fill="none" stroke="midnightblue" d="M460.995,-216.06C476.468,-214.3 493.054,-212.413 508.405,-210.667"/>
<polygon fill="midnightblue" stroke="midnightblue" points="460.553,-212.588 451.013,-217.196 461.345,-219.543 460.553,-212.588"/>
</g>
<!-- Node13 -->
<g id="node13" class="node"><title>Node13</title>
<g id="a_node13"><a xlink:href="structfactory_1_1Process__child__server.html" target="_top" xlink:title="factory::Process_child\l_server\&lt; T, Router \&gt;">
<polygon fill="white" stroke="black" points="511,-110 511,-140 625,-140 625,-110 511,-110"/>
<text text-anchor="start" x="519" y="-128" font-family="Helvetica,sans-Serif" font-size="10.00">factory::Process_child</text>
<text text-anchor="middle" x="568" y="-117" font-family="Helvetica,sans-Serif" font-size="10.00">_server&lt; T, Router &gt;</text>
</a>
</g>
</g>
<!-- Node12&#45;&gt;Node13 -->
<g id="edge12" class="edge"><title>Node12&#45;&gt;Node13</title>
<path fill="none" stroke="midnightblue" d="M464.155,-97.903C479.511,-101.949 495.791,-106.238 510.758,-110.182"/>
<polygon fill="midnightblue" stroke="midnightblue" points="464.782,-94.4489 454.22,-95.2855 462.998,-101.218 464.782,-94.4489"/>
</g>
<!-- Node14 -->
<g id="node14" class="node"><title>Node14</title>
<g id="a_node14"><a xlink:href="structfactory_1_1Process__iserver.html" target="_top" xlink:title="factory::Process_iserver\l\&lt; T, Router \&gt;">
<polygon fill="white" stroke="black" points="506.5,-61 506.5,-91 629.5,-91 629.5,-61 506.5,-61"/>
<text text-anchor="start" x="514.5" y="-79" font-family="Helvetica,sans-Serif" font-size="10.00">factory::Process_iserver</text>
<text text-anchor="middle" x="568" y="-68" font-family="Helvetica,sans-Serif" font-size="10.00">&lt; T, Router &gt;</text>
</a>
</g>
</g>
<!-- Node12&#45;&gt;Node14 -->
<g id="edge13" class="edge"><title>Node12&#45;&gt;Node14</title>
<path fill="none" stroke="midnightblue" d="M464.571,-79.0667C478.325,-78.6549 492.803,-78.2215 506.402,-77.8143"/>
<polygon fill="midnightblue" stroke="midnightblue" points="464.111,-75.5789 454.22,-79.3766 464.32,-82.5757 464.111,-75.5789"/>
</g>
<!-- Node16 -->
<g id="node16" class="node"><title>Node16</title>
<g id="a_node16"><a xlink:href="structfactory_1_1NIC__server.html" target="_top" xlink:title="factory::NIC_server\l\&lt; T, Socket, Router \&gt;">
<polygon fill="white" stroke="black" points="511.5,-6 511.5,-36 624.5,-36 624.5,-6 511.5,-6"/>
<text text-anchor="start" x="519.5" y="-24" font-family="Helvetica,sans-Serif" font-size="10.00">factory::NIC_server</text>
<text text-anchor="middle" x="568" y="-13" font-family="Helvetica,sans-Serif" font-size="10.00">&lt; T, Socket, Router &gt;</text>
</a>
</g>
</g>
<!-- Node15&#45;&gt;Node16 -->
<g id="edge15" class="edge"><title>Node15&#45;&gt;Node16</title>
<path fill="none" stroke="midnightblue" d="M468.649,-21C482.891,-21 497.728,-21 511.431,-21"/>
<polygon fill="midnightblue" stroke="midnightblue" points="468.409,-17.5001 458.408,-21 468.408,-24.5001 468.409,-17.5001"/>
</g>
</g>
</svg>
