<?xml version="1.0" encoding="UTF-8" standalone="no"?>
<!DOCTYPE svg PUBLIC "-//W3C//DTD SVG 1.1//EN"
 "http://www.w3.org/Graphics/SVG/1.1/DTD/svg11.dtd">
<!-- Generated by graphviz version 2.36.0 (20140111.2315)
 -->
<!-- Title: Graphical Class Hierarchy Pages: 1 -->
<svg width="728pt" height="711pt"
 viewBox="0.00 0.00 728.00 711.00" xmlns="http://www.w3.org/2000/svg" xmlns:xlink="http://www.w3.org/1999/xlink">
<g id="graph0" class="graph" transform="scale(1 1) rotate(0) translate(4 707)">
<title>Graphical Class Hierarchy</title>
<polygon fill="white" stroke="none" points="-4,4 -4,-707 724,-707 724,4 -4,4"/>
<!-- Node1 -->
<g id="node1" class="node"><title>Node1</title>
<polygon fill="white" stroke="#bfbfbf" points="318,-471.5 318,-490.5 362,-490.5 362,-471.5 318,-471.5"/>
<text text-anchor="middle" x="340" y="-478.5" font-family="Helvetica,sans-Serif" font-size="10.00">Kernel</text>
</g>
<!-- Node2 -->
<g id="node2" class="node"><title>Node2</title>
<g id="a_node2"><a xlink:href="structautoreg_1_1ACF__generator.html" target="_top" xlink:title="autoreg::ACF_generator\&lt; T \&gt;">
<polygon fill="white" stroke="black" points="416.5,-433.5 416.5,-452.5 561.5,-452.5 561.5,-433.5 416.5,-433.5"/>
<text text-anchor="middle" x="489" y="-440.5" font-family="Helvetica,sans-Serif" font-size="10.00">autoreg::ACF_generator&lt; T &gt;</text>
</a>
</g>
</g>
<!-- Node1&#45;&gt;Node2 -->
<g id="edge1" class="edge"><title>Node1&#45;&gt;Node2</title>
<path fill="none" stroke="midnightblue" d="M372.01,-472.984C395.089,-467.018 426.68,-458.851 451.066,-452.548"/>
<polygon fill="midnightblue" stroke="midnightblue" points="370.867,-469.664 362.062,-475.556 372.619,-476.441 370.867,-469.664"/>
</g>
<!-- Node3 -->
<g id="node3" class="node"><title>Node3</title>
<g id="a_node3"><a xlink:href="structautoreg_1_1Autoreg__coefs.html" target="_top" xlink:title="autoreg::Autoreg_coefs\&lt; T \&gt;">
<polygon fill="white" stroke="black" points="418,-395.5 418,-414.5 560,-414.5 560,-395.5 418,-395.5"/>
<text text-anchor="middle" x="489" y="-402.5" font-family="Helvetica,sans-Serif" font-size="10.00">autoreg::Autoreg_coefs&lt; T &gt;</text>
</a>
</g>
</g>
<!-- Node1&#45;&gt;Node3 -->
<g id="edge2" class="edge"><title>Node1&#45;&gt;Node3</title>
<path fill="none" stroke="midnightblue" d="M358.424,-464.565C372.835,-451.801 394.375,-434.551 416,-424 423.785,-420.202 432.426,-417.09 440.943,-414.566"/>
<polygon fill="midnightblue" stroke="midnightblue" points="355.864,-462.162 350.816,-471.478 360.571,-467.343 355.864,-462.162"/>
</g>
<!-- Node4 -->
<g id="node4" class="node"><title>Node4</title>
<g id="a_node4"><a xlink:href="structautoreg_1_1Generator1.html" target="_top" xlink:title="autoreg::Generator1\l\&lt; T, Grid \&gt;">
<polygon fill="white" stroke="black" points="437.5,-346 437.5,-376 540.5,-376 540.5,-346 437.5,-346"/>
<text text-anchor="start" x="445.5" y="-364" font-family="Helvetica,sans-Serif" font-size="10.00">autoreg::Generator1</text>
<text text-anchor="middle" x="489" y="-353" font-family="Helvetica,sans-Serif" font-size="10.00">&lt; T, Grid &gt;</text>
</a>
</g>
</g>
<!-- Node1&#45;&gt;Node4 -->
<g id="edge3" class="edge"><title>Node1&#45;&gt;Node4</title>
<path fill="none" stroke="midnightblue" d="M351.05,-462.713C363.618,-441.436 387.046,-406.599 416,-386 422.469,-381.398 429.861,-377.579 437.388,-374.43"/>
<polygon fill="midnightblue" stroke="midnightblue" points="347.988,-461.017 346.058,-471.435 354.063,-464.494 347.988,-461.017"/>
</g>
<!-- Node5 -->
<g id="node5" class="node"><title>Node5</title>
<g id="a_node5"><a xlink:href="structautoreg_1_1Solve__Yule__Walker.html" target="_top" xlink:title="autoreg::Solve_Yule\l_Walker\&lt; T \&gt;">
<polygon fill="white" stroke="black" points="437,-673 437,-703 541,-703 541,-673 437,-673"/>
<text text-anchor="start" x="445" y="-691" font-family="Helvetica,sans-Serif" font-size="10.00">autoreg::Solve_Yule</text>
<text text-anchor="middle" x="489" y="-680" font-family="Helvetica,sans-Serif" font-size="10.00">_Walker&lt; T &gt;</text>
</a>
</g>
</g>
<!-- Node1&#45;&gt;Node5 -->
<g id="edge4" class="edge"><title>Node1&#45;&gt;Node5</title>
<path fill="none" stroke="midnightblue" d="M343.764,-500.916C349.942,-537.989 368.275,-617.907 416,-663 421.963,-668.634 429.261,-673.006 436.897,-676.396"/>
<polygon fill="midnightblue" stroke="midnightblue" points="347.199,-500.223 342.218,-490.872 340.28,-501.288 347.199,-500.223"/>
</g>
<!-- Node6 -->
<g id="node6" class="node"><title>Node6</title>
<g id="a_node6"><a xlink:href="structautoreg_1_1Wave__surface__generator.html" target="_top" xlink:title="autoreg::Wave_surface\l_generator\&lt; T, Grid \&gt;">
<polygon fill="white" stroke="black" points="430,-624 430,-654 548,-654 548,-624 430,-624"/>
<text text-anchor="start" x="438" y="-642" font-family="Helvetica,sans-Serif" font-size="10.00">autoreg::Wave_surface</text>
<text text-anchor="middle" x="489" y="-631" font-family="Helvetica,sans-Serif" font-size="10.00">_generator&lt; T, Grid &gt;</text>
</a>
</g>
</g>
<!-- Node1&#45;&gt;Node6 -->
<g id="edge5" class="edge"><title>Node1&#45;&gt;Node6</title>
<path fill="none" stroke="midnightblue" d="M346.931,-500.268C356.738,-529.032 379.014,-583.114 416,-614 420.57,-617.817 425.759,-621.064 431.207,-623.824"/>
<polygon fill="midnightblue" stroke="midnightblue" points="350.202,-499.01 343.778,-490.585 343.546,-501.177 350.202,-499.01"/>
</g>
<!-- Node7 -->
<g id="node7" class="node"><title>Node7</title>
<g id="a_node7"><a xlink:href="structAutoreg__app.html" target="_top" xlink:title="Autoreg_app">
<polygon fill="white" stroke="black" points="453.5,-585.5 453.5,-604.5 524.5,-604.5 524.5,-585.5 453.5,-585.5"/>
<text text-anchor="middle" x="489" y="-592.5" font-family="Helvetica,sans-Serif" font-size="10.00">Autoreg_app</text>
</a>
</g>
</g>
<!-- Node1&#45;&gt;Node7 -->
<g id="edge6" class="edge"><title>Node1&#45;&gt;Node7</title>
<path fill="none" stroke="midnightblue" d="M350.786,-499.673C363.1,-521.323 386.282,-556.519 416,-576 427.028,-583.229 440.698,-587.714 453.155,-590.494"/>
<polygon fill="midnightblue" stroke="midnightblue" points="353.788,-497.868 345.908,-490.785 347.651,-501.235 353.788,-497.868"/>
</g>
<!-- Node8 -->
<g id="node8" class="node"><title>Node8</title>
<g id="a_node8"><a xlink:href="structLauncher.html" target="_top" xlink:title="Launcher">
<polygon fill="white" stroke="black" points="461,-547.5 461,-566.5 517,-566.5 517,-547.5 461,-547.5"/>
<text text-anchor="middle" x="489" y="-554.5" font-family="Helvetica,sans-Serif" font-size="10.00">Launcher</text>
</a>
</g>
</g>
<!-- Node1&#45;&gt;Node8 -->
<g id="edge7" class="edge"><title>Node1&#45;&gt;Node8</title>
<path fill="none" stroke="midnightblue" d="M358.424,-497.435C372.835,-510.199 394.375,-527.449 416,-538 430.059,-544.859 446.912,-549.479 460.779,-552.444"/>
<polygon fill="midnightblue" stroke="midnightblue" points="360.571,-494.657 350.816,-490.522 355.864,-499.838 360.571,-494.657"/>
</g>
<!-- Node9 -->
<g id="node9" class="node"><title>Node9</title>
<g id="a_node9"><a xlink:href="classMain.html" target="_top" xlink:title="Main">
<polygon fill="white" stroke="black" points="470,-269.5 470,-288.5 508,-288.5 508,-269.5 470,-269.5"/>
<text text-anchor="middle" x="489" y="-276.5" font-family="Helvetica,sans-Serif" font-size="10.00">Main</text>
</a>
</g>
</g>
<!-- Node1&#45;&gt;Node9 -->
<g id="edge8" class="edge"><title>Node1&#45;&gt;Node9</title>
<path fill="none" stroke="midnightblue" d="M343.336,-461.163C348.844,-423.544 366.168,-341.699 416,-298 430.969,-284.873 453.983,-280.664 469.947,-279.394"/>
<polygon fill="midnightblue" stroke="midnightblue" points="339.833,-460.952 341.983,-471.327 346.772,-461.876 339.833,-460.952"/>
</g>
<!-- Node10 -->
<g id="node10" class="node"><title>Node10</title>
<g id="a_node10"><a xlink:href="structSpec__app.html" target="_top" xlink:title="Spec_app">
<polygon fill="white" stroke="black" points="459,-509.5 459,-528.5 519,-528.5 519,-509.5 459,-509.5"/>
<text text-anchor="middle" x="489" y="-516.5" font-family="Helvetica,sans-Serif" font-size="10.00">Spec_app</text>
</a>
</g>
</g>
<!-- Node1&#45;&gt;Node10 -->
<g id="edge9" class="edge"><title>Node1&#45;&gt;Node10</title>
<path fill="none" stroke="midnightblue" d="M372.001,-489.014C397.633,-495.64 433.768,-504.981 458.87,-511.47"/>
<polygon fill="midnightblue" stroke="midnightblue" points="372.619,-485.559 362.062,-486.444 370.867,-492.336 372.619,-485.559"/>
</g>
<!-- Node11 -->
<g id="node11" class="node"><title>Node11</title>
<g id="a_node11"><a xlink:href="structStation__kernel.html" target="_top" xlink:title="Station_kernel">
<polygon fill="white" stroke="black" points="449.5,-471.5 449.5,-490.5 528.5,-490.5 528.5,-471.5 449.5,-471.5"/>
<text text-anchor="middle" x="489" y="-478.5" font-family="Helvetica,sans-Serif" font-size="10.00">Station_kernel</text>
</a>
</g>
</g>
<!-- Node1&#45;&gt;Node11 -->
<g id="edge10" class="edge"><title>Node1&#45;&gt;Node11</title>
<path fill="none" stroke="midnightblue" d="M372.097,-481C394.621,-481 425.219,-481 449.32,-481"/>
<polygon fill="midnightblue" stroke="midnightblue" points="372.062,-477.5 362.062,-481 372.061,-484.5 372.062,-477.5"/>
</g>
<!-- Node12 -->
<g id="node12" class="node"><title>Node12</title>
<g id="a_node12"><a xlink:href="structTest__socket.html" target="_top" xlink:title="Test_socket">
<polygon fill="white" stroke="black" points="453.5,-307.5 453.5,-326.5 524.5,-326.5 524.5,-307.5 453.5,-307.5"/>
<text text-anchor="middle" x="489" y="-314.5" font-family="Helvetica,sans-Serif" font-size="10.00">Test_socket</text>
</a>
</g>
</g>
<!-- Node1&#45;&gt;Node12 -->
<g id="edge11" class="edge"><title>Node1&#45;&gt;Node12</title>
<path fill="none" stroke="midnightblue" d="M345.846,-461.165C354.502,-429.988 375.618,-369.708 416,-337 426.585,-328.426 440.6,-323.521 453.45,-320.718"/>
<polygon fill="midnightblue" stroke="midnightblue" points="342.358,-460.668 343.208,-471.229 349.129,-462.443 342.358,-460.668"/>
</g>
<!-- Node13 -->
<g id="node13" class="node"><title>Node13</title>
<g id="a_node13"><a xlink:href="classfactory_1_1kernel__base.html" target="_top" xlink:title="factory::kernel_base">
<polygon fill="white" stroke="black" points="4.5,-181.5 4.5,-200.5 109.5,-200.5 109.5,-181.5 4.5,-181.5"/>
<text text-anchor="middle" x="57" y="-188.5" font-family="Helvetica,sans-Serif" font-size="10.00">factory::kernel_base</text>
</a>
</g>
</g>
<!-- Node14 -->
<g id="node14" class="node"><title>Node14</title>
<g id="a_node14"><a xlink:href="classfactory_1_1mobile__kernel.html" target="_top" xlink:title="factory::mobile_kernel">
<polygon fill="white" stroke="black" points="150.5,-162.5 150.5,-181.5 263.5,-181.5 263.5,-162.5 150.5,-162.5"/>
<text text-anchor="middle" x="207" y="-169.5" font-family="Helvetica,sans-Serif" font-size="10.00">factory::mobile_kernel</text>
</a>
</g>
</g>
<!-- Node13&#45;&gt;Node14 -->
<g id="edge12" class="edge"><title>Node13&#45;&gt;Node14</title>
<path fill="none" stroke="midnightblue" d="M119.806,-183.065C129.983,-181.759 140.477,-180.412 150.489,-179.126"/>
<polygon fill="midnightblue" stroke="midnightblue" points="119.236,-179.61 109.763,-184.355 120.128,-186.553 119.236,-179.61"/>
</g>
<!-- Node15 -->
<g id="node15" class="node"><title>Node15</title>
<g id="a_node15"><a xlink:href="structfactory_1_1Kernel.html" target="_top" xlink:title="factory::Kernel">
<polygon fill="white" stroke="black" points="300,-162.5 300,-181.5 380,-181.5 380,-162.5 300,-162.5"/>
<text text-anchor="middle" x="340" y="-169.5" font-family="Helvetica,sans-Serif" font-size="10.00">factory::Kernel</text>
</a>
</g>
</g>
<!-- Node14&#45;&gt;Node15 -->
<g id="edge13" class="edge"><title>Node14&#45;&gt;Node15</title>
<path fill="none" stroke="midnightblue" d="M273.579,-172C282.487,-172 291.392,-172 299.637,-172"/>
<polygon fill="midnightblue" stroke="midnightblue" points="273.556,-168.5 263.556,-172 273.556,-175.5 273.556,-168.5"/>
</g>
<!-- Node15&#45;&gt;Node9 -->
<g id="edge20" class="edge"><title>Node15&#45;&gt;Node9</title>
<path fill="none" stroke="midnightblue" d="M351.984,-190.214C364.878,-210.048 388.086,-241.299 416,-259 432.544,-269.491 454.621,-274.564 469.948,-276.961"/>
<polygon fill="midnightblue" stroke="midnightblue" points="354.945,-188.348 346.656,-181.749 349.02,-192.077 354.945,-188.348"/>
</g>
<!-- Node15&#45;&gt;Node12 -->
<g id="edge23" class="edge"><title>Node15&#45;&gt;Node12</title>
<path fill="none" stroke="midnightblue" d="M347.215,-191.385C357.172,-219.277 379.39,-270.403 416,-298 426.736,-306.093 440.632,-310.747 453.349,-313.419"/>
<polygon fill="midnightblue" stroke="midnightblue" points="350.426,-189.956 343.893,-181.615 343.799,-192.209 350.426,-189.956"/>
</g>
<!-- Node16 -->
<g id="node16" class="node"><title>Node16</title>
<g id="a_node16"><a xlink:href="structBig__kernel.html" target="_top" xlink:title="Big_kernel\&lt; Size \&gt;">
<polygon fill="white" stroke="black" points="439,-105.5 439,-124.5 539,-124.5 539,-105.5 439,-105.5"/>
<text text-anchor="middle" x="489" y="-112.5" font-family="Helvetica,sans-Serif" font-size="10.00">Big_kernel&lt; Size &gt;</text>
</a>
</g>
</g>
<!-- Node15&#45;&gt;Node16 -->
<g id="edge14" class="edge"><title>Node15&#45;&gt;Node16</title>
<path fill="none" stroke="midnightblue" d="M366.657,-157.301C380.866,-149.598 399.04,-140.451 416,-134 425.425,-130.415 435.791,-127.251 445.649,-124.583"/>
<polygon fill="midnightblue" stroke="midnightblue" points="364.576,-154.452 357.516,-162.352 367.962,-160.578 364.576,-154.452"/>
</g>
<!-- Node17 -->
<g id="node17" class="node"><title>Node17</title>
<g id="a_node17"><a xlink:href="structDummy__kernel.html" target="_top" xlink:title="Dummy_kernel">
<polygon fill="white" stroke="black" points="447.5,-67.5 447.5,-86.5 530.5,-86.5 530.5,-67.5 447.5,-67.5"/>
<text text-anchor="middle" x="489" y="-74.5" font-family="Helvetica,sans-Serif" font-size="10.00">Dummy_kernel</text>
</a>
</g>
</g>
<!-- Node15&#45;&gt;Node17 -->
<g id="edge15" class="edge"><title>Node15&#45;&gt;Node17</title>
<path fill="none" stroke="midnightblue" d="M353.879,-154.255C367.427,-136.868 390.32,-110.875 416,-96 425.509,-90.4922 436.641,-86.5472 447.27,-83.7345"/>
<polygon fill="midnightblue" stroke="midnightblue" points="350.917,-152.371 347.681,-162.459 356.502,-156.59 350.917,-152.371"/>
</g>
<!-- Node18 -->
<g id="node18" class="node"><title>Node18</title>
<g id="a_node18"><a xlink:href="structGood__kernel.html" target="_top" xlink:title="Good_kernel">
<polygon fill="white" stroke="black" points="453.5,-29.5 453.5,-48.5 524.5,-48.5 524.5,-29.5 453.5,-29.5"/>
<text text-anchor="middle" x="489" y="-36.5" font-family="Helvetica,sans-Serif" font-size="10.00">Good_kernel</text>
</a>
</g>
</g>
<!-- Node15&#45;&gt;Node18 -->
<g id="edge16" class="edge"><title>Node15&#45;&gt;Node18</title>
<path fill="none" stroke="midnightblue" d="M348.355,-152.979C359.223,-127.434 382.022,-82.4349 416,-58 426.811,-50.2257 440.577,-45.6316 453.172,-42.9171"/>
<polygon fill="midnightblue" stroke="midnightblue" points="345.079,-151.743 344.545,-162.325 351.561,-154.386 345.079,-151.743"/>
</g>
<!-- Node21 -->
<g id="node21" class="node"><title>Node21</title>
<g id="a_node21"><a xlink:href="structKernel__that__carries__its__parent.html" target="_top" xlink:title="Kernel_that_carries\l_its_parent">
<polygon fill="white" stroke="black" points="438.5,-220 438.5,-250 539.5,-250 539.5,-220 438.5,-220"/>
<text text-anchor="start" x="446.5" y="-238" font-family="Helvetica,sans-Serif" font-size="10.00">Kernel_that_carries</text>
<text text-anchor="middle" x="489" y="-227" font-family="Helvetica,sans-Serif" font-size="10.00">_its_parent</text>
</a>
</g>
</g>
<!-- Node15&#45;&gt;Node21 -->
<g id="edge19" class="edge"><title>Node15&#45;&gt;Node21</title>
<path fill="none" stroke="midnightblue" d="M367.423,-186.487C381.606,-193.982 399.516,-203 416,-210 424.16,-213.465 432.981,-216.829 441.557,-219.907"/>
<polygon fill="midnightblue" stroke="midnightblue" points="368.731,-183.218 358.263,-181.586 365.429,-189.39 368.731,-183.218"/>
</g>
<!-- Node22 -->
<g id="node22" class="node"><title>Node22</title>
<g id="a_node22"><a xlink:href="structSender.html" target="_top" xlink:title="Sender">
<polygon fill="white" stroke="black" points="465.5,-181.5 465.5,-200.5 512.5,-200.5 512.5,-181.5 465.5,-181.5"/>
<text text-anchor="middle" x="489" y="-188.5" font-family="Helvetica,sans-Serif" font-size="10.00">Sender</text>
</a>
</g>
</g>
<!-- Node15&#45;&gt;Node22 -->
<g id="edge21" class="edge"><title>Node15&#45;&gt;Node22</title>
<path fill="none" stroke="midnightblue" d="M390.217,-178.361C415.609,-181.643 445.356,-185.488 465.313,-188.068"/>
<polygon fill="midnightblue" stroke="midnightblue" points="390.374,-174.853 380.007,-177.042 389.476,-181.795 390.374,-174.853"/>
</g>
<!-- Node23 -->
<g id="node23" class="node"><title>Node23</title>
<g id="a_node23"><a xlink:href="structSleepy__kernel.html" target="_top" xlink:title="Sleepy_kernel">
<polygon fill="white" stroke="black" points="450,-143.5 450,-162.5 528,-162.5 528,-143.5 450,-143.5"/>
<text text-anchor="middle" x="489" y="-150.5" font-family="Helvetica,sans-Serif" font-size="10.00">Sleepy_kernel</text>
</a>
</g>
</g>
<!-- Node15&#45;&gt;Node23 -->
<g id="edge22" class="edge"><title>Node15&#45;&gt;Node23</title>
<path fill="none" stroke="midnightblue" d="M389.934,-165.675C409.436,-163.155 431.546,-160.297 449.829,-157.934"/>
<polygon fill="midnightblue" stroke="midnightblue" points="389.476,-162.205 380.007,-166.958 390.374,-169.147 389.476,-162.205"/>
</g>
<!-- Node19 -->
<g id="node19" class="node"><title>Node19</title>
<g id="a_node19"><a xlink:href="structKernel__that__reads__more__than__writes.html" target="_top" xlink:title="Kernel_that_reads_more\l_than_writes">
<polygon fill="white" stroke="black" points="598,-49 598,-79 720,-79 720,-49 598,-49"/>
<text text-anchor="start" x="606" y="-67" font-family="Helvetica,sans-Serif" font-size="10.00">Kernel_that_reads_more</text>
<text text-anchor="middle" x="659" y="-56" font-family="Helvetica,sans-Serif" font-size="10.00">_than_writes</text>
</a>
</g>
</g>
<!-- Node18&#45;&gt;Node19 -->
<g id="edge17" class="edge"><title>Node18&#45;&gt;Node19</title>
<path fill="none" stroke="midnightblue" d="M534.839,-45.6725C554.141,-48.5448 576.997,-51.946 597.747,-55.0337"/>
<polygon fill="midnightblue" stroke="midnightblue" points="535.216,-42.1901 524.81,-44.18 534.186,-49.1139 535.216,-42.1901"/>
</g>
<!-- Node20 -->
<g id="node20" class="node"><title>Node20</title>
<g id="a_node20"><a xlink:href="structKernel__that__writes__more__than__reads.html" target="_top" xlink:title="Kernel_that_writes\l_more_than_reads">
<polygon fill="white" stroke="black" points="610,-0 610,-30 708,-30 708,-0 610,-0"/>
<text text-anchor="start" x="618" y="-18" font-family="Helvetica,sans-Serif" font-size="10.00">Kernel_that_writes</text>
<text text-anchor="middle" x="659" y="-7" font-family="Helvetica,sans-Serif" font-size="10.00">_more_than_reads</text>
</a>
</g>
</g>
<!-- Node18&#45;&gt;Node20 -->
<g id="edge18" class="edge"><title>Node18&#45;&gt;Node20</title>
<path fill="none" stroke="midnightblue" d="M534.726,-32.6105C557.896,-29.3006 586.211,-25.2556 609.858,-21.8774"/>
<polygon fill="midnightblue" stroke="midnightblue" points="534.214,-29.1481 524.81,-34.0272 535.204,-36.0777 534.214,-29.1481"/>
</g>
<!-- Node24 -->
<g id="node24" class="node"><title>Node24</title>
<g id="a_node24"><a xlink:href="classfactory_1_1kernel__header.html" target="_top" xlink:title="factory::kernel_header">
<polygon fill="white" stroke="black" points="0.5,-143.5 0.5,-162.5 113.5,-162.5 113.5,-143.5 0.5,-143.5"/>
<text text-anchor="middle" x="57" y="-150.5" font-family="Helvetica,sans-Serif" font-size="10.00">factory::kernel_header</text>
</a>
</g>
</g>
<!-- Node24&#45;&gt;Node14 -->
<g id="edge24" class="edge"><title>Node24&#45;&gt;Node14</title>
<path fill="none" stroke="midnightblue" d="M123.481,-161.406C132.381,-162.549 141.449,-163.713 150.158,-164.831"/>
<polygon fill="midnightblue" stroke="midnightblue" points="123.895,-157.931 113.531,-160.129 123.004,-164.874 123.895,-157.931"/>
</g>
</g>
</svg>
