<?xml version="1.0" encoding="UTF-8" standalone="no"?>
<!DOCTYPE svg PUBLIC "-//W3C//DTD SVG 1.1//EN"
 "http://www.w3.org/Graphics/SVG/1.1/DTD/svg11.dtd">
<!-- Generated by graphviz version 2.36.0 (20140111.2315)
 -->
<!-- Title: Graphical Class Hierarchy Pages: 1 -->
<svg width="646pt" height="450pt"
 viewBox="0.00 0.00 646.00 450.00" xmlns="http://www.w3.org/2000/svg" xmlns:xlink="http://www.w3.org/1999/xlink">
<g id="graph0" class="graph" transform="scale(1 1) rotate(0) translate(4 446)">
<title>Graphical Class Hierarchy</title>
<polygon fill="white" stroke="none" points="-4,4 -4,-446 642,-446 642,4 -4,4"/>
<!-- Node1 -->
<g id="node1" class="node"><title>Node1</title>
<g id="a_node1"><a xlink:href="classfactory_1_1pipeline__base.html" target="_top" xlink:title="factory::pipeline_base">
<polygon fill="white" stroke="black" points="0,-136.5 0,-155.5 112,-155.5 112,-136.5 0,-136.5"/>
<text text-anchor="middle" x="56" y="-143.5" font-family="Helvetica,sans-Serif" font-size="10.00">factory::pipeline_base</text>
</a>
</g>
</g>
<!-- Node2 -->
<g id="node2" class="node"><title>Node2</title>
<g id="a_node2"><a xlink:href="classfactory_1_1basic__pipeline.html" target="_top" xlink:title="factory::basic_pipeline\&lt; T \&gt;">
<polygon fill="white" stroke="black" points="148,-356.5 148,-375.5 286,-375.5 286,-356.5 148,-356.5"/>
<text text-anchor="middle" x="217" y="-363.5" font-family="Helvetica,sans-Serif" font-size="10.00">factory::basic_pipeline&lt; T &gt;</text>
</a>
</g>
</g>
<!-- Node1&#45;&gt;Node2 -->
<g id="edge1" class="edge"><title>Node1&#45;&gt;Node2</title>
<path fill="none" stroke="midnightblue" d="M68.1375,-164.502C84.6597,-191.591 117.052,-243.348 148,-285 167.93,-311.823 193.891,-341.447 207.235,-356.332"/>
<polygon fill="midnightblue" stroke="midnightblue" points="70.979,-162.438 62.8005,-155.702 64.9938,-166.068 70.979,-162.438"/>
</g>
<!-- Node5 -->
<g id="node5" class="node"><title>Node5</title>
<g id="a_node5"><a xlink:href="classfactory_1_1basic__pipeline.html" target="_top" xlink:title="factory::basic_pipeline\l\&lt; T, Kernels, Traits,\l Threads, Mutex, Lock,\l Semaphore \&gt;">
<polygon fill="white" stroke="black" points="158,-224 158,-276 276,-276 276,-224 158,-224"/>
<text text-anchor="start" x="166" y="-264" font-family="Helvetica,sans-Serif" font-size="10.00">factory::basic_pipeline</text>
<text text-anchor="start" x="166" y="-253" font-family="Helvetica,sans-Serif" font-size="10.00">&lt; T, Kernels, Traits,</text>
<text text-anchor="start" x="166" y="-242" font-family="Helvetica,sans-Serif" font-size="10.00"> Threads, Mutex, Lock,</text>
<text text-anchor="middle" x="217" y="-231" font-family="Helvetica,sans-Serif" font-size="10.00"> Semaphore &gt;</text>
</a>
</g>
</g>
<!-- Node1&#45;&gt;Node5 -->
<g id="edge4" class="edge"><title>Node1&#45;&gt;Node5</title>
<path fill="none" stroke="midnightblue" d="M76.6655,-162.095C94.6807,-176.495 122.366,-197.774 148,-214 153.305,-217.358 158.954,-220.696 164.642,-223.909"/>
<polygon fill="midnightblue" stroke="midnightblue" points="78.631,-159.184 68.6498,-155.63 74.2367,-164.632 78.631,-159.184"/>
</g>
<!-- Node17 -->
<g id="node17" class="node"><title>Node17</title>
<g id="a_node17"><a xlink:href="classfactory_1_1external__process__handler.html" target="_top" xlink:title="factory::external_process\l_handler\&lt; T, Router \&gt;">
<polygon fill="white" stroke="black" points="153.5,-175 153.5,-205 280.5,-205 280.5,-175 153.5,-175"/>
<text text-anchor="start" x="161.5" y="-193" font-family="Helvetica,sans-Serif" font-size="10.00">factory::external_process</text>
<text text-anchor="middle" x="217" y="-182" font-family="Helvetica,sans-Serif" font-size="10.00">_handler&lt; T, Router &gt;</text>
</a>
</g>
</g>
<!-- Node1&#45;&gt;Node17 -->
<g id="edge16" class="edge"><title>Node1&#45;&gt;Node17</title>
<path fill="none" stroke="midnightblue" d="M101.232,-158.24C119.926,-163.413 141.883,-169.49 161.559,-174.935"/>
<polygon fill="midnightblue" stroke="midnightblue" points="102.072,-154.841 91.5006,-155.547 100.205,-161.588 102.072,-154.841"/>
</g>
<!-- Node18 -->
<g id="node18" class="node"><title>Node18</title>
<g id="a_node18"><a xlink:href="classfactory_1_1Factory.html" target="_top" xlink:title="factory::Factory\&lt; T \&gt;">
<polygon fill="white" stroke="black" points="162,-136.5 162,-155.5 272,-155.5 272,-136.5 162,-136.5"/>
<text text-anchor="middle" x="217" y="-143.5" font-family="Helvetica,sans-Serif" font-size="10.00">factory::Factory&lt; T &gt;</text>
</a>
</g>
</g>
<!-- Node1&#45;&gt;Node18 -->
<g id="edge17" class="edge"><title>Node1&#45;&gt;Node18</title>
<path fill="none" stroke="midnightblue" d="M122.492,-146C135.543,-146 149.115,-146 161.739,-146"/>
<polygon fill="midnightblue" stroke="midnightblue" points="122.164,-142.5 112.164,-146 122.164,-149.5 122.164,-142.5"/>
</g>
<!-- Node19 -->
<g id="node19" class="node"><title>Node19</title>
<g id="a_node19"><a xlink:href="classfactory_1_1Multi__pipeline.html" target="_top" xlink:title="factory::Multi_pipeline\&lt; T \&gt;">
<polygon fill="white" stroke="black" points="149,-98.5 149,-117.5 285,-117.5 285,-98.5 149,-98.5"/>
<text text-anchor="middle" x="217" y="-105.5" font-family="Helvetica,sans-Serif" font-size="10.00">factory::Multi_pipeline&lt; T &gt;</text>
</a>
</g>
</g>
<!-- Node1&#45;&gt;Node19 -->
<g id="edge18" class="edge"><title>Node1&#45;&gt;Node19</title>
<path fill="none" stroke="midnightblue" d="M107.077,-134.032C129.358,-128.707 155.229,-122.524 176.166,-117.52"/>
<polygon fill="midnightblue" stroke="midnightblue" points="106.035,-130.682 97.1224,-136.411 107.662,-137.491 106.035,-130.682"/>
</g>
<!-- Node20 -->
<g id="node20" class="node"><title>Node20</title>
<g id="a_node20"><a xlink:href="classfactory_1_1process__handler.html" target="_top" xlink:title="factory::process_handler\l\&lt; K, R \&gt;">
<polygon fill="white" stroke="black" points="155,-49 155,-79 279,-79 279,-49 155,-49"/>
<text text-anchor="start" x="163" y="-67" font-family="Helvetica,sans-Serif" font-size="10.00">factory::process_handler</text>
<text text-anchor="middle" x="217" y="-56" font-family="Helvetica,sans-Serif" font-size="10.00">&lt; K, R &gt;</text>
</a>
</g>
</g>
<!-- Node1&#45;&gt;Node20 -->
<g id="edge19" class="edge"><title>Node1&#45;&gt;Node20</title>
<path fill="none" stroke="midnightblue" d="M78.9446,-130.442C96.9279,-118.144 123.342,-101.093 148,-89 155.228,-85.4555 163.091,-82.1207 170.822,-79.1124"/>
<polygon fill="midnightblue" stroke="midnightblue" points="76.5891,-127.816 70.363,-136.388 80.576,-133.57 76.5891,-127.816"/>
</g>
<!-- Node21 -->
<g id="node21" class="node"><title>Node21</title>
<g id="a_node21"><a xlink:href="classfactory_1_1remote__client.html" target="_top" xlink:title="factory::remote_client\l\&lt; T, Socket, Router \&gt;">
<polygon fill="white" stroke="black" points="160.5,-0 160.5,-30 273.5,-30 273.5,-0 160.5,-0"/>
<text text-anchor="start" x="168.5" y="-18" font-family="Helvetica,sans-Serif" font-size="10.00">factory::remote_client</text>
<text text-anchor="middle" x="217" y="-7" font-family="Helvetica,sans-Serif" font-size="10.00">&lt; T, Socket, Router &gt;</text>
</a>
</g>
</g>
<!-- Node1&#45;&gt;Node21 -->
<g id="edge20" class="edge"><title>Node1&#45;&gt;Node21</title>
<path fill="none" stroke="midnightblue" d="M68.2628,-127.511C83.5583,-103.851 113.039,-63.0551 148,-39 152.951,-35.5937 158.435,-32.6211 164.08,-30.0391"/>
<polygon fill="midnightblue" stroke="midnightblue" points="65.1411,-125.9 62.7712,-136.226 71.0634,-129.632 65.1411,-125.9"/>
</g>
<!-- Node3 -->
<g id="node3" class="node"><title>Node3</title>
<g id="a_node3"><a xlink:href="classfactory_1_1parallel__pipeline.html" target="_top" xlink:title="factory::parallel_pipeline\&lt; T \&gt;">
<polygon fill="white" stroke="black" points="324,-418.5 324,-437.5 470,-437.5 470,-418.5 324,-418.5"/>
<text text-anchor="middle" x="397" y="-425.5" font-family="Helvetica,sans-Serif" font-size="10.00">factory::parallel_pipeline&lt; T &gt;</text>
</a>
</g>
</g>
<!-- Node2&#45;&gt;Node3 -->
<g id="edge2" class="edge"><title>Node2&#45;&gt;Node3</title>
<path fill="none" stroke="midnightblue" d="M249.926,-379.536C270.349,-387.957 297.51,-398.72 322,-407 334.145,-411.106 347.588,-415.086 359.647,-418.456"/>
<polygon fill="midnightblue" stroke="midnightblue" points="251.061,-376.217 240.483,-375.611 248.374,-382.681 251.061,-376.217"/>
</g>
<!-- Node4 -->
<g id="node4" class="node"><title>Node4</title>
<g id="a_node4"><a xlink:href="structfactory_1_1io__pipeline.html" target="_top" xlink:title="factory::io_pipeline\&lt; T \&gt;">
<polygon fill="white" stroke="black" points="512,-422.5 512,-441.5 634,-441.5 634,-422.5 512,-422.5"/>
<text text-anchor="middle" x="573" y="-429.5" font-family="Helvetica,sans-Serif" font-size="10.00">factory::io_pipeline&lt; T &gt;</text>
</a>
</g>
</g>
<!-- Node3&#45;&gt;Node4 -->
<g id="edge3" class="edge"><title>Node3&#45;&gt;Node4</title>
<path fill="none" stroke="midnightblue" d="M480.222,-429.89C490.906,-430.136 501.687,-430.384 511.917,-430.619"/>
<polygon fill="midnightblue" stroke="midnightblue" points="480.106,-426.387 470.028,-429.656 479.945,-433.385 480.106,-426.387"/>
</g>
<!-- Node6 -->
<g id="node6" class="node"><title>Node6</title>
<g id="a_node6"><a xlink:href="structfactory_1_1basic__socket__pipeline.html" target="_top" xlink:title="factory::basic_socket\l_pipeline\&lt; K, external\l_process_handler\&lt; K, R \&gt; \&gt;">
<polygon fill="white" stroke="black" points="327,-357.5 327,-398.5 467,-398.5 467,-357.5 327,-357.5"/>
<text text-anchor="start" x="335" y="-386.5" font-family="Helvetica,sans-Serif" font-size="10.00">factory::basic_socket</text>
<text text-anchor="start" x="335" y="-375.5" font-family="Helvetica,sans-Serif" font-size="10.00">_pipeline&lt; K, external</text>
<text text-anchor="middle" x="397" y="-364.5" font-family="Helvetica,sans-Serif" font-size="10.00">_process_handler&lt; K, R &gt; &gt;</text>
</a>
</g>
</g>
<!-- Node5&#45;&gt;Node6 -->
<g id="edge5" class="edge"><title>Node5&#45;&gt;Node6</title>
<path fill="none" stroke="midnightblue" d="M249.297,-283.571C268.861,-303.227 295.334,-327.536 322,-345 328.825,-349.47 336.356,-353.609 343.923,-357.336"/>
<polygon fill="midnightblue" stroke="midnightblue" points="251.654,-280.975 242.151,-276.29 246.658,-285.878 251.654,-280.975"/>
</g>
<!-- Node8 -->
<g id="node8" class="node"><title>Node8</title>
<g id="a_node8"><a xlink:href="structfactory_1_1basic__socket__pipeline.html" target="_top" xlink:title="factory::basic_socket\l_pipeline\&lt; K, process\l_handler\&lt; K, R \&gt; \&gt;">
<polygon fill="white" stroke="black" points="341.5,-295.5 341.5,-336.5 452.5,-336.5 452.5,-295.5 341.5,-295.5"/>
<text text-anchor="start" x="349.5" y="-324.5" font-family="Helvetica,sans-Serif" font-size="10.00">factory::basic_socket</text>
<text text-anchor="start" x="349.5" y="-313.5" font-family="Helvetica,sans-Serif" font-size="10.00">_pipeline&lt; K, process</text>
<text text-anchor="middle" x="397" y="-302.5" font-family="Helvetica,sans-Serif" font-size="10.00">_handler&lt; K, R &gt; &gt;</text>
</a>
</g>
</g>
<!-- Node5&#45;&gt;Node8 -->
<g id="edge7" class="edge"><title>Node5&#45;&gt;Node8</title>
<path fill="none" stroke="midnightblue" d="M285.737,-275.116C304.071,-281.914 323.684,-289.186 341.21,-295.685"/>
<polygon fill="midnightblue" stroke="midnightblue" points="286.877,-271.806 276.284,-271.611 284.443,-278.369 286.877,-271.806"/>
</g>
<!-- Node11 -->
<g id="node11" class="node"><title>Node11</title>
<g id="a_node11"><a xlink:href="structfactory_1_1basic__socket__pipeline.html" target="_top" xlink:title="factory::basic_socket\l_pipeline\&lt; T, process\l_handler\&lt; T, basic_router\l\&lt; T \&gt; \&gt; \&gt;">
<polygon fill="white" stroke="black" points="333,-224 333,-276 461,-276 461,-224 333,-224"/>
<text text-anchor="start" x="341" y="-264" font-family="Helvetica,sans-Serif" font-size="10.00">factory::basic_socket</text>
<text text-anchor="start" x="341" y="-253" font-family="Helvetica,sans-Serif" font-size="10.00">_pipeline&lt; T, process</text>
<text text-anchor="start" x="341" y="-242" font-family="Helvetica,sans-Serif" font-size="10.00">_handler&lt; T, basic_router</text>
<text text-anchor="middle" x="397" y="-231" font-family="Helvetica,sans-Serif" font-size="10.00">&lt; T &gt; &gt; &gt;</text>
</a>
</g>
</g>
<!-- Node5&#45;&gt;Node11 -->
<g id="edge10" class="edge"><title>Node5&#45;&gt;Node11</title>
<path fill="none" stroke="midnightblue" d="M286.674,-250C301.91,-250 317.985,-250 332.982,-250"/>
<polygon fill="midnightblue" stroke="midnightblue" points="286.284,-246.5 276.284,-250 286.284,-253.5 286.284,-246.5"/>
</g>
<!-- Node13 -->
<g id="node13" class="node"><title>Node13</title>
<g id="a_node13"><a xlink:href="structfactory_1_1basic__socket__pipeline.html" target="_top" xlink:title="factory::basic_socket\l_pipeline\&lt; T, remote\l_client\&lt; T, Socket, Router \&gt; \&gt;">
<polygon fill="white" stroke="black" points="322,-163.5 322,-204.5 472,-204.5 472,-163.5 322,-163.5"/>
<text text-anchor="start" x="330" y="-192.5" font-family="Helvetica,sans-Serif" font-size="10.00">factory::basic_socket</text>
<text text-anchor="start" x="330" y="-181.5" font-family="Helvetica,sans-Serif" font-size="10.00">_pipeline&lt; T, remote</text>
<text text-anchor="middle" x="397" y="-170.5" font-family="Helvetica,sans-Serif" font-size="10.00">_client&lt; T, Socket, Router &gt; &gt;</text>
</a>
</g>
</g>
<!-- Node5&#45;&gt;Node13 -->
<g id="edge12" class="edge"><title>Node5&#45;&gt;Node13</title>
<path fill="none" stroke="midnightblue" d="M286.144,-224.733C304.152,-218.056 323.367,-210.931 340.61,-204.538"/>
<polygon fill="midnightblue" stroke="midnightblue" points="284.443,-221.631 276.284,-228.389 286.877,-228.194 284.443,-221.631"/>
</g>
<!-- Node15 -->
<g id="node15" class="node"><title>Node15</title>
<g id="a_node15"><a xlink:href="structfactory_1_1basic__socket__pipeline.html" target="_top" xlink:title="factory::basic_socket\l_pipeline\&lt; T, Handler \&gt;">
<polygon fill="white" stroke="black" points="337.5,-115 337.5,-145 456.5,-145 456.5,-115 337.5,-115"/>
<text text-anchor="start" x="345.5" y="-133" font-family="Helvetica,sans-Serif" font-size="10.00">factory::basic_socket</text>
<text text-anchor="middle" x="397" y="-122" font-family="Helvetica,sans-Serif" font-size="10.00">_pipeline&lt; T, Handler &gt;</text>
</a>
</g>
</g>
<!-- Node5&#45;&gt;Node15 -->
<g id="edge14" class="edge"><title>Node5&#45;&gt;Node15</title>
<path fill="none" stroke="midnightblue" d="M281.578,-217.923C283.104,-216.652 284.582,-215.344 286,-214 308.57,-192.606 297.663,-173.36 322,-154 326.651,-150.3 331.889,-147.164 337.375,-144.505"/>
<polygon fill="midnightblue" stroke="midnightblue" points="279.449,-215.146 273.596,-223.977 283.679,-220.723 279.449,-215.146"/>
</g>
<!-- Node16 -->
<g id="node16" class="node"><title>Node16</title>
<g id="a_node16"><a xlink:href="structfactory_1_1timer__pipeline.html" target="_top" xlink:title="factory::timer_pipeline\&lt; T \&gt;">
<polygon fill="white" stroke="black" points="328.5,-76.5 328.5,-95.5 465.5,-95.5 465.5,-76.5 328.5,-76.5"/>
<text text-anchor="middle" x="397" y="-83.5" font-family="Helvetica,sans-Serif" font-size="10.00">factory::timer_pipeline&lt; T &gt;</text>
</a>
</g>
</g>
<!-- Node5&#45;&gt;Node16 -->
<g id="edge15" class="edge"><title>Node5&#45;&gt;Node16</title>
<path fill="none" stroke="midnightblue" d="M283.352,-216.942C284.268,-215.985 285.151,-215.004 286,-214 318.923,-175.027 284.725,-139.834 322,-105 326.07,-101.196 330.797,-98.1293 335.855,-95.6596"/>
<polygon fill="midnightblue" stroke="midnightblue" points="280.833,-214.502 275.789,-223.82 285.542,-219.681 280.833,-214.502"/>
</g>
<!-- Node7 -->
<g id="node7" class="node"><title>Node7</title>
<g id="a_node7"><a xlink:href="classfactory_1_1unix__domain__socket__pipeline.html" target="_top" xlink:title="factory::unix_domain\l_socket_pipeline\&lt; K, R \&gt;">
<polygon fill="white" stroke="black" points="509,-373 509,-403 637,-403 637,-373 509,-373"/>
<text text-anchor="start" x="517" y="-391" font-family="Helvetica,sans-Serif" font-size="10.00">factory::unix_domain</text>
<text text-anchor="middle" x="573" y="-380" font-family="Helvetica,sans-Serif" font-size="10.00">_socket_pipeline&lt; K, R &gt;</text>
</a>
</g>
</g>
<!-- Node6&#45;&gt;Node7 -->
<g id="edge6" class="edge"><title>Node6&#45;&gt;Node7</title>
<path fill="none" stroke="midnightblue" d="M477.175,-382.55C487.84,-383.163 498.663,-383.785 508.997,-384.379"/>
<polygon fill="midnightblue" stroke="midnightblue" points="477.204,-379.046 467.019,-381.967 476.802,-386.035 477.204,-379.046"/>
</g>
<!-- Node9 -->
<g id="node9" class="node"><title>Node9</title>
<g id="a_node9"><a xlink:href="classfactory_1_1child__process__pipeline.html" target="_top" xlink:title="factory::child_process\l_pipeline\&lt; K, R \&gt;">
<polygon fill="white" stroke="black" points="516.5,-324 516.5,-354 629.5,-354 629.5,-324 516.5,-324"/>
<text text-anchor="start" x="524.5" y="-342" font-family="Helvetica,sans-Serif" font-size="10.00">factory::child_process</text>
<text text-anchor="middle" x="573" y="-331" font-family="Helvetica,sans-Serif" font-size="10.00">_pipeline&lt; K, R &gt;</text>
</a>
</g>
</g>
<!-- Node8&#45;&gt;Node9 -->
<g id="edge8" class="edge"><title>Node8&#45;&gt;Node9</title>
<path fill="none" stroke="midnightblue" d="M462.783,-324.563C480.413,-326.894 499.348,-329.397 516.418,-331.653"/>
<polygon fill="midnightblue" stroke="midnightblue" points="462.95,-321.055 452.577,-323.214 462.032,-327.995 462.95,-321.055"/>
</g>
<!-- Node10 -->
<g id="node10" class="node"><title>Node10</title>
<g id="a_node10"><a xlink:href="classfactory_1_1process__pipeline.html" target="_top" xlink:title="factory::process_pipeline\l\&lt; K, R \&gt;">
<polygon fill="white" stroke="black" points="510.5,-275 510.5,-305 635.5,-305 635.5,-275 510.5,-275"/>
<text text-anchor="start" x="518.5" y="-293" font-family="Helvetica,sans-Serif" font-size="10.00">factory::process_pipeline</text>
<text text-anchor="middle" x="573" y="-282" font-family="Helvetica,sans-Serif" font-size="10.00">&lt; K, R &gt;</text>
</a>
</g>
</g>
<!-- Node8&#45;&gt;Node10 -->
<g id="edge9" class="edge"><title>Node8&#45;&gt;Node10</title>
<path fill="none" stroke="midnightblue" d="M462.657,-306.339C478.256,-304.008 494.883,-301.523 510.34,-299.214"/>
<polygon fill="midnightblue" stroke="midnightblue" points="461.95,-302.905 452.577,-307.845 462.985,-309.828 461.95,-302.905"/>
</g>
<!-- Node12 -->
<g id="node12" class="node"><title>Node12</title>
<g id="a_node12"><a xlink:href="classfactory_1_1child__process__pipeline.html" target="_top" xlink:title="factory::child_process\l_pipeline\&lt; T, basic_router\l\&lt; T \&gt; \&gt;">
<polygon fill="white" stroke="black" points="508.5,-215.5 508.5,-256.5 637.5,-256.5 637.5,-215.5 508.5,-215.5"/>
<text text-anchor="start" x="516.5" y="-244.5" font-family="Helvetica,sans-Serif" font-size="10.00">factory::child_process</text>
<text text-anchor="start" x="516.5" y="-233.5" font-family="Helvetica,sans-Serif" font-size="10.00">_pipeline&lt; T, basic_router</text>
<text text-anchor="middle" x="573" y="-222.5" font-family="Helvetica,sans-Serif" font-size="10.00">&lt; T &gt; &gt;</text>
</a>
</g>
</g>
<!-- Node11&#45;&gt;Node12 -->
<g id="edge11" class="edge"><title>Node11&#45;&gt;Node12</title>
<path fill="none" stroke="midnightblue" d="M471.516,-244.085C483.796,-243.097 496.442,-242.079 508.445,-241.114"/>
<polygon fill="midnightblue" stroke="midnightblue" points="470.997,-240.615 461.31,-244.906 471.559,-247.593 470.997,-240.615"/>
</g>
<!-- Node14 -->
<g id="node14" class="node"><title>Node14</title>
<g id="a_node14"><a xlink:href="classfactory_1_1socket__pipeline.html" target="_top" xlink:title="factory::socket_pipeline\l\&lt; T, Socket, Router \&gt;">
<polygon fill="white" stroke="black" points="513,-167 513,-197 633,-197 633,-167 513,-167"/>
<text text-anchor="start" x="521" y="-185" font-family="Helvetica,sans-Serif" font-size="10.00">factory::socket_pipeline</text>
<text text-anchor="middle" x="573" y="-174" font-family="Helvetica,sans-Serif" font-size="10.00">&lt; T, Socket, Router &gt;</text>
</a>
</g>
</g>
<!-- Node13&#45;&gt;Node14 -->
<g id="edge13" class="edge"><title>Node13&#45;&gt;Node14</title>
<path fill="none" stroke="midnightblue" d="M482.301,-183.031C492.597,-182.913 502.943,-182.794 512.762,-182.681"/>
<polygon fill="midnightblue" stroke="midnightblue" points="482.003,-179.534 472.044,-183.149 482.084,-186.534 482.003,-179.534"/>
</g>
</g>
</svg>
