<?xml version="1.0" encoding="UTF-8" standalone="no"?>
<!DOCTYPE svg PUBLIC "-//W3C//DTD SVG 1.1//EN"
 "http://www.w3.org/Graphics/SVG/1.1/DTD/svg11.dtd">
<!-- Generated by graphviz version 2.38.0 (20140413.2041)
 -->
<!-- Title: Graphical Class Hierarchy Pages: 1 -->
<svg width="738pt" height="1075pt"
 viewBox="0.00 0.00 738.00 1075.00" xmlns="http://www.w3.org/2000/svg" xmlns:xlink="http://www.w3.org/1999/xlink">
<g id="graph0" class="graph" transform="scale(1 1) rotate(0) translate(4 1071)">
<title>Graphical Class Hierarchy</title>
<polygon fill="white" stroke="none" points="-4,4 -4,-1071 734,-1071 734,4 -4,4"/>
<!-- Node1 -->
<g id="node1" class="node"><title>Node1</title>
<g id="a_node1"><a xlink:href="structfactory_1_1Basic__kernel.html" target="_top" xlink:title="factory::Basic_kernel">
<polygon fill="white" stroke="black" points="3,-864.5 3,-883.5 112,-883.5 112,-864.5 3,-864.5"/>
<text text-anchor="middle" x="57.5" y="-871.5" font-family="Helvetica,sans-Serif" font-size="10.00">factory::Basic_kernel</text>
</a>
</g>
</g>
<!-- Node2 -->
<g id="node2" class="node"><title>Node2</title>
<g id="a_node2"><a xlink:href="structfactory_1_1Mobile__kernel.html" target="_top" xlink:title="factory::Mobile_kernel">
<polygon fill="white" stroke="black" points="151,-845.5 151,-864.5 264,-864.5 264,-845.5 151,-845.5"/>
<text text-anchor="middle" x="207.5" y="-852.5" font-family="Helvetica,sans-Serif" font-size="10.00">factory::Mobile_kernel</text>
</a>
</g>
</g>
<!-- Node1&#45;&gt;Node2 -->
<g id="edge1" class="edge"><title>Node1&#45;&gt;Node2</title>
<path fill="none" stroke="midnightblue" d="M122.509,-865.783C131.978,-864.567 141.671,-863.323 150.949,-862.131"/>
<polygon fill="midnightblue" stroke="midnightblue" points="121.823,-862.342 112.35,-867.087 122.714,-869.285 121.823,-862.342"/>
</g>
<!-- Node3 -->
<g id="node3" class="node"><title>Node3</title>
<g id="a_node3"><a xlink:href="structfactory_1_1Kernel.html" target="_top" xlink:title="factory::Kernel">
<polygon fill="white" stroke="black" points="300,-845.5 300,-864.5 380,-864.5 380,-845.5 300,-845.5"/>
<text text-anchor="middle" x="340" y="-852.5" font-family="Helvetica,sans-Serif" font-size="10.00">factory::Kernel</text>
</a>
</g>
</g>
<!-- Node2&#45;&gt;Node3 -->
<g id="edge2" class="edge"><title>Node2&#45;&gt;Node3</title>
<path fill="none" stroke="midnightblue" d="M274.342,-855C282.989,-855 291.621,-855 299.633,-855"/>
<polygon fill="midnightblue" stroke="midnightblue" points="274.222,-851.5 264.222,-855 274.222,-858.5 274.222,-851.5"/>
</g>
<!-- Node4 -->
<g id="node4" class="node"><title>Node4</title>
<g id="a_node4"><a xlink:href="structBig__kernel.html" target="_top" xlink:title="Big_kernel\&lt; Size \&gt;">
<polygon fill="white" stroke="black" points="444,-1047.5 444,-1066.5 544,-1066.5 544,-1047.5 444,-1047.5"/>
<text text-anchor="middle" x="494" y="-1054.5" font-family="Helvetica,sans-Serif" font-size="10.00">Big_kernel&lt; Size &gt;</text>
</a>
</g>
</g>
<!-- Node3&#45;&gt;Node4 -->
<g id="edge3" class="edge"><title>Node3&#45;&gt;Node4</title>
<path fill="none" stroke="midnightblue" d="M343.272,-874.91C348.672,-912.654 365.818,-994.703 416,-1038 423.819,-1044.75 433.665,-1049.17 443.68,-1052.05"/>
<polygon fill="midnightblue" stroke="midnightblue" points="346.707,-874.178 341.95,-864.711 339.765,-875.078 346.707,-874.178"/>
</g>
<!-- Node5 -->
<g id="node5" class="node"><title>Node5</title>
<g id="a_node5"><a xlink:href="structDummy__kernel.html" target="_top" xlink:title="Dummy_kernel">
<polygon fill="white" stroke="black" points="452.5,-1009.5 452.5,-1028.5 535.5,-1028.5 535.5,-1009.5 452.5,-1009.5"/>
<text text-anchor="middle" x="494" y="-1016.5" font-family="Helvetica,sans-Serif" font-size="10.00">Dummy_kernel</text>
</a>
</g>
</g>
<!-- Node3&#45;&gt;Node5 -->
<g id="edge4" class="edge"><title>Node3&#45;&gt;Node5</title>
<path fill="none" stroke="midnightblue" d="M345.463,-874.242C353.756,-905.564 374.591,-967.349 416,-1000 426.272,-1008.1 439.523,-1012.8 452.129,-1015.52"/>
<polygon fill="midnightblue" stroke="midnightblue" points="348.856,-873.387 343.039,-864.532 342.065,-875.082 348.856,-873.387"/>
</g>
<!-- Node6 -->
<g id="node6" class="node"><title>Node6</title>
<g id="a_node6"><a xlink:href="structfactory_1_1Map.html" target="_top" xlink:title="factory::Map\&lt; F, G, I \&gt;">
<polygon fill="white" stroke="black" points="435,-971.5 435,-990.5 553,-990.5 553,-971.5 435,-971.5"/>
<text text-anchor="middle" x="494" y="-978.5" font-family="Helvetica,sans-Serif" font-size="10.00">factory::Map&lt; F, G, I &gt;</text>
</a>
</g>
</g>
<!-- Node3&#45;&gt;Node6 -->
<g id="edge5" class="edge"><title>Node3&#45;&gt;Node6</title>
<path fill="none" stroke="midnightblue" d="M349.197,-873.745C360.644,-897.688 383.704,-938.688 416,-961 422.25,-965.318 429.368,-968.704 436.694,-971.358"/>
<polygon fill="midnightblue" stroke="midnightblue" points="352.365,-872.257 345.009,-864.632 346.005,-875.18 352.365,-872.257"/>
</g>
<!-- Node7 -->
<g id="node7" class="node"><title>Node7</title>
<g id="a_node7"><a xlink:href="structfactory_1_1Map_1_1Worker.html" target="_top" xlink:title="factory::Map\&lt; F, G,\l I \&gt;::Worker">
<polygon fill="white" stroke="black" points="442.5,-922 442.5,-952 545.5,-952 545.5,-922 442.5,-922"/>
<text text-anchor="start" x="450.5" y="-940" font-family="Helvetica,sans-Serif" font-size="10.00">factory::Map&lt; F, G,</text>
<text text-anchor="middle" x="494" y="-929" font-family="Helvetica,sans-Serif" font-size="10.00"> I &gt;::Worker</text>
</a>
</g>
</g>
<!-- Node3&#45;&gt;Node7 -->
<g id="edge6" class="edge"><title>Node3&#45;&gt;Node7</title>
<path fill="none" stroke="midnightblue" d="M359.086,-871.539C373.583,-884.077 394.921,-900.975 416,-912 424.22,-916.299 433.319,-920.043 442.299,-923.233"/>
<polygon fill="midnightblue" stroke="midnightblue" points="361.204,-868.74 351.394,-864.739 356.567,-873.985 361.204,-868.74"/>
</g>
<!-- Node8 -->
<g id="node8" class="node"><title>Node8</title>
<g id="a_node8"><a xlink:href="classfactory_1_1Notification.html" target="_top" xlink:title="factory::Notification">
<polygon fill="white" stroke="black" points="443,-883.5 443,-902.5 545,-902.5 545,-883.5 443,-883.5"/>
<text text-anchor="middle" x="494" y="-890.5" font-family="Helvetica,sans-Serif" font-size="10.00">factory::Notification</text>
</a>
</g>
</g>
<!-- Node3&#45;&gt;Node8 -->
<g id="edge7" class="edge"><title>Node3&#45;&gt;Node8</title>
<path fill="none" stroke="midnightblue" d="M388.186,-867.001C397.407,-869.333 407.005,-871.751 416,-874 428.423,-877.106 441.982,-880.463 454.211,-883.478"/>
<polygon fill="midnightblue" stroke="midnightblue" points="388.928,-863.579 378.374,-864.517 387.209,-870.364 388.928,-863.579"/>
</g>
<!-- Node9 -->
<g id="node9" class="node"><title>Node9</title>
<g id="a_node9"><a xlink:href="structGood__kernel.html" target="_top" xlink:title="Good_kernel">
<polygon fill="white" stroke="black" points="458.5,-845.5 458.5,-864.5 529.5,-864.5 529.5,-845.5 458.5,-845.5"/>
<text text-anchor="middle" x="494" y="-852.5" font-family="Helvetica,sans-Serif" font-size="10.00">Good_kernel</text>
</a>
</g>
</g>
<!-- Node3&#45;&gt;Node9 -->
<g id="edge8" class="edge"><title>Node3&#45;&gt;Node9</title>
<path fill="none" stroke="midnightblue" d="M390.398,-855C412.605,-855 438.28,-855 458.392,-855"/>
<polygon fill="midnightblue" stroke="midnightblue" points="390.144,-851.5 380.144,-855 390.144,-858.5 390.144,-851.5"/>
</g>
<!-- Node12 -->
<g id="node12" class="node"><title>Node12</title>
<g id="a_node12"><a xlink:href="structKernel__that__carries__its__parent.html" target="_top" xlink:title="Kernel_that_carries\l_its_parent">
<polygon fill="white" stroke="black" points="443.5,-796 443.5,-826 544.5,-826 544.5,-796 443.5,-796"/>
<text text-anchor="start" x="451.5" y="-814" font-family="Helvetica,sans-Serif" font-size="10.00">Kernel_that_carries</text>
<text text-anchor="middle" x="494" y="-803" font-family="Helvetica,sans-Serif" font-size="10.00">_its_parent</text>
</a>
</g>
</g>
<!-- Node3&#45;&gt;Node12 -->
<g id="edge11" class="edge"><title>Node3&#45;&gt;Node12</title>
<path fill="none" stroke="midnightblue" d="M383.629,-842.66C402.179,-837.29 424.04,-830.962 443.322,-825.381"/>
<polygon fill="midnightblue" stroke="midnightblue" points="382.614,-839.31 373.982,-845.453 384.561,-846.034 382.614,-839.31"/>
</g>
<!-- Node13 -->
<g id="node13" class="node"><title>Node13</title>
<g id="a_node13"><a xlink:href="structMain.html" target="_top" xlink:title="Main\&lt; Address \&gt;">
<polygon fill="white" stroke="black" points="448,-643.5 448,-662.5 540,-662.5 540,-643.5 448,-643.5"/>
<text text-anchor="middle" x="494" y="-650.5" font-family="Helvetica,sans-Serif" font-size="10.00">Main&lt; Address &gt;</text>
</a>
</g>
</g>
<!-- Node3&#45;&gt;Node13 -->
<g id="edge12" class="edge"><title>Node3&#45;&gt;Node13</title>
<path fill="none" stroke="midnightblue" d="M343.272,-835.09C348.672,-797.346 365.818,-715.297 416,-672 424.861,-664.354 436.327,-659.691 447.691,-656.873"/>
<polygon fill="midnightblue" stroke="midnightblue" points="339.765,-834.922 341.95,-845.289 346.707,-835.822 339.765,-834.922"/>
</g>
<!-- Node14 -->
<g id="node14" class="node"><title>Node14</title>
<g id="a_node14"><a xlink:href="structSender.html" target="_top" xlink:title="Sender">
<polygon fill="white" stroke="black" points="470.5,-757.5 470.5,-776.5 517.5,-776.5 517.5,-757.5 470.5,-757.5"/>
<text text-anchor="middle" x="494" y="-764.5" font-family="Helvetica,sans-Serif" font-size="10.00">Sender</text>
</a>
</g>
</g>
<!-- Node3&#45;&gt;Node14 -->
<g id="edge13" class="edge"><title>Node3&#45;&gt;Node14</title>
<path fill="none" stroke="midnightblue" d="M355.461,-837.389C369.369,-821.606 391.801,-798.996 416,-786 432.983,-776.88 454.419,-772.052 470.359,-769.55"/>
<polygon fill="midnightblue" stroke="midnightblue" points="352.492,-835.476 348.655,-845.351 357.813,-840.025 352.492,-835.476"/>
</g>
<!-- Node15 -->
<g id="node15" class="node"><title>Node15</title>
<g id="a_node15"><a xlink:href="structSleepy__kernel.html" target="_top" xlink:title="Sleepy_kernel">
<polygon fill="white" stroke="black" points="455,-719.5 455,-738.5 533,-738.5 533,-719.5 455,-719.5"/>
<text text-anchor="middle" x="494" y="-726.5" font-family="Helvetica,sans-Serif" font-size="10.00">Sleepy_kernel</text>
</a>
</g>
</g>
<!-- Node3&#45;&gt;Node15 -->
<g id="edge14" class="edge"><title>Node3&#45;&gt;Node15</title>
<path fill="none" stroke="midnightblue" d="M349.108,-836.018C360.458,-811.783 383.414,-770.326 416,-748 427.359,-740.218 441.593,-735.616 454.722,-732.898"/>
<polygon fill="midnightblue" stroke="midnightblue" points="345.869,-834.687 344.96,-845.243 352.253,-837.558 345.869,-834.687"/>
</g>
<!-- Node16 -->
<g id="node16" class="node"><title>Node16</title>
<g id="a_node16"><a xlink:href="structTest__socket.html" target="_top" xlink:title="Test_socket">
<polygon fill="white" stroke="black" points="458.5,-681.5 458.5,-700.5 529.5,-700.5 529.5,-681.5 458.5,-681.5"/>
<text text-anchor="middle" x="494" y="-688.5" font-family="Helvetica,sans-Serif" font-size="10.00">Test_socket</text>
</a>
</g>
</g>
<!-- Node3&#45;&gt;Node16 -->
<g id="edge15" class="edge"><title>Node3&#45;&gt;Node16</title>
<path fill="none" stroke="midnightblue" d="M345.463,-835.758C353.756,-804.436 374.591,-742.651 416,-710 428.002,-700.537 444.072,-695.708 458.426,-693.274"/>
<polygon fill="midnightblue" stroke="midnightblue" points="342.065,-834.918 343.039,-845.468 348.856,-836.613 342.065,-834.918"/>
</g>
<!-- Node10 -->
<g id="node10" class="node"><title>Node10</title>
<g id="a_node10"><a xlink:href="structKernel__that__reads__more__than__writes.html" target="_top" xlink:title="Kernel_that_reads_more\l_than_writes">
<polygon fill="white" stroke="black" points="608,-865 608,-895 730,-895 730,-865 608,-865"/>
<text text-anchor="start" x="616" y="-883" font-family="Helvetica,sans-Serif" font-size="10.00">Kernel_that_reads_more</text>
<text text-anchor="middle" x="669" y="-872" font-family="Helvetica,sans-Serif" font-size="10.00">_than_writes</text>
</a>
</g>
</g>
<!-- Node9&#45;&gt;Node10 -->
<g id="edge9" class="edge"><title>Node9&#45;&gt;Node10</title>
<path fill="none" stroke="midnightblue" d="M539.727,-861.463C560.499,-864.465 585.502,-868.078 607.894,-871.314"/>
<polygon fill="midnightblue" stroke="midnightblue" points="539.991,-857.965 529.593,-859.999 538.99,-864.893 539.991,-857.965"/>
</g>
<!-- Node11 -->
<g id="node11" class="node"><title>Node11</title>
<g id="a_node11"><a xlink:href="structKernel__that__writes__more__than__reads.html" target="_top" xlink:title="Kernel_that_writes\l_more_than_reads">
<polygon fill="white" stroke="black" points="620,-816 620,-846 718,-846 718,-816 620,-816"/>
<text text-anchor="start" x="628" y="-834" font-family="Helvetica,sans-Serif" font-size="10.00">Kernel_that_writes</text>
<text text-anchor="middle" x="669" y="-823" font-family="Helvetica,sans-Serif" font-size="10.00">_more_than_reads</text>
</a>
</g>
</g>
<!-- Node9&#45;&gt;Node11 -->
<g id="edge10" class="edge"><title>Node9&#45;&gt;Node11</title>
<path fill="none" stroke="midnightblue" d="M539.708,-848.798C564.228,-845.396 594.645,-841.176 619.707,-837.7"/>
<polygon fill="midnightblue" stroke="midnightblue" points="539.018,-845.36 529.593,-850.201 539.979,-852.294 539.018,-845.36"/>
</g>
<!-- Node17 -->
<g id="node17" class="node"><title>Node17</title>
<polygon fill="white" stroke="#bfbfbf" points="318,-304.5 318,-323.5 362,-323.5 362,-304.5 318,-304.5"/>
<text text-anchor="middle" x="340" y="-311.5" font-family="Helvetica,sans-Serif" font-size="10.00">Kernel</text>
</g>
<!-- Node17&#45;&gt;Node13 -->
<g id="edge26" class="edge"><title>Node17&#45;&gt;Node13</title>
<path fill="none" stroke="midnightblue" d="M342.956,-333.772C349.574,-396.684 373.141,-590.637 416,-634 424.421,-642.52 436.011,-647.443 447.644,-650.231"/>
<polygon fill="midnightblue" stroke="midnightblue" points="346.417,-333.207 341.917,-323.616 339.453,-333.92 346.417,-333.207"/>
</g>
<!-- Node18 -->
<g id="node18" class="node"><title>Node18</title>
<g id="a_node18"><a xlink:href="structautoreg_1_1ACF__generator.html" target="_top" xlink:title="autoreg::ACF_generator\&lt; T \&gt;">
<polygon fill="white" stroke="black" points="421.5,-605.5 421.5,-624.5 566.5,-624.5 566.5,-605.5 421.5,-605.5"/>
<text text-anchor="middle" x="494" y="-612.5" font-family="Helvetica,sans-Serif" font-size="10.00">autoreg::ACF_generator&lt; T &gt;</text>
</a>
</g>
</g>
<!-- Node17&#45;&gt;Node18 -->
<g id="edge16" class="edge"><title>Node17&#45;&gt;Node18</title>
<path fill="none" stroke="midnightblue" d="M343.61,-333.657C351.66,-391.36 377.88,-558.561 416,-596 419.929,-599.859 424.511,-602.976 429.444,-605.489"/>
<polygon fill="midnightblue" stroke="midnightblue" points="347.064,-333.082 342.244,-323.647 340.128,-334.029 347.064,-333.082"/>
</g>
<!-- Node19 -->
<g id="node19" class="node"><title>Node19</title>
<g id="a_node19"><a xlink:href="structautoreg_1_1Autoreg__coefs.html" target="_top" xlink:title="autoreg::Autoreg_coefs\&lt; T \&gt;">
<polygon fill="white" stroke="black" points="423,-567.5 423,-586.5 565,-586.5 565,-567.5 423,-567.5"/>
<text text-anchor="middle" x="494" y="-574.5" font-family="Helvetica,sans-Serif" font-size="10.00">autoreg::Autoreg_coefs&lt; T &gt;</text>
</a>
</g>
</g>
<!-- Node17&#45;&gt;Node19 -->
<g id="edge17" class="edge"><title>Node17&#45;&gt;Node19</title>
<path fill="none" stroke="midnightblue" d="M340.921,-333.857C341.868,-380.264 350.978,-496.539 416,-558 420.003,-561.783 424.634,-564.848 429.601,-567.327"/>
<polygon fill="midnightblue" stroke="midnightblue" points="344.419,-333.607 340.827,-323.64 337.419,-333.671 344.419,-333.607"/>
</g>
<!-- Node20 -->
<g id="node20" class="node"><title>Node20</title>
<g id="a_node20"><a xlink:href="classautoreg_1_1Autoreg__model.html" target="_top" xlink:title="autoreg::Autoreg_model\&lt; T \&gt;">
<polygon fill="white" stroke="black" points="422,-529.5 422,-548.5 566,-548.5 566,-529.5 422,-529.5"/>
<text text-anchor="middle" x="494" y="-536.5" font-family="Helvetica,sans-Serif" font-size="10.00">autoreg::Autoreg_model&lt; T &gt;</text>
</a>
</g>
</g>
<!-- Node17&#45;&gt;Node20 -->
<g id="edge18" class="edge"><title>Node17&#45;&gt;Node20</title>
<path fill="none" stroke="midnightblue" d="M342.334,-333.948C346.178,-374.93 360.855,-468.941 416,-519 420.806,-523.363 426.443,-526.798 432.444,-529.499"/>
<polygon fill="midnightblue" stroke="midnightblue" points="345.814,-333.559 341.513,-323.876 338.837,-334.128 345.814,-333.559"/>
</g>
<!-- Node21 -->
<g id="node21" class="node"><title>Node21</title>
<g id="a_node21"><a xlink:href="structautoreg_1_1Generator1.html" target="_top" xlink:title="autoreg::Generator1\l\&lt; T, Grid \&gt;">
<polygon fill="white" stroke="black" points="442.5,-480 442.5,-510 545.5,-510 545.5,-480 442.5,-480"/>
<text text-anchor="start" x="450.5" y="-498" font-family="Helvetica,sans-Serif" font-size="10.00">autoreg::Generator1</text>
<text text-anchor="middle" x="494" y="-487" font-family="Helvetica,sans-Serif" font-size="10.00">&lt; T, Grid &gt;</text>
</a>
</g>
</g>
<!-- Node17&#45;&gt;Node21 -->
<g id="edge19" class="edge"><title>Node17&#45;&gt;Node21</title>
<path fill="none" stroke="midnightblue" d="M345.089,-333.422C353.004,-366.277 373.514,-432.865 416,-470 423.514,-476.567 432.782,-481.415 442.255,-484.991"/>
<polygon fill="midnightblue" stroke="midnightblue" points="348.501,-332.642 342.874,-323.664 341.674,-334.191 348.501,-332.642"/>
</g>
<!-- Node22 -->
<g id="node22" class="node"><title>Node22</title>
<g id="a_node22"><a xlink:href="structautoreg_1_1Solve__Yule__Walker.html" target="_top" xlink:title="autoreg::Solve_Yule\l_Walker\&lt; T \&gt;">
<polygon fill="white" stroke="black" points="442,-431 442,-461 546,-461 546,-431 442,-431"/>
<text text-anchor="start" x="450" y="-449" font-family="Helvetica,sans-Serif" font-size="10.00">autoreg::Solve_Yule</text>
<text text-anchor="middle" x="494" y="-438" font-family="Helvetica,sans-Serif" font-size="10.00">_Walker&lt; T &gt;</text>
</a>
</g>
</g>
<!-- Node17&#45;&gt;Node22 -->
<g id="edge20" class="edge"><title>Node17&#45;&gt;Node22</title>
<path fill="none" stroke="midnightblue" d="M349.361,-332.627C360.986,-356.476 384.239,-397.515 416,-421 423.685,-426.682 432.72,-431.11 441.846,-434.548"/>
<polygon fill="midnightblue" stroke="midnightblue" points="352.521,-331.122 345.1,-323.56 346.186,-334.099 352.521,-331.122"/>
</g>
<!-- Node23 -->
<g id="node23" class="node"><title>Node23</title>
<g id="a_node23"><a xlink:href="classautoreg_1_1Velocity__potential.html" target="_top" xlink:title="autoreg::Velocity_potential\&lt; T \&gt;">
<polygon fill="white" stroke="black" points="416,-392.5 416,-411.5 572,-411.5 572,-392.5 416,-392.5"/>
<text text-anchor="middle" x="494" y="-399.5" font-family="Helvetica,sans-Serif" font-size="10.00">autoreg::Velocity_potential&lt; T &gt;</text>
</a>
</g>
</g>
<!-- Node17&#45;&gt;Node23 -->
<g id="edge21" class="edge"><title>Node17&#45;&gt;Node23</title>
<path fill="none" stroke="midnightblue" d="M356.009,-331.788C370.009,-347.265 392.254,-369.172 416,-382 424.02,-386.333 433.023,-389.761 441.969,-392.462"/>
<polygon fill="midnightblue" stroke="midnightblue" points="358.352,-329.152 349.122,-323.95 353.093,-333.772 358.352,-329.152"/>
</g>
<!-- Node24 -->
<g id="node24" class="node"><title>Node24</title>
<g id="a_node24"><a xlink:href="structautoreg_1_1Wave__surface__generator.html" target="_top" xlink:title="autoreg::Wave_surface\l_generator\&lt; T, Grid \&gt;">
<polygon fill="white" stroke="black" points="435,-343 435,-373 553,-373 553,-343 435,-343"/>
<text text-anchor="start" x="443" y="-361" font-family="Helvetica,sans-Serif" font-size="10.00">autoreg::Wave_surface</text>
<text text-anchor="middle" x="494" y="-350" font-family="Helvetica,sans-Serif" font-size="10.00">_generator&lt; T, Grid &gt;</text>
</a>
</g>
</g>
<!-- Node17&#45;&gt;Node24 -->
<g id="edge22" class="edge"><title>Node17&#45;&gt;Node24</title>
<path fill="none" stroke="midnightblue" d="M371.869,-322.936C391.701,-328.677 417.963,-336.279 440.963,-342.937"/>
<polygon fill="midnightblue" stroke="midnightblue" points="372.714,-319.537 362.135,-320.118 370.767,-326.261 372.714,-319.537"/>
</g>
<!-- Node25 -->
<g id="node25" class="node"><title>Node25</title>
<g id="a_node25"><a xlink:href="structAutoreg__app.html" target="_top" xlink:title="Autoreg_app">
<polygon fill="white" stroke="black" points="458.5,-304.5 458.5,-323.5 529.5,-323.5 529.5,-304.5 458.5,-304.5"/>
<text text-anchor="middle" x="494" y="-311.5" font-family="Helvetica,sans-Serif" font-size="10.00">Autoreg_app</text>
</a>
</g>
</g>
<!-- Node17&#45;&gt;Node25 -->
<g id="edge23" class="edge"><title>Node17&#45;&gt;Node25</title>
<path fill="none" stroke="midnightblue" d="M372.196,-314C397.246,-314 432.396,-314 458.325,-314"/>
<polygon fill="midnightblue" stroke="midnightblue" points="372.135,-310.5 362.135,-314 372.135,-317.5 372.135,-310.5"/>
</g>
<!-- Node26 -->
<g id="node26" class="node"><title>Node26</title>
<g id="a_node26"><a xlink:href="structDelayed__shutdown.html" target="_top" xlink:title="Delayed_shutdown\&lt; Address \&gt;">
<polygon fill="white" stroke="black" points="417,-266.5 417,-285.5 571,-285.5 571,-266.5 417,-266.5"/>
<text text-anchor="middle" x="494" y="-273.5" font-family="Helvetica,sans-Serif" font-size="10.00">Delayed_shutdown&lt; Address &gt;</text>
</a>
</g>
</g>
<!-- Node17&#45;&gt;Node26 -->
<g id="edge24" class="edge"><title>Node17&#45;&gt;Node26</title>
<path fill="none" stroke="midnightblue" d="M371.8,-306.152C385.352,-302.71 401.462,-298.635 416,-295 428.423,-291.894 441.982,-288.537 454.211,-285.522"/>
<polygon fill="midnightblue" stroke="midnightblue" points="370.834,-302.786 362.005,-308.642 372.559,-309.57 370.834,-302.786"/>
</g>
<!-- Node27 -->
<g id="node27" class="node"><title>Node27</title>
<g id="a_node27"><a xlink:href="structLauncher.html" target="_top" xlink:title="Launcher">
<polygon fill="white" stroke="black" points="466,-228.5 466,-247.5 522,-247.5 522,-228.5 466,-228.5"/>
<text text-anchor="middle" x="494" y="-235.5" font-family="Helvetica,sans-Serif" font-size="10.00">Launcher</text>
</a>
</g>
</g>
<!-- Node17&#45;&gt;Node27 -->
<g id="edge25" class="edge"><title>Node17&#45;&gt;Node27</title>
<path fill="none" stroke="midnightblue" d="M358.378,-297.471C372.763,-284.653 394.291,-267.377 416,-257 431.653,-249.518 450.55,-244.798 465.707,-241.934"/>
<polygon fill="midnightblue" stroke="midnightblue" points="355.802,-295.084 350.787,-304.417 360.527,-300.248 355.802,-295.084"/>
</g>
<!-- Node28 -->
<g id="node28" class="node"><title>Node28</title>
<g id="a_node28"><a xlink:href="structPing.html" target="_top" xlink:title="Ping">
<polygon fill="white" stroke="black" points="476,-190.5 476,-209.5 512,-209.5 512,-190.5 476,-190.5"/>
<text text-anchor="middle" x="494" y="-197.5" font-family="Helvetica,sans-Serif" font-size="10.00">Ping</text>
</a>
</g>
</g>
<!-- Node17&#45;&gt;Node28 -->
<g id="edge27" class="edge"><title>Node17&#45;&gt;Node28</title>
<path fill="none" stroke="midnightblue" d="M350.544,-295.577C362.757,-273.876 385.973,-238.34 416,-219 434.29,-207.22 459.334,-202.743 475.828,-201.042"/>
<polygon fill="midnightblue" stroke="midnightblue" points="347.414,-294.007 345.722,-304.466 353.567,-297.345 347.414,-294.007"/>
</g>
<!-- Node29 -->
<g id="node29" class="node"><title>Node29</title>
<g id="a_node29"><a xlink:href="structPing__pong.html" target="_top" xlink:title="Ping_pong">
<polygon fill="white" stroke="black" points="463,-152.5 463,-171.5 525,-171.5 525,-152.5 463,-152.5"/>
<text text-anchor="middle" x="494" y="-159.5" font-family="Helvetica,sans-Serif" font-size="10.00">Ping_pong</text>
</a>
</g>
</g>
<!-- Node17&#45;&gt;Node29 -->
<g id="edge28" class="edge"><title>Node17&#45;&gt;Node29</title>
<path fill="none" stroke="midnightblue" d="M346.581,-294.293C355.935,-264.96 377.629,-210.148 416,-181 429.377,-170.839 447.491,-166.048 462.79,-163.815"/>
<polygon fill="midnightblue" stroke="midnightblue" points="343.136,-293.596 343.592,-304.181 349.836,-295.622 343.136,-293.596"/>
</g>
<!-- Node30 -->
<g id="node30" class="node"><title>Node30</title>
<g id="a_node30"><a xlink:href="structSpec__app.html" target="_top" xlink:title="Spec_app">
<polygon fill="white" stroke="black" points="464,-114.5 464,-133.5 524,-133.5 524,-114.5 464,-114.5"/>
<text text-anchor="middle" x="494" y="-121.5" font-family="Helvetica,sans-Serif" font-size="10.00">Spec_app</text>
</a>
</g>
</g>
<!-- Node17&#45;&gt;Node30 -->
<g id="edge29" class="edge"><title>Node17&#45;&gt;Node30</title>
<path fill="none" stroke="midnightblue" d="M343.949,-293.896C350.313,-257.958 368.781,-182.747 416,-143 429.273,-131.828 448.133,-127.05 463.866,-125.079"/>
<polygon fill="midnightblue" stroke="midnightblue" points="340.442,-293.657 342.287,-304.09 347.351,-294.783 340.442,-293.657"/>
</g>
<!-- Node31 -->
<g id="node31" class="node"><title>Node31</title>
<g id="a_node31"><a xlink:href="structSpectrum__kernel.html" target="_top" xlink:title="Spectrum_kernel">
<polygon fill="white" stroke="black" points="449,-76.5 449,-95.5 539,-95.5 539,-76.5 449,-76.5"/>
<text text-anchor="middle" x="494" y="-83.5" font-family="Helvetica,sans-Serif" font-size="10.00">Spectrum_kernel</text>
</a>
</g>
</g>
<!-- Node17&#45;&gt;Node31 -->
<g id="edge30" class="edge"><title>Node17&#45;&gt;Node31</title>
<path fill="none" stroke="midnightblue" d="M342.107,-294.197C345.535,-252.644 359.491,-155.989 416,-105 424.996,-96.8829 436.906,-92.1011 448.663,-89.3209"/>
<polygon fill="midnightblue" stroke="midnightblue" points="338.602,-294.152 341.393,-304.373 345.585,-294.642 338.602,-294.152"/>
</g>
<!-- Node32 -->
<g id="node32" class="node"><title>Node32</title>
<g id="a_node32"><a xlink:href="structStation__kernel.html" target="_top" xlink:title="Station_kernel">
<polygon fill="white" stroke="black" points="454.5,-38.5 454.5,-57.5 533.5,-57.5 533.5,-38.5 454.5,-38.5"/>
<text text-anchor="middle" x="494" y="-45.5" font-family="Helvetica,sans-Serif" font-size="10.00">Station_kernel</text>
</a>
</g>
</g>
<!-- Node17&#45;&gt;Node32 -->
<g id="edge31" class="edge"><title>Node17&#45;&gt;Node32</title>
<path fill="none" stroke="midnightblue" d="M340.832,-294.226C341.564,-247.479 350.204,-129.406 416,-67 426.29,-57.2404 440.764,-52.2584 454.391,-49.7896"/>
<polygon fill="midnightblue" stroke="midnightblue" points="337.331,-294.481 340.786,-304.497 344.331,-294.512 337.331,-294.481"/>
</g>
<!-- Node33 -->
<g id="node33" class="node"><title>Node33</title>
<g id="a_node33"><a xlink:href="structYear__kernel.html" target="_top" xlink:title="Year_kernel">
<polygon fill="white" stroke="black" points="460,-0.5 460,-19.5 528,-19.5 528,-0.5 460,-0.5"/>
<text text-anchor="middle" x="494" y="-7.5" font-family="Helvetica,sans-Serif" font-size="10.00">Year_kernel</text>
</a>
</g>
</g>
<!-- Node17&#45;&gt;Node33 -->
<g id="edge32" class="edge"><title>Node17&#45;&gt;Node33</title>
<path fill="none" stroke="midnightblue" d="M343.579,-294.136C351.544,-235.825 377.551,-66.8617 416,-29 427.479,-17.6968 444.549,-12.7567 459.702,-10.7245"/>
<polygon fill="midnightblue" stroke="midnightblue" points="340.083,-293.876 342.229,-304.251 347.022,-294.803 340.083,-293.876"/>
</g>
<!-- Node34 -->
<g id="node34" class="node"><title>Node34</title>
<g id="a_node34"><a xlink:href="structfactory_1_1Kernel__header.html" target="_top" xlink:title="factory::Kernel_header">
<polygon fill="white" stroke="black" points="0,-826.5 0,-845.5 115,-845.5 115,-826.5 0,-826.5"/>
<text text-anchor="middle" x="57.5" y="-833.5" font-family="Helvetica,sans-Serif" font-size="10.00">factory::Kernel_header</text>
</a>
</g>
</g>
<!-- Node34&#45;&gt;Node2 -->
<g id="edge33" class="edge"><title>Node34&#45;&gt;Node2</title>
<path fill="none" stroke="midnightblue" d="M125.455,-844.596C133.856,-845.674 142.38,-846.768 150.587,-847.822"/>
<polygon fill="midnightblue" stroke="midnightblue" points="125.662,-841.093 115.297,-843.292 124.77,-848.036 125.662,-841.093"/>
</g>
</g>
</svg>
