<?xml version="1.0" encoding="UTF-8" standalone="no"?>
<!DOCTYPE svg PUBLIC "-//W3C//DTD SVG 1.1//EN"
 "http://www.w3.org/Graphics/SVG/1.1/DTD/svg11.dtd">
<!-- Generated by graphviz version 2.36.0 (20140111.2315)
 -->
<!-- Title: Graphical Class Hierarchy Pages: 1 -->
<svg width="310pt" height="77pt"
 viewBox="0.00 0.00 310.00 77.00" xmlns="http://www.w3.org/2000/svg" xmlns:xlink="http://www.w3.org/1999/xlink">
<g id="graph0" class="graph" transform="scale(1 1) rotate(0) translate(4 73)">
<title>Graphical Class Hierarchy</title>
<polygon fill="white" stroke="none" points="-4,4 -4,-73 306,-73 306,4 -4,4"/>
<!-- Node1 -->
<g id="node1" class="node"><title>Node1</title>
<g id="a_node1"><a xlink:href="structsys_1_1basic__packetstream.html" target="_top" xlink:title="sys::basic_packetstream\l\&lt; Ch, Tr, Size \&gt;">
<polygon fill="white" stroke="black" points="0,-22 0,-52 126,-52 126,-22 0,-22"/>
<text text-anchor="start" x="8" y="-40" font-family="Helvetica,sans-Serif" font-size="10.00">sys::basic_packetstream</text>
<text text-anchor="middle" x="63" y="-29" font-family="Helvetica,sans-Serif" font-size="10.00">&lt; Ch, Tr, Size &gt;</text>
</a>
</g>
</g>
<!-- Node2 -->
<g id="node2" class="node"><title>Node2</title>
<g id="a_node2"><a xlink:href="structfactory_1_1Kernel__stream.html" target="_top" xlink:title="factory::Kernel_stream\&lt; T \&gt;">
<polygon fill="white" stroke="black" points="162,-49.5 162,-68.5 302,-68.5 302,-49.5 162,-49.5"/>
<text text-anchor="middle" x="232" y="-56.5" font-family="Helvetica,sans-Serif" font-size="10.00">factory::Kernel_stream&lt; T &gt;</text>
</a>
</g>
</g>
<!-- Node1&#45;&gt;Node2 -->
<g id="edge1" class="edge"><title>Node1&#45;&gt;Node2</title>
<path fill="none" stroke="midnightblue" d="M136.361,-46.5325C144.785,-47.6423 153.364,-48.7724 161.745,-49.8766"/>
<polygon fill="midnightblue" stroke="midnightblue" points="136.556,-43.0281 126.185,-45.192 135.642,-49.9682 136.556,-43.0281"/>
</g>
<!-- Node3 -->
<g id="node3" class="node"><title>Node3</title>
<g id="a_node3"><a xlink:href="structfactory_1_1Kernel__stream.html" target="_top" xlink:title="factory::Kernel_stream\l\&lt; kernel_type \&gt;">
<polygon fill="white" stroke="black" points="174,-0 174,-30 290,-30 290,-0 174,-0"/>
<text text-anchor="start" x="182" y="-18" font-family="Helvetica,sans-Serif" font-size="10.00">factory::Kernel_stream</text>
<text text-anchor="middle" x="232" y="-7" font-family="Helvetica,sans-Serif" font-size="10.00">&lt; kernel_type &gt;</text>
</a>
</g>
</g>
<!-- Node1&#45;&gt;Node3 -->
<g id="edge2" class="edge"><title>Node1&#45;&gt;Node3</title>
<path fill="none" stroke="midnightblue" d="M136.163,-27.4935C148.726,-25.8385 161.638,-24.1375 173.733,-22.5442"/>
<polygon fill="midnightblue" stroke="midnightblue" points="135.642,-24.0318 126.185,-28.808 136.556,-30.9719 135.642,-24.0318"/>
</g>
</g>
</svg>
