<?xml version="1.0" encoding="UTF-8" standalone="no"?>
<!DOCTYPE svg PUBLIC "-//W3C//DTD SVG 1.1//EN"
 "http://www.w3.org/Graphics/SVG/1.1/DTD/svg11.dtd">
<!-- Generated by graphviz version 2.36.0 (20140111.2315)
 -->
<!-- Title: Graphical Class Hierarchy Pages: 1 -->
<svg width="248pt" height="60pt"
 viewBox="0.00 0.00 248.00 60.00" xmlns="http://www.w3.org/2000/svg" xmlns:xlink="http://www.w3.org/1999/xlink">
<g id="graph0" class="graph" transform="scale(1 1) rotate(0) translate(4 56)">
<title>Graphical Class Hierarchy</title>
<polygon fill="white" stroke="none" points="-4,4 -4,-56 244,-56 244,4 -4,4"/>
<!-- Node1 -->
<g id="node1" class="node"><title>Node1</title>
<polygon fill="white" stroke="#bfbfbf" points="0,-16.5 0,-35.5 82,-35.5 82,-16.5 0,-16.5"/>
<text text-anchor="middle" x="41" y="-23.5" font-family="Helvetica,sans-Serif" font-size="10.00">basic_fildesbuf</text>
</g>
<!-- Node2 -->
<g id="node2" class="node"><title>Node2</title>
<g id="a_node2"><a xlink:href="classfactory_1_1basic__kernelbuf.html" target="_top" xlink:title="factory::basic_kernelbuf\l\&lt; sys::basic_fildesbuf\l\&lt; Ch, std::char_traits\&lt;\l Ch \&gt;, sys::socket \&gt; \&gt;">
<polygon fill="white" stroke="black" points="118.5,-0 118.5,-52 239.5,-52 239.5,-0 118.5,-0"/>
<text text-anchor="start" x="126.5" y="-40" font-family="Helvetica,sans-Serif" font-size="10.00">factory::basic_kernelbuf</text>
<text text-anchor="start" x="126.5" y="-29" font-family="Helvetica,sans-Serif" font-size="10.00">&lt; sys::basic_fildesbuf</text>
<text text-anchor="start" x="126.5" y="-18" font-family="Helvetica,sans-Serif" font-size="10.00">&lt; Ch, std::char_traits&lt;</text>
<text text-anchor="middle" x="179" y="-7" font-family="Helvetica,sans-Serif" font-size="10.00"> Ch &gt;, sys::socket &gt; &gt;</text>
</a>
</g>
</g>
<!-- Node1&#45;&gt;Node2 -->
<g id="edge1" class="edge"><title>Node1&#45;&gt;Node2</title>
<path fill="none" stroke="midnightblue" d="M92.1975,-26C100.696,-26 109.593,-26 118.305,-26"/>
<polygon fill="midnightblue" stroke="midnightblue" points="92.0689,-22.5001 82.0689,-26 92.0689,-29.5001 92.0689,-22.5001"/>
</g>
</g>
</svg>
