<?xml version="1.0" encoding="UTF-8" standalone="no"?>
<!DOCTYPE svg PUBLIC "-//W3C//DTD SVG 1.1//EN"
 "http://www.w3.org/Graphics/SVG/1.1/DTD/svg11.dtd">
<!-- Generated by graphviz version 2.36.0 (20140111.2315)
 -->
<!-- Title: Graphical Class Hierarchy Pages: 1 -->
<svg width="206pt" height="136pt"
 viewBox="0.00 0.00 206.00 136.00" xmlns="http://www.w3.org/2000/svg" xmlns:xlink="http://www.w3.org/1999/xlink">
<g id="graph0" class="graph" transform="scale(1 1) rotate(0) translate(4 132)">
<title>Graphical Class Hierarchy</title>
<polygon fill="white" stroke="none" points="-4,4 -4,-132 202,-132 202,4 -4,4"/>
<!-- Node1 -->
<g id="node1" class="node"><title>Node1</title>
<polygon fill="white" stroke="#bfbfbf" points="0.5,-54.5 0.5,-73.5 39.5,-73.5 39.5,-54.5 0.5,-54.5"/>
<text text-anchor="middle" x="20" y="-61.5" font-family="Helvetica,sans-Serif" font-size="10.00">Base</text>
</g>
<!-- Node2 -->
<g id="node2" class="node"><title>Node2</title>
<g id="a_node2"><a xlink:href="structdiscovery_1_1Hierarchy__with__graph.html" target="_top" xlink:title="discovery::Hierarchy\l_with_graph\&lt; Base \&gt;">
<polygon fill="white" stroke="black" points="82,-98 82,-128 192,-128 192,-98 82,-98"/>
<text text-anchor="start" x="90" y="-116" font-family="Helvetica,sans-Serif" font-size="10.00">discovery::Hierarchy</text>
<text text-anchor="middle" x="137" y="-105" font-family="Helvetica,sans-Serif" font-size="10.00">_with_graph&lt; Base &gt;</text>
</a>
</g>
</g>
<!-- Node1&#45;&gt;Node2 -->
<g id="edge1" class="edge"><title>Node1&#45;&gt;Node2</title>
<path fill="none" stroke="midnightblue" d="M48.8638,-76.266C57.5438,-80.0582 67.1574,-84.2288 76,-88 83.5775,-91.2317 91.7123,-94.6531 99.4704,-97.8933"/>
<polygon fill="midnightblue" stroke="midnightblue" points="50.1154,-72.9932 39.5513,-72.1867 47.3067,-79.405 50.1154,-72.9932"/>
</g>
<!-- Node3 -->
<g id="node3" class="node"><title>Node3</title>
<g id="a_node3"><a xlink:href="structfactory_1_1basic__kernelbuf.html" target="_top" xlink:title="factory::basic_kernelbuf\l\&lt; Base \&gt;">
<polygon fill="white" stroke="black" points="76.5,-49 76.5,-79 197.5,-79 197.5,-49 76.5,-49"/>
<text text-anchor="start" x="84.5" y="-67" font-family="Helvetica,sans-Serif" font-size="10.00">factory::basic_kernelbuf</text>
<text text-anchor="middle" x="137" y="-56" font-family="Helvetica,sans-Serif" font-size="10.00">&lt; Base &gt;</text>
</a>
</g>
</g>
<!-- Node1&#45;&gt;Node3 -->
<g id="edge2" class="edge"><title>Node1&#45;&gt;Node3</title>
<path fill="none" stroke="midnightblue" d="M49.8047,-64C57.9852,-64 67.2077,-64 76.4999,-64"/>
<polygon fill="midnightblue" stroke="midnightblue" points="49.7327,-60.5001 39.7327,-64 49.7326,-67.5001 49.7327,-60.5001"/>
</g>
<!-- Node4 -->
<g id="node4" class="node"><title>Node4</title>
<g id="a_node4"><a xlink:href="structfactory_1_1Priority__kernel.html" target="_top" xlink:title="factory::Priority_kernel\l\&lt; Base \&gt;">
<polygon fill="white" stroke="black" points="79.5,-0 79.5,-30 194.5,-30 194.5,-0 79.5,-0"/>
<text text-anchor="start" x="87.5" y="-18" font-family="Helvetica,sans-Serif" font-size="10.00">factory::Priority_kernel</text>
<text text-anchor="middle" x="137" y="-7" font-family="Helvetica,sans-Serif" font-size="10.00">&lt; Base &gt;</text>
</a>
</g>
</g>
<!-- Node1&#45;&gt;Node4 -->
<g id="edge3" class="edge"><title>Node1&#45;&gt;Node4</title>
<path fill="none" stroke="midnightblue" d="M48.8638,-51.734C57.5438,-47.9418 67.1574,-43.7712 76,-40 83.5775,-36.7683 91.7123,-33.3469 99.4704,-30.1067"/>
<polygon fill="midnightblue" stroke="midnightblue" points="47.3067,-48.595 39.5513,-55.8133 50.1154,-55.0068 47.3067,-48.595"/>
</g>
</g>
</svg>
