<?xml version="1.0" encoding="UTF-8" standalone="no"?>
<!DOCTYPE svg PUBLIC "-//W3C//DTD SVG 1.1//EN"
 "http://www.w3.org/Graphics/SVG/1.1/DTD/svg11.dtd">
<!-- Generated by graphviz version 2.38.0 (20140413.2041)
 -->
<!-- Title: Graphical Class Hierarchy Pages: 1 -->
<svg width="562pt" height="296pt"
 viewBox="0.00 0.00 562.00 296.00" xmlns="http://www.w3.org/2000/svg" xmlns:xlink="http://www.w3.org/1999/xlink">
<g id="graph0" class="graph" transform="scale(1 1) rotate(0) translate(4 292)">
<title>Graphical Class Hierarchy</title>
<polygon fill="white" stroke="none" points="-4,4 -4,-292 558,-292 558,4 -4,4"/>
<!-- Node1 -->
<g id="node1" class="node"><title>Node1</title>
<polygon fill="white" stroke="#bfbfbf" points="0,-131 0,-150 89,-150 89,-131 0,-131"/>
<text text-anchor="middle" x="44.5" y="-138" font-family="Helvetica,sans-Serif" font-size="10.00">basic_streambuf</text>
</g>
<!-- Node2 -->
<g id="node2" class="node"><title>Node2</title>
<g id="a_node2"><a xlink:href="classsys_1_1basic__argbuf.html" target="_top" xlink:title="sys::basic_argbuf\&lt;\l char_type, traits_type \&gt;">
<polygon fill="white" stroke="black" points="125,-257.5 125,-287.5 248,-287.5 248,-257.5 125,-257.5"/>
<text text-anchor="start" x="133" y="-275.5" font-family="Helvetica,sans-Serif" font-size="10.00">sys::basic_argbuf&lt;</text>
<text text-anchor="middle" x="186.5" y="-264.5" font-family="Helvetica,sans-Serif" font-size="10.00"> char_type, traits_type &gt;</text>
</a>
</g>
</g>
<!-- Node1&#45;&gt;Node2 -->
<g id="edge1" class="edge"><title>Node1&#45;&gt;Node2</title>
<path fill="none" stroke="midnightblue" d="M55.0377,-159.337C67.9397,-183.111 93.0593,-223.866 125,-248.5 129.384,-251.881 134.307,-254.848 139.401,-257.434"/>
<polygon fill="midnightblue" stroke="midnightblue" points="58.0274,-157.502 50.272,-150.284 51.8333,-160.763 58.0274,-157.502"/>
</g>
<!-- Node3 -->
<g id="node3" class="node"><title>Node3</title>
<g id="a_node3"><a xlink:href="structsys_1_1basic__logbuf.html" target="_top" xlink:title="sys::basic_logbuf\&lt;\l char \&gt;">
<polygon fill="white" stroke="black" points="137,-208.5 137,-238.5 236,-238.5 236,-208.5 137,-208.5"/>
<text text-anchor="start" x="145" y="-226.5" font-family="Helvetica,sans-Serif" font-size="10.00">sys::basic_logbuf&lt;</text>
<text text-anchor="middle" x="186.5" y="-215.5" font-family="Helvetica,sans-Serif" font-size="10.00"> char &gt;</text>
</a>
</g>
</g>
<!-- Node1&#45;&gt;Node3 -->
<g id="edge2" class="edge"><title>Node1&#45;&gt;Node3</title>
<path fill="none" stroke="midnightblue" d="M64.6103,-156.457C80.1913,-168.959 103.122,-186.232 125,-198.5 131.344,-202.058 138.297,-205.399 145.159,-208.41"/>
<polygon fill="midnightblue" stroke="midnightblue" points="66.7272,-153.668 56.7638,-150.065 62.3058,-159.094 66.7272,-153.668"/>
</g>
<!-- Node4 -->
<g id="node4" class="node"><title>Node4</title>
<g id="a_node4"><a xlink:href="structstdx_1_1basic__packetbuf.html" target="_top" xlink:title="stdx::basic_packetbuf\l\&lt; Ch, std::char_traits\l\&lt; Ch \&gt; \&gt;">
<polygon fill="white" stroke="black" points="130,-148 130,-189 243,-189 243,-148 130,-148"/>
<text text-anchor="start" x="138" y="-177" font-family="Helvetica,sans-Serif" font-size="10.00">stdx::basic_packetbuf</text>
<text text-anchor="start" x="138" y="-166" font-family="Helvetica,sans-Serif" font-size="10.00">&lt; Ch, std::char_traits</text>
<text text-anchor="middle" x="186.5" y="-155" font-family="Helvetica,sans-Serif" font-size="10.00">&lt; Ch &gt; &gt;</text>
</a>
</g>
</g>
<!-- Node1&#45;&gt;Node4 -->
<g id="edge3" class="edge"><title>Node1&#45;&gt;Node4</title>
<path fill="none" stroke="midnightblue" d="M98.9527,-151.191C109.073,-153.215 119.683,-155.337 129.868,-157.374"/>
<polygon fill="midnightblue" stroke="midnightblue" points="99.5217,-147.735 89.0295,-149.206 98.1488,-154.599 99.5217,-147.735"/>
</g>
<!-- Node7 -->
<g id="node7" class="node"><title>Node7</title>
<g id="a_node7"><a xlink:href="structstdx_1_1basic__packetbuf.html" target="_top" xlink:title="stdx::basic_packetbuf\l\&lt; Ch, Tr \&gt;">
<polygon fill="white" stroke="black" points="130,-98.5 130,-128.5 243,-128.5 243,-98.5 130,-98.5"/>
<text text-anchor="start" x="138" y="-116.5" font-family="Helvetica,sans-Serif" font-size="10.00">stdx::basic_packetbuf</text>
<text text-anchor="middle" x="186.5" y="-105.5" font-family="Helvetica,sans-Serif" font-size="10.00">&lt; Ch, Tr &gt;</text>
</a>
</g>
</g>
<!-- Node1&#45;&gt;Node7 -->
<g id="edge6" class="edge"><title>Node1&#45;&gt;Node7</title>
<path fill="none" stroke="midnightblue" d="M98.9527,-130.191C109.073,-128.24 119.683,-126.193 129.868,-124.229"/>
<polygon fill="midnightblue" stroke="midnightblue" points="98.1857,-126.775 89.0295,-132.105 99.5113,-133.648 98.1857,-126.775"/>
</g>
<!-- Node11 -->
<g id="node11" class="node"><title>Node11</title>
<g id="a_node11"><a xlink:href="classsys_1_1basic__argbuf.html" target="_top" xlink:title="sys::basic_argbuf\&lt;\l Ch, Tr \&gt;">
<polygon fill="white" stroke="black" points="136.5,-49.5 136.5,-79.5 236.5,-79.5 236.5,-49.5 136.5,-49.5"/>
<text text-anchor="start" x="144.5" y="-67.5" font-family="Helvetica,sans-Serif" font-size="10.00">sys::basic_argbuf&lt;</text>
<text text-anchor="middle" x="186.5" y="-56.5" font-family="Helvetica,sans-Serif" font-size="10.00"> Ch, Tr &gt;</text>
</a>
</g>
</g>
<!-- Node1&#45;&gt;Node11 -->
<g id="edge10" class="edge"><title>Node1&#45;&gt;Node11</title>
<path fill="none" stroke="midnightblue" d="M67.2747,-125.028C82.9051,-114.299 104.707,-100.094 125,-89.5 131.649,-86.0288 138.891,-82.6858 145.979,-79.6356"/>
<polygon fill="midnightblue" stroke="midnightblue" points="65.0563,-122.307 58.8429,-130.889 69.0517,-128.055 65.0563,-122.307"/>
</g>
<!-- Node12 -->
<g id="node12" class="node"><title>Node12</title>
<g id="a_node12"><a xlink:href="structsys_1_1basic__logbuf.html" target="_top" xlink:title="sys::basic_logbuf\&lt;\l Ch, Tr \&gt;">
<polygon fill="white" stroke="black" points="137,-0.5 137,-30.5 236,-30.5 236,-0.5 137,-0.5"/>
<text text-anchor="start" x="145" y="-18.5" font-family="Helvetica,sans-Serif" font-size="10.00">sys::basic_logbuf&lt;</text>
<text text-anchor="middle" x="186.5" y="-7.5" font-family="Helvetica,sans-Serif" font-size="10.00"> Ch, Tr &gt;</text>
</a>
</g>
</g>
<!-- Node1&#45;&gt;Node12 -->
<g id="edge11" class="edge"><title>Node1&#45;&gt;Node12</title>
<path fill="none" stroke="midnightblue" d="M56.0162,-122.191C69.4889,-100.154 94.7514,-63.2802 125,-40.5 129.993,-36.7397 135.633,-33.4412 141.412,-30.5796"/>
<polygon fill="midnightblue" stroke="midnightblue" points="52.9368,-120.521 50.8317,-130.905 58.9526,-124.101 52.9368,-120.521"/>
</g>
<!-- Node5 -->
<g id="node5" class="node"><title>Node5</title>
<g id="a_node5"><a xlink:href="classsys_1_1basic__fildesbuf.html" target="_top" xlink:title="sys::basic_fildesbuf\l\&lt; Ch, std::char_traits\l\&lt; Ch \&gt;, sys::socket \&gt;">
<polygon fill="white" stroke="black" points="284,-149 284,-190 397,-190 397,-149 284,-149"/>
<text text-anchor="start" x="292" y="-178" font-family="Helvetica,sans-Serif" font-size="10.00">sys::basic_fildesbuf</text>
<text text-anchor="start" x="292" y="-167" font-family="Helvetica,sans-Serif" font-size="10.00">&lt; Ch, std::char_traits</text>
<text text-anchor="middle" x="340.5" y="-156" font-family="Helvetica,sans-Serif" font-size="10.00">&lt; Ch &gt;, sys::socket &gt;</text>
</a>
</g>
</g>
<!-- Node4&#45;&gt;Node5 -->
<g id="edge4" class="edge"><title>Node4&#45;&gt;Node5</title>
<path fill="none" stroke="midnightblue" d="M253.287,-168.933C263.448,-169 273.858,-169.068 283.771,-169.133"/>
<polygon fill="midnightblue" stroke="midnightblue" points="253.259,-165.433 243.236,-168.867 253.213,-172.432 253.259,-165.433"/>
</g>
<!-- Node6 -->
<g id="node6" class="node"><title>Node6</title>
<g id="a_node6"><a xlink:href="structfactory_1_1basic__kernelbuf.html" target="_top" xlink:title="factory::basic_kernelbuf\l\&lt; sys::basic_fildesbuf\l\&lt; Ch, std::char_traits\&lt;\l Ch \&gt;, sys::socket \&gt; \&gt;">
<polygon fill="white" stroke="black" points="433,-145.5 433,-197.5 554,-197.5 554,-145.5 433,-145.5"/>
<text text-anchor="start" x="441" y="-185.5" font-family="Helvetica,sans-Serif" font-size="10.00">factory::basic_kernelbuf</text>
<text text-anchor="start" x="441" y="-174.5" font-family="Helvetica,sans-Serif" font-size="10.00">&lt; sys::basic_fildesbuf</text>
<text text-anchor="start" x="441" y="-163.5" font-family="Helvetica,sans-Serif" font-size="10.00">&lt; Ch, std::char_traits&lt;</text>
<text text-anchor="middle" x="493.5" y="-152.5" font-family="Helvetica,sans-Serif" font-size="10.00"> Ch &gt;, sys::socket &gt; &gt;</text>
</a>
</g>
</g>
<!-- Node5&#45;&gt;Node6 -->
<g id="edge5" class="edge"><title>Node5&#45;&gt;Node6</title>
<path fill="none" stroke="midnightblue" d="M407.49,-170.374C415.935,-170.486 424.541,-170.6 432.877,-170.71"/>
<polygon fill="midnightblue" stroke="midnightblue" points="407.343,-166.872 397.298,-170.239 407.251,-173.871 407.343,-166.872"/>
</g>
<!-- Node8 -->
<g id="node8" class="node"><title>Node8</title>
<g id="a_node8"><a xlink:href="classsys_1_1basic__fildesbuf.html" target="_top" xlink:title="sys::basic_fildesbuf\l\&lt; Ch, Tr, Fd \&gt;">
<polygon fill="white" stroke="black" points="288.5,-98.5 288.5,-128.5 392.5,-128.5 392.5,-98.5 288.5,-98.5"/>
<text text-anchor="start" x="296.5" y="-116.5" font-family="Helvetica,sans-Serif" font-size="10.00">sys::basic_fildesbuf</text>
<text text-anchor="middle" x="340.5" y="-105.5" font-family="Helvetica,sans-Serif" font-size="10.00">&lt; Ch, Tr, Fd &gt;</text>
</a>
</g>
</g>
<!-- Node7&#45;&gt;Node8 -->
<g id="edge7" class="edge"><title>Node7&#45;&gt;Node8</title>
<path fill="none" stroke="midnightblue" d="M253.397,-113.5C265.087,-113.5 277.102,-113.5 288.308,-113.5"/>
<polygon fill="midnightblue" stroke="midnightblue" points="253.236,-110 243.236,-113.5 253.236,-117 253.236,-110"/>
</g>
<!-- Node10 -->
<g id="node10" class="node"><title>Node10</title>
<g id="a_node10"><a xlink:href="structsys_1_1basic__shmembuf.html" target="_top" xlink:title="sys::basic_shmembuf\l\&lt; Ch, Tr \&gt;">
<polygon fill="white" stroke="black" points="284,-49.5 284,-79.5 397,-79.5 397,-49.5 284,-49.5"/>
<text text-anchor="start" x="292" y="-67.5" font-family="Helvetica,sans-Serif" font-size="10.00">sys::basic_shmembuf</text>
<text text-anchor="middle" x="340.5" y="-56.5" font-family="Helvetica,sans-Serif" font-size="10.00">&lt; Ch, Tr &gt;</text>
</a>
</g>
</g>
<!-- Node7&#45;&gt;Node10 -->
<g id="edge9" class="edge"><title>Node7&#45;&gt;Node10</title>
<path fill="none" stroke="midnightblue" d="M244.14,-95.2409C260.172,-90.0727 277.436,-84.5076 292.809,-79.5516"/>
<polygon fill="midnightblue" stroke="midnightblue" points="242.789,-91.9991 234.345,-98.3986 244.937,-98.6615 242.789,-91.9991"/>
</g>
<!-- Node9 -->
<g id="node9" class="node"><title>Node9</title>
<g id="a_node9"><a xlink:href="structfactory_1_1basic__kernelbuf.html" target="_top" xlink:title="factory::basic_kernelbuf\l\&lt; sys::fildesbuf \&gt;">
<polygon fill="white" stroke="black" points="433,-96.5 433,-126.5 554,-126.5 554,-96.5 433,-96.5"/>
<text text-anchor="start" x="441" y="-114.5" font-family="Helvetica,sans-Serif" font-size="10.00">factory::basic_kernelbuf</text>
<text text-anchor="middle" x="493.5" y="-103.5" font-family="Helvetica,sans-Serif" font-size="10.00">&lt; sys::fildesbuf &gt;</text>
</a>
</g>
</g>
<!-- Node8&#45;&gt;Node9 -->
<g id="edge8" class="edge"><title>Node8&#45;&gt;Node9</title>
<path fill="none" stroke="midnightblue" d="M402.797,-112.688C412.707,-112.557 422.956,-112.421 432.828,-112.29"/>
<polygon fill="midnightblue" stroke="midnightblue" points="402.574,-109.191 392.622,-112.823 402.667,-116.19 402.574,-109.191"/>
</g>
</g>
</svg>
