<?xml version="1.0" encoding="UTF-8" standalone="no"?>
<!DOCTYPE svg PUBLIC "-//W3C//DTD SVG 1.1//EN"
 "http://www.w3.org/Graphics/SVG/1.1/DTD/svg11.dtd">
<!-- Generated by graphviz version 2.36.0 (20140111.2315)
 -->
<!-- Title: Graphical Class Hierarchy Pages: 1 -->
<svg width="654pt" height="400pt"
 viewBox="0.00 0.00 654.00 400.00" xmlns="http://www.w3.org/2000/svg" xmlns:xlink="http://www.w3.org/1999/xlink">
<g id="graph0" class="graph" transform="scale(1 1) rotate(0) translate(4 396)">
<title>Graphical Class Hierarchy</title>
<polygon fill="white" stroke="none" points="-4,4 -4,-396 650,-396 650,4 -4,4"/>
<!-- Node1 -->
<g id="node1" class="node"><title>Node1</title>
<g id="a_node1"><a xlink:href="classfactory_1_1pipeline__base.html" target="_top" xlink:title="factory::pipeline_base">
<polygon fill="white" stroke="black" points="0,-142.5 0,-161.5 112,-161.5 112,-142.5 0,-142.5"/>
<text text-anchor="middle" x="56" y="-149.5" font-family="Helvetica,sans-Serif" font-size="10.00">factory::pipeline_base</text>
</a>
</g>
</g>
<!-- Node2 -->
<g id="node2" class="node"><title>Node2</title>
<g id="a_node2"><a xlink:href="classfactory_1_1basic__pipeline.html" target="_top" xlink:title="factory::basic_pipeline\&lt; T \&gt;">
<polygon fill="white" stroke="black" points="152,-355.5 152,-374.5 290,-374.5 290,-355.5 152,-355.5"/>
<text text-anchor="middle" x="221" y="-362.5" font-family="Helvetica,sans-Serif" font-size="10.00">factory::basic_pipeline&lt; T &gt;</text>
</a>
</g>
</g>
<!-- Node1&#45;&gt;Node2 -->
<g id="edge1" class="edge"><title>Node1&#45;&gt;Node2</title>
<path fill="none" stroke="midnightblue" d="M64.643,-170.935C78.0818,-202.637 108.324,-267.368 148,-312 164.087,-330.097 187.305,-345.819 202.988,-355.341"/>
<polygon fill="midnightblue" stroke="midnightblue" points="67.8048,-169.422 60.7403,-161.526 61.339,-172.104 67.8048,-169.422"/>
</g>
<!-- Node5 -->
<g id="node5" class="node"><title>Node5</title>
<g id="a_node5"><a xlink:href="structfactory_1_1Buffered__pipeline.html" target="_top" xlink:title="factory::Buffered_pipeline\l\&lt; T, Router \&gt;">
<polygon fill="white" stroke="black" points="157,-273 157,-303 285,-303 285,-273 157,-273"/>
<text text-anchor="start" x="165" y="-291" font-family="Helvetica,sans-Serif" font-size="10.00">factory::Buffered_pipeline</text>
<text text-anchor="middle" x="221" y="-280" font-family="Helvetica,sans-Serif" font-size="10.00">&lt; T, Router &gt;</text>
</a>
</g>
</g>
<!-- Node1&#45;&gt;Node5 -->
<g id="edge4" class="edge"><title>Node1&#45;&gt;Node5</title>
<path fill="none" stroke="midnightblue" d="M70.8774,-169.28C87.6975,-189.517 117.584,-223.283 148,-247 160.591,-256.818 175.8,-265.83 188.989,-272.89"/>
<polygon fill="midnightblue" stroke="midnightblue" points="73.5509,-167.02 64.5054,-161.504 68.1366,-171.457 73.5509,-167.02"/>
</g>
<!-- Node7 -->
<g id="node7" class="node"><title>Node7</title>
<g id="a_node7"><a xlink:href="classfactory_1_1basic__pipeline.html" target="_top" xlink:title="factory::basic_pipeline\l\&lt; T, Kernels, Traits,\l Threads, Mutex, Lock,\l Semaphore \&gt;">
<polygon fill="white" stroke="black" points="162,-186 162,-238 280,-238 280,-186 162,-186"/>
<text text-anchor="start" x="170" y="-226" font-family="Helvetica,sans-Serif" font-size="10.00">factory::basic_pipeline</text>
<text text-anchor="start" x="170" y="-215" font-family="Helvetica,sans-Serif" font-size="10.00">&lt; T, Kernels, Traits,</text>
<text text-anchor="start" x="170" y="-204" font-family="Helvetica,sans-Serif" font-size="10.00"> Threads, Mutex, Lock,</text>
<text text-anchor="middle" x="221" y="-193" font-family="Helvetica,sans-Serif" font-size="10.00"> Semaphore &gt;</text>
</a>
</g>
</g>
<!-- Node1&#45;&gt;Node7 -->
<g id="edge6" class="edge"><title>Node1&#45;&gt;Node7</title>
<path fill="none" stroke="midnightblue" d="M92.2986,-164.993C112.601,-172.467 138.616,-182.043 161.862,-190.599"/>
<polygon fill="midnightblue" stroke="midnightblue" points="93.4213,-161.677 82.8278,-161.507 91.0032,-168.246 93.4213,-161.677"/>
</g>
<!-- Node17 -->
<g id="node17" class="node"><title>Node17</title>
<g id="a_node17"><a xlink:href="structfactory_1_1Buffered__pipeline.html" target="_top" xlink:title="factory::Buffered_pipeline\l\&lt; T, Router, Kernels, Traits \&gt;">
<polygon fill="white" stroke="black" points="148,-137 148,-167 294,-167 294,-137 148,-137"/>
<text text-anchor="start" x="156" y="-155" font-family="Helvetica,sans-Serif" font-size="10.00">factory::Buffered_pipeline</text>
<text text-anchor="middle" x="221" y="-144" font-family="Helvetica,sans-Serif" font-size="10.00">&lt; T, Router, Kernels, Traits &gt;</text>
</a>
</g>
</g>
<!-- Node1&#45;&gt;Node17 -->
<g id="edge16" class="edge"><title>Node1&#45;&gt;Node17</title>
<path fill="none" stroke="midnightblue" d="M122.285,-152C130.684,-152 139.322,-152 147.824,-152"/>
<polygon fill="midnightblue" stroke="midnightblue" points="122.184,-148.5 112.184,-152 122.184,-155.5 122.184,-148.5"/>
</g>
<!-- Node18 -->
<g id="node18" class="node"><title>Node18</title>
<g id="a_node18"><a xlink:href="classfactory_1_1Factory.html" target="_top" xlink:title="factory::Factory\&lt; T \&gt;">
<polygon fill="white" stroke="black" points="166,-98.5 166,-117.5 276,-117.5 276,-98.5 166,-98.5"/>
<text text-anchor="middle" x="221" y="-105.5" font-family="Helvetica,sans-Serif" font-size="10.00">factory::Factory&lt; T &gt;</text>
</a>
</g>
</g>
<!-- Node1&#45;&gt;Node18 -->
<g id="edge17" class="edge"><title>Node1&#45;&gt;Node18</title>
<path fill="none" stroke="midnightblue" d="M102.028,-139.845C128.111,-132.805 160.472,-124.069 184.7,-117.529"/>
<polygon fill="midnightblue" stroke="midnightblue" points="101.111,-136.467 92.3686,-142.453 102.935,-143.226 101.111,-136.467"/>
</g>
<!-- Node19 -->
<g id="node19" class="node"><title>Node19</title>
<g id="a_node19"><a xlink:href="classfactory_1_1Multi__pipeline.html" target="_top" xlink:title="factory::Multi_pipeline\&lt; T \&gt;">
<polygon fill="white" stroke="black" points="153,-60.5 153,-79.5 289,-79.5 289,-60.5 153,-60.5"/>
<text text-anchor="middle" x="221" y="-67.5" font-family="Helvetica,sans-Serif" font-size="10.00">factory::Multi_pipeline&lt; T &gt;</text>
</a>
</g>
</g>
<!-- Node1&#45;&gt;Node19 -->
<g id="edge18" class="edge"><title>Node1&#45;&gt;Node19</title>
<path fill="none" stroke="midnightblue" d="M75.7922,-136.053C93.4073,-121.848 121.004,-101.439 148,-89 156.219,-85.2129 165.327,-82.0763 174.222,-79.5176"/>
<polygon fill="midnightblue" stroke="midnightblue" points="73.494,-133.412 67.993,-142.466 77.94,-138.818 73.494,-133.412"/>
</g>
<!-- Node20 -->
<g id="node20" class="node"><title>Node20</title>
<g id="a_node20"><a xlink:href="classfactory_1_1remote__client.html" target="_top" xlink:title="factory::remote_client\l\&lt; T, Socket, Router, Kernels,\l Traits \&gt;">
<polygon fill="white" stroke="black" points="148,-0.5 148,-41.5 294,-41.5 294,-0.5 148,-0.5"/>
<text text-anchor="start" x="156" y="-29.5" font-family="Helvetica,sans-Serif" font-size="10.00">factory::remote_client</text>
<text text-anchor="start" x="156" y="-18.5" font-family="Helvetica,sans-Serif" font-size="10.00">&lt; T, Socket, Router, Kernels,</text>
<text text-anchor="middle" x="221" y="-7.5" font-family="Helvetica,sans-Serif" font-size="10.00"> Traits &gt;</text>
</a>
</g>
</g>
<!-- Node1&#45;&gt;Node20 -->
<g id="edge19" class="edge"><title>Node1&#45;&gt;Node20</title>
<path fill="none" stroke="midnightblue" d="M69.4009,-133.897C85.3513,-111.77 114.965,-74.3907 148,-51 152.863,-47.5569 158.181,-44.4111 163.654,-41.5622"/>
<polygon fill="midnightblue" stroke="midnightblue" points="66.3347,-132.172 63.4314,-142.362 72.0551,-136.207 66.3347,-132.172"/>
</g>
<!-- Node3 -->
<g id="node3" class="node"><title>Node3</title>
<g id="a_node3"><a xlink:href="classfactory_1_1parallel__pipeline.html" target="_top" xlink:title="factory::parallel_pipeline\&lt; T \&gt;">
<polygon fill="white" stroke="black" points="332,-372.5 332,-391.5 478,-391.5 478,-372.5 332,-372.5"/>
<text text-anchor="middle" x="405" y="-379.5" font-family="Helvetica,sans-Serif" font-size="10.00">factory::parallel_pipeline&lt; T &gt;</text>
</a>
</g>
</g>
<!-- Node2&#45;&gt;Node3 -->
<g id="edge2" class="edge"><title>Node2&#45;&gt;Node3</title>
<path fill="none" stroke="midnightblue" d="M300.043,-372.29C310.583,-373.274 321.359,-374.281 331.792,-375.255"/>
<polygon fill="midnightblue" stroke="midnightblue" points="300.311,-368.8 290.029,-371.354 299.66,-375.769 300.311,-368.8"/>
</g>
<!-- Node4 -->
<g id="node4" class="node"><title>Node4</title>
<g id="a_node4"><a xlink:href="structfactory_1_1io__pipeline.html" target="_top" xlink:title="factory::io_pipeline\&lt; T \&gt;">
<polygon fill="white" stroke="black" points="520,-372.5 520,-391.5 642,-391.5 642,-372.5 520,-372.5"/>
<text text-anchor="middle" x="581" y="-379.5" font-family="Helvetica,sans-Serif" font-size="10.00">factory::io_pipeline&lt; T &gt;</text>
</a>
</g>
</g>
<!-- Node3&#45;&gt;Node4 -->
<g id="edge3" class="edge"><title>Node3&#45;&gt;Node4</title>
<path fill="none" stroke="midnightblue" d="M488.222,-382C498.906,-382 509.687,-382 519.917,-382"/>
<polygon fill="midnightblue" stroke="midnightblue" points="488.029,-378.5 478.028,-382 488.028,-385.5 488.029,-378.5"/>
</g>
<!-- Node6 -->
<g id="node6" class="node"><title>Node6</title>
<g id="a_node6"><a xlink:href="structfactory_1_1process__handler.html" target="_top" xlink:title="factory::process_handler\l\&lt; T, Router \&gt;">
<polygon fill="white" stroke="black" points="343,-323 343,-353 467,-353 467,-323 343,-323"/>
<text text-anchor="start" x="351" y="-341" font-family="Helvetica,sans-Serif" font-size="10.00">factory::process_handler</text>
<text text-anchor="middle" x="405" y="-330" font-family="Helvetica,sans-Serif" font-size="10.00">&lt; T, Router &gt;</text>
</a>
</g>
</g>
<!-- Node5&#45;&gt;Node6 -->
<g id="edge5" class="edge"><title>Node5&#45;&gt;Node6</title>
<path fill="none" stroke="midnightblue" d="M286.478,-305.714C306.951,-311.338 329.387,-317.502 349.118,-322.923"/>
<polygon fill="midnightblue" stroke="midnightblue" points="287.176,-302.276 276.606,-303.002 285.322,-309.026 287.176,-302.276"/>
</g>
<!-- Node8 -->
<g id="node8" class="node"><title>Node8</title>
<g id="a_node8"><a xlink:href="structfactory_1_1basic__socket__pipeline.html" target="_top" xlink:title="factory::basic_socket\l_pipeline\&lt; T, process\l_handler\&lt; T, basic_router\l\&lt; T \&gt; \&gt; \&gt;">
<polygon fill="white" stroke="black" points="341,-252 341,-304 469,-304 469,-252 341,-252"/>
<text text-anchor="start" x="349" y="-292" font-family="Helvetica,sans-Serif" font-size="10.00">factory::basic_socket</text>
<text text-anchor="start" x="349" y="-281" font-family="Helvetica,sans-Serif" font-size="10.00">_pipeline&lt; T, process</text>
<text text-anchor="start" x="349" y="-270" font-family="Helvetica,sans-Serif" font-size="10.00">_handler&lt; T, basic_router</text>
<text text-anchor="middle" x="405" y="-259" font-family="Helvetica,sans-Serif" font-size="10.00">&lt; T &gt; &gt; &gt;</text>
</a>
</g>
</g>
<!-- Node7&#45;&gt;Node8 -->
<g id="edge7" class="edge"><title>Node7&#45;&gt;Node8</title>
<path fill="none" stroke="midnightblue" d="M289.777,-236.578C306.486,-242.638 324.315,-249.103 340.798,-255.081"/>
<polygon fill="midnightblue" stroke="midnightblue" points="290.681,-233.183 280.086,-233.064 288.294,-239.764 290.681,-233.183"/>
</g>
<!-- Node10 -->
<g id="node10" class="node"><title>Node10</title>
<g id="a_node10"><a xlink:href="structfactory_1_1basic__socket__pipeline.html" target="_top" xlink:title="factory::basic_socket\l_pipeline\&lt; T, process\l_handler\&lt; T, Router \&gt; \&gt;">
<polygon fill="white" stroke="black" points="344,-191.5 344,-232.5 466,-232.5 466,-191.5 344,-191.5"/>
<text text-anchor="start" x="352" y="-220.5" font-family="Helvetica,sans-Serif" font-size="10.00">factory::basic_socket</text>
<text text-anchor="start" x="352" y="-209.5" font-family="Helvetica,sans-Serif" font-size="10.00">_pipeline&lt; T, process</text>
<text text-anchor="middle" x="405" y="-198.5" font-family="Helvetica,sans-Serif" font-size="10.00">_handler&lt; T, Router &gt; &gt;</text>
</a>
</g>
</g>
<!-- Node7&#45;&gt;Node10 -->
<g id="edge9" class="edge"><title>Node7&#45;&gt;Node10</title>
<path fill="none" stroke="midnightblue" d="M290.306,-212C307.938,-212 326.785,-212 343.961,-212"/>
<polygon fill="midnightblue" stroke="midnightblue" points="290.086,-208.5 280.086,-212 290.086,-215.5 290.086,-208.5"/>
</g>
<!-- Node13 -->
<g id="node13" class="node"><title>Node13</title>
<g id="a_node13"><a xlink:href="structfactory_1_1basic__socket__pipeline.html" target="_top" xlink:title="factory::basic_socket\l_pipeline\&lt; T, remote\l_client\&lt; T, Socket, Router \&gt; \&gt;">
<polygon fill="white" stroke="black" points="330,-131.5 330,-172.5 480,-172.5 480,-131.5 330,-131.5"/>
<text text-anchor="start" x="338" y="-160.5" font-family="Helvetica,sans-Serif" font-size="10.00">factory::basic_socket</text>
<text text-anchor="start" x="338" y="-149.5" font-family="Helvetica,sans-Serif" font-size="10.00">_pipeline&lt; T, remote</text>
<text text-anchor="middle" x="405" y="-138.5" font-family="Helvetica,sans-Serif" font-size="10.00">_client&lt; T, Socket, Router &gt; &gt;</text>
</a>
</g>
</g>
<!-- Node7&#45;&gt;Node13 -->
<g id="edge12" class="edge"><title>Node7&#45;&gt;Node13</title>
<path fill="none" stroke="midnightblue" d="M289.935,-189.604C306.922,-184.004 325.056,-178.026 341.751,-172.522"/>
<polygon fill="midnightblue" stroke="midnightblue" points="288.488,-186.396 280.086,-192.851 290.679,-193.044 288.488,-186.396"/>
</g>
<!-- Node15 -->
<g id="node15" class="node"><title>Node15</title>
<g id="a_node15"><a xlink:href="structfactory_1_1basic__socket__pipeline.html" target="_top" xlink:title="factory::basic_socket\l_pipeline\&lt; T, Handler \&gt;">
<polygon fill="white" stroke="black" points="345.5,-83 345.5,-113 464.5,-113 464.5,-83 345.5,-83"/>
<text text-anchor="start" x="353.5" y="-101" font-family="Helvetica,sans-Serif" font-size="10.00">factory::basic_socket</text>
<text text-anchor="middle" x="405" y="-90" font-family="Helvetica,sans-Serif" font-size="10.00">_pipeline&lt; T, Handler &gt;</text>
</a>
</g>
</g>
<!-- Node7&#45;&gt;Node15 -->
<g id="edge14" class="edge"><title>Node7&#45;&gt;Node15</title>
<path fill="none" stroke="midnightblue" d="M288.687,-180.371C290.521,-178.96 292.297,-177.503 294,-176 315.624,-156.911 307.006,-139.415 330,-122 334.63,-118.494 339.792,-115.488 345.177,-112.914"/>
<polygon fill="midnightblue" stroke="midnightblue" points="286.484,-177.642 280.325,-186.263 290.516,-183.364 286.484,-177.642"/>
</g>
<!-- Node16 -->
<g id="node16" class="node"><title>Node16</title>
<g id="a_node16"><a xlink:href="structfactory_1_1timer__pipeline.html" target="_top" xlink:title="factory::timer_pipeline\&lt; T \&gt;">
<polygon fill="white" stroke="black" points="336.5,-44.5 336.5,-63.5 473.5,-63.5 473.5,-44.5 336.5,-44.5"/>
<text text-anchor="middle" x="405" y="-51.5" font-family="Helvetica,sans-Serif" font-size="10.00">factory::timer_pipeline&lt; T &gt;</text>
</a>
</g>
</g>
<!-- Node7&#45;&gt;Node16 -->
<g id="edge15" class="edge"><title>Node7&#45;&gt;Node16</title>
<path fill="none" stroke="midnightblue" d="M288.418,-181.637C290.393,-179.852 292.263,-177.974 294,-176 326.038,-139.597 294.286,-105.804 330,-73 334.201,-69.1418 339.078,-66.0437 344.286,-63.5592"/>
<polygon fill="midnightblue" stroke="midnightblue" points="285.98,-179.104 280.343,-188.075 290.344,-184.578 285.98,-179.104"/>
</g>
<!-- Node9 -->
<g id="node9" class="node"><title>Node9</title>
<g id="a_node9"><a xlink:href="structfactory_1_1child__process__pipeline.html" target="_top" xlink:title="factory::child_process\l_pipeline\&lt; T, basic_router\l\&lt; T \&gt; \&gt;">
<polygon fill="white" stroke="black" points="516.5,-270.5 516.5,-311.5 645.5,-311.5 645.5,-270.5 516.5,-270.5"/>
<text text-anchor="start" x="524.5" y="-299.5" font-family="Helvetica,sans-Serif" font-size="10.00">factory::child_process</text>
<text text-anchor="start" x="524.5" y="-288.5" font-family="Helvetica,sans-Serif" font-size="10.00">_pipeline&lt; T, basic_router</text>
<text text-anchor="middle" x="581" y="-277.5" font-family="Helvetica,sans-Serif" font-size="10.00">&lt; T &gt; &gt;</text>
</a>
</g>
</g>
<!-- Node8&#45;&gt;Node9 -->
<g id="edge8" class="edge"><title>Node8&#45;&gt;Node9</title>
<path fill="none" stroke="midnightblue" d="M479.516,-283.493C491.796,-284.41 504.442,-285.355 516.445,-286.252"/>
<polygon fill="midnightblue" stroke="midnightblue" points="479.543,-279.985 469.31,-282.73 479.022,-286.965 479.543,-279.985"/>
</g>
<!-- Node11 -->
<g id="node11" class="node"><title>Node11</title>
<g id="a_node11"><a xlink:href="structfactory_1_1child__process__pipeline.html" target="_top" xlink:title="factory::child_process\l_pipeline\&lt; T, Router \&gt;">
<polygon fill="white" stroke="black" points="524,-222 524,-252 638,-252 638,-222 524,-222"/>
<text text-anchor="start" x="532" y="-240" font-family="Helvetica,sans-Serif" font-size="10.00">factory::child_process</text>
<text text-anchor="middle" x="581" y="-229" font-family="Helvetica,sans-Serif" font-size="10.00">_pipeline&lt; T, Router &gt;</text>
</a>
</g>
</g>
<!-- Node10&#45;&gt;Node11 -->
<g id="edge10" class="edge"><title>Node10&#45;&gt;Node11</title>
<path fill="none" stroke="midnightblue" d="M476.574,-222.14C492.301,-224.4 508.772,-226.766 523.828,-228.929"/>
<polygon fill="midnightblue" stroke="midnightblue" points="476.765,-218.631 466.368,-220.674 475.769,-225.56 476.765,-218.631"/>
</g>
<!-- Node12 -->
<g id="node12" class="node"><title>Node12</title>
<g id="a_node12"><a xlink:href="structfactory_1_1process__pipeline.html" target="_top" xlink:title="factory::process_pipeline\l\&lt; T, Router \&gt;">
<polygon fill="white" stroke="black" points="518.5,-173 518.5,-203 643.5,-203 643.5,-173 518.5,-173"/>
<text text-anchor="start" x="526.5" y="-191" font-family="Helvetica,sans-Serif" font-size="10.00">factory::process_pipeline</text>
<text text-anchor="middle" x="581" y="-180" font-family="Helvetica,sans-Serif" font-size="10.00">&lt; T, Router &gt;</text>
</a>
</g>
</g>
<!-- Node10&#45;&gt;Node12 -->
<g id="edge11" class="edge"><title>Node10&#45;&gt;Node12</title>
<path fill="none" stroke="midnightblue" d="M476.349,-202.297C490.228,-200.382 504.694,-198.387 518.263,-196.515"/>
<polygon fill="midnightblue" stroke="midnightblue" points="475.796,-198.84 466.368,-203.673 476.753,-205.774 475.796,-198.84"/>
</g>
<!-- Node14 -->
<g id="node14" class="node"><title>Node14</title>
<g id="a_node14"><a xlink:href="structfactory_1_1socket__pipeline.html" target="_top" xlink:title="factory::socket_pipeline\l\&lt; T, Socket, Router \&gt;">
<polygon fill="white" stroke="black" points="521,-124 521,-154 641,-154 641,-124 521,-124"/>
<text text-anchor="start" x="529" y="-142" font-family="Helvetica,sans-Serif" font-size="10.00">factory::socket_pipeline</text>
<text text-anchor="middle" x="581" y="-131" font-family="Helvetica,sans-Serif" font-size="10.00">&lt; T, Socket, Router &gt;</text>
</a>
</g>
</g>
<!-- Node13&#45;&gt;Node14 -->
<g id="edge13" class="edge"><title>Node13&#45;&gt;Node14</title>
<path fill="none" stroke="midnightblue" d="M490.301,-145.702C500.597,-144.932 510.943,-144.159 520.762,-143.426"/>
<polygon fill="midnightblue" stroke="midnightblue" points="489.755,-142.233 480.044,-146.468 490.277,-149.213 489.755,-142.233"/>
</g>
</g>
</svg>
