<?xml version="1.0" encoding="UTF-8" standalone="no"?>
<!DOCTYPE svg PUBLIC "-//W3C//DTD SVG 1.1//EN"
 "http://www.w3.org/Graphics/SVG/1.1/DTD/svg11.dtd">
<!-- Generated by graphviz version 2.36.0 (20140111.2315)
 -->
<!-- Title: Graphical Class Hierarchy Pages: 1 -->
<svg width="166pt" height="87pt"
 viewBox="0.00 0.00 166.00 87.00" xmlns="http://www.w3.org/2000/svg" xmlns:xlink="http://www.w3.org/1999/xlink">
<g id="graph0" class="graph" transform="scale(1 1) rotate(0) translate(4 83)">
<title>Graphical Class Hierarchy</title>
<polygon fill="white" stroke="none" points="-4,4 -4,-83 162,-83 162,4 -4,4"/>
<!-- Node1 -->
<g id="node1" class="node"><title>Node1</title>
<polygon fill="white" stroke="#bfbfbf" points="0.5,-29.5 0.5,-48.5 29.5,-48.5 29.5,-29.5 0.5,-29.5"/>
<text text-anchor="middle" x="15" y="-36.5" font-family="Helvetica,sans-Serif" font-size="10.00">R</text>
</g>
<!-- Node2 -->
<g id="node2" class="node"><title>Node2</title>
<g id="a_node2"><a xlink:href="structbsc_1_1bits_1_1forward__to__child.html" target="_top" xlink:title="bsc::bits::forward\l_to_child\&lt; R \&gt;">
<polygon fill="white" stroke="black" points="66,-49 66,-79 158,-79 158,-49 66,-49"/>
<text text-anchor="start" x="74" y="-67" font-family="Helvetica,sans-Serif" font-size="10.00">bsc::bits::forward</text>
<text text-anchor="middle" x="112" y="-56" font-family="Helvetica,sans-Serif" font-size="10.00">_to_child&lt; R &gt;</text>
</a>
</g>
</g>
<!-- Node1&#45;&gt;Node2 -->
<g id="edge1" class="edge"><title>Node1&#45;&gt;Node2</title>
<path fill="none" stroke="midnightblue" d="M39.5502,-45.1974C47.4767,-47.2834 56.6083,-49.6864 65.6368,-52.0623"/>
<polygon fill="midnightblue" stroke="midnightblue" points="40.1727,-41.7421 29.6112,-42.5819 38.3912,-48.5117 40.1727,-41.7421"/>
</g>
<!-- Node3 -->
<g id="node3" class="node"><title>Node3</title>
<g id="a_node3"><a xlink:href="structbsc_1_1bits_1_1forward__to__parent.html" target="_top" xlink:title="bsc::bits::forward\l_to_parent\&lt; R \&gt;">
<polygon fill="white" stroke="black" points="66,-0 66,-30 158,-30 158,-0 66,-0"/>
<text text-anchor="start" x="74" y="-18" font-family="Helvetica,sans-Serif" font-size="10.00">bsc::bits::forward</text>
<text text-anchor="middle" x="112" y="-7" font-family="Helvetica,sans-Serif" font-size="10.00">_to_parent&lt; R &gt;</text>
</a>
</g>
</g>
<!-- Node1&#45;&gt;Node3 -->
<g id="edge2" class="edge"><title>Node1&#45;&gt;Node3</title>
<path fill="none" stroke="midnightblue" d="M39.5502,-33.0505C47.4767,-31.048 56.6083,-28.7411 65.6368,-26.4602"/>
<polygon fill="midnightblue" stroke="midnightblue" points="38.4493,-29.7186 29.6112,-35.5614 40.1639,-36.5053 38.4493,-29.7186"/>
</g>
</g>
</svg>
