<?xml version="1.0" encoding="UTF-8" standalone="no"?>
<!DOCTYPE svg PUBLIC "-//W3C//DTD SVG 1.1//EN"
 "http://www.w3.org/Graphics/SVG/1.1/DTD/svg11.dtd">
<!-- Generated by graphviz version 2.36.0 (20140111.2315)
 -->
<!-- Title: Graphical Class Hierarchy Pages: 1 -->
<svg width="316pt" height="66pt"
 viewBox="0.00 0.00 316.00 66.00" xmlns="http://www.w3.org/2000/svg" xmlns:xlink="http://www.w3.org/1999/xlink">
<g id="graph0" class="graph" transform="scale(1 1) rotate(0) translate(4 62)">
<title>Graphical Class Hierarchy</title>
<polygon fill="white" stroke="none" points="-4,4 -4,-62 312,-62 312,4 -4,4"/>
<!-- Node1 -->
<g id="node1" class="node"><title>Node1</title>
<g id="a_node1"><a xlink:href="structsys_1_1path.html" target="_top" xlink:title="sys::path">
<polygon fill="white" stroke="black" points="102.5,-38.5 102.5,-57.5 159.5,-57.5 159.5,-38.5 102.5,-38.5"/>
<text text-anchor="middle" x="131" y="-45.5" font-family="Helvetica,sans-Serif" font-size="10.00">sys::path</text>
</a>
</g>
</g>
<!-- Node2 -->
<g id="node2" class="node"><title>Node2</title>
<g id="a_node2"><a xlink:href="structsys_1_1canonical__path.html" target="_top" xlink:title="sys::canonical_path">
<polygon fill="white" stroke="black" points="204,-38.5 204,-57.5 308,-57.5 308,-38.5 204,-38.5"/>
<text text-anchor="middle" x="256" y="-45.5" font-family="Helvetica,sans-Serif" font-size="10.00">sys::canonical_path</text>
</a>
</g>
</g>
<!-- Node1&#45;&gt;Node2 -->
<g id="edge1" class="edge"><title>Node1&#45;&gt;Node2</title>
<path fill="none" stroke="midnightblue" d="M169.872,-48C180.576,-48 192.405,-48 203.755,-48"/>
<polygon fill="midnightblue" stroke="midnightblue" points="169.604,-44.5001 159.604,-48 169.604,-51.5001 169.604,-44.5001"/>
</g>
<!-- Node3 -->
<g id="node3" class="node"><title>Node3</title>
<g id="a_node3"><a xlink:href="structsys_1_1file.html" target="_top" xlink:title="sys::file">
<polygon fill="white" stroke="black" points="230.5,-0.5 230.5,-19.5 281.5,-19.5 281.5,-0.5 230.5,-0.5"/>
<text text-anchor="middle" x="256" y="-7.5" font-family="Helvetica,sans-Serif" font-size="10.00">sys::file</text>
</a>
</g>
</g>
<!-- Node1&#45;&gt;Node3 -->
<g id="edge2" class="edge"><title>Node1&#45;&gt;Node3</title>
<path fill="none" stroke="midnightblue" d="M169.259,-36.4891C189.083,-30.3645 212.908,-23.0039 230.407,-17.5978"/>
<polygon fill="midnightblue" stroke="midnightblue" points="168.125,-33.1762 159.604,-39.4721 170.191,-39.8643 168.125,-33.1762"/>
</g>
<!-- Node4 -->
<g id="node4" class="node"><title>Node4</title>
<polygon fill="white" stroke="#bfbfbf" points="0.5,-0.5 0.5,-19.5 57.5,-19.5 57.5,-0.5 0.5,-0.5"/>
<text text-anchor="middle" x="29" y="-7.5" font-family="Helvetica,sans-Serif" font-size="10.00">stat_type</text>
</g>
<!-- Node5 -->
<g id="node5" class="node"><title>Node5</title>
<g id="a_node5"><a xlink:href="structsys_1_1file__stat.html" target="_top" xlink:title="sys::file_stat">
<polygon fill="white" stroke="black" points="94.5,-0.5 94.5,-19.5 167.5,-19.5 167.5,-0.5 94.5,-0.5"/>
<text text-anchor="middle" x="131" y="-7.5" font-family="Helvetica,sans-Serif" font-size="10.00">sys::file_stat</text>
</a>
</g>
</g>
<!-- Node4&#45;&gt;Node5 -->
<g id="edge3" class="edge"><title>Node4&#45;&gt;Node5</title>
<path fill="none" stroke="midnightblue" d="M67.8257,-10C76.4904,-10 85.6744,-10 94.2485,-10"/>
<polygon fill="midnightblue" stroke="midnightblue" points="67.5902,-6.5001 57.5902,-10 67.5901,-13.5001 67.5902,-6.5001"/>
</g>
<!-- Node5&#45;&gt;Node3 -->
<g id="edge4" class="edge"><title>Node5&#45;&gt;Node3</title>
<path fill="none" stroke="midnightblue" d="M177.812,-10C195.649,-10 215.374,-10 230.419,-10"/>
<polygon fill="midnightblue" stroke="midnightblue" points="177.577,-6.5001 167.577,-10 177.577,-13.5001 177.577,-6.5001"/>
</g>
</g>
</svg>
