<?xml version="1.0" encoding="UTF-8" standalone="no"?>
<!DOCTYPE svg PUBLIC "-//W3C//DTD SVG 1.1//EN"
 "http://www.w3.org/Graphics/SVG/1.1/DTD/svg11.dtd">
<!-- Generated by graphviz version 2.36.0 (20140111.2315)
 -->
<!-- Title: Graphical Class Hierarchy Pages: 1 -->
<svg width="414pt" height="481pt"
 viewBox="0.00 0.00 414.00 481.00" xmlns="http://www.w3.org/2000/svg" xmlns:xlink="http://www.w3.org/1999/xlink">
<g id="graph0" class="graph" transform="scale(1 1) rotate(0) translate(4 477)">
<title>Graphical Class Hierarchy</title>
<polygon fill="white" stroke="none" points="-4,4 -4,-477 410,-477 410,4 -4,4"/>
<!-- Node1 -->
<g id="node1" class="node"><title>Node1</title>
<polygon fill="white" stroke="#bfbfbf" points="0,-209.5 0,-228.5 44,-228.5 44,-209.5 0,-209.5"/>
<text text-anchor="middle" x="22" y="-216.5" font-family="Helvetica,sans-Serif" font-size="10.00">Kernel</text>
</g>
<!-- Node2 -->
<g id="node2" class="node"><title>Node2</title>
<g id="a_node2"><a xlink:href="classautoreg_1_1Velocity__potential.html" target="_top" xlink:title="autoreg::Velocity_potential\&lt; T \&gt;">
<polygon fill="white" stroke="black" points="80,-453.5 80,-472.5 236,-472.5 236,-453.5 80,-453.5"/>
<text text-anchor="middle" x="158" y="-460.5" font-family="Helvetica,sans-Serif" font-size="10.00">autoreg::Velocity_potential&lt; T &gt;</text>
</a>
</g>
</g>
<!-- Node1&#45;&gt;Node2 -->
<g id="edge1" class="edge"><title>Node1&#45;&gt;Node2</title>
<path fill="none" stroke="midnightblue" d="M25.4282,-238.636C31.8837,-287.707 50.9836,-413.84 80,-443 84.2865,-447.308 89.3742,-450.726 94.861,-453.432"/>
<polygon fill="midnightblue" stroke="midnightblue" points="28.8919,-238.129 24.1511,-228.654 21.9485,-239.017 28.8919,-238.129"/>
</g>
<!-- Node3 -->
<g id="node3" class="node"><title>Node3</title>
<g id="a_node3"><a xlink:href="structfactory_1_1api_1_1Map.html" target="_top" xlink:title="factory::api::Map\&lt;\l F, G, I \&gt;">
<polygon fill="white" stroke="black" points="110,-404 110,-434 206,-434 206,-404 110,-404"/>
<text text-anchor="start" x="118" y="-422" font-family="Helvetica,sans-Serif" font-size="10.00">factory::api::Map&lt;</text>
<text text-anchor="middle" x="158" y="-411" font-family="Helvetica,sans-Serif" font-size="10.00"> F, G, I &gt;</text>
</a>
</g>
</g>
<!-- Node1&#45;&gt;Node3 -->
<g id="edge2" class="edge"><title>Node1&#45;&gt;Node3</title>
<path fill="none" stroke="midnightblue" d="M23.8321,-239.117C26.4125,-275.164 36.9618,-351.002 80,-394 88.1533,-402.146 98.9836,-407.638 109.939,-411.341"/>
<polygon fill="midnightblue" stroke="midnightblue" points="27.3132,-238.686 23.2433,-228.904 20.3248,-239.089 27.3132,-238.686"/>
</g>
<!-- Node4 -->
<g id="node4" class="node"><title>Node4</title>
<g id="a_node4"><a xlink:href="structfactory_1_1api_1_1Map_1_1Worker.html" target="_top" xlink:title="factory::api::Map\&lt;\l F, G, I \&gt;::Worker">
<polygon fill="white" stroke="black" points="110,-355 110,-385 206,-385 206,-355 110,-355"/>
<text text-anchor="start" x="118" y="-373" font-family="Helvetica,sans-Serif" font-size="10.00">factory::api::Map&lt;</text>
<text text-anchor="middle" x="158" y="-362" font-family="Helvetica,sans-Serif" font-size="10.00"> F, G, I &gt;::Worker</text>
</a>
</g>
</g>
<!-- Node1&#45;&gt;Node4 -->
<g id="edge3" class="edge"><title>Node1&#45;&gt;Node4</title>
<path fill="none" stroke="midnightblue" d="M26.7366,-238.832C32.9648,-266.484 48.0777,-316.435 80,-345 88.3791,-352.498 99.0408,-357.751 109.74,-361.43"/>
<polygon fill="midnightblue" stroke="midnightblue" points="30.1103,-237.864 24.6475,-228.787 23.257,-239.29 30.1103,-237.864"/>
</g>
<!-- Node5 -->
<g id="node5" class="node"><title>Node5</title>
<g id="a_node5"><a xlink:href="classfactory_1_1api_1_1Notification.html" target="_top" xlink:title="factory::api::Notification">
<polygon fill="white" stroke="black" points="97.5,-316.5 97.5,-335.5 218.5,-335.5 218.5,-316.5 97.5,-316.5"/>
<text text-anchor="middle" x="158" y="-323.5" font-family="Helvetica,sans-Serif" font-size="10.00">factory::api::Notification</text>
</a>
</g>
</g>
<!-- Node1&#45;&gt;Node5 -->
<g id="edge4" class="edge"><title>Node1&#45;&gt;Node5</title>
<path fill="none" stroke="midnightblue" d="M30.4149,-237.815C39.243,-257.753 55.8887,-288.697 80,-306 86.0595,-310.348 92.9887,-313.752 100.151,-316.417"/>
<polygon fill="midnightblue" stroke="midnightblue" points="33.6115,-236.387 26.5128,-228.522 27.1574,-239.097 33.6115,-236.387"/>
</g>
<!-- Node6 -->
<g id="node6" class="node"><title>Node6</title>
<g id="a_node6"><a xlink:href="classfactory_1_1discovery__timer.html" target="_top" xlink:title="factory::discovery\l_timer">
<polygon fill="white" stroke="black" points="110.5,-267 110.5,-297 205.5,-297 205.5,-267 110.5,-267"/>
<text text-anchor="start" x="118.5" y="-285" font-family="Helvetica,sans-Serif" font-size="10.00">factory::discovery</text>
<text text-anchor="middle" x="158" y="-274" font-family="Helvetica,sans-Serif" font-size="10.00">_timer</text>
</a>
</g>
</g>
<!-- Node1&#45;&gt;Node6 -->
<g id="edge5" class="edge"><title>Node1&#45;&gt;Node6</title>
<path fill="none" stroke="midnightblue" d="M43.6228,-234.748C54.1052,-242.223 67.2887,-250.845 80,-257 89.4874,-261.594 100.025,-265.642 110.182,-269.07"/>
<polygon fill="midnightblue" stroke="midnightblue" points="45.6589,-231.901 35.5225,-228.818 41.5238,-237.549 45.6589,-231.901"/>
</g>
<!-- Node7 -->
<g id="node7" class="node"><title>Node7</title>
<g id="a_node7"><a xlink:href="classfactory_1_1network__master.html" target="_top" xlink:title="factory::network_master">
<polygon fill="white" stroke="black" points="97,-228.5 97,-247.5 219,-247.5 219,-228.5 97,-228.5"/>
<text text-anchor="middle" x="158" y="-235.5" font-family="Helvetica,sans-Serif" font-size="10.00">factory::network_master</text>
</a>
</g>
</g>
<!-- Node1&#45;&gt;Node7 -->
<g id="edge6" class="edge"><title>Node1&#45;&gt;Node7</title>
<path fill="none" stroke="midnightblue" d="M54.2755,-223.435C66.9848,-225.237 82.118,-227.382 96.8098,-229.466"/>
<polygon fill="midnightblue" stroke="midnightblue" points="54.6251,-219.949 44.2327,-222.011 53.6423,-226.88 54.6251,-219.949"/>
</g>
<!-- Node8 -->
<g id="node8" class="node"><title>Node8</title>
<g id="a_node8"><a xlink:href="classfactory_1_1network__timer.html" target="_top" xlink:title="factory::network_timer">
<polygon fill="white" stroke="black" points="101,-190.5 101,-209.5 215,-209.5 215,-190.5 101,-190.5"/>
<text text-anchor="middle" x="158" y="-197.5" font-family="Helvetica,sans-Serif" font-size="10.00">factory::network_timer</text>
</a>
</g>
</g>
<!-- Node1&#45;&gt;Node8 -->
<g id="edge7" class="edge"><title>Node1&#45;&gt;Node8</title>
<path fill="none" stroke="midnightblue" d="M54.2321,-214.572C68.1298,-212.601 84.9325,-210.219 100.889,-207.956"/>
<polygon fill="midnightblue" stroke="midnightblue" points="53.6423,-211.12 44.2327,-215.989 54.6251,-218.051 53.6423,-211.12"/>
</g>
<!-- Node9 -->
<g id="node9" class="node"><title>Node9</title>
<g id="a_node9"><a xlink:href="classfactory_1_1probe.html" target="_top" xlink:title="factory::probe">
<polygon fill="white" stroke="black" points="119.5,-152.5 119.5,-171.5 196.5,-171.5 196.5,-152.5 119.5,-152.5"/>
<text text-anchor="middle" x="158" y="-159.5" font-family="Helvetica,sans-Serif" font-size="10.00">factory::probe</text>
</a>
</g>
</g>
<!-- Node1&#45;&gt;Node9 -->
<g id="edge8" class="edge"><title>Node1&#45;&gt;Node9</title>
<path fill="none" stroke="midnightblue" d="M43.0283,-203.152C53.5291,-195.508 66.9053,-186.769 80,-181 92.3485,-175.56 106.527,-171.501 119.324,-168.562"/>
<polygon fill="midnightblue" stroke="midnightblue" points="40.8409,-200.418 34.9532,-209.226 45.0487,-206.012 40.8409,-200.418"/>
</g>
<!-- Node10 -->
<g id="node10" class="node"><title>Node10</title>
<g id="a_node10"><a xlink:href="classfactory_1_1prober.html" target="_top" xlink:title="factory::prober">
<polygon fill="white" stroke="black" points="118,-114.5 118,-133.5 198,-133.5 198,-114.5 118,-114.5"/>
<text text-anchor="middle" x="158" y="-121.5" font-family="Helvetica,sans-Serif" font-size="10.00">factory::prober</text>
</a>
</g>
</g>
<!-- Node1&#45;&gt;Node10 -->
<g id="edge9" class="edge"><title>Node1&#45;&gt;Node10</title>
<path fill="none" stroke="midnightblue" d="M32.2635,-200.157C41.8271,-182.688 58.3847,-157.304 80,-143 91.1379,-135.629 104.89,-131.116 117.677,-128.354"/>
<polygon fill="midnightblue" stroke="midnightblue" points="28.9726,-198.898 27.4554,-209.384 35.1803,-202.133 28.9726,-198.898"/>
</g>
<!-- Node11 -->
<g id="node11" class="node"><title>Node11</title>
<g id="a_node11"><a xlink:href="classfactory_1_1resident__kernel.html" target="_top" xlink:title="factory::resident_kernel">
<polygon fill="white" stroke="black" points="98.5,-76.5 98.5,-95.5 217.5,-95.5 217.5,-76.5 98.5,-76.5"/>
<text text-anchor="middle" x="158" y="-83.5" font-family="Helvetica,sans-Serif" font-size="10.00">factory::resident_kernel</text>
</a>
</g>
</g>
<!-- Node1&#45;&gt;Node11 -->
<g id="edge10" class="edge"><title>Node1&#45;&gt;Node11</title>
<path fill="none" stroke="midnightblue" d="M27.4146,-199.287C34.2098,-173.622 49.7415,-129.197 80,-105 85.3768,-100.7 91.5906,-97.3555 98.1093,-94.7565"/>
<polygon fill="midnightblue" stroke="midnightblue" points="23.9362,-198.775 24.9524,-209.321 30.7346,-200.444 23.9362,-198.775"/>
</g>
<!-- Node13 -->
<g id="node13" class="node"><title>Node13</title>
<g id="a_node13"><a xlink:href="structLauncher.html" target="_top" xlink:title="Launcher">
<polygon fill="white" stroke="black" points="130,-38.5 130,-57.5 186,-57.5 186,-38.5 130,-38.5"/>
<text text-anchor="middle" x="158" y="-45.5" font-family="Helvetica,sans-Serif" font-size="10.00">Launcher</text>
</a>
</g>
</g>
<!-- Node1&#45;&gt;Node13 -->
<g id="edge12" class="edge"><title>Node1&#45;&gt;Node13</title>
<path fill="none" stroke="midnightblue" d="M24.6107,-199.437C28.3636,-166.957 40.63,-102.019 80,-67 93.5802,-54.9206 113.628,-50.2466 129.863,-48.5527"/>
<polygon fill="midnightblue" stroke="midnightblue" points="21.1199,-199.171 23.6079,-209.47 28.0852,-199.867 21.1199,-199.171"/>
</g>
<!-- Node14 -->
<g id="node14" class="node"><title>Node14</title>
<g id="a_node14"><a xlink:href="structStation__kernel.html" target="_top" xlink:title="Station_kernel">
<polygon fill="white" stroke="black" points="118.5,-0.5 118.5,-19.5 197.5,-19.5 197.5,-0.5 118.5,-0.5"/>
<text text-anchor="middle" x="158" y="-7.5" font-family="Helvetica,sans-Serif" font-size="10.00">Station_kernel</text>
</a>
</g>
</g>
<!-- Node1&#45;&gt;Node14 -->
<g id="edge13" class="edge"><title>Node1&#45;&gt;Node14</title>
<path fill="none" stroke="midnightblue" d="M22.8952,-199.032C23.8284,-160.367 31.6178,-75.043 80,-29 90.2735,-19.2232 104.745,-14.2379 118.373,-11.7712"/>
<polygon fill="midnightblue" stroke="midnightblue" points="19.3913,-199.403 22.7883,-209.438 26.3909,-199.475 19.3913,-199.403"/>
</g>
<!-- Node12 -->
<g id="node12" class="node"><title>Node12</title>
<g id="a_node12"><a xlink:href="classfactory_1_1master__discoverer.html" target="_top" xlink:title="factory::master_discoverer">
<polygon fill="white" stroke="black" points="272.5,-76.5 272.5,-95.5 405.5,-95.5 405.5,-76.5 272.5,-76.5"/>
<text text-anchor="middle" x="339" y="-83.5" font-family="Helvetica,sans-Serif" font-size="10.00">factory::master_discoverer</text>
</a>
</g>
</g>
<!-- Node11&#45;&gt;Node12 -->
<g id="edge11" class="edge"><title>Node11&#45;&gt;Node12</title>
<path fill="none" stroke="midnightblue" d="M227.645,-86C242.353,-86 257.856,-86 272.443,-86"/>
<polygon fill="midnightblue" stroke="midnightblue" points="227.611,-82.5001 217.611,-86 227.611,-89.5001 227.611,-82.5001"/>
</g>
</g>
</svg>
