<?xml version="1.0" encoding="UTF-8" standalone="no"?>
<!DOCTYPE svg PUBLIC "-//W3C//DTD SVG 1.1//EN"
 "http://www.w3.org/Graphics/SVG/1.1/DTD/svg11.dtd">
<!-- Generated by graphviz version 2.36.0 (20140111.2315)
 -->
<!-- Title: Graphical Class Hierarchy Pages: 1 -->
<svg width="354pt" height="66pt"
 viewBox="0.00 0.00 354.00 66.00" xmlns="http://www.w3.org/2000/svg" xmlns:xlink="http://www.w3.org/1999/xlink">
<g id="graph0" class="graph" transform="scale(1 1) rotate(0) translate(4 62)">
<title>Graphical Class Hierarchy</title>
<polygon fill="white" stroke="none" points="-4,4 -4,-62 350,-62 350,4 -4,4"/>
<!-- Node1 -->
<g id="node1" class="node"><title>Node1</title>
<polygon fill="white" stroke="#bfbfbf" points="0,-19.5 0,-38.5 74,-38.5 74,-19.5 0,-19.5"/>
<text text-anchor="middle" x="37" y="-26.5" font-family="Helvetica,sans-Serif" font-size="10.00">runtime_error</text>
</g>
<!-- Node2 -->
<g id="node2" class="node"><title>Node2</title>
<g id="a_node2"><a xlink:href="classbsc_1_1error.html" target="_top" xlink:title="bsc::error">
<polygon fill="white" stroke="black" points="126,-38.5 126,-57.5 184,-57.5 184,-38.5 126,-38.5"/>
<text text-anchor="middle" x="155" y="-45.5" font-family="Helvetica,sans-Serif" font-size="10.00">bsc::error</text>
</a>
</g>
</g>
<!-- Node1&#45;&gt;Node2 -->
<g id="edge1" class="edge"><title>Node1&#45;&gt;Node2</title>
<path fill="none" stroke="midnightblue" d="M84.0823,-36.548C98.1421,-38.8509 113.178,-41.3137 125.69,-43.3631"/>
<polygon fill="midnightblue" stroke="midnightblue" points="84.5015,-33.0701 74.0673,-34.9076 83.37,-39.978 84.5015,-33.0701"/>
</g>
<!-- Node4 -->
<g id="node4" class="node"><title>Node4</title>
<g id="a_node4"><a xlink:href="classbsc_1_1kernel__error.html" target="_top" xlink:title="bsc::kernel_error">
<polygon fill="white" stroke="black" points="110.5,-0.5 110.5,-19.5 199.5,-19.5 199.5,-0.5 110.5,-0.5"/>
<text text-anchor="middle" x="155" y="-7.5" font-family="Helvetica,sans-Serif" font-size="10.00">bsc::kernel_error</text>
</a>
</g>
</g>
<!-- Node1&#45;&gt;Node4 -->
<g id="edge3" class="edge"><title>Node1&#45;&gt;Node4</title>
<path fill="none" stroke="midnightblue" d="M83.9873,-21.4676C92.6247,-20.0529 101.634,-18.5772 110.202,-17.1738"/>
<polygon fill="midnightblue" stroke="midnightblue" points="83.37,-18.022 74.0673,-23.0924 84.5015,-24.9299 83.37,-18.022"/>
</g>
<!-- Node3 -->
<g id="node3" class="node"><title>Node3</title>
<g id="a_node3"><a xlink:href="classbsc_1_1kenel__type__error.html" target="_top" xlink:title="bsc::kenel_type_error">
<polygon fill="white" stroke="black" points="236,-38.5 236,-57.5 346,-57.5 346,-38.5 236,-38.5"/>
<text text-anchor="middle" x="291" y="-45.5" font-family="Helvetica,sans-Serif" font-size="10.00">bsc::kenel_type_error</text>
</a>
</g>
</g>
<!-- Node2&#45;&gt;Node3 -->
<g id="edge2" class="edge"><title>Node2&#45;&gt;Node3</title>
<path fill="none" stroke="midnightblue" d="M194.095,-48C207.111,-48 221.929,-48 235.959,-48"/>
<polygon fill="midnightblue" stroke="midnightblue" points="194.091,-44.5001 184.091,-48 194.091,-51.5001 194.091,-44.5001"/>
</g>
</g>
</svg>
