<?xml version="1.0" encoding="UTF-8" standalone="no"?>
<!DOCTYPE svg PUBLIC "-//W3C//DTD SVG 1.1//EN"
 "http://www.w3.org/Graphics/SVG/1.1/DTD/svg11.dtd">
<!-- Generated by graphviz version 2.36.0 (20140111.2315)
 -->
<!-- Title: Graphical Class Hierarchy Pages: 1 -->
<svg width="194pt" height="66pt"
 viewBox="0.00 0.00 194.00 66.00" xmlns="http://www.w3.org/2000/svg" xmlns:xlink="http://www.w3.org/1999/xlink">
<g id="graph0" class="graph" transform="scale(1 1) rotate(0) translate(4 62)">
<title>Graphical Class Hierarchy</title>
<polygon fill="white" stroke="none" points="-4,4 -4,-62 190,-62 190,4 -4,4"/>
<!-- Node1 -->
<g id="node1" class="node"><title>Node1</title>
<polygon fill="white" stroke="#bfbfbf" points="0,-19.5 0,-38.5 52,-38.5 52,-19.5 0,-19.5"/>
<text text-anchor="middle" x="26" y="-26.5" font-family="Helvetica,sans-Serif" font-size="10.00">pstream</text>
</g>
<!-- Node2 -->
<g id="node2" class="node"><title>Node2</title>
<g id="a_node2"><a xlink:href="structbsc_1_1kstream.html" target="_top" xlink:title="bsc::kstream\&lt; T \&gt;">
<polygon fill="white" stroke="black" points="88,-38.5 88,-57.5 186,-57.5 186,-38.5 88,-38.5"/>
<text text-anchor="middle" x="137" y="-45.5" font-family="Helvetica,sans-Serif" font-size="10.00">bsc::kstream&lt; T &gt;</text>
</a>
</g>
</g>
<!-- Node1&#45;&gt;Node2 -->
<g id="edge1" class="edge"><title>Node1&#45;&gt;Node2</title>
<path fill="none" stroke="midnightblue" d="M62.0269,-35.1056C70.2813,-36.5444 79.2218,-38.1029 87.9394,-39.6225"/>
<polygon fill="midnightblue" stroke="midnightblue" points="62.4593,-31.6283 52.0068,-33.359 61.2572,-38.5243 62.4593,-31.6283"/>
</g>
<!-- Node3 -->
<g id="node3" class="node"><title>Node3</title>
<g id="a_node3"><a xlink:href="structbsc_1_1kstream.html" target="_top" xlink:title="bsc::kstream\&lt; K \&gt;">
<polygon fill="white" stroke="black" points="88,-0.5 88,-19.5 186,-19.5 186,-0.5 88,-0.5"/>
<text text-anchor="middle" x="137" y="-7.5" font-family="Helvetica,sans-Serif" font-size="10.00">bsc::kstream&lt; K &gt;</text>
</a>
</g>
</g>
<!-- Node1&#45;&gt;Node3 -->
<g id="edge2" class="edge"><title>Node1&#45;&gt;Node3</title>
<path fill="none" stroke="midnightblue" d="M62.0269,-22.8944C70.2813,-21.4556 79.2218,-19.8971 87.9394,-18.3775"/>
<polygon fill="midnightblue" stroke="midnightblue" points="61.2572,-19.4757 52.0068,-24.641 62.4593,-26.3717 61.2572,-19.4757"/>
</g>
</g>
</svg>
