<?xml version="1.0" encoding="UTF-8" standalone="no"?>
<!DOCTYPE svg PUBLIC "-//W3C//DTD SVG 1.1//EN"
 "http://www.w3.org/Graphics/SVG/1.1/DTD/svg11.dtd">
<!-- Generated by graphviz version 2.36.0 (20140111.2315)
 -->
<!-- Title: Graphical Class Hierarchy Pages: 1 -->
<svg width="200pt" height="136pt"
 viewBox="0.00 0.00 200.00 136.00" xmlns="http://www.w3.org/2000/svg" xmlns:xlink="http://www.w3.org/1999/xlink">
<g id="graph0" class="graph" transform="scale(1 1) rotate(0) translate(4 132)">
<title>Graphical Class Hierarchy</title>
<polygon fill="white" stroke="none" points="-4,4 -4,-132 196,-132 196,4 -4,4"/>
<!-- Node1 -->
<g id="node1" class="node"><title>Node1</title>
<polygon fill="white" stroke="#bfbfbf" points="0,-54.5 0,-73.5 46,-73.5 46,-54.5 0,-54.5"/>
<text text-anchor="middle" x="23" y="-61.5" font-family="Helvetica,sans-Serif" font-size="10.00">Router</text>
</g>
<!-- Node2 -->
<g id="node2" class="node"><title>Node2</title>
<g id="a_node2"><a xlink:href="structasc_1_1bits_1_1forward__to__child.html" target="_top" xlink:title="asc::bits::forward\l_to_child\&lt; Router \&gt;">
<polygon fill="white" stroke="black" points="85.5,-98 85.5,-128 188.5,-128 188.5,-98 85.5,-98"/>
<text text-anchor="start" x="93.5" y="-116" font-family="Helvetica,sans-Serif" font-size="10.00">asc::bits::forward</text>
<text text-anchor="middle" x="137" y="-105" font-family="Helvetica,sans-Serif" font-size="10.00">_to_child&lt; Router &gt;</text>
</a>
</g>
</g>
<!-- Node1&#45;&gt;Node2 -->
<g id="edge1" class="edge"><title>Node1&#45;&gt;Node2</title>
<path fill="none" stroke="midnightblue" d="M55.2968,-77.6924C69.6402,-83.9676 86.6878,-91.4259 101.411,-97.8672"/>
<polygon fill="midnightblue" stroke="midnightblue" points="56.4251,-74.3657 45.8606,-73.564 53.6193,-80.7788 56.4251,-74.3657"/>
</g>
<!-- Node3 -->
<g id="node3" class="node"><title>Node3</title>
<g id="a_node3"><a xlink:href="structasc_1_1bits_1_1forward__to__parent.html" target="_top" xlink:title="asc::bits::forward\l_to_parent\&lt; Router \&gt;">
<polygon fill="white" stroke="black" points="82,-49 82,-79 192,-79 192,-49 82,-49"/>
<text text-anchor="start" x="90" y="-67" font-family="Helvetica,sans-Serif" font-size="10.00">asc::bits::forward</text>
<text text-anchor="middle" x="137" y="-56" font-family="Helvetica,sans-Serif" font-size="10.00">_to_parent&lt; Router &gt;</text>
</a>
</g>
</g>
<!-- Node1&#45;&gt;Node3 -->
<g id="edge2" class="edge"><title>Node1&#45;&gt;Node3</title>
<path fill="none" stroke="midnightblue" d="M56.18,-64C64.2367,-64 73.1019,-64 81.9043,-64"/>
<polygon fill="midnightblue" stroke="midnightblue" points="56.1276,-60.5001 46.1276,-64 56.1276,-67.5001 56.1276,-60.5001"/>
</g>
<!-- Node4 -->
<g id="node4" class="node"><title>Node4</title>
<g id="a_node4"><a xlink:href="structasc_1_1bits_1_1no__forward.html" target="_top" xlink:title="asc::bits::no_forward\l\&lt; Router \&gt;">
<polygon fill="white" stroke="black" points="83,-0 83,-30 191,-30 191,-0 83,-0"/>
<text text-anchor="start" x="91" y="-18" font-family="Helvetica,sans-Serif" font-size="10.00">asc::bits::no_forward</text>
<text text-anchor="middle" x="137" y="-7" font-family="Helvetica,sans-Serif" font-size="10.00">&lt; Router &gt;</text>
</a>
</g>
</g>
<!-- Node1&#45;&gt;Node4 -->
<g id="edge3" class="edge"><title>Node1&#45;&gt;Node4</title>
<path fill="none" stroke="midnightblue" d="M55.2968,-50.3076C69.6402,-44.0324 86.6878,-36.5741 101.411,-30.1328"/>
<polygon fill="midnightblue" stroke="midnightblue" points="53.6193,-47.2212 45.8606,-54.436 56.4251,-53.6343 53.6193,-47.2212"/>
</g>
</g>
</svg>
