<?xml version="1.0" encoding="UTF-8" standalone="no"?>
<!DOCTYPE svg PUBLIC "-//W3C//DTD SVG 1.1//EN"
 "http://www.w3.org/Graphics/SVG/1.1/DTD/svg11.dtd">
<!-- Generated by graphviz version 2.36.0 (20140111.2315)
 -->
<!-- Title: Graphical Class Hierarchy Pages: 1 -->
<svg width="740pt" height="1075pt"
 viewBox="0.00 0.00 740.00 1075.00" xmlns="http://www.w3.org/2000/svg" xmlns:xlink="http://www.w3.org/1999/xlink">
<g id="graph0" class="graph" transform="scale(1 1) rotate(0) translate(4 1071)">
<title>Graphical Class Hierarchy</title>
<polygon fill="white" stroke="none" points="-4,4 -4,-1071 736,-1071 736,4 -4,4"/>
<!-- Node1 -->
<g id="node1" class="node"><title>Node1</title>
<g id="a_node1"><a xlink:href="structfactory_1_1Basic__kernel.html" target="_top" xlink:title="factory::Basic_kernel">
<polygon fill="white" stroke="black" points="3.5,-864.5 3.5,-883.5 112.5,-883.5 112.5,-864.5 3.5,-864.5"/>
<text text-anchor="middle" x="58" y="-871.5" font-family="Helvetica,sans-Serif" font-size="10.00">factory::Basic_kernel</text>
</a>
</g>
</g>
<!-- Node2 -->
<g id="node2" class="node"><title>Node2</title>
<g id="a_node2"><a xlink:href="structfactory_1_1Mobile__kernel.html" target="_top" xlink:title="factory::Mobile_kernel">
<polygon fill="white" stroke="black" points="152.5,-845.5 152.5,-864.5 265.5,-864.5 265.5,-845.5 152.5,-845.5"/>
<text text-anchor="middle" x="209" y="-852.5" font-family="Helvetica,sans-Serif" font-size="10.00">factory::Mobile_kernel</text>
</a>
</g>
</g>
<!-- Node1&#45;&gt;Node2 -->
<g id="edge1" class="edge"><title>Node1&#45;&gt;Node2</title>
<path fill="none" stroke="midnightblue" d="M122.87,-865.856C132.655,-864.608 142.689,-863.328 152.28,-862.105"/>
<polygon fill="midnightblue" stroke="midnightblue" points="122.269,-862.404 112.792,-867.141 123.155,-869.347 122.269,-862.404"/>
</g>
<!-- Node3 -->
<g id="node3" class="node"><title>Node3</title>
<g id="a_node3"><a xlink:href="structfactory_1_1Kernel.html" target="_top" xlink:title="factory::Kernel">
<polygon fill="white" stroke="black" points="302,-845.5 302,-864.5 382,-864.5 382,-845.5 302,-845.5"/>
<text text-anchor="middle" x="342" y="-852.5" font-family="Helvetica,sans-Serif" font-size="10.00">factory::Kernel</text>
</a>
</g>
</g>
<!-- Node2&#45;&gt;Node3 -->
<g id="edge2" class="edge"><title>Node2&#45;&gt;Node3</title>
<path fill="none" stroke="midnightblue" d="M275.579,-855C284.487,-855 293.392,-855 301.637,-855"/>
<polygon fill="midnightblue" stroke="midnightblue" points="275.556,-851.5 265.556,-855 275.556,-858.5 275.556,-851.5"/>
</g>
<!-- Node4 -->
<g id="node4" class="node"><title>Node4</title>
<g id="a_node4"><a xlink:href="structBig__kernel.html" target="_top" xlink:title="Big_kernel\&lt; Size \&gt;">
<polygon fill="white" stroke="black" points="446,-1047.5 446,-1066.5 546,-1066.5 546,-1047.5 446,-1047.5"/>
<text text-anchor="middle" x="496" y="-1054.5" font-family="Helvetica,sans-Serif" font-size="10.00">Big_kernel&lt; Size &gt;</text>
</a>
</g>
</g>
<!-- Node3&#45;&gt;Node4 -->
<g id="edge3" class="edge"><title>Node3&#45;&gt;Node4</title>
<path fill="none" stroke="midnightblue" d="M345.272,-874.91C350.672,-912.654 367.818,-994.703 418,-1038 425.819,-1044.75 435.665,-1049.17 445.68,-1052.05"/>
<polygon fill="midnightblue" stroke="midnightblue" points="348.707,-874.178 343.95,-864.711 341.765,-875.078 348.707,-874.178"/>
</g>
<!-- Node5 -->
<g id="node5" class="node"><title>Node5</title>
<g id="a_node5"><a xlink:href="structDummy__kernel.html" target="_top" xlink:title="Dummy_kernel">
<polygon fill="white" stroke="black" points="454.5,-1009.5 454.5,-1028.5 537.5,-1028.5 537.5,-1009.5 454.5,-1009.5"/>
<text text-anchor="middle" x="496" y="-1016.5" font-family="Helvetica,sans-Serif" font-size="10.00">Dummy_kernel</text>
</a>
</g>
</g>
<!-- Node3&#45;&gt;Node5 -->
<g id="edge4" class="edge"><title>Node3&#45;&gt;Node5</title>
<path fill="none" stroke="midnightblue" d="M347.463,-874.242C355.756,-905.564 376.591,-967.349 418,-1000 428.272,-1008.1 441.523,-1012.8 454.129,-1015.52"/>
<polygon fill="midnightblue" stroke="midnightblue" points="350.856,-873.387 345.039,-864.532 344.065,-875.082 350.856,-873.387"/>
</g>
<!-- Node6 -->
<g id="node6" class="node"><title>Node6</title>
<g id="a_node6"><a xlink:href="structfactory_1_1Map.html" target="_top" xlink:title="factory::Map\&lt; F, G, I \&gt;">
<polygon fill="white" stroke="black" points="437,-971.5 437,-990.5 555,-990.5 555,-971.5 437,-971.5"/>
<text text-anchor="middle" x="496" y="-978.5" font-family="Helvetica,sans-Serif" font-size="10.00">factory::Map&lt; F, G, I &gt;</text>
</a>
</g>
</g>
<!-- Node3&#45;&gt;Node6 -->
<g id="edge5" class="edge"><title>Node3&#45;&gt;Node6</title>
<path fill="none" stroke="midnightblue" d="M351.197,-873.745C362.644,-897.688 385.704,-938.688 418,-961 424.25,-965.318 431.368,-968.704 438.694,-971.358"/>
<polygon fill="midnightblue" stroke="midnightblue" points="354.365,-872.257 347.009,-864.632 348.005,-875.18 354.365,-872.257"/>
</g>
<!-- Node7 -->
<g id="node7" class="node"><title>Node7</title>
<g id="a_node7"><a xlink:href="structfactory_1_1Map_1_1Worker.html" target="_top" xlink:title="factory::Map\&lt; F, G,\l I \&gt;::Worker">
<polygon fill="white" stroke="black" points="444.5,-922 444.5,-952 547.5,-952 547.5,-922 444.5,-922"/>
<text text-anchor="start" x="452.5" y="-940" font-family="Helvetica,sans-Serif" font-size="10.00">factory::Map&lt; F, G,</text>
<text text-anchor="middle" x="496" y="-929" font-family="Helvetica,sans-Serif" font-size="10.00"> I &gt;::Worker</text>
</a>
</g>
</g>
<!-- Node3&#45;&gt;Node7 -->
<g id="edge6" class="edge"><title>Node3&#45;&gt;Node7</title>
<path fill="none" stroke="midnightblue" d="M361.086,-871.539C375.583,-884.077 396.921,-900.975 418,-912 426.22,-916.299 435.319,-920.043 444.299,-923.233"/>
<polygon fill="midnightblue" stroke="midnightblue" points="363.204,-868.74 353.394,-864.739 358.567,-873.985 363.204,-868.74"/>
</g>
<!-- Node8 -->
<g id="node8" class="node"><title>Node8</title>
<g id="a_node8"><a xlink:href="classfactory_1_1Notification.html" target="_top" xlink:title="factory::Notification">
<polygon fill="white" stroke="black" points="445,-883.5 445,-902.5 547,-902.5 547,-883.5 445,-883.5"/>
<text text-anchor="middle" x="496" y="-890.5" font-family="Helvetica,sans-Serif" font-size="10.00">factory::Notification</text>
</a>
</g>
</g>
<!-- Node3&#45;&gt;Node8 -->
<g id="edge7" class="edge"><title>Node3&#45;&gt;Node8</title>
<path fill="none" stroke="midnightblue" d="M390.186,-867.001C399.407,-869.333 409.005,-871.751 418,-874 430.423,-877.106 443.982,-880.463 456.211,-883.478"/>
<polygon fill="midnightblue" stroke="midnightblue" points="390.928,-863.579 380.374,-864.517 389.209,-870.364 390.928,-863.579"/>
</g>
<!-- Node9 -->
<g id="node9" class="node"><title>Node9</title>
<g id="a_node9"><a xlink:href="structGood__kernel.html" target="_top" xlink:title="Good_kernel">
<polygon fill="white" stroke="black" points="460.5,-845.5 460.5,-864.5 531.5,-864.5 531.5,-845.5 460.5,-845.5"/>
<text text-anchor="middle" x="496" y="-852.5" font-family="Helvetica,sans-Serif" font-size="10.00">Good_kernel</text>
</a>
</g>
</g>
<!-- Node3&#45;&gt;Node9 -->
<g id="edge8" class="edge"><title>Node3&#45;&gt;Node9</title>
<path fill="none" stroke="midnightblue" d="M392.398,-855C414.605,-855 440.28,-855 460.392,-855"/>
<polygon fill="midnightblue" stroke="midnightblue" points="392.144,-851.5 382.144,-855 392.144,-858.5 392.144,-851.5"/>
</g>
<!-- Node12 -->
<g id="node12" class="node"><title>Node12</title>
<g id="a_node12"><a xlink:href="structKernel__that__carries__its__parent.html" target="_top" xlink:title="Kernel_that_carries\l_its_parent">
<polygon fill="white" stroke="black" points="445.5,-796 445.5,-826 546.5,-826 546.5,-796 445.5,-796"/>
<text text-anchor="start" x="453.5" y="-814" font-family="Helvetica,sans-Serif" font-size="10.00">Kernel_that_carries</text>
<text text-anchor="middle" x="496" y="-803" font-family="Helvetica,sans-Serif" font-size="10.00">_its_parent</text>
</a>
</g>
</g>
<!-- Node3&#45;&gt;Node12 -->
<g id="edge11" class="edge"><title>Node3&#45;&gt;Node12</title>
<path fill="none" stroke="midnightblue" d="M385.629,-842.66C404.179,-837.29 426.04,-830.962 445.322,-825.381"/>
<polygon fill="midnightblue" stroke="midnightblue" points="384.614,-839.31 375.982,-845.453 386.561,-846.034 384.614,-839.31"/>
</g>
<!-- Node13 -->
<g id="node13" class="node"><title>Node13</title>
<g id="a_node13"><a xlink:href="structMain.html" target="_top" xlink:title="Main\&lt; Address \&gt;">
<polygon fill="white" stroke="black" points="450,-643.5 450,-662.5 542,-662.5 542,-643.5 450,-643.5"/>
<text text-anchor="middle" x="496" y="-650.5" font-family="Helvetica,sans-Serif" font-size="10.00">Main&lt; Address &gt;</text>
</a>
</g>
</g>
<!-- Node3&#45;&gt;Node13 -->
<g id="edge12" class="edge"><title>Node3&#45;&gt;Node13</title>
<path fill="none" stroke="midnightblue" d="M345.272,-835.09C350.672,-797.346 367.818,-715.297 418,-672 426.861,-664.354 438.327,-659.691 449.691,-656.873"/>
<polygon fill="midnightblue" stroke="midnightblue" points="341.765,-834.922 343.95,-845.289 348.707,-835.822 341.765,-834.922"/>
</g>
<!-- Node14 -->
<g id="node14" class="node"><title>Node14</title>
<g id="a_node14"><a xlink:href="structSender.html" target="_top" xlink:title="Sender">
<polygon fill="white" stroke="black" points="472.5,-757.5 472.5,-776.5 519.5,-776.5 519.5,-757.5 472.5,-757.5"/>
<text text-anchor="middle" x="496" y="-764.5" font-family="Helvetica,sans-Serif" font-size="10.00">Sender</text>
</a>
</g>
</g>
<!-- Node3&#45;&gt;Node14 -->
<g id="edge13" class="edge"><title>Node3&#45;&gt;Node14</title>
<path fill="none" stroke="midnightblue" d="M357.461,-837.389C371.369,-821.606 393.801,-798.996 418,-786 434.983,-776.88 456.419,-772.052 472.359,-769.55"/>
<polygon fill="midnightblue" stroke="midnightblue" points="354.492,-835.476 350.655,-845.351 359.813,-840.025 354.492,-835.476"/>
</g>
<!-- Node15 -->
<g id="node15" class="node"><title>Node15</title>
<g id="a_node15"><a xlink:href="structSleepy__kernel.html" target="_top" xlink:title="Sleepy_kernel">
<polygon fill="white" stroke="black" points="457,-719.5 457,-738.5 535,-738.5 535,-719.5 457,-719.5"/>
<text text-anchor="middle" x="496" y="-726.5" font-family="Helvetica,sans-Serif" font-size="10.00">Sleepy_kernel</text>
</a>
</g>
</g>
<!-- Node3&#45;&gt;Node15 -->
<g id="edge14" class="edge"><title>Node3&#45;&gt;Node15</title>
<path fill="none" stroke="midnightblue" d="M351.108,-836.018C362.458,-811.783 385.414,-770.326 418,-748 429.359,-740.218 443.593,-735.616 456.722,-732.898"/>
<polygon fill="midnightblue" stroke="midnightblue" points="347.869,-834.687 346.96,-845.243 354.253,-837.558 347.869,-834.687"/>
</g>
<!-- Node16 -->
<g id="node16" class="node"><title>Node16</title>
<g id="a_node16"><a xlink:href="structTest__socket.html" target="_top" xlink:title="Test_socket">
<polygon fill="white" stroke="black" points="460.5,-681.5 460.5,-700.5 531.5,-700.5 531.5,-681.5 460.5,-681.5"/>
<text text-anchor="middle" x="496" y="-688.5" font-family="Helvetica,sans-Serif" font-size="10.00">Test_socket</text>
</a>
</g>
</g>
<!-- Node3&#45;&gt;Node16 -->
<g id="edge15" class="edge"><title>Node3&#45;&gt;Node16</title>
<path fill="none" stroke="midnightblue" d="M347.463,-835.758C355.756,-804.436 376.591,-742.651 418,-710 430.002,-700.537 446.072,-695.708 460.426,-693.274"/>
<polygon fill="midnightblue" stroke="midnightblue" points="344.065,-834.918 345.039,-845.468 350.856,-836.613 344.065,-834.918"/>
</g>
<!-- Node10 -->
<g id="node10" class="node"><title>Node10</title>
<g id="a_node10"><a xlink:href="structKernel__that__reads__more__than__writes.html" target="_top" xlink:title="Kernel_that_reads_more\l_than_writes">
<polygon fill="white" stroke="black" points="610,-865 610,-895 732,-895 732,-865 610,-865"/>
<text text-anchor="start" x="618" y="-883" font-family="Helvetica,sans-Serif" font-size="10.00">Kernel_that_reads_more</text>
<text text-anchor="middle" x="671" y="-872" font-family="Helvetica,sans-Serif" font-size="10.00">_than_writes</text>
</a>
</g>
</g>
<!-- Node9&#45;&gt;Node10 -->
<g id="edge9" class="edge"><title>Node9&#45;&gt;Node10</title>
<path fill="none" stroke="midnightblue" d="M541.727,-861.463C562.499,-864.465 587.502,-868.078 609.894,-871.314"/>
<polygon fill="midnightblue" stroke="midnightblue" points="541.991,-857.965 531.593,-859.999 540.99,-864.893 541.991,-857.965"/>
</g>
<!-- Node11 -->
<g id="node11" class="node"><title>Node11</title>
<g id="a_node11"><a xlink:href="structKernel__that__writes__more__than__reads.html" target="_top" xlink:title="Kernel_that_writes\l_more_than_reads">
<polygon fill="white" stroke="black" points="622,-816 622,-846 720,-846 720,-816 622,-816"/>
<text text-anchor="start" x="630" y="-834" font-family="Helvetica,sans-Serif" font-size="10.00">Kernel_that_writes</text>
<text text-anchor="middle" x="671" y="-823" font-family="Helvetica,sans-Serif" font-size="10.00">_more_than_reads</text>
</a>
</g>
</g>
<!-- Node9&#45;&gt;Node11 -->
<g id="edge10" class="edge"><title>Node9&#45;&gt;Node11</title>
<path fill="none" stroke="midnightblue" d="M541.708,-848.798C566.228,-845.396 596.645,-841.176 621.707,-837.7"/>
<polygon fill="midnightblue" stroke="midnightblue" points="541.018,-845.36 531.593,-850.201 541.979,-852.294 541.018,-845.36"/>
</g>
<!-- Node17 -->
<g id="node17" class="node"><title>Node17</title>
<polygon fill="white" stroke="#bfbfbf" points="320,-304.5 320,-323.5 364,-323.5 364,-304.5 320,-304.5"/>
<text text-anchor="middle" x="342" y="-311.5" font-family="Helvetica,sans-Serif" font-size="10.00">Kernel</text>
</g>
<!-- Node17&#45;&gt;Node13 -->
<g id="edge26" class="edge"><title>Node17&#45;&gt;Node13</title>
<path fill="none" stroke="midnightblue" d="M344.956,-333.772C351.574,-396.684 375.141,-590.637 418,-634 426.421,-642.52 438.011,-647.443 449.644,-650.231"/>
<polygon fill="midnightblue" stroke="midnightblue" points="348.417,-333.207 343.917,-323.616 341.453,-333.92 348.417,-333.207"/>
</g>
<!-- Node18 -->
<g id="node18" class="node"><title>Node18</title>
<g id="a_node18"><a xlink:href="structautoreg_1_1ACF__generator.html" target="_top" xlink:title="autoreg::ACF_generator\&lt; T \&gt;">
<polygon fill="white" stroke="black" points="423.5,-605.5 423.5,-624.5 568.5,-624.5 568.5,-605.5 423.5,-605.5"/>
<text text-anchor="middle" x="496" y="-612.5" font-family="Helvetica,sans-Serif" font-size="10.00">autoreg::ACF_generator&lt; T &gt;</text>
</a>
</g>
</g>
<!-- Node17&#45;&gt;Node18 -->
<g id="edge16" class="edge"><title>Node17&#45;&gt;Node18</title>
<path fill="none" stroke="midnightblue" d="M345.61,-333.657C353.66,-391.36 379.88,-558.561 418,-596 421.929,-599.859 426.511,-602.976 431.444,-605.489"/>
<polygon fill="midnightblue" stroke="midnightblue" points="349.064,-333.082 344.244,-323.647 342.128,-334.029 349.064,-333.082"/>
</g>
<!-- Node19 -->
<g id="node19" class="node"><title>Node19</title>
<g id="a_node19"><a xlink:href="structautoreg_1_1Autoreg__coefs.html" target="_top" xlink:title="autoreg::Autoreg_coefs\&lt; T \&gt;">
<polygon fill="white" stroke="black" points="425,-567.5 425,-586.5 567,-586.5 567,-567.5 425,-567.5"/>
<text text-anchor="middle" x="496" y="-574.5" font-family="Helvetica,sans-Serif" font-size="10.00">autoreg::Autoreg_coefs&lt; T &gt;</text>
</a>
</g>
</g>
<!-- Node17&#45;&gt;Node19 -->
<g id="edge17" class="edge"><title>Node17&#45;&gt;Node19</title>
<path fill="none" stroke="midnightblue" d="M342.921,-333.857C343.868,-380.264 352.978,-496.539 418,-558 422.003,-561.783 426.634,-564.848 431.601,-567.327"/>
<polygon fill="midnightblue" stroke="midnightblue" points="346.419,-333.607 342.827,-323.64 339.419,-333.671 346.419,-333.607"/>
</g>
<!-- Node20 -->
<g id="node20" class="node"><title>Node20</title>
<g id="a_node20"><a xlink:href="classautoreg_1_1Autoreg__model.html" target="_top" xlink:title="autoreg::Autoreg_model\&lt; T \&gt;">
<polygon fill="white" stroke="black" points="424,-529.5 424,-548.5 568,-548.5 568,-529.5 424,-529.5"/>
<text text-anchor="middle" x="496" y="-536.5" font-family="Helvetica,sans-Serif" font-size="10.00">autoreg::Autoreg_model&lt; T &gt;</text>
</a>
</g>
</g>
<!-- Node17&#45;&gt;Node20 -->
<g id="edge18" class="edge"><title>Node17&#45;&gt;Node20</title>
<path fill="none" stroke="midnightblue" d="M344.334,-333.948C348.178,-374.93 362.855,-468.941 418,-519 422.806,-523.363 428.443,-526.798 434.444,-529.499"/>
<polygon fill="midnightblue" stroke="midnightblue" points="347.814,-333.559 343.513,-323.876 340.837,-334.128 347.814,-333.559"/>
</g>
<!-- Node21 -->
<g id="node21" class="node"><title>Node21</title>
<g id="a_node21"><a xlink:href="structautoreg_1_1Generator1.html" target="_top" xlink:title="autoreg::Generator1\l\&lt; T, Grid \&gt;">
<polygon fill="white" stroke="black" points="444.5,-480 444.5,-510 547.5,-510 547.5,-480 444.5,-480"/>
<text text-anchor="start" x="452.5" y="-498" font-family="Helvetica,sans-Serif" font-size="10.00">autoreg::Generator1</text>
<text text-anchor="middle" x="496" y="-487" font-family="Helvetica,sans-Serif" font-size="10.00">&lt; T, Grid &gt;</text>
</a>
</g>
</g>
<!-- Node17&#45;&gt;Node21 -->
<g id="edge19" class="edge"><title>Node17&#45;&gt;Node21</title>
<path fill="none" stroke="midnightblue" d="M347.089,-333.422C355.004,-366.277 375.514,-432.865 418,-470 425.514,-476.567 434.782,-481.415 444.255,-484.991"/>
<polygon fill="midnightblue" stroke="midnightblue" points="350.501,-332.642 344.874,-323.664 343.674,-334.191 350.501,-332.642"/>
</g>
<!-- Node22 -->
<g id="node22" class="node"><title>Node22</title>
<g id="a_node22"><a xlink:href="structautoreg_1_1Solve__Yule__Walker.html" target="_top" xlink:title="autoreg::Solve_Yule\l_Walker\&lt; T \&gt;">
<polygon fill="white" stroke="black" points="444,-431 444,-461 548,-461 548,-431 444,-431"/>
<text text-anchor="start" x="452" y="-449" font-family="Helvetica,sans-Serif" font-size="10.00">autoreg::Solve_Yule</text>
<text text-anchor="middle" x="496" y="-438" font-family="Helvetica,sans-Serif" font-size="10.00">_Walker&lt; T &gt;</text>
</a>
</g>
</g>
<!-- Node17&#45;&gt;Node22 -->
<g id="edge20" class="edge"><title>Node17&#45;&gt;Node22</title>
<path fill="none" stroke="midnightblue" d="M351.361,-332.627C362.986,-356.476 386.239,-397.515 418,-421 425.685,-426.682 434.72,-431.11 443.846,-434.548"/>
<polygon fill="midnightblue" stroke="midnightblue" points="354.521,-331.122 347.1,-323.56 348.186,-334.099 354.521,-331.122"/>
</g>
<!-- Node23 -->
<g id="node23" class="node"><title>Node23</title>
<g id="a_node23"><a xlink:href="classautoreg_1_1Velocity__potential.html" target="_top" xlink:title="autoreg::Velocity_potential\&lt; T \&gt;">
<polygon fill="white" stroke="black" points="418,-392.5 418,-411.5 574,-411.5 574,-392.5 418,-392.5"/>
<text text-anchor="middle" x="496" y="-399.5" font-family="Helvetica,sans-Serif" font-size="10.00">autoreg::Velocity_potential&lt; T &gt;</text>
</a>
</g>
</g>
<!-- Node17&#45;&gt;Node23 -->
<g id="edge21" class="edge"><title>Node17&#45;&gt;Node23</title>
<path fill="none" stroke="midnightblue" d="M358.009,-331.788C372.009,-347.265 394.254,-369.172 418,-382 426.02,-386.333 435.023,-389.761 443.969,-392.462"/>
<polygon fill="midnightblue" stroke="midnightblue" points="360.352,-329.152 351.122,-323.95 355.093,-333.772 360.352,-329.152"/>
</g>
<!-- Node24 -->
<g id="node24" class="node"><title>Node24</title>
<g id="a_node24"><a xlink:href="structautoreg_1_1Wave__surface__generator.html" target="_top" xlink:title="autoreg::Wave_surface\l_generator\&lt; T, Grid \&gt;">
<polygon fill="white" stroke="black" points="437,-343 437,-373 555,-373 555,-343 437,-343"/>
<text text-anchor="start" x="445" y="-361" font-family="Helvetica,sans-Serif" font-size="10.00">autoreg::Wave_surface</text>
<text text-anchor="middle" x="496" y="-350" font-family="Helvetica,sans-Serif" font-size="10.00">_generator&lt; T, Grid &gt;</text>
</a>
</g>
</g>
<!-- Node17&#45;&gt;Node24 -->
<g id="edge22" class="edge"><title>Node17&#45;&gt;Node24</title>
<path fill="none" stroke="midnightblue" d="M373.869,-322.936C393.701,-328.677 419.963,-336.279 442.963,-342.937"/>
<polygon fill="midnightblue" stroke="midnightblue" points="374.714,-319.537 364.135,-320.118 372.767,-326.261 374.714,-319.537"/>
</g>
<!-- Node25 -->
<g id="node25" class="node"><title>Node25</title>
<g id="a_node25"><a xlink:href="structAutoreg__app.html" target="_top" xlink:title="Autoreg_app">
<polygon fill="white" stroke="black" points="460.5,-304.5 460.5,-323.5 531.5,-323.5 531.5,-304.5 460.5,-304.5"/>
<text text-anchor="middle" x="496" y="-311.5" font-family="Helvetica,sans-Serif" font-size="10.00">Autoreg_app</text>
</a>
</g>
</g>
<!-- Node17&#45;&gt;Node25 -->
<g id="edge23" class="edge"><title>Node17&#45;&gt;Node25</title>
<path fill="none" stroke="midnightblue" d="M374.196,-314C399.246,-314 434.396,-314 460.325,-314"/>
<polygon fill="midnightblue" stroke="midnightblue" points="374.135,-310.5 364.135,-314 374.135,-317.5 374.135,-310.5"/>
</g>
<!-- Node26 -->
<g id="node26" class="node"><title>Node26</title>
<g id="a_node26"><a xlink:href="structDelayed__shutdown.html" target="_top" xlink:title="Delayed_shutdown\&lt; Address \&gt;">
<polygon fill="white" stroke="black" points="419,-266.5 419,-285.5 573,-285.5 573,-266.5 419,-266.5"/>
<text text-anchor="middle" x="496" y="-273.5" font-family="Helvetica,sans-Serif" font-size="10.00">Delayed_shutdown&lt; Address &gt;</text>
</a>
</g>
</g>
<!-- Node17&#45;&gt;Node26 -->
<g id="edge24" class="edge"><title>Node17&#45;&gt;Node26</title>
<path fill="none" stroke="midnightblue" d="M373.8,-306.152C387.352,-302.71 403.462,-298.635 418,-295 430.423,-291.894 443.982,-288.537 456.211,-285.522"/>
<polygon fill="midnightblue" stroke="midnightblue" points="372.834,-302.786 364.005,-308.642 374.559,-309.57 372.834,-302.786"/>
</g>
<!-- Node27 -->
<g id="node27" class="node"><title>Node27</title>
<g id="a_node27"><a xlink:href="structLauncher.html" target="_top" xlink:title="Launcher">
<polygon fill="white" stroke="black" points="468,-228.5 468,-247.5 524,-247.5 524,-228.5 468,-228.5"/>
<text text-anchor="middle" x="496" y="-235.5" font-family="Helvetica,sans-Serif" font-size="10.00">Launcher</text>
</a>
</g>
</g>
<!-- Node17&#45;&gt;Node27 -->
<g id="edge25" class="edge"><title>Node17&#45;&gt;Node27</title>
<path fill="none" stroke="midnightblue" d="M360.378,-297.471C374.763,-284.653 396.291,-267.377 418,-257 433.653,-249.518 452.55,-244.798 467.707,-241.934"/>
<polygon fill="midnightblue" stroke="midnightblue" points="357.802,-295.084 352.787,-304.417 362.527,-300.248 357.802,-295.084"/>
</g>
<!-- Node28 -->
<g id="node28" class="node"><title>Node28</title>
<g id="a_node28"><a xlink:href="structPing.html" target="_top" xlink:title="Ping">
<polygon fill="white" stroke="black" points="478,-190.5 478,-209.5 514,-209.5 514,-190.5 478,-190.5"/>
<text text-anchor="middle" x="496" y="-197.5" font-family="Helvetica,sans-Serif" font-size="10.00">Ping</text>
</a>
</g>
</g>
<!-- Node17&#45;&gt;Node28 -->
<g id="edge27" class="edge"><title>Node17&#45;&gt;Node28</title>
<path fill="none" stroke="midnightblue" d="M352.544,-295.577C364.757,-273.876 387.973,-238.34 418,-219 436.29,-207.22 461.334,-202.743 477.828,-201.042"/>
<polygon fill="midnightblue" stroke="midnightblue" points="349.414,-294.007 347.722,-304.466 355.567,-297.345 349.414,-294.007"/>
</g>
<!-- Node29 -->
<g id="node29" class="node"><title>Node29</title>
<g id="a_node29"><a xlink:href="structPing__pong.html" target="_top" xlink:title="Ping_pong">
<polygon fill="white" stroke="black" points="465,-152.5 465,-171.5 527,-171.5 527,-152.5 465,-152.5"/>
<text text-anchor="middle" x="496" y="-159.5" font-family="Helvetica,sans-Serif" font-size="10.00">Ping_pong</text>
</a>
</g>
</g>
<!-- Node17&#45;&gt;Node29 -->
<g id="edge28" class="edge"><title>Node17&#45;&gt;Node29</title>
<path fill="none" stroke="midnightblue" d="M348.581,-294.293C357.935,-264.96 379.629,-210.148 418,-181 431.377,-170.839 449.491,-166.048 464.79,-163.815"/>
<polygon fill="midnightblue" stroke="midnightblue" points="345.136,-293.596 345.592,-304.181 351.836,-295.622 345.136,-293.596"/>
</g>
<!-- Node30 -->
<g id="node30" class="node"><title>Node30</title>
<g id="a_node30"><a xlink:href="structSpec__app.html" target="_top" xlink:title="Spec_app">
<polygon fill="white" stroke="black" points="466,-114.5 466,-133.5 526,-133.5 526,-114.5 466,-114.5"/>
<text text-anchor="middle" x="496" y="-121.5" font-family="Helvetica,sans-Serif" font-size="10.00">Spec_app</text>
</a>
</g>
</g>
<!-- Node17&#45;&gt;Node30 -->
<g id="edge29" class="edge"><title>Node17&#45;&gt;Node30</title>
<path fill="none" stroke="midnightblue" d="M345.949,-293.896C352.313,-257.958 370.781,-182.747 418,-143 431.273,-131.828 450.133,-127.05 465.866,-125.079"/>
<polygon fill="midnightblue" stroke="midnightblue" points="342.442,-293.657 344.287,-304.09 349.351,-294.783 342.442,-293.657"/>
</g>
<!-- Node31 -->
<g id="node31" class="node"><title>Node31</title>
<g id="a_node31"><a xlink:href="structSpectrum__kernel.html" target="_top" xlink:title="Spectrum_kernel">
<polygon fill="white" stroke="black" points="451,-76.5 451,-95.5 541,-95.5 541,-76.5 451,-76.5"/>
<text text-anchor="middle" x="496" y="-83.5" font-family="Helvetica,sans-Serif" font-size="10.00">Spectrum_kernel</text>
</a>
</g>
</g>
<!-- Node17&#45;&gt;Node31 -->
<g id="edge30" class="edge"><title>Node17&#45;&gt;Node31</title>
<path fill="none" stroke="midnightblue" d="M344.107,-294.197C347.535,-252.644 361.491,-155.989 418,-105 426.996,-96.8829 438.906,-92.1011 450.663,-89.3209"/>
<polygon fill="midnightblue" stroke="midnightblue" points="340.602,-294.152 343.393,-304.373 347.585,-294.642 340.602,-294.152"/>
</g>
<!-- Node32 -->
<g id="node32" class="node"><title>Node32</title>
<g id="a_node32"><a xlink:href="structStation__kernel.html" target="_top" xlink:title="Station_kernel">
<polygon fill="white" stroke="black" points="456.5,-38.5 456.5,-57.5 535.5,-57.5 535.5,-38.5 456.5,-38.5"/>
<text text-anchor="middle" x="496" y="-45.5" font-family="Helvetica,sans-Serif" font-size="10.00">Station_kernel</text>
</a>
</g>
</g>
<!-- Node17&#45;&gt;Node32 -->
<g id="edge31" class="edge"><title>Node17&#45;&gt;Node32</title>
<path fill="none" stroke="midnightblue" d="M342.832,-294.226C343.564,-247.479 352.204,-129.406 418,-67 428.29,-57.2404 442.764,-52.2584 456.391,-49.7896"/>
<polygon fill="midnightblue" stroke="midnightblue" points="339.331,-294.481 342.786,-304.497 346.331,-294.512 339.331,-294.481"/>
</g>
<!-- Node33 -->
<g id="node33" class="node"><title>Node33</title>
<g id="a_node33"><a xlink:href="structYear__kernel.html" target="_top" xlink:title="Year_kernel">
<polygon fill="white" stroke="black" points="462,-0.5 462,-19.5 530,-19.5 530,-0.5 462,-0.5"/>
<text text-anchor="middle" x="496" y="-7.5" font-family="Helvetica,sans-Serif" font-size="10.00">Year_kernel</text>
</a>
</g>
</g>
<!-- Node17&#45;&gt;Node33 -->
<g id="edge32" class="edge"><title>Node17&#45;&gt;Node33</title>
<path fill="none" stroke="midnightblue" d="M345.579,-294.136C353.544,-235.825 379.551,-66.8617 418,-29 429.479,-17.6968 446.549,-12.7567 461.702,-10.7245"/>
<polygon fill="midnightblue" stroke="midnightblue" points="342.083,-293.876 344.229,-304.251 349.022,-294.803 342.083,-293.876"/>
</g>
<!-- Node34 -->
<g id="node34" class="node"><title>Node34</title>
<g id="a_node34"><a xlink:href="structfactory_1_1Kernel__header.html" target="_top" xlink:title="factory::Kernel_header">
<polygon fill="white" stroke="black" points="0.5,-826.5 0.5,-845.5 115.5,-845.5 115.5,-826.5 0.5,-826.5"/>
<text text-anchor="middle" x="58" y="-833.5" font-family="Helvetica,sans-Serif" font-size="10.00">factory::Kernel_header</text>
</a>
</g>
</g>
<!-- Node34&#45;&gt;Node2 -->
<g id="edge33" class="edge"><title>Node34&#45;&gt;Node2</title>
<path fill="none" stroke="midnightblue" d="M125.724,-844.508C134.634,-845.645 143.694,-846.8 152.387,-847.908"/>
<polygon fill="midnightblue" stroke="midnightblue" points="126.118,-841.03 115.756,-843.237 125.232,-847.974 126.118,-841.03"/>
</g>
</g>
</svg>
