<?xml version="1.0" encoding="UTF-8" standalone="no"?>
<!DOCTYPE svg PUBLIC "-//W3C//DTD SVG 1.1//EN"
 "http://www.w3.org/Graphics/SVG/1.1/DTD/svg11.dtd">
<!-- Generated by graphviz version 2.38.0 (20140413.2041)
 -->
<!-- Title: Graphical Class Hierarchy Pages: 1 -->
<svg width="204pt" height="137pt"
 viewBox="0.00 0.00 204.00 137.00" xmlns="http://www.w3.org/2000/svg" xmlns:xlink="http://www.w3.org/1999/xlink">
<g id="graph0" class="graph" transform="scale(1 1) rotate(0) translate(4 133)">
<title>Graphical Class Hierarchy</title>
<polygon fill="white" stroke="none" points="-4,4 -4,-133 200,-133 200,4 -4,4"/>
<!-- Node1 -->
<g id="node1" class="node"><title>Node1</title>
<polygon fill="white" stroke="#bfbfbf" points="0,-55 0,-74 39,-74 39,-55 0,-55"/>
<text text-anchor="middle" x="19.5" y="-62" font-family="Helvetica,sans-Serif" font-size="10.00">Base</text>
</g>
<!-- Node2 -->
<g id="node2" class="node"><title>Node2</title>
<g id="a_node2"><a xlink:href="structdiscovery_1_1Hierarchy__with__graph.html" target="_top" xlink:title="discovery::Hierarchy\l_with_graph\&lt; Base \&gt;">
<polygon fill="white" stroke="black" points="80.5,-98.5 80.5,-128.5 190.5,-128.5 190.5,-98.5 80.5,-98.5"/>
<text text-anchor="start" x="88.5" y="-116.5" font-family="Helvetica,sans-Serif" font-size="10.00">discovery::Hierarchy</text>
<text text-anchor="middle" x="135.5" y="-105.5" font-family="Helvetica,sans-Serif" font-size="10.00">_with_graph&lt; Base &gt;</text>
</a>
</g>
</g>
<!-- Node1&#45;&gt;Node2 -->
<g id="edge1" class="edge"><title>Node1&#45;&gt;Node2</title>
<path fill="none" stroke="midnightblue" d="M48.2405,-77.5279C56.7855,-81.4591 66.2476,-85.7298 75,-89.5 81.854,-92.4524 89.1959,-95.5034 96.3008,-98.399"/>
<polygon fill="midnightblue" stroke="midnightblue" points="49.6142,-74.307 39.0694,-73.2786 46.6713,-80.6584 49.6142,-74.307"/>
</g>
<!-- Node3 -->
<g id="node3" class="node"><title>Node3</title>
<g id="a_node3"><a xlink:href="structfactory_1_1basic__kernelbuf.html" target="_top" xlink:title="factory::basic_kernelbuf\l\&lt; Base \&gt;">
<polygon fill="white" stroke="black" points="75,-49.5 75,-79.5 196,-79.5 196,-49.5 75,-49.5"/>
<text text-anchor="start" x="83" y="-67.5" font-family="Helvetica,sans-Serif" font-size="10.00">factory::basic_kernelbuf</text>
<text text-anchor="middle" x="135.5" y="-56.5" font-family="Helvetica,sans-Serif" font-size="10.00">&lt; Base &gt;</text>
</a>
</g>
</g>
<!-- Node1&#45;&gt;Node3 -->
<g id="edge2" class="edge"><title>Node1&#45;&gt;Node3</title>
<path fill="none" stroke="midnightblue" d="M49.3212,-64.5C57.0716,-64.5 65.7507,-64.5 74.524,-64.5"/>
<polygon fill="midnightblue" stroke="midnightblue" points="49.0698,-61.0001 39.0698,-64.5 49.0698,-68.0001 49.0698,-61.0001"/>
</g>
<!-- Node4 -->
<g id="node4" class="node"><title>Node4</title>
<g id="a_node4"><a xlink:href="structfactory_1_1Priority__kernel.html" target="_top" xlink:title="factory::Priority_kernel\l\&lt; Base \&gt;">
<polygon fill="white" stroke="black" points="78,-0.5 78,-30.5 193,-30.5 193,-0.5 78,-0.5"/>
<text text-anchor="start" x="86" y="-18.5" font-family="Helvetica,sans-Serif" font-size="10.00">factory::Priority_kernel</text>
<text text-anchor="middle" x="135.5" y="-7.5" font-family="Helvetica,sans-Serif" font-size="10.00">&lt; Base &gt;</text>
</a>
</g>
</g>
<!-- Node1&#45;&gt;Node4 -->
<g id="edge3" class="edge"><title>Node1&#45;&gt;Node4</title>
<path fill="none" stroke="midnightblue" d="M48.3126,-52.1432C56.8603,-48.3749 66.3058,-44.2405 75,-40.5 82.5135,-37.2675 90.5802,-33.8456 98.2736,-30.6053"/>
<polygon fill="midnightblue" stroke="midnightblue" points="46.8626,-48.9573 39.1313,-56.2015 49.6927,-55.3597 46.8626,-48.9573"/>
</g>
</g>
</svg>
