<?xml version="1.0" encoding="UTF-8" standalone="no"?>
<!DOCTYPE svg PUBLIC "-//W3C//DTD SVG 1.1//EN"
 "http://www.w3.org/Graphics/SVG/1.1/DTD/svg11.dtd">
<!-- Generated by graphviz version 2.36.0 (20140111.2315)
 -->
<!-- Title: Graphical Class Hierarchy Pages: 1 -->
<svg width="240pt" height="224pt"
 viewBox="0.00 0.00 240.00 224.00" xmlns="http://www.w3.org/2000/svg" xmlns:xlink="http://www.w3.org/1999/xlink">
<g id="graph0" class="graph" transform="scale(1 1) rotate(0) translate(4 220)">
<title>Graphical Class Hierarchy</title>
<polygon fill="white" stroke="none" points="-4,4 -4,-220 236,-220 236,4 -4,4"/>
<!-- Node1 -->
<g id="node1" class="node"><title>Node1</title>
<polygon fill="white" stroke="#bfbfbf" points="0.5,-82.5 0.5,-101.5 79.5,-101.5 79.5,-82.5 0.5,-82.5"/>
<text text-anchor="middle" x="40" y="-89.5" font-family="Helvetica,sans-Serif" font-size="10.00">Priority_kernel</text>
</g>
<!-- Node2 -->
<g id="node2" class="node"><title>Node2</title>
<g id="a_node2"><a xlink:href="structMaster__discoverer.html" target="_top" xlink:title="Master_discoverer\&lt;\l Address, Hierarchy,\l Distance \&gt;">
<polygon fill="white" stroke="black" points="120.5,-174.5 120.5,-215.5 227.5,-215.5 227.5,-174.5 120.5,-174.5"/>
<text text-anchor="start" x="128.5" y="-203.5" font-family="Helvetica,sans-Serif" font-size="10.00">Master_discoverer&lt;</text>
<text text-anchor="start" x="128.5" y="-192.5" font-family="Helvetica,sans-Serif" font-size="10.00"> Address, Hierarchy,</text>
<text text-anchor="middle" x="174" y="-181.5" font-family="Helvetica,sans-Serif" font-size="10.00"> Distance &gt;</text>
</a>
</g>
</g>
<!-- Node1&#45;&gt;Node2 -->
<g id="edge1" class="edge"><title>Node1&#45;&gt;Node2</title>
<path fill="none" stroke="midnightblue" d="M56.1741,-109.398C70.5294,-125.183 93.2148,-148.45 116,-165 120.524,-168.286 125.455,-171.433 130.462,-174.369"/>
<polygon fill="midnightblue" stroke="midnightblue" points="58.7449,-107.023 49.4702,-101.901 53.5267,-111.688 58.7449,-107.023"/>
</g>
<!-- Node3 -->
<g id="node3" class="node"><title>Node3</title>
<g id="a_node3"><a xlink:href="structMaster__negotiator.html" target="_top" xlink:title="Master_negotiator\&lt;\l Address \&gt;">
<polygon fill="white" stroke="black" points="123.5,-126 123.5,-156 224.5,-156 224.5,-126 123.5,-126"/>
<text text-anchor="start" x="131.5" y="-144" font-family="Helvetica,sans-Serif" font-size="10.00">Master_negotiator&lt;</text>
<text text-anchor="middle" x="174" y="-133" font-family="Helvetica,sans-Serif" font-size="10.00"> Address &gt;</text>
</a>
</g>
</g>
<!-- Node1&#45;&gt;Node3 -->
<g id="edge2" class="edge"><title>Node1&#45;&gt;Node3</title>
<path fill="none" stroke="midnightblue" d="M76.4716,-105.167C93.7447,-111.579 114.596,-119.32 132.492,-125.963"/>
<polygon fill="midnightblue" stroke="midnightblue" points="77.3573,-101.763 66.7643,-101.564 74.9212,-108.325 77.3573,-101.763"/>
</g>
<!-- Node4 -->
<g id="node4" class="node"><title>Node4</title>
<g id="a_node4"><a xlink:href="structMaster__negotiator.html" target="_top" xlink:title="Master_negotiator\&lt;\l addr_type \&gt;">
<polygon fill="white" stroke="black" points="123.5,-77 123.5,-107 224.5,-107 224.5,-77 123.5,-77"/>
<text text-anchor="start" x="131.5" y="-95" font-family="Helvetica,sans-Serif" font-size="10.00">Master_negotiator&lt;</text>
<text text-anchor="middle" x="174" y="-84" font-family="Helvetica,sans-Serif" font-size="10.00"> addr_type &gt;</text>
</a>
</g>
</g>
<!-- Node1&#45;&gt;Node4 -->
<g id="edge3" class="edge"><title>Node1&#45;&gt;Node4</title>
<path fill="none" stroke="midnightblue" d="M89.7815,-92C100.731,-92 112.361,-92 123.346,-92"/>
<polygon fill="midnightblue" stroke="midnightblue" points="89.5347,-88.5001 79.5347,-92 89.5347,-95.5001 89.5347,-88.5001"/>
</g>
<!-- Node5 -->
<g id="node5" class="node"><title>Node5</title>
<g id="a_node5"><a xlink:href="structNegotiator.html" target="_top" xlink:title="Negotiator\&lt; Address \&gt;">
<polygon fill="white" stroke="black" points="116,-38.5 116,-57.5 232,-57.5 232,-38.5 116,-38.5"/>
<text text-anchor="middle" x="174" y="-45.5" font-family="Helvetica,sans-Serif" font-size="10.00">Negotiator&lt; Address &gt;</text>
</a>
</g>
</g>
<!-- Node1&#45;&gt;Node5 -->
<g id="edge4" class="edge"><title>Node1&#45;&gt;Node5</title>
<path fill="none" stroke="midnightblue" d="M79.1494,-79.2835C99.9673,-72.3442 125.312,-63.8959 144.414,-57.5287"/>
<polygon fill="midnightblue" stroke="midnightblue" points="78.0221,-75.9699 69.642,-82.4527 80.2357,-82.6107 78.0221,-75.9699"/>
</g>
<!-- Node6 -->
<g id="node6" class="node"><title>Node6</title>
<g id="a_node6"><a xlink:href="structSecret__agent.html" target="_top" xlink:title="Secret_agent">
<polygon fill="white" stroke="black" points="137,-0.5 137,-19.5 211,-19.5 211,-0.5 137,-0.5"/>
<text text-anchor="middle" x="174" y="-7.5" font-family="Helvetica,sans-Serif" font-size="10.00">Secret_agent</text>
</a>
</g>
</g>
<!-- Node1&#45;&gt;Node6 -->
<g id="edge5" class="edge"><title>Node1&#45;&gt;Node6</title>
<path fill="none" stroke="midnightblue" d="M57.4247,-75.0007C71.7627,-60.9938 93.7132,-41.4723 116,-29 122.645,-25.2813 130.135,-22.1385 137.448,-19.5454"/>
<polygon fill="midnightblue" stroke="midnightblue" points="54.8859,-72.5897 50.2885,-82.1351 59.8351,-77.5401 54.8859,-72.5897"/>
</g>
</g>
</svg>
