<?xml version="1.0" encoding="UTF-8" standalone="no"?>
<!DOCTYPE svg PUBLIC "-//W3C//DTD SVG 1.1//EN"
 "http://www.w3.org/Graphics/SVG/1.1/DTD/svg11.dtd">
<!-- Generated by graphviz version 2.38.0 (20140413.2041)
 -->
<!-- Title: Graphical Class Hierarchy Pages: 1 -->
<svg width="643pt" height="683pt"
 viewBox="0.00 0.00 643.00 682.50" xmlns="http://www.w3.org/2000/svg" xmlns:xlink="http://www.w3.org/1999/xlink">
<g id="graph0" class="graph" transform="scale(1 1) rotate(0) translate(4 678.5)">
<title>Graphical Class Hierarchy</title>
<polygon fill="white" stroke="none" points="-4,4 -4,-678.5 639,-678.5 639,4 -4,4"/>
<!-- Node1 -->
<g id="node1" class="node"><title>Node1</title>
<g id="a_node1"><a xlink:href="structtest_1_1Basic__test.html" target="_top" xlink:title="test::Basic_test">
<polygon fill="white" stroke="black" points="0,-341 0,-360 86,-360 86,-341 0,-341"/>
<text text-anchor="middle" x="43" y="-348" font-family="Helvetica,sans-Serif" font-size="10.00">test::Basic_test</text>
</a>
</g>
</g>
<!-- Node2 -->
<g id="node2" class="node"><title>Node2</title>
<g id="a_node2"><a xlink:href="structtest_1_1Test.html" target="_top" xlink:title="test::Test\&lt; X \&gt;">
<polygon fill="white" stroke="black" points="155,-655 155,-674 238,-674 238,-655 155,-655"/>
<text text-anchor="middle" x="196.5" y="-662" font-family="Helvetica,sans-Serif" font-size="10.00">test::Test&lt; X &gt;</text>
</a>
</g>
</g>
<!-- Node1&#45;&gt;Node2 -->
<g id="edge1" class="edge"><title>Node1&#45;&gt;Node2</title>
<path fill="none" stroke="midnightblue" d="M46.6098,-370.268C54.861,-429.835 82.2125,-605.932 122,-645.5 130.691,-654.143 142.768,-659.014 154.623,-661.713"/>
<polygon fill="midnightblue" stroke="midnightblue" points="50.0662,-369.71 45.2542,-360.271 43.1297,-370.65 50.0662,-369.71"/>
</g>
<!-- Node3 -->
<g id="node3" class="node"><title>Node3</title>
<g id="a_node3"><a xlink:href="structtest_1_1Test.html" target="_top" xlink:title="test::Test\&lt; Test_buffer\l\&lt; T, B \&gt; \&gt;">
<polygon fill="white" stroke="black" points="138,-605.5 138,-635.5 255,-635.5 255,-605.5 138,-605.5"/>
<text text-anchor="start" x="146" y="-623.5" font-family="Helvetica,sans-Serif" font-size="10.00">test::Test&lt; Test_buffer</text>
<text text-anchor="middle" x="196.5" y="-612.5" font-family="Helvetica,sans-Serif" font-size="10.00">&lt; T, B &gt; &gt;</text>
</a>
</g>
</g>
<!-- Node1&#45;&gt;Node3 -->
<g id="edge2" class="edge"><title>Node1&#45;&gt;Node3</title>
<path fill="none" stroke="midnightblue" d="M44.4453,-370.215C46.5661,-416.348 58.3136,-532.265 122,-596.5 126.537,-601.076 131.956,-604.779 137.767,-607.777"/>
<polygon fill="midnightblue" stroke="midnightblue" points="47.9377,-369.935 44.0878,-360.064 40.942,-370.181 47.9377,-369.935"/>
</g>
<!-- Node6 -->
<g id="node6" class="node"><title>Node6</title>
<g id="a_node6"><a xlink:href="structtest_1_1Test.html" target="_top" xlink:title="test::Test\&lt; Test_fildesbuf\l\&lt; T, Fd \&gt; \&gt;">
<polygon fill="white" stroke="black" points="132,-556.5 132,-586.5 261,-586.5 261,-556.5 132,-556.5"/>
<text text-anchor="start" x="140" y="-574.5" font-family="Helvetica,sans-Serif" font-size="10.00">test::Test&lt; Test_fildesbuf</text>
<text text-anchor="middle" x="196.5" y="-563.5" font-family="Helvetica,sans-Serif" font-size="10.00">&lt; T, Fd &gt; &gt;</text>
</a>
</g>
</g>
<!-- Node1&#45;&gt;Node6 -->
<g id="edge5" class="edge"><title>Node1&#45;&gt;Node6</title>
<path fill="none" stroke="midnightblue" d="M46.3779,-370.339C52.1154,-409.537 70.2935,-497.36 122,-546.5 126.103,-550.4 130.839,-553.693 135.888,-556.473"/>
<polygon fill="midnightblue" stroke="midnightblue" points="49.8212,-369.682 45.0221,-360.236 42.8833,-370.613 49.8212,-369.682"/>
</g>
<!-- Node8 -->
<g id="node8" class="node"><title>Node8</title>
<g id="a_node8"><a xlink:href="structtest_1_1Test.html" target="_top" xlink:title="test::Test\&lt; Test_kernel\l_stream\&lt; Carrier, Parent \&gt; \&gt;">
<polygon fill="white" stroke="black" points="125,-507.5 125,-537.5 268,-537.5 268,-507.5 125,-507.5"/>
<text text-anchor="start" x="133" y="-525.5" font-family="Helvetica,sans-Serif" font-size="10.00">test::Test&lt; Test_kernel</text>
<text text-anchor="middle" x="196.5" y="-514.5" font-family="Helvetica,sans-Serif" font-size="10.00">_stream&lt; Carrier, Parent &gt; &gt;</text>
</a>
</g>
</g>
<!-- Node1&#45;&gt;Node8 -->
<g id="edge7" class="edge"><title>Node1&#45;&gt;Node8</title>
<path fill="none" stroke="midnightblue" d="M49.2554,-370.068C58.6531,-401.399 81.2704,-462.816 122,-497.5 126.515,-501.345 131.649,-504.607 137.057,-507.372"/>
<polygon fill="midnightblue" stroke="midnightblue" points="52.5869,-368.987 46.4746,-360.333 45.8561,-370.91 52.5869,-368.987"/>
</g>
<!-- Node10 -->
<g id="node10" class="node"><title>Node10</title>
<g id="a_node10"><a xlink:href="structtest_1_1Test.html" target="_top" xlink:title="test::Test\&lt; Test_missing\l_values \&gt;">
<polygon fill="white" stroke="black" points="133.5,-458.5 133.5,-488.5 259.5,-488.5 259.5,-458.5 133.5,-458.5"/>
<text text-anchor="start" x="141.5" y="-476.5" font-family="Helvetica,sans-Serif" font-size="10.00">test::Test&lt; Test_missing</text>
<text text-anchor="middle" x="196.5" y="-465.5" font-family="Helvetica,sans-Serif" font-size="10.00">_values &gt;</text>
</a>
</g>
</g>
<!-- Node1&#45;&gt;Node10 -->
<g id="edge9" class="edge"><title>Node1&#45;&gt;Node10</title>
<path fill="none" stroke="midnightblue" d="M54.09,-368.762C67.0804,-390.677 91.6378,-427.134 122,-448.5 127.401,-452.301 133.427,-455.562 139.642,-458.352"/>
<polygon fill="midnightblue" stroke="midnightblue" points="57.1198,-367.01 49.1016,-360.084 51.051,-370.498 57.1198,-367.01"/>
</g>
<!-- Node12 -->
<g id="node12" class="node"><title>Node12</title>
<g id="a_node12"><a xlink:href="structtest_1_1Test.html" target="_top" xlink:title="test::Test\&lt; Test_mutex\l\&lt; Mutex \&gt; \&gt;">
<polygon fill="white" stroke="black" points="137,-409.5 137,-439.5 256,-439.5 256,-409.5 137,-409.5"/>
<text text-anchor="start" x="145" y="-427.5" font-family="Helvetica,sans-Serif" font-size="10.00">test::Test&lt; Test_mutex</text>
<text text-anchor="middle" x="196.5" y="-416.5" font-family="Helvetica,sans-Serif" font-size="10.00">&lt; Mutex &gt; &gt;</text>
</a>
</g>
</g>
<!-- Node1&#45;&gt;Node12 -->
<g id="edge11" class="edge"><title>Node1&#45;&gt;Node12</title>
<path fill="none" stroke="midnightblue" d="M65.4857,-365.914C80.7309,-376.365 101.964,-389.96 122,-399.5 129.545,-403.092 137.746,-406.411 145.844,-409.378"/>
<polygon fill="midnightblue" stroke="midnightblue" points="67.4612,-363.025 57.2558,-360.179 63.4589,-368.768 67.4612,-363.025"/>
</g>
<!-- Node15 -->
<g id="node15" class="node"><title>Node15</title>
<g id="a_node15"><a xlink:href="structtest_1_1Test.html" target="_top" xlink:title="test::Test\&lt; Test_network\l\&lt; Addr \&gt; \&gt;">
<polygon fill="white" stroke="black" points="133,-360.5 133,-390.5 260,-390.5 260,-360.5 133,-360.5"/>
<text text-anchor="start" x="141" y="-378.5" font-family="Helvetica,sans-Serif" font-size="10.00">test::Test&lt; Test_network</text>
<text text-anchor="middle" x="196.5" y="-367.5" font-family="Helvetica,sans-Serif" font-size="10.00">&lt; Addr &gt; &gt;</text>
</a>
</g>
</g>
<!-- Node1&#45;&gt;Node15 -->
<g id="edge14" class="edge"><title>Node1&#45;&gt;Node15</title>
<path fill="none" stroke="midnightblue" d="M96.3017,-359.131C108.078,-361.074 120.694,-363.156 132.845,-365.161"/>
<polygon fill="midnightblue" stroke="midnightblue" points="96.6376,-355.639 86.2012,-357.464 95.4979,-362.545 96.6376,-355.639"/>
</g>
<!-- Node17 -->
<g id="node17" class="node"><title>Node17</title>
<g id="a_node17"><a xlink:href="structtest_1_1Test.html" target="_top" xlink:title="test::Test\&lt; Test_packetbuf\l\&lt; T, Fd \&gt; \&gt;">
<polygon fill="white" stroke="black" points="129,-311.5 129,-341.5 264,-341.5 264,-311.5 129,-311.5"/>
<text text-anchor="start" x="137" y="-329.5" font-family="Helvetica,sans-Serif" font-size="10.00">test::Test&lt; Test_packetbuf</text>
<text text-anchor="middle" x="196.5" y="-318.5" font-family="Helvetica,sans-Serif" font-size="10.00">&lt; T, Fd &gt; &gt;</text>
</a>
</g>
</g>
<!-- Node1&#45;&gt;Node17 -->
<g id="edge16" class="edge"><title>Node1&#45;&gt;Node17</title>
<path fill="none" stroke="midnightblue" d="M96.4033,-342.198C106.858,-340.542 117.971,-338.782 128.831,-337.061"/>
<polygon fill="midnightblue" stroke="midnightblue" points="95.5304,-338.793 86.2012,-343.815 96.6257,-345.707 95.5304,-338.793"/>
</g>
<!-- Node19 -->
<g id="node19" class="node"><title>Node19</title>
<g id="a_node19"><a xlink:href="structtest_1_1Test.html" target="_top" xlink:title="test::Test\&lt; test_packetstream\l\&lt; T, Fd \&gt; \&gt;">
<polygon fill="white" stroke="black" points="122,-262.5 122,-292.5 271,-292.5 271,-262.5 122,-262.5"/>
<text text-anchor="start" x="130" y="-280.5" font-family="Helvetica,sans-Serif" font-size="10.00">test::Test&lt; test_packetstream</text>
<text text-anchor="middle" x="196.5" y="-269.5" font-family="Helvetica,sans-Serif" font-size="10.00">&lt; T, Fd &gt; &gt;</text>
</a>
</g>
</g>
<!-- Node1&#45;&gt;Node19 -->
<g id="edge18" class="edge"><title>Node1&#45;&gt;Node19</title>
<path fill="none" stroke="midnightblue" d="M65.1747,-335.198C80.422,-324.687 101.785,-310.974 122,-301.5 128.928,-298.253 136.415,-295.262 143.868,-292.574"/>
<polygon fill="midnightblue" stroke="midnightblue" points="63.136,-332.352 56.9588,-340.96 67.1556,-338.083 63.136,-332.352"/>
</g>
<!-- Node21 -->
<g id="node21" class="node"><title>Node21</title>
<g id="a_node21"><a xlink:href="structtest_1_1Test.html" target="_top" xlink:title="test::Test\&lt; Test_semaphore\l\&lt; Mutex, Semaphore, I \&gt; \&gt;">
<polygon fill="white" stroke="black" points="126.5,-213.5 126.5,-243.5 266.5,-243.5 266.5,-213.5 126.5,-213.5"/>
<text text-anchor="start" x="134.5" y="-231.5" font-family="Helvetica,sans-Serif" font-size="10.00">test::Test&lt; Test_semaphore</text>
<text text-anchor="middle" x="196.5" y="-220.5" font-family="Helvetica,sans-Serif" font-size="10.00">&lt; Mutex, Semaphore, I &gt; &gt;</text>
</a>
</g>
</g>
<!-- Node1&#45;&gt;Node21 -->
<g id="edge20" class="edge"><title>Node1&#45;&gt;Node21</title>
<path fill="none" stroke="midnightblue" d="M54.0467,-332.176C66.9936,-310.199 91.5075,-273.68 122,-252.5 126.961,-249.054 132.449,-246.078 138.126,-243.513"/>
<polygon fill="midnightblue" stroke="midnightblue" points="50.9957,-330.461 49.077,-340.88 57.0747,-333.931 50.9957,-330.461"/>
</g>
<!-- Node24 -->
<g id="node24" class="node"><title>Node24</title>
<g id="a_node24"><a xlink:href="structtest_1_1Test.html" target="_top" xlink:title="test::Test\&lt; Test_shmem\l\&lt; T \&gt; \&gt;">
<polygon fill="white" stroke="black" points="134,-164.5 134,-194.5 259,-194.5 259,-164.5 134,-164.5"/>
<text text-anchor="start" x="142" y="-182.5" font-family="Helvetica,sans-Serif" font-size="10.00">test::Test&lt; Test_shmem</text>
<text text-anchor="middle" x="196.5" y="-171.5" font-family="Helvetica,sans-Serif" font-size="10.00">&lt; T &gt; &gt;</text>
</a>
</g>
</g>
<!-- Node1&#45;&gt;Node24 -->
<g id="edge23" class="edge"><title>Node1&#45;&gt;Node24</title>
<path fill="none" stroke="midnightblue" d="M49.2068,-330.875C58.5361,-299.463 81.0588,-237.934 122,-203.5 126.109,-200.044 130.729,-197.082 135.599,-194.544"/>
<polygon fill="midnightblue" stroke="midnightblue" points="45.7998,-330.061 46.4486,-340.636 52.536,-331.964 45.7998,-330.061"/>
</g>
<!-- Node26 -->
<g id="node26" class="node"><title>Node26</title>
<g id="a_node26"><a xlink:href="structtest_1_1Test.html" target="_top" xlink:title="test::Test\&lt; Test_suite \&gt;">
<polygon fill="white" stroke="black" points="135.5,-126 135.5,-145 257.5,-145 257.5,-126 135.5,-126"/>
<text text-anchor="middle" x="196.5" y="-133" font-family="Helvetica,sans-Serif" font-size="10.00">test::Test&lt; Test_suite &gt;</text>
</a>
</g>
</g>
<!-- Node1&#45;&gt;Node26 -->
<g id="edge25" class="edge"><title>Node1&#45;&gt;Node26</title>
<path fill="none" stroke="midnightblue" d="M46.0352,-330.579C51.1789,-290.903 68.3752,-201.771 122,-154.5 126.35,-150.665 131.376,-147.587 136.717,-145.12"/>
<polygon fill="midnightblue" stroke="midnightblue" points="42.5499,-330.25 44.8621,-340.589 49.5023,-331.064 42.5499,-330.25"/>
</g>
<!-- Node28 -->
<g id="node28" class="node"><title>Node28</title>
<g id="a_node28"><a xlink:href="structtest_1_1Test.html" target="_top" xlink:title="test::Test\&lt; Test_synthetic \&gt;">
<polygon fill="white" stroke="black" points="126,-88 126,-107 267,-107 267,-88 126,-88"/>
<text text-anchor="middle" x="196.5" y="-95" font-family="Helvetica,sans-Serif" font-size="10.00">test::Test&lt; Test_synthetic &gt;</text>
</a>
</g>
</g>
<!-- Node1&#45;&gt;Node28 -->
<g id="edge27" class="edge"><title>Node1&#45;&gt;Node28</title>
<path fill="none" stroke="midnightblue" d="M44.5573,-330.564C46.9352,-285.488 59.2233,-175.101 122,-116.5 126.143,-112.633 130.968,-109.529 136.128,-107.04"/>
<polygon fill="midnightblue" stroke="midnightblue" points="41.0514,-330.638 44.1348,-340.774 48.0454,-330.927 41.0514,-330.638"/>
</g>
<!-- Node30 -->
<g id="node30" class="node"><title>Node30</title>
<g id="a_node30"><a xlink:href="structtest_1_1Test.html" target="_top" xlink:title="test::Test\&lt; Testname \&gt;">
<polygon fill="white" stroke="black" points="136.5,-50 136.5,-69 256.5,-69 256.5,-50 136.5,-50"/>
<text text-anchor="middle" x="196.5" y="-57" font-family="Helvetica,sans-Serif" font-size="10.00">test::Test&lt; Testname &gt;</text>
</a>
</g>
</g>
<!-- Node1&#45;&gt;Node30 -->
<g id="edge29" class="edge"><title>Node1&#45;&gt;Node30</title>
<path fill="none" stroke="midnightblue" d="M43.4642,-330.803C43.2368,-280.955 49.8485,-148.778 122,-78.5 126.154,-74.4537 131.052,-71.237 136.314,-68.6843"/>
<polygon fill="midnightblue" stroke="midnightblue" points="39.9658,-330.939 43.6141,-340.885 46.965,-330.834 39.9658,-330.939"/>
</g>
<!-- Node4 -->
<g id="node4" class="node"><title>Node4</title>
<g id="a_node4"><a xlink:href="structtest_1_1Parametric__test.html" target="_top" xlink:title="test::Parametric_test\l\&lt; Test_buffer\&lt; T, B \&gt;\l, std::array\&lt; size_t, 2 \&gt; \&gt;">
<polygon fill="white" stroke="black" points="325,-600 325,-641 453,-641 453,-600 325,-600"/>
<text text-anchor="start" x="333" y="-629" font-family="Helvetica,sans-Serif" font-size="10.00">test::Parametric_test</text>
<text text-anchor="start" x="333" y="-618" font-family="Helvetica,sans-Serif" font-size="10.00">&lt; Test_buffer&lt; T, B &gt;</text>
<text text-anchor="middle" x="389" y="-607" font-family="Helvetica,sans-Serif" font-size="10.00">, std::array&lt; size_t, 2 &gt; &gt;</text>
</a>
</g>
</g>
<!-- Node3&#45;&gt;Node4 -->
<g id="edge3" class="edge"><title>Node3&#45;&gt;Node4</title>
<path fill="none" stroke="midnightblue" d="M265.434,-620.5C284.8,-620.5 305.811,-620.5 324.877,-620.5"/>
<polygon fill="midnightblue" stroke="midnightblue" points="265.173,-617 255.173,-620.5 265.173,-624 265.173,-617"/>
</g>
<!-- Node5 -->
<g id="node5" class="node"><title>Node5</title>
<g id="a_node5"><a xlink:href="structTest__buffer.html" target="_top" xlink:title="Test_buffer\&lt; T, B \&gt;">
<polygon fill="white" stroke="black" points="519.5,-611 519.5,-630 622.5,-630 622.5,-611 519.5,-611"/>
<text text-anchor="middle" x="571" y="-618" font-family="Helvetica,sans-Serif" font-size="10.00">Test_buffer&lt; T, B &gt;</text>
</a>
</g>
</g>
<!-- Node4&#45;&gt;Node5 -->
<g id="edge4" class="edge"><title>Node4&#45;&gt;Node5</title>
<path fill="none" stroke="midnightblue" d="M463.254,-620.5C482.107,-620.5 501.976,-620.5 519.393,-620.5"/>
<polygon fill="midnightblue" stroke="midnightblue" points="463.208,-617 453.208,-620.5 463.208,-624 463.208,-617"/>
</g>
<!-- Node7 -->
<g id="node7" class="node"><title>Node7</title>
<g id="a_node7"><a xlink:href="structTest__fildesbuf.html" target="_top" xlink:title="Test_fildesbuf\&lt; T, Fd \&gt;">
<polygon fill="white" stroke="black" points="329.5,-562 329.5,-581 448.5,-581 448.5,-562 329.5,-562"/>
<text text-anchor="middle" x="389" y="-569" font-family="Helvetica,sans-Serif" font-size="10.00">Test_fildesbuf&lt; T, Fd &gt;</text>
</a>
</g>
</g>
<!-- Node6&#45;&gt;Node7 -->
<g id="edge6" class="edge"><title>Node6&#45;&gt;Node7</title>
<path fill="none" stroke="midnightblue" d="M271.39,-571.5C290.546,-571.5 310.918,-571.5 329.184,-571.5"/>
<polygon fill="midnightblue" stroke="midnightblue" points="271.199,-568 261.199,-571.5 271.199,-575 271.199,-568"/>
</g>
<!-- Node9 -->
<g id="node9" class="node"><title>Node9</title>
<g id="a_node9"><a xlink:href="structTest__kernel__stream.html" target="_top" xlink:title="Test_kernel_stream\l\&lt; Carrier, Parent \&gt;">
<polygon fill="white" stroke="black" points="337.5,-507.5 337.5,-537.5 440.5,-537.5 440.5,-507.5 337.5,-507.5"/>
<text text-anchor="start" x="345.5" y="-525.5" font-family="Helvetica,sans-Serif" font-size="10.00">Test_kernel_stream</text>
<text text-anchor="middle" x="389" y="-514.5" font-family="Helvetica,sans-Serif" font-size="10.00">&lt; Carrier, Parent &gt;</text>
</a>
</g>
</g>
<!-- Node8&#45;&gt;Node9 -->
<g id="edge8" class="edge"><title>Node8&#45;&gt;Node9</title>
<path fill="none" stroke="midnightblue" d="M278.238,-522.5C298.297,-522.5 319.234,-522.5 337.38,-522.5"/>
<polygon fill="midnightblue" stroke="midnightblue" points="278.164,-519 268.164,-522.5 278.164,-526 278.164,-519"/>
</g>
<!-- Node11 -->
<g id="node11" class="node"><title>Node11</title>
<g id="a_node11"><a xlink:href="structTest__missing__values.html" target="_top" xlink:title="Test_missing_values">
<polygon fill="white" stroke="black" points="334.5,-464 334.5,-483 443.5,-483 443.5,-464 334.5,-464"/>
<text text-anchor="middle" x="389" y="-471" font-family="Helvetica,sans-Serif" font-size="10.00">Test_missing_values</text>
</a>
</g>
</g>
<!-- Node10&#45;&gt;Node11 -->
<g id="edge10" class="edge"><title>Node10&#45;&gt;Node11</title>
<path fill="none" stroke="midnightblue" d="M269.662,-473.5C291.116,-473.5 314.233,-473.5 334.292,-473.5"/>
<polygon fill="midnightblue" stroke="midnightblue" points="269.613,-470 259.613,-473.5 269.613,-477 269.613,-470"/>
</g>
<!-- Node13 -->
<g id="node13" class="node"><title>Node13</title>
<g id="a_node13"><a xlink:href="structParametric__test.html" target="_top" xlink:title="Parametric_test\&lt; Test\l_mutex\&lt; Mutex \&gt; \&gt;">
<polygon fill="white" stroke="black" points="332,-409.5 332,-439.5 446,-439.5 446,-409.5 332,-409.5"/>
<text text-anchor="start" x="340" y="-427.5" font-family="Helvetica,sans-Serif" font-size="10.00">Parametric_test&lt; Test</text>
<text text-anchor="middle" x="389" y="-416.5" font-family="Helvetica,sans-Serif" font-size="10.00">_mutex&lt; Mutex &gt; &gt;</text>
</a>
</g>
</g>
<!-- Node12&#45;&gt;Node13 -->
<g id="edge12" class="edge"><title>Node12&#45;&gt;Node13</title>
<path fill="none" stroke="midnightblue" d="M266.261,-424.5C287.767,-424.5 311.229,-424.5 331.766,-424.5"/>
<polygon fill="midnightblue" stroke="midnightblue" points="266.211,-421 256.211,-424.5 266.211,-428 266.211,-421"/>
</g>
<!-- Node14 -->
<g id="node14" class="node"><title>Node14</title>
<g id="a_node14"><a xlink:href="structTest__mutex.html" target="_top" xlink:title="Test_mutex\&lt; Mutex \&gt;">
<polygon fill="white" stroke="black" points="514.5,-415 514.5,-434 627.5,-434 627.5,-415 514.5,-415"/>
<text text-anchor="middle" x="571" y="-422" font-family="Helvetica,sans-Serif" font-size="10.00">Test_mutex&lt; Mutex &gt;</text>
</a>
</g>
</g>
<!-- Node13&#45;&gt;Node14 -->
<g id="edge13" class="edge"><title>Node13&#45;&gt;Node14</title>
<path fill="none" stroke="midnightblue" d="M456.543,-424.5C475.556,-424.5 496.071,-424.5 514.358,-424.5"/>
<polygon fill="midnightblue" stroke="midnightblue" points="456.459,-421 446.459,-424.5 456.459,-428 456.459,-421"/>
</g>
<!-- Node16 -->
<g id="node16" class="node"><title>Node16</title>
<g id="a_node16"><a xlink:href="structTest__network.html" target="_top" xlink:title="Test_network\&lt; Addr \&gt;">
<polygon fill="white" stroke="black" points="332,-366 332,-385 446,-385 446,-366 332,-366"/>
<text text-anchor="middle" x="389" y="-373" font-family="Helvetica,sans-Serif" font-size="10.00">Test_network&lt; Addr &gt;</text>
</a>
</g>
</g>
<!-- Node15&#45;&gt;Node16 -->
<g id="edge15" class="edge"><title>Node15&#45;&gt;Node16</title>
<path fill="none" stroke="midnightblue" d="M270.319,-375.5C290.684,-375.5 312.499,-375.5 331.747,-375.5"/>
<polygon fill="midnightblue" stroke="midnightblue" points="270.141,-372 260.141,-375.5 270.141,-379 270.141,-372"/>
</g>
<!-- Node18 -->
<g id="node18" class="node"><title>Node18</title>
<g id="a_node18"><a xlink:href="structTest__packetbuf.html" target="_top" xlink:title="Test_packetbuf\&lt; T, Fd \&gt;">
<polygon fill="white" stroke="black" points="326.5,-318 326.5,-337 451.5,-337 451.5,-318 326.5,-318"/>
<text text-anchor="middle" x="389" y="-325" font-family="Helvetica,sans-Serif" font-size="10.00">Test_packetbuf&lt; T, Fd &gt;</text>
</a>
</g>
</g>
<!-- Node17&#45;&gt;Node18 -->
<g id="edge17" class="edge"><title>Node17&#45;&gt;Node18</title>
<path fill="none" stroke="midnightblue" d="M274.19,-326.903C291.477,-326.993 309.613,-327.089 326.199,-327.176"/>
<polygon fill="midnightblue" stroke="midnightblue" points="274.146,-323.402 264.128,-326.85 274.109,-330.402 274.146,-323.402"/>
</g>
<!-- Node20 -->
<g id="node20" class="node"><title>Node20</title>
<g id="a_node20"><a xlink:href="structtest__packetstream.html" target="_top" xlink:title="test_packetstream\&lt;\l T, Fd \&gt;">
<polygon fill="white" stroke="black" points="337,-268.5 337,-298.5 441,-298.5 441,-268.5 337,-268.5"/>
<text text-anchor="start" x="345" y="-286.5" font-family="Helvetica,sans-Serif" font-size="10.00">test_packetstream&lt;</text>
<text text-anchor="middle" x="389" y="-275.5" font-family="Helvetica,sans-Serif" font-size="10.00"> T, Fd &gt;</text>
</a>
</g>
</g>
<!-- Node19&#45;&gt;Node20 -->
<g id="edge19" class="edge"><title>Node19&#45;&gt;Node20</title>
<path fill="none" stroke="midnightblue" d="M281.296,-280.139C300.253,-280.736 319.825,-281.353 336.948,-281.892"/>
<polygon fill="midnightblue" stroke="midnightblue" points="281.258,-276.636 271.152,-279.82 281.037,-283.633 281.258,-276.636"/>
</g>
<!-- Node22 -->
<g id="node22" class="node"><title>Node22</title>
<g id="a_node22"><a xlink:href="structParametric__test.html" target="_top" xlink:title="Parametric_test\&lt; Test\l_semaphore\&lt; Mutex, Semaphore,\l I \&gt; \&gt;">
<polygon fill="white" stroke="black" points="307,-208 307,-249 471,-249 471,-208 307,-208"/>
<text text-anchor="start" x="315" y="-237" font-family="Helvetica,sans-Serif" font-size="10.00">Parametric_test&lt; Test</text>
<text text-anchor="start" x="315" y="-226" font-family="Helvetica,sans-Serif" font-size="10.00">_semaphore&lt; Mutex, Semaphore,</text>
<text text-anchor="middle" x="389" y="-215" font-family="Helvetica,sans-Serif" font-size="10.00"> I &gt; &gt;</text>
</a>
</g>
</g>
<!-- Node21&#45;&gt;Node22 -->
<g id="edge21" class="edge"><title>Node21&#45;&gt;Node22</title>
<path fill="none" stroke="midnightblue" d="M276.798,-228.5C286.739,-228.5 296.918,-228.5 306.886,-228.5"/>
<polygon fill="midnightblue" stroke="midnightblue" points="276.544,-225 266.544,-228.5 276.544,-232 276.544,-225"/>
</g>
<!-- Node23 -->
<g id="node23" class="node"><title>Node23</title>
<g id="a_node23"><a xlink:href="structTest__semaphore.html" target="_top" xlink:title="Test_semaphore\&lt; Mutex,\l Semaphore, I \&gt;">
<polygon fill="white" stroke="black" points="507,-213.5 507,-243.5 635,-243.5 635,-213.5 507,-213.5"/>
<text text-anchor="start" x="515" y="-231.5" font-family="Helvetica,sans-Serif" font-size="10.00">Test_semaphore&lt; Mutex,</text>
<text text-anchor="middle" x="571" y="-220.5" font-family="Helvetica,sans-Serif" font-size="10.00"> Semaphore, I &gt;</text>
</a>
</g>
</g>
<!-- Node22&#45;&gt;Node23 -->
<g id="edge22" class="edge"><title>Node22&#45;&gt;Node23</title>
<path fill="none" stroke="midnightblue" d="M481.237,-228.5C489.926,-228.5 498.6,-228.5 506.935,-228.5"/>
<polygon fill="midnightblue" stroke="midnightblue" points="481.048,-225 471.048,-228.5 481.048,-232 481.048,-225"/>
</g>
<!-- Node25 -->
<g id="node25" class="node"><title>Node25</title>
<g id="a_node25"><a xlink:href="structTest__shmem.html" target="_top" xlink:title="Test_shmem\&lt; T \&gt;">
<polygon fill="white" stroke="black" points="340,-170 340,-189 438,-189 438,-170 340,-170"/>
<text text-anchor="middle" x="389" y="-177" font-family="Helvetica,sans-Serif" font-size="10.00">Test_shmem&lt; T &gt;</text>
</a>
</g>
</g>
<!-- Node24&#45;&gt;Node25 -->
<g id="edge24" class="edge"><title>Node24&#45;&gt;Node25</title>
<path fill="none" stroke="midnightblue" d="M269.392,-179.5C292.952,-179.5 318.543,-179.5 339.903,-179.5"/>
<polygon fill="midnightblue" stroke="midnightblue" points="269.087,-176 259.087,-179.5 269.087,-183 269.087,-176"/>
</g>
<!-- Node27 -->
<g id="node27" class="node"><title>Node27</title>
<g id="a_node27"><a xlink:href="structtest_1_1Test__suite.html" target="_top" xlink:title="test::Test_suite">
<polygon fill="white" stroke="black" points="346.5,-126 346.5,-145 431.5,-145 431.5,-126 346.5,-126"/>
<text text-anchor="middle" x="389" y="-133" font-family="Helvetica,sans-Serif" font-size="10.00">test::Test_suite</text>
</a>
</g>
</g>
<!-- Node26&#45;&gt;Node27 -->
<g id="edge26" class="edge"><title>Node26&#45;&gt;Node27</title>
<path fill="none" stroke="midnightblue" d="M267.861,-135.5C294.261,-135.5 323.404,-135.5 346.375,-135.5"/>
<polygon fill="midnightblue" stroke="midnightblue" points="267.514,-132 257.514,-135.5 267.514,-139 267.514,-132"/>
</g>
<!-- Node29 -->
<g id="node29" class="node"><title>Node29</title>
<g id="a_node29"><a xlink:href="structTest__synthetic.html" target="_top" xlink:title="Test_synthetic">
<polygon fill="white" stroke="black" points="348.5,-88 348.5,-107 429.5,-107 429.5,-88 348.5,-88"/>
<text text-anchor="middle" x="389" y="-95" font-family="Helvetica,sans-Serif" font-size="10.00">Test_synthetic</text>
</a>
</g>
</g>
<!-- Node28&#45;&gt;Node29 -->
<g id="edge28" class="edge"><title>Node28&#45;&gt;Node29</title>
<path fill="none" stroke="midnightblue" d="M277.162,-97.5C301.787,-97.5 327.841,-97.5 348.497,-97.5"/>
<polygon fill="midnightblue" stroke="midnightblue" points="277.084,-94.0001 267.084,-97.5 277.083,-101 277.084,-94.0001"/>
</g>
<!-- Node31 -->
<g id="node31" class="node"><title>Node31</title>
<g id="a_node31"><a xlink:href="structParametric__test.html" target="_top" xlink:title="Parametric_test\&lt; Testname, I \&gt;">
<polygon fill="white" stroke="black" points="311,-50 311,-69 467,-69 467,-50 311,-50"/>
<text text-anchor="middle" x="389" y="-57" font-family="Helvetica,sans-Serif" font-size="10.00">Parametric_test&lt; Testname, I &gt;</text>
</a>
</g>
</g>
<!-- Node30&#45;&gt;Node31 -->
<g id="edge30" class="edge"><title>Node30&#45;&gt;Node31</title>
<path fill="none" stroke="midnightblue" d="M266.967,-59.5C281.256,-59.5 296.382,-59.5 310.922,-59.5"/>
<polygon fill="midnightblue" stroke="midnightblue" points="266.731,-56.0001 256.731,-59.5 266.731,-63.0001 266.731,-56.0001"/>
</g>
<!-- Node32 -->
<g id="node32" class="node"><title>Node32</title>
<g id="a_node32"><a xlink:href="structtest_1_1Parametric__test.html" target="_top" xlink:title="test::Parametric_test\l\&lt; Testname, Array \&gt;">
<polygon fill="white" stroke="black" points="335,-0.5 335,-30.5 443,-30.5 443,-0.5 335,-0.5"/>
<text text-anchor="start" x="343" y="-18.5" font-family="Helvetica,sans-Serif" font-size="10.00">test::Parametric_test</text>
<text text-anchor="middle" x="389" y="-7.5" font-family="Helvetica,sans-Serif" font-size="10.00">&lt; Testname, Array &gt;</text>
</a>
</g>
</g>
<!-- Node30&#45;&gt;Node32 -->
<g id="edge31" class="edge"><title>Node30&#45;&gt;Node32</title>
<path fill="none" stroke="midnightblue" d="M248.729,-47.6675C275.357,-41.5172 307.87,-34.0077 334.783,-27.7916"/>
<polygon fill="midnightblue" stroke="midnightblue" points="247.791,-44.2919 238.836,-49.9527 249.367,-51.1123 247.791,-44.2919"/>
</g>
</g>
</svg>
