<?xml version="1.0" encoding="UTF-8" standalone="no"?>
<!DOCTYPE svg PUBLIC "-//W3C//DTD SVG 1.1//EN"
 "http://www.w3.org/Graphics/SVG/1.1/DTD/svg11.dtd">
<!-- Generated by graphviz version 2.36.0 (20140111.2315)
 -->
<!-- Title: Graphical Class Hierarchy Pages: 1 -->
<svg width="738pt" height="939pt"
 viewBox="0.00 0.00 738.00 939.00" xmlns="http://www.w3.org/2000/svg" xmlns:xlink="http://www.w3.org/1999/xlink">
<g id="graph0" class="graph" transform="scale(1 1) rotate(0) translate(4 935)">
<title>Graphical Class Hierarchy</title>
<polygon fill="white" stroke="none" points="-4,4 -4,-935 734,-935 734,4 -4,4"/>
<!-- Node1 -->
<g id="node1" class="node"><title>Node1</title>
<polygon fill="white" stroke="#bfbfbf" points="318,-596.5 318,-615.5 362,-615.5 362,-596.5 318,-596.5"/>
<text text-anchor="middle" x="340" y="-603.5" font-family="Helvetica,sans-Serif" font-size="10.00">Kernel</text>
</g>
<!-- Node2 -->
<g id="node2" class="node"><title>Node2</title>
<g id="a_node2"><a xlink:href="structautoreg_1_1ACF__generator.html" target="_top" xlink:title="autoreg::ACF_generator\&lt; T \&gt;">
<polygon fill="white" stroke="black" points="421.5,-558.5 421.5,-577.5 566.5,-577.5 566.5,-558.5 421.5,-558.5"/>
<text text-anchor="middle" x="494" y="-565.5" font-family="Helvetica,sans-Serif" font-size="10.00">autoreg::ACF_generator&lt; T &gt;</text>
</a>
</g>
</g>
<!-- Node1&#45;&gt;Node2 -->
<g id="edge1" class="edge"><title>Node1&#45;&gt;Node2</title>
<path fill="none" stroke="midnightblue" d="M371.8,-598.152C385.352,-594.71 401.462,-590.635 416,-587 428.423,-583.894 441.982,-580.537 454.211,-577.522"/>
<polygon fill="midnightblue" stroke="midnightblue" points="370.834,-594.786 362.005,-600.642 372.559,-601.57 370.834,-594.786"/>
</g>
<!-- Node3 -->
<g id="node3" class="node"><title>Node3</title>
<g id="a_node3"><a xlink:href="structautoreg_1_1Autoreg__coefs.html" target="_top" xlink:title="autoreg::Autoreg_coefs\&lt; T \&gt;">
<polygon fill="white" stroke="black" points="423,-520.5 423,-539.5 565,-539.5 565,-520.5 423,-520.5"/>
<text text-anchor="middle" x="494" y="-527.5" font-family="Helvetica,sans-Serif" font-size="10.00">autoreg::Autoreg_coefs&lt; T &gt;</text>
</a>
</g>
</g>
<!-- Node1&#45;&gt;Node3 -->
<g id="edge2" class="edge"><title>Node1&#45;&gt;Node3</title>
<path fill="none" stroke="midnightblue" d="M358.378,-589.471C372.763,-576.653 394.291,-559.377 416,-549 424.075,-545.14 433.013,-542.016 441.856,-539.502"/>
<polygon fill="midnightblue" stroke="midnightblue" points="355.802,-587.084 350.787,-596.417 360.527,-592.248 355.802,-587.084"/>
</g>
<!-- Node4 -->
<g id="node4" class="node"><title>Node4</title>
<g id="a_node4"><a xlink:href="classautoreg_1_1Autoreg__model.html" target="_top" xlink:title="autoreg::Autoreg_model\&lt; T \&gt;">
<polygon fill="white" stroke="black" points="422,-482.5 422,-501.5 566,-501.5 566,-482.5 422,-482.5"/>
<text text-anchor="middle" x="494" y="-489.5" font-family="Helvetica,sans-Serif" font-size="10.00">autoreg::Autoreg_model&lt; T &gt;</text>
</a>
</g>
</g>
<!-- Node1&#45;&gt;Node4 -->
<g id="edge3" class="edge"><title>Node1&#45;&gt;Node4</title>
<path fill="none" stroke="midnightblue" d="M350.544,-587.577C362.757,-565.876 385.973,-530.34 416,-511 422.019,-507.123 428.77,-504.037 435.707,-501.581"/>
<polygon fill="midnightblue" stroke="midnightblue" points="347.414,-586.007 345.722,-596.466 353.567,-589.345 347.414,-586.007"/>
</g>
<!-- Node5 -->
<g id="node5" class="node"><title>Node5</title>
<g id="a_node5"><a xlink:href="structautoreg_1_1Generator1.html" target="_top" xlink:title="autoreg::Generator1\l\&lt; T, Grid \&gt;">
<polygon fill="white" stroke="black" points="442.5,-433 442.5,-463 545.5,-463 545.5,-433 442.5,-433"/>
<text text-anchor="start" x="450.5" y="-451" font-family="Helvetica,sans-Serif" font-size="10.00">autoreg::Generator1</text>
<text text-anchor="middle" x="494" y="-440" font-family="Helvetica,sans-Serif" font-size="10.00">&lt; T, Grid &gt;</text>
</a>
</g>
</g>
<!-- Node1&#45;&gt;Node5 -->
<g id="edge4" class="edge"><title>Node1&#45;&gt;Node5</title>
<path fill="none" stroke="midnightblue" d="M346.852,-586.637C356.558,-557.75 378.703,-503.51 416,-473 423.615,-466.771 432.823,-462.079 442.183,-458.549"/>
<polygon fill="midnightblue" stroke="midnightblue" points="343.454,-585.773 343.736,-596.364 350.12,-587.909 343.454,-585.773"/>
</g>
<!-- Node6 -->
<g id="node6" class="node"><title>Node6</title>
<g id="a_node6"><a xlink:href="structautoreg_1_1Solve__Yule__Walker.html" target="_top" xlink:title="autoreg::Solve_Yule\l_Walker\&lt; T \&gt;">
<polygon fill="white" stroke="black" points="442,-384 442,-414 546,-414 546,-384 442,-384"/>
<text text-anchor="start" x="450" y="-402" font-family="Helvetica,sans-Serif" font-size="10.00">autoreg::Solve_Yule</text>
<text text-anchor="middle" x="494" y="-391" font-family="Helvetica,sans-Serif" font-size="10.00">_Walker&lt; T &gt;</text>
</a>
</g>
</g>
<!-- Node1&#45;&gt;Node6 -->
<g id="edge5" class="edge"><title>Node1&#45;&gt;Node6</title>
<path fill="none" stroke="midnightblue" d="M343.679,-585.994C349.715,-548.769 367.821,-468.608 416,-424 423.322,-417.22 432.506,-412.278 441.955,-408.676"/>
<polygon fill="midnightblue" stroke="midnightblue" points="340.188,-585.674 342.174,-596.081 347.112,-586.707 340.188,-585.674"/>
</g>
<!-- Node7 -->
<g id="node7" class="node"><title>Node7</title>
<g id="a_node7"><a xlink:href="classautoreg_1_1Velocity__potential.html" target="_top" xlink:title="autoreg::Velocity_potential\&lt; T \&gt;">
<polygon fill="white" stroke="black" points="416,-345.5 416,-364.5 572,-364.5 572,-345.5 416,-345.5"/>
<text text-anchor="middle" x="494" y="-352.5" font-family="Helvetica,sans-Serif" font-size="10.00">autoreg::Velocity_potential&lt; T &gt;</text>
</a>
</g>
</g>
<!-- Node1&#45;&gt;Node7 -->
<g id="edge6" class="edge"><title>Node1&#45;&gt;Node7</title>
<path fill="none" stroke="midnightblue" d="M341.368,-586.338C343.306,-541.877 354.447,-432.978 416,-375 420.625,-370.644 426.074,-367.207 431.901,-364.501"/>
<polygon fill="midnightblue" stroke="midnightblue" points="337.868,-586.3 341.044,-596.408 344.864,-586.525 337.868,-586.3"/>
</g>
<!-- Node8 -->
<g id="node8" class="node"><title>Node8</title>
<g id="a_node8"><a xlink:href="structautoreg_1_1Wave__surface__generator.html" target="_top" xlink:title="autoreg::Wave_surface\l_generator\&lt; T, Grid \&gt;">
<polygon fill="white" stroke="black" points="435,-901 435,-931 553,-931 553,-901 435,-901"/>
<text text-anchor="start" x="443" y="-919" font-family="Helvetica,sans-Serif" font-size="10.00">autoreg::Wave_surface</text>
<text text-anchor="middle" x="494" y="-908" font-family="Helvetica,sans-Serif" font-size="10.00">_generator&lt; T, Grid &gt;</text>
</a>
</g>
</g>
<!-- Node1&#45;&gt;Node8 -->
<g id="edge7" class="edge"><title>Node1&#45;&gt;Node8</title>
<path fill="none" stroke="midnightblue" d="M340.18,-625.657C339.163,-676.631 343.638,-814.421 416,-891 421.309,-896.619 427.891,-900.977 434.954,-904.357"/>
<polygon fill="midnightblue" stroke="midnightblue" points="343.679,-625.745 340.478,-615.645 336.682,-625.537 343.679,-625.745"/>
</g>
<!-- Node9 -->
<g id="node9" class="node"><title>Node9</title>
<g id="a_node9"><a xlink:href="structAutoreg__app.html" target="_top" xlink:title="Autoreg_app">
<polygon fill="white" stroke="black" points="458.5,-862.5 458.5,-881.5 529.5,-881.5 529.5,-862.5 458.5,-862.5"/>
<text text-anchor="middle" x="494" y="-869.5" font-family="Helvetica,sans-Serif" font-size="10.00">Autoreg_app</text>
</a>
</g>
</g>
<!-- Node1&#45;&gt;Node9 -->
<g id="edge8" class="edge"><title>Node1&#45;&gt;Node9</title>
<path fill="none" stroke="midnightblue" d="M340.832,-625.774C341.564,-672.521 350.204,-790.594 416,-853 427.289,-863.707 443.614,-868.664 458.331,-870.861"/>
<polygon fill="midnightblue" stroke="midnightblue" points="344.331,-625.488 340.786,-615.503 337.331,-625.519 344.331,-625.488"/>
</g>
<!-- Node10 -->
<g id="node10" class="node"><title>Node10</title>
<g id="a_node10"><a xlink:href="structDelayed__shutdown.html" target="_top" xlink:title="Delayed_shutdown\&lt; Address \&gt;">
<polygon fill="white" stroke="black" points="417,-824.5 417,-843.5 571,-843.5 571,-824.5 417,-824.5"/>
<text text-anchor="middle" x="494" y="-831.5" font-family="Helvetica,sans-Serif" font-size="10.00">Delayed_shutdown&lt; Address &gt;</text>
</a>
</g>
</g>
<!-- Node1&#45;&gt;Node10 -->
<g id="edge9" class="edge"><title>Node1&#45;&gt;Node10</title>
<path fill="none" stroke="midnightblue" d="M342.107,-625.803C345.535,-667.356 359.491,-764.011 416,-815 420.294,-818.874 425.251,-821.988 430.538,-824.488"/>
<polygon fill="midnightblue" stroke="midnightblue" points="345.585,-625.358 341.393,-615.627 338.602,-625.848 345.585,-625.358"/>
</g>
<!-- Node11 -->
<g id="node11" class="node"><title>Node11</title>
<g id="a_node11"><a xlink:href="structLauncher.html" target="_top" xlink:title="Launcher">
<polygon fill="white" stroke="black" points="466,-786.5 466,-805.5 522,-805.5 522,-786.5 466,-786.5"/>
<text text-anchor="middle" x="494" y="-793.5" font-family="Helvetica,sans-Serif" font-size="10.00">Launcher</text>
</a>
</g>
</g>
<!-- Node1&#45;&gt;Node11 -->
<g id="edge10" class="edge"><title>Node1&#45;&gt;Node11</title>
<path fill="none" stroke="midnightblue" d="M343.949,-626.104C350.313,-662.042 368.781,-737.253 416,-777 429.799,-788.616 449.639,-793.319 465.723,-795.142"/>
<polygon fill="midnightblue" stroke="midnightblue" points="347.351,-625.217 342.287,-615.91 340.442,-626.343 347.351,-625.217"/>
</g>
<!-- Node12 -->
<g id="node12" class="node"><title>Node12</title>
<g id="a_node12"><a xlink:href="structMain.html" target="_top" xlink:title="Main\&lt; Address \&gt;">
<polygon fill="white" stroke="black" points="448,-269.5 448,-288.5 540,-288.5 540,-269.5 448,-269.5"/>
<text text-anchor="middle" x="494" y="-276.5" font-family="Helvetica,sans-Serif" font-size="10.00">Main&lt; Address &gt;</text>
</a>
</g>
</g>
<!-- Node1&#45;&gt;Node12 -->
<g id="edge11" class="edge"><title>Node1&#45;&gt;Node12</title>
<path fill="none" stroke="midnightblue" d="M343.156,-586.179C350.227,-524.793 374.66,-339.467 416,-298 424.457,-289.517 436.06,-284.605 447.692,-281.817"/>
<polygon fill="midnightblue" stroke="midnightblue" points="339.642,-586.103 342.005,-596.431 346.599,-586.884 339.642,-586.103"/>
</g>
<!-- Node13 -->
<g id="node13" class="node"><title>Node13</title>
<g id="a_node13"><a xlink:href="structPing__pong.html" target="_top" xlink:title="Ping_pong">
<polygon fill="white" stroke="black" points="463,-748.5 463,-767.5 525,-767.5 525,-748.5 463,-748.5"/>
<text text-anchor="middle" x="494" y="-755.5" font-family="Helvetica,sans-Serif" font-size="10.00">Ping_pong</text>
</a>
</g>
</g>
<!-- Node1&#45;&gt;Node13 -->
<g id="edge12" class="edge"><title>Node1&#45;&gt;Node13</title>
<path fill="none" stroke="midnightblue" d="M346.581,-625.707C355.935,-655.04 377.629,-709.852 416,-739 429.377,-749.161 447.491,-753.952 462.79,-756.185"/>
<polygon fill="midnightblue" stroke="midnightblue" points="349.836,-624.378 343.592,-615.819 343.136,-626.404 349.836,-624.378"/>
</g>
<!-- Node14 -->
<g id="node14" class="node"><title>Node14</title>
<g id="a_node14"><a xlink:href="structSpec__app.html" target="_top" xlink:title="Spec_app">
<polygon fill="white" stroke="black" points="464,-710.5 464,-729.5 524,-729.5 524,-710.5 464,-710.5"/>
<text text-anchor="middle" x="494" y="-717.5" font-family="Helvetica,sans-Serif" font-size="10.00">Spec_app</text>
</a>
</g>
</g>
<!-- Node1&#45;&gt;Node14 -->
<g id="edge13" class="edge"><title>Node1&#45;&gt;Node14</title>
<path fill="none" stroke="midnightblue" d="M350.544,-624.423C362.757,-646.124 385.973,-681.66 416,-701 430.238,-710.171 448.57,-714.915 463.774,-717.369"/>
<polygon fill="midnightblue" stroke="midnightblue" points="353.567,-622.655 345.722,-615.534 347.414,-625.993 353.567,-622.655"/>
</g>
<!-- Node15 -->
<g id="node15" class="node"><title>Node15</title>
<g id="a_node15"><a xlink:href="structSpectrum__kernel.html" target="_top" xlink:title="Spectrum_kernel">
<polygon fill="white" stroke="black" points="449,-672.5 449,-691.5 539,-691.5 539,-672.5 449,-672.5"/>
<text text-anchor="middle" x="494" y="-679.5" font-family="Helvetica,sans-Serif" font-size="10.00">Spectrum_kernel</text>
</a>
</g>
</g>
<!-- Node1&#45;&gt;Node15 -->
<g id="edge14" class="edge"><title>Node1&#45;&gt;Node15</title>
<path fill="none" stroke="midnightblue" d="M358.378,-622.529C372.763,-635.347 394.291,-652.623 416,-663 426.187,-667.869 437.748,-671.569 448.757,-674.348"/>
<polygon fill="midnightblue" stroke="midnightblue" points="360.527,-619.752 350.787,-615.583 355.802,-624.916 360.527,-619.752"/>
</g>
<!-- Node16 -->
<g id="node16" class="node"><title>Node16</title>
<g id="a_node16"><a xlink:href="structStation__kernel.html" target="_top" xlink:title="Station_kernel">
<polygon fill="white" stroke="black" points="454.5,-634.5 454.5,-653.5 533.5,-653.5 533.5,-634.5 454.5,-634.5"/>
<text text-anchor="middle" x="494" y="-641.5" font-family="Helvetica,sans-Serif" font-size="10.00">Station_kernel</text>
</a>
</g>
</g>
<!-- Node1&#45;&gt;Node16 -->
<g id="edge15" class="edge"><title>Node1&#45;&gt;Node16</title>
<path fill="none" stroke="midnightblue" d="M371.8,-613.848C385.352,-617.29 401.462,-621.365 416,-625 428.423,-628.106 441.982,-631.463 454.211,-634.478"/>
<polygon fill="midnightblue" stroke="midnightblue" points="372.559,-610.43 362.005,-611.358 370.834,-617.214 372.559,-610.43"/>
</g>
<!-- Node17 -->
<g id="node17" class="node"><title>Node17</title>
<g id="a_node17"><a xlink:href="structTest__socket.html" target="_top" xlink:title="Test_socket">
<polygon fill="white" stroke="black" points="458.5,-307.5 458.5,-326.5 529.5,-326.5 529.5,-307.5 458.5,-307.5"/>
<text text-anchor="middle" x="494" y="-314.5" font-family="Helvetica,sans-Serif" font-size="10.00">Test_socket</text>
</a>
</g>
</g>
<!-- Node1&#45;&gt;Node17 -->
<g id="edge16" class="edge"><title>Node1&#45;&gt;Node17</title>
<path fill="none" stroke="midnightblue" d="M340.227,-586.417C339.402,-536.863 344.452,-405.5 416,-336 427.16,-325.159 443.471,-320.187 458.21,-318.014"/>
<polygon fill="midnightblue" stroke="midnightblue" points="336.729,-586.539 340.498,-596.44 343.726,-586.349 336.729,-586.539"/>
</g>
<!-- Node18 -->
<g id="node18" class="node"><title>Node18</title>
<g id="a_node18"><a xlink:href="structYear__kernel.html" target="_top" xlink:title="Year_kernel">
<polygon fill="white" stroke="black" points="460,-596.5 460,-615.5 528,-615.5 528,-596.5 460,-596.5"/>
<text text-anchor="middle" x="494" y="-603.5" font-family="Helvetica,sans-Serif" font-size="10.00">Year_kernel</text>
</a>
</g>
</g>
<!-- Node1&#45;&gt;Node18 -->
<g id="edge17" class="edge"><title>Node1&#45;&gt;Node18</title>
<path fill="none" stroke="midnightblue" d="M372.372,-606C397.881,-606 433.776,-606 459.772,-606"/>
<polygon fill="midnightblue" stroke="midnightblue" points="372.135,-602.5 362.135,-606 372.135,-609.5 372.135,-602.5"/>
</g>
<!-- Node19 -->
<g id="node19" class="node"><title>Node19</title>
<g id="a_node19"><a xlink:href="classfactory_1_1kernel__base.html" target="_top" xlink:title="factory::kernel_base">
<polygon fill="white" stroke="black" points="4.5,-181.5 4.5,-200.5 109.5,-200.5 109.5,-181.5 4.5,-181.5"/>
<text text-anchor="middle" x="57" y="-188.5" font-family="Helvetica,sans-Serif" font-size="10.00">factory::kernel_base</text>
</a>
</g>
</g>
<!-- Node20 -->
<g id="node20" class="node"><title>Node20</title>
<g id="a_node20"><a xlink:href="classfactory_1_1mobile__kernel.html" target="_top" xlink:title="factory::mobile_kernel">
<polygon fill="white" stroke="black" points="150.5,-162.5 150.5,-181.5 263.5,-181.5 263.5,-162.5 150.5,-162.5"/>
<text text-anchor="middle" x="207" y="-169.5" font-family="Helvetica,sans-Serif" font-size="10.00">factory::mobile_kernel</text>
</a>
</g>
</g>
<!-- Node19&#45;&gt;Node20 -->
<g id="edge18" class="edge"><title>Node19&#45;&gt;Node20</title>
<path fill="none" stroke="midnightblue" d="M119.806,-183.065C129.983,-181.759 140.477,-180.412 150.489,-179.126"/>
<polygon fill="midnightblue" stroke="midnightblue" points="119.236,-179.61 109.763,-184.355 120.128,-186.553 119.236,-179.61"/>
</g>
<!-- Node21 -->
<g id="node21" class="node"><title>Node21</title>
<g id="a_node21"><a xlink:href="structfactory_1_1Kernel.html" target="_top" xlink:title="factory::Kernel">
<polygon fill="white" stroke="black" points="300,-162.5 300,-181.5 380,-181.5 380,-162.5 300,-162.5"/>
<text text-anchor="middle" x="340" y="-169.5" font-family="Helvetica,sans-Serif" font-size="10.00">factory::Kernel</text>
</a>
</g>
</g>
<!-- Node20&#45;&gt;Node21 -->
<g id="edge19" class="edge"><title>Node20&#45;&gt;Node21</title>
<path fill="none" stroke="midnightblue" d="M273.579,-172C282.487,-172 291.392,-172 299.637,-172"/>
<polygon fill="midnightblue" stroke="midnightblue" points="273.556,-168.5 263.556,-172 273.556,-175.5 273.556,-168.5"/>
</g>
<!-- Node21&#45;&gt;Node12 -->
<g id="edge26" class="edge"><title>Node21&#45;&gt;Node12</title>
<path fill="none" stroke="midnightblue" d="M351.903,-190.263C364.743,-210.173 387.919,-241.522 416,-259 425.615,-264.985 436.971,-269.187 447.966,-272.136"/>
<polygon fill="midnightblue" stroke="midnightblue" points="354.713,-188.154 346.454,-181.518 348.772,-191.856 354.713,-188.154"/>
</g>
<!-- Node21&#45;&gt;Node17 -->
<g id="edge29" class="edge"><title>Node21&#45;&gt;Node17</title>
<path fill="none" stroke="midnightblue" d="M347.157,-191.463C357.041,-219.452 379.169,-270.698 416,-298 428.167,-307.02 444.095,-311.796 458.305,-314.31"/>
<polygon fill="midnightblue" stroke="midnightblue" points="350.365,-190.021 343.862,-181.656 343.729,-192.25 350.365,-190.021"/>
</g>
<!-- Node22 -->
<g id="node22" class="node"><title>Node22</title>
<g id="a_node22"><a xlink:href="structBig__kernel.html" target="_top" xlink:title="Big_kernel\&lt; Size \&gt;">
<polygon fill="white" stroke="black" points="444,-105.5 444,-124.5 544,-124.5 544,-105.5 444,-105.5"/>
<text text-anchor="middle" x="494" y="-112.5" font-family="Helvetica,sans-Serif" font-size="10.00">Big_kernel&lt; Size &gt;</text>
</a>
</g>
</g>
<!-- Node21&#45;&gt;Node22 -->
<g id="edge20" class="edge"><title>Node21&#45;&gt;Node22</title>
<path fill="none" stroke="midnightblue" d="M366.338,-157.344C380.576,-149.577 398.877,-140.356 416,-134 425.81,-130.358 436.582,-127.204 446.88,-124.569"/>
<polygon fill="midnightblue" stroke="midnightblue" points="364.229,-154.512 357.195,-162.435 367.634,-160.628 364.229,-154.512"/>
</g>
<!-- Node23 -->
<g id="node23" class="node"><title>Node23</title>
<g id="a_node23"><a xlink:href="structDummy__kernel.html" target="_top" xlink:title="Dummy_kernel">
<polygon fill="white" stroke="black" points="452.5,-67.5 452.5,-86.5 535.5,-86.5 535.5,-67.5 452.5,-67.5"/>
<text text-anchor="middle" x="494" y="-74.5" font-family="Helvetica,sans-Serif" font-size="10.00">Dummy_kernel</text>
</a>
</g>
</g>
<!-- Node21&#45;&gt;Node23 -->
<g id="edge21" class="edge"><title>Node21&#45;&gt;Node23</title>
<path fill="none" stroke="midnightblue" d="M353.829,-154.168C367.338,-136.713 390.201,-110.668 416,-96 427.012,-89.7391 440.054,-85.5244 452.244,-82.6937"/>
<polygon fill="midnightblue" stroke="midnightblue" points="350.85,-152.307 347.651,-162.408 356.45,-156.507 350.85,-152.307"/>
</g>
<!-- Node24 -->
<g id="node24" class="node"><title>Node24</title>
<g id="a_node24"><a xlink:href="structGood__kernel.html" target="_top" xlink:title="Good_kernel">
<polygon fill="white" stroke="black" points="458.5,-29.5 458.5,-48.5 529.5,-48.5 529.5,-29.5 458.5,-29.5"/>
<text text-anchor="middle" x="494" y="-36.5" font-family="Helvetica,sans-Serif" font-size="10.00">Good_kernel</text>
</a>
</g>
</g>
<!-- Node21&#45;&gt;Node24 -->
<g id="edge22" class="edge"><title>Node21&#45;&gt;Node24</title>
<path fill="none" stroke="midnightblue" d="M348.299,-152.9C359.102,-127.264 381.826,-82.1608 416,-58 428.255,-49.3359 444.033,-44.6053 458.113,-42.0293"/>
<polygon fill="midnightblue" stroke="midnightblue" points="345.01,-151.698 344.514,-162.282 351.501,-154.317 345.01,-151.698"/>
</g>
<!-- Node27 -->
<g id="node27" class="node"><title>Node27</title>
<g id="a_node27"><a xlink:href="structKernel__that__carries__its__parent.html" target="_top" xlink:title="Kernel_that_carries\l_its_parent">
<polygon fill="white" stroke="black" points="443.5,-220 443.5,-250 544.5,-250 544.5,-220 443.5,-220"/>
<text text-anchor="start" x="451.5" y="-238" font-family="Helvetica,sans-Serif" font-size="10.00">Kernel_that_carries</text>
<text text-anchor="middle" x="494" y="-227" font-family="Helvetica,sans-Serif" font-size="10.00">_its_parent</text>
</a>
</g>
</g>
<!-- Node21&#45;&gt;Node27 -->
<g id="edge25" class="edge"><title>Node21&#45;&gt;Node27</title>
<path fill="none" stroke="midnightblue" d="M367.085,-186.474C381.296,-194.037 399.337,-203.122 416,-210 424.705,-213.593 434.127,-217.017 443.295,-220.116"/>
<polygon fill="midnightblue" stroke="midnightblue" points="368.385,-183.198 357.922,-181.528 365.059,-189.358 368.385,-183.198"/>
</g>
<!-- Node28 -->
<g id="node28" class="node"><title>Node28</title>
<g id="a_node28"><a xlink:href="structSender.html" target="_top" xlink:title="Sender">
<polygon fill="white" stroke="black" points="470.5,-181.5 470.5,-200.5 517.5,-200.5 517.5,-181.5 470.5,-181.5"/>
<text text-anchor="middle" x="494" y="-188.5" font-family="Helvetica,sans-Serif" font-size="10.00">Sender</text>
</a>
</g>
</g>
<!-- Node21&#45;&gt;Node28 -->
<g id="edge27" class="edge"><title>Node21&#45;&gt;Node28</title>
<path fill="none" stroke="midnightblue" d="M390.211,-178.151C417.227,-181.528 449.423,-185.553 470.493,-188.187"/>
<polygon fill="midnightblue" stroke="midnightblue" points="390.501,-174.66 380.144,-176.893 389.632,-181.606 390.501,-174.66"/>
</g>
<!-- Node29 -->
<g id="node29" class="node"><title>Node29</title>
<g id="a_node29"><a xlink:href="structSleepy__kernel.html" target="_top" xlink:title="Sleepy_kernel">
<polygon fill="white" stroke="black" points="455,-143.5 455,-162.5 533,-162.5 533,-143.5 455,-143.5"/>
<text text-anchor="middle" x="494" y="-150.5" font-family="Helvetica,sans-Serif" font-size="10.00">Sleepy_kernel</text>
</a>
</g>
</g>
<!-- Node21&#45;&gt;Node29 -->
<g id="edge28" class="edge"><title>Node21&#45;&gt;Node29</title>
<path fill="none" stroke="midnightblue" d="M390.147,-165.857C411.104,-163.237 435.186,-160.227 454.777,-157.778"/>
<polygon fill="midnightblue" stroke="midnightblue" points="389.632,-162.394 380.144,-167.107 390.501,-169.34 389.632,-162.394"/>
</g>
<!-- Node25 -->
<g id="node25" class="node"><title>Node25</title>
<g id="a_node25"><a xlink:href="structKernel__that__reads__more__than__writes.html" target="_top" xlink:title="Kernel_that_reads_more\l_than_writes">
<polygon fill="white" stroke="black" points="608,-49 608,-79 730,-79 730,-49 608,-49"/>
<text text-anchor="start" x="616" y="-67" font-family="Helvetica,sans-Serif" font-size="10.00">Kernel_that_reads_more</text>
<text text-anchor="middle" x="669" y="-56" font-family="Helvetica,sans-Serif" font-size="10.00">_than_writes</text>
</a>
</g>
</g>
<!-- Node24&#45;&gt;Node25 -->
<g id="edge23" class="edge"><title>Node24&#45;&gt;Node25</title>
<path fill="none" stroke="midnightblue" d="M539.727,-45.4634C560.499,-48.4652 585.502,-52.0783 607.894,-55.3142"/>
<polygon fill="midnightblue" stroke="midnightblue" points="539.991,-41.9653 529.593,-43.999 538.99,-48.8934 539.991,-41.9653"/>
</g>
<!-- Node26 -->
<g id="node26" class="node"><title>Node26</title>
<g id="a_node26"><a xlink:href="structKernel__that__writes__more__than__reads.html" target="_top" xlink:title="Kernel_that_writes\l_more_than_reads">
<polygon fill="white" stroke="black" points="620,-0 620,-30 718,-30 718,-0 620,-0"/>
<text text-anchor="start" x="628" y="-18" font-family="Helvetica,sans-Serif" font-size="10.00">Kernel_that_writes</text>
<text text-anchor="middle" x="669" y="-7" font-family="Helvetica,sans-Serif" font-size="10.00">_more_than_reads</text>
</a>
</g>
</g>
<!-- Node24&#45;&gt;Node26 -->
<g id="edge24" class="edge"><title>Node24&#45;&gt;Node26</title>
<path fill="none" stroke="midnightblue" d="M539.708,-32.7977C564.228,-29.3961 594.645,-25.1764 619.707,-21.6995"/>
<polygon fill="midnightblue" stroke="midnightblue" points="539.018,-29.3599 529.593,-34.2009 539.979,-36.2935 539.018,-29.3599"/>
</g>
<!-- Node30 -->
<g id="node30" class="node"><title>Node30</title>
<g id="a_node30"><a xlink:href="classfactory_1_1kernel__header.html" target="_top" xlink:title="factory::kernel_header">
<polygon fill="white" stroke="black" points="0.5,-143.5 0.5,-162.5 113.5,-162.5 113.5,-143.5 0.5,-143.5"/>
<text text-anchor="middle" x="57" y="-150.5" font-family="Helvetica,sans-Serif" font-size="10.00">factory::kernel_header</text>
</a>
</g>
</g>
<!-- Node30&#45;&gt;Node20 -->
<g id="edge30" class="edge"><title>Node30&#45;&gt;Node20</title>
<path fill="none" stroke="midnightblue" d="M123.481,-161.406C132.381,-162.549 141.449,-163.713 150.158,-164.831"/>
<polygon fill="midnightblue" stroke="midnightblue" points="123.895,-157.931 113.531,-160.129 123.004,-164.874 123.895,-157.931"/>
</g>
</g>
</svg>
