<?xml version="1.0" encoding="UTF-8" standalone="no"?>
<!DOCTYPE svg PUBLIC "-//W3C//DTD SVG 1.1//EN"
 "http://www.w3.org/Graphics/SVG/1.1/DTD/svg11.dtd">
<!-- Generated by graphviz version 2.36.0 (20140111.2315)
 -->
<!-- Title: Graphical Class Hierarchy Pages: 1 -->
<svg width="210pt" height="142pt"
 viewBox="0.00 0.00 210.00 142.00" xmlns="http://www.w3.org/2000/svg" xmlns:xlink="http://www.w3.org/1999/xlink">
<g id="graph0" class="graph" transform="scale(1 1) rotate(0) translate(4 138)">
<title>Graphical Class Hierarchy</title>
<polygon fill="white" stroke="none" points="-4,4 -4,-138 206,-138 206,4 -4,4"/>
<!-- Node1 -->
<g id="node1" class="node"><title>Node1</title>
<polygon fill="white" stroke="#bfbfbf" points="0.5,-57.5 0.5,-76.5 85.5,-76.5 85.5,-57.5 0.5,-57.5"/>
<text text-anchor="middle" x="43" y="-64.5" font-family="Helvetica,sans-Serif" font-size="10.00">TestWithParam</text>
</g>
<!-- Node2 -->
<g id="node2" class="node"><title>Node2</title>
<g id="a_node2"><a xlink:href="structBigSizeTest.html" target="_top" xlink:title="BigSizeTest">
<polygon fill="white" stroke="black" points="127,-114.5 127,-133.5 197,-133.5 197,-114.5 127,-114.5"/>
<text text-anchor="middle" x="162" y="-121.5" font-family="Helvetica,sans-Serif" font-size="10.00">BigSizeTest</text>
</a>
</g>
</g>
<!-- Node1&#45;&gt;Node2 -->
<g id="edge1" class="edge"><title>Node1&#45;&gt;Node2</title>
<path fill="none" stroke="midnightblue" d="M72.8132,-81.0372C94.1298,-91.4222 122.602,-105.293 141.353,-114.428"/>
<polygon fill="midnightblue" stroke="midnightblue" points="74.106,-77.7738 63.5832,-76.5405 71.0402,-84.0667 74.106,-77.7738"/>
</g>
<!-- Node3 -->
<g id="node3" class="node"><title>Node3</title>
<g id="a_node3"><a xlink:href="structLBufferTest.html" target="_top" xlink:title="LBufferTest">
<polygon fill="white" stroke="black" points="128,-76.5 128,-95.5 196,-95.5 196,-76.5 128,-76.5"/>
<text text-anchor="middle" x="162" y="-83.5" font-family="Helvetica,sans-Serif" font-size="10.00">LBufferTest</text>
</a>
</g>
</g>
<!-- Node1&#45;&gt;Node3 -->
<g id="edge2" class="edge"><title>Node1&#45;&gt;Node3</title>
<path fill="none" stroke="midnightblue" d="M95.4595,-75.3567C106.368,-77.1281 117.607,-78.9533 127.632,-80.5812"/>
<polygon fill="midnightblue" stroke="midnightblue" points="96.011,-71.9005 85.5793,-73.7522 94.8889,-78.8099 96.011,-71.9005"/>
</g>
<!-- Node4 -->
<g id="node4" class="node"><title>Node4</title>
<g id="a_node4"><a xlink:href="structSHA1Test.html" target="_top" xlink:title="SHA1Test">
<polygon fill="white" stroke="black" points="131,-38.5 131,-57.5 193,-57.5 193,-38.5 131,-38.5"/>
<text text-anchor="middle" x="162" y="-45.5" font-family="Helvetica,sans-Serif" font-size="10.00">SHA1Test</text>
</a>
</g>
</g>
<!-- Node1&#45;&gt;Node4 -->
<g id="edge3" class="edge"><title>Node1&#45;&gt;Node4</title>
<path fill="none" stroke="midnightblue" d="M95.5931,-58.6216C107.681,-56.6586 120.168,-54.6308 130.95,-52.8799"/>
<polygon fill="midnightblue" stroke="midnightblue" points="94.8889,-55.1901 85.5793,-60.2478 96.011,-62.0995 94.8889,-55.1901"/>
</g>
<!-- Node5 -->
<g id="node5" class="node"><title>Node5</title>
<g id="a_node5"><a xlink:href="structSmallSizeTest.html" target="_top" xlink:title="SmallSizeTest">
<polygon fill="white" stroke="black" points="122,-0.5 122,-19.5 202,-19.5 202,-0.5 122,-0.5"/>
<text text-anchor="middle" x="162" y="-7.5" font-family="Helvetica,sans-Serif" font-size="10.00">SmallSizeTest</text>
</a>
</g>
</g>
<!-- Node1&#45;&gt;Node5 -->
<g id="edge4" class="edge"><title>Node1&#45;&gt;Node5</title>
<path fill="none" stroke="midnightblue" d="M72.8132,-52.9628C94.1298,-42.5778 122.602,-28.7069 141.353,-19.5716"/>
<polygon fill="midnightblue" stroke="midnightblue" points="71.0402,-49.9333 63.5832,-57.4595 74.106,-56.2262 71.0402,-49.9333"/>
</g>
</g>
</svg>
