<?xml version="1.0" encoding="UTF-8" standalone="no"?>
<!DOCTYPE svg PUBLIC "-//W3C//DTD SVG 1.1//EN"
 "http://www.w3.org/Graphics/SVG/1.1/DTD/svg11.dtd">
<!-- Generated by graphviz version 2.38.0 (20140413.2041)
 -->
<!-- Title: Graphical Class Hierarchy Pages: 1 -->
<svg width="246pt" height="137pt"
 viewBox="0.00 0.00 246.00 137.00" xmlns="http://www.w3.org/2000/svg" xmlns:xlink="http://www.w3.org/1999/xlink">
<g id="graph0" class="graph" transform="scale(1 1) rotate(0) translate(4 133)">
<title>Graphical Class Hierarchy</title>
<polygon fill="white" stroke="none" points="-4,4 -4,-133 242,-133 242,4 -4,4"/>
<!-- Node1 -->
<g id="node1" class="node"><title>Node1</title>
<g id="a_node1"><a xlink:href="structstdx_1_1bits_1_1Field.html" target="_top" xlink:title="stdx::bits::Field\&lt;\l Args... \&gt;">
<polygon fill="white" stroke="black" points="0,-49.5 0,-79.5 90,-79.5 90,-49.5 0,-49.5"/>
<text text-anchor="start" x="8" y="-67.5" font-family="Helvetica,sans-Serif" font-size="10.00">stdx::bits::Field&lt;</text>
<text text-anchor="middle" x="45" y="-56.5" font-family="Helvetica,sans-Serif" font-size="10.00"> Args... &gt;</text>
</a>
</g>
</g>
<!-- Node2 -->
<g id="node2" class="node"><title>Node2</title>
<g id="a_node2"><a xlink:href="structstdx_1_1bits_1_1Field_3_01Key_00_01Value_00_01Args_8_8_8_01_4.html" target="_top" xlink:title="stdx::bits::Field\&lt;\l Key, Value, Args... \&gt;">
<polygon fill="white" stroke="black" points="126,-98.5 126,-128.5 238,-128.5 238,-98.5 126,-98.5"/>
<text text-anchor="start" x="134" y="-116.5" font-family="Helvetica,sans-Serif" font-size="10.00">stdx::bits::Field&lt;</text>
<text text-anchor="middle" x="182" y="-105.5" font-family="Helvetica,sans-Serif" font-size="10.00"> Key, Value, Args... &gt;</text>
</a>
</g>
</g>
<!-- Node1&#45;&gt;Node2 -->
<g id="edge1" class="edge"><title>Node1&#45;&gt;Node2</title>
<path fill="none" stroke="midnightblue" d="M97.0672,-83.0355C111.009,-88.0959 125.947,-93.5177 139.299,-98.3641"/>
<polygon fill="midnightblue" stroke="midnightblue" points="98.2001,-79.7234 87.606,-79.6014 95.8118,-86.3033 98.2001,-79.7234"/>
</g>
<!-- Node3 -->
<g id="node3" class="node"><title>Node3</title>
<g id="a_node3"><a xlink:href="structstdx_1_1bits_1_1Function.html" target="_top" xlink:title="stdx::bits::Function\l\&lt; Args \&gt;">
<polygon fill="white" stroke="black" points="131.5,-49.5 131.5,-79.5 232.5,-79.5 232.5,-49.5 131.5,-49.5"/>
<text text-anchor="start" x="139.5" y="-67.5" font-family="Helvetica,sans-Serif" font-size="10.00">stdx::bits::Function</text>
<text text-anchor="middle" x="182" y="-56.5" font-family="Helvetica,sans-Serif" font-size="10.00">&lt; Args &gt;</text>
</a>
</g>
</g>
<!-- Node1&#45;&gt;Node3 -->
<g id="edge2" class="edge"><title>Node1&#45;&gt;Node3</title>
<path fill="none" stroke="midnightblue" d="M100.221,-64.5C110.415,-64.5 121.03,-64.5 131.085,-64.5"/>
<polygon fill="midnightblue" stroke="midnightblue" points="100.204,-61.0001 90.204,-64.5 100.204,-68.0001 100.204,-61.0001"/>
</g>
<!-- Node4 -->
<g id="node4" class="node"><title>Node4</title>
<g id="a_node4"><a xlink:href="structstdx_1_1bits_1_1Object.html" target="_top" xlink:title="stdx::bits::Object\l\&lt; Args \&gt;">
<polygon fill="white" stroke="black" points="136,-0.5 136,-30.5 228,-30.5 228,-0.5 136,-0.5"/>
<text text-anchor="start" x="144" y="-18.5" font-family="Helvetica,sans-Serif" font-size="10.00">stdx::bits::Object</text>
<text text-anchor="middle" x="182" y="-7.5" font-family="Helvetica,sans-Serif" font-size="10.00">&lt; Args &gt;</text>
</a>
</g>
</g>
<!-- Node1&#45;&gt;Node4 -->
<g id="edge3" class="edge"><title>Node1&#45;&gt;Node4</title>
<path fill="none" stroke="midnightblue" d="M97.0672,-45.9645C111.009,-40.9041 125.947,-35.4823 139.299,-30.6359"/>
<polygon fill="midnightblue" stroke="midnightblue" points="95.8118,-42.6967 87.606,-49.3986 98.2001,-49.2766 95.8118,-42.6967"/>
</g>
</g>
</svg>
