<?xml version="1.0" encoding="UTF-8" standalone="no"?>
<!DOCTYPE svg PUBLIC "-//W3C//DTD SVG 1.1//EN"
 "http://www.w3.org/Graphics/SVG/1.1/DTD/svg11.dtd">
<!-- Generated by graphviz version 2.36.0 (20140111.2315)
 -->
<!-- Title: Graphical Class Hierarchy Pages: 1 -->
<svg width="646pt" height="370pt"
 viewBox="0.00 0.00 646.00 370.00" xmlns="http://www.w3.org/2000/svg" xmlns:xlink="http://www.w3.org/1999/xlink">
<g id="graph0" class="graph" transform="scale(1 1) rotate(0) translate(4 366)">
<title>Graphical Class Hierarchy</title>
<polygon fill="white" stroke="none" points="-4,4 -4,-366 642,-366 642,4 -4,4"/>
<!-- Node1 -->
<g id="node1" class="node"><title>Node1</title>
<g id="a_node1"><a xlink:href="classfactory_1_1pipeline__base.html" target="_top" xlink:title="factory::pipeline_base">
<polygon fill="white" stroke="black" points="0,-117.5 0,-136.5 112,-136.5 112,-117.5 0,-117.5"/>
<text text-anchor="middle" x="56" y="-124.5" font-family="Helvetica,sans-Serif" font-size="10.00">factory::pipeline_base</text>
</a>
</g>
</g>
<!-- Node2 -->
<g id="node2" class="node"><title>Node2</title>
<g id="a_node2"><a xlink:href="classfactory_1_1basic__pipeline.html" target="_top" xlink:title="factory::basic_pipeline\&lt; T \&gt;">
<polygon fill="white" stroke="black" points="148,-279.5 148,-298.5 286,-298.5 286,-279.5 148,-279.5"/>
<text text-anchor="middle" x="217" y="-286.5" font-family="Helvetica,sans-Serif" font-size="10.00">factory::basic_pipeline&lt; T &gt;</text>
</a>
</g>
</g>
<!-- Node1&#45;&gt;Node2 -->
<g id="edge1" class="edge"><title>Node1&#45;&gt;Node2</title>
<path fill="none" stroke="midnightblue" d="M70.0401,-144.881C86.8235,-167.332 117.472,-206.48 148,-236 165.324,-252.752 187.753,-269.396 202.014,-279.442"/>
<polygon fill="midnightblue" stroke="midnightblue" points="72.6903,-142.579 63.9292,-136.621 67.0629,-146.742 72.6903,-142.579"/>
</g>
<!-- Node5 -->
<g id="node5" class="node"><title>Node5</title>
<g id="a_node5"><a xlink:href="classfactory_1_1basic__pipeline.html" target="_top" xlink:title="factory::basic_pipeline\l\&lt; T, Kernels, Traits,\l Threads, Mutex, Lock,\l Semaphore \&gt;">
<polygon fill="white" stroke="black" points="158,-175 158,-227 276,-227 276,-175 158,-175"/>
<text text-anchor="start" x="166" y="-215" font-family="Helvetica,sans-Serif" font-size="10.00">factory::basic_pipeline</text>
<text text-anchor="start" x="166" y="-204" font-family="Helvetica,sans-Serif" font-size="10.00">&lt; T, Kernels, Traits,</text>
<text text-anchor="start" x="166" y="-193" font-family="Helvetica,sans-Serif" font-size="10.00"> Threads, Mutex, Lock,</text>
<text text-anchor="middle" x="217" y="-182" font-family="Helvetica,sans-Serif" font-size="10.00"> Semaphore &gt;</text>
</a>
</g>
</g>
<!-- Node1&#45;&gt;Node5 -->
<g id="edge4" class="edge"><title>Node1&#45;&gt;Node5</title>
<path fill="none" stroke="midnightblue" d="M86.6422,-140.796C107.243,-150.384 135.334,-163.457 160.075,-174.972"/>
<polygon fill="midnightblue" stroke="midnightblue" points="88.004,-137.569 77.461,-136.523 85.0503,-143.915 88.004,-137.569"/>
</g>
<!-- Node15 -->
<g id="node15" class="node"><title>Node15</title>
<g id="a_node15"><a xlink:href="classfactory_1_1Factory.html" target="_top" xlink:title="factory::Factory\&lt; T \&gt;">
<polygon fill="white" stroke="black" points="162,-136.5 162,-155.5 272,-155.5 272,-136.5 162,-136.5"/>
<text text-anchor="middle" x="217" y="-143.5" font-family="Helvetica,sans-Serif" font-size="10.00">factory::Factory&lt; T &gt;</text>
</a>
</g>
</g>
<!-- Node1&#45;&gt;Node15 -->
<g id="edge14" class="edge"><title>Node1&#45;&gt;Node15</title>
<path fill="none" stroke="midnightblue" d="M122.104,-134.78C135.274,-136.354 148.99,-137.992 161.739,-139.516"/>
<polygon fill="midnightblue" stroke="midnightblue" points="122.509,-131.303 112.164,-133.592 121.678,-138.254 122.509,-131.303"/>
</g>
<!-- Node16 -->
<g id="node16" class="node"><title>Node16</title>
<g id="a_node16"><a xlink:href="classfactory_1_1Multi__pipeline.html" target="_top" xlink:title="factory::Multi_pipeline\&lt; T \&gt;">
<polygon fill="white" stroke="black" points="149,-98.5 149,-117.5 285,-117.5 285,-98.5 149,-98.5"/>
<text text-anchor="middle" x="217" y="-105.5" font-family="Helvetica,sans-Serif" font-size="10.00">factory::Multi_pipeline&lt; T &gt;</text>
</a>
</g>
</g>
<!-- Node1&#45;&gt;Node16 -->
<g id="edge15" class="edge"><title>Node1&#45;&gt;Node16</title>
<path fill="none" stroke="midnightblue" d="M122.316,-119.195C131.08,-118.148 140.081,-117.072 148.876,-116.021"/>
<polygon fill="midnightblue" stroke="midnightblue" points="121.678,-115.746 112.164,-120.408 122.509,-122.697 121.678,-115.746"/>
</g>
<!-- Node17 -->
<g id="node17" class="node"><title>Node17</title>
<g id="a_node17"><a xlink:href="classfactory_1_1process__handler.html" target="_top" xlink:title="factory::process_handler\l\&lt; T, Router \&gt;">
<polygon fill="white" stroke="black" points="155,-49 155,-79 279,-79 279,-49 155,-49"/>
<text text-anchor="start" x="163" y="-67" font-family="Helvetica,sans-Serif" font-size="10.00">factory::process_handler</text>
<text text-anchor="middle" x="217" y="-56" font-family="Helvetica,sans-Serif" font-size="10.00">&lt; T, Router &gt;</text>
</a>
</g>
</g>
<!-- Node1&#45;&gt;Node17 -->
<g id="edge16" class="edge"><title>Node1&#45;&gt;Node17</title>
<path fill="none" stroke="midnightblue" d="M88.9878,-113.245C106.369,-105.871 128.282,-96.7373 148,-89 156.43,-85.6919 165.498,-82.267 174.177,-79.0528"/>
<polygon fill="midnightblue" stroke="midnightblue" points="87.1572,-110.22 79.3284,-117.359 89.9002,-116.66 87.1572,-110.22"/>
</g>
<!-- Node18 -->
<g id="node18" class="node"><title>Node18</title>
<g id="a_node18"><a xlink:href="classfactory_1_1remote__client.html" target="_top" xlink:title="factory::remote_client\l\&lt; T, Socket, Router \&gt;">
<polygon fill="white" stroke="black" points="160.5,-0 160.5,-30 273.5,-30 273.5,-0 160.5,-0"/>
<text text-anchor="start" x="168.5" y="-18" font-family="Helvetica,sans-Serif" font-size="10.00">factory::remote_client</text>
<text text-anchor="middle" x="217" y="-7" font-family="Helvetica,sans-Serif" font-size="10.00">&lt; T, Socket, Router &gt;</text>
</a>
</g>
</g>
<!-- Node1&#45;&gt;Node18 -->
<g id="edge17" class="edge"><title>Node1&#45;&gt;Node18</title>
<path fill="none" stroke="midnightblue" d="M70.9566,-109.576C87.4843,-89.9681 116.74,-58.3367 148,-39 153.43,-35.6412 159.395,-32.6681 165.467,-30.0604"/>
<polygon fill="midnightblue" stroke="midnightblue" points="68.1554,-107.472 64.4901,-117.412 73.5545,-111.927 68.1554,-107.472"/>
</g>
<!-- Node3 -->
<g id="node3" class="node"><title>Node3</title>
<g id="a_node3"><a xlink:href="classfactory_1_1parallel__pipeline.html" target="_top" xlink:title="factory::parallel_pipeline\&lt; T \&gt;">
<polygon fill="white" stroke="black" points="324,-342.5 324,-361.5 470,-361.5 470,-342.5 324,-342.5"/>
<text text-anchor="middle" x="397" y="-349.5" font-family="Helvetica,sans-Serif" font-size="10.00">factory::parallel_pipeline&lt; T &gt;</text>
</a>
</g>
</g>
<!-- Node2&#45;&gt;Node3 -->
<g id="edge2" class="edge"><title>Node2&#45;&gt;Node3</title>
<path fill="none" stroke="midnightblue" d="M247.981,-302.595C268.55,-311.623 296.612,-323.36 322,-332 333.213,-335.816 345.573,-339.396 356.928,-342.443"/>
<polygon fill="midnightblue" stroke="midnightblue" points="249.372,-299.383 238.812,-298.532 246.536,-305.783 249.372,-299.383"/>
</g>
<!-- Node4 -->
<g id="node4" class="node"><title>Node4</title>
<g id="a_node4"><a xlink:href="structfactory_1_1io__pipeline.html" target="_top" xlink:title="factory::io_pipeline\&lt; T \&gt;">
<polygon fill="white" stroke="black" points="512,-342.5 512,-361.5 634,-361.5 634,-342.5 512,-342.5"/>
<text text-anchor="middle" x="573" y="-349.5" font-family="Helvetica,sans-Serif" font-size="10.00">factory::io_pipeline&lt; T &gt;</text>
</a>
</g>
</g>
<!-- Node3&#45;&gt;Node4 -->
<g id="edge3" class="edge"><title>Node3&#45;&gt;Node4</title>
<path fill="none" stroke="midnightblue" d="M480.222,-352C490.906,-352 501.687,-352 511.917,-352"/>
<polygon fill="midnightblue" stroke="midnightblue" points="480.029,-348.5 470.028,-352 480.028,-355.5 480.029,-348.5"/>
</g>
<!-- Node6 -->
<g id="node6" class="node"><title>Node6</title>
<g id="a_node6"><a xlink:href="structfactory_1_1basic__socket__pipeline.html" target="_top" xlink:title="factory::basic_socket\l_pipeline\&lt; T, process\l_handler\&lt; T, basic_router\l\&lt; T \&gt; \&gt; \&gt;">
<polygon fill="white" stroke="black" points="333,-271 333,-323 461,-323 461,-271 333,-271"/>
<text text-anchor="start" x="341" y="-311" font-family="Helvetica,sans-Serif" font-size="10.00">factory::basic_socket</text>
<text text-anchor="start" x="341" y="-300" font-family="Helvetica,sans-Serif" font-size="10.00">_pipeline&lt; T, process</text>
<text text-anchor="start" x="341" y="-289" font-family="Helvetica,sans-Serif" font-size="10.00">_handler&lt; T, basic_router</text>
<text text-anchor="middle" x="397" y="-278" font-family="Helvetica,sans-Serif" font-size="10.00">&lt; T &gt; &gt; &gt;</text>
</a>
</g>
</g>
<!-- Node5&#45;&gt;Node6 -->
<g id="edge5" class="edge"><title>Node5&#45;&gt;Node6</title>
<path fill="none" stroke="midnightblue" d="M271.53,-232.077C287.655,-241.246 305.463,-251.183 322,-260 328.718,-263.582 335.825,-267.266 342.874,-270.857"/>
<polygon fill="midnightblue" stroke="midnightblue" points="273.183,-228.991 262.763,-227.074 269.713,-235.071 273.183,-228.991"/>
</g>
<!-- Node8 -->
<g id="node8" class="node"><title>Node8</title>
<g id="a_node8"><a xlink:href="structfactory_1_1basic__socket__pipeline.html" target="_top" xlink:title="factory::basic_socket\l_pipeline\&lt; T, process\l_handler\&lt; T, Router \&gt; \&gt;">
<polygon fill="white" stroke="black" points="336,-210.5 336,-251.5 458,-251.5 458,-210.5 336,-210.5"/>
<text text-anchor="start" x="344" y="-239.5" font-family="Helvetica,sans-Serif" font-size="10.00">factory::basic_socket</text>
<text text-anchor="start" x="344" y="-228.5" font-family="Helvetica,sans-Serif" font-size="10.00">_pipeline&lt; T, process</text>
<text text-anchor="middle" x="397" y="-217.5" font-family="Helvetica,sans-Serif" font-size="10.00">_handler&lt; T, Router &gt; &gt;</text>
</a>
</g>
</g>
<!-- Node5&#45;&gt;Node8 -->
<g id="edge7" class="edge"><title>Node5&#45;&gt;Node8</title>
<path fill="none" stroke="midnightblue" d="M286.281,-212.508C302.575,-215.254 319.85,-218.166 335.753,-220.846"/>
<polygon fill="midnightblue" stroke="midnightblue" points="286.726,-209.034 276.284,-210.823 285.563,-215.936 286.726,-209.034"/>
</g>
<!-- Node11 -->
<g id="node11" class="node"><title>Node11</title>
<g id="a_node11"><a xlink:href="structfactory_1_1basic__socket__pipeline.html" target="_top" xlink:title="factory::basic_socket\l_pipeline\&lt; T, remote\l_client\&lt; T, Socket, Router \&gt; \&gt;">
<polygon fill="white" stroke="black" points="322,-150.5 322,-191.5 472,-191.5 472,-150.5 322,-150.5"/>
<text text-anchor="start" x="330" y="-179.5" font-family="Helvetica,sans-Serif" font-size="10.00">factory::basic_socket</text>
<text text-anchor="start" x="330" y="-168.5" font-family="Helvetica,sans-Serif" font-size="10.00">_pipeline&lt; T, remote</text>
<text text-anchor="middle" x="397" y="-157.5" font-family="Helvetica,sans-Serif" font-size="10.00">_client&lt; T, Socket, Router &gt; &gt;</text>
</a>
</g>
</g>
<!-- Node5&#45;&gt;Node11 -->
<g id="edge10" class="edge"><title>Node5&#45;&gt;Node11</title>
<path fill="none" stroke="midnightblue" d="M286.379,-189.475C298.039,-187.51 310.197,-185.461 321.994,-183.473"/>
<polygon fill="midnightblue" stroke="midnightblue" points="285.563,-186.064 276.284,-191.177 286.726,-192.966 285.563,-186.064"/>
</g>
<!-- Node13 -->
<g id="node13" class="node"><title>Node13</title>
<g id="a_node13"><a xlink:href="structfactory_1_1basic__socket__pipeline.html" target="_top" xlink:title="factory::basic_socket\l_pipeline\&lt; T, Handler \&gt;">
<polygon fill="white" stroke="black" points="337.5,-102 337.5,-132 456.5,-132 456.5,-102 337.5,-102"/>
<text text-anchor="start" x="345.5" y="-120" font-family="Helvetica,sans-Serif" font-size="10.00">factory::basic_socket</text>
<text text-anchor="middle" x="397" y="-109" font-family="Helvetica,sans-Serif" font-size="10.00">_pipeline&lt; T, Handler &gt;</text>
</a>
</g>
</g>
<!-- Node5&#45;&gt;Node13 -->
<g id="edge12" class="edge"><title>Node5&#45;&gt;Node13</title>
<path fill="none" stroke="midnightblue" d="M277.803,-169.78C280.588,-168.188 283.332,-166.59 286,-165 302.519,-155.155 304.692,-149.378 322,-141 328.808,-137.705 336.178,-134.703 343.539,-132.023"/>
<polygon fill="midnightblue" stroke="midnightblue" points="275.824,-166.877 268.817,-174.823 279.25,-172.981 275.824,-166.877"/>
</g>
<!-- Node14 -->
<g id="node14" class="node"><title>Node14</title>
<g id="a_node14"><a xlink:href="structfactory_1_1timer__pipeline.html" target="_top" xlink:title="factory::timer_pipeline\&lt; T \&gt;">
<polygon fill="white" stroke="black" points="328.5,-63.5 328.5,-82.5 465.5,-82.5 465.5,-63.5 328.5,-63.5"/>
<text text-anchor="middle" x="397" y="-70.5" font-family="Helvetica,sans-Serif" font-size="10.00">factory::timer_pipeline&lt; T &gt;</text>
</a>
</g>
</g>
<!-- Node5&#45;&gt;Node14 -->
<g id="edge13" class="edge"><title>Node5&#45;&gt;Node14</title>
<path fill="none" stroke="midnightblue" d="M282.653,-168.243C283.806,-167.189 284.924,-166.108 286,-165 311.209,-139.055 293.916,-114.802 322,-92 326.737,-88.1541 332.16,-85.0768 337.871,-82.6161"/>
<polygon fill="midnightblue" stroke="midnightblue" points="280.125,-165.788 274.587,-174.821 284.549,-171.213 280.125,-165.788"/>
</g>
<!-- Node7 -->
<g id="node7" class="node"><title>Node7</title>
<g id="a_node7"><a xlink:href="structfactory_1_1child__process__pipeline.html" target="_top" xlink:title="factory::child_process\l_pipeline\&lt; T, basic_router\l\&lt; T \&gt; \&gt;">
<polygon fill="white" stroke="black" points="508.5,-279.5 508.5,-320.5 637.5,-320.5 637.5,-279.5 508.5,-279.5"/>
<text text-anchor="start" x="516.5" y="-308.5" font-family="Helvetica,sans-Serif" font-size="10.00">factory::child_process</text>
<text text-anchor="start" x="516.5" y="-297.5" font-family="Helvetica,sans-Serif" font-size="10.00">_pipeline&lt; T, basic_router</text>
<text text-anchor="middle" x="573" y="-286.5" font-family="Helvetica,sans-Serif" font-size="10.00">&lt; T &gt; &gt;</text>
</a>
</g>
</g>
<!-- Node6&#45;&gt;Node7 -->
<g id="edge6" class="edge"><title>Node6&#45;&gt;Node7</title>
<path fill="none" stroke="midnightblue" d="M471.516,-298.268C483.796,-298.479 496.442,-298.697 508.445,-298.904"/>
<polygon fill="midnightblue" stroke="midnightblue" points="471.369,-294.765 461.31,-298.092 471.248,-301.764 471.369,-294.765"/>
</g>
<!-- Node9 -->
<g id="node9" class="node"><title>Node9</title>
<g id="a_node9"><a xlink:href="structfactory_1_1child__process__pipeline.html" target="_top" xlink:title="factory::child_process\l_pipeline\&lt; T, Router \&gt;">
<polygon fill="white" stroke="black" points="516,-231 516,-261 630,-261 630,-231 516,-231"/>
<text text-anchor="start" x="524" y="-249" font-family="Helvetica,sans-Serif" font-size="10.00">factory::child_process</text>
<text text-anchor="middle" x="573" y="-238" font-family="Helvetica,sans-Serif" font-size="10.00">_pipeline&lt; T, Router &gt;</text>
</a>
</g>
</g>
<!-- Node8&#45;&gt;Node9 -->
<g id="edge8" class="edge"><title>Node8&#45;&gt;Node9</title>
<path fill="none" stroke="midnightblue" d="M468.574,-237.084C484.301,-238.44 500.772,-239.86 515.828,-241.158"/>
<polygon fill="midnightblue" stroke="midnightblue" points="468.632,-233.576 458.368,-236.204 468.031,-240.55 468.632,-233.576"/>
</g>
<!-- Node10 -->
<g id="node10" class="node"><title>Node10</title>
<g id="a_node10"><a xlink:href="structfactory_1_1process__pipeline.html" target="_top" xlink:title="factory::process_pipeline\l\&lt; T, Router \&gt;">
<polygon fill="white" stroke="black" points="510.5,-182 510.5,-212 635.5,-212 635.5,-182 510.5,-182"/>
<text text-anchor="start" x="518.5" y="-200" font-family="Helvetica,sans-Serif" font-size="10.00">factory::process_pipeline</text>
<text text-anchor="middle" x="573" y="-189" font-family="Helvetica,sans-Serif" font-size="10.00">&lt; T, Router &gt;</text>
</a>
</g>
</g>
<!-- Node8&#45;&gt;Node10 -->
<g id="edge9" class="edge"><title>Node8&#45;&gt;Node10</title>
<path fill="none" stroke="midnightblue" d="M468.349,-217.254C482.228,-214.542 496.694,-211.715 510.263,-209.064"/>
<polygon fill="midnightblue" stroke="midnightblue" points="467.512,-213.851 458.368,-219.204 468.854,-220.721 467.512,-213.851"/>
</g>
<!-- Node12 -->
<g id="node12" class="node"><title>Node12</title>
<g id="a_node12"><a xlink:href="structfactory_1_1socket__pipeline.html" target="_top" xlink:title="factory::socket_pipeline\l\&lt; T, Socket, Router \&gt;">
<polygon fill="white" stroke="black" points="513,-133 513,-163 633,-163 633,-133 513,-133"/>
<text text-anchor="start" x="521" y="-151" font-family="Helvetica,sans-Serif" font-size="10.00">factory::socket_pipeline</text>
<text text-anchor="middle" x="573" y="-140" font-family="Helvetica,sans-Serif" font-size="10.00">&lt; T, Socket, Router &gt;</text>
</a>
</g>
</g>
<!-- Node11&#45;&gt;Node12 -->
<g id="edge11" class="edge"><title>Node11&#45;&gt;Node12</title>
<path fill="none" stroke="midnightblue" d="M481.98,-159.899C492.381,-158.524 502.841,-157.142 512.762,-155.83"/>
<polygon fill="midnightblue" stroke="midnightblue" points="481.499,-156.432 472.044,-161.213 482.416,-163.372 481.499,-156.432"/>
</g>
</g>
</svg>
