<?xml version="1.0" encoding="UTF-8" standalone="no"?>
<!DOCTYPE svg PUBLIC "-//W3C//DTD SVG 1.1//EN"
 "http://www.w3.org/Graphics/SVG/1.1/DTD/svg11.dtd">
<!-- Generated by graphviz version 2.36.0 (20140111.2315)
 -->
<!-- Title: Graphical Class Hierarchy Pages: 1 -->
<svg width="220pt" height="77pt"
 viewBox="0.00 0.00 220.00 77.00" xmlns="http://www.w3.org/2000/svg" xmlns:xlink="http://www.w3.org/1999/xlink">
<g id="graph0" class="graph" transform="scale(1 1) rotate(0) translate(4 73)">
<title>Graphical Class Hierarchy</title>
<polygon fill="white" stroke="none" points="-4,4 -4,-73 216,-73 216,4 -4,4"/>
<!-- Node1 -->
<g id="node1" class="node"><title>Node1</title>
<polygon fill="white" stroke="#bfbfbf" points="0,-27.5 0,-46.5 52,-46.5 52,-27.5 0,-27.5"/>
<text text-anchor="middle" x="26" y="-34.5" font-family="Helvetica,sans-Serif" font-size="10.00">pstream</text>
</g>
<!-- Node2 -->
<g id="node2" class="node"><title>Node2</title>
<g id="a_node2"><a xlink:href="structfactory_1_1kstream.html" target="_top" xlink:title="factory::kstream\&lt; T \&gt;">
<polygon fill="white" stroke="black" points="94,-49.5 94,-68.5 206,-68.5 206,-49.5 94,-49.5"/>
<text text-anchor="middle" x="150" y="-56.5" font-family="Helvetica,sans-Serif" font-size="10.00">factory::kstream&lt; T &gt;</text>
</a>
</g>
</g>
<!-- Node1&#45;&gt;Node2 -->
<g id="edge1" class="edge"><title>Node1&#45;&gt;Node2</title>
<path fill="none" stroke="midnightblue" d="M62.3431,-43.3734C72.885,-45.2743 84.677,-47.4008 96.085,-49.458"/>
<polygon fill="midnightblue" stroke="midnightblue" points="62.7409,-39.8887 52.2785,-41.5584 61.4986,-46.7776 62.7409,-39.8887"/>
</g>
<!-- Node3 -->
<g id="node3" class="node"><title>Node3</title>
<g id="a_node3"><a xlink:href="structfactory_1_1kstream.html" target="_top" xlink:title="factory::kstream\&lt; kernel\l_type \&gt;">
<polygon fill="white" stroke="black" points="88.5,-0 88.5,-30 211.5,-30 211.5,-0 88.5,-0"/>
<text text-anchor="start" x="96.5" y="-18" font-family="Helvetica,sans-Serif" font-size="10.00">factory::kstream&lt; kernel</text>
<text text-anchor="middle" x="150" y="-7" font-family="Helvetica,sans-Serif" font-size="10.00">_type &gt;</text>
</a>
</g>
</g>
<!-- Node1&#45;&gt;Node3 -->
<g id="edge2" class="edge"><title>Node1&#45;&gt;Node3</title>
<path fill="none" stroke="midnightblue" d="M62.1876,-30.6547C70.3776,-29.1778 79.3288,-27.5637 88.2723,-25.9509"/>
<polygon fill="midnightblue" stroke="midnightblue" points="61.4986,-27.2224 52.2785,-32.4416 62.7409,-34.1113 61.4986,-27.2224"/>
</g>
</g>
</svg>
