<?xml version="1.0" encoding="UTF-8" standalone="no"?>
<!DOCTYPE svg PUBLIC "-//W3C//DTD SVG 1.1//EN"
 "http://www.w3.org/Graphics/SVG/1.1/DTD/svg11.dtd">
<!-- Generated by graphviz version 2.36.0 (20140111.2315)
 -->
<!-- Title: Graphical Class Hierarchy Pages: 1 -->
<svg width="224pt" height="322pt"
 viewBox="0.00 0.00 224.00 322.00" xmlns="http://www.w3.org/2000/svg" xmlns:xlink="http://www.w3.org/1999/xlink">
<g id="graph0" class="graph" transform="scale(1 1) rotate(0) translate(4 318)">
<title>Graphical Class Hierarchy</title>
<polygon fill="white" stroke="none" points="-4,4 -4,-318 220,-318 220,4 -4,4"/>
<!-- Node1 -->
<g id="node1" class="node"><title>Node1</title>
<polygon fill="white" stroke="#bfbfbf" points="0.5,-142.5 0.5,-161.5 47.5,-161.5 47.5,-142.5 0.5,-142.5"/>
<text text-anchor="middle" x="24" y="-149.5" font-family="Helvetica,sans-Serif" font-size="10.00">iterator</text>
</g>
<!-- Node2 -->
<g id="node2" class="node"><title>Node2</title>
<g id="a_node2"><a xlink:href="structstdx_1_1back__insert__iterator.html" target="_top" xlink:title="stdx::back_insert_iterator\l\&lt; Container \&gt;">
<polygon fill="white" stroke="black" points="86.5,-284 86.5,-314 213.5,-314 213.5,-284 86.5,-284"/>
<text text-anchor="start" x="94.5" y="-302" font-family="Helvetica,sans-Serif" font-size="10.00">stdx::back_insert_iterator</text>
<text text-anchor="middle" x="150" y="-291" font-family="Helvetica,sans-Serif" font-size="10.00">&lt; Container &gt;</text>
</a>
</g>
</g>
<!-- Node1&#45;&gt;Node2 -->
<g id="edge1" class="edge"><title>Node1&#45;&gt;Node2</title>
<path fill="none" stroke="midnightblue" d="M29.6634,-171.742C36.9274,-198.411 53.3968,-245.845 84,-274 88.182,-277.847 93.0193,-281.125 98.1304,-283.912"/>
<polygon fill="midnightblue" stroke="midnightblue" points="32.9646,-170.523 27.0994,-161.7 26.1822,-172.255 32.9646,-170.523"/>
</g>
<!-- Node3 -->
<g id="node3" class="node"><title>Node3</title>
<g id="a_node3"><a xlink:href="structstdx_1_1front__pop__iterator.html" target="_top" xlink:title="stdx::front_pop_iterator\l\&lt; Container \&gt;">
<polygon fill="white" stroke="black" points="91.5,-235 91.5,-265 208.5,-265 208.5,-235 91.5,-235"/>
<text text-anchor="start" x="99.5" y="-253" font-family="Helvetica,sans-Serif" font-size="10.00">stdx::front_pop_iterator</text>
<text text-anchor="middle" x="150" y="-242" font-family="Helvetica,sans-Serif" font-size="10.00">&lt; Container &gt;</text>
</a>
</g>
</g>
<!-- Node1&#45;&gt;Node3 -->
<g id="edge2" class="edge"><title>Node1&#45;&gt;Node3</title>
<path fill="none" stroke="midnightblue" d="M36.0103,-170.559C46.5223,-186.873 63.7343,-210.251 84,-225 89.1812,-228.771 95.0031,-232.052 100.978,-234.884"/>
<polygon fill="midnightblue" stroke="midnightblue" points="38.8734,-168.535 30.6228,-161.888 32.9277,-172.229 38.8734,-168.535"/>
</g>
<!-- Node4 -->
<g id="node4" class="node"><title>Node4</title>
<g id="a_node4"><a xlink:href="structstdx_1_1intersperse__iterator.html" target="_top" xlink:title="stdx::intersperse_iterator\l\&lt; T, Delim, Ch, Tr \&gt;">
<polygon fill="white" stroke="black" points="87.5,-186 87.5,-216 212.5,-216 212.5,-186 87.5,-186"/>
<text text-anchor="start" x="95.5" y="-204" font-family="Helvetica,sans-Serif" font-size="10.00">stdx::intersperse_iterator</text>
<text text-anchor="middle" x="150" y="-193" font-family="Helvetica,sans-Serif" font-size="10.00">&lt; T, Delim, Ch, Tr &gt;</text>
</a>
</g>
</g>
<!-- Node1&#45;&gt;Node4 -->
<g id="edge3" class="edge"><title>Node1&#45;&gt;Node4</title>
<path fill="none" stroke="midnightblue" d="M57.1046,-165.19C65.8176,-168.734 75.2591,-172.542 84,-176 92.2071,-179.247 101.019,-182.675 109.423,-185.917"/>
<polygon fill="midnightblue" stroke="midnightblue" points="58.2342,-161.87 47.653,-161.333 55.5897,-168.352 58.2342,-161.87"/>
</g>
<!-- Node5 -->
<g id="node5" class="node"><title>Node5</title>
<g id="a_node5"><a xlink:href="structstdx_1_1paired__iterator.html" target="_top" xlink:title="stdx::paired_iterator\l\&lt; It1, It2 \&gt;">
<polygon fill="white" stroke="black" points="98.5,-137 98.5,-167 201.5,-167 201.5,-137 98.5,-137"/>
<text text-anchor="start" x="106.5" y="-155" font-family="Helvetica,sans-Serif" font-size="10.00">stdx::paired_iterator</text>
<text text-anchor="middle" x="150" y="-144" font-family="Helvetica,sans-Serif" font-size="10.00">&lt; It1, It2 &gt;</text>
</a>
</g>
</g>
<!-- Node1&#45;&gt;Node5 -->
<g id="edge4" class="edge"><title>Node1&#45;&gt;Node5</title>
<path fill="none" stroke="midnightblue" d="M58.0396,-152C70.4159,-152 84.778,-152 98.3828,-152"/>
<polygon fill="midnightblue" stroke="midnightblue" points="57.7435,-148.5 47.7435,-152 57.7435,-155.5 57.7435,-148.5"/>
</g>
<!-- Node6 -->
<g id="node6" class="node"><title>Node6</title>
<g id="a_node6"><a xlink:href="classsys_1_1basic__istream__iterator.html" target="_top" xlink:title="sys::basic_istream\l_iterator\&lt; Stream, Value \&gt;">
<polygon fill="white" stroke="black" points="84,-88 84,-118 216,-118 216,-88 84,-88"/>
<text text-anchor="start" x="92" y="-106" font-family="Helvetica,sans-Serif" font-size="10.00">sys::basic_istream</text>
<text text-anchor="middle" x="150" y="-95" font-family="Helvetica,sans-Serif" font-size="10.00">_iterator&lt; Stream, Value &gt;</text>
</a>
</g>
</g>
<!-- Node1&#45;&gt;Node6 -->
<g id="edge5" class="edge"><title>Node1&#45;&gt;Node6</title>
<path fill="none" stroke="midnightblue" d="M57.1046,-138.81C65.8176,-135.266 75.2591,-131.458 84,-128 92.2071,-124.753 101.019,-121.325 109.423,-118.083"/>
<polygon fill="midnightblue" stroke="midnightblue" points="55.5897,-135.648 47.653,-142.667 58.2342,-142.13 55.5897,-135.648"/>
</g>
<!-- Node7 -->
<g id="node7" class="node"><title>Node7</title>
<g id="a_node7"><a xlink:href="structsys_1_1ifaddrs__iterator.html" target="_top" xlink:title="sys::ifaddrs_iterator">
<polygon fill="white" stroke="black" points="98.5,-49.5 98.5,-68.5 201.5,-68.5 201.5,-49.5 98.5,-49.5"/>
<text text-anchor="middle" x="150" y="-56.5" font-family="Helvetica,sans-Serif" font-size="10.00">sys::ifaddrs_iterator</text>
</a>
</g>
</g>
<!-- Node1&#45;&gt;Node7 -->
<g id="edge6" class="edge"><title>Node1&#45;&gt;Node7</title>
<path fill="none" stroke="midnightblue" d="M35.4387,-133.641C45.756,-117.077 63.0142,-93.1969 84,-79 90.3565,-74.6998 97.6756,-71.2939 105.059,-68.6055"/>
<polygon fill="midnightblue" stroke="midnightblue" points="32.3178,-132.041 30.1905,-142.42 38.3259,-135.633 32.3178,-132.041"/>
</g>
<!-- Node8 -->
<g id="node8" class="node"><title>Node8</title>
<g id="a_node8"><a xlink:href="structsys_1_1subnet__iterator.html" target="_top" xlink:title="sys::subnet_iterator\l\&lt; Address \&gt;">
<polygon fill="white" stroke="black" points="98.5,-0 98.5,-30 201.5,-30 201.5,-0 98.5,-0"/>
<text text-anchor="start" x="106.5" y="-18" font-family="Helvetica,sans-Serif" font-size="10.00">sys::subnet_iterator</text>
<text text-anchor="middle" x="150" y="-7" font-family="Helvetica,sans-Serif" font-size="10.00">&lt; Address &gt;</text>
</a>
</g>
</g>
<!-- Node1&#45;&gt;Node8 -->
<g id="edge7" class="edge"><title>Node1&#45;&gt;Node8</title>
<path fill="none" stroke="midnightblue" d="M30.4543,-132.8C38.3895,-108.122 55.3806,-65.4354 84,-40 88.3379,-36.1447 93.3342,-32.8563 98.5896,-30.0576"/>
<polygon fill="midnightblue" stroke="midnightblue" points="27.0782,-131.873 27.5181,-142.458 33.7755,-133.909 27.0782,-131.873"/>
</g>
</g>
</svg>
