<?xml version="1.0" encoding="UTF-8" standalone="no"?>
<!DOCTYPE svg PUBLIC "-//W3C//DTD SVG 1.1//EN"
 "http://www.w3.org/Graphics/SVG/1.1/DTD/svg11.dtd">
<!-- Generated by graphviz version 2.36.0 (20140111.2315)
 -->
<!-- Title: Graphical Class Hierarchy Pages: 1 -->
<svg width="206pt" height="87pt"
 viewBox="0.00 0.00 206.00 87.00" xmlns="http://www.w3.org/2000/svg" xmlns:xlink="http://www.w3.org/1999/xlink">
<g id="graph0" class="graph" transform="scale(1 1) rotate(0) translate(4 83)">
<title>Graphical Class Hierarchy</title>
<polygon fill="white" stroke="none" points="-4,4 -4,-83 202,-83 202,4 -4,4"/>
<!-- Node1 -->
<g id="node1" class="node"><title>Node1</title>
<polygon fill="white" stroke="#bfbfbf" points="0.5,-29.5 0.5,-48.5 39.5,-48.5 39.5,-29.5 0.5,-29.5"/>
<text text-anchor="middle" x="20" y="-36.5" font-family="Helvetica,sans-Serif" font-size="10.00">Base</text>
</g>
<!-- Node2 -->
<g id="node2" class="node"><title>Node2</title>
<g id="a_node2"><a xlink:href="classfactory_1_1basic__kernelbuf.html" target="_top" xlink:title="factory::basic_kernelbuf\l\&lt; Base \&gt;">
<polygon fill="white" stroke="black" points="76.5,-49 76.5,-79 197.5,-79 197.5,-49 76.5,-49"/>
<text text-anchor="start" x="84.5" y="-67" font-family="Helvetica,sans-Serif" font-size="10.00">factory::basic_kernelbuf</text>
<text text-anchor="middle" x="137" y="-56" font-family="Helvetica,sans-Serif" font-size="10.00">&lt; Base &gt;</text>
</a>
</g>
</g>
<!-- Node1&#45;&gt;Node2 -->
<g id="edge1" class="edge"><title>Node1&#45;&gt;Node2</title>
<path fill="none" stroke="midnightblue" d="M49.5294,-45.202C57.778,-46.9952 67.1033,-49.0225 76.4999,-51.0652"/>
<polygon fill="midnightblue" stroke="midnightblue" points="50.248,-41.7766 39.7327,-43.0723 48.7609,-48.6168 50.248,-41.7766"/>
</g>
<!-- Node3 -->
<g id="node3" class="node"><title>Node3</title>
<g id="a_node3"><a xlink:href="structfactory_1_1Priority__kernel.html" target="_top" xlink:title="factory::Priority_kernel\l\&lt; Base \&gt;">
<polygon fill="white" stroke="black" points="79.5,-0 79.5,-30 194.5,-30 194.5,-0 79.5,-0"/>
<text text-anchor="start" x="87.5" y="-18" font-family="Helvetica,sans-Serif" font-size="10.00">factory::Priority_kernel</text>
<text text-anchor="middle" x="137" y="-7" font-family="Helvetica,sans-Serif" font-size="10.00">&lt; Base &gt;</text>
</a>
</g>
</g>
<!-- Node1&#45;&gt;Node3 -->
<g id="edge2" class="edge"><title>Node1&#45;&gt;Node3</title>
<path fill="none" stroke="midnightblue" d="M49.6601,-33.0188C58.6841,-31.1355 68.9868,-28.9854 79.2574,-26.8419"/>
<polygon fill="midnightblue" stroke="midnightblue" points="48.8067,-29.6214 39.7327,-35.0906 50.2368,-36.4737 48.8067,-29.6214"/>
</g>
</g>
</svg>
