<?xml version="1.0" encoding="UTF-8" standalone="no"?>
<!DOCTYPE svg PUBLIC "-//W3C//DTD SVG 1.1//EN"
 "http://www.w3.org/Graphics/SVG/1.1/DTD/svg11.dtd">
<!-- Generated by graphviz version 2.36.0 (20140111.2315)
 -->
<!-- Title: Graphical Class Hierarchy Pages: 1 -->
<svg width="684pt" height="1188pt"
 viewBox="0.00 0.00 684.00 1188.00" xmlns="http://www.w3.org/2000/svg" xmlns:xlink="http://www.w3.org/1999/xlink">
<g id="graph0" class="graph" transform="scale(1 1) rotate(0) translate(4 1184)">
<title>Graphical Class Hierarchy</title>
<polygon fill="white" stroke="none" points="-4,4 -4,-1184 680,-1184 680,4 -4,4"/>
<!-- Node1 -->
<g id="node1" class="node"><title>Node1</title>
<g id="a_node1"><a xlink:href="classasc_1_1kernel__base.html" target="_top" xlink:title="asc::kernel_base">
<polygon fill="white" stroke="black" points="4.5,-593.5 4.5,-612.5 95.5,-612.5 95.5,-593.5 4.5,-593.5"/>
<text text-anchor="middle" x="50" y="-600.5" font-family="Helvetica,sans-Serif" font-size="10.00">asc::kernel_base</text>
</a>
</g>
</g>
<!-- Node2 -->
<g id="node2" class="node"><title>Node2</title>
<g id="a_node2"><a xlink:href="classasc_1_1mobile__kernel.html" target="_top" xlink:title="asc::mobile_kernel">
<polygon fill="white" stroke="black" points="136,-574.5 136,-593.5 234,-593.5 234,-574.5 136,-574.5"/>
<text text-anchor="middle" x="185" y="-581.5" font-family="Helvetica,sans-Serif" font-size="10.00">asc::mobile_kernel</text>
</a>
</g>
</g>
<!-- Node1&#45;&gt;Node2 -->
<g id="edge1" class="edge"><title>Node1&#45;&gt;Node2</title>
<path fill="none" stroke="midnightblue" d="M105.785,-595.174C115.663,-593.762 125.898,-592.3 135.58,-590.917"/>
<polygon fill="midnightblue" stroke="midnightblue" points="105.062,-591.741 95.6571,-596.62 106.052,-598.671 105.062,-591.741"/>
</g>
<!-- Node3 -->
<g id="node3" class="node"><title>Node3</title>
<g id="a_node3"><a xlink:href="structasc_1_1Kernel.html" target="_top" xlink:title="asc::Kernel">
<polygon fill="white" stroke="black" points="270,-574.5 270,-593.5 336,-593.5 336,-574.5 270,-574.5"/>
<text text-anchor="middle" x="303" y="-581.5" font-family="Helvetica,sans-Serif" font-size="10.00">asc::Kernel</text>
</a>
</g>
</g>
<!-- Node2&#45;&gt;Node3 -->
<g id="edge2" class="edge"><title>Node2&#45;&gt;Node3</title>
<path fill="none" stroke="midnightblue" d="M244.466,-584C253.258,-584 262.036,-584 269.992,-584"/>
<polygon fill="midnightblue" stroke="midnightblue" points="244.187,-580.5 234.187,-584 244.187,-587.5 244.187,-580.5"/>
</g>
<!-- Node4 -->
<g id="node4" class="node"><title>Node4</title>
<g id="a_node4"><a xlink:href="classasc_1_1discovery__timer.html" target="_top" xlink:title="asc::discovery_timer">
<polygon fill="white" stroke="black" points="391.5,-1160.5 391.5,-1179.5 498.5,-1179.5 498.5,-1160.5 391.5,-1160.5"/>
<text text-anchor="middle" x="445" y="-1167.5" font-family="Helvetica,sans-Serif" font-size="10.00">asc::discovery_timer</text>
</a>
</g>
</g>
<!-- Node3&#45;&gt;Node4 -->
<g id="edge3" class="edge"><title>Node3&#45;&gt;Node4</title>
<path fill="none" stroke="midnightblue" d="M305.08,-604.022C310.425,-699.851 335.259,-1108.78 372,-1151 377.177,-1156.95 383.974,-1161.14 391.326,-1164.08"/>
<polygon fill="midnightblue" stroke="midnightblue" points="308.57,-603.726 304.526,-593.933 301.58,-604.11 308.57,-603.726"/>
</g>
<!-- Node5 -->
<g id="node5" class="node"><title>Node5</title>
<g id="a_node5"><a xlink:href="classasc_1_1hierarchy__kernel.html" target="_top" xlink:title="asc::hierarchy_kernel">
<polygon fill="white" stroke="black" points="390,-1122.5 390,-1141.5 500,-1141.5 500,-1122.5 390,-1122.5"/>
<text text-anchor="middle" x="445" y="-1129.5" font-family="Helvetica,sans-Serif" font-size="10.00">asc::hierarchy_kernel</text>
</a>
</g>
</g>
<!-- Node3&#45;&gt;Node5 -->
<g id="edge4" class="edge"><title>Node3&#45;&gt;Node5</title>
<path fill="none" stroke="midnightblue" d="M303.709,-603.691C302.84,-690.146 303.755,-1035.24 372,-1113 376.861,-1118.54 383.126,-1122.55 389.93,-1125.45"/>
<polygon fill="midnightblue" stroke="midnightblue" points="307.209,-603.7 303.831,-593.658 300.21,-603.615 307.209,-603.7"/>
</g>
<!-- Node6 -->
<g id="node6" class="node"><title>Node6</title>
<g id="a_node6"><a xlink:href="structasc_1_1Map.html" target="_top" xlink:title="asc::Map\&lt; F, G, I \&gt;">
<polygon fill="white" stroke="black" points="393,-1084.5 393,-1103.5 497,-1103.5 497,-1084.5 393,-1084.5"/>
<text text-anchor="middle" x="445" y="-1091.5" font-family="Helvetica,sans-Serif" font-size="10.00">asc::Map&lt; F, G, I &gt;</text>
</a>
</g>
</g>
<!-- Node3&#45;&gt;Node6 -->
<g id="edge5" class="edge"><title>Node3&#45;&gt;Node6</title>
<path fill="none" stroke="midnightblue" d="M303.957,-603.775C304.185,-686.298 309.205,-1002.24 372,-1074 377.553,-1080.35 384.928,-1084.76 392.842,-1087.81"/>
<polygon fill="midnightblue" stroke="midnightblue" points="307.458,-603.728 303.952,-593.73 300.458,-603.732 307.458,-603.728"/>
</g>
<!-- Node7 -->
<g id="node7" class="node"><title>Node7</title>
<g id="a_node7"><a xlink:href="structasc_1_1Map_1_1Worker.html" target="_top" xlink:title="asc::Map\&lt; F, G, I \&gt;\l::Worker">
<polygon fill="white" stroke="black" points="393,-1035 393,-1065 497,-1065 497,-1035 393,-1035"/>
<text text-anchor="start" x="401" y="-1053" font-family="Helvetica,sans-Serif" font-size="10.00">asc::Map&lt; F, G, I &gt;</text>
<text text-anchor="middle" x="445" y="-1042" font-family="Helvetica,sans-Serif" font-size="10.00">::Worker</text>
</a>
</g>
</g>
<!-- Node3&#45;&gt;Node7 -->
<g id="edge6" class="edge"><title>Node3&#45;&gt;Node7</title>
<path fill="none" stroke="midnightblue" d="M304.427,-604.121C306.464,-681.607 317.513,-959.623 372,-1025 377.507,-1031.61 384.858,-1036.47 392.764,-1040.05"/>
<polygon fill="midnightblue" stroke="midnightblue" points="307.919,-603.742 304.18,-593.829 300.921,-603.91 307.919,-603.742"/>
</g>
<!-- Node8 -->
<g id="node8" class="node"><title>Node8</title>
<g id="a_node8"><a xlink:href="classasc_1_1network__master.html" target="_top" xlink:title="asc::network_master">
<polygon fill="white" stroke="black" points="391,-996.5 391,-1015.5 499,-1015.5 499,-996.5 391,-996.5"/>
<text text-anchor="middle" x="445" y="-1003.5" font-family="Helvetica,sans-Serif" font-size="10.00">asc::network_master</text>
</a>
</g>
</g>
<!-- Node3&#45;&gt;Node8 -->
<g id="edge7" class="edge"><title>Node3&#45;&gt;Node8</title>
<path fill="none" stroke="midnightblue" d="M304.592,-603.904C307.171,-677.064 319.775,-929.801 372,-987 377.143,-992.633 383.74,-996.678 390.847,-999.569"/>
<polygon fill="midnightblue" stroke="midnightblue" points="308.085,-603.642 304.259,-593.762 301.089,-603.871 308.085,-603.642"/>
</g>
<!-- Node9 -->
<g id="node9" class="node"><title>Node9</title>
<g id="a_node9"><a xlink:href="classasc_1_1network__timer.html" target="_top" xlink:title="asc::network_timer">
<polygon fill="white" stroke="black" points="395,-958.5 395,-977.5 495,-977.5 495,-958.5 395,-958.5"/>
<text text-anchor="middle" x="445" y="-965.5" font-family="Helvetica,sans-Serif" font-size="10.00">asc::network_timer</text>
</a>
</g>
</g>
<!-- Node3&#45;&gt;Node9 -->
<g id="edge8" class="edge"><title>Node3&#45;&gt;Node9</title>
<path fill="none" stroke="midnightblue" d="M304.967,-603.758C308.715,-672.219 324.52,-897.879 372,-949 378.159,-955.631 386.332,-960.056 394.959,-962.986"/>
<polygon fill="midnightblue" stroke="midnightblue" points="308.449,-603.324 304.434,-593.519 301.459,-603.688 308.449,-603.324"/>
</g>
<!-- Node10 -->
<g id="node10" class="node"><title>Node10</title>
<g id="a_node10"><a xlink:href="classasc_1_1Notification.html" target="_top" xlink:title="asc::Notification">
<polygon fill="white" stroke="black" points="401,-920.5 401,-939.5 489,-939.5 489,-920.5 401,-920.5"/>
<text text-anchor="middle" x="445" y="-927.5" font-family="Helvetica,sans-Serif" font-size="10.00">asc::Notification</text>
</a>
</g>
</g>
<!-- Node3&#45;&gt;Node10 -->
<g id="edge9" class="edge"><title>Node3&#45;&gt;Node10</title>
<path fill="none" stroke="midnightblue" d="M305.464,-604.152C310.526,-668.28 329.365,-866.045 372,-911 379.562,-918.973 390.04,-923.746 400.663,-926.566"/>
<polygon fill="midnightblue" stroke="midnightblue" points="308.925,-603.505 304.677,-593.8 301.945,-604.036 308.925,-603.505"/>
</g>
<!-- Node11 -->
<g id="node11" class="node"><title>Node11</title>
<g id="a_node11"><a xlink:href="classasc_1_1probe.html" target="_top" xlink:title="asc::probe">
<polygon fill="white" stroke="black" points="414,-882.5 414,-901.5 476,-901.5 476,-882.5 414,-882.5"/>
<text text-anchor="middle" x="445" y="-889.5" font-family="Helvetica,sans-Serif" font-size="10.00">asc::probe</text>
</a>
</g>
</g>
<!-- Node3&#45;&gt;Node11 -->
<g id="edge10" class="edge"><title>Node3&#45;&gt;Node11</title>
<path fill="none" stroke="midnightblue" d="M306.012,-603.699C312.387,-662.314 333.996,-833.959 372,-873 382.821,-884.116 399.318,-888.986 413.791,-891.023"/>
<polygon fill="midnightblue" stroke="midnightblue" points="309.471,-603.132 304.939,-593.556 302.51,-603.868 309.471,-603.132"/>
</g>
<!-- Node12 -->
<g id="node12" class="node"><title>Node12</title>
<g id="a_node12"><a xlink:href="classasc_1_1prober.html" target="_top" xlink:title="asc::prober">
<polygon fill="white" stroke="black" points="412.5,-844.5 412.5,-863.5 477.5,-863.5 477.5,-844.5 412.5,-844.5"/>
<text text-anchor="middle" x="445" y="-851.5" font-family="Helvetica,sans-Serif" font-size="10.00">asc::prober</text>
</a>
</g>
</g>
<!-- Node3&#45;&gt;Node12 -->
<g id="edge11" class="edge"><title>Node3&#45;&gt;Node12</title>
<path fill="none" stroke="midnightblue" d="M303.174,-603.667C302.33,-650.686 307.053,-770.477 372,-835 382.639,-845.569 398.419,-850.461 412.498,-852.651"/>
<polygon fill="midnightblue" stroke="midnightblue" points="306.675,-603.69 303.465,-593.593 299.678,-603.488 306.675,-603.69"/>
</g>
<!-- Node13 -->
<g id="node13" class="node"><title>Node13</title>
<g id="a_node13"><a xlink:href="classasc_1_1resident__kernel.html" target="_top" xlink:title="asc::resident_kernel">
<polygon fill="white" stroke="black" points="393,-806.5 393,-825.5 497,-825.5 497,-806.5 393,-806.5"/>
<text text-anchor="middle" x="445" y="-813.5" font-family="Helvetica,sans-Serif" font-size="10.00">asc::resident_kernel</text>
</a>
</g>
</g>
<!-- Node3&#45;&gt;Node13 -->
<g id="edge12" class="edge"><title>Node3&#45;&gt;Node13</title>
<path fill="none" stroke="midnightblue" d="M304.314,-603.782C306.09,-645.732 316.323,-744.094 372,-797 377.81,-802.521 385.03,-806.483 392.634,-809.316"/>
<polygon fill="midnightblue" stroke="midnightblue" points="307.811,-603.635 304.01,-593.745 300.814,-603.847 307.811,-603.635"/>
</g>
<!-- Node15 -->
<g id="node15" class="node"><title>Node15</title>
<g id="a_node15"><a xlink:href="structautoreg_1_1ACF__generator.html" target="_top" xlink:title="autoreg::ACF_generator\&lt; T \&gt;">
<polygon fill="white" stroke="black" points="372.5,-768.5 372.5,-787.5 517.5,-787.5 517.5,-768.5 372.5,-768.5"/>
<text text-anchor="middle" x="445" y="-775.5" font-family="Helvetica,sans-Serif" font-size="10.00">autoreg::ACF_generator&lt; T &gt;</text>
</a>
</g>
</g>
<!-- Node3&#45;&gt;Node15 -->
<g id="edge14" class="edge"><title>Node3&#45;&gt;Node15</title>
<path fill="none" stroke="midnightblue" d="M305.924,-603.926C310.523,-640.284 325.498,-717.461 372,-759 376.339,-762.876 381.377,-765.976 386.734,-768.453"/>
<polygon fill="midnightblue" stroke="midnightblue" points="309.365,-603.198 304.769,-593.652 302.408,-603.981 309.365,-603.198"/>
</g>
<!-- Node16 -->
<g id="node16" class="node"><title>Node16</title>
<g id="a_node16"><a xlink:href="structautoreg_1_1Autoreg__coefs.html" target="_top" xlink:title="autoreg::Autoreg_coefs\&lt; T \&gt;">
<polygon fill="white" stroke="black" points="374,-730.5 374,-749.5 516,-749.5 516,-730.5 374,-730.5"/>
<text text-anchor="middle" x="445" y="-737.5" font-family="Helvetica,sans-Serif" font-size="10.00">autoreg::Autoreg_coefs&lt; T &gt;</text>
</a>
</g>
</g>
<!-- Node3&#45;&gt;Node16 -->
<g id="edge15" class="edge"><title>Node3&#45;&gt;Node16</title>
<path fill="none" stroke="midnightblue" d="M308.289,-603.741C315.842,-633.689 334.408,-690.349 372,-721 376.709,-724.84 382.116,-727.91 387.806,-730.364"/>
<polygon fill="midnightblue" stroke="midnightblue" points="311.619,-602.611 305.917,-593.681 304.806,-604.217 311.619,-602.611"/>
</g>
<!-- Node17 -->
<g id="node17" class="node"><title>Node17</title>
<g id="a_node17"><a xlink:href="classautoreg_1_1Autoreg__model.html" target="_top" xlink:title="autoreg::Autoreg_model\&lt; T \&gt;">
<polygon fill="white" stroke="black" points="373,-692.5 373,-711.5 517,-711.5 517,-692.5 373,-692.5"/>
<text text-anchor="middle" x="445" y="-699.5" font-family="Helvetica,sans-Serif" font-size="10.00">autoreg::Autoreg_model&lt; T &gt;</text>
</a>
</g>
</g>
<!-- Node3&#45;&gt;Node17 -->
<g id="edge16" class="edge"><title>Node3&#45;&gt;Node17</title>
<path fill="none" stroke="midnightblue" d="M312.155,-602.859C322.737,-625.101 343.303,-661.618 372,-682 378.135,-686.357 385.185,-689.767 392.422,-692.434"/>
<polygon fill="midnightblue" stroke="midnightblue" points="315.336,-601.399 308.002,-593.753 308.967,-604.304 315.336,-601.399"/>
</g>
<!-- Node18 -->
<g id="node18" class="node"><title>Node18</title>
<g id="a_node18"><a xlink:href="structautoreg_1_1Generator1.html" target="_top" xlink:title="autoreg::Generator1\l\&lt; T, Grid \&gt;">
<polygon fill="white" stroke="black" points="393.5,-643 393.5,-673 496.5,-673 496.5,-643 393.5,-643"/>
<text text-anchor="start" x="401.5" y="-661" font-family="Helvetica,sans-Serif" font-size="10.00">autoreg::Generator1</text>
<text text-anchor="middle" x="445" y="-650" font-family="Helvetica,sans-Serif" font-size="10.00">&lt; T, Grid &gt;</text>
</a>
</g>
</g>
<!-- Node3&#45;&gt;Node18 -->
<g id="edge17" class="edge"><title>Node3&#45;&gt;Node18</title>
<path fill="none" stroke="midnightblue" d="M323.192,-600.151C336.301,-610.582 354.418,-623.862 372,-633 379.045,-636.661 386.742,-639.98 394.4,-642.915"/>
<polygon fill="midnightblue" stroke="midnightblue" points="325.324,-597.373 315.357,-593.78 320.908,-602.804 325.324,-597.373"/>
</g>
<!-- Node19 -->
<g id="node19" class="node"><title>Node19</title>
<g id="a_node19"><a xlink:href="structautoreg_1_1Solve__Yule__Walker.html" target="_top" xlink:title="autoreg::Solve_Yule\l_Walker\&lt; T \&gt;">
<polygon fill="white" stroke="black" points="393,-594 393,-624 497,-624 497,-594 393,-594"/>
<text text-anchor="start" x="401" y="-612" font-family="Helvetica,sans-Serif" font-size="10.00">autoreg::Solve_Yule</text>
<text text-anchor="middle" x="445" y="-601" font-family="Helvetica,sans-Serif" font-size="10.00">_Walker&lt; T &gt;</text>
</a>
</g>
</g>
<!-- Node3&#45;&gt;Node19 -->
<g id="edge18" class="edge"><title>Node3&#45;&gt;Node19</title>
<path fill="none" stroke="midnightblue" d="M346.388,-591.569C361.019,-594.182 377.567,-597.137 392.825,-599.862"/>
<polygon fill="midnightblue" stroke="midnightblue" points="346.578,-588.048 336.119,-589.736 345.348,-594.939 346.578,-588.048"/>
</g>
<!-- Node20 -->
<g id="node20" class="node"><title>Node20</title>
<g id="a_node20"><a xlink:href="structautoreg_1_1Wave__surface__generator.html" target="_top" xlink:title="autoreg::Wave_surface\l_generator\&lt; T, Grid \&gt;">
<polygon fill="white" stroke="black" points="386,-545 386,-575 504,-575 504,-545 386,-545"/>
<text text-anchor="start" x="394" y="-563" font-family="Helvetica,sans-Serif" font-size="10.00">autoreg::Wave_surface</text>
<text text-anchor="middle" x="445" y="-552" font-family="Helvetica,sans-Serif" font-size="10.00">_generator&lt; T, Grid &gt;</text>
</a>
</g>
</g>
<!-- Node3&#45;&gt;Node20 -->
<g id="edge19" class="edge"><title>Node3&#45;&gt;Node20</title>
<path fill="none" stroke="midnightblue" d="M346.232,-576.76C358.718,-574.62 372.611,-572.238 385.912,-569.958"/>
<polygon fill="midnightblue" stroke="midnightblue" points="345.384,-573.355 336.119,-578.494 346.566,-580.254 345.384,-573.355"/>
</g>
<!-- Node21 -->
<g id="node21" class="node"><title>Node21</title>
<g id="a_node21"><a xlink:href="structAutoreg__app.html" target="_top" xlink:title="Autoreg_app">
<polygon fill="white" stroke="black" points="409.5,-506.5 409.5,-525.5 480.5,-525.5 480.5,-506.5 409.5,-506.5"/>
<text text-anchor="middle" x="445" y="-513.5" font-family="Helvetica,sans-Serif" font-size="10.00">Autoreg_app</text>
</a>
</g>
</g>
<!-- Node3&#45;&gt;Node21 -->
<g id="edge20" class="edge"><title>Node3&#45;&gt;Node21</title>
<path fill="none" stroke="midnightblue" d="M322.503,-567.787C335.551,-557.107 353.867,-543.563 372,-535 383.69,-529.479 397.233,-525.373 409.399,-522.417"/>
<polygon fill="midnightblue" stroke="midnightblue" points="320.146,-565.196 314.745,-574.311 324.652,-570.554 320.146,-565.196"/>
</g>
<!-- Node22 -->
<g id="node22" class="node"><title>Node22</title>
<g id="a_node22"><a xlink:href="structBig__kernel.html" target="_top" xlink:title="Big_kernel\&lt; Size \&gt;">
<polygon fill="white" stroke="black" points="395,-468.5 395,-487.5 495,-487.5 495,-468.5 395,-468.5"/>
<text text-anchor="middle" x="445" y="-475.5" font-family="Helvetica,sans-Serif" font-size="10.00">Big_kernel&lt; Size &gt;</text>
</a>
</g>
</g>
<!-- Node3&#45;&gt;Node22 -->
<g id="edge21" class="edge"><title>Node3&#45;&gt;Node22</title>
<path fill="none" stroke="midnightblue" d="M313.635,-565.472C324.948,-545.556 345.571,-514.417 372,-497 378.909,-492.447 386.863,-488.983 394.908,-486.348"/>
<polygon fill="midnightblue" stroke="midnightblue" points="310.434,-564.031 308.715,-574.486 316.578,-567.385 310.434,-564.031"/>
</g>
<!-- Node23 -->
<g id="node23" class="node"><title>Node23</title>
<g id="a_node23"><a xlink:href="structDummy__kernel.html" target="_top" xlink:title="Dummy_kernel">
<polygon fill="white" stroke="black" points="403.5,-430.5 403.5,-449.5 486.5,-449.5 486.5,-430.5 403.5,-430.5"/>
<text text-anchor="middle" x="445" y="-437.5" font-family="Helvetica,sans-Serif" font-size="10.00">Dummy_kernel</text>
</a>
</g>
</g>
<!-- Node3&#45;&gt;Node23 -->
<g id="edge22" class="edge"><title>Node3&#45;&gt;Node23</title>
<path fill="none" stroke="midnightblue" d="M309.158,-564.792C317.589,-537.149 336.997,-486.464 372,-459 380.95,-451.977 392.255,-447.538 403.238,-444.735"/>
<polygon fill="midnightblue" stroke="midnightblue" points="305.774,-563.895 306.369,-574.474 312.5,-565.833 305.774,-563.895"/>
</g>
<!-- Node24 -->
<g id="node24" class="node"><title>Node24</title>
<g id="a_node24"><a xlink:href="structGood__kernel.html" target="_top" xlink:title="Good_kernel">
<polygon fill="white" stroke="black" points="409.5,-392.5 409.5,-411.5 480.5,-411.5 480.5,-392.5 409.5,-392.5"/>
<text text-anchor="middle" x="445" y="-399.5" font-family="Helvetica,sans-Serif" font-size="10.00">Good_kernel</text>
</a>
</g>
</g>
<!-- Node3&#45;&gt;Node24 -->
<g id="edge23" class="edge"><title>Node3&#45;&gt;Node24</title>
<path fill="none" stroke="midnightblue" d="M306.586,-563.993C312.123,-529.528 328.385,-459.006 372,-421 382.331,-411.997 396.451,-407.192 409.451,-404.653"/>
<polygon fill="midnightblue" stroke="midnightblue" points="303.077,-563.799 305.095,-574.2 310.004,-564.811 303.077,-563.799"/>
</g>
<!-- Node27 -->
<g id="node27" class="node"><title>Node27</title>
<g id="a_node27"><a xlink:href="structKernel__that__carries__its__parent.html" target="_top" xlink:title="Kernel_that_carries\l_its_parent">
<polygon fill="white" stroke="black" points="394.5,-343 394.5,-373 495.5,-373 495.5,-343 394.5,-343"/>
<text text-anchor="start" x="402.5" y="-361" font-family="Helvetica,sans-Serif" font-size="10.00">Kernel_that_carries</text>
<text text-anchor="middle" x="445" y="-350" font-family="Helvetica,sans-Serif" font-size="10.00">_its_parent</text>
</a>
</g>
</g>
<!-- Node3&#45;&gt;Node27 -->
<g id="edge26" class="edge"><title>Node3&#45;&gt;Node27</title>
<path fill="none" stroke="midnightblue" d="M305.115,-564.006C308.409,-524.103 321.358,-434.048 372,-383 378.244,-376.706 386.151,-371.994 394.424,-368.468"/>
<polygon fill="midnightblue" stroke="midnightblue" points="301.618,-563.843 304.407,-574.064 308.601,-564.334 301.618,-563.843"/>
</g>
<!-- Node28 -->
<g id="node28" class="node"><title>Node28</title>
<g id="a_node28"><a xlink:href="structLauncher.html" target="_top" xlink:title="Launcher">
<polygon fill="white" stroke="black" points="417,-304.5 417,-323.5 473,-323.5 473,-304.5 417,-304.5"/>
<text text-anchor="middle" x="445" y="-311.5" font-family="Helvetica,sans-Serif" font-size="10.00">Launcher</text>
</a>
</g>
</g>
<!-- Node3&#45;&gt;Node28 -->
<g id="edge27" class="edge"><title>Node3&#45;&gt;Node28</title>
<path fill="none" stroke="midnightblue" d="M303.174,-564.333C302.33,-517.314 307.053,-397.523 372,-333 383.739,-321.337 401.739,-316.587 416.804,-314.753"/>
<polygon fill="midnightblue" stroke="midnightblue" points="299.678,-564.512 303.465,-574.407 306.675,-564.31 299.678,-564.512"/>
</g>
<!-- Node29 -->
<g id="node29" class="node"><title>Node29</title>
<g id="a_node29"><a xlink:href="classMain.html" target="_top" xlink:title="Main">
<polygon fill="white" stroke="black" points="426,-266.5 426,-285.5 464,-285.5 464,-266.5 426,-266.5"/>
<text text-anchor="middle" x="445" y="-273.5" font-family="Helvetica,sans-Serif" font-size="10.00">Main</text>
</a>
</g>
</g>
<!-- Node3&#45;&gt;Node29 -->
<g id="edge28" class="edge"><title>Node3&#45;&gt;Node29</title>
<path fill="none" stroke="midnightblue" d="M306.012,-564.301C312.387,-505.686 333.996,-334.041 372,-295 385.977,-280.641 409.424,-276.705 425.749,-275.834"/>
<polygon fill="midnightblue" stroke="midnightblue" points="302.51,-564.132 304.939,-574.444 309.471,-564.868 302.51,-564.132"/>
</g>
<!-- Node30 -->
<g id="node30" class="node"><title>Node30</title>
<g id="a_node30"><a xlink:href="structSender.html" target="_top" xlink:title="Sender">
<polygon fill="white" stroke="black" points="421.5,-228.5 421.5,-247.5 468.5,-247.5 468.5,-228.5 421.5,-228.5"/>
<text text-anchor="middle" x="445" y="-235.5" font-family="Helvetica,sans-Serif" font-size="10.00">Sender</text>
</a>
</g>
</g>
<!-- Node3&#45;&gt;Node30 -->
<g id="edge29" class="edge"><title>Node3&#45;&gt;Node30</title>
<path fill="none" stroke="midnightblue" d="M305.464,-563.848C310.526,-499.72 329.365,-301.955 372,-257 384.632,-243.68 405.404,-239.291 421.398,-238.023"/>
<polygon fill="midnightblue" stroke="midnightblue" points="301.945,-563.964 304.677,-574.2 308.925,-564.495 301.945,-563.964"/>
</g>
<!-- Node31 -->
<g id="node31" class="node"><title>Node31</title>
<g id="a_node31"><a xlink:href="structSleepy__kernel.html" target="_top" xlink:title="Sleepy_kernel">
<polygon fill="white" stroke="black" points="406,-190.5 406,-209.5 484,-209.5 484,-190.5 406,-190.5"/>
<text text-anchor="middle" x="445" y="-197.5" font-family="Helvetica,sans-Serif" font-size="10.00">Sleepy_kernel</text>
</a>
</g>
</g>
<!-- Node3&#45;&gt;Node31 -->
<g id="edge30" class="edge"><title>Node3&#45;&gt;Node31</title>
<path fill="none" stroke="midnightblue" d="M304.967,-564.242C308.715,-495.781 324.52,-270.121 372,-219 380.71,-209.622 393.451,-204.656 405.803,-202.092"/>
<polygon fill="midnightblue" stroke="midnightblue" points="301.459,-564.312 304.434,-574.481 308.449,-564.676 301.459,-564.312"/>
</g>
<!-- Node32 -->
<g id="node32" class="node"><title>Node32</title>
<g id="a_node32"><a xlink:href="structSpec__app.html" target="_top" xlink:title="Spec_app">
<polygon fill="white" stroke="black" points="415,-152.5 415,-171.5 475,-171.5 475,-152.5 415,-152.5"/>
<text text-anchor="middle" x="445" y="-159.5" font-family="Helvetica,sans-Serif" font-size="10.00">Spec_app</text>
</a>
</g>
</g>
<!-- Node3&#45;&gt;Node32 -->
<g id="edge31" class="edge"><title>Node3&#45;&gt;Node32</title>
<path fill="none" stroke="midnightblue" d="M304.592,-564.096C307.171,-490.936 319.775,-238.199 372,-181 382.809,-169.162 400.039,-164.334 414.934,-162.503"/>
<polygon fill="midnightblue" stroke="midnightblue" points="301.089,-564.129 304.259,-574.238 308.085,-564.358 301.089,-564.129"/>
</g>
<!-- Node33 -->
<g id="node33" class="node"><title>Node33</title>
<g id="a_node33"><a xlink:href="structSpectrum__kernel.html" target="_top" xlink:title="Spectrum_kernel">
<polygon fill="white" stroke="black" points="400,-114.5 400,-133.5 490,-133.5 490,-114.5 400,-114.5"/>
<text text-anchor="middle" x="445" y="-121.5" font-family="Helvetica,sans-Serif" font-size="10.00">Spectrum_kernel</text>
</a>
</g>
</g>
<!-- Node3&#45;&gt;Node33 -->
<g id="edge32" class="edge"><title>Node3&#45;&gt;Node33</title>
<path fill="none" stroke="midnightblue" d="M304.27,-564.254C305.73,-487.003 314.939,-206.391 372,-143 379.179,-135.025 389.271,-130.224 399.633,-127.377"/>
<polygon fill="midnightblue" stroke="midnightblue" points="300.767,-564.43 304.101,-574.487 307.766,-564.546 300.767,-564.43"/>
</g>
<!-- Node34 -->
<g id="node34" class="node"><title>Node34</title>
<g id="a_node34"><a xlink:href="structStation__kernel.html" target="_top" xlink:title="Station_kernel">
<polygon fill="white" stroke="black" points="405.5,-76.5 405.5,-95.5 484.5,-95.5 484.5,-76.5 405.5,-76.5"/>
<text text-anchor="middle" x="445" y="-83.5" font-family="Helvetica,sans-Serif" font-size="10.00">Station_kernel</text>
</a>
</g>
</g>
<!-- Node3&#45;&gt;Node34 -->
<g id="edge33" class="edge"><title>Node3&#45;&gt;Node34</title>
<path fill="none" stroke="midnightblue" d="M304.003,-564.146C304.426,-482.611 310.152,-174.542 372,-105 380.42,-95.533 392.944,-90.5298 405.197,-87.9602"/>
<polygon fill="midnightblue" stroke="midnightblue" points="300.502,-564.466 303.973,-574.476 307.502,-564.487 300.502,-564.466"/>
</g>
<!-- Node35 -->
<g id="node35" class="node"><title>Node35</title>
<g id="a_node35"><a xlink:href="structTest__socket.html" target="_top" xlink:title="Test_socket">
<polygon fill="white" stroke="black" points="409.5,-38.5 409.5,-57.5 480.5,-57.5 480.5,-38.5 409.5,-38.5"/>
<text text-anchor="middle" x="445" y="-45.5" font-family="Helvetica,sans-Serif" font-size="10.00">Test_socket</text>
</a>
</g>
</g>
<!-- Node3&#45;&gt;Node35 -->
<g id="edge34" class="edge"><title>Node3&#45;&gt;Node35</title>
<path fill="none" stroke="midnightblue" d="M303.772,-563.944C303.211,-478.115 305.377,-142.688 372,-67 381.311,-56.4226 395.745,-51.408 409.253,-49.1367"/>
<polygon fill="midnightblue" stroke="midnightblue" points="300.274,-564.178 303.861,-574.147 307.274,-564.117 300.274,-564.178"/>
</g>
<!-- Node36 -->
<g id="node36" class="node"><title>Node36</title>
<g id="a_node36"><a xlink:href="structYear__kernel.html" target="_top" xlink:title="Year_kernel">
<polygon fill="white" stroke="black" points="411,-0.5 411,-19.5 479,-19.5 479,-0.5 411,-0.5"/>
<text text-anchor="middle" x="445" y="-7.5" font-family="Helvetica,sans-Serif" font-size="10.00">Year_kernel</text>
</a>
</g>
</g>
<!-- Node3&#45;&gt;Node36 -->
<g id="edge35" class="edge"><title>Node3&#45;&gt;Node36</title>
<path fill="none" stroke="midnightblue" d="M303.575,-564.201C302.071,-474.968 300.471,-110.992 372,-29 381.604,-17.9917 396.757,-12.9998 410.691,-10.8577"/>
<polygon fill="midnightblue" stroke="midnightblue" points="300.078,-564.372 303.766,-574.304 307.076,-564.24 300.078,-564.372"/>
</g>
<!-- Node14 -->
<g id="node14" class="node"><title>Node14</title>
<g id="a_node14"><a xlink:href="classasc_1_1master__discoverer.html" target="_top" xlink:title="asc::master_discoverer">
<polygon fill="white" stroke="black" points="555.5,-806.5 555.5,-825.5 674.5,-825.5 674.5,-806.5 555.5,-806.5"/>
<text text-anchor="middle" x="615" y="-813.5" font-family="Helvetica,sans-Serif" font-size="10.00">asc::master_discoverer</text>
</a>
</g>
</g>
<!-- Node13&#45;&gt;Node14 -->
<g id="edge13" class="edge"><title>Node13&#45;&gt;Node14</title>
<path fill="none" stroke="midnightblue" d="M507.415,-816C523.065,-816 539.845,-816 555.352,-816"/>
<polygon fill="midnightblue" stroke="midnightblue" points="507.318,-812.5 497.318,-816 507.318,-819.5 507.318,-812.5"/>
</g>
<!-- Node25 -->
<g id="node25" class="node"><title>Node25</title>
<g id="a_node25"><a xlink:href="structKernel__that__reads__more__than__writes.html" target="_top" xlink:title="Kernel_that_reads_more\l_than_writes">
<polygon fill="white" stroke="black" points="554,-412 554,-442 676,-442 676,-412 554,-412"/>
<text text-anchor="start" x="562" y="-430" font-family="Helvetica,sans-Serif" font-size="10.00">Kernel_that_reads_more</text>
<text text-anchor="middle" x="615" y="-419" font-family="Helvetica,sans-Serif" font-size="10.00">_than_writes</text>
</a>
</g>
</g>
<!-- Node24&#45;&gt;Node25 -->
<g id="edge24" class="edge"><title>Node24&#45;&gt;Node25</title>
<path fill="none" stroke="midnightblue" d="M490.839,-408.673C510.141,-411.545 532.997,-414.946 553.747,-418.034"/>
<polygon fill="midnightblue" stroke="midnightblue" points="491.216,-405.19 480.81,-407.18 490.186,-412.114 491.216,-405.19"/>
</g>
<!-- Node26 -->
<g id="node26" class="node"><title>Node26</title>
<g id="a_node26"><a xlink:href="structKernel__that__writes__more__than__reads.html" target="_top" xlink:title="Kernel_that_writes\l_more_than_reads">
<polygon fill="white" stroke="black" points="566,-363 566,-393 664,-393 664,-363 566,-363"/>
<text text-anchor="start" x="574" y="-381" font-family="Helvetica,sans-Serif" font-size="10.00">Kernel_that_writes</text>
<text text-anchor="middle" x="615" y="-370" font-family="Helvetica,sans-Serif" font-size="10.00">_more_than_reads</text>
</a>
</g>
</g>
<!-- Node24&#45;&gt;Node26 -->
<g id="edge25" class="edge"><title>Node24&#45;&gt;Node26</title>
<path fill="none" stroke="midnightblue" d="M490.726,-395.611C513.896,-392.301 542.211,-388.256 565.858,-384.877"/>
<polygon fill="midnightblue" stroke="midnightblue" points="490.214,-392.148 480.81,-397.027 491.204,-399.078 490.214,-392.148"/>
</g>
<!-- Node37 -->
<g id="node37" class="node"><title>Node37</title>
<g id="a_node37"><a xlink:href="classasc_1_1kernel__header.html" target="_top" xlink:title="asc::kernel_header">
<polygon fill="white" stroke="black" points="0.5,-555.5 0.5,-574.5 99.5,-574.5 99.5,-555.5 0.5,-555.5"/>
<text text-anchor="middle" x="50" y="-562.5" font-family="Helvetica,sans-Serif" font-size="10.00">asc::kernel_header</text>
</a>
</g>
</g>
<!-- Node37&#45;&gt;Node2 -->
<g id="edge36" class="edge"><title>Node37&#45;&gt;Node2</title>
<path fill="none" stroke="midnightblue" d="M109.805,-573.401C118.453,-574.636 127.277,-575.897 135.681,-577.097"/>
<polygon fill="midnightblue" stroke="midnightblue" points="110.164,-569.916 99.7691,-571.967 109.174,-576.846 110.164,-569.916"/>
</g>
</g>
</svg>
