<?xml version="1.0" encoding="UTF-8" standalone="no"?>
<!DOCTYPE svg PUBLIC "-//W3C//DTD SVG 1.1//EN"
 "http://www.w3.org/Graphics/SVG/1.1/DTD/svg11.dtd">
<!-- Generated by graphviz version 2.38.0 (20140413.2041)
 -->
<!-- Title: Graphical Class Hierarchy Pages: 1 -->
<svg width="329pt" height="66pt"
 viewBox="0.00 0.00 329.00 66.00" xmlns="http://www.w3.org/2000/svg" xmlns:xlink="http://www.w3.org/1999/xlink">
<g id="graph0" class="graph" transform="scale(1 1) rotate(0) translate(4 62)">
<title>Graphical Class Hierarchy</title>
<polygon fill="white" stroke="none" points="-4,4 -4,-62 325,-62 325,4 -4,4"/>
<!-- Node1 -->
<g id="node1" class="node"><title>Node1</title>
<polygon fill="white" stroke="#bfbfbf" points="0,-19.5 0,-38.5 74,-38.5 74,-19.5 0,-19.5"/>
<text text-anchor="middle" x="37" y="-26.5" font-family="Helvetica,sans-Serif" font-size="10.00">runtime_error</text>
</g>
<!-- Node2 -->
<g id="node2" class="node"><title>Node2</title>
<g id="a_node2"><a xlink:href="structfactory_1_1Error.html" target="_top" xlink:title="factory::Error">
<polygon fill="white" stroke="black" points="110,-19.5 110,-38.5 184,-38.5 184,-19.5 110,-19.5"/>
<text text-anchor="middle" x="147" y="-26.5" font-family="Helvetica,sans-Serif" font-size="10.00">factory::Error</text>
</a>
</g>
</g>
<!-- Node1&#45;&gt;Node2 -->
<g id="edge1" class="edge"><title>Node1&#45;&gt;Node2</title>
<path fill="none" stroke="midnightblue" d="M84.3872,-29C92.8374,-29 101.541,-29 109.649,-29"/>
<polygon fill="midnightblue" stroke="midnightblue" points="84.2629,-25.5001 74.2629,-29 84.2628,-32.5001 84.2629,-25.5001"/>
</g>
<!-- Node3 -->
<g id="node3" class="node"><title>Node3</title>
<g id="a_node3"><a xlink:href="structfactory_1_1Bad__kernel.html" target="_top" xlink:title="factory::Bad_kernel">
<polygon fill="white" stroke="black" points="220,-38.5 220,-57.5 321,-57.5 321,-38.5 220,-38.5"/>
<text text-anchor="middle" x="270.5" y="-45.5" font-family="Helvetica,sans-Serif" font-size="10.00">factory::Bad_kernel</text>
</a>
</g>
</g>
<!-- Node2&#45;&gt;Node3 -->
<g id="edge2" class="edge"><title>Node2&#45;&gt;Node3</title>
<path fill="none" stroke="midnightblue" d="M194.121,-36.2123C202.514,-37.5249 211.304,-38.8995 219.796,-40.2274"/>
<polygon fill="midnightblue" stroke="midnightblue" points="194.546,-32.7363 184.125,-34.6492 193.464,-39.6523 194.546,-32.7363"/>
</g>
<!-- Node4 -->
<g id="node4" class="node"><title>Node4</title>
<g id="a_node4"><a xlink:href="structfactory_1_1Bad__type.html" target="_top" xlink:title="factory::Bad_type">
<polygon fill="white" stroke="black" points="223.5,-0.5 223.5,-19.5 317.5,-19.5 317.5,-0.5 223.5,-0.5"/>
<text text-anchor="middle" x="270.5" y="-7.5" font-family="Helvetica,sans-Serif" font-size="10.00">factory::Bad_type</text>
</a>
</g>
</g>
<!-- Node2&#45;&gt;Node4 -->
<g id="edge3" class="edge"><title>Node2&#45;&gt;Node4</title>
<path fill="none" stroke="midnightblue" d="M194.231,-21.7704C203.773,-20.2783 213.822,-18.7068 223.36,-17.2153"/>
<polygon fill="midnightblue" stroke="midnightblue" points="193.464,-18.3477 184.125,-23.3508 194.546,-25.2637 193.464,-18.3477"/>
</g>
</g>
</svg>
