<?xml version="1.0" encoding="UTF-8" standalone="no"?>
<!DOCTYPE svg PUBLIC "-//W3C//DTD SVG 1.1//EN"
 "http://www.w3.org/Graphics/SVG/1.1/DTD/svg11.dtd">
<!-- Generated by graphviz version 2.36.0 (20140111.2315)
 -->
<!-- Title: Graphical Class Hierarchy Pages: 1 -->
<svg width="212pt" height="66pt"
 viewBox="0.00 0.00 212.00 66.00" xmlns="http://www.w3.org/2000/svg" xmlns:xlink="http://www.w3.org/1999/xlink">
<g id="graph0" class="graph" transform="scale(1 1) rotate(0) translate(4 62)">
<title>Graphical Class Hierarchy</title>
<polygon fill="white" stroke="none" points="-4,4 -4,-62 208,-62 208,4 -4,4"/>
<!-- Node1 -->
<g id="node1" class="node"><title>Node1</title>
<polygon fill="white" stroke="#bfbfbf" points="0,-19.5 0,-38.5 36,-38.5 36,-19.5 0,-19.5"/>
<text text-anchor="middle" x="18" y="-26.5" font-family="Helvetica,sans-Serif" font-size="10.00">Test</text>
</g>
<!-- Node2 -->
<g id="node2" class="node"><title>Node2</title>
<g id="a_node2"><a xlink:href="structKernelStreamTest.html" target="_top" xlink:title="KernelStreamTest\&lt; Pair \&gt;">
<polygon fill="white" stroke="black" points="72.5,-38.5 72.5,-57.5 203.5,-57.5 203.5,-38.5 72.5,-38.5"/>
<text text-anchor="middle" x="138" y="-45.5" font-family="Helvetica,sans-Serif" font-size="10.00">KernelStreamTest&lt; Pair &gt;</text>
</a>
</g>
</g>
<!-- Node1&#45;&gt;Node2 -->
<g id="edge1" class="edge"><title>Node1&#45;&gt;Node2</title>
<path fill="none" stroke="midnightblue" d="M46.177,-33.376C55.7225,-34.9129 66.8538,-36.7053 77.9858,-38.4977"/>
<polygon fill="midnightblue" stroke="midnightblue" points="46.5875,-29.897 36.1582,-31.7628 45.4746,-36.808 46.5875,-29.897"/>
</g>
<!-- Node3 -->
<g id="node3" class="node"><title>Node3</title>
<g id="a_node3"><a xlink:href="structLocalServerTest.html" target="_top" xlink:title="LocalServerTest\&lt; Pair \&gt;">
<polygon fill="white" stroke="black" points="76.5,-0.5 76.5,-19.5 199.5,-19.5 199.5,-0.5 76.5,-0.5"/>
<text text-anchor="middle" x="138" y="-7.5" font-family="Helvetica,sans-Serif" font-size="10.00">LocalServerTest&lt; Pair &gt;</text>
</a>
</g>
</g>
<!-- Node1&#45;&gt;Node3 -->
<g id="edge2" class="edge"><title>Node1&#45;&gt;Node3</title>
<path fill="none" stroke="midnightblue" d="M46.177,-24.624C55.7225,-23.0871 66.8538,-21.2947 77.9858,-19.5023"/>
<polygon fill="midnightblue" stroke="midnightblue" points="45.4746,-21.192 36.1582,-26.2372 46.5875,-28.103 45.4746,-21.192"/>
</g>
</g>
</svg>
