<?xml version="1.0" encoding="UTF-8" standalone="no"?>
<!DOCTYPE svg PUBLIC "-//W3C//DTD SVG 1.1//EN"
 "http://www.w3.org/Graphics/SVG/1.1/DTD/svg11.dtd">
<!-- Generated by graphviz version 2.36.0 (20140111.2315)
 -->
<!-- Title: Graphical Class Hierarchy Pages: 1 -->
<svg width="216pt" height="240pt"
 viewBox="0.00 0.00 216.00 240.00" xmlns="http://www.w3.org/2000/svg" xmlns:xlink="http://www.w3.org/1999/xlink">
<g id="graph0" class="graph" transform="scale(1 1) rotate(0) translate(4 236)">
<title>Graphical Class Hierarchy</title>
<polygon fill="white" stroke="none" points="-4,4 -4,-236 212,-236 212,4 -4,4"/>
<!-- Node1 -->
<g id="node1" class="node"><title>Node1</title>
<polygon fill="white" stroke="#bfbfbf" points="0,-95.5 0,-114.5 44,-114.5 44,-95.5 0,-95.5"/>
<text text-anchor="middle" x="22" y="-102.5" font-family="Helvetica,sans-Serif" font-size="10.00">Kernel</text>
</g>
<!-- Node2 -->
<g id="node2" class="node"><title>Node2</title>
<g id="a_node2"><a xlink:href="structfactory_1_1api_1_1Map.html" target="_top" xlink:title="factory::api::Map\&lt;\l F, G, I \&gt;">
<polygon fill="white" stroke="black" points="96,-202 96,-232 192,-232 192,-202 96,-202"/>
<text text-anchor="start" x="104" y="-220" font-family="Helvetica,sans-Serif" font-size="10.00">factory::api::Map&lt;</text>
<text text-anchor="middle" x="144" y="-209" font-family="Helvetica,sans-Serif" font-size="10.00"> F, G, I &gt;</text>
</a>
</g>
</g>
<!-- Node1&#45;&gt;Node2 -->
<g id="edge1" class="edge"><title>Node1&#45;&gt;Node2</title>
<path fill="none" stroke="midnightblue" d="M31.26,-124.132C40.5483,-143.617 57.3465,-173.52 80,-192 84.7414,-195.868 90.156,-199.196 95.7746,-202.044"/>
<polygon fill="midnightblue" stroke="midnightblue" points="34.3215,-122.409 26.9893,-114.762 27.9519,-125.313 34.3215,-122.409"/>
</g>
<!-- Node3 -->
<g id="node3" class="node"><title>Node3</title>
<g id="a_node3"><a xlink:href="structfactory_1_1api_1_1Map_1_1Worker.html" target="_top" xlink:title="factory::api::Map\&lt;\l F, G, I \&gt;::Worker">
<polygon fill="white" stroke="black" points="96,-153 96,-183 192,-183 192,-153 96,-153"/>
<text text-anchor="start" x="104" y="-171" font-family="Helvetica,sans-Serif" font-size="10.00">factory::api::Map&lt;</text>
<text text-anchor="middle" x="144" y="-160" font-family="Helvetica,sans-Serif" font-size="10.00"> F, G, I &gt;::Worker</text>
</a>
</g>
</g>
<!-- Node1&#45;&gt;Node3 -->
<g id="edge2" class="edge"><title>Node1&#45;&gt;Node3</title>
<path fill="none" stroke="midnightblue" d="M43.7978,-120.401C54.3228,-127.792 67.4916,-136.442 80,-143 86.7741,-146.552 94.1698,-149.911 101.435,-152.948"/>
<polygon fill="midnightblue" stroke="midnightblue" points="45.8182,-117.543 35.6511,-114.563 41.7406,-123.233 45.8182,-117.543"/>
</g>
<!-- Node4 -->
<g id="node4" class="node"><title>Node4</title>
<g id="a_node4"><a xlink:href="classfactory_1_1api_1_1Notification.html" target="_top" xlink:title="factory::api::Notification">
<polygon fill="white" stroke="black" points="83.5,-114.5 83.5,-133.5 204.5,-133.5 204.5,-114.5 83.5,-114.5"/>
<text text-anchor="middle" x="144" y="-121.5" font-family="Helvetica,sans-Serif" font-size="10.00">factory::api::Notification</text>
</a>
</g>
</g>
<!-- Node1&#45;&gt;Node4 -->
<g id="edge3" class="edge"><title>Node1&#45;&gt;Node4</title>
<path fill="none" stroke="midnightblue" d="M54.1475,-109.932C63.1437,-111.356 73.2757,-112.96 83.3928,-114.562"/>
<polygon fill="midnightblue" stroke="midnightblue" points="54.6017,-106.46 44.1774,-108.353 53.5069,-113.374 54.6017,-106.46"/>
</g>
<!-- Node5 -->
<g id="node5" class="node"><title>Node5</title>
<g id="a_node5"><a xlink:href="classfactoryd_1_1network__master.html" target="_top" xlink:title="factoryd::network_master">
<polygon fill="white" stroke="black" points="80,-76.5 80,-95.5 208,-95.5 208,-76.5 80,-76.5"/>
<text text-anchor="middle" x="144" y="-83.5" font-family="Helvetica,sans-Serif" font-size="10.00">factoryd::network_master</text>
</a>
</g>
</g>
<!-- Node1&#45;&gt;Node5 -->
<g id="edge4" class="edge"><title>Node1&#45;&gt;Node5</title>
<path fill="none" stroke="midnightblue" d="M54.3086,-100.043C63.1117,-98.649 72.9925,-97.0845 82.8778,-95.5194"/>
<polygon fill="midnightblue" stroke="midnightblue" points="53.5069,-96.626 44.1774,-101.647 54.6017,-103.54 53.5069,-96.626"/>
</g>
<!-- Node6 -->
<g id="node6" class="node"><title>Node6</title>
<g id="a_node6"><a xlink:href="classfactoryd_1_1network__timer.html" target="_top" xlink:title="factoryd::network_timer">
<polygon fill="white" stroke="black" points="84.5,-38.5 84.5,-57.5 203.5,-57.5 203.5,-38.5 84.5,-38.5"/>
<text text-anchor="middle" x="144" y="-45.5" font-family="Helvetica,sans-Serif" font-size="10.00">factoryd::network_timer</text>
</a>
</g>
</g>
<!-- Node1&#45;&gt;Node6 -->
<g id="edge5" class="edge"><title>Node1&#45;&gt;Node6</title>
<path fill="none" stroke="midnightblue" d="M43.1558,-89.4321C53.6895,-81.8603 67.0566,-73.1007 80,-67 87.7503,-63.347 96.3667,-60.2036 104.677,-57.5848"/>
<polygon fill="midnightblue" stroke="midnightblue" points="41.0055,-86.6691 35.0454,-95.4285 45.1671,-92.2977 41.0055,-86.6691"/>
</g>
<!-- Node7 -->
<g id="node7" class="node"><title>Node7</title>
<g id="a_node7"><a xlink:href="structPing.html" target="_top" xlink:title="Ping">
<polygon fill="white" stroke="black" points="126,-0.5 126,-19.5 162,-19.5 162,-0.5 126,-0.5"/>
<text text-anchor="middle" x="144" y="-7.5" font-family="Helvetica,sans-Serif" font-size="10.00">Ping</text>
</a>
</g>
</g>
<!-- Node1&#45;&gt;Node7 -->
<g id="edge6" class="edge"><title>Node1&#45;&gt;Node7</title>
<path fill="none" stroke="midnightblue" d="M32.5848,-86.1244C42.2913,-68.8412 58.8694,-43.7719 80,-29 93.7637,-19.3782 112.493,-14.5416 125.948,-12.1673"/>
<polygon fill="midnightblue" stroke="midnightblue" points="29.3249,-84.7974 27.6814,-95.264 35.4932,-88.1067 29.3249,-84.7974"/>
</g>
</g>
</svg>
