<?xml version="1.0" encoding="UTF-8" standalone="no"?>
<!DOCTYPE svg PUBLIC "-//W3C//DTD SVG 1.1//EN"
 "http://www.w3.org/Graphics/SVG/1.1/DTD/svg11.dtd">
<!-- Generated by graphviz version 2.36.0 (20140111.2315)
 -->
<!-- Title: Graphical Class Hierarchy Pages: 1 -->
<svg width="210pt" height="104pt"
 viewBox="0.00 0.00 210.00 104.00" xmlns="http://www.w3.org/2000/svg" xmlns:xlink="http://www.w3.org/1999/xlink">
<g id="graph0" class="graph" transform="scale(1 1) rotate(0) translate(4 100)">
<title>Graphical Class Hierarchy</title>
<polygon fill="white" stroke="none" points="-4,4 -4,-100 206,-100 206,4 -4,4"/>
<!-- Node1 -->
<g id="node1" class="node"><title>Node1</title>
<polygon fill="white" stroke="#bfbfbf" points="0.5,-38.5 0.5,-57.5 85.5,-57.5 85.5,-38.5 0.5,-38.5"/>
<text text-anchor="middle" x="43" y="-45.5" font-family="Helvetica,sans-Serif" font-size="10.00">TestWithParam</text>
</g>
<!-- Node2 -->
<g id="node2" class="node"><title>Node2</title>
<g id="a_node2"><a xlink:href="structBigSizeTest.html" target="_top" xlink:title="BigSizeTest">
<polygon fill="white" stroke="black" points="127,-76.5 127,-95.5 197,-95.5 197,-76.5 127,-76.5"/>
<text text-anchor="middle" x="162" y="-83.5" font-family="Helvetica,sans-Serif" font-size="10.00">BigSizeTest</text>
</a>
</g>
</g>
<!-- Node1&#45;&gt;Node2 -->
<g id="edge1" class="edge"><title>Node1&#45;&gt;Node2</title>
<path fill="none" stroke="midnightblue" d="M83.0424,-60.6804C98.8509,-65.8148 116.799,-71.6441 131.485,-76.4141"/>
<polygon fill="midnightblue" stroke="midnightblue" points="84.1162,-57.3493 73.524,-57.589 81.9538,-64.0069 84.1162,-57.3493"/>
</g>
<!-- Node3 -->
<g id="node3" class="node"><title>Node3</title>
<g id="a_node3"><a xlink:href="structSHA1Test.html" target="_top" xlink:title="SHA1Test">
<polygon fill="white" stroke="black" points="131,-38.5 131,-57.5 193,-57.5 193,-38.5 131,-38.5"/>
<text text-anchor="middle" x="162" y="-45.5" font-family="Helvetica,sans-Serif" font-size="10.00">SHA1Test</text>
</a>
</g>
</g>
<!-- Node1&#45;&gt;Node3 -->
<g id="edge2" class="edge"><title>Node1&#45;&gt;Node3</title>
<path fill="none" stroke="midnightblue" d="M95.5931,-48C107.681,-48 120.168,-48 130.95,-48"/>
<polygon fill="midnightblue" stroke="midnightblue" points="95.5793,-44.5001 85.5793,-48 95.5792,-51.5001 95.5793,-44.5001"/>
</g>
<!-- Node4 -->
<g id="node4" class="node"><title>Node4</title>
<g id="a_node4"><a xlink:href="structSmallSizeTest.html" target="_top" xlink:title="SmallSizeTest">
<polygon fill="white" stroke="black" points="122,-0.5 122,-19.5 202,-19.5 202,-0.5 122,-0.5"/>
<text text-anchor="middle" x="162" y="-7.5" font-family="Helvetica,sans-Serif" font-size="10.00">SmallSizeTest</text>
</a>
</g>
</g>
<!-- Node1&#45;&gt;Node4 -->
<g id="edge3" class="edge"><title>Node1&#45;&gt;Node4</title>
<path fill="none" stroke="midnightblue" d="M83.0424,-35.3196C98.8509,-30.1852 116.799,-24.3559 131.485,-19.5859"/>
<polygon fill="midnightblue" stroke="midnightblue" points="81.9538,-31.9931 73.524,-38.411 84.1162,-38.6507 81.9538,-31.9931"/>
</g>
</g>
</svg>
