<?xml version="1.0" encoding="UTF-8" standalone="no"?>
<!DOCTYPE svg PUBLIC "-//W3C//DTD SVG 1.1//EN"
 "http://www.w3.org/Graphics/SVG/1.1/DTD/svg11.dtd">
<!-- Generated by graphviz version 2.38.0 (20140413.2041)
 -->
<!-- Title: Graphical Class Hierarchy Pages: 1 -->
<svg width="317pt" height="28pt"
 viewBox="0.00 0.00 317.00 28.00" xmlns="http://www.w3.org/2000/svg" xmlns:xlink="http://www.w3.org/1999/xlink">
<g id="graph0" class="graph" transform="scale(1 1) rotate(0) translate(4 24)">
<title>Graphical Class Hierarchy</title>
<polygon fill="white" stroke="none" points="-4,4 -4,-24 313,-24 313,4 -4,4"/>
<!-- Node1 -->
<g id="node1" class="node"><title>Node1</title>
<g id="a_node1"><a xlink:href="structsys_1_1fildes.html" target="_top" xlink:title="sys::fildes">
<polygon fill="white" stroke="black" points="0,-0.5 0,-19.5 62,-19.5 62,-0.5 0,-0.5"/>
<text text-anchor="middle" x="31" y="-7.5" font-family="Helvetica,sans-Serif" font-size="10.00">sys::fildes</text>
</a>
</g>
</g>
<!-- Node2 -->
<g id="node2" class="node"><title>Node2</title>
<g id="a_node2"><a xlink:href="structsys_1_1socket.html" target="_top" xlink:title="sys::socket">
<polygon fill="white" stroke="black" points="98,-0.5 98,-19.5 166,-19.5 166,-0.5 98,-0.5"/>
<text text-anchor="middle" x="132" y="-7.5" font-family="Helvetica,sans-Serif" font-size="10.00">sys::socket</text>
</a>
</g>
</g>
<!-- Node1&#45;&gt;Node2 -->
<g id="edge1" class="edge"><title>Node1&#45;&gt;Node2</title>
<path fill="none" stroke="midnightblue" d="M72.3295,-10C80.8088,-10 89.6602,-10 97.8408,-10"/>
<polygon fill="midnightblue" stroke="midnightblue" points="72.2412,-6.5001 62.2412,-10 72.2412,-13.5001 72.2412,-6.5001"/>
</g>
<!-- Node3 -->
<g id="node3" class="node"><title>Node3</title>
<g id="a_node3"><a xlink:href="structfactory_1_1Web__socket.html" target="_top" xlink:title="factory::Web_socket">
<polygon fill="white" stroke="black" points="202,-0.5 202,-19.5 309,-19.5 309,-0.5 202,-0.5"/>
<text text-anchor="middle" x="255.5" y="-7.5" font-family="Helvetica,sans-Serif" font-size="10.00">factory::Web_socket</text>
</a>
</g>
</g>
<!-- Node2&#45;&gt;Node3 -->
<g id="edge2" class="edge"><title>Node2&#45;&gt;Node3</title>
<path fill="none" stroke="midnightblue" d="M176.313,-10C184.533,-10 193.219,-10 201.694,-10"/>
<polygon fill="midnightblue" stroke="midnightblue" points="176.2,-6.5001 166.2,-10 176.2,-13.5001 176.2,-6.5001"/>
</g>
</g>
</svg>
