<?xml version="1.0" encoding="UTF-8" standalone="no"?>
<!DOCTYPE svg PUBLIC "-//W3C//DTD SVG 1.1//EN"
 "http://www.w3.org/Graphics/SVG/1.1/DTD/svg11.dtd">
<!-- Generated by graphviz version 2.36.0 (20140111.2315)
 -->
<!-- Title: Graphical Class Hierarchy Pages: 1 -->
<svg width="244pt" height="136pt"
 viewBox="0.00 0.00 244.00 136.00" xmlns="http://www.w3.org/2000/svg" xmlns:xlink="http://www.w3.org/1999/xlink">
<g id="graph0" class="graph" transform="scale(1 1) rotate(0) translate(4 132)">
<title>Graphical Class Hierarchy</title>
<polygon fill="white" stroke="none" points="-4,4 -4,-132 240,-132 240,4 -4,4"/>
<!-- Node1 -->
<g id="node1" class="node"><title>Node1</title>
<g id="a_node1"><a xlink:href="structstdx_1_1bits_1_1Field.html" target="_top" xlink:title="stdx::bits::Field\&lt;\l Args...\&gt;">
<polygon fill="white" stroke="black" points="0,-49 0,-79 90,-79 90,-49 0,-49"/>
<text text-anchor="start" x="8" y="-67" font-family="Helvetica,sans-Serif" font-size="10.00">stdx::bits::Field&lt;</text>
<text text-anchor="middle" x="45" y="-56" font-family="Helvetica,sans-Serif" font-size="10.00"> Args...&gt;</text>
</a>
</g>
</g>
<!-- Node2 -->
<g id="node2" class="node"><title>Node2</title>
<g id="a_node2"><a xlink:href="structstdx_1_1bits_1_1Field_3_01Key_00_01Value_00_01Args_8_8_8_4.html" target="_top" xlink:title="stdx::bits::Field\&lt;\l Key, Value, Args...\&gt;">
<polygon fill="white" stroke="black" points="126.5,-98 126.5,-128 235.5,-128 235.5,-98 126.5,-98"/>
<text text-anchor="start" x="134.5" y="-116" font-family="Helvetica,sans-Serif" font-size="10.00">stdx::bits::Field&lt;</text>
<text text-anchor="middle" x="181" y="-105" font-family="Helvetica,sans-Serif" font-size="10.00"> Key, Value, Args...&gt;</text>
</a>
</g>
</g>
<!-- Node1&#45;&gt;Node2 -->
<g id="edge1" class="edge"><title>Node1&#45;&gt;Node2</title>
<path fill="none" stroke="midnightblue" d="M97.0884,-82.6816C110.812,-87.7001 125.482,-93.0643 138.608,-97.8641"/>
<polygon fill="midnightblue" stroke="midnightblue" points="97.8916,-79.2487 87.2978,-79.1014 95.4876,-85.8229 97.8916,-79.2487"/>
</g>
<!-- Node3 -->
<g id="node3" class="node"><title>Node3</title>
<g id="a_node3"><a xlink:href="structstdx_1_1bits_1_1Function.html" target="_top" xlink:title="stdx::bits::Function\l\&lt; Args \&gt;">
<polygon fill="white" stroke="black" points="130.5,-49 130.5,-79 231.5,-79 231.5,-49 130.5,-49"/>
<text text-anchor="start" x="138.5" y="-67" font-family="Helvetica,sans-Serif" font-size="10.00">stdx::bits::Function</text>
<text text-anchor="middle" x="181" y="-56" font-family="Helvetica,sans-Serif" font-size="10.00">&lt; Args &gt;</text>
</a>
</g>
</g>
<!-- Node1&#45;&gt;Node3 -->
<g id="edge2" class="edge"><title>Node1&#45;&gt;Node3</title>
<path fill="none" stroke="midnightblue" d="M100.367,-64C110.245,-64 120.503,-64 130.24,-64"/>
<polygon fill="midnightblue" stroke="midnightblue" points="100.248,-60.5001 90.248,-64 100.248,-67.5001 100.248,-60.5001"/>
</g>
<!-- Node4 -->
<g id="node4" class="node"><title>Node4</title>
<g id="a_node4"><a xlink:href="structstdx_1_1bits_1_1Object.html" target="_top" xlink:title="stdx::bits::Object\l\&lt; Args \&gt;">
<polygon fill="white" stroke="black" points="135,-0 135,-30 227,-30 227,-0 135,-0"/>
<text text-anchor="start" x="143" y="-18" font-family="Helvetica,sans-Serif" font-size="10.00">stdx::bits::Object</text>
<text text-anchor="middle" x="181" y="-7" font-family="Helvetica,sans-Serif" font-size="10.00">&lt; Args &gt;</text>
</a>
</g>
</g>
<!-- Node1&#45;&gt;Node4 -->
<g id="edge3" class="edge"><title>Node1&#45;&gt;Node4</title>
<path fill="none" stroke="midnightblue" d="M97.0884,-45.3184C110.812,-40.2999 125.482,-34.9357 138.608,-30.1359"/>
<polygon fill="midnightblue" stroke="midnightblue" points="95.4876,-42.1771 87.2978,-48.8986 97.8916,-48.7513 95.4876,-42.1771"/>
</g>
</g>
</svg>
