<?xml version="1.0" encoding="UTF-8" standalone="no"?>
<!DOCTYPE svg PUBLIC "-//W3C//DTD SVG 1.1//EN"
 "http://www.w3.org/Graphics/SVG/1.1/DTD/svg11.dtd">
<!-- Generated by graphviz version 2.36.0 (20140111.2315)
 -->
<!-- Title: Graphical Class Hierarchy Pages: 1 -->
<svg width="244pt" height="507pt"
 viewBox="0.00 0.00 244.00 507.00" xmlns="http://www.w3.org/2000/svg" xmlns:xlink="http://www.w3.org/1999/xlink">
<g id="graph0" class="graph" transform="scale(1 1) rotate(0) translate(4 503)">
<title>Graphical Class Hierarchy</title>
<polygon fill="white" stroke="none" points="-4,4 -4,-503 240,-503 240,4 -4,4"/>
<!-- Node1 -->
<g id="node1" class="node"><title>Node1</title>
<polygon fill="white" stroke="#bfbfbf" points="0,-228.5 0,-247.5 44,-247.5 44,-228.5 0,-228.5"/>
<text text-anchor="middle" x="22" y="-235.5" font-family="Helvetica,sans-Serif" font-size="10.00">Kernel</text>
</g>
<!-- Node2 -->
<g id="node2" class="node"><title>Node2</title>
<g id="a_node2"><a xlink:href="classautoreg_1_1Autoreg__model.html" target="_top" xlink:title="autoreg::Autoreg_model\&lt; T \&gt;">
<polygon fill="white" stroke="black" points="86,-479.5 86,-498.5 230,-498.5 230,-479.5 86,-479.5"/>
<text text-anchor="middle" x="158" y="-486.5" font-family="Helvetica,sans-Serif" font-size="10.00">autoreg::Autoreg_model&lt; T &gt;</text>
</a>
</g>
</g>
<!-- Node1&#45;&gt;Node2 -->
<g id="edge1" class="edge"><title>Node1&#45;&gt;Node2</title>
<path fill="none" stroke="midnightblue" d="M25.2251,-257.689C31.3107,-308.064 49.8185,-439.788 80,-470 83.7952,-473.799 88.2211,-476.881 92.9975,-479.378"/>
<polygon fill="midnightblue" stroke="midnightblue" points="28.6987,-257.259 24.0578,-247.734 21.7463,-258.074 28.6987,-257.259"/>
</g>
<!-- Node3 -->
<g id="node3" class="node"><title>Node3</title>
<g id="a_node3"><a xlink:href="classautoreg_1_1Velocity__potential.html" target="_top" xlink:title="autoreg::Velocity_potential\&lt; T \&gt;">
<polygon fill="white" stroke="black" points="80,-441.5 80,-460.5 236,-460.5 236,-441.5 80,-441.5"/>
<text text-anchor="middle" x="158" y="-448.5" font-family="Helvetica,sans-Serif" font-size="10.00">autoreg::Velocity_potential&lt; T &gt;</text>
</a>
</g>
</g>
<!-- Node1&#45;&gt;Node3 -->
<g id="edge2" class="edge"><title>Node1&#45;&gt;Node3</title>
<path fill="none" stroke="midnightblue" d="M22.8293,-257.719C23.6109,-296.645 31.0933,-383.683 80,-431 84.4669,-435.322 89.7426,-438.742 95.4047,-441.444"/>
<polygon fill="midnightblue" stroke="midnightblue" points="26.329,-257.658 22.7603,-247.682 19.3292,-257.706 26.329,-257.658"/>
</g>
<!-- Node4 -->
<g id="node4" class="node"><title>Node4</title>
<g id="a_node4"><a xlink:href="structfactory_1_1api_1_1Map.html" target="_top" xlink:title="factory::api::Map\&lt;\l F, G, I \&gt;">
<polygon fill="white" stroke="black" points="110,-392 110,-422 206,-422 206,-392 110,-392"/>
<text text-anchor="start" x="118" y="-410" font-family="Helvetica,sans-Serif" font-size="10.00">factory::api::Map&lt;</text>
<text text-anchor="middle" x="158" y="-399" font-family="Helvetica,sans-Serif" font-size="10.00"> F, G, I &gt;</text>
</a>
</g>
</g>
<!-- Node1&#45;&gt;Node4 -->
<g id="edge3" class="edge"><title>Node1&#45;&gt;Node4</title>
<path fill="none" stroke="midnightblue" d="M25.4032,-257.548C30.2131,-288.328 43.8632,-348.07 80,-382 88.2995,-389.793 99.0557,-395.157 109.883,-398.849"/>
<polygon fill="midnightblue" stroke="midnightblue" points="28.8655,-257.035 24.0059,-247.62 21.9339,-258.01 28.8655,-257.035"/>
</g>
<!-- Node5 -->
<g id="node5" class="node"><title>Node5</title>
<g id="a_node5"><a xlink:href="structfactory_1_1api_1_1Map_1_1Worker.html" target="_top" xlink:title="factory::api::Map\&lt;\l F, G, I \&gt;::Worker">
<polygon fill="white" stroke="black" points="110,-343 110,-373 206,-373 206,-343 110,-343"/>
<text text-anchor="start" x="118" y="-361" font-family="Helvetica,sans-Serif" font-size="10.00">factory::api::Map&lt;</text>
<text text-anchor="middle" x="158" y="-350" font-family="Helvetica,sans-Serif" font-size="10.00"> F, G, I &gt;::Worker</text>
</a>
</g>
</g>
<!-- Node1&#45;&gt;Node5 -->
<g id="edge4" class="edge"><title>Node1&#45;&gt;Node5</title>
<path fill="none" stroke="midnightblue" d="M29.7923,-257.281C38.3041,-278.741 54.8937,-313.021 80,-333 88.6882,-339.914 99.3469,-344.941 109.933,-348.588"/>
<polygon fill="midnightblue" stroke="midnightblue" points="32.961,-255.763 26.1678,-247.633 26.4081,-258.225 32.961,-255.763"/>
</g>
<!-- Node6 -->
<g id="node6" class="node"><title>Node6</title>
<g id="a_node6"><a xlink:href="classfactory_1_1api_1_1Notification.html" target="_top" xlink:title="factory::api::Notification">
<polygon fill="white" stroke="black" points="97.5,-304.5 97.5,-323.5 218.5,-323.5 218.5,-304.5 97.5,-304.5"/>
<text text-anchor="middle" x="158" y="-311.5" font-family="Helvetica,sans-Serif" font-size="10.00">factory::api::Notification</text>
</a>
</g>
</g>
<!-- Node1&#45;&gt;Node6 -->
<g id="edge5" class="edge"><title>Node1&#45;&gt;Node6</title>
<path fill="none" stroke="midnightblue" d="M36.325,-255.765C46.827,-268.533 62.57,-285.166 80,-295 86.8355,-298.856 94.4444,-301.937 102.143,-304.397"/>
<polygon fill="midnightblue" stroke="midnightblue" points="38.8799,-253.353 29.9354,-247.674 33.3864,-257.692 38.8799,-253.353"/>
</g>
<!-- Node7 -->
<g id="node7" class="node"><title>Node7</title>
<g id="a_node7"><a xlink:href="classfactory_1_1master__discoverer.html" target="_top" xlink:title="factory::master_discoverer">
<polygon fill="white" stroke="black" points="91.5,-266.5 91.5,-285.5 224.5,-285.5 224.5,-266.5 91.5,-266.5"/>
<text text-anchor="middle" x="158" y="-273.5" font-family="Helvetica,sans-Serif" font-size="10.00">factory::master_discoverer</text>
</a>
</g>
</g>
<!-- Node1&#45;&gt;Node7 -->
<g id="edge6" class="edge"><title>Node1&#45;&gt;Node7</title>
<path fill="none" stroke="midnightblue" d="M53.7634,-248.754C62.224,-251.574 71.4301,-254.519 80,-257 91.5064,-260.332 104.085,-263.593 115.678,-266.447"/>
<polygon fill="midnightblue" stroke="midnightblue" points="54.851,-245.427 44.2567,-245.534 52.6056,-252.057 54.851,-245.427"/>
</g>
<!-- Node8 -->
<g id="node8" class="node"><title>Node8</title>
<g id="a_node8"><a xlink:href="classfactory_1_1resident__kernel.html" target="_top" xlink:title="factory::resident_kernel">
<polygon fill="white" stroke="black" points="98.5,-228.5 98.5,-247.5 217.5,-247.5 217.5,-228.5 98.5,-228.5"/>
<text text-anchor="middle" x="158" y="-235.5" font-family="Helvetica,sans-Serif" font-size="10.00">factory::resident_kernel</text>
</a>
</g>
</g>
<!-- Node1&#45;&gt;Node8 -->
<g id="edge7" class="edge"><title>Node1&#45;&gt;Node8</title>
<path fill="none" stroke="midnightblue" d="M54.5525,-238C67.6269,-238 83.2306,-238 98.2698,-238"/>
<polygon fill="midnightblue" stroke="midnightblue" points="54.2327,-234.5 44.2327,-238 54.2327,-241.5 54.2327,-234.5"/>
</g>
<!-- Node9 -->
<g id="node9" class="node"><title>Node9</title>
<g id="a_node9"><a xlink:href="classfactoryd_1_1network__master.html" target="_top" xlink:title="factoryd::network_master">
<polygon fill="white" stroke="black" points="94,-190.5 94,-209.5 222,-209.5 222,-190.5 94,-190.5"/>
<text text-anchor="middle" x="158" y="-197.5" font-family="Helvetica,sans-Serif" font-size="10.00">factoryd::network_master</text>
</a>
</g>
</g>
<!-- Node1&#45;&gt;Node9 -->
<g id="edge8" class="edge"><title>Node1&#45;&gt;Node9</title>
<path fill="none" stroke="midnightblue" d="M53.7634,-227.246C62.224,-224.426 71.4301,-221.481 80,-219 91.5064,-215.668 104.085,-212.407 115.678,-209.553"/>
<polygon fill="midnightblue" stroke="midnightblue" points="52.6056,-223.943 44.2567,-230.466 54.851,-230.573 52.6056,-223.943"/>
</g>
<!-- Node10 -->
<g id="node10" class="node"><title>Node10</title>
<g id="a_node10"><a xlink:href="classfactoryd_1_1network__timer.html" target="_top" xlink:title="factoryd::network_timer">
<polygon fill="white" stroke="black" points="98.5,-152.5 98.5,-171.5 217.5,-171.5 217.5,-152.5 98.5,-152.5"/>
<text text-anchor="middle" x="158" y="-159.5" font-family="Helvetica,sans-Serif" font-size="10.00">factoryd::network_timer</text>
</a>
</g>
</g>
<!-- Node1&#45;&gt;Node10 -->
<g id="edge9" class="edge"><title>Node1&#45;&gt;Node10</title>
<path fill="none" stroke="midnightblue" d="M36.325,-220.235C46.827,-207.467 62.57,-190.834 80,-181 86.8355,-177.144 94.4444,-174.063 102.143,-171.603"/>
<polygon fill="midnightblue" stroke="midnightblue" points="33.3864,-218.308 29.9354,-228.326 38.8799,-222.647 33.3864,-218.308"/>
</g>
<!-- Node11 -->
<g id="node11" class="node"><title>Node11</title>
<g id="a_node11"><a xlink:href="structLauncher.html" target="_top" xlink:title="Launcher">
<polygon fill="white" stroke="black" points="130,-114.5 130,-133.5 186,-133.5 186,-114.5 130,-114.5"/>
<text text-anchor="middle" x="158" y="-121.5" font-family="Helvetica,sans-Serif" font-size="10.00">Launcher</text>
</a>
</g>
</g>
<!-- Node1&#45;&gt;Node11 -->
<g id="edge10" class="edge"><title>Node1&#45;&gt;Node11</title>
<path fill="none" stroke="midnightblue" d="M29.2973,-219.016C37.4969,-197.293 53.9399,-162.247 80,-143 94.3984,-132.366 114.03,-127.632 129.866,-125.549"/>
<polygon fill="midnightblue" stroke="midnightblue" points="25.9841,-217.887 25.9283,-228.482 32.5788,-220.234 25.9841,-217.887"/>
</g>
<!-- Node12 -->
<g id="node12" class="node"><title>Node12</title>
<g id="a_node12"><a xlink:href="structPing.html" target="_top" xlink:title="Ping">
<polygon fill="white" stroke="black" points="140,-76.5 140,-95.5 176,-95.5 176,-76.5 140,-76.5"/>
<text text-anchor="middle" x="158" y="-83.5" font-family="Helvetica,sans-Serif" font-size="10.00">Ping</text>
</a>
</g>
</g>
<!-- Node1&#45;&gt;Node12 -->
<g id="edge11" class="edge"><title>Node1&#45;&gt;Node12</title>
<path fill="none" stroke="midnightblue" d="M25.8872,-218.008C31.1998,-188.715 45.3421,-134.425 80,-105 96.7941,-90.7418 122.674,-86.8845 139.722,-85.9965"/>
<polygon fill="midnightblue" stroke="midnightblue" points="22.3745,-217.802 24.211,-228.236 29.2823,-218.934 22.3745,-217.802"/>
</g>
<!-- Node13 -->
<g id="node13" class="node"><title>Node13</title>
<g id="a_node13"><a xlink:href="structPing__pong.html" target="_top" xlink:title="Ping_pong">
<polygon fill="white" stroke="black" points="127,-38.5 127,-57.5 189,-57.5 189,-38.5 127,-38.5"/>
<text text-anchor="middle" x="158" y="-45.5" font-family="Helvetica,sans-Serif" font-size="10.00">Ping_pong</text>
</a>
</g>
</g>
<!-- Node1&#45;&gt;Node13 -->
<g id="edge12" class="edge"><title>Node1&#45;&gt;Node13</title>
<path fill="none" stroke="midnightblue" d="M23.6864,-218.028C26.0335,-182.3 36.2223,-107.415 80,-67 92.545,-55.4185 111.003,-50.5988 126.702,-48.7077"/>
<polygon fill="midnightblue" stroke="midnightblue" points="20.1838,-217.992 23.1673,-228.158 27.1746,-218.35 20.1838,-217.992"/>
</g>
<!-- Node14 -->
<g id="node14" class="node"><title>Node14</title>
<g id="a_node14"><a xlink:href="structYear__kernel.html" target="_top" xlink:title="Year_kernel">
<polygon fill="white" stroke="black" points="124,-0.5 124,-19.5 192,-19.5 192,-0.5 124,-0.5"/>
<text text-anchor="middle" x="158" y="-7.5" font-family="Helvetica,sans-Serif" font-size="10.00">Year_kernel</text>
</a>
</g>
</g>
<!-- Node1&#45;&gt;Node14 -->
<g id="edge13" class="edge"><title>Node1&#45;&gt;Node14</title>
<path fill="none" stroke="midnightblue" d="M22.241,-218.335C21.7823,-177.045 26.8581,-80.8644 80,-29 91.529,-17.7481 108.603,-12.8125 123.746,-10.7699"/>
<polygon fill="midnightblue" stroke="midnightblue" points="18.7445,-218.529 22.4818,-228.443 25.7425,-218.362 18.7445,-218.529"/>
</g>
</g>
</svg>
