<?xml version="1.0" encoding="UTF-8" standalone="no"?>
<!DOCTYPE svg PUBLIC "-//W3C//DTD SVG 1.1//EN"
 "http://www.w3.org/Graphics/SVG/1.1/DTD/svg11.dtd">
<!-- Generated by graphviz version 2.36.0 (20140111.2315)
 -->
<!-- Title: Graphical Class Hierarchy Pages: 1 -->
<svg width="626pt" height="498pt"
 viewBox="0.00 0.00 626.00 498.00" xmlns="http://www.w3.org/2000/svg" xmlns:xlink="http://www.w3.org/1999/xlink">
<g id="graph0" class="graph" transform="scale(1 1) rotate(0) translate(4 494)">
<title>Graphical Class Hierarchy</title>
<polygon fill="white" stroke="none" points="-4,4 -4,-494 622,-494 622,4 -4,4"/>
<!-- Node1 -->
<g id="node1" class="node"><title>Node1</title>
<g id="a_node1"><a xlink:href="classbsc_1_1pipeline__base.html" target="_top" xlink:title="bsc::pipeline_base">
<polygon fill="white" stroke="black" points="0,-131.5 0,-150.5 98,-150.5 98,-131.5 0,-131.5"/>
<text text-anchor="middle" x="49" y="-138.5" font-family="Helvetica,sans-Serif" font-size="10.00">bsc::pipeline_base</text>
</a>
</g>
</g>
<!-- Node2 -->
<g id="node2" class="node"><title>Node2</title>
<g id="a_node2"><a xlink:href="classbsc_1_1basic__pipeline.html" target="_top" xlink:title="bsc::basic_pipeline\&lt; T \&gt;">
<polygon fill="white" stroke="black" points="134,-418.5 134,-437.5 258,-437.5 258,-418.5 134,-418.5"/>
<text text-anchor="middle" x="196" y="-425.5" font-family="Helvetica,sans-Serif" font-size="10.00">bsc::basic_pipeline&lt; T &gt;</text>
</a>
</g>
</g>
<!-- Node1&#45;&gt;Node2 -->
<g id="edge1" class="edge"><title>Node1&#45;&gt;Node2</title>
<path fill="none" stroke="midnightblue" d="M55.1282,-160.372C65.9728,-199.432 93.5986,-289.652 134,-357 148.546,-381.248 171.499,-405.334 184.711,-418.276"/>
<polygon fill="midnightblue" stroke="midnightblue" points="58.4649,-159.304 52.4643,-150.572 51.71,-161.14 58.4649,-159.304"/>
</g>
<!-- Node5 -->
<g id="node5" class="node"><title>Node5</title>
<g id="a_node5"><a xlink:href="classbsc_1_1basic__handler.html" target="_top" xlink:title="bsc::basic_handler">
<polygon fill="white" stroke="black" points="147,-328.5 147,-347.5 245,-347.5 245,-328.5 147,-328.5"/>
<text text-anchor="middle" x="196" y="-335.5" font-family="Helvetica,sans-Serif" font-size="10.00">bsc::basic_handler</text>
</a>
</g>
</g>
<!-- Node1&#45;&gt;Node5 -->
<g id="edge4" class="edge"><title>Node1&#45;&gt;Node5</title>
<path fill="none" stroke="midnightblue" d="M62.9547,-158.601C92.606,-198.885 164.627,-296.735 187.735,-328.13"/>
<polygon fill="midnightblue" stroke="midnightblue" points="65.7403,-156.481 56.9937,-150.502 60.1027,-160.63 65.7403,-156.481"/>
</g>
<!-- Node10 -->
<g id="node10" class="node"><title>Node10</title>
<g id="a_node10"><a xlink:href="classbsc_1_1basic__pipeline.html" target="_top" xlink:title="bsc::basic_pipeline\l\&lt; T, Kernels, Traits,\l Threads, Mutex, Lock,\l Semaphore \&gt;">
<polygon fill="white" stroke="black" points="137,-175 137,-227 255,-227 255,-175 137,-175"/>
<text text-anchor="start" x="145" y="-215" font-family="Helvetica,sans-Serif" font-size="10.00">bsc::basic_pipeline</text>
<text text-anchor="start" x="145" y="-204" font-family="Helvetica,sans-Serif" font-size="10.00">&lt; T, Kernels, Traits,</text>
<text text-anchor="start" x="145" y="-193" font-family="Helvetica,sans-Serif" font-size="10.00"> Threads, Mutex, Lock,</text>
<text text-anchor="middle" x="196" y="-182" font-family="Helvetica,sans-Serif" font-size="10.00"> Semaphore &gt;</text>
</a>
</g>
</g>
<!-- Node1&#45;&gt;Node10 -->
<g id="edge9" class="edge"><title>Node1&#45;&gt;Node10</title>
<path fill="none" stroke="midnightblue" d="M82.4118,-154.412C98.4305,-161.04 118.257,-169.244 136.788,-176.912"/>
<polygon fill="midnightblue" stroke="midnightblue" points="83.5541,-151.097 72.9757,-150.507 80.8776,-157.565 83.5541,-151.097"/>
</g>
<!-- Node21 -->
<g id="node21" class="node"><title>Node21</title>
<g id="a_node21"><a xlink:href="classbsc_1_1external__process__handler.html" target="_top" xlink:title="bsc::external_process\l_handler\&lt; T, Router \&gt;">
<polygon fill="white" stroke="black" points="139.5,-126 139.5,-156 252.5,-156 252.5,-126 139.5,-126"/>
<text text-anchor="start" x="147.5" y="-144" font-family="Helvetica,sans-Serif" font-size="10.00">bsc::external_process</text>
<text text-anchor="middle" x="196" y="-133" font-family="Helvetica,sans-Serif" font-size="10.00">_handler&lt; T, Router &gt;</text>
</a>
</g>
</g>
<!-- Node1&#45;&gt;Node21 -->
<g id="edge20" class="edge"><title>Node1&#45;&gt;Node21</title>
<path fill="none" stroke="midnightblue" d="M108.363,-141C118.606,-141 129.241,-141 139.406,-141"/>
<polygon fill="midnightblue" stroke="midnightblue" points="108.283,-137.5 98.2829,-141 108.283,-144.5 108.283,-137.5"/>
</g>
<!-- Node22 -->
<g id="node22" class="node"><title>Node22</title>
<g id="a_node22"><a xlink:href="classbsc_1_1Factory.html" target="_top" xlink:title="bsc::Factory\&lt; T \&gt;">
<polygon fill="white" stroke="black" points="148.5,-87.5 148.5,-106.5 243.5,-106.5 243.5,-87.5 148.5,-87.5"/>
<text text-anchor="middle" x="196" y="-94.5" font-family="Helvetica,sans-Serif" font-size="10.00">bsc::Factory&lt; T &gt;</text>
</a>
</g>
</g>
<!-- Node1&#45;&gt;Node22 -->
<g id="edge21" class="edge"><title>Node1&#45;&gt;Node22</title>
<path fill="none" stroke="midnightblue" d="M91.287,-128.472C114.27,-121.497 142.426,-112.954 163.599,-106.529"/>
<polygon fill="midnightblue" stroke="midnightblue" points="90.0156,-125.2 81.4628,-131.453 92.0483,-131.898 90.0156,-125.2"/>
</g>
<!-- Node23 -->
<g id="node23" class="node"><title>Node23</title>
<g id="a_node23"><a xlink:href="classbsc_1_1Multi__pipeline.html" target="_top" xlink:title="bsc::Multi_pipeline\&lt; T \&gt;">
<polygon fill="white" stroke="black" points="135,-49.5 135,-68.5 257,-68.5 257,-49.5 135,-49.5"/>
<text text-anchor="middle" x="196" y="-56.5" font-family="Helvetica,sans-Serif" font-size="10.00">bsc::Multi_pipeline&lt; T &gt;</text>
</a>
</g>
</g>
<!-- Node1&#45;&gt;Node23 -->
<g id="edge22" class="edge"><title>Node1&#45;&gt;Node23</title>
<path fill="none" stroke="midnightblue" d="M67.9742,-124.621C84.2014,-110.573 109.261,-90.6517 134,-78 141.209,-74.3132 149.267,-71.1841 157.103,-68.5943"/>
<polygon fill="midnightblue" stroke="midnightblue" points="65.5198,-122.119 60.3419,-131.362 70.1539,-127.365 65.5198,-122.119"/>
</g>
<!-- Node24 -->
<g id="node24" class="node"><title>Node24</title>
<g id="a_node24"><a xlink:href="classbsc_1_1remote__client.html" target="_top" xlink:title="bsc::remote_client\l\&lt; T, Socket, Router \&gt;">
<polygon fill="white" stroke="black" points="139.5,-0 139.5,-30 252.5,-30 252.5,-0 139.5,-0"/>
<text text-anchor="start" x="147.5" y="-18" font-family="Helvetica,sans-Serif" font-size="10.00">bsc::remote_client</text>
<text text-anchor="middle" x="196" y="-7" font-family="Helvetica,sans-Serif" font-size="10.00">&lt; T, Socket, Router &gt;</text>
</a>
</g>
</g>
<!-- Node1&#45;&gt;Node24 -->
<g id="edge23" class="edge"><title>Node1&#45;&gt;Node24</title>
<path fill="none" stroke="midnightblue" d="M61.1066,-122.815C75.4829,-100.603 102.465,-63.1379 134,-40 139.075,-36.2762 144.785,-32.9985 150.623,-30.1472"/>
<polygon fill="midnightblue" stroke="midnightblue" points="58.1196,-120.99 55.7405,-131.314 64.0387,-124.727 58.1196,-120.99"/>
</g>
<!-- Node3 -->
<g id="node3" class="node"><title>Node3</title>
<g id="a_node3"><a xlink:href="classbsc_1_1parallel__pipeline.html" target="_top" xlink:title="bsc::parallel_pipeline\&lt; T \&gt;">
<polygon fill="white" stroke="black" points="308.5,-470.5 308.5,-489.5 439.5,-489.5 439.5,-470.5 308.5,-470.5"/>
<text text-anchor="middle" x="374" y="-477.5" font-family="Helvetica,sans-Serif" font-size="10.00">bsc::parallel_pipeline&lt; T &gt;</text>
</a>
</g>
</g>
<!-- Node2&#45;&gt;Node3 -->
<g id="edge2" class="edge"><title>Node2&#45;&gt;Node3</title>
<path fill="none" stroke="midnightblue" d="M233.988,-440.884C252.001,-446.983 274.032,-454.186 294,-460 306.633,-463.678 320.513,-467.323 333.067,-470.474"/>
<polygon fill="midnightblue" stroke="midnightblue" points="235.028,-437.541 224.433,-437.625 232.768,-444.166 235.028,-437.541"/>
</g>
<!-- Node4 -->
<g id="node4" class="node"><title>Node4</title>
<g id="a_node4"><a xlink:href="structbsc_1_1io__pipeline.html" target="_top" xlink:title="bsc::io_pipeline\&lt; T \&gt;">
<polygon fill="white" stroke="black" points="500,-470.5 500,-489.5 608,-489.5 608,-470.5 500,-470.5"/>
<text text-anchor="middle" x="554" y="-477.5" font-family="Helvetica,sans-Serif" font-size="10.00">bsc::io_pipeline&lt; T &gt;</text>
</a>
</g>
</g>
<!-- Node3&#45;&gt;Node4 -->
<g id="edge3" class="edge"><title>Node3&#45;&gt;Node4</title>
<path fill="none" stroke="midnightblue" d="M449.856,-480C466.645,-480 484.123,-480 499.817,-480"/>
<polygon fill="midnightblue" stroke="midnightblue" points="449.514,-476.5 439.514,-480 449.514,-483.5 449.514,-476.5"/>
</g>
<!-- Node6 -->
<g id="node6" class="node"><title>Node6</title>
<g id="a_node6"><a xlink:href="classbsc_1_1process__handler.html" target="_top" xlink:title="bsc::process_handler\l\&lt; K, R \&gt;">
<polygon fill="white" stroke="black" points="319,-421 319,-451 429,-451 429,-421 319,-421"/>
<text text-anchor="start" x="327" y="-439" font-family="Helvetica,sans-Serif" font-size="10.00">bsc::process_handler</text>
<text text-anchor="middle" x="374" y="-428" font-family="Helvetica,sans-Serif" font-size="10.00">&lt; K, R &gt;</text>
</a>
</g>
</g>
<!-- Node5&#45;&gt;Node6 -->
<g id="edge5" class="edge"><title>Node5&#45;&gt;Node6</title>
<path fill="none" stroke="midnightblue" d="M214.896,-354.45C233.464,-370.767 263.943,-395.512 294,-411 301.8,-415.02 310.369,-418.543 318.897,-421.579"/>
<polygon fill="midnightblue" stroke="midnightblue" points="217.034,-351.667 207.247,-347.609 212.368,-356.884 217.034,-351.667"/>
</g>
<!-- Node7 -->
<g id="node7" class="node"><title>Node7</title>
<g id="a_node7"><a xlink:href="classbsc_1_1process__notify__handler.html" target="_top" xlink:title="bsc::process_notify\l_handler\&lt; K, R \&gt;">
<polygon fill="white" stroke="black" points="323,-372 323,-402 425,-402 425,-372 323,-372"/>
<text text-anchor="start" x="331" y="-390" font-family="Helvetica,sans-Serif" font-size="10.00">bsc::process_notify</text>
<text text-anchor="middle" x="374" y="-379" font-family="Helvetica,sans-Serif" font-size="10.00">_handler&lt; K, R &gt;</text>
</a>
</g>
</g>
<!-- Node5&#45;&gt;Node7 -->
<g id="edge6" class="edge"><title>Node5&#45;&gt;Node7</title>
<path fill="none" stroke="midnightblue" d="M241.216,-350.31C266.009,-357.213 297.026,-365.848 322.738,-373.007"/>
<polygon fill="midnightblue" stroke="midnightblue" points="241.925,-346.874 231.352,-347.564 240.047,-353.618 241.925,-346.874"/>
</g>
<!-- Node8 -->
<g id="node8" class="node"><title>Node8</title>
<g id="a_node8"><a xlink:href="classbsc_1_1unix__socket__client.html" target="_top" xlink:title="bsc::unix_socket_client\l\&lt; K, R \&gt;">
<polygon fill="white" stroke="black" points="314.5,-323 314.5,-353 433.5,-353 433.5,-323 314.5,-323"/>
<text text-anchor="start" x="322.5" y="-341" font-family="Helvetica,sans-Serif" font-size="10.00">bsc::unix_socket_client</text>
<text text-anchor="middle" x="374" y="-330" font-family="Helvetica,sans-Serif" font-size="10.00">&lt; K, R &gt;</text>
</a>
</g>
</g>
<!-- Node5&#45;&gt;Node8 -->
<g id="edge7" class="edge"><title>Node5&#45;&gt;Node8</title>
<path fill="none" stroke="midnightblue" d="M255.114,-338C274.126,-338 295.249,-338 314.303,-338"/>
<polygon fill="midnightblue" stroke="midnightblue" points="255.093,-334.5 245.093,-338 255.093,-341.5 255.093,-334.5"/>
</g>
<!-- Node9 -->
<g id="node9" class="node"><title>Node9</title>
<g id="a_node9"><a xlink:href="classbsc_1_1unix__socket__server.html" target="_top" xlink:title="bsc::unix_socket_server\l\&lt; K, R \&gt;">
<polygon fill="white" stroke="black" points="312.5,-274 312.5,-304 435.5,-304 435.5,-274 312.5,-274"/>
<text text-anchor="start" x="320.5" y="-292" font-family="Helvetica,sans-Serif" font-size="10.00">bsc::unix_socket_server</text>
<text text-anchor="middle" x="374" y="-281" font-family="Helvetica,sans-Serif" font-size="10.00">&lt; K, R &gt;</text>
</a>
</g>
</g>
<!-- Node5&#45;&gt;Node9 -->
<g id="edge8" class="edge"><title>Node5&#45;&gt;Node9</title>
<path fill="none" stroke="midnightblue" d="M241.099,-325.722C264.719,-319.146 294.013,-310.991 318.99,-304.037"/>
<polygon fill="midnightblue" stroke="midnightblue" points="240.047,-322.382 231.352,-328.436 241.925,-329.126 240.047,-322.382"/>
</g>
<!-- Node11 -->
<g id="node11" class="node"><title>Node11</title>
<g id="a_node11"><a xlink:href="classbsc_1_1basic__socket__pipeline.html" target="_top" xlink:title="bsc::basic_socket_pipeline\&lt; K \&gt;">
<polygon fill="white" stroke="black" points="294.5,-235.5 294.5,-254.5 453.5,-254.5 453.5,-235.5 294.5,-235.5"/>
<text text-anchor="middle" x="374" y="-242.5" font-family="Helvetica,sans-Serif" font-size="10.00">bsc::basic_socket_pipeline&lt; K &gt;</text>
</a>
</g>
</g>
<!-- Node10&#45;&gt;Node11 -->
<g id="edge10" class="edge"><title>Node10&#45;&gt;Node11</title>
<path fill="none" stroke="midnightblue" d="M265.121,-218.03C288.805,-223.951 314.515,-230.379 334.894,-235.473"/>
<polygon fill="midnightblue" stroke="midnightblue" points="265.667,-214.559 255.117,-215.529 263.969,-221.35 265.667,-214.559"/>
</g>
<!-- Node14 -->
<g id="node14" class="node"><title>Node14</title>
<g id="a_node14"><a xlink:href="classbsc_1_1basic__socket__pipeline.html" target="_top" xlink:title="bsc::basic_socket_pipeline\l\&lt; K, process_handler\&lt; K, R \&gt; \&gt;">
<polygon fill="white" stroke="black" points="295.5,-186 295.5,-216 452.5,-216 452.5,-186 295.5,-186"/>
<text text-anchor="start" x="303.5" y="-204" font-family="Helvetica,sans-Serif" font-size="10.00">bsc::basic_socket_pipeline</text>
<text text-anchor="middle" x="374" y="-193" font-family="Helvetica,sans-Serif" font-size="10.00">&lt; K, process_handler&lt; K, R &gt; &gt;</text>
</a>
</g>
</g>
<!-- Node10&#45;&gt;Node14 -->
<g id="edge13" class="edge"><title>Node10&#45;&gt;Node14</title>
<path fill="none" stroke="midnightblue" d="M265.279,-201C275.173,-201 285.419,-201 295.479,-201"/>
<polygon fill="midnightblue" stroke="midnightblue" points="265.117,-197.5 255.117,-201 265.117,-204.5 265.117,-197.5"/>
</g>
<!-- Node16 -->
<g id="node16" class="node"><title>Node16</title>
<g id="a_node16"><a xlink:href="classbsc_1_1basic__socket__pipeline.html" target="_top" xlink:title="bsc::basic_socket_pipeline\l\&lt; T, process_handler\&lt; T,\l basic_router\&lt; T \&gt; \&gt; \&gt;">
<polygon fill="white" stroke="black" points="307,-126.5 307,-167.5 441,-167.5 441,-126.5 307,-126.5"/>
<text text-anchor="start" x="315" y="-155.5" font-family="Helvetica,sans-Serif" font-size="10.00">bsc::basic_socket_pipeline</text>
<text text-anchor="start" x="315" y="-144.5" font-family="Helvetica,sans-Serif" font-size="10.00">&lt; T, process_handler&lt; T,</text>
<text text-anchor="middle" x="374" y="-133.5" font-family="Helvetica,sans-Serif" font-size="10.00"> basic_router&lt; T &gt; &gt; &gt;</text>
</a>
</g>
</g>
<!-- Node10&#45;&gt;Node16 -->
<g id="edge15" class="edge"><title>Node10&#45;&gt;Node16</title>
<path fill="none" stroke="midnightblue" d="M264.959,-180.149C278.67,-175.942 293.067,-171.525 306.72,-167.336"/>
<polygon fill="midnightblue" stroke="midnightblue" points="263.65,-176.889 255.117,-183.169 265.704,-183.581 263.65,-176.889"/>
</g>
<!-- Node18 -->
<g id="node18" class="node"><title>Node18</title>
<g id="a_node18"><a xlink:href="classbsc_1_1basic__socket__pipeline.html" target="_top" xlink:title="bsc::basic_socket_pipeline\&lt; T \&gt;">
<polygon fill="white" stroke="black" points="295,-88.5 295,-107.5 453,-107.5 453,-88.5 295,-88.5"/>
<text text-anchor="middle" x="374" y="-95.5" font-family="Helvetica,sans-Serif" font-size="10.00">bsc::basic_socket_pipeline&lt; T &gt;</text>
</a>
</g>
</g>
<!-- Node10&#45;&gt;Node18 -->
<g id="edge17" class="edge"><title>Node10&#45;&gt;Node18</title>
<path fill="none" stroke="midnightblue" d="M253.907,-168.494C255.31,-167.349 256.677,-166.184 258,-165 277.867,-147.212 271.719,-131.651 294,-117 299.893,-113.125 306.498,-110.039 313.312,-107.581"/>
<polygon fill="midnightblue" stroke="midnightblue" points="251.415,-165.99 245.546,-174.811 255.635,-171.575 251.415,-165.99"/>
</g>
<!-- Node20 -->
<g id="node20" class="node"><title>Node20</title>
<g id="a_node20"><a xlink:href="structbsc_1_1timer__pipeline.html" target="_top" xlink:title="bsc::timer_pipeline\&lt; T \&gt;">
<polygon fill="white" stroke="black" points="313,-50.5 313,-69.5 435,-69.5 435,-50.5 313,-50.5"/>
<text text-anchor="middle" x="374" y="-57.5" font-family="Helvetica,sans-Serif" font-size="10.00">bsc::timer_pipeline&lt; T &gt;</text>
</a>
</g>
</g>
<!-- Node10&#45;&gt;Node20 -->
<g id="edge19" class="edge"><title>Node10&#45;&gt;Node20</title>
<path fill="none" stroke="midnightblue" d="M255.311,-167.912C256.238,-166.961 257.136,-165.991 258,-165 285.23,-133.768 262.447,-105.858 294,-79 299.478,-74.3368 305.909,-70.7776 312.696,-68.0675"/>
<polygon fill="midnightblue" stroke="midnightblue" points="252.756,-165.503 247.686,-174.807 257.451,-170.695 252.756,-165.503"/>
</g>
<!-- Node12 -->
<g id="node12" class="node"><title>Node12</title>
<g id="a_node12"><a xlink:href="classbsc_1_1process__pipeline.html" target="_top" xlink:title="bsc::process_pipeline\l\&lt; K, R \&gt;">
<polygon fill="white" stroke="black" points="498.5,-284 498.5,-314 609.5,-314 609.5,-284 498.5,-284"/>
<text text-anchor="start" x="506.5" y="-302" font-family="Helvetica,sans-Serif" font-size="10.00">bsc::process_pipeline</text>
<text text-anchor="middle" x="554" y="-291" font-family="Helvetica,sans-Serif" font-size="10.00">&lt; K, R &gt;</text>
</a>
</g>
</g>
<!-- Node11&#45;&gt;Node12 -->
<g id="edge11" class="edge"><title>Node11&#45;&gt;Node12</title>
<path fill="none" stroke="midnightblue" d="M425.202,-257.044C434.801,-259.534 444.741,-262.243 454,-265 472.985,-270.653 493.751,-277.655 511.339,-283.834"/>
<polygon fill="midnightblue" stroke="midnightblue" points="425.92,-253.615 415.366,-254.534 424.19,-260.398 425.92,-253.615"/>
</g>
<!-- Node13 -->
<g id="node13" class="node"><title>Node13</title>
<g id="a_node13"><a xlink:href="classbsc_1_1unix__domain__socket__pipeline.html" target="_top" xlink:title="bsc::unix_domain_socket\l_pipeline\&lt; K, R \&gt;">
<polygon fill="white" stroke="black" points="490,-235 490,-265 618,-265 618,-235 490,-235"/>
<text text-anchor="start" x="498" y="-253" font-family="Helvetica,sans-Serif" font-size="10.00">bsc::unix_domain_socket</text>
<text text-anchor="middle" x="554" y="-242" font-family="Helvetica,sans-Serif" font-size="10.00">_pipeline&lt; K, R &gt;</text>
</a>
</g>
</g>
<!-- Node11&#45;&gt;Node13 -->
<g id="edge12" class="edge"><title>Node11&#45;&gt;Node13</title>
<path fill="none" stroke="midnightblue" d="M463.848,-247.496C472.604,-247.742 481.361,-247.988 489.782,-248.224"/>
<polygon fill="midnightblue" stroke="midnightblue" points="463.686,-243.99 453.592,-247.208 463.489,-250.987 463.686,-243.99"/>
</g>
<!-- Node15 -->
<g id="node15" class="node"><title>Node15</title>
<g id="a_node15"><a xlink:href="classbsc_1_1child__process__pipeline.html" target="_top" xlink:title="bsc::child_process\l_pipeline\&lt; K, R \&gt;">
<polygon fill="white" stroke="black" points="505,-186 505,-216 603,-216 603,-186 505,-186"/>
<text text-anchor="start" x="513" y="-204" font-family="Helvetica,sans-Serif" font-size="10.00">bsc::child_process</text>
<text text-anchor="middle" x="554" y="-193" font-family="Helvetica,sans-Serif" font-size="10.00">_pipeline&lt; K, R &gt;</text>
</a>
</g>
</g>
<!-- Node14&#45;&gt;Node15 -->
<g id="edge14" class="edge"><title>Node14&#45;&gt;Node15</title>
<path fill="none" stroke="midnightblue" d="M462.615,-201C477.183,-201 491.802,-201 504.908,-201"/>
<polygon fill="midnightblue" stroke="midnightblue" points="462.556,-197.5 452.556,-201 462.556,-204.5 462.556,-197.5"/>
</g>
<!-- Node17 -->
<g id="node17" class="node"><title>Node17</title>
<g id="a_node17"><a xlink:href="classbsc_1_1child__process__pipeline.html" target="_top" xlink:title="bsc::child_process\l_pipeline\&lt; T, basic\l_router\&lt; T \&gt; \&gt;">
<polygon fill="white" stroke="black" points="504.5,-126.5 504.5,-167.5 603.5,-167.5 603.5,-126.5 504.5,-126.5"/>
<text text-anchor="start" x="512.5" y="-155.5" font-family="Helvetica,sans-Serif" font-size="10.00">bsc::child_process</text>
<text text-anchor="start" x="512.5" y="-144.5" font-family="Helvetica,sans-Serif" font-size="10.00">_pipeline&lt; T, basic</text>
<text text-anchor="middle" x="554" y="-133.5" font-family="Helvetica,sans-Serif" font-size="10.00">_router&lt; T &gt; &gt;</text>
</a>
</g>
</g>
<!-- Node16&#45;&gt;Node17 -->
<g id="edge16" class="edge"><title>Node16&#45;&gt;Node17</title>
<path fill="none" stroke="midnightblue" d="M451.225,-147C469.223,-147 487.932,-147 504.326,-147"/>
<polygon fill="midnightblue" stroke="midnightblue" points="451.028,-143.5 441.028,-147 451.028,-150.5 451.028,-143.5"/>
</g>
<!-- Node19 -->
<g id="node19" class="node"><title>Node19</title>
<g id="a_node19"><a xlink:href="classbsc_1_1socket__pipeline.html" target="_top" xlink:title="bsc::socket_pipeline\l\&lt; T, Socket, Router \&gt;">
<polygon fill="white" stroke="black" points="497.5,-78 497.5,-108 610.5,-108 610.5,-78 497.5,-78"/>
<text text-anchor="start" x="505.5" y="-96" font-family="Helvetica,sans-Serif" font-size="10.00">bsc::socket_pipeline</text>
<text text-anchor="middle" x="554" y="-85" font-family="Helvetica,sans-Serif" font-size="10.00">&lt; T, Socket, Router &gt;</text>
</a>
</g>
</g>
<!-- Node18&#45;&gt;Node19 -->
<g id="edge18" class="edge"><title>Node18&#45;&gt;Node19</title>
<path fill="none" stroke="midnightblue" d="M463.276,-95.5203C474.914,-95.1934 486.568,-94.8661 497.442,-94.5606"/>
<polygon fill="midnightblue" stroke="midnightblue" points="462.971,-92.0274 453.073,-95.8069 463.168,-99.0247 462.971,-92.0274"/>
</g>
</g>
</svg>
