<?xml version="1.0" encoding="UTF-8" standalone="no"?>
<!DOCTYPE svg PUBLIC "-//W3C//DTD SVG 1.1//EN"
 "http://www.w3.org/Graphics/SVG/1.1/DTD/svg11.dtd">
<!-- Generated by graphviz version 2.36.0 (20140111.2315)
 -->
<!-- Title: Graphical Class Hierarchy Pages: 1 -->
<svg width="282pt" height="283pt"
 viewBox="0.00 0.00 282.00 283.00" xmlns="http://www.w3.org/2000/svg" xmlns:xlink="http://www.w3.org/1999/xlink">
<g id="graph0" class="graph" transform="scale(1 1) rotate(0) translate(4 279)">
<title>Graphical Class Hierarchy</title>
<polygon fill="white" stroke="none" points="-4,4 -4,-279 278,-279 278,4 -4,4"/>
<!-- Node1 -->
<g id="node1" class="node"><title>Node1</title>
<g id="a_node1"><a xlink:href="structsys_1_1bits_1_1byte__swap__chooser.html" target="_top" xlink:title="sys::bits::byte_swap\l_chooser\&lt; uint8_t[bytes]\l, false \&gt;">
<polygon fill="white" stroke="black" points="0.5,-116.5 0.5,-157.5 125.5,-157.5 125.5,-116.5 0.5,-116.5"/>
<text text-anchor="start" x="8.5" y="-145.5" font-family="Helvetica,sans-Serif" font-size="10.00">sys::bits::byte_swap</text>
<text text-anchor="start" x="8.5" y="-134.5" font-family="Helvetica,sans-Serif" font-size="10.00">_chooser&lt; uint8_t[bytes]</text>
<text text-anchor="middle" x="63" y="-123.5" font-family="Helvetica,sans-Serif" font-size="10.00">, false &gt;</text>
</a>
</g>
</g>
<!-- Node2 -->
<g id="node2" class="node"><title>Node2</title>
<g id="a_node2"><a xlink:href="structsys_1_1bits_1_1Integral.html" target="_top" xlink:title="sys::bits::Integral\l\&lt; sizeof(addr4_type)\&gt;">
<polygon fill="white" stroke="black" points="162,-245 162,-275 274,-275 274,-245 162,-245"/>
<text text-anchor="start" x="170" y="-263" font-family="Helvetica,sans-Serif" font-size="10.00">sys::bits::Integral</text>
<text text-anchor="middle" x="218" y="-252" font-family="Helvetica,sans-Serif" font-size="10.00">&lt; sizeof(addr4_type)&gt;</text>
</a>
</g>
</g>
<!-- Node1&#45;&gt;Node2 -->
<g id="edge1" class="edge"><title>Node1&#45;&gt;Node2</title>
<path fill="none" stroke="midnightblue" d="M87.301,-165.292C105.87,-186.511 133.416,-215.191 162,-235 167.259,-238.644 173.134,-241.971 179.034,-244.925"/>
<polygon fill="midnightblue" stroke="midnightblue" points="89.8184,-162.852 80.6404,-157.559 84.5145,-167.42 89.8184,-162.852"/>
</g>
<!-- Node3 -->
<g id="node3" class="node"><title>Node3</title>
<g id="a_node3"><a xlink:href="structsys_1_1bits_1_1Integral.html" target="_top" xlink:title="sys::bits::Integral\l\&lt; sizeof(double)\&gt;">
<polygon fill="white" stroke="black" points="172,-196 172,-226 264,-226 264,-196 172,-196"/>
<text text-anchor="start" x="180" y="-214" font-family="Helvetica,sans-Serif" font-size="10.00">sys::bits::Integral</text>
<text text-anchor="middle" x="218" y="-203" font-family="Helvetica,sans-Serif" font-size="10.00">&lt; sizeof(double)&gt;</text>
</a>
</g>
</g>
<!-- Node1&#45;&gt;Node3 -->
<g id="edge2" class="edge"><title>Node1&#45;&gt;Node3</title>
<path fill="none" stroke="midnightblue" d="M113.719,-162.306C129.135,-170.031 146.218,-178.471 162,-186 168.911,-189.297 176.352,-192.746 183.46,-195.993"/>
<polygon fill="midnightblue" stroke="midnightblue" points="114.87,-158.967 104.363,-157.602 111.726,-165.221 114.87,-158.967"/>
</g>
<!-- Node4 -->
<g id="node4" class="node"><title>Node4</title>
<g id="a_node4"><a xlink:href="structsys_1_1bits_1_1Integral.html" target="_top" xlink:title="sys::bits::Integral\l\&lt; sizeof(float)\&gt;">
<polygon fill="white" stroke="black" points="172,-147 172,-177 264,-177 264,-147 172,-147"/>
<text text-anchor="start" x="180" y="-165" font-family="Helvetica,sans-Serif" font-size="10.00">sys::bits::Integral</text>
<text text-anchor="middle" x="218" y="-154" font-family="Helvetica,sans-Serif" font-size="10.00">&lt; sizeof(float)&gt;</text>
</a>
</g>
</g>
<!-- Node1&#45;&gt;Node4 -->
<g id="edge3" class="edge"><title>Node1&#45;&gt;Node4</title>
<path fill="none" stroke="midnightblue" d="M136.005,-148.765C148.241,-150.765 160.631,-152.789 171.918,-154.634"/>
<polygon fill="midnightblue" stroke="midnightblue" points="136.223,-145.255 125.79,-147.096 135.095,-152.163 136.223,-145.255"/>
</g>
<!-- Node5 -->
<g id="node5" class="node"><title>Node5</title>
<g id="a_node5"><a xlink:href="structsys_1_1bits_1_1Integral.html" target="_top" xlink:title="sys::bits::Integral\l\&lt; sizeof(inet6_type)\&gt;">
<polygon fill="white" stroke="black" points="163.5,-98 163.5,-128 272.5,-128 272.5,-98 163.5,-98"/>
<text text-anchor="start" x="171.5" y="-116" font-family="Helvetica,sans-Serif" font-size="10.00">sys::bits::Integral</text>
<text text-anchor="middle" x="218" y="-105" font-family="Helvetica,sans-Serif" font-size="10.00">&lt; sizeof(inet6_type)&gt;</text>
</a>
</g>
</g>
<!-- Node1&#45;&gt;Node5 -->
<g id="edge4" class="edge"><title>Node1&#45;&gt;Node5</title>
<path fill="none" stroke="midnightblue" d="M135.792,-125.739C145.066,-124.284 154.433,-122.814 163.345,-121.416"/>
<polygon fill="midnightblue" stroke="midnightblue" points="135.127,-122.3 125.79,-127.307 136.212,-129.215 135.127,-122.3"/>
</g>
<!-- Node6 -->
<g id="node6" class="node"><title>Node6</title>
<g id="a_node6"><a xlink:href="structsys_1_1bits_1_1Integral.html" target="_top" xlink:title="sys::bits::Integral\l\&lt; sizeof(T)\&gt;">
<polygon fill="white" stroke="black" points="172,-49 172,-79 264,-79 264,-49 172,-49"/>
<text text-anchor="start" x="180" y="-67" font-family="Helvetica,sans-Serif" font-size="10.00">sys::bits::Integral</text>
<text text-anchor="middle" x="218" y="-56" font-family="Helvetica,sans-Serif" font-size="10.00">&lt; sizeof(T)&gt;</text>
</a>
</g>
</g>
<!-- Node1&#45;&gt;Node6 -->
<g id="edge5" class="edge"><title>Node1&#45;&gt;Node6</title>
<path fill="none" stroke="midnightblue" d="M114.595,-111.874C129.793,-104.42 146.535,-96.3 162,-89 168.924,-85.7315 176.372,-82.2942 183.481,-79.0501"/>
<polygon fill="midnightblue" stroke="midnightblue" points="112.788,-108.862 105.358,-116.415 115.876,-115.144 112.788,-108.862"/>
</g>
<!-- Node7 -->
<g id="node7" class="node"><title>Node7</title>
<g id="a_node7"><a xlink:href="structsys_1_1bits_1_1Integral.html" target="_top" xlink:title="sys::bits::Integral\l\&lt; bytes \&gt;">
<polygon fill="white" stroke="black" points="172,-0 172,-30 264,-30 264,-0 172,-0"/>
<text text-anchor="start" x="180" y="-18" font-family="Helvetica,sans-Serif" font-size="10.00">sys::bits::Integral</text>
<text text-anchor="middle" x="218" y="-7" font-family="Helvetica,sans-Serif" font-size="10.00">&lt; bytes &gt;</text>
</a>
</g>
</g>
<!-- Node1&#45;&gt;Node7 -->
<g id="edge6" class="edge"><title>Node1&#45;&gt;Node7</title>
<path fill="none" stroke="midnightblue" d="M87.6983,-108.626C106.291,-87.6706 133.686,-59.5145 162,-40 167.268,-36.3691 173.148,-33.0492 179.05,-30.0981"/>
<polygon fill="midnightblue" stroke="midnightblue" points="84.9626,-106.437 81.0201,-116.271 90.2346,-111.042 84.9626,-106.437"/>
</g>
</g>
</svg>
