<?xml version="1.0" encoding="UTF-8" standalone="no"?>
<!DOCTYPE svg PUBLIC "-//W3C//DTD SVG 1.1//EN"
 "http://www.w3.org/Graphics/SVG/1.1/DTD/svg11.dtd">
<!-- Generated by graphviz version 2.38.0 (20140413.2041)
 -->
<!-- Title: Graphical Class Hierarchy Pages: 1 -->
<svg width="310pt" height="78pt"
 viewBox="0.00 0.00 310.00 77.50" xmlns="http://www.w3.org/2000/svg" xmlns:xlink="http://www.w3.org/1999/xlink">
<g id="graph0" class="graph" transform="scale(1 1) rotate(0) translate(4 73.5)">
<title>Graphical Class Hierarchy</title>
<polygon fill="white" stroke="none" points="-4,4 -4,-73.5 306,-73.5 306,4 -4,4"/>
<!-- Node1 -->
<g id="node1" class="node"><title>Node1</title>
<g id="a_node1"><a xlink:href="structsys_1_1basic__packetstream.html" target="_top" xlink:title="sys::basic_packetstream\l\&lt; Ch, Tr, Size \&gt;">
<polygon fill="white" stroke="black" points="0,-22.5 0,-52.5 126,-52.5 126,-22.5 0,-22.5"/>
<text text-anchor="start" x="8" y="-40.5" font-family="Helvetica,sans-Serif" font-size="10.00">sys::basic_packetstream</text>
<text text-anchor="middle" x="63" y="-29.5" font-family="Helvetica,sans-Serif" font-size="10.00">&lt; Ch, Tr, Size &gt;</text>
</a>
</g>
</g>
<!-- Node2 -->
<g id="node2" class="node"><title>Node2</title>
<g id="a_node2"><a xlink:href="structfactory_1_1Kernel__stream.html" target="_top" xlink:title="factory::Kernel_stream\&lt; T \&gt;">
<polygon fill="white" stroke="black" points="162,-50 162,-69 302,-69 302,-50 162,-50"/>
<text text-anchor="middle" x="232" y="-57" font-family="Helvetica,sans-Serif" font-size="10.00">factory::Kernel_stream&lt; T &gt;</text>
</a>
</g>
</g>
<!-- Node1&#45;&gt;Node2 -->
<g id="edge1" class="edge"><title>Node1&#45;&gt;Node2</title>
<path fill="none" stroke="midnightblue" d="M136.361,-47.0325C144.785,-48.1423 153.364,-49.2724 161.745,-50.3766"/>
<polygon fill="midnightblue" stroke="midnightblue" points="136.556,-43.5281 126.185,-45.692 135.642,-50.4682 136.556,-43.5281"/>
</g>
<!-- Node3 -->
<g id="node3" class="node"><title>Node3</title>
<g id="a_node3"><a xlink:href="structfactory_1_1Kernel__stream.html" target="_top" xlink:title="factory::Kernel_stream\l\&lt; kernel_type \&gt;">
<polygon fill="white" stroke="black" points="174,-0.5 174,-30.5 290,-30.5 290,-0.5 174,-0.5"/>
<text text-anchor="start" x="182" y="-18.5" font-family="Helvetica,sans-Serif" font-size="10.00">factory::Kernel_stream</text>
<text text-anchor="middle" x="232" y="-7.5" font-family="Helvetica,sans-Serif" font-size="10.00">&lt; kernel_type &gt;</text>
</a>
</g>
</g>
<!-- Node1&#45;&gt;Node3 -->
<g id="edge2" class="edge"><title>Node1&#45;&gt;Node3</title>
<path fill="none" stroke="midnightblue" d="M136.163,-27.9935C148.726,-26.3385 161.638,-24.6375 173.733,-23.0442"/>
<polygon fill="midnightblue" stroke="midnightblue" points="135.642,-24.5318 126.185,-29.308 136.556,-31.4719 135.642,-24.5318"/>
</g>
</g>
</svg>
