<?xml version="1.0" encoding="UTF-8" standalone="no"?>
<!DOCTYPE svg PUBLIC "-//W3C//DTD SVG 1.1//EN"
 "http://www.w3.org/Graphics/SVG/1.1/DTD/svg11.dtd">
<!-- Generated by graphviz version 2.36.0 (20140111.2315)
 -->
<!-- Title: Graphical Class Hierarchy Pages: 1 -->
<svg width="684pt" height="1340pt"
 viewBox="0.00 0.00 684.00 1340.00" xmlns="http://www.w3.org/2000/svg" xmlns:xlink="http://www.w3.org/1999/xlink">
<g id="graph0" class="graph" transform="scale(1 1) rotate(0) translate(4 1336)">
<title>Graphical Class Hierarchy</title>
<polygon fill="white" stroke="none" points="-4,4 -4,-1336 680,-1336 680,4 -4,4"/>
<!-- Node1 -->
<g id="node1" class="node"><title>Node1</title>
<g id="a_node1"><a xlink:href="classbsc_1_1kernel__base.html" target="_top" xlink:title="bsc::kernel_base">
<polygon fill="white" stroke="black" points="4.5,-658.5 4.5,-677.5 95.5,-677.5 95.5,-658.5 4.5,-658.5"/>
<text text-anchor="middle" x="50" y="-665.5" font-family="Helvetica,sans-Serif" font-size="10.00">bsc::kernel_base</text>
</a>
</g>
</g>
<!-- Node2 -->
<g id="node2" class="node"><title>Node2</title>
<g id="a_node2"><a xlink:href="classbsc_1_1mobile__kernel.html" target="_top" xlink:title="bsc::mobile_kernel">
<polygon fill="white" stroke="black" points="136,-639.5 136,-658.5 234,-658.5 234,-639.5 136,-639.5"/>
<text text-anchor="middle" x="185" y="-646.5" font-family="Helvetica,sans-Serif" font-size="10.00">bsc::mobile_kernel</text>
</a>
</g>
</g>
<!-- Node1&#45;&gt;Node2 -->
<g id="edge1" class="edge"><title>Node1&#45;&gt;Node2</title>
<path fill="none" stroke="midnightblue" d="M105.785,-660.174C115.663,-658.762 125.898,-657.3 135.58,-655.917"/>
<polygon fill="midnightblue" stroke="midnightblue" points="105.062,-656.741 95.6571,-661.62 106.052,-663.671 105.062,-656.741"/>
</g>
<!-- Node3 -->
<g id="node3" class="node"><title>Node3</title>
<g id="a_node3"><a xlink:href="structbsc_1_1kernel.html" target="_top" xlink:title="bsc::kernel">
<polygon fill="white" stroke="black" points="270.5,-639.5 270.5,-658.5 335.5,-658.5 335.5,-639.5 270.5,-639.5"/>
<text text-anchor="middle" x="303" y="-646.5" font-family="Helvetica,sans-Serif" font-size="10.00">bsc::kernel</text>
</a>
</g>
</g>
<!-- Node2&#45;&gt;Node3 -->
<g id="edge2" class="edge"><title>Node2&#45;&gt;Node3</title>
<path fill="none" stroke="midnightblue" d="M244.283,-649C253.263,-649 262.233,-649 270.334,-649"/>
<polygon fill="midnightblue" stroke="midnightblue" points="244.187,-645.5 234.187,-649 244.187,-652.5 244.187,-645.5"/>
</g>
<!-- Node4 -->
<g id="node4" class="node"><title>Node4</title>
<g id="a_node4"><a xlink:href="structautoreg_1_1ACF__generator.html" target="_top" xlink:title="autoreg::ACF_generator\&lt; T \&gt;">
<polygon fill="white" stroke="black" points="372.5,-1312.5 372.5,-1331.5 517.5,-1331.5 517.5,-1312.5 372.5,-1312.5"/>
<text text-anchor="middle" x="445" y="-1319.5" font-family="Helvetica,sans-Serif" font-size="10.00">autoreg::ACF_generator&lt; T &gt;</text>
</a>
</g>
</g>
<!-- Node3&#45;&gt;Node4 -->
<g id="edge3" class="edge"><title>Node3&#45;&gt;Node4</title>
<path fill="none" stroke="midnightblue" d="M304.746,-669.049C308.811,-773.619 329.684,-1253.59 372,-1303 375.28,-1306.83 379.231,-1309.93 383.573,-1312.44"/>
<polygon fill="midnightblue" stroke="midnightblue" points="308.238,-668.773 304.359,-658.913 301.243,-669.04 308.238,-668.773"/>
</g>
<!-- Node5 -->
<g id="node5" class="node"><title>Node5</title>
<g id="a_node5"><a xlink:href="structautoreg_1_1Autoreg__coefs.html" target="_top" xlink:title="autoreg::Autoreg_coefs\&lt; T \&gt;">
<polygon fill="white" stroke="black" points="374,-1274.5 374,-1293.5 516,-1293.5 516,-1274.5 374,-1274.5"/>
<text text-anchor="middle" x="445" y="-1281.5" font-family="Helvetica,sans-Serif" font-size="10.00">autoreg::Autoreg_coefs&lt; T &gt;</text>
</a>
</g>
</g>
<!-- Node3&#45;&gt;Node5 -->
<g id="edge4" class="edge"><title>Node3&#45;&gt;Node5</title>
<path fill="none" stroke="midnightblue" d="M304.871,-668.821C309.454,-769.221 332.093,-1218.7 372,-1265 375.292,-1268.82 379.251,-1271.92 383.599,-1274.42"/>
<polygon fill="midnightblue" stroke="midnightblue" points="308.366,-668.644 304.421,-658.811 301.373,-668.958 308.366,-668.644"/>
</g>
<!-- Node6 -->
<g id="node6" class="node"><title>Node6</title>
<g id="a_node6"><a xlink:href="classautoreg_1_1Autoreg__model.html" target="_top" xlink:title="autoreg::Autoreg_model\&lt; T \&gt;">
<polygon fill="white" stroke="black" points="373,-1236.5 373,-1255.5 517,-1255.5 517,-1236.5 373,-1236.5"/>
<text text-anchor="middle" x="445" y="-1243.5" font-family="Helvetica,sans-Serif" font-size="10.00">autoreg::Autoreg_model&lt; T &gt;</text>
</a>
</g>
</g>
<!-- Node3&#45;&gt;Node6 -->
<g id="edge5" class="edge"><title>Node3&#45;&gt;Node6</title>
<path fill="none" stroke="midnightblue" d="M305.034,-668.746C310.246,-765.059 334.864,-1182.67 372,-1226 375.715,-1230.33 380.279,-1233.77 385.292,-1236.49"/>
<polygon fill="midnightblue" stroke="midnightblue" points="308.523,-668.439 304.495,-658.64 301.532,-668.812 308.523,-668.439"/>
</g>
<!-- Node7 -->
<g id="node7" class="node"><title>Node7</title>
<g id="a_node7"><a xlink:href="structautoreg_1_1Generator1.html" target="_top" xlink:title="autoreg::Generator1\l\&lt; T, Grid \&gt;">
<polygon fill="white" stroke="black" points="393.5,-1187 393.5,-1217 496.5,-1217 496.5,-1187 393.5,-1187"/>
<text text-anchor="start" x="401.5" y="-1205" font-family="Helvetica,sans-Serif" font-size="10.00">autoreg::Generator1</text>
<text text-anchor="middle" x="445" y="-1194" font-family="Helvetica,sans-Serif" font-size="10.00">&lt; T, Grid &gt;</text>
</a>
</g>
</g>
<!-- Node3&#45;&gt;Node7 -->
<g id="edge6" class="edge"><title>Node3&#45;&gt;Node7</title>
<path fill="none" stroke="midnightblue" d="M303.86,-668.795C303.64,-755.001 306.944,-1096.94 372,-1177 377.591,-1183.88 385.187,-1188.87 393.356,-1192.49"/>
<polygon fill="midnightblue" stroke="midnightblue" points="307.36,-668.594 303.907,-658.578 300.361,-668.562 307.36,-668.594"/>
</g>
<!-- Node8 -->
<g id="node8" class="node"><title>Node8</title>
<g id="a_node8"><a xlink:href="structautoreg_1_1Solve__Yule__Walker.html" target="_top" xlink:title="autoreg::Solve_Yule\l_Walker\&lt; T \&gt;">
<polygon fill="white" stroke="black" points="393,-1138 393,-1168 497,-1168 497,-1138 393,-1138"/>
<text text-anchor="start" x="401" y="-1156" font-family="Helvetica,sans-Serif" font-size="10.00">autoreg::Solve_Yule</text>
<text text-anchor="middle" x="445" y="-1145" font-family="Helvetica,sans-Serif" font-size="10.00">_Walker&lt; T &gt;</text>
</a>
</g>
</g>
<!-- Node3&#45;&gt;Node8 -->
<g id="edge7" class="edge"><title>Node3&#45;&gt;Node8</title>
<path fill="none" stroke="midnightblue" d="M304.156,-669.255C305.183,-751.086 312.973,-1056.31 372,-1128 377.467,-1134.64 384.799,-1139.52 392.698,-1143.11"/>
<polygon fill="midnightblue" stroke="midnightblue" points="307.652,-668.82 304.048,-658.857 300.652,-668.893 307.652,-668.82"/>
</g>
<!-- Node9 -->
<g id="node9" class="node"><title>Node9</title>
<g id="a_node9"><a xlink:href="structautoreg_1_1Wave__surface__generator.html" target="_top" xlink:title="autoreg::Wave_surface\l_generator\&lt; T, Grid \&gt;">
<polygon fill="white" stroke="black" points="386,-1089 386,-1119 504,-1119 504,-1089 386,-1089"/>
<text text-anchor="start" x="394" y="-1107" font-family="Helvetica,sans-Serif" font-size="10.00">autoreg::Wave_surface</text>
<text text-anchor="middle" x="445" y="-1096" font-family="Helvetica,sans-Serif" font-size="10.00">_generator&lt; T, Grid &gt;</text>
</a>
</g>
</g>
<!-- Node3&#45;&gt;Node9 -->
<g id="edge8" class="edge"><title>Node3&#45;&gt;Node9</title>
<path fill="none" stroke="midnightblue" d="M304.5,-668.623C306.806,-744.19 318.717,-1015.32 372,-1079 375.821,-1083.57 380.523,-1087.3 385.679,-1090.35"/>
<polygon fill="midnightblue" stroke="midnightblue" points="307.997,-668.483 304.216,-658.586 301,-668.681 307.997,-668.483"/>
</g>
<!-- Node10 -->
<g id="node10" class="node"><title>Node10</title>
<g id="a_node10"><a xlink:href="structAutoreg__app.html" target="_top" xlink:title="Autoreg_app">
<polygon fill="white" stroke="black" points="409.5,-1050.5 409.5,-1069.5 480.5,-1069.5 480.5,-1050.5 409.5,-1050.5"/>
<text text-anchor="middle" x="445" y="-1057.5" font-family="Helvetica,sans-Serif" font-size="10.00">Autoreg_app</text>
</a>
</g>
</g>
<!-- Node3&#45;&gt;Node10 -->
<g id="edge9" class="edge"><title>Node3&#45;&gt;Node10</title>
<path fill="none" stroke="midnightblue" d="M304.71,-669.278C307.656,-741.621 321.248,-985.671 372,-1041 381.525,-1051.38 395.992,-1056.37 409.466,-1058.67"/>
<polygon fill="midnightblue" stroke="midnightblue" points="308.191,-668.713 304.313,-658.854 301.196,-668.98 308.191,-668.713"/>
</g>
<!-- Node11 -->
<g id="node11" class="node"><title>Node11</title>
<g id="a_node11"><a xlink:href="structBig__kernel.html" target="_top" xlink:title="Big_kernel\&lt; Size \&gt;">
<polygon fill="white" stroke="black" points="395,-1012.5 395,-1031.5 495,-1031.5 495,-1012.5 395,-1012.5"/>
<text text-anchor="middle" x="445" y="-1019.5" font-family="Helvetica,sans-Serif" font-size="10.00">Big_kernel&lt; Size &gt;</text>
</a>
</g>
</g>
<!-- Node3&#45;&gt;Node11 -->
<g id="edge10" class="edge"><title>Node3&#45;&gt;Node11</title>
<path fill="none" stroke="midnightblue" d="M305.082,-668.606C309.172,-735.539 325.865,-953.605 372,-1003 378.177,-1009.61 386.359,-1014.03 394.988,-1016.96"/>
<polygon fill="midnightblue" stroke="midnightblue" points="308.573,-668.347 304.496,-658.568 301.585,-668.756 308.573,-668.347"/>
</g>
<!-- Node12 -->
<g id="node12" class="node"><title>Node12</title>
<g id="a_node12"><a xlink:href="classbsc_1_1discovery__timer.html" target="_top" xlink:title="bsc::discovery_timer">
<polygon fill="white" stroke="black" points="391.5,-974.5 391.5,-993.5 498.5,-993.5 498.5,-974.5 391.5,-974.5"/>
<text text-anchor="middle" x="445" y="-981.5" font-family="Helvetica,sans-Serif" font-size="10.00">bsc::discovery_timer</text>
</a>
</g>
</g>
<!-- Node3&#45;&gt;Node12 -->
<g id="edge11" class="edge"><title>Node3&#45;&gt;Node12</title>
<path fill="none" stroke="midnightblue" d="M305.6,-668.892C311.017,-731.313 330.68,-921.732 372,-965 377.357,-970.61 384.158,-974.634 391.432,-977.507"/>
<polygon fill="midnightblue" stroke="midnightblue" points="309.076,-668.463 304.752,-658.79 302.101,-669.048 309.076,-668.463"/>
</g>
<!-- Node13 -->
<g id="node13" class="node"><title>Node13</title>
<g id="a_node13"><a xlink:href="classbsc_1_1foreign__kernel.html" target="_top" xlink:title="bsc::foreign_kernel">
<polygon fill="white" stroke="black" points="395.5,-936.5 395.5,-955.5 494.5,-955.5 494.5,-936.5 395.5,-936.5"/>
<text text-anchor="middle" x="445" y="-943.5" font-family="Helvetica,sans-Serif" font-size="10.00">bsc::foreign_kernel</text>
</a>
</g>
</g>
<!-- Node3&#45;&gt;Node13 -->
<g id="edge12" class="edge"><title>Node3&#45;&gt;Node13</title>
<path fill="none" stroke="midnightblue" d="M306.254,-669.072C313.099,-726.506 335.44,-889.772 372,-927 378.341,-933.457 386.597,-937.803 395.248,-940.71"/>
<polygon fill="midnightblue" stroke="midnightblue" points="309.69,-668.314 305.06,-658.784 302.736,-669.121 309.69,-668.314"/>
</g>
<!-- Node14 -->
<g id="node14" class="node"><title>Node14</title>
<g id="a_node14"><a xlink:href="classbsc_1_1hierarchy__kernel.html" target="_top" xlink:title="bsc::hierarchy_kernel">
<polygon fill="white" stroke="black" points="390,-898.5 390,-917.5 500,-917.5 500,-898.5 390,-898.5"/>
<text text-anchor="middle" x="445" y="-905.5" font-family="Helvetica,sans-Serif" font-size="10.00">bsc::hierarchy_kernel</text>
</a>
</g>
</g>
<!-- Node3&#45;&gt;Node14 -->
<g id="edge13" class="edge"><title>Node3&#45;&gt;Node14</title>
<path fill="none" stroke="midnightblue" d="M303.468,-669.049C303.396,-714.875 309.904,-828.017 372,-889 377.073,-893.982 383.29,-897.7 389.924,-900.468"/>
<polygon fill="midnightblue" stroke="midnightblue" points="306.969,-668.966 303.598,-658.922 299.969,-668.876 306.969,-668.966"/>
</g>
<!-- Node15 -->
<g id="node15" class="node"><title>Node15</title>
<g id="a_node15"><a xlink:href="structbsc_1_1Map.html" target="_top" xlink:title="bsc::Map\&lt; F, G, I \&gt;">
<polygon fill="white" stroke="black" points="393,-860.5 393,-879.5 497,-879.5 497,-860.5 393,-860.5"/>
<text text-anchor="middle" x="445" y="-867.5" font-family="Helvetica,sans-Serif" font-size="10.00">bsc::Map&lt; F, G, I &gt;</text>
</a>
</g>
</g>
<!-- Node3&#45;&gt;Node15 -->
<g id="edge14" class="edge"><title>Node3&#45;&gt;Node15</title>
<path fill="none" stroke="midnightblue" d="M304.808,-668.707C307.542,-708.819 319.525,-800.348 372,-850 377.843,-855.528 385.078,-859.552 392.69,-862.475"/>
<polygon fill="midnightblue" stroke="midnightblue" points="308.297,-668.417 304.247,-658.627 301.308,-668.806 308.297,-668.417"/>
</g>
<!-- Node16 -->
<g id="node16" class="node"><title>Node16</title>
<g id="a_node16"><a xlink:href="structbsc_1_1Map_1_1Worker.html" target="_top" xlink:title="bsc::Map\&lt; F, G, I \&gt;\l::Worker">
<polygon fill="white" stroke="black" points="393,-811 393,-841 497,-841 497,-811 393,-811"/>
<text text-anchor="start" x="401" y="-829" font-family="Helvetica,sans-Serif" font-size="10.00">bsc::Map&lt; F, G, I &gt;</text>
<text text-anchor="middle" x="445" y="-818" font-family="Helvetica,sans-Serif" font-size="10.00">::Worker</text>
</a>
</g>
</g>
<!-- Node3&#45;&gt;Node16 -->
<g id="edge15" class="edge"><title>Node3&#45;&gt;Node16</title>
<path fill="none" stroke="midnightblue" d="M307.576,-668.695C314.419,-700.842 332.357,-764.645 372,-801 377.949,-806.455 385.151,-810.73 392.671,-814.078"/>
<polygon fill="midnightblue" stroke="midnightblue" points="310.981,-667.869 305.601,-658.741 304.114,-669.231 310.981,-667.869"/>
</g>
<!-- Node17 -->
<g id="node17" class="node"><title>Node17</title>
<g id="a_node17"><a xlink:href="classbsc_1_1network__master.html" target="_top" xlink:title="bsc::network_master">
<polygon fill="white" stroke="black" points="391,-772.5 391,-791.5 499,-791.5 499,-772.5 391,-772.5"/>
<text text-anchor="middle" x="445" y="-779.5" font-family="Helvetica,sans-Serif" font-size="10.00">bsc::network_master</text>
</a>
</g>
</g>
<!-- Node3&#45;&gt;Node17 -->
<g id="edge16" class="edge"><title>Node3&#45;&gt;Node17</title>
<path fill="none" stroke="midnightblue" d="M310.299,-668.347C319.638,-693.931 339.624,-738.617 372,-763 377.577,-767.2 384.004,-770.473 390.676,-773.024"/>
<polygon fill="midnightblue" stroke="midnightblue" points="313.526,-666.968 306.944,-658.666 306.912,-669.261 313.526,-666.968"/>
</g>
<!-- Node18 -->
<g id="node18" class="node"><title>Node18</title>
<g id="a_node18"><a xlink:href="classbsc_1_1network__timer.html" target="_top" xlink:title="bsc::network_timer">
<polygon fill="white" stroke="black" points="395,-734.5 395,-753.5 495,-753.5 495,-734.5 395,-734.5"/>
<text text-anchor="middle" x="445" y="-741.5" font-family="Helvetica,sans-Serif" font-size="10.00">bsc::network_timer</text>
</a>
</g>
</g>
<!-- Node3&#45;&gt;Node18 -->
<g id="edge17" class="edge"><title>Node3&#45;&gt;Node18</title>
<path fill="none" stroke="midnightblue" d="M315.635,-667.257C327.672,-684.663 348.049,-710.334 372,-725 378.946,-729.253 386.833,-732.564 394.779,-735.138"/>
<polygon fill="midnightblue" stroke="midnightblue" points="318.296,-664.938 309.836,-658.559 312.471,-668.821 318.296,-664.938"/>
</g>
<!-- Node19 -->
<g id="node19" class="node"><title>Node19</title>
<g id="a_node19"><a xlink:href="classbsc_1_1Notification.html" target="_top" xlink:title="bsc::Notification">
<polygon fill="white" stroke="black" points="401,-696.5 401,-715.5 489,-715.5 489,-696.5 401,-696.5"/>
<text text-anchor="middle" x="445" y="-703.5" font-family="Helvetica,sans-Serif" font-size="10.00">bsc::Notification</text>
</a>
</g>
</g>
<!-- Node3&#45;&gt;Node19 -->
<g id="edge18" class="edge"><title>Node3&#45;&gt;Node19</title>
<path fill="none" stroke="midnightblue" d="M327.215,-663.897C340.031,-671.62 356.46,-680.725 372,-687 381.11,-690.679 391.157,-693.848 400.781,-696.486"/>
<polygon fill="midnightblue" stroke="midnightblue" points="328.935,-660.845 318.586,-658.576 325.261,-666.804 328.935,-660.845"/>
</g>
<!-- Node20 -->
<g id="node20" class="node"><title>Node20</title>
<g id="a_node20"><a xlink:href="classbsc_1_1probe.html" target="_top" xlink:title="bsc::probe">
<polygon fill="white" stroke="black" points="414,-658.5 414,-677.5 476,-677.5 476,-658.5 414,-658.5"/>
<text text-anchor="middle" x="445" y="-665.5" font-family="Helvetica,sans-Serif" font-size="10.00">bsc::probe</text>
</a>
</g>
</g>
<!-- Node3&#45;&gt;Node20 -->
<g id="edge19" class="edge"><title>Node3&#45;&gt;Node20</title>
<path fill="none" stroke="midnightblue" d="M345.782,-654.67C367.648,-657.638 393.926,-661.204 413.797,-663.901"/>
<polygon fill="midnightblue" stroke="midnightblue" points="346.148,-651.188 335.768,-653.311 345.207,-658.125 346.148,-651.188"/>
</g>
<!-- Node21 -->
<g id="node21" class="node"><title>Node21</title>
<g id="a_node21"><a xlink:href="classbsc_1_1prober.html" target="_top" xlink:title="bsc::prober">
<polygon fill="white" stroke="black" points="412.5,-620.5 412.5,-639.5 477.5,-639.5 477.5,-620.5 412.5,-620.5"/>
<text text-anchor="middle" x="445" y="-627.5" font-family="Helvetica,sans-Serif" font-size="10.00">bsc::prober</text>
</a>
</g>
</g>
<!-- Node3&#45;&gt;Node21 -->
<g id="edge20" class="edge"><title>Node3&#45;&gt;Node21</title>
<path fill="none" stroke="midnightblue" d="M345.858,-643.319C367.185,-640.425 392.693,-636.963 412.358,-634.294"/>
<polygon fill="midnightblue" stroke="midnightblue" points="345.207,-639.875 335.768,-644.689 346.148,-646.812 345.207,-639.875"/>
</g>
<!-- Node22 -->
<g id="node22" class="node"><title>Node22</title>
<g id="a_node22"><a xlink:href="classbsc_1_1resident__kernel.html" target="_top" xlink:title="bsc::resident_kernel">
<polygon fill="white" stroke="black" points="393,-582.5 393,-601.5 497,-601.5 497,-582.5 393,-582.5"/>
<text text-anchor="middle" x="445" y="-589.5" font-family="Helvetica,sans-Serif" font-size="10.00">bsc::resident_kernel</text>
</a>
</g>
</g>
<!-- Node3&#45;&gt;Node22 -->
<g id="edge21" class="edge"><title>Node3&#45;&gt;Node22</title>
<path fill="none" stroke="midnightblue" d="M327.215,-634.103C340.031,-626.38 356.46,-617.275 372,-611 381.11,-607.321 391.157,-604.152 400.781,-601.514"/>
<polygon fill="midnightblue" stroke="midnightblue" points="325.261,-631.196 318.586,-639.424 328.935,-637.155 325.261,-631.196"/>
</g>
<!-- Node24 -->
<g id="node24" class="node"><title>Node24</title>
<g id="a_node24"><a xlink:href="structDummy__kernel.html" target="_top" xlink:title="Dummy_kernel">
<polygon fill="white" stroke="black" points="403.5,-544.5 403.5,-563.5 486.5,-563.5 486.5,-544.5 403.5,-544.5"/>
<text text-anchor="middle" x="445" y="-551.5" font-family="Helvetica,sans-Serif" font-size="10.00">Dummy_kernel</text>
</a>
</g>
</g>
<!-- Node3&#45;&gt;Node24 -->
<g id="edge23" class="edge"><title>Node3&#45;&gt;Node24</title>
<path fill="none" stroke="midnightblue" d="M315.635,-630.743C327.672,-613.337 348.049,-587.666 372,-573 381.482,-567.194 392.718,-563.145 403.461,-560.327"/>
<polygon fill="midnightblue" stroke="midnightblue" points="312.471,-629.179 309.836,-639.441 318.296,-633.062 312.471,-629.179"/>
</g>
<!-- Node25 -->
<g id="node25" class="node"><title>Node25</title>
<g id="a_node25"><a xlink:href="structGood__kernel.html" target="_top" xlink:title="Good_kernel">
<polygon fill="white" stroke="black" points="409.5,-506.5 409.5,-525.5 480.5,-525.5 480.5,-506.5 409.5,-506.5"/>
<text text-anchor="middle" x="445" y="-513.5" font-family="Helvetica,sans-Serif" font-size="10.00">Good_kernel</text>
</a>
</g>
</g>
<!-- Node3&#45;&gt;Node25 -->
<g id="edge24" class="edge"><title>Node3&#45;&gt;Node25</title>
<path fill="none" stroke="midnightblue" d="M310.299,-629.653C319.638,-604.069 339.624,-559.383 372,-535 382.74,-526.912 396.637,-522.259 409.352,-519.586"/>
<polygon fill="midnightblue" stroke="midnightblue" points="306.912,-628.739 306.944,-639.334 313.526,-631.032 306.912,-628.739"/>
</g>
<!-- Node28 -->
<g id="node28" class="node"><title>Node28</title>
<g id="a_node28"><a xlink:href="classgrand__master__kernel.html" target="_top" xlink:title="grand_master_kernel">
<polygon fill="white" stroke="black" points="391.5,-468.5 391.5,-487.5 498.5,-487.5 498.5,-468.5 391.5,-468.5"/>
<text text-anchor="middle" x="445" y="-475.5" font-family="Helvetica,sans-Serif" font-size="10.00">grand_master_kernel</text>
</a>
</g>
</g>
<!-- Node3&#45;&gt;Node28 -->
<g id="edge27" class="edge"><title>Node3&#45;&gt;Node28</title>
<path fill="none" stroke="midnightblue" d="M307.181,-629.43C313.512,-596.939 330.804,-531.987 372,-497 377.617,-492.23 384.302,-488.642 391.301,-485.946"/>
<polygon fill="midnightblue" stroke="midnightblue" points="303.701,-629.005 305.378,-639.466 310.591,-630.243 303.701,-629.005"/>
</g>
<!-- Node29 -->
<g id="node29" class="node"><title>Node29</title>
<g id="a_node29"><a xlink:href="structKernel__that__carries__its__parent.html" target="_top" xlink:title="Kernel_that_carries\l_its_parent">
<polygon fill="white" stroke="black" points="394.5,-419 394.5,-449 495.5,-449 495.5,-419 394.5,-419"/>
<text text-anchor="start" x="402.5" y="-437" font-family="Helvetica,sans-Serif" font-size="10.00">Kernel_that_carries</text>
<text text-anchor="middle" x="445" y="-426" font-family="Helvetica,sans-Serif" font-size="10.00">_its_parent</text>
</a>
</g>
</g>
<!-- Node3&#45;&gt;Node29 -->
<g id="edge28" class="edge"><title>Node3&#45;&gt;Node29</title>
<path fill="none" stroke="midnightblue" d="M305.598,-628.807C309.702,-590.439 323.953,-506.593 372,-459 378.205,-452.854 385.995,-448.215 394.142,-444.715"/>
<polygon fill="midnightblue" stroke="midnightblue" points="302.075,-628.88 304.624,-639.164 309.045,-629.536 302.075,-628.88"/>
</g>
<!-- Node30 -->
<g id="node30" class="node"><title>Node30</title>
<g id="a_node30"><a xlink:href="structLauncher.html" target="_top" xlink:title="Launcher">
<polygon fill="white" stroke="black" points="417,-380.5 417,-399.5 473,-399.5 473,-380.5 417,-380.5"/>
<text text-anchor="middle" x="445" y="-387.5" font-family="Helvetica,sans-Serif" font-size="10.00">Launcher</text>
</a>
</g>
</g>
<!-- Node3&#45;&gt;Node30 -->
<g id="edge29" class="edge"><title>Node3&#45;&gt;Node30</title>
<path fill="none" stroke="midnightblue" d="M303.468,-628.951C303.396,-583.125 309.904,-469.983 372,-409 383.806,-397.405 401.806,-392.655 416.855,-390.804"/>
<polygon fill="midnightblue" stroke="midnightblue" points="299.969,-629.124 303.598,-639.078 306.969,-629.034 299.969,-629.124"/>
</g>
<!-- Node31 -->
<g id="node31" class="node"><title>Node31</title>
<g id="a_node31"><a xlink:href="classMain.html" target="_top" xlink:title="Main">
<polygon fill="white" stroke="black" points="426,-342.5 426,-361.5 464,-361.5 464,-342.5 426,-342.5"/>
<text text-anchor="middle" x="445" y="-349.5" font-family="Helvetica,sans-Serif" font-size="10.00">Main</text>
</a>
</g>
</g>
<!-- Node3&#45;&gt;Node31 -->
<g id="edge30" class="edge"><title>Node3&#45;&gt;Node31</title>
<path fill="none" stroke="midnightblue" d="M306.254,-628.928C313.099,-571.494 335.44,-408.228 372,-371 386.04,-356.703 409.473,-352.754 425.778,-351.863"/>
<polygon fill="midnightblue" stroke="midnightblue" points="302.736,-628.879 305.06,-639.216 309.69,-629.686 302.736,-628.879"/>
</g>
<!-- Node32 -->
<g id="node32" class="node"><title>Node32</title>
<g id="a_node32"><a xlink:href="classmaster__kernel.html" target="_top" xlink:title="master_kernel">
<polygon fill="white" stroke="black" points="406,-304.5 406,-323.5 484,-323.5 484,-304.5 406,-304.5"/>
<text text-anchor="middle" x="445" y="-311.5" font-family="Helvetica,sans-Serif" font-size="10.00">master_kernel</text>
</a>
</g>
</g>
<!-- Node3&#45;&gt;Node32 -->
<g id="edge31" class="edge"><title>Node3&#45;&gt;Node32</title>
<path fill="none" stroke="midnightblue" d="M305.6,-629.108C311.017,-566.687 330.68,-376.268 372,-333 380.839,-323.744 393.61,-318.806 405.949,-316.229"/>
<polygon fill="midnightblue" stroke="midnightblue" points="302.101,-628.952 304.752,-639.21 309.076,-629.537 302.101,-628.952"/>
</g>
<!-- Node33 -->
<g id="node33" class="node"><title>Node33</title>
<g id="a_node33"><a xlink:href="structSender.html" target="_top" xlink:title="Sender">
<polygon fill="white" stroke="black" points="421.5,-266.5 421.5,-285.5 468.5,-285.5 468.5,-266.5 421.5,-266.5"/>
<text text-anchor="middle" x="445" y="-273.5" font-family="Helvetica,sans-Serif" font-size="10.00">Sender</text>
</a>
</g>
</g>
<!-- Node3&#45;&gt;Node33 -->
<g id="edge32" class="edge"><title>Node3&#45;&gt;Node33</title>
<path fill="none" stroke="midnightblue" d="M305.082,-629.394C309.172,-562.461 325.865,-344.395 372,-295 384.531,-281.584 405.313,-277.205 421.337,-275.966"/>
<polygon fill="midnightblue" stroke="midnightblue" points="301.585,-629.244 304.496,-639.432 308.573,-629.653 301.585,-629.244"/>
</g>
<!-- Node34 -->
<g id="node34" class="node"><title>Node34</title>
<g id="a_node34"><a xlink:href="classslave__kernel.html" target="_top" xlink:title="slave_kernel">
<polygon fill="white" stroke="black" points="409.5,-228.5 409.5,-247.5 480.5,-247.5 480.5,-228.5 409.5,-228.5"/>
<text text-anchor="middle" x="445" y="-235.5" font-family="Helvetica,sans-Serif" font-size="10.00">slave_kernel</text>
</a>
</g>
</g>
<!-- Node3&#45;&gt;Node34 -->
<g id="edge33" class="edge"><title>Node3&#45;&gt;Node34</title>
<path fill="none" stroke="midnightblue" d="M304.71,-628.722C307.656,-556.379 321.248,-312.329 372,-257 381.525,-246.616 395.992,-241.63 409.466,-239.328"/>
<polygon fill="midnightblue" stroke="midnightblue" points="301.196,-629.02 304.313,-639.146 308.191,-629.287 301.196,-629.02"/>
</g>
<!-- Node35 -->
<g id="node35" class="node"><title>Node35</title>
<g id="a_node35"><a xlink:href="structSleepy__kernel.html" target="_top" xlink:title="Sleepy_kernel">
<polygon fill="white" stroke="black" points="406,-190.5 406,-209.5 484,-209.5 484,-190.5 406,-190.5"/>
<text text-anchor="middle" x="445" y="-197.5" font-family="Helvetica,sans-Serif" font-size="10.00">Sleepy_kernel</text>
</a>
</g>
</g>
<!-- Node3&#45;&gt;Node35 -->
<g id="edge34" class="edge"><title>Node3&#45;&gt;Node35</title>
<path fill="none" stroke="midnightblue" d="M304.356,-629.252C306.129,-553.221 316.331,-280.607 372,-219 380.581,-209.504 393.293,-204.511 405.657,-201.959"/>
<polygon fill="midnightblue" stroke="midnightblue" points="300.855,-629.28 304.144,-639.352 307.853,-629.427 300.855,-629.28"/>
</g>
<!-- Node36 -->
<g id="node36" class="node"><title>Node36</title>
<g id="a_node36"><a xlink:href="structSpec__app.html" target="_top" xlink:title="Spec_app">
<polygon fill="white" stroke="black" points="415,-152.5 415,-171.5 475,-171.5 475,-152.5 415,-152.5"/>
<text text-anchor="middle" x="445" y="-159.5" font-family="Helvetica,sans-Serif" font-size="10.00">Spec_app</text>
</a>
</g>
</g>
<!-- Node3&#45;&gt;Node36 -->
<g id="edge35" class="edge"><title>Node3&#45;&gt;Node36</title>
<path fill="none" stroke="midnightblue" d="M304.077,-629.081C304.799,-548.628 311.564,-248.732 372,-181 382.673,-169.039 399.899,-164.207 414.826,-162.405"/>
<polygon fill="midnightblue" stroke="midnightblue" points="300.576,-629.282 304.009,-639.305 307.576,-629.329 300.576,-629.282"/>
</g>
<!-- Node37 -->
<g id="node37" class="node"><title>Node37</title>
<g id="a_node37"><a xlink:href="structSpectrum__kernel.html" target="_top" xlink:title="Spectrum_kernel">
<polygon fill="white" stroke="black" points="400,-114.5 400,-133.5 490,-133.5 490,-114.5 400,-114.5"/>
<text text-anchor="middle" x="445" y="-121.5" font-family="Helvetica,sans-Serif" font-size="10.00">Spectrum_kernel</text>
</a>
</g>
</g>
<!-- Node3&#45;&gt;Node37 -->
<g id="edge36" class="edge"><title>Node3&#45;&gt;Node37</title>
<path fill="none" stroke="midnightblue" d="M303.836,-629.109C303.552,-544.681 306.733,-216.938 372,-143 379.187,-134.859 389.409,-130.014 399.901,-127.18"/>
<polygon fill="midnightblue" stroke="midnightblue" points="300.338,-629.375 303.893,-639.355 307.338,-629.336 300.338,-629.375"/>
</g>
<!-- Node38 -->
<g id="node38" class="node"><title>Node38</title>
<g id="a_node38"><a xlink:href="structStation__kernel.html" target="_top" xlink:title="Station_kernel">
<polygon fill="white" stroke="black" points="405.5,-76.5 405.5,-95.5 484.5,-95.5 484.5,-76.5 405.5,-76.5"/>
<text text-anchor="middle" x="445" y="-83.5" font-family="Helvetica,sans-Serif" font-size="10.00">Station_kernel</text>
</a>
</g>
</g>
<!-- Node3&#45;&gt;Node38 -->
<g id="edge37" class="edge"><title>Node3&#45;&gt;Node38</title>
<path fill="none" stroke="midnightblue" d="M303.631,-629.322C302.393,-541.387 301.841,-185.224 372,-105 380.425,-95.3659 393.102,-90.3417 405.482,-87.8027"/>
<polygon fill="midnightblue" stroke="midnightblue" points="300.135,-629.553 303.796,-639.495 307.134,-629.44 300.135,-629.553"/>
</g>
<!-- Node39 -->
<g id="node39" class="node"><title>Node39</title>
<g id="a_node39"><a xlink:href="structTest__socket.html" target="_top" xlink:title="Test_socket">
<polygon fill="white" stroke="black" points="409.5,-38.5 409.5,-57.5 480.5,-57.5 480.5,-38.5 409.5,-38.5"/>
<text text-anchor="middle" x="445" y="-45.5" font-family="Helvetica,sans-Serif" font-size="10.00">Test_socket</text>
</a>
</g>
</g>
<!-- Node3&#45;&gt;Node39 -->
<g id="edge38" class="edge"><title>Node3&#45;&gt;Node39</title>
<path fill="none" stroke="midnightblue" d="M305.011,-629.074C310.112,-531.882 334.287,-110.475 372,-67 381.234,-56.3555 395.657,-51.331 409.177,-49.0704"/>
<polygon fill="midnightblue" stroke="midnightblue" points="301.504,-629.104 304.483,-639.272 308.495,-629.466 301.504,-629.104"/>
</g>
<!-- Node40 -->
<g id="node40" class="node"><title>Node40</title>
<g id="a_node40"><a xlink:href="structYear__kernel.html" target="_top" xlink:title="Year_kernel">
<polygon fill="white" stroke="black" points="411,-0.5 411,-19.5 479,-19.5 479,-0.5 411,-0.5"/>
<text text-anchor="middle" x="445" y="-7.5" font-family="Helvetica,sans-Serif" font-size="10.00">Year_kernel</text>
</a>
</g>
</g>
<!-- Node3&#45;&gt;Node40 -->
<g id="edge39" class="edge"><title>Node3&#45;&gt;Node40</title>
<path fill="none" stroke="midnightblue" d="M304.862,-629.051C309.4,-528 331.854,-75.6114 372,-29 381.618,-17.8332 396.948,-12.844 410.995,-10.745"/>
<polygon fill="midnightblue" stroke="midnightblue" points="301.361,-628.98 304.417,-639.125 308.355,-629.289 301.361,-628.98"/>
</g>
<!-- Node23 -->
<g id="node23" class="node"><title>Node23</title>
<g id="a_node23"><a xlink:href="classbsc_1_1master__discoverer.html" target="_top" xlink:title="bsc::master_discoverer">
<polygon fill="white" stroke="black" points="555.5,-582.5 555.5,-601.5 674.5,-601.5 674.5,-582.5 555.5,-582.5"/>
<text text-anchor="middle" x="615" y="-589.5" font-family="Helvetica,sans-Serif" font-size="10.00">bsc::master_discoverer</text>
</a>
</g>
</g>
<!-- Node22&#45;&gt;Node23 -->
<g id="edge22" class="edge"><title>Node22&#45;&gt;Node23</title>
<path fill="none" stroke="midnightblue" d="M507.415,-592C523.065,-592 539.845,-592 555.352,-592"/>
<polygon fill="midnightblue" stroke="midnightblue" points="507.318,-588.5 497.318,-592 507.318,-595.5 507.318,-588.5"/>
</g>
<!-- Node26 -->
<g id="node26" class="node"><title>Node26</title>
<g id="a_node26"><a xlink:href="structKernel__that__reads__more__than__writes.html" target="_top" xlink:title="Kernel_that_reads_more\l_than_writes">
<polygon fill="white" stroke="black" points="554,-517 554,-547 676,-547 676,-517 554,-517"/>
<text text-anchor="start" x="562" y="-535" font-family="Helvetica,sans-Serif" font-size="10.00">Kernel_that_reads_more</text>
<text text-anchor="middle" x="615" y="-524" font-family="Helvetica,sans-Serif" font-size="10.00">_than_writes</text>
</a>
</g>
</g>
<!-- Node25&#45;&gt;Node26 -->
<g id="edge25" class="edge"><title>Node25&#45;&gt;Node26</title>
<path fill="none" stroke="midnightblue" d="M490.839,-520.27C510.141,-522.109 532.997,-524.285 553.747,-526.262"/>
<polygon fill="midnightblue" stroke="midnightblue" points="491.097,-516.779 480.81,-519.315 490.433,-523.748 491.097,-516.779"/>
</g>
<!-- Node27 -->
<g id="node27" class="node"><title>Node27</title>
<g id="a_node27"><a xlink:href="structKernel__that__writes__more__than__reads.html" target="_top" xlink:title="Kernel_that_writes\l_more_than_reads">
<polygon fill="white" stroke="black" points="566,-468 566,-498 664,-498 664,-468 566,-468"/>
<text text-anchor="start" x="574" y="-486" font-family="Helvetica,sans-Serif" font-size="10.00">Kernel_that_writes</text>
<text text-anchor="middle" x="615" y="-475" font-family="Helvetica,sans-Serif" font-size="10.00">_more_than_reads</text>
</a>
</g>
</g>
<!-- Node25&#45;&gt;Node27 -->
<g id="edge26" class="edge"><title>Node25&#45;&gt;Node27</title>
<path fill="none" stroke="midnightblue" d="M490.726,-507.215C513.896,-502.663 542.211,-497.101 565.858,-492.456"/>
<polygon fill="midnightblue" stroke="midnightblue" points="489.948,-503.8 480.81,-509.162 491.297,-510.669 489.948,-503.8"/>
</g>
<!-- Node41 -->
<g id="node41" class="node"><title>Node41</title>
<g id="a_node41"><a xlink:href="classbsc_1_1kernel__header.html" target="_top" xlink:title="bsc::kernel_header">
<polygon fill="white" stroke="black" points="0.5,-620.5 0.5,-639.5 99.5,-639.5 99.5,-620.5 0.5,-620.5"/>
<text text-anchor="middle" x="50" y="-627.5" font-family="Helvetica,sans-Serif" font-size="10.00">bsc::kernel_header</text>
</a>
</g>
</g>
<!-- Node41&#45;&gt;Node2 -->
<g id="edge40" class="edge"><title>Node41&#45;&gt;Node2</title>
<path fill="none" stroke="midnightblue" d="M109.805,-638.401C118.453,-639.636 127.277,-640.897 135.681,-642.097"/>
<polygon fill="midnightblue" stroke="midnightblue" points="110.164,-634.916 99.7691,-636.967 109.174,-641.846 110.164,-634.916"/>
</g>
</g>
</svg>
