<?xml version="1.0" encoding="UTF-8" standalone="no"?>
<!DOCTYPE svg PUBLIC "-//W3C//DTD SVG 1.1//EN"
 "http://www.w3.org/Graphics/SVG/1.1/DTD/svg11.dtd">
<!-- Generated by graphviz version 2.38.0 (20140413.2041)
 -->
<!-- Title: Graphical Class Hierarchy Pages: 1 -->
<svg width="640pt" height="307pt"
 viewBox="0.00 0.00 640.00 306.50" xmlns="http://www.w3.org/2000/svg" xmlns:xlink="http://www.w3.org/1999/xlink">
<g id="graph0" class="graph" transform="scale(1 1) rotate(0) translate(4 302.5)">
<title>Graphical Class Hierarchy</title>
<polygon fill="white" stroke="none" points="-4,4 -4,-302.5 636,-302.5 636,4 -4,4"/>
<!-- Node1 -->
<g id="node1" class="node"><title>Node1</title>
<g id="a_node1"><a xlink:href="structfactory_1_1Server__base.html" target="_top" xlink:title="factory::Server_base">
<polygon fill="white" stroke="black" points="0,-199.5 0,-218.5 107,-218.5 107,-199.5 0,-199.5"/>
<text text-anchor="middle" x="53.5" y="-206.5" font-family="Helvetica,sans-Serif" font-size="10.00">factory::Server_base</text>
</a>
</g>
</g>
<!-- Node2 -->
<g id="node2" class="node"><title>Node2</title>
<g id="a_node2"><a xlink:href="structfactory_1_1Buffered__server.html" target="_top" xlink:title="factory::Buffered_server\l\&lt; T, Router \&gt;">
<polygon fill="white" stroke="black" points="158,-268 158,-298 280,-298 280,-268 158,-268"/>
<text text-anchor="start" x="166" y="-286" font-family="Helvetica,sans-Serif" font-size="10.00">factory::Buffered_server</text>
<text text-anchor="middle" x="219" y="-275" font-family="Helvetica,sans-Serif" font-size="10.00">&lt; T, Router &gt;</text>
</a>
</g>
</g>
<!-- Node1&#45;&gt;Node2 -->
<g id="edge1" class="edge"><title>Node1&#45;&gt;Node2</title>
<path fill="none" stroke="midnightblue" d="M78.2635,-224.194C95.7004,-234.899 120.215,-249.043 143,-259 150.391,-262.23 158.359,-265.246 166.245,-267.975"/>
<polygon fill="midnightblue" stroke="midnightblue" points="79.699,-220.965 69.3604,-218.649 75.9983,-226.906 79.699,-220.965"/>
</g>
<!-- Node4 -->
<g id="node4" class="node"><title>Node4</title>
<g id="a_node4"><a xlink:href="structfactory_1_1Buffered__server.html" target="_top" xlink:title="factory::Buffered_server\l\&lt; T, Router, Kernels \&gt;">
<polygon fill="white" stroke="black" points="158,-219 158,-249 280,-249 280,-219 158,-219"/>
<text text-anchor="start" x="166" y="-237" font-family="Helvetica,sans-Serif" font-size="10.00">factory::Buffered_server</text>
<text text-anchor="middle" x="219" y="-226" font-family="Helvetica,sans-Serif" font-size="10.00">&lt; T, Router, Kernels &gt;</text>
</a>
</g>
</g>
<!-- Node1&#45;&gt;Node4 -->
<g id="edge3" class="edge"><title>Node1&#45;&gt;Node4</title>
<path fill="none" stroke="midnightblue" d="M117.164,-218.582C130.499,-220.621 144.551,-222.769 157.792,-224.794"/>
<polygon fill="midnightblue" stroke="midnightblue" points="117.547,-215.1 107.132,-217.048 116.488,-222.019 117.547,-215.1"/>
</g>
<!-- Node5 -->
<g id="node5" class="node"><title>Node5</title>
<g id="a_node5"><a xlink:href="structfactory_1_1Remote__Rserver.html" target="_top" xlink:title="factory::Remote_Rserver\l\&lt; T, Socket, Router, Kernels \&gt;">
<polygon fill="white" stroke="black" points="143,-170 143,-200 295,-200 295,-170 143,-170"/>
<text text-anchor="start" x="151" y="-188" font-family="Helvetica,sans-Serif" font-size="10.00">factory::Remote_Rserver</text>
<text text-anchor="middle" x="219" y="-177" font-family="Helvetica,sans-Serif" font-size="10.00">&lt; T, Socket, Router, Kernels &gt;</text>
</a>
</g>
</g>
<!-- Node1&#45;&gt;Node5 -->
<g id="edge4" class="edge"><title>Node1&#45;&gt;Node5</title>
<path fill="none" stroke="midnightblue" d="M117.201,-199.796C125.591,-198.565 134.265,-197.291 142.841,-196.032"/>
<polygon fill="midnightblue" stroke="midnightblue" points="116.518,-196.359 107.132,-201.274 117.535,-203.285 116.518,-196.359"/>
</g>
<!-- Node6 -->
<g id="node6" class="node"><title>Node6</title>
<g id="a_node6"><a xlink:href="structfactory_1_1Server__with__pool.html" target="_top" xlink:title="factory::Server_with\l_pool\&lt; T, Kernels, Threads,\l Mutex, Lock, Semaphore \&gt;">
<polygon fill="white" stroke="black" points="150,-109.5 150,-150.5 288,-150.5 288,-109.5 150,-109.5"/>
<text text-anchor="start" x="158" y="-138.5" font-family="Helvetica,sans-Serif" font-size="10.00">factory::Server_with</text>
<text text-anchor="start" x="158" y="-127.5" font-family="Helvetica,sans-Serif" font-size="10.00">_pool&lt; T, Kernels, Threads,</text>
<text text-anchor="middle" x="219" y="-116.5" font-family="Helvetica,sans-Serif" font-size="10.00"> Mutex, Lock, Semaphore &gt;</text>
</a>
</g>
</g>
<!-- Node1&#45;&gt;Node6 -->
<g id="edge5" class="edge"><title>Node1&#45;&gt;Node6</title>
<path fill="none" stroke="midnightblue" d="M79.4765,-194.071C96.9673,-183.891 121.045,-170.419 143,-160 149.715,-156.813 156.864,-153.66 163.98,-150.664"/>
<polygon fill="midnightblue" stroke="midnightblue" points="77.3425,-191.265 70.4924,-199.348 80.8877,-197.301 77.3425,-191.265"/>
</g>
<!-- Node3 -->
<g id="node3" class="node"><title>Node3</title>
<g id="a_node3"><a xlink:href="structfactory_1_1Process__rserver.html" target="_top" xlink:title="factory::Process_rserver\l\&lt; T, Router \&gt;">
<polygon fill="white" stroke="black" points="336,-268 336,-298 460,-298 460,-268 336,-268"/>
<text text-anchor="start" x="344" y="-286" font-family="Helvetica,sans-Serif" font-size="10.00">factory::Process_rserver</text>
<text text-anchor="middle" x="398" y="-275" font-family="Helvetica,sans-Serif" font-size="10.00">&lt; T, Router &gt;</text>
</a>
</g>
</g>
<!-- Node2&#45;&gt;Node3 -->
<g id="edge2" class="edge"><title>Node2&#45;&gt;Node3</title>
<path fill="none" stroke="midnightblue" d="M290.66,-283C305.651,-283 321.355,-283 335.952,-283"/>
<polygon fill="midnightblue" stroke="midnightblue" points="290.418,-279.5 280.418,-283 290.418,-286.5 290.418,-279.5"/>
</g>
<!-- Node7 -->
<g id="node7" class="node"><title>Node7</title>
<g id="a_node7"><a xlink:href="structfactory_1_1Basic__CPU__server.html" target="_top" xlink:title="factory::Basic_CPU\l_server\&lt; T \&gt;">
<polygon fill="white" stroke="black" points="346,-208 346,-238 450,-238 450,-208 346,-208"/>
<text text-anchor="start" x="354" y="-226" font-family="Helvetica,sans-Serif" font-size="10.00">factory::Basic_CPU</text>
<text text-anchor="middle" x="398" y="-215" font-family="Helvetica,sans-Serif" font-size="10.00">_server&lt; T &gt;</text>
</a>
</g>
</g>
<!-- Node6&#45;&gt;Node7 -->
<g id="edge6" class="edge"><title>Node6&#45;&gt;Node7</title>
<path fill="none" stroke="midnightblue" d="M287.549,-155.327C290.113,-156.818 292.607,-158.375 295,-160 314.247,-173.068 311.633,-185.11 331,-198 336.61,-201.734 342.856,-205.017 349.205,-207.872"/>
<polygon fill="midnightblue" stroke="midnightblue" points="289.076,-152.174 278.612,-150.515 285.758,-158.337 289.076,-152.174"/>
</g>
<!-- Node10 -->
<g id="node10" class="node"><title>Node10</title>
<g id="a_node10"><a xlink:href="structfactory_1_1Proxy__server.html" target="_top" xlink:title="factory::Proxy_server\l\&lt; T, Rserver \&gt;">
<polygon fill="white" stroke="black" points="343,-159 343,-189 453,-189 453,-159 343,-159"/>
<text text-anchor="start" x="351" y="-177" font-family="Helvetica,sans-Serif" font-size="10.00">factory::Proxy_server</text>
<text text-anchor="middle" x="398" y="-166" font-family="Helvetica,sans-Serif" font-size="10.00">&lt; T, Rserver &gt;</text>
</a>
</g>
</g>
<!-- Node6&#45;&gt;Node10 -->
<g id="edge9" class="edge"><title>Node6&#45;&gt;Node10</title>
<path fill="none" stroke="midnightblue" d="M298.041,-149.4C313.168,-153.16 328.708,-157.023 342.86,-160.541"/>
<polygon fill="midnightblue" stroke="midnightblue" points="298.729,-145.965 288.18,-146.949 297.04,-152.758 298.729,-145.965"/>
</g>
<!-- Node11 -->
<g id="node11" class="node"><title>Node11</title>
<g id="a_node11"><a xlink:href="structfactory_1_1Timer__server.html" target="_top" xlink:title="factory::Timer_server\&lt; T \&gt;">
<polygon fill="white" stroke="black" points="331,-120.5 331,-139.5 465,-139.5 465,-120.5 331,-120.5"/>
<text text-anchor="middle" x="398" y="-127.5" font-family="Helvetica,sans-Serif" font-size="10.00">factory::Timer_server&lt; T &gt;</text>
</a>
</g>
</g>
<!-- Node6&#45;&gt;Node11 -->
<g id="edge10" class="edge"><title>Node6&#45;&gt;Node11</title>
<path fill="none" stroke="midnightblue" d="M298.474,-130C309.298,-130 320.325,-130 330.895,-130"/>
<polygon fill="midnightblue" stroke="midnightblue" points="298.18,-126.5 288.18,-130 298.18,-133.5 298.18,-126.5"/>
</g>
<!-- Node12 -->
<g id="node12" class="node"><title>Node12</title>
<g id="a_node12"><a xlink:href="structfactory_1_1Proxy__server.html" target="_top" xlink:title="factory::Proxy_server\l\&lt; T, Process_rserver\l\&lt; T, Router \&gt; \&gt;">
<polygon fill="white" stroke="black" points="343,-60.5 343,-101.5 453,-101.5 453,-60.5 343,-60.5"/>
<text text-anchor="start" x="351" y="-89.5" font-family="Helvetica,sans-Serif" font-size="10.00">factory::Proxy_server</text>
<text text-anchor="start" x="351" y="-78.5" font-family="Helvetica,sans-Serif" font-size="10.00">&lt; T, Process_rserver</text>
<text text-anchor="middle" x="398" y="-67.5" font-family="Helvetica,sans-Serif" font-size="10.00">&lt; T, Router &gt; &gt;</text>
</a>
</g>
</g>
<!-- Node6&#45;&gt;Node12 -->
<g id="edge11" class="edge"><title>Node6&#45;&gt;Node12</title>
<path fill="none" stroke="midnightblue" d="M298.041,-108.395C313.168,-104.208 328.708,-99.9058 342.86,-95.9879"/>
<polygon fill="midnightblue" stroke="midnightblue" points="296.883,-105.084 288.18,-111.125 298.751,-111.83 296.883,-105.084"/>
</g>
<!-- Node15 -->
<g id="node15" class="node"><title>Node15</title>
<g id="a_node15"><a xlink:href="structfactory_1_1Proxy__server.html" target="_top" xlink:title="factory::Proxy_server\l\&lt; T, Remote_Rserver\&lt;\l T, Socket, Router \&gt; \&gt;">
<polygon fill="white" stroke="black" points="339,-0.5 339,-41.5 457,-41.5 457,-0.5 339,-0.5"/>
<text text-anchor="start" x="347" y="-29.5" font-family="Helvetica,sans-Serif" font-size="10.00">factory::Proxy_server</text>
<text text-anchor="start" x="347" y="-18.5" font-family="Helvetica,sans-Serif" font-size="10.00">&lt; T, Remote_Rserver&lt;</text>
<text text-anchor="middle" x="398" y="-7.5" font-family="Helvetica,sans-Serif" font-size="10.00"> T, Socket, Router &gt; &gt;</text>
</a>
</g>
</g>
<!-- Node6&#45;&gt;Node15 -->
<g id="edge14" class="edge"><title>Node6&#45;&gt;Node15</title>
<path fill="none" stroke="midnightblue" d="M254.081,-103.15C275.479,-86.9571 304.039,-66.5293 331,-51 336.671,-47.7333 342.762,-44.5558 348.867,-41.5662"/>
<polygon fill="midnightblue" stroke="midnightblue" points="251.782,-100.502 245.959,-109.353 256.031,-106.065 251.782,-100.502"/>
</g>
<!-- Node8 -->
<g id="node8" class="node"><title>Node8</title>
<g id="a_node8"><a xlink:href="structfactory_1_1CPU__server.html" target="_top" xlink:title="factory::CPU_server\&lt; T \&gt;">
<polygon fill="white" stroke="black" points="501,-232.5 501,-251.5 632,-251.5 632,-232.5 501,-232.5"/>
<text text-anchor="middle" x="566.5" y="-239.5" font-family="Helvetica,sans-Serif" font-size="10.00">factory::CPU_server&lt; T &gt;</text>
</a>
</g>
</g>
<!-- Node7&#45;&gt;Node8 -->
<g id="edge7" class="edge"><title>Node7&#45;&gt;Node8</title>
<path fill="none" stroke="midnightblue" d="M460.631,-230.033C473.734,-231.528 487.605,-233.111 500.819,-234.619"/>
<polygon fill="midnightblue" stroke="midnightblue" points="460.646,-226.512 450.314,-228.856 459.853,-233.467 460.646,-226.512"/>
</g>
<!-- Node9 -->
<g id="node9" class="node"><title>Node9</title>
<g id="a_node9"><a xlink:href="structfactory_1_1IO__server.html" target="_top" xlink:title="factory::IO_server\&lt; T \&gt;">
<polygon fill="white" stroke="black" points="507,-194.5 507,-213.5 626,-213.5 626,-194.5 507,-194.5"/>
<text text-anchor="middle" x="566.5" y="-201.5" font-family="Helvetica,sans-Serif" font-size="10.00">factory::IO_server&lt; T &gt;</text>
</a>
</g>
</g>
<!-- Node7&#45;&gt;Node9 -->
<g id="edge8" class="edge"><title>Node7&#45;&gt;Node9</title>
<path fill="none" stroke="midnightblue" d="M460.582,-215.973C475.688,-214.249 491.817,-212.408 506.785,-210.7"/>
<polygon fill="midnightblue" stroke="midnightblue" points="459.853,-212.533 450.314,-217.144 460.646,-219.488 459.853,-212.533"/>
</g>
<!-- Node13 -->
<g id="node13" class="node"><title>Node13</title>
<g id="a_node13"><a xlink:href="structfactory_1_1Process__child__server.html" target="_top" xlink:title="factory::Process_child\l_server\&lt; T, Router \&gt;">
<polygon fill="white" stroke="black" points="509.5,-110 509.5,-140 623.5,-140 623.5,-110 509.5,-110"/>
<text text-anchor="start" x="517.5" y="-128" font-family="Helvetica,sans-Serif" font-size="10.00">factory::Process_child</text>
<text text-anchor="middle" x="566.5" y="-117" font-family="Helvetica,sans-Serif" font-size="10.00">_server&lt; T, Router &gt;</text>
</a>
</g>
</g>
<!-- Node12&#45;&gt;Node13 -->
<g id="edge12" class="edge"><title>Node12&#45;&gt;Node13</title>
<path fill="none" stroke="midnightblue" d="M462.963,-97.903C478.273,-101.949 494.504,-106.238 509.426,-110.182"/>
<polygon fill="midnightblue" stroke="midnightblue" points="463.62,-94.4567 453.058,-95.2855 461.832,-101.224 463.62,-94.4567"/>
</g>
<!-- Node14 -->
<g id="node14" class="node"><title>Node14</title>
<g id="a_node14"><a xlink:href="structfactory_1_1Process__iserver.html" target="_top" xlink:title="factory::Process_iserver\l\&lt; T, Router \&gt;">
<polygon fill="white" stroke="black" points="505,-61 505,-91 628,-91 628,-61 505,-61"/>
<text text-anchor="start" x="513" y="-79" font-family="Helvetica,sans-Serif" font-size="10.00">factory::Process_iserver</text>
<text text-anchor="middle" x="566.5" y="-68" font-family="Helvetica,sans-Serif" font-size="10.00">&lt; T, Router &gt;</text>
</a>
</g>
</g>
<!-- Node12&#45;&gt;Node14 -->
<g id="edge13" class="edge"><title>Node12&#45;&gt;Node14</title>
<path fill="none" stroke="midnightblue" d="M463.317,-79.0685C476.95,-78.6592 491.298,-78.2283 504.792,-77.8231"/>
<polygon fill="midnightblue" stroke="midnightblue" points="462.948,-75.578 453.058,-79.3766 463.158,-82.5748 462.948,-75.578"/>
</g>
<!-- Node16 -->
<g id="node16" class="node"><title>Node16</title>
<g id="a_node16"><a xlink:href="structfactory_1_1NIC__server.html" target="_top" xlink:title="factory::NIC_server\l\&lt; T, Socket, Router \&gt;">
<polygon fill="white" stroke="black" points="510,-6 510,-36 623,-36 623,-6 510,-6"/>
<text text-anchor="start" x="518" y="-24" font-family="Helvetica,sans-Serif" font-size="10.00">factory::NIC_server</text>
<text text-anchor="middle" x="566.5" y="-13" font-family="Helvetica,sans-Serif" font-size="10.00">&lt; T, Socket, Router &gt;</text>
</a>
</g>
</g>
<!-- Node15&#45;&gt;Node16 -->
<g id="edge15" class="edge"><title>Node15&#45;&gt;Node16</title>
<path fill="none" stroke="midnightblue" d="M467.387,-21C481.507,-21 496.217,-21 509.819,-21"/>
<polygon fill="midnightblue" stroke="midnightblue" points="467.234,-17.5001 457.234,-21 467.234,-24.5001 467.234,-17.5001"/>
</g>
</g>
</svg>
