<?xml version="1.0" encoding="UTF-8" standalone="no"?>
<!DOCTYPE svg PUBLIC "-//W3C//DTD SVG 1.1//EN"
 "http://www.w3.org/Graphics/SVG/1.1/DTD/svg11.dtd">
<!-- Generated by graphviz version 2.36.0 (20140111.2315)
 -->
<!-- Title: Graphical Class Hierarchy Pages: 1 -->
<svg width="626pt" height="454pt"
 viewBox="0.00 0.00 626.00 454.00" xmlns="http://www.w3.org/2000/svg" xmlns:xlink="http://www.w3.org/1999/xlink">
<g id="graph0" class="graph" transform="scale(1 1) rotate(0) translate(4 450)">
<title>Graphical Class Hierarchy</title>
<polygon fill="white" stroke="none" points="-4,4 -4,-450 622,-450 622,4 -4,4"/>
<!-- Node1 -->
<g id="node1" class="node"><title>Node1</title>
<g id="a_node1"><a xlink:href="classbsc_1_1pipeline__base.html" target="_top" xlink:title="bsc::pipeline_base">
<polygon fill="white" stroke="black" points="0,-112.5 0,-131.5 98,-131.5 98,-112.5 0,-112.5"/>
<text text-anchor="middle" x="49" y="-119.5" font-family="Helvetica,sans-Serif" font-size="10.00">bsc::pipeline_base</text>
</a>
</g>
</g>
<!-- Node2 -->
<g id="node2" class="node"><title>Node2</title>
<g id="a_node2"><a xlink:href="classbsc_1_1basic__pipeline.html" target="_top" xlink:title="bsc::basic_pipeline\&lt; T \&gt;">
<polygon fill="white" stroke="black" points="134,-350.5 134,-369.5 258,-369.5 258,-350.5 134,-350.5"/>
<text text-anchor="middle" x="196" y="-357.5" font-family="Helvetica,sans-Serif" font-size="10.00">bsc::basic_pipeline&lt; T &gt;</text>
</a>
</g>
</g>
<!-- Node1&#45;&gt;Node2 -->
<g id="edge1" class="edge"><title>Node1&#45;&gt;Node2</title>
<path fill="none" stroke="midnightblue" d="M57.9023,-141.376C71.3551,-173.389 100.524,-238.777 134,-289 149.683,-312.529 172.227,-336.874 185.061,-350.055"/>
<polygon fill="midnightblue" stroke="midnightblue" points="61.0233,-139.765 53.9591,-131.869 54.5574,-142.447 61.0233,-139.765"/>
</g>
<!-- Node5 -->
<g id="node5" class="node"><title>Node5</title>
<g id="a_node5"><a xlink:href="classbsc_1_1basic__handler.html" target="_top" xlink:title="bsc::basic_handler">
<polygon fill="white" stroke="black" points="147,-260.5 147,-279.5 245,-279.5 245,-260.5 147,-260.5"/>
<text text-anchor="middle" x="196" y="-267.5" font-family="Helvetica,sans-Serif" font-size="10.00">bsc::basic_handler</text>
</a>
</g>
</g>
<!-- Node1&#45;&gt;Node5 -->
<g id="edge4" class="edge"><title>Node1&#45;&gt;Node5</title>
<path fill="none" stroke="midnightblue" d="M66.8976,-139.247C97.6117,-170.597 161.633,-235.943 185.64,-260.446"/>
<polygon fill="midnightblue" stroke="midnightblue" points="69.0123,-136.404 59.5139,-131.711 64.0121,-141.303 69.0123,-136.404"/>
</g>
<!-- Node11 -->
<g id="node11" class="node"><title>Node11</title>
<g id="a_node11"><a xlink:href="classbsc_1_1basic__pipeline.html" target="_top" xlink:title="bsc::basic_pipeline\l\&lt; T, Kernels, Traits,\l Threads, Mutex, Lock,\l Semaphore \&gt;">
<polygon fill="white" stroke="black" points="137,-126 137,-178 255,-178 255,-126 137,-126"/>
<text text-anchor="start" x="145" y="-166" font-family="Helvetica,sans-Serif" font-size="10.00">bsc::basic_pipeline</text>
<text text-anchor="start" x="145" y="-155" font-family="Helvetica,sans-Serif" font-size="10.00">&lt; T, Kernels, Traits,</text>
<text text-anchor="start" x="145" y="-144" font-family="Helvetica,sans-Serif" font-size="10.00"> Threads, Mutex, Lock,</text>
<text text-anchor="middle" x="196" y="-133" font-family="Helvetica,sans-Serif" font-size="10.00"> Semaphore &gt;</text>
</a>
</g>
</g>
<!-- Node1&#45;&gt;Node11 -->
<g id="edge10" class="edge"><title>Node1&#45;&gt;Node11</title>
<path fill="none" stroke="midnightblue" d="M106.185,-133.624C116.271,-135.711 126.802,-137.89 136.94,-139.988"/>
<polygon fill="midnightblue" stroke="midnightblue" points="106.779,-130.173 96.2776,-131.575 105.361,-137.028 106.779,-130.173"/>
</g>
<!-- Node20 -->
<g id="node20" class="node"><title>Node20</title>
<g id="a_node20"><a xlink:href="classbsc_1_1external__process__handler.html" target="_top" xlink:title="bsc::external_process\l_handler\&lt; T, Router \&gt;">
<polygon fill="white" stroke="black" points="139.5,-77 139.5,-107 252.5,-107 252.5,-77 139.5,-77"/>
<text text-anchor="start" x="147.5" y="-95" font-family="Helvetica,sans-Serif" font-size="10.00">bsc::external_process</text>
<text text-anchor="middle" x="196" y="-84" font-family="Helvetica,sans-Serif" font-size="10.00">_handler&lt; T, Router &gt;</text>
</a>
</g>
</g>
<!-- Node1&#45;&gt;Node20 -->
<g id="edge19" class="edge"><title>Node1&#45;&gt;Node20</title>
<path fill="none" stroke="midnightblue" d="M106.1,-110.393C116.988,-108.14 128.396,-105.78 139.272,-103.53"/>
<polygon fill="midnightblue" stroke="midnightblue" points="105.361,-106.972 96.2776,-112.425 106.779,-113.827 105.361,-106.972"/>
</g>
<!-- Node21 -->
<g id="node21" class="node"><title>Node21</title>
<g id="a_node21"><a xlink:href="classbsc_1_1Factory.html" target="_top" xlink:title="bsc::Factory\&lt; T \&gt;">
<polygon fill="white" stroke="black" points="148.5,-38.5 148.5,-57.5 243.5,-57.5 243.5,-38.5 148.5,-38.5"/>
<text text-anchor="middle" x="196" y="-45.5" font-family="Helvetica,sans-Serif" font-size="10.00">bsc::Factory&lt; T &gt;</text>
</a>
</g>
</g>
<!-- Node1&#45;&gt;Node21 -->
<g id="edge20" class="edge"><title>Node1&#45;&gt;Node21</title>
<path fill="none" stroke="midnightblue" d="M70.4608,-106.27C86.9089,-94.2142 110.988,-77.8569 134,-67 141.724,-63.3556 150.321,-60.1847 158.566,-57.532"/>
<polygon fill="midnightblue" stroke="midnightblue" points="68.0841,-103.676 62.1634,-112.462 72.2709,-109.286 68.0841,-103.676"/>
</g>
<!-- Node22 -->
<g id="node22" class="node"><title>Node22</title>
<g id="a_node22"><a xlink:href="classbsc_1_1Multi__pipeline.html" target="_top" xlink:title="bsc::Multi_pipeline\&lt; T \&gt;">
<polygon fill="white" stroke="black" points="135,-0.5 135,-19.5 257,-19.5 257,-0.5 135,-0.5"/>
<text text-anchor="middle" x="196" y="-7.5" font-family="Helvetica,sans-Serif" font-size="10.00">bsc::Multi_pipeline&lt; T &gt;</text>
</a>
</g>
</g>
<!-- Node1&#45;&gt;Node22 -->
<g id="edge21" class="edge"><title>Node1&#45;&gt;Node22</title>
<path fill="none" stroke="midnightblue" d="M61.7805,-103.94C76.3419,-82.9936 103.027,-48.8123 134,-29 139.98,-25.1747 146.783,-22.0746 153.623,-19.5761"/>
<polygon fill="midnightblue" stroke="midnightblue" points="58.8427,-102.036 56.1379,-112.28 64.6404,-105.959 58.8427,-102.036"/>
</g>
<!-- Node3 -->
<g id="node3" class="node"><title>Node3</title>
<g id="a_node3"><a xlink:href="classbsc_1_1parallel__pipeline.html" target="_top" xlink:title="bsc::parallel_pipeline\&lt; T \&gt;">
<polygon fill="white" stroke="black" points="308.5,-426.5 308.5,-445.5 439.5,-445.5 439.5,-426.5 308.5,-426.5"/>
<text text-anchor="middle" x="374" y="-433.5" font-family="Helvetica,sans-Serif" font-size="10.00">bsc::parallel_pipeline&lt; T &gt;</text>
</a>
</g>
</g>
<!-- Node2&#45;&gt;Node3 -->
<g id="edge2" class="edge"><title>Node2&#45;&gt;Node3</title>
<path fill="none" stroke="midnightblue" d="M219.399,-375.325C238.497,-387.794 267.06,-405.059 294,-416 304.224,-420.152 315.552,-423.631 326.362,-426.461"/>
<polygon fill="midnightblue" stroke="midnightblue" points="221.099,-372.252 210.832,-369.637 217.228,-378.084 221.099,-372.252"/>
</g>
<!-- Node4 -->
<g id="node4" class="node"><title>Node4</title>
<g id="a_node4"><a xlink:href="structbsc_1_1io__pipeline.html" target="_top" xlink:title="bsc::io_pipeline\&lt; T \&gt;">
<polygon fill="white" stroke="black" points="500,-426.5 500,-445.5 608,-445.5 608,-426.5 500,-426.5"/>
<text text-anchor="middle" x="554" y="-433.5" font-family="Helvetica,sans-Serif" font-size="10.00">bsc::io_pipeline&lt; T &gt;</text>
</a>
</g>
</g>
<!-- Node3&#45;&gt;Node4 -->
<g id="edge3" class="edge"><title>Node3&#45;&gt;Node4</title>
<path fill="none" stroke="midnightblue" d="M449.856,-436C466.645,-436 484.123,-436 499.817,-436"/>
<polygon fill="midnightblue" stroke="midnightblue" points="449.514,-432.5 439.514,-436 449.514,-439.5 449.514,-432.5"/>
</g>
<!-- Node6 -->
<g id="node6" class="node"><title>Node6</title>
<g id="a_node6"><a xlink:href="classbsc_1_1local__server.html" target="_top" xlink:title="bsc::local_server\&lt;\l K, S, R \&gt;">
<polygon fill="white" stroke="black" points="325.5,-377 325.5,-407 422.5,-407 422.5,-377 325.5,-377"/>
<text text-anchor="start" x="333.5" y="-395" font-family="Helvetica,sans-Serif" font-size="10.00">bsc::local_server&lt;</text>
<text text-anchor="middle" x="374" y="-384" font-family="Helvetica,sans-Serif" font-size="10.00"> K, S, R &gt;</text>
</a>
</g>
</g>
<!-- Node5&#45;&gt;Node6 -->
<g id="edge5" class="edge"><title>Node5&#45;&gt;Node6</title>
<path fill="none" stroke="midnightblue" d="M210.353,-287.839C227.465,-309.515 259.116,-345.807 294,-367 303.59,-372.826 314.67,-377.423 325.441,-380.998"/>
<polygon fill="midnightblue" stroke="midnightblue" points="213.019,-285.566 204.137,-279.79 207.479,-289.845 213.019,-285.566"/>
</g>
<!-- Node7 -->
<g id="node7" class="node"><title>Node7</title>
<g id="a_node7"><a xlink:href="classbsc_1_1process__handler.html" target="_top" xlink:title="bsc::process_handler\l\&lt; K, R \&gt;">
<polygon fill="white" stroke="black" points="319,-328 319,-358 429,-358 429,-328 319,-328"/>
<text text-anchor="start" x="327" y="-346" font-family="Helvetica,sans-Serif" font-size="10.00">bsc::process_handler</text>
<text text-anchor="middle" x="374" y="-335" font-family="Helvetica,sans-Serif" font-size="10.00">&lt; K, R &gt;</text>
</a>
</g>
</g>
<!-- Node5&#45;&gt;Node7 -->
<g id="edge6" class="edge"><title>Node5&#45;&gt;Node7</title>
<path fill="none" stroke="midnightblue" d="M223.548,-284.515C242.765,-294.679 269.549,-308.149 294,-318 302.807,-321.548 312.323,-324.928 321.598,-327.992"/>
<polygon fill="midnightblue" stroke="midnightblue" points="224.973,-281.308 214.504,-279.68 221.673,-287.481 224.973,-281.308"/>
</g>
<!-- Node8 -->
<g id="node8" class="node"><title>Node8</title>
<g id="a_node8"><a xlink:href="classbsc_1_1remote__client.html" target="_top" xlink:title="bsc::remote_client\l\&lt; K, S, R \&gt;">
<polygon fill="white" stroke="black" points="325.5,-279 325.5,-309 422.5,-309 422.5,-279 325.5,-279"/>
<text text-anchor="start" x="333.5" y="-297" font-family="Helvetica,sans-Serif" font-size="10.00">bsc::remote_client</text>
<text text-anchor="middle" x="374" y="-286" font-family="Helvetica,sans-Serif" font-size="10.00">&lt; K, S, R &gt;</text>
</a>
</g>
</g>
<!-- Node5&#45;&gt;Node8 -->
<g id="edge7" class="edge"><title>Node5&#45;&gt;Node8</title>
<path fill="none" stroke="midnightblue" d="M255.29,-277.949C277.996,-281.045 303.692,-284.549 325.27,-287.491"/>
<polygon fill="midnightblue" stroke="midnightblue" points="255.474,-274.441 245.093,-276.558 254.528,-281.377 255.474,-274.441"/>
</g>
<!-- Node9 -->
<g id="node9" class="node"><title>Node9</title>
<g id="a_node9"><a xlink:href="classbsc_1_1unix__socket__client.html" target="_top" xlink:title="bsc::unix_socket_client\l\&lt; K, R \&gt;">
<polygon fill="white" stroke="black" points="314.5,-230 314.5,-260 433.5,-260 433.5,-230 314.5,-230"/>
<text text-anchor="start" x="322.5" y="-248" font-family="Helvetica,sans-Serif" font-size="10.00">bsc::unix_socket_client</text>
<text text-anchor="middle" x="374" y="-237" font-family="Helvetica,sans-Serif" font-size="10.00">&lt; K, R &gt;</text>
</a>
</g>
</g>
<!-- Node5&#45;&gt;Node9 -->
<g id="edge8" class="edge"><title>Node5&#45;&gt;Node9</title>
<path fill="none" stroke="midnightblue" d="M255.114,-261.745C274.126,-259.045 295.249,-256.044 314.303,-253.338"/>
<polygon fill="midnightblue" stroke="midnightblue" points="254.501,-258.297 245.093,-263.169 255.486,-265.227 254.501,-258.297"/>
</g>
<!-- Node10 -->
<g id="node10" class="node"><title>Node10</title>
<g id="a_node10"><a xlink:href="classbsc_1_1unix__socket__server.html" target="_top" xlink:title="bsc::unix_socket_server\l\&lt; K, R \&gt;">
<polygon fill="white" stroke="black" points="312.5,-181 312.5,-211 435.5,-211 435.5,-181 312.5,-181"/>
<text text-anchor="start" x="320.5" y="-199" font-family="Helvetica,sans-Serif" font-size="10.00">bsc::unix_socket_server</text>
<text text-anchor="middle" x="374" y="-188" font-family="Helvetica,sans-Serif" font-size="10.00">&lt; K, R &gt;</text>
</a>
</g>
</g>
<!-- Node5&#45;&gt;Node10 -->
<g id="edge9" class="edge"><title>Node5&#45;&gt;Node10</title>
<path fill="none" stroke="midnightblue" d="M222.813,-255.522C242.057,-245.086 269.19,-231.115 294,-221 302.659,-217.47 312.013,-214.121 321.152,-211.088"/>
<polygon fill="midnightblue" stroke="midnightblue" points="220.869,-252.597 213.783,-260.474 224.234,-258.734 220.869,-252.597"/>
</g>
<!-- Node12 -->
<g id="node12" class="node"><title>Node12</title>
<g id="a_node12"><a xlink:href="classbsc_1_1basic__socket__pipeline.html" target="_top" xlink:title="bsc::basic_socket_pipeline\&lt; K \&gt;">
<polygon fill="white" stroke="black" points="294.5,-142.5 294.5,-161.5 453.5,-161.5 453.5,-142.5 294.5,-142.5"/>
<text text-anchor="middle" x="374" y="-149.5" font-family="Helvetica,sans-Serif" font-size="10.00">bsc::basic_socket_pipeline&lt; K &gt;</text>
</a>
</g>
</g>
<!-- Node11&#45;&gt;Node12 -->
<g id="edge11" class="edge"><title>Node11&#45;&gt;Node12</title>
<path fill="none" stroke="midnightblue" d="M265.262,-152C274.748,-152 284.557,-152 294.217,-152"/>
<polygon fill="midnightblue" stroke="midnightblue" points="265.117,-148.5 255.117,-152 265.117,-155.5 265.117,-148.5"/>
</g>
<!-- Node17 -->
<g id="node17" class="node"><title>Node17</title>
<g id="a_node17"><a xlink:href="classbsc_1_1basic__socket__pipeline.html" target="_top" xlink:title="bsc::basic_socket_pipeline\&lt; T \&gt;">
<polygon fill="white" stroke="black" points="295,-104.5 295,-123.5 453,-123.5 453,-104.5 295,-104.5"/>
<text text-anchor="middle" x="374" y="-111.5" font-family="Helvetica,sans-Serif" font-size="10.00">bsc::basic_socket_pipeline&lt; T &gt;</text>
</a>
</g>
</g>
<!-- Node11&#45;&gt;Node17 -->
<g id="edge16" class="edge"><title>Node11&#45;&gt;Node17</title>
<path fill="none" stroke="midnightblue" d="M265.141,-137.288C286.546,-132.666 309.605,-127.688 328.886,-123.525"/>
<polygon fill="midnightblue" stroke="midnightblue" points="264.153,-133.92 255.117,-139.452 265.63,-140.763 264.153,-133.92"/>
</g>
<!-- Node19 -->
<g id="node19" class="node"><title>Node19</title>
<g id="a_node19"><a xlink:href="structbsc_1_1timer__pipeline.html" target="_top" xlink:title="bsc::timer_pipeline\&lt; T \&gt;">
<polygon fill="white" stroke="black" points="313,-66.5 313,-85.5 435,-85.5 435,-66.5 313,-66.5"/>
<text text-anchor="middle" x="374" y="-73.5" font-family="Helvetica,sans-Serif" font-size="10.00">bsc::timer_pipeline&lt; T &gt;</text>
</a>
</g>
</g>
<!-- Node11&#45;&gt;Node19 -->
<g id="edge18" class="edge"><title>Node11&#45;&gt;Node19</title>
<path fill="none" stroke="midnightblue" d="M250.175,-120.646C272.412,-107.553 293.328,-95.2713 294,-95 303.287,-91.2511 313.5,-88.1202 323.41,-85.5529"/>
<polygon fill="midnightblue" stroke="midnightblue" points="248.135,-117.786 241.294,-125.877 251.687,-123.817 248.135,-117.786"/>
</g>
<!-- Node13 -->
<g id="node13" class="node"><title>Node13</title>
<g id="a_node13"><a xlink:href="classbsc_1_1child__process__pipeline.html" target="_top" xlink:title="bsc::child_process\l_pipeline\&lt; K, R \&gt;">
<polygon fill="white" stroke="black" points="505,-235 505,-265 603,-265 603,-235 505,-235"/>
<text text-anchor="start" x="513" y="-253" font-family="Helvetica,sans-Serif" font-size="10.00">bsc::child_process</text>
<text text-anchor="middle" x="554" y="-242" font-family="Helvetica,sans-Serif" font-size="10.00">_pipeline&lt; K, R &gt;</text>
</a>
</g>
</g>
<!-- Node12&#45;&gt;Node13 -->
<g id="edge12" class="edge"><title>Node12&#45;&gt;Node13</title>
<path fill="none" stroke="midnightblue" d="M442.725,-165.477C446.683,-167.372 450.48,-169.534 454,-172 477.323,-188.337 467.786,-207.184 490,-225 494.773,-228.828 500.207,-232.133 505.836,-234.968"/>
<polygon fill="midnightblue" stroke="midnightblue" points="443.826,-162.143 433.25,-161.519 441.128,-168.603 443.826,-162.143"/>
</g>
<!-- Node14 -->
<g id="node14" class="node"><title>Node14</title>
<g id="a_node14"><a xlink:href="classbsc_1_1process__pipeline.html" target="_top" xlink:title="bsc::process_pipeline\l\&lt; K, R \&gt;">
<polygon fill="white" stroke="black" points="498.5,-186 498.5,-216 609.5,-216 609.5,-186 498.5,-186"/>
<text text-anchor="start" x="506.5" y="-204" font-family="Helvetica,sans-Serif" font-size="10.00">bsc::process_pipeline</text>
<text text-anchor="middle" x="554" y="-193" font-family="Helvetica,sans-Serif" font-size="10.00">&lt; K, R &gt;</text>
</a>
</g>
</g>
<!-- Node12&#45;&gt;Node14 -->
<g id="edge13" class="edge"><title>Node12&#45;&gt;Node14</title>
<path fill="none" stroke="midnightblue" d="M423.853,-164.067C433.844,-166.62 444.275,-169.346 454,-172 469.982,-176.362 487.34,-181.358 502.992,-185.96"/>
<polygon fill="midnightblue" stroke="midnightblue" points="424.605,-160.647 414.052,-161.582 422.885,-167.433 424.605,-160.647"/>
</g>
<!-- Node15 -->
<g id="node15" class="node"><title>Node15</title>
<g id="a_node15"><a xlink:href="classbsc_1_1socket__pipeline.html" target="_top" xlink:title="bsc::socket_pipeline\l\&lt; K, S, R \&gt;">
<polygon fill="white" stroke="black" points="501,-137 501,-167 607,-167 607,-137 501,-137"/>
<text text-anchor="start" x="509" y="-155" font-family="Helvetica,sans-Serif" font-size="10.00">bsc::socket_pipeline</text>
<text text-anchor="middle" x="554" y="-144" font-family="Helvetica,sans-Serif" font-size="10.00">&lt; K, S, R &gt;</text>
</a>
</g>
</g>
<!-- Node12&#45;&gt;Node15 -->
<g id="edge14" class="edge"><title>Node12&#45;&gt;Node15</title>
<path fill="none" stroke="midnightblue" d="M463.769,-152C476.487,-152 489.21,-152 500.902,-152"/>
<polygon fill="midnightblue" stroke="midnightblue" points="463.592,-148.5 453.592,-152 463.591,-155.5 463.592,-148.5"/>
</g>
<!-- Node16 -->
<g id="node16" class="node"><title>Node16</title>
<g id="a_node16"><a xlink:href="classbsc_1_1unix__domain__socket__pipeline.html" target="_top" xlink:title="bsc::unix_domain_socket\l_pipeline\&lt; K, R \&gt;">
<polygon fill="white" stroke="black" points="490,-88 490,-118 618,-118 618,-88 490,-88"/>
<text text-anchor="start" x="498" y="-106" font-family="Helvetica,sans-Serif" font-size="10.00">bsc::unix_domain_socket</text>
<text text-anchor="middle" x="554" y="-95" font-family="Helvetica,sans-Serif" font-size="10.00">_pipeline&lt; K, R &gt;</text>
</a>
</g>
</g>
<!-- Node12&#45;&gt;Node16 -->
<g id="edge15" class="edge"><title>Node12&#45;&gt;Node16</title>
<path fill="none" stroke="midnightblue" d="M426.378,-140.102C435.598,-137.837 445.102,-135.416 454,-133 470.812,-128.435 489.097,-123.023 505.325,-118.06"/>
<polygon fill="midnightblue" stroke="midnightblue" points="425.419,-136.733 416.526,-142.492 427.069,-143.536 425.419,-136.733"/>
</g>
<!-- Node18 -->
<g id="node18" class="node"><title>Node18</title>
<g id="a_node18"><a xlink:href="classbsc_1_1child__process__pipeline.html" target="_top" xlink:title="bsc::child_process\l_pipeline\&lt; T, basic\l_router\&lt; T \&gt; \&gt;">
<polygon fill="white" stroke="black" points="504.5,-28.5 504.5,-69.5 603.5,-69.5 603.5,-28.5 504.5,-28.5"/>
<text text-anchor="start" x="512.5" y="-57.5" font-family="Helvetica,sans-Serif" font-size="10.00">bsc::child_process</text>
<text text-anchor="start" x="512.5" y="-46.5" font-family="Helvetica,sans-Serif" font-size="10.00">_pipeline&lt; T, basic</text>
<text text-anchor="middle" x="554" y="-35.5" font-family="Helvetica,sans-Serif" font-size="10.00">_router&lt; T &gt; &gt;</text>
</a>
</g>
</g>
<!-- Node17&#45;&gt;Node18 -->
<g id="edge17" class="edge"><title>Node17&#45;&gt;Node18</title>
<path fill="none" stroke="midnightblue" d="M431.713,-101.853C439.277,-99.7991 446.876,-97.5087 454,-95 470.69,-89.1225 473.963,-85.4772 490,-78 495.893,-75.2524 502.103,-72.3736 508.234,-69.5412"/>
<polygon fill="midnightblue" stroke="midnightblue" points="430.633,-98.5169 421.831,-104.415 432.39,-105.293 430.633,-98.5169"/>
</g>
</g>
</svg>
