<?xml version="1.0" encoding="UTF-8" standalone="no"?>
<!DOCTYPE svg PUBLIC "-//W3C//DTD SVG 1.1//EN"
 "http://www.w3.org/Graphics/SVG/1.1/DTD/svg11.dtd">
<!-- Generated by graphviz version 2.38.0 (20140413.2041)
 -->
<!-- Title: Graphical Class Hierarchy Pages: 1 -->
<svg width="314pt" height="66pt"
 viewBox="0.00 0.00 314.00 66.00" xmlns="http://www.w3.org/2000/svg" xmlns:xlink="http://www.w3.org/1999/xlink">
<g id="graph0" class="graph" transform="scale(1 1) rotate(0) translate(4 62)">
<title>Graphical Class Hierarchy</title>
<polygon fill="white" stroke="none" points="-4,4 -4,-62 310,-62 310,4 -4,4"/>
<!-- Node1 -->
<g id="node1" class="node"><title>Node1</title>
<g id="a_node1"><a xlink:href="structsys_1_1path.html" target="_top" xlink:title="sys::path">
<polygon fill="white" stroke="black" points="101,-38.5 101,-57.5 158,-57.5 158,-38.5 101,-38.5"/>
<text text-anchor="middle" x="129.5" y="-45.5" font-family="Helvetica,sans-Serif" font-size="10.00">sys::path</text>
</a>
</g>
</g>
<!-- Node2 -->
<g id="node2" class="node"><title>Node2</title>
<g id="a_node2"><a xlink:href="structsys_1_1canonical__path.html" target="_top" xlink:title="sys::canonical_path">
<polygon fill="white" stroke="black" points="202,-38.5 202,-57.5 306,-57.5 306,-38.5 202,-38.5"/>
<text text-anchor="middle" x="254" y="-45.5" font-family="Helvetica,sans-Serif" font-size="10.00">sys::canonical_path</text>
</a>
</g>
</g>
<!-- Node1&#45;&gt;Node2 -->
<g id="edge1" class="edge"><title>Node1&#45;&gt;Node2</title>
<path fill="none" stroke="midnightblue" d="M168.407,-48C178.935,-48 190.544,-48 201.701,-48"/>
<polygon fill="midnightblue" stroke="midnightblue" points="168.297,-44.5001 158.297,-48 168.297,-51.5001 168.297,-44.5001"/>
</g>
<!-- Node3 -->
<g id="node3" class="node"><title>Node3</title>
<g id="a_node3"><a xlink:href="structsys_1_1file.html" target="_top" xlink:title="sys::file">
<polygon fill="white" stroke="black" points="228.5,-0.5 228.5,-19.5 279.5,-19.5 279.5,-0.5 228.5,-0.5"/>
<text text-anchor="middle" x="254" y="-7.5" font-family="Helvetica,sans-Serif" font-size="10.00">sys::file</text>
</a>
</g>
</g>
<!-- Node1&#45;&gt;Node3 -->
<g id="edge2" class="edge"><title>Node1&#45;&gt;Node3</title>
<path fill="none" stroke="midnightblue" d="M168.115,-36.3318C187.648,-30.2723 210.971,-23.0377 228.222,-17.6863"/>
<polygon fill="midnightblue" stroke="midnightblue" points="166.811,-33.0715 158.297,-39.3772 168.885,-39.7572 166.811,-33.0715"/>
</g>
<!-- Node4 -->
<g id="node4" class="node"><title>Node4</title>
<polygon fill="white" stroke="#bfbfbf" points="0,-0.5 0,-19.5 57,-19.5 57,-0.5 0,-0.5"/>
<text text-anchor="middle" x="28.5" y="-7.5" font-family="Helvetica,sans-Serif" font-size="10.00">stat_type</text>
</g>
<!-- Node5 -->
<g id="node5" class="node"><title>Node5</title>
<g id="a_node5"><a xlink:href="structsys_1_1file__stat.html" target="_top" xlink:title="sys::file_stat">
<polygon fill="white" stroke="black" points="93,-0.5 93,-19.5 166,-19.5 166,-0.5 93,-0.5"/>
<text text-anchor="middle" x="129.5" y="-7.5" font-family="Helvetica,sans-Serif" font-size="10.00">sys::file_stat</text>
</a>
</g>
</g>
<!-- Node4&#45;&gt;Node5 -->
<g id="edge3" class="edge"><title>Node4&#45;&gt;Node5</title>
<path fill="none" stroke="midnightblue" d="M67.092,-10C75.5629,-10 84.5283,-10 92.9139,-10"/>
<polygon fill="midnightblue" stroke="midnightblue" points="67.0771,-6.5001 57.077,-10 67.077,-13.5001 67.0771,-6.5001"/>
</g>
<!-- Node5&#45;&gt;Node3 -->
<g id="edge4" class="edge"><title>Node5&#45;&gt;Node3</title>
<path fill="none" stroke="midnightblue" d="M176.369,-10C193.972,-10 213.388,-10 228.271,-10"/>
<polygon fill="midnightblue" stroke="midnightblue" points="176.261,-6.5001 166.261,-10 176.261,-13.5001 176.261,-6.5001"/>
</g>
</g>
</svg>
