<?xml version="1.0" encoding="UTF-8" standalone="no"?>
<!DOCTYPE svg PUBLIC "-//W3C//DTD SVG 1.1//EN"
 "http://www.w3.org/Graphics/SVG/1.1/DTD/svg11.dtd">
<!-- Generated by graphviz version 2.36.0 (20140111.2315)
 -->
<!-- Title: Graphical Class Hierarchy Pages: 1 -->
<svg width="180pt" height="97pt"
 viewBox="0.00 0.00 180.00 97.00" xmlns="http://www.w3.org/2000/svg" xmlns:xlink="http://www.w3.org/1999/xlink">
<g id="graph0" class="graph" transform="scale(1 1) rotate(0) translate(4 93)">
<title>Graphical Class Hierarchy</title>
<polygon fill="white" stroke="none" points="-4,4 -4,-93 176,-93 176,4 -4,4"/>
<!-- Node1 -->
<g id="node1" class="node"><title>Node1</title>
<polygon fill="white" stroke="#bfbfbf" points="0,-37.5 0,-56.5 38,-56.5 38,-37.5 0,-37.5"/>
<text text-anchor="middle" x="19" y="-44.5" font-family="Helvetica,sans-Serif" font-size="10.00">hash</text>
</g>
<!-- Node2 -->
<g id="node2" class="node"><title>Node2</title>
<g id="a_node2"><a xlink:href="structstd_1_1hash_3_01factory_1_1kernel__type_01_4.html" target="_top" xlink:title="std::hash\&lt; factory\l::kernel_type \&gt;">
<polygon fill="white" stroke="black" points="75,-59 75,-89 171,-89 171,-59 75,-59"/>
<text text-anchor="start" x="83" y="-77" font-family="Helvetica,sans-Serif" font-size="10.00">std::hash&lt; factory</text>
<text text-anchor="middle" x="123" y="-66" font-family="Helvetica,sans-Serif" font-size="10.00">::kernel_type &gt;</text>
</a>
</g>
</g>
<!-- Node1&#45;&gt;Node2 -->
<g id="edge1" class="edge"><title>Node1&#45;&gt;Node2</title>
<path fill="none" stroke="midnightblue" d="M48.0341,-54.4208C56.2646,-56.5995 65.5038,-59.0451 74.5903,-61.4504"/>
<polygon fill="midnightblue" stroke="midnightblue" points="48.7983,-51.0026 38.2356,-51.8271 47.007,-57.7695 48.7983,-51.0026"/>
</g>
<!-- Node3 -->
<g id="node3" class="node"><title>Node3</title>
<g id="a_node3"><a xlink:href="structstd_1_1hash_3_01factory_1_1position__in__tree_3_01Addr_01_4_01_4.html" target="_top" xlink:title="std::hash\&lt; factory\l::position_in_tree\&lt;\l Addr \&gt; \&gt;">
<polygon fill="white" stroke="black" points="74.5,0.5 74.5,-40.5 171.5,-40.5 171.5,0.5 74.5,0.5"/>
<text text-anchor="start" x="82.5" y="-28.5" font-family="Helvetica,sans-Serif" font-size="10.00">std::hash&lt; factory</text>
<text text-anchor="start" x="82.5" y="-17.5" font-family="Helvetica,sans-Serif" font-size="10.00">::position_in_tree&lt;</text>
<text text-anchor="middle" x="123" y="-6.5" font-family="Helvetica,sans-Serif" font-size="10.00"> Addr &gt; &gt;</text>
</a>
</g>
</g>
<!-- Node1&#45;&gt;Node3 -->
<g id="edge2" class="edge"><title>Node1&#45;&gt;Node3</title>
<path fill="none" stroke="midnightblue" d="M47.917,-39.6102C56.0456,-37.4585 65.1657,-35.0444 74.1546,-32.665"/>
<polygon fill="midnightblue" stroke="midnightblue" points="47.007,-36.2305 38.2356,-42.1729 48.7983,-42.9974 47.007,-36.2305"/>
</g>
</g>
</svg>
