<?xml version="1.0" encoding="UTF-8" standalone="no"?>
<!DOCTYPE svg PUBLIC "-//W3C//DTD SVG 1.1//EN"
 "http://www.w3.org/Graphics/SVG/1.1/DTD/svg11.dtd">
<!-- Generated by graphviz version 2.38.0 (20140413.2041)
 -->
<!-- Title: Graphical Class Hierarchy Pages: 1 -->
<svg width="239pt" height="225pt"
 viewBox="0.00 0.00 239.00 225.00" xmlns="http://www.w3.org/2000/svg" xmlns:xlink="http://www.w3.org/1999/xlink">
<g id="graph0" class="graph" transform="scale(1 1) rotate(0) translate(4 221)">
<title>Graphical Class Hierarchy</title>
<polygon fill="white" stroke="none" points="-4,4 -4,-221 235,-221 235,4 -4,4"/>
<!-- Node1 -->
<g id="node1" class="node"><title>Node1</title>
<polygon fill="white" stroke="#bfbfbf" points="0,-82.5 0,-101.5 79,-101.5 79,-82.5 0,-82.5"/>
<text text-anchor="middle" x="39.5" y="-89.5" font-family="Helvetica,sans-Serif" font-size="10.00">Priority_kernel</text>
</g>
<!-- Node2 -->
<g id="node2" class="node"><title>Node2</title>
<g id="a_node2"><a xlink:href="structMaster__discoverer.html" target="_top" xlink:title="Master_discoverer\&lt;\l Address, Hierarchy,\l Distance \&gt;">
<polygon fill="white" stroke="black" points="119.5,-175.5 119.5,-216.5 226.5,-216.5 226.5,-175.5 119.5,-175.5"/>
<text text-anchor="start" x="127.5" y="-204.5" font-family="Helvetica,sans-Serif" font-size="10.00">Master_discoverer&lt;</text>
<text text-anchor="start" x="127.5" y="-193.5" font-family="Helvetica,sans-Serif" font-size="10.00"> Address, Hierarchy,</text>
<text text-anchor="middle" x="173" y="-182.5" font-family="Helvetica,sans-Serif" font-size="10.00"> Distance &gt;</text>
</a>
</g>
</g>
<!-- Node1&#45;&gt;Node2 -->
<g id="edge1" class="edge"><title>Node1&#45;&gt;Node2</title>
<path fill="none" stroke="midnightblue" d="M55.0409,-109.138C69.2256,-125.163 91.974,-149.096 115,-166 119.507,-169.309 124.428,-172.47 129.429,-175.414"/>
<polygon fill="midnightblue" stroke="midnightblue" points="57.6513,-106.806 48.4477,-101.557 52.3696,-111.4 57.6513,-106.806"/>
</g>
<!-- Node3 -->
<g id="node3" class="node"><title>Node3</title>
<g id="a_node3"><a xlink:href="structMaster__negotiator.html" target="_top" xlink:title="Master_negotiator\&lt;\l Address \&gt;">
<polygon fill="white" stroke="black" points="122.5,-126 122.5,-156 223.5,-156 223.5,-126 122.5,-126"/>
<text text-anchor="start" x="130.5" y="-144" font-family="Helvetica,sans-Serif" font-size="10.00">Master_negotiator&lt;</text>
<text text-anchor="middle" x="173" y="-133" font-family="Helvetica,sans-Serif" font-size="10.00"> Address &gt;</text>
</a>
</g>
</g>
<!-- Node1&#45;&gt;Node3 -->
<g id="edge2" class="edge"><title>Node1&#45;&gt;Node3</title>
<path fill="none" stroke="midnightblue" d="M75.8372,-105.167C93.0449,-111.579 113.817,-119.32 131.646,-125.963"/>
<polygon fill="midnightblue" stroke="midnightblue" points="76.7594,-101.776 66.1667,-101.564 74.3152,-108.335 76.7594,-101.776"/>
</g>
<!-- Node4 -->
<g id="node4" class="node"><title>Node4</title>
<g id="a_node4"><a xlink:href="structMaster__negotiator.html" target="_top" xlink:title="Master_negotiator\&lt;\l addr_type \&gt;">
<polygon fill="white" stroke="black" points="122.5,-77 122.5,-107 223.5,-107 223.5,-77 122.5,-77"/>
<text text-anchor="start" x="130.5" y="-95" font-family="Helvetica,sans-Serif" font-size="10.00">Master_negotiator&lt;</text>
<text text-anchor="middle" x="173" y="-84" font-family="Helvetica,sans-Serif" font-size="10.00"> addr_type &gt;</text>
</a>
</g>
</g>
<!-- Node1&#45;&gt;Node4 -->
<g id="edge3" class="edge"><title>Node1&#45;&gt;Node4</title>
<path fill="none" stroke="midnightblue" d="M89.3226,-92C100.086,-92 111.499,-92 122.297,-92"/>
<polygon fill="midnightblue" stroke="midnightblue" points="89.2431,-88.5001 79.2431,-92 89.2431,-95.5001 89.2431,-88.5001"/>
</g>
<!-- Node5 -->
<g id="node5" class="node"><title>Node5</title>
<g id="a_node5"><a xlink:href="structNegotiator.html" target="_top" xlink:title="Negotiator\&lt; Address \&gt;">
<polygon fill="white" stroke="black" points="115,-38.5 115,-57.5 231,-57.5 231,-38.5 115,-38.5"/>
<text text-anchor="middle" x="173" y="-45.5" font-family="Helvetica,sans-Serif" font-size="10.00">Negotiator&lt; Address &gt;</text>
</a>
</g>
</g>
<!-- Node1&#45;&gt;Node5 -->
<g id="edge4" class="edge"><title>Node1&#45;&gt;Node5</title>
<path fill="none" stroke="midnightblue" d="M78.7867,-79.1892C99.4723,-72.2678 124.579,-63.8671 143.522,-57.5287"/>
<polygon fill="midnightblue" stroke="midnightblue" points="77.4062,-75.9604 69.0335,-82.4527 79.6274,-82.5986 77.4062,-75.9604"/>
</g>
<!-- Node6 -->
<g id="node6" class="node"><title>Node6</title>
<g id="a_node6"><a xlink:href="structSecret__agent.html" target="_top" xlink:title="Secret_agent">
<polygon fill="white" stroke="black" points="136,-0.5 136,-19.5 210,-19.5 210,-0.5 136,-0.5"/>
<text text-anchor="middle" x="173" y="-7.5" font-family="Helvetica,sans-Serif" font-size="10.00">Secret_agent</text>
</a>
</g>
</g>
<!-- Node1&#45;&gt;Node6 -->
<g id="edge5" class="edge"><title>Node1&#45;&gt;Node6</title>
<path fill="none" stroke="midnightblue" d="M56.7942,-74.9945C71.0237,-60.9838 92.8207,-41.4602 115,-29 121.639,-25.2704 129.126,-22.1228 136.439,-19.5287"/>
<polygon fill="midnightblue" stroke="midnightblue" points="54.2719,-72.5672 49.713,-82.1311 59.241,-77.4976 54.2719,-72.5672"/>
</g>
</g>
</svg>
