<?xml version="1.0" encoding="UTF-8" standalone="no"?>
<!DOCTYPE svg PUBLIC "-//W3C//DTD SVG 1.1//EN"
 "http://www.w3.org/Graphics/SVG/1.1/DTD/svg11.dtd">
<!-- Generated by graphviz version 2.36.0 (20140111.2315)
 -->
<!-- Title: Graphical Class Hierarchy Pages: 1 -->
<svg width="646pt" height="476pt"
 viewBox="0.00 0.00 646.00 476.00" xmlns="http://www.w3.org/2000/svg" xmlns:xlink="http://www.w3.org/1999/xlink">
<g id="graph0" class="graph" transform="scale(1 1) rotate(0) translate(4 472)">
<title>Graphical Class Hierarchy</title>
<polygon fill="white" stroke="none" points="-4,4 -4,-472 642,-472 642,4 -4,4"/>
<!-- Node1 -->
<g id="node1" class="node"><title>Node1</title>
<g id="a_node1"><a xlink:href="classfactory_1_1pipeline__base.html" target="_top" xlink:title="factory::pipeline_base">
<polygon fill="white" stroke="black" points="0,-136.5 0,-155.5 112,-155.5 112,-136.5 0,-136.5"/>
<text text-anchor="middle" x="56" y="-143.5" font-family="Helvetica,sans-Serif" font-size="10.00">factory::pipeline_base</text>
</a>
</g>
</g>
<!-- Node2 -->
<g id="node2" class="node"><title>Node2</title>
<g id="a_node2"><a xlink:href="classfactory_1_1basic__pipeline.html" target="_top" xlink:title="factory::basic_pipeline\&lt; T \&gt;">
<polygon fill="white" stroke="black" points="148,-355.5 148,-374.5 286,-374.5 286,-355.5 148,-355.5"/>
<text text-anchor="middle" x="217" y="-362.5" font-family="Helvetica,sans-Serif" font-size="10.00">factory::basic_pipeline&lt; T &gt;</text>
</a>
</g>
</g>
<!-- Node1&#45;&gt;Node2 -->
<g id="edge1" class="edge"><title>Node1&#45;&gt;Node2</title>
<path fill="none" stroke="midnightblue" d="M68.1037,-164.527C84.584,-191.647 116.924,-243.443 148,-285 167.867,-311.569 193.855,-340.795 207.219,-355.471"/>
<polygon fill="midnightblue" stroke="midnightblue" points="70.9479,-162.466 62.7814,-155.717 64.9563,-166.086 70.9479,-162.466"/>
</g>
<!-- Node5 -->
<g id="node5" class="node"><title>Node5</title>
<g id="a_node5"><a xlink:href="classfactory_1_1basic__pipeline.html" target="_top" xlink:title="factory::basic_pipeline\l\&lt; T, Kernels, Traits,\l Threads, Mutex, Lock,\l Semaphore \&gt;">
<polygon fill="white" stroke="black" points="158,-224 158,-276 276,-276 276,-224 158,-224"/>
<text text-anchor="start" x="166" y="-264" font-family="Helvetica,sans-Serif" font-size="10.00">factory::basic_pipeline</text>
<text text-anchor="start" x="166" y="-253" font-family="Helvetica,sans-Serif" font-size="10.00">&lt; T, Kernels, Traits,</text>
<text text-anchor="start" x="166" y="-242" font-family="Helvetica,sans-Serif" font-size="10.00"> Threads, Mutex, Lock,</text>
<text text-anchor="middle" x="217" y="-231" font-family="Helvetica,sans-Serif" font-size="10.00"> Semaphore &gt;</text>
</a>
</g>
</g>
<!-- Node1&#45;&gt;Node5 -->
<g id="edge4" class="edge"><title>Node1&#45;&gt;Node5</title>
<path fill="none" stroke="midnightblue" d="M76.6655,-162.095C94.6807,-176.495 122.366,-197.774 148,-214 153.305,-217.358 158.954,-220.696 164.642,-223.909"/>
<polygon fill="midnightblue" stroke="midnightblue" points="78.631,-159.184 68.6498,-155.63 74.2367,-164.632 78.631,-159.184"/>
</g>
<!-- Node18 -->
<g id="node18" class="node"><title>Node18</title>
<g id="a_node18"><a xlink:href="classfactory_1_1external__process__handler.html" target="_top" xlink:title="factory::external_process\l_handler\&lt; T, Router \&gt;">
<polygon fill="white" stroke="black" points="153.5,-175 153.5,-205 280.5,-205 280.5,-175 153.5,-175"/>
<text text-anchor="start" x="161.5" y="-193" font-family="Helvetica,sans-Serif" font-size="10.00">factory::external_process</text>
<text text-anchor="middle" x="217" y="-182" font-family="Helvetica,sans-Serif" font-size="10.00">_handler&lt; T, Router &gt;</text>
</a>
</g>
</g>
<!-- Node1&#45;&gt;Node18 -->
<g id="edge17" class="edge"><title>Node1&#45;&gt;Node18</title>
<path fill="none" stroke="midnightblue" d="M101.232,-158.24C119.926,-163.413 141.883,-169.49 161.559,-174.935"/>
<polygon fill="midnightblue" stroke="midnightblue" points="102.072,-154.841 91.5006,-155.547 100.205,-161.588 102.072,-154.841"/>
</g>
<!-- Node19 -->
<g id="node19" class="node"><title>Node19</title>
<g id="a_node19"><a xlink:href="classfactory_1_1Factory.html" target="_top" xlink:title="factory::Factory\&lt; T \&gt;">
<polygon fill="white" stroke="black" points="162,-136.5 162,-155.5 272,-155.5 272,-136.5 162,-136.5"/>
<text text-anchor="middle" x="217" y="-143.5" font-family="Helvetica,sans-Serif" font-size="10.00">factory::Factory&lt; T &gt;</text>
</a>
</g>
</g>
<!-- Node1&#45;&gt;Node19 -->
<g id="edge18" class="edge"><title>Node1&#45;&gt;Node19</title>
<path fill="none" stroke="midnightblue" d="M122.492,-146C135.543,-146 149.115,-146 161.739,-146"/>
<polygon fill="midnightblue" stroke="midnightblue" points="122.164,-142.5 112.164,-146 122.164,-149.5 122.164,-142.5"/>
</g>
<!-- Node20 -->
<g id="node20" class="node"><title>Node20</title>
<g id="a_node20"><a xlink:href="classfactory_1_1Multi__pipeline.html" target="_top" xlink:title="factory::Multi_pipeline\&lt; T \&gt;">
<polygon fill="white" stroke="black" points="149,-98.5 149,-117.5 285,-117.5 285,-98.5 149,-98.5"/>
<text text-anchor="middle" x="217" y="-105.5" font-family="Helvetica,sans-Serif" font-size="10.00">factory::Multi_pipeline&lt; T &gt;</text>
</a>
</g>
</g>
<!-- Node1&#45;&gt;Node20 -->
<g id="edge19" class="edge"><title>Node1&#45;&gt;Node20</title>
<path fill="none" stroke="midnightblue" d="M107.077,-134.032C129.358,-128.707 155.229,-122.524 176.166,-117.52"/>
<polygon fill="midnightblue" stroke="midnightblue" points="106.035,-130.682 97.1224,-136.411 107.662,-137.491 106.035,-130.682"/>
</g>
<!-- Node21 -->
<g id="node21" class="node"><title>Node21</title>
<g id="a_node21"><a xlink:href="classfactory_1_1process__handler.html" target="_top" xlink:title="factory::process_handler\l\&lt; T, Router \&gt;">
<polygon fill="white" stroke="black" points="155,-49 155,-79 279,-79 279,-49 155,-49"/>
<text text-anchor="start" x="163" y="-67" font-family="Helvetica,sans-Serif" font-size="10.00">factory::process_handler</text>
<text text-anchor="middle" x="217" y="-56" font-family="Helvetica,sans-Serif" font-size="10.00">&lt; T, Router &gt;</text>
</a>
</g>
</g>
<!-- Node1&#45;&gt;Node21 -->
<g id="edge20" class="edge"><title>Node1&#45;&gt;Node21</title>
<path fill="none" stroke="midnightblue" d="M78.9446,-130.442C96.9279,-118.144 123.342,-101.093 148,-89 155.228,-85.4555 163.091,-82.1207 170.822,-79.1124"/>
<polygon fill="midnightblue" stroke="midnightblue" points="76.5891,-127.816 70.363,-136.388 80.576,-133.57 76.5891,-127.816"/>
</g>
<!-- Node22 -->
<g id="node22" class="node"><title>Node22</title>
<g id="a_node22"><a xlink:href="classfactory_1_1remote__client.html" target="_top" xlink:title="factory::remote_client\l\&lt; T, Socket, Router \&gt;">
<polygon fill="white" stroke="black" points="160.5,-0 160.5,-30 273.5,-30 273.5,-0 160.5,-0"/>
<text text-anchor="start" x="168.5" y="-18" font-family="Helvetica,sans-Serif" font-size="10.00">factory::remote_client</text>
<text text-anchor="middle" x="217" y="-7" font-family="Helvetica,sans-Serif" font-size="10.00">&lt; T, Socket, Router &gt;</text>
</a>
</g>
</g>
<!-- Node1&#45;&gt;Node22 -->
<g id="edge21" class="edge"><title>Node1&#45;&gt;Node22</title>
<path fill="none" stroke="midnightblue" d="M68.2628,-127.511C83.5583,-103.851 113.039,-63.0551 148,-39 152.951,-35.5937 158.435,-32.6211 164.08,-30.0391"/>
<polygon fill="midnightblue" stroke="midnightblue" points="65.1411,-125.9 62.7712,-136.226 71.0634,-129.632 65.1411,-125.9"/>
</g>
<!-- Node3 -->
<g id="node3" class="node"><title>Node3</title>
<g id="a_node3"><a xlink:href="classfactory_1_1parallel__pipeline.html" target="_top" xlink:title="factory::parallel_pipeline\&lt; T \&gt;">
<polygon fill="white" stroke="black" points="324,-448.5 324,-467.5 470,-467.5 470,-448.5 324,-448.5"/>
<text text-anchor="middle" x="397" y="-455.5" font-family="Helvetica,sans-Serif" font-size="10.00">factory::parallel_pipeline&lt; T &gt;</text>
</a>
</g>
</g>
<!-- Node2&#45;&gt;Node3 -->
<g id="edge2" class="edge"><title>Node2&#45;&gt;Node3</title>
<path fill="none" stroke="midnightblue" d="M236.724,-381.207C256.637,-397.675 289.662,-422.855 322,-438 331.039,-442.233 341.133,-445.703 350.888,-448.492"/>
<polygon fill="midnightblue" stroke="midnightblue" points="238.939,-378.496 229.033,-374.737 234.433,-383.852 238.939,-378.496"/>
</g>
<!-- Node4 -->
<g id="node4" class="node"><title>Node4</title>
<g id="a_node4"><a xlink:href="structfactory_1_1io__pipeline.html" target="_top" xlink:title="factory::io_pipeline\&lt; T \&gt;">
<polygon fill="white" stroke="black" points="512,-448.5 512,-467.5 634,-467.5 634,-448.5 512,-448.5"/>
<text text-anchor="middle" x="573" y="-455.5" font-family="Helvetica,sans-Serif" font-size="10.00">factory::io_pipeline&lt; T &gt;</text>
</a>
</g>
</g>
<!-- Node3&#45;&gt;Node4 -->
<g id="edge3" class="edge"><title>Node3&#45;&gt;Node4</title>
<path fill="none" stroke="midnightblue" d="M480.222,-458C490.906,-458 501.687,-458 511.917,-458"/>
<polygon fill="midnightblue" stroke="midnightblue" points="480.029,-454.5 470.028,-458 480.028,-461.5 480.029,-454.5"/>
</g>
<!-- Node6 -->
<g id="node6" class="node"><title>Node6</title>
<g id="a_node6"><a xlink:href="structfactory_1_1basic__socket__pipeline.html" target="_top" xlink:title="factory::basic_socket\l_pipeline\&lt; K, external\l_process_handler\&lt; K, R \&gt; \&gt;">
<polygon fill="white" stroke="black" points="327,-388.5 327,-429.5 467,-429.5 467,-388.5 327,-388.5"/>
<text text-anchor="start" x="335" y="-417.5" font-family="Helvetica,sans-Serif" font-size="10.00">factory::basic_socket</text>
<text text-anchor="start" x="335" y="-406.5" font-family="Helvetica,sans-Serif" font-size="10.00">_pipeline&lt; K, external</text>
<text text-anchor="middle" x="397" y="-395.5" font-family="Helvetica,sans-Serif" font-size="10.00">_process_handler&lt; K, R &gt; &gt;</text>
</a>
</g>
</g>
<!-- Node5&#45;&gt;Node6 -->
<g id="edge5" class="edge"><title>Node5&#45;&gt;Node6</title>
<path fill="none" stroke="midnightblue" d="M239.047,-284.433C257.828,-312.748 287.621,-352.264 322,-378 327.129,-381.84 332.805,-385.301 338.664,-388.394"/>
<polygon fill="midnightblue" stroke="midnightblue" points="241.968,-282.504 233.579,-276.033 236.101,-286.323 241.968,-282.504"/>
</g>
<!-- Node8 -->
<g id="node8" class="node"><title>Node8</title>
<g id="a_node8"><a xlink:href="structfactory_1_1basic__socket__pipeline.html" target="_top" xlink:title="factory::basic_socket\l_pipeline\&lt; K, process\l_handler\&lt; K, R \&gt; \&gt;">
<polygon fill="white" stroke="black" points="341.5,-328.5 341.5,-369.5 452.5,-369.5 452.5,-328.5 341.5,-328.5"/>
<text text-anchor="start" x="349.5" y="-357.5" font-family="Helvetica,sans-Serif" font-size="10.00">factory::basic_socket</text>
<text text-anchor="start" x="349.5" y="-346.5" font-family="Helvetica,sans-Serif" font-size="10.00">_pipeline&lt; K, process</text>
<text text-anchor="middle" x="397" y="-335.5" font-family="Helvetica,sans-Serif" font-size="10.00">_handler&lt; K, R &gt; &gt;</text>
</a>
</g>
</g>
<!-- Node5&#45;&gt;Node8 -->
<g id="edge7" class="edge"><title>Node5&#45;&gt;Node8</title>
<path fill="none" stroke="midnightblue" d="M263.061,-282.037C280.964,-294.074 302.021,-307.398 322,-318 328.89,-321.656 336.307,-325.197 343.69,-328.496"/>
<polygon fill="midnightblue" stroke="midnightblue" points="264.783,-278.975 254.545,-276.248 260.848,-284.764 264.783,-278.975"/>
</g>
<!-- Node10 -->
<g id="node10" class="node"><title>Node10</title>
<g id="a_node10"><a xlink:href="structfactory_1_1basic__socket__pipeline.html" target="_top" xlink:title="factory::basic_socket\l_pipeline\&lt; T, process\l_handler\&lt; T, basic_router\l\&lt; T \&gt; \&gt; \&gt;">
<polygon fill="white" stroke="black" points="333,-257 333,-309 461,-309 461,-257 333,-257"/>
<text text-anchor="start" x="341" y="-297" font-family="Helvetica,sans-Serif" font-size="10.00">factory::basic_socket</text>
<text text-anchor="start" x="341" y="-286" font-family="Helvetica,sans-Serif" font-size="10.00">_pipeline&lt; T, process</text>
<text text-anchor="start" x="341" y="-275" font-family="Helvetica,sans-Serif" font-size="10.00">_handler&lt; T, basic_router</text>
<text text-anchor="middle" x="397" y="-264" font-family="Helvetica,sans-Serif" font-size="10.00">&lt; T &gt; &gt; &gt;</text>
</a>
</g>
</g>
<!-- Node5&#45;&gt;Node10 -->
<g id="edge9" class="edge"><title>Node5&#45;&gt;Node10</title>
<path fill="none" stroke="midnightblue" d="M286.235,-262.65C301.6,-265.499 317.841,-268.51 332.982,-271.317"/>
<polygon fill="midnightblue" stroke="midnightblue" points="286.754,-259.187 276.284,-260.805 285.478,-266.07 286.754,-259.187"/>
</g>
<!-- Node12 -->
<g id="node12" class="node"><title>Node12</title>
<g id="a_node12"><a xlink:href="structfactory_1_1basic__socket__pipeline.html" target="_top" xlink:title="factory::basic_socket\l_pipeline\&lt; T, process\l_handler\&lt; T, Router \&gt; \&gt;">
<polygon fill="white" stroke="black" points="336,-196.5 336,-237.5 458,-237.5 458,-196.5 336,-196.5"/>
<text text-anchor="start" x="344" y="-225.5" font-family="Helvetica,sans-Serif" font-size="10.00">factory::basic_socket</text>
<text text-anchor="start" x="344" y="-214.5" font-family="Helvetica,sans-Serif" font-size="10.00">_pipeline&lt; T, process</text>
<text text-anchor="middle" x="397" y="-203.5" font-family="Helvetica,sans-Serif" font-size="10.00">_handler&lt; T, Router &gt; &gt;</text>
</a>
</g>
</g>
<!-- Node5&#45;&gt;Node12 -->
<g id="edge11" class="edge"><title>Node5&#45;&gt;Node12</title>
<path fill="none" stroke="midnightblue" d="M286.281,-237.341C302.575,-234.32 319.85,-231.118 335.753,-228.169"/>
<polygon fill="midnightblue" stroke="midnightblue" points="285.478,-233.93 276.284,-239.195 286.754,-240.813 285.478,-233.93"/>
</g>
<!-- Node14 -->
<g id="node14" class="node"><title>Node14</title>
<g id="a_node14"><a xlink:href="structfactory_1_1basic__socket__pipeline.html" target="_top" xlink:title="factory::basic_socket\l_pipeline\&lt; T, remote\l_client\&lt; T, Socket, Router \&gt; \&gt;">
<polygon fill="white" stroke="black" points="322,-136.5 322,-177.5 472,-177.5 472,-136.5 322,-136.5"/>
<text text-anchor="start" x="330" y="-165.5" font-family="Helvetica,sans-Serif" font-size="10.00">factory::basic_socket</text>
<text text-anchor="start" x="330" y="-154.5" font-family="Helvetica,sans-Serif" font-size="10.00">_pipeline&lt; T, remote</text>
<text text-anchor="middle" x="397" y="-143.5" font-family="Helvetica,sans-Serif" font-size="10.00">_client&lt; T, Socket, Router &gt; &gt;</text>
</a>
</g>
</g>
<!-- Node5&#45;&gt;Node14 -->
<g id="edge13" class="edge"><title>Node5&#45;&gt;Node14</title>
<path fill="none" stroke="midnightblue" d="M278.087,-218.859C280.783,-217.252 283.432,-215.629 286,-214 302.89,-203.288 304.588,-196.839 322,-187 327.914,-183.658 334.275,-180.497 340.695,-177.569"/>
<polygon fill="midnightblue" stroke="midnightblue" points="276.259,-215.874 269.364,-223.918 279.771,-221.929 276.259,-215.874"/>
</g>
<!-- Node16 -->
<g id="node16" class="node"><title>Node16</title>
<g id="a_node16"><a xlink:href="structfactory_1_1basic__socket__pipeline.html" target="_top" xlink:title="factory::basic_socket\l_pipeline\&lt; T, Handler \&gt;">
<polygon fill="white" stroke="black" points="337.5,-88 337.5,-118 456.5,-118 456.5,-88 337.5,-88"/>
<text text-anchor="start" x="345.5" y="-106" font-family="Helvetica,sans-Serif" font-size="10.00">factory::basic_socket</text>
<text text-anchor="middle" x="397" y="-95" font-family="Helvetica,sans-Serif" font-size="10.00">_pipeline&lt; T, Handler &gt;</text>
</a>
</g>
</g>
<!-- Node5&#45;&gt;Node16 -->
<g id="edge15" class="edge"><title>Node5&#45;&gt;Node16</title>
<path fill="none" stroke="midnightblue" d="M282.845,-217.251C283.935,-216.195 284.989,-215.112 286,-214 314.158,-183.045 291.269,-155.403 322,-127 326.463,-122.875 331.644,-119.458 337.152,-116.629"/>
<polygon fill="midnightblue" stroke="midnightblue" points="280.495,-214.655 275.175,-223.817 285.047,-219.972 280.495,-214.655"/>
</g>
<!-- Node17 -->
<g id="node17" class="node"><title>Node17</title>
<g id="a_node17"><a xlink:href="structfactory_1_1timer__pipeline.html" target="_top" xlink:title="factory::timer_pipeline\&lt; T \&gt;">
<polygon fill="white" stroke="black" points="328.5,-49.5 328.5,-68.5 465.5,-68.5 465.5,-49.5 328.5,-49.5"/>
<text text-anchor="middle" x="397" y="-56.5" font-family="Helvetica,sans-Serif" font-size="10.00">factory::timer_pipeline&lt; T &gt;</text>
</a>
</g>
</g>
<!-- Node5&#45;&gt;Node17 -->
<g id="edge16" class="edge"><title>Node5&#45;&gt;Node17</title>
<path fill="none" stroke="midnightblue" d="M283.437,-217.011C284.327,-216.033 285.182,-215.03 286,-214 324.893,-165.042 277.623,-122.048 322,-78 325.86,-74.1689 330.381,-71.0777 335.253,-68.5875"/>
<polygon fill="midnightblue" stroke="midnightblue" points="280.89,-214.603 276.032,-224.019 285.701,-219.688 280.89,-214.603"/>
</g>
<!-- Node7 -->
<g id="node7" class="node"><title>Node7</title>
<g id="a_node7"><a xlink:href="classfactory_1_1unix__domain__socket__pipeline.html" target="_top" xlink:title="factory::unix_domain\l_socket_pipeline\&lt; K, R \&gt;">
<polygon fill="white" stroke="black" points="509,-394 509,-424 637,-424 637,-394 509,-394"/>
<text text-anchor="start" x="517" y="-412" font-family="Helvetica,sans-Serif" font-size="10.00">factory::unix_domain</text>
<text text-anchor="middle" x="573" y="-401" font-family="Helvetica,sans-Serif" font-size="10.00">_socket_pipeline&lt; K, R &gt;</text>
</a>
</g>
</g>
<!-- Node6&#45;&gt;Node7 -->
<g id="edge6" class="edge"><title>Node6&#45;&gt;Node7</title>
<path fill="none" stroke="midnightblue" d="M477.175,-409C487.84,-409 498.663,-409 508.997,-409"/>
<polygon fill="midnightblue" stroke="midnightblue" points="477.019,-405.5 467.019,-409 477.019,-412.5 477.019,-405.5"/>
</g>
<!-- Node9 -->
<g id="node9" class="node"><title>Node9</title>
<g id="a_node9"><a xlink:href="classfactory_1_1process__pipeline.html" target="_top" xlink:title="factory::process_pipeline\l\&lt; K, R \&gt;">
<polygon fill="white" stroke="black" points="510.5,-334 510.5,-364 635.5,-364 635.5,-334 510.5,-334"/>
<text text-anchor="start" x="518.5" y="-352" font-family="Helvetica,sans-Serif" font-size="10.00">factory::process_pipeline</text>
<text text-anchor="middle" x="573" y="-341" font-family="Helvetica,sans-Serif" font-size="10.00">&lt; K, R &gt;</text>
</a>
</g>
</g>
<!-- Node8&#45;&gt;Node9 -->
<g id="edge8" class="edge"><title>Node8&#45;&gt;Node9</title>
<path fill="none" stroke="midnightblue" d="M462.657,-349C478.256,-349 494.883,-349 510.34,-349"/>
<polygon fill="midnightblue" stroke="midnightblue" points="462.577,-345.5 452.577,-349 462.577,-352.5 462.577,-345.5"/>
</g>
<!-- Node11 -->
<g id="node11" class="node"><title>Node11</title>
<g id="a_node11"><a xlink:href="classfactory_1_1child__process__pipeline.html" target="_top" xlink:title="factory::child_process\l_pipeline\&lt; T, basic_router\l\&lt; T \&gt; \&gt;">
<polygon fill="white" stroke="black" points="508.5,-262.5 508.5,-303.5 637.5,-303.5 637.5,-262.5 508.5,-262.5"/>
<text text-anchor="start" x="516.5" y="-291.5" font-family="Helvetica,sans-Serif" font-size="10.00">factory::child_process</text>
<text text-anchor="start" x="516.5" y="-280.5" font-family="Helvetica,sans-Serif" font-size="10.00">_pipeline&lt; T, basic_router</text>
<text text-anchor="middle" x="573" y="-269.5" font-family="Helvetica,sans-Serif" font-size="10.00">&lt; T &gt; &gt;</text>
</a>
</g>
</g>
<!-- Node10&#45;&gt;Node11 -->
<g id="edge10" class="edge"><title>Node10&#45;&gt;Node11</title>
<path fill="none" stroke="midnightblue" d="M471.516,-283C483.796,-283 496.442,-283 508.445,-283"/>
<polygon fill="midnightblue" stroke="midnightblue" points="471.31,-279.5 461.31,-283 471.31,-286.5 471.31,-279.5"/>
</g>
<!-- Node13 -->
<g id="node13" class="node"><title>Node13</title>
<g id="a_node13"><a xlink:href="classfactory_1_1child__process__pipeline.html" target="_top" xlink:title="factory::child_process\l_pipeline\&lt; T, Router \&gt;">
<polygon fill="white" stroke="black" points="516,-202 516,-232 630,-232 630,-202 516,-202"/>
<text text-anchor="start" x="524" y="-220" font-family="Helvetica,sans-Serif" font-size="10.00">factory::child_process</text>
<text text-anchor="middle" x="573" y="-209" font-family="Helvetica,sans-Serif" font-size="10.00">_pipeline&lt; T, Router &gt;</text>
</a>
</g>
</g>
<!-- Node12&#45;&gt;Node13 -->
<g id="edge12" class="edge"><title>Node12&#45;&gt;Node13</title>
<path fill="none" stroke="midnightblue" d="M468.574,-217C484.301,-217 500.772,-217 515.828,-217"/>
<polygon fill="midnightblue" stroke="midnightblue" points="468.368,-213.5 458.368,-217 468.368,-220.5 468.368,-213.5"/>
</g>
<!-- Node15 -->
<g id="node15" class="node"><title>Node15</title>
<g id="a_node15"><a xlink:href="classfactory_1_1socket__pipeline.html" target="_top" xlink:title="factory::socket_pipeline\l\&lt; T, Socket, Router \&gt;">
<polygon fill="white" stroke="black" points="513,-142 513,-172 633,-172 633,-142 513,-142"/>
<text text-anchor="start" x="521" y="-160" font-family="Helvetica,sans-Serif" font-size="10.00">factory::socket_pipeline</text>
<text text-anchor="middle" x="573" y="-149" font-family="Helvetica,sans-Serif" font-size="10.00">&lt; T, Socket, Router &gt;</text>
</a>
</g>
</g>
<!-- Node14&#45;&gt;Node15 -->
<g id="edge14" class="edge"><title>Node14&#45;&gt;Node15</title>
<path fill="none" stroke="midnightblue" d="M482.301,-157C492.597,-157 502.943,-157 512.762,-157"/>
<polygon fill="midnightblue" stroke="midnightblue" points="482.044,-153.5 472.044,-157 482.044,-160.5 482.044,-153.5"/>
</g>
</g>
</svg>
