<?xml version="1.0" encoding="UTF-8" standalone="no"?>
<!DOCTYPE svg PUBLIC "-//W3C//DTD SVG 1.1//EN"
 "http://www.w3.org/Graphics/SVG/1.1/DTD/svg11.dtd">
<!-- Generated by graphviz version 2.36.0 (20140111.2315)
 -->
<!-- Title: Graphical Class Hierarchy Pages: 1 -->
<svg width="306pt" height="87pt"
 viewBox="0.00 0.00 306.00 87.00" xmlns="http://www.w3.org/2000/svg" xmlns:xlink="http://www.w3.org/1999/xlink">
<g id="graph0" class="graph" transform="scale(1 1) rotate(0) translate(4 83)">
<title>Graphical Class Hierarchy</title>
<polygon fill="white" stroke="none" points="-4,4 -4,-83 302,-83 302,4 -4,4"/>
<!-- Node1 -->
<g id="node1" class="node"><title>Node1</title>
<polygon fill="white" stroke="#bfbfbf" points="0,-29.5 0,-48.5 142,-48.5 142,-29.5 0,-29.5"/>
<text text-anchor="middle" x="71" y="-36.5" font-family="Helvetica,sans-Serif" font-size="10.00">FACTORY_KERNEL_TYPE</text>
</g>
<!-- Node2 -->
<g id="node2" class="node"><title>Node2</title>
<g id="a_node2"><a xlink:href="classfactory_1_1Application__kernel.html" target="_top" xlink:title="factory::Application\l_kernel">
<polygon fill="white" stroke="black" points="187.5,-49 187.5,-79 288.5,-79 288.5,-49 187.5,-49"/>
<text text-anchor="start" x="195.5" y="-67" font-family="Helvetica,sans-Serif" font-size="10.00">factory::Application</text>
<text text-anchor="middle" x="238" y="-56" font-family="Helvetica,sans-Serif" font-size="10.00">_kernel</text>
</a>
</g>
</g>
<!-- Node1&#45;&gt;Node2 -->
<g id="edge1" class="edge"><title>Node1&#45;&gt;Node2</title>
<path fill="none" stroke="midnightblue" d="M144.743,-50.0217C159.158,-52.2057 173.976,-54.4509 187.403,-56.4853"/>
<polygon fill="midnightblue" stroke="midnightblue" points="145.262,-46.5604 134.85,-48.5227 144.213,-53.4814 145.262,-46.5604"/>
</g>
<!-- Node3 -->
<g id="node3" class="node"><title>Node3</title>
<g id="a_node3"><a xlink:href="classfactory_1_1socket__pipeline__kernel.html" target="_top" xlink:title="factory::socket_pipeline\l_kernel">
<polygon fill="white" stroke="black" points="178,-0 178,-30 298,-30 298,-0 178,-0"/>
<text text-anchor="start" x="186" y="-18" font-family="Helvetica,sans-Serif" font-size="10.00">factory::socket_pipeline</text>
<text text-anchor="middle" x="238" y="-7" font-family="Helvetica,sans-Serif" font-size="10.00">_kernel</text>
</a>
</g>
</g>
<!-- Node1&#45;&gt;Node3 -->
<g id="edge2" class="edge"><title>Node1&#45;&gt;Node3</title>
<path fill="none" stroke="midnightblue" d="M147.753,-27.9813C157.889,-26.5071 168.161,-25.013 177.952,-23.5888"/>
<polygon fill="midnightblue" stroke="midnightblue" points="147.079,-24.5426 137.686,-29.4456 148.086,-31.4697 147.079,-24.5426"/>
</g>
</g>
</svg>
