<?xml version="1.0" encoding="UTF-8" standalone="no"?>
<!DOCTYPE svg PUBLIC "-//W3C//DTD SVG 1.1//EN"
 "http://www.w3.org/Graphics/SVG/1.1/DTD/svg11.dtd">
<!-- Generated by graphviz version 2.36.0 (20140111.2315)
 -->
<!-- Title: Graphical Class Hierarchy Pages: 1 -->
<svg width="358pt" height="71pt"
 viewBox="0.00 0.00 358.00 71.00" xmlns="http://www.w3.org/2000/svg" xmlns:xlink="http://www.w3.org/1999/xlink">
<g id="graph0" class="graph" transform="scale(1 1) rotate(0) translate(4 67)">
<title>Graphical Class Hierarchy</title>
<polygon fill="white" stroke="none" points="-4,4 -4,-67 354,-67 354,4 -4,4"/>
<!-- Node1 -->
<g id="node1" class="node"><title>Node1</title>
<polygon fill="white" stroke="#bfbfbf" points="0,-19.5 0,-38.5 74,-38.5 74,-19.5 0,-19.5"/>
<text text-anchor="middle" x="37" y="-26.5" font-family="Helvetica,sans-Serif" font-size="10.00">runtime_error</text>
</g>
<!-- Node2 -->
<g id="node2" class="node"><title>Node2</title>
<g id="a_node2"><a xlink:href="classfactory_1_1Error.html" target="_top" xlink:title="factory::Error">
<polygon fill="white" stroke="black" points="125,-38.5 125,-57.5 199,-57.5 199,-38.5 125,-38.5"/>
<text text-anchor="middle" x="162" y="-45.5" font-family="Helvetica,sans-Serif" font-size="10.00">factory::Error</text>
</a>
</g>
</g>
<!-- Node1&#45;&gt;Node2 -->
<g id="edge1" class="edge"><title>Node1&#45;&gt;Node2</title>
<path fill="none" stroke="midnightblue" d="M84.2026,-36.137C97.5533,-38.1993 111.931,-40.4202 124.595,-42.3765"/>
<polygon fill="midnightblue" stroke="midnightblue" points="84.6559,-32.6656 74.2388,-34.5979 83.5872,-39.5835 84.6559,-32.6656"/>
</g>
<!-- Node4 -->
<g id="node4" class="node"><title>Node4</title>
<g id="a_node4"><a xlink:href="classfactory_1_1kernel__error.html" target="_top" xlink:title="factory::kernel_error">
<polygon fill="white" stroke="black" points="110,-0.5 110,-19.5 214,-19.5 214,-0.5 110,-0.5"/>
<text text-anchor="middle" x="162" y="-7.5" font-family="Helvetica,sans-Serif" font-size="10.00">factory::kernel_error</text>
</a>
</g>
</g>
<!-- Node1&#45;&gt;Node4 -->
<g id="edge3" class="edge"><title>Node1&#45;&gt;Node4</title>
<path fill="none" stroke="midnightblue" d="M84.2412,-21.8571C92.6439,-20.5591 101.452,-19.1984 109.983,-17.8806"/>
<polygon fill="midnightblue" stroke="midnightblue" points="83.5872,-18.4165 74.2388,-23.4021 84.6559,-25.3344 83.5872,-18.4165"/>
</g>
<!-- Node3 -->
<g id="node3" class="node"><title>Node3</title>
<g id="a_node3"><a xlink:href="classfactory_1_1kenel__type__error.html" target="_top" xlink:title="factory::kenel_type\l_error">
<polygon fill="white" stroke="black" points="250,-33 250,-63 350,-63 350,-33 250,-33"/>
<text text-anchor="start" x="258" y="-51" font-family="Helvetica,sans-Serif" font-size="10.00">factory::kenel_type</text>
<text text-anchor="middle" x="300" y="-40" font-family="Helvetica,sans-Serif" font-size="10.00">_error</text>
</a>
</g>
</g>
<!-- Node2&#45;&gt;Node3 -->
<g id="edge2" class="edge"><title>Node2&#45;&gt;Node3</title>
<path fill="none" stroke="midnightblue" d="M209.291,-48C222.388,-48 236.685,-48 249.938,-48"/>
<polygon fill="midnightblue" stroke="midnightblue" points="209.088,-44.5001 199.088,-48 209.088,-51.5001 209.088,-44.5001"/>
</g>
</g>
</svg>
