<?xml version="1.0" encoding="UTF-8" standalone="no"?>
<!DOCTYPE svg PUBLIC "-//W3C//DTD SVG 1.1//EN"
 "http://www.w3.org/Graphics/SVG/1.1/DTD/svg11.dtd">
<!-- Generated by graphviz version 2.36.0 (20140111.2315)
 -->
<!-- Title: Graphical Class Hierarchy Pages: 1 -->
<svg width="414pt" height="568pt"
 viewBox="0.00 0.00 414.00 568.00" xmlns="http://www.w3.org/2000/svg" xmlns:xlink="http://www.w3.org/1999/xlink">
<g id="graph0" class="graph" transform="scale(1 1) rotate(0) translate(4 564)">
<title>Graphical Class Hierarchy</title>
<polygon fill="white" stroke="none" points="-4,4 -4,-564 410,-564 410,4 -4,4"/>
<!-- Node1 -->
<g id="node1" class="node"><title>Node1</title>
<polygon fill="white" stroke="#bfbfbf" points="0,-250.5 0,-269.5 44,-269.5 44,-250.5 0,-250.5"/>
<text text-anchor="middle" x="22" y="-257.5" font-family="Helvetica,sans-Serif" font-size="10.00">Kernel</text>
</g>
<!-- Node2 -->
<g id="node2" class="node"><title>Node2</title>
<g id="a_node2"><a xlink:href="classautoreg_1_1Autoreg__model.html" target="_top" xlink:title="autoreg::Autoreg_model\&lt; T \&gt;">
<polygon fill="white" stroke="black" points="86,-540.5 86,-559.5 230,-559.5 230,-540.5 86,-540.5"/>
<text text-anchor="middle" x="158" y="-547.5" font-family="Helvetica,sans-Serif" font-size="10.00">autoreg::Autoreg_model&lt; T &gt;</text>
</a>
</g>
</g>
<!-- Node1&#45;&gt;Node2 -->
<g id="edge1" class="edge"><title>Node1&#45;&gt;Node2</title>
<path fill="none" stroke="midnightblue" d="M24.4605,-279.564C29.035,-335.546 44.9219,-494.686 80,-531 83.6352,-534.763 87.8877,-537.828 92.4943,-540.318"/>
<polygon fill="midnightblue" stroke="midnightblue" points="27.9453,-279.232 23.6736,-269.536 20.9668,-279.78 27.9453,-279.232"/>
</g>
<!-- Node3 -->
<g id="node3" class="node"><title>Node3</title>
<g id="a_node3"><a xlink:href="classautoreg_1_1Velocity__potential.html" target="_top" xlink:title="autoreg::Velocity_potential\&lt; T \&gt;">
<polygon fill="white" stroke="black" points="80,-502.5 80,-521.5 236,-521.5 236,-502.5 80,-502.5"/>
<text text-anchor="middle" x="158" y="-509.5" font-family="Helvetica,sans-Serif" font-size="10.00">autoreg::Velocity_potential&lt; T &gt;</text>
</a>
</g>
</g>
<!-- Node1&#45;&gt;Node3 -->
<g id="edge2" class="edge"><title>Node1&#45;&gt;Node3</title>
<path fill="none" stroke="midnightblue" d="M25.2463,-279.668C31.383,-329.992 50.0034,-461.605 80,-492 84.2687,-496.325 89.3447,-499.755 94.8244,-502.468"/>
<polygon fill="midnightblue" stroke="midnightblue" points="28.7205,-279.243 24.0687,-269.724 21.7691,-280.066 28.7205,-279.243"/>
</g>
<!-- Node4 -->
<g id="node4" class="node"><title>Node4</title>
<g id="a_node4"><a xlink:href="structfactory_1_1api_1_1Map.html" target="_top" xlink:title="factory::api::Map\&lt;\l F, G, I \&gt;">
<polygon fill="white" stroke="black" points="110,-453 110,-483 206,-483 206,-453 110,-453"/>
<text text-anchor="start" x="118" y="-471" font-family="Helvetica,sans-Serif" font-size="10.00">factory::api::Map&lt;</text>
<text text-anchor="middle" x="158" y="-460" font-family="Helvetica,sans-Serif" font-size="10.00"> F, G, I &gt;</text>
</a>
</g>
</g>
<!-- Node1&#45;&gt;Node4 -->
<g id="edge3" class="edge"><title>Node1&#45;&gt;Node4</title>
<path fill="none" stroke="midnightblue" d="M23.4825,-280C25.4721,-317.234 35.0649,-397.523 80,-443 88.1005,-451.198 98.9118,-456.709 109.866,-460.414"/>
<polygon fill="midnightblue" stroke="midnightblue" points="26.976,-279.764 23.0785,-269.912 19.9816,-280.045 26.976,-279.764"/>
</g>
<!-- Node5 -->
<g id="node5" class="node"><title>Node5</title>
<g id="a_node5"><a xlink:href="structfactory_1_1api_1_1Map_1_1Worker.html" target="_top" xlink:title="factory::api::Map\&lt;\l F, G, I \&gt;::Worker">
<polygon fill="white" stroke="black" points="110,-404 110,-434 206,-434 206,-404 110,-404"/>
<text text-anchor="start" x="118" y="-422" font-family="Helvetica,sans-Serif" font-size="10.00">factory::api::Map&lt;</text>
<text text-anchor="middle" x="158" y="-411" font-family="Helvetica,sans-Serif" font-size="10.00"> F, G, I &gt;::Worker</text>
</a>
</g>
</g>
<!-- Node1&#45;&gt;Node5 -->
<g id="edge4" class="edge"><title>Node1&#45;&gt;Node5</title>
<path fill="none" stroke="midnightblue" d="M26.1217,-279.82C31.7332,-308.924 46.2522,-363.106 80,-394 88.2937,-401.592 98.9233,-406.881 109.619,-410.564"/>
<polygon fill="midnightblue" stroke="midnightblue" points="29.5154,-278.91 24.3338,-269.669 22.6215,-280.125 29.5154,-278.91"/>
</g>
<!-- Node6 -->
<g id="node6" class="node"><title>Node6</title>
<g id="a_node6"><a xlink:href="classfactory_1_1api_1_1Notification.html" target="_top" xlink:title="factory::api::Notification">
<polygon fill="white" stroke="black" points="97.5,-365.5 97.5,-384.5 218.5,-384.5 218.5,-365.5 97.5,-365.5"/>
<text text-anchor="middle" x="158" y="-372.5" font-family="Helvetica,sans-Serif" font-size="10.00">factory::api::Notification</text>
</a>
</g>
</g>
<!-- Node1&#45;&gt;Node6 -->
<g id="edge5" class="edge"><title>Node1&#45;&gt;Node6</title>
<path fill="none" stroke="midnightblue" d="M29.4655,-279.261C37.746,-300.955 54.1902,-335.693 80,-355 85.8616,-359.385 92.5965,-362.811 99.5919,-365.488"/>
<polygon fill="midnightblue" stroke="midnightblue" points="32.7335,-278.006 26.051,-269.784 26.1479,-280.379 32.7335,-278.006"/>
</g>
<!-- Node7 -->
<g id="node7" class="node"><title>Node7</title>
<g id="a_node7"><a xlink:href="classfactory_1_1discovery__timer.html" target="_top" xlink:title="factory::discovery\l_timer">
<polygon fill="white" stroke="black" points="110.5,-316 110.5,-346 205.5,-346 205.5,-316 110.5,-316"/>
<text text-anchor="start" x="118.5" y="-334" font-family="Helvetica,sans-Serif" font-size="10.00">factory::discovery</text>
<text text-anchor="middle" x="158" y="-323" font-family="Helvetica,sans-Serif" font-size="10.00">_timer</text>
</a>
</g>
</g>
<!-- Node1&#45;&gt;Node7 -->
<g id="edge6" class="edge"><title>Node1&#45;&gt;Node7</title>
<path fill="none" stroke="midnightblue" d="M40.0987,-276.585C50.8398,-286.262 65.3877,-298.084 80,-306 89.3922,-311.088 99.9941,-315.358 110.26,-318.848"/>
<polygon fill="midnightblue" stroke="midnightblue" points="42.3981,-273.944 32.6889,-269.704 37.6346,-279.074 42.3981,-273.944"/>
</g>
<!-- Node8 -->
<g id="node8" class="node"><title>Node8</title>
<g id="a_node8"><a xlink:href="classfactory_1_1hierarchy__kernel.html" target="_top" xlink:title="factory::hierarchy\l_kernel">
<polygon fill="white" stroke="black" points="112,-267 112,-297 204,-297 204,-267 112,-267"/>
<text text-anchor="start" x="120" y="-285" font-family="Helvetica,sans-Serif" font-size="10.00">factory::hierarchy</text>
<text text-anchor="middle" x="158" y="-274" font-family="Helvetica,sans-Serif" font-size="10.00">_kernel</text>
</a>
</g>
</g>
<!-- Node1&#45;&gt;Node8 -->
<g id="edge7" class="edge"><title>Node1&#45;&gt;Node8</title>
<path fill="none" stroke="midnightblue" d="M54.2479,-265.13C71.3447,-267.937 92.834,-271.465 111.735,-274.568"/>
<polygon fill="midnightblue" stroke="midnightblue" points="54.6677,-261.652 44.2327,-263.486 53.5335,-268.56 54.6677,-261.652"/>
</g>
<!-- Node9 -->
<g id="node9" class="node"><title>Node9</title>
<g id="a_node9"><a xlink:href="classfactory_1_1network__master.html" target="_top" xlink:title="factory::network_master">
<polygon fill="white" stroke="black" points="97,-228.5 97,-247.5 219,-247.5 219,-228.5 97,-228.5"/>
<text text-anchor="middle" x="158" y="-235.5" font-family="Helvetica,sans-Serif" font-size="10.00">factory::network_master</text>
</a>
</g>
</g>
<!-- Node1&#45;&gt;Node9 -->
<g id="edge8" class="edge"><title>Node1&#45;&gt;Node9</title>
<path fill="none" stroke="midnightblue" d="M54.2676,-254.867C67.5685,-252.683 83.5253,-250.063 98.8529,-247.547"/>
<polygon fill="midnightblue" stroke="midnightblue" points="53.5335,-251.44 44.2327,-256.514 54.6677,-258.348 53.5335,-251.44"/>
</g>
<!-- Node10 -->
<g id="node10" class="node"><title>Node10</title>
<g id="a_node10"><a xlink:href="classfactory_1_1network__timer.html" target="_top" xlink:title="factory::network_timer">
<polygon fill="white" stroke="black" points="101,-190.5 101,-209.5 215,-209.5 215,-190.5 101,-190.5"/>
<text text-anchor="middle" x="158" y="-197.5" font-family="Helvetica,sans-Serif" font-size="10.00">factory::network_timer</text>
</a>
</g>
</g>
<!-- Node1&#45;&gt;Node10 -->
<g id="edge9" class="edge"><title>Node1&#45;&gt;Node10</title>
<path fill="none" stroke="midnightblue" d="M41.3176,-244.053C51.9748,-235.514 66.0289,-225.454 80,-219 88.2499,-215.189 97.3639,-212.08 106.348,-209.565"/>
<polygon fill="midnightblue" stroke="midnightblue" points="39.0316,-241.402 33.5654,-250.478 43.4983,-246.792 39.0316,-241.402"/>
</g>
<!-- Node11 -->
<g id="node11" class="node"><title>Node11</title>
<g id="a_node11"><a xlink:href="classfactory_1_1probe.html" target="_top" xlink:title="factory::probe">
<polygon fill="white" stroke="black" points="119.5,-152.5 119.5,-171.5 196.5,-171.5 196.5,-152.5 119.5,-152.5"/>
<text text-anchor="middle" x="158" y="-159.5" font-family="Helvetica,sans-Serif" font-size="10.00">factory::probe</text>
</a>
</g>
</g>
<!-- Node1&#45;&gt;Node11 -->
<g id="edge10" class="edge"><title>Node1&#45;&gt;Node11</title>
<path fill="none" stroke="midnightblue" d="M31.6669,-241.21C41.0246,-223.036 57.6472,-196.091 80,-181 91.5258,-173.218 105.942,-168.62 119.175,-165.903"/>
<polygon fill="midnightblue" stroke="midnightblue" points="28.4829,-239.754 27.2254,-250.274 34.7688,-242.835 28.4829,-239.754"/>
</g>
<!-- Node12 -->
<g id="node12" class="node"><title>Node12</title>
<g id="a_node12"><a xlink:href="classfactory_1_1prober.html" target="_top" xlink:title="factory::prober">
<polygon fill="white" stroke="black" points="118,-114.5 118,-133.5 198,-133.5 198,-114.5 118,-114.5"/>
<text text-anchor="middle" x="158" y="-121.5" font-family="Helvetica,sans-Serif" font-size="10.00">factory::prober</text>
</a>
</g>
</g>
<!-- Node1&#45;&gt;Node12 -->
<g id="edge11" class="edge"><title>Node1&#45;&gt;Node12</title>
<path fill="none" stroke="midnightblue" d="M27.0754,-240.521C33.5972,-214.315 48.9388,-168.102 80,-143 90.7091,-134.345 104.801,-129.553 117.999,-126.926"/>
<polygon fill="midnightblue" stroke="midnightblue" points="23.6321,-239.878 24.8001,-250.408 30.4538,-241.448 23.6321,-239.878"/>
</g>
<!-- Node13 -->
<g id="node13" class="node"><title>Node13</title>
<g id="a_node13"><a xlink:href="classfactory_1_1resident__kernel.html" target="_top" xlink:title="factory::resident_kernel">
<polygon fill="white" stroke="black" points="98.5,-76.5 98.5,-95.5 217.5,-95.5 217.5,-76.5 98.5,-76.5"/>
<text text-anchor="middle" x="158" y="-83.5" font-family="Helvetica,sans-Serif" font-size="10.00">factory::resident_kernel</text>
</a>
</g>
</g>
<!-- Node1&#45;&gt;Node13 -->
<g id="edge12" class="edge"><title>Node1&#45;&gt;Node13</title>
<path fill="none" stroke="midnightblue" d="M24.4867,-240.06C28.0571,-206.953 40.0618,-140.753 80,-105 85.3346,-100.224 91.679,-96.605 98.4029,-93.8691"/>
<polygon fill="midnightblue" stroke="midnightblue" points="20.9768,-240.007 23.5437,-250.286 27.9473,-240.65 20.9768,-240.007"/>
</g>
<!-- Node15 -->
<g id="node15" class="node"><title>Node15</title>
<g id="a_node15"><a xlink:href="structSpectrum__kernel.html" target="_top" xlink:title="Spectrum_kernel">
<polygon fill="white" stroke="black" points="113,-38.5 113,-57.5 203,-57.5 203,-38.5 113,-38.5"/>
<text text-anchor="middle" x="158" y="-45.5" font-family="Helvetica,sans-Serif" font-size="10.00">Spectrum_kernel</text>
</a>
</g>
</g>
<!-- Node1&#45;&gt;Node15 -->
<g id="edge14" class="edge"><title>Node1&#45;&gt;Node15</title>
<path fill="none" stroke="midnightblue" d="M22.7799,-240.23C23.4732,-201.211 30.8055,-114.017 80,-67 88.859,-58.5331 100.865,-53.6569 112.759,-50.8981"/>
<polygon fill="midnightblue" stroke="midnightblue" points="19.2797,-240.276 22.7347,-250.291 26.2797,-240.307 19.2797,-240.276"/>
</g>
<!-- Node16 -->
<g id="node16" class="node"><title>Node16</title>
<g id="a_node16"><a xlink:href="structYear__kernel.html" target="_top" xlink:title="Year_kernel">
<polygon fill="white" stroke="black" points="124,-0.5 124,-19.5 192,-19.5 192,-0.5 124,-0.5"/>
<text text-anchor="middle" x="158" y="-7.5" font-family="Helvetica,sans-Serif" font-size="10.00">Year_kernel</text>
</a>
</g>
</g>
<!-- Node1&#45;&gt;Node16 -->
<g id="edge15" class="edge"><title>Node1&#45;&gt;Node16</title>
<path fill="none" stroke="midnightblue" d="M25.2762,-240.078C31.4309,-189.684 49.9893,-59.0107 80,-29 91.3913,-17.6087 108.454,-12.6611 123.624,-10.6466"/>
<polygon fill="midnightblue" stroke="midnightblue" points="21.7651,-239.965 24.0641,-250.307 28.7165,-240.788 21.7651,-239.965"/>
</g>
<!-- Node14 -->
<g id="node14" class="node"><title>Node14</title>
<g id="a_node14"><a xlink:href="classfactory_1_1master__discoverer.html" target="_top" xlink:title="factory::master_discoverer">
<polygon fill="white" stroke="black" points="272.5,-76.5 272.5,-95.5 405.5,-95.5 405.5,-76.5 272.5,-76.5"/>
<text text-anchor="middle" x="339" y="-83.5" font-family="Helvetica,sans-Serif" font-size="10.00">factory::master_discoverer</text>
</a>
</g>
</g>
<!-- Node13&#45;&gt;Node14 -->
<g id="edge13" class="edge"><title>Node13&#45;&gt;Node14</title>
<path fill="none" stroke="midnightblue" d="M227.645,-86C242.353,-86 257.856,-86 272.443,-86"/>
<polygon fill="midnightblue" stroke="midnightblue" points="227.611,-82.5001 217.611,-86 227.611,-89.5001 227.611,-82.5001"/>
</g>
</g>
</svg>
