<?xml version="1.0" encoding="UTF-8" standalone="no"?>
<!DOCTYPE svg PUBLIC "-//W3C//DTD SVG 1.1//EN"
 "http://www.w3.org/Graphics/SVG/1.1/DTD/svg11.dtd">
<!-- Generated by graphviz version 2.36.0 (20140111.2315)
 -->
<!-- Title: Graphical Class Hierarchy Pages: 1 -->
<svg width="402pt" height="492pt"
 viewBox="0.00 0.00 402.00 492.00" xmlns="http://www.w3.org/2000/svg" xmlns:xlink="http://www.w3.org/1999/xlink">
<g id="graph0" class="graph" transform="scale(1 1) rotate(0) translate(4 488)">
<title>Graphical Class Hierarchy</title>
<polygon fill="white" stroke="none" points="-4,4 -4,-488 398,-488 398,4 -4,4"/>
<!-- Node1 -->
<g id="node1" class="node"><title>Node1</title>
<polygon fill="white" stroke="#bfbfbf" points="0,-212.5 0,-231.5 44,-231.5 44,-212.5 0,-212.5"/>
<text text-anchor="middle" x="22" y="-219.5" font-family="Helvetica,sans-Serif" font-size="10.00">Kernel</text>
</g>
<!-- Node2 -->
<g id="node2" class="node"><title>Node2</title>
<g id="a_node2"><a xlink:href="classautoreg_1_1Autoreg__model.html" target="_top" xlink:title="autoreg::Autoreg_model\&lt; T \&gt;">
<polygon fill="white" stroke="black" points="80,-464.5 80,-483.5 224,-483.5 224,-464.5 80,-464.5"/>
<text text-anchor="middle" x="152" y="-471.5" font-family="Helvetica,sans-Serif" font-size="10.00">autoreg::Autoreg_model&lt; T &gt;</text>
</a>
</g>
</g>
<!-- Node1&#45;&gt;Node2 -->
<g id="edge1" class="edge"><title>Node1&#45;&gt;Node2</title>
<path fill="none" stroke="midnightblue" d="M25.3216,-241.951C31.5843,-292.425 50.3781,-423.364 80,-454 84.1838,-458.327 89.2245,-461.739 94.6664,-464.427"/>
<polygon fill="midnightblue" stroke="midnightblue" points="28.7583,-241.215 24.087,-231.706 21.8086,-242.053 28.7583,-241.215"/>
</g>
<!-- Node3 -->
<g id="node3" class="node"><title>Node3</title>
<g id="a_node3"><a xlink:href="structfactory_1_1api_1_1Map.html" target="_top" xlink:title="factory::api::Map\&lt;\l F, G, I \&gt;">
<polygon fill="white" stroke="black" points="104,-415 104,-445 200,-445 200,-415 104,-415"/>
<text text-anchor="start" x="112" y="-433" font-family="Helvetica,sans-Serif" font-size="10.00">factory::api::Map&lt;</text>
<text text-anchor="middle" x="152" y="-422" font-family="Helvetica,sans-Serif" font-size="10.00"> F, G, I &gt;</text>
</a>
</g>
</g>
<!-- Node1&#45;&gt;Node3 -->
<g id="edge2" class="edge"><title>Node1&#45;&gt;Node3</title>
<path fill="none" stroke="midnightblue" d="M23.5877,-241.897C25.7531,-278.96 35.6281,-358.973 80,-405 86.5304,-411.774 95.0036,-416.715 103.81,-420.318"/>
<polygon fill="midnightblue" stroke="midnightblue" points="27.082,-241.69 23.1335,-231.859 20.0892,-242.007 27.082,-241.69"/>
</g>
<!-- Node4 -->
<g id="node4" class="node"><title>Node4</title>
<g id="a_node4"><a xlink:href="structfactory_1_1api_1_1Map_1_1Worker.html" target="_top" xlink:title="factory::api::Map\&lt;\l F, G, I \&gt;::Worker">
<polygon fill="white" stroke="black" points="104,-366 104,-396 200,-396 200,-366 104,-366"/>
<text text-anchor="start" x="112" y="-384" font-family="Helvetica,sans-Serif" font-size="10.00">factory::api::Map&lt;</text>
<text text-anchor="middle" x="152" y="-373" font-family="Helvetica,sans-Serif" font-size="10.00"> F, G, I &gt;::Worker</text>
</a>
</g>
</g>
<!-- Node1&#45;&gt;Node4 -->
<g id="edge3" class="edge"><title>Node1&#45;&gt;Node4</title>
<path fill="none" stroke="midnightblue" d="M26.2203,-241.714C31.9576,-270.682 46.635,-324.693 80,-356 86.7662,-362.349 95.2406,-367.099 103.955,-370.649"/>
<polygon fill="midnightblue" stroke="midnightblue" points="29.6165,-240.827 24.3854,-231.613 22.7293,-242.078 29.6165,-240.827"/>
</g>
<!-- Node5 -->
<g id="node5" class="node"><title>Node5</title>
<g id="a_node5"><a xlink:href="classfactory_1_1api_1_1Notification.html" target="_top" xlink:title="factory::api::Notification">
<polygon fill="white" stroke="black" points="91.5,-327.5 91.5,-346.5 212.5,-346.5 212.5,-327.5 91.5,-327.5"/>
<text text-anchor="middle" x="152" y="-334.5" font-family="Helvetica,sans-Serif" font-size="10.00">factory::api::Notification</text>
</a>
</g>
</g>
<!-- Node1&#45;&gt;Node5 -->
<g id="edge4" class="edge"><title>Node1&#45;&gt;Node5</title>
<path fill="none" stroke="midnightblue" d="M29.5366,-241.167C37.8833,-262.773 54.389,-297.43 80,-317 85.6983,-321.354 92.301,-324.76 99.1399,-327.425"/>
<polygon fill="midnightblue" stroke="midnightblue" points="32.8089,-239.925 26.0904,-231.732 26.2338,-242.326 32.8089,-239.925"/>
</g>
<!-- Node6 -->
<g id="node6" class="node"><title>Node6</title>
<g id="a_node6"><a xlink:href="classfactory_1_1discovery__timer.html" target="_top" xlink:title="factory::discovery\l_timer">
<polygon fill="white" stroke="black" points="104.5,-278 104.5,-308 199.5,-308 199.5,-278 104.5,-278"/>
<text text-anchor="start" x="112.5" y="-296" font-family="Helvetica,sans-Serif" font-size="10.00">factory::discovery</text>
<text text-anchor="middle" x="152" y="-285" font-family="Helvetica,sans-Serif" font-size="10.00">_timer</text>
</a>
</g>
</g>
<!-- Node1&#45;&gt;Node6 -->
<g id="edge5" class="edge"><title>Node1&#45;&gt;Node6</title>
<path fill="none" stroke="midnightblue" d="M40.1695,-238.457C50.9363,-248.087 65.4863,-259.905 80,-268 87.5326,-272.201 95.9003,-275.898 104.172,-279.071"/>
<polygon fill="midnightblue" stroke="midnightblue" points="42.4653,-235.813 32.7368,-231.617 37.7252,-240.964 42.4653,-235.813"/>
</g>
<!-- Node7 -->
<g id="node7" class="node"><title>Node7</title>
<g id="a_node7"><a xlink:href="classfactory_1_1hierarchy__kernel.html" target="_top" xlink:title="factory::hierarchy\l_kernel">
<polygon fill="white" stroke="black" points="106,-229 106,-259 198,-259 198,-229 106,-229"/>
<text text-anchor="start" x="114" y="-247" font-family="Helvetica,sans-Serif" font-size="10.00">factory::hierarchy</text>
<text text-anchor="middle" x="152" y="-236" font-family="Helvetica,sans-Serif" font-size="10.00">_kernel</text>
</a>
</g>
</g>
<!-- Node1&#45;&gt;Node7 -->
<g id="edge6" class="edge"><title>Node1&#45;&gt;Node7</title>
<path fill="none" stroke="midnightblue" d="M54.2605,-227.373C69.7942,-230.043 88.8493,-233.318 105.928,-236.253"/>
<polygon fill="midnightblue" stroke="midnightblue" points="54.585,-223.877 44.1366,-225.633 53.3992,-230.776 54.585,-223.877"/>
</g>
<!-- Node8 -->
<g id="node8" class="node"><title>Node8</title>
<g id="a_node8"><a xlink:href="classfactory_1_1network__master.html" target="_top" xlink:title="factory::network_master">
<polygon fill="white" stroke="black" points="91,-190.5 91,-209.5 213,-209.5 213,-190.5 91,-190.5"/>
<text text-anchor="middle" x="152" y="-197.5" font-family="Helvetica,sans-Serif" font-size="10.00">factory::network_master</text>
</a>
</g>
</g>
<!-- Node1&#45;&gt;Node8 -->
<g id="edge7" class="edge"><title>Node1&#45;&gt;Node8</title>
<path fill="none" stroke="midnightblue" d="M54.0329,-216.666C66.5363,-214.517 81.3488,-211.971 95.5844,-209.525"/>
<polygon fill="midnightblue" stroke="midnightblue" points="53.3992,-213.224 44.1366,-218.367 54.585,-220.123 53.3992,-213.224"/>
</g>
<!-- Node9 -->
<g id="node9" class="node"><title>Node9</title>
<g id="a_node9"><a xlink:href="classfactory_1_1network__timer.html" target="_top" xlink:title="factory::network_timer">
<polygon fill="white" stroke="black" points="95,-152.5 95,-171.5 209,-171.5 209,-152.5 95,-152.5"/>
<text text-anchor="middle" x="152" y="-159.5" font-family="Helvetica,sans-Serif" font-size="10.00">factory::network_timer</text>
</a>
</g>
</g>
<!-- Node1&#45;&gt;Node9 -->
<g id="edge8" class="edge"><title>Node1&#45;&gt;Node9</title>
<path fill="none" stroke="midnightblue" d="M41.7686,-205.839C52.3908,-197.401 66.2665,-187.508 80,-181 87.9564,-177.23 96.7817,-174.112 105.43,-171.568"/>
<polygon fill="midnightblue" stroke="midnightblue" points="39.5241,-203.153 34.0121,-212.201 43.9635,-208.565 39.5241,-203.153"/>
</g>
<!-- Node10 -->
<g id="node10" class="node"><title>Node10</title>
<g id="a_node10"><a xlink:href="classfactory_1_1probe.html" target="_top" xlink:title="factory::probe">
<polygon fill="white" stroke="black" points="113.5,-114.5 113.5,-133.5 190.5,-133.5 190.5,-114.5 113.5,-114.5"/>
<text text-anchor="middle" x="152" y="-121.5" font-family="Helvetica,sans-Serif" font-size="10.00">factory::probe</text>
</a>
</g>
</g>
<!-- Node1&#45;&gt;Node10 -->
<g id="edge9" class="edge"><title>Node1&#45;&gt;Node10</title>
<path fill="none" stroke="midnightblue" d="M31.7303,-203.303C41.1367,-185.2 57.7958,-158.309 80,-143 89.7698,-136.264 101.811,-131.915 113.185,-129.107"/>
<polygon fill="midnightblue" stroke="midnightblue" points="28.563,-201.813 27.2616,-212.327 34.8359,-204.919 28.563,-201.813"/>
</g>
<!-- Node11 -->
<g id="node11" class="node"><title>Node11</title>
<g id="a_node11"><a xlink:href="classfactory_1_1prober.html" target="_top" xlink:title="factory::prober">
<polygon fill="white" stroke="black" points="112,-76.5 112,-95.5 192,-95.5 192,-76.5 112,-76.5"/>
<text text-anchor="middle" x="152" y="-83.5" font-family="Helvetica,sans-Serif" font-size="10.00">factory::prober</text>
</a>
</g>
</g>
<!-- Node1&#45;&gt;Node11 -->
<g id="edge10" class="edge"><title>Node1&#45;&gt;Node11</title>
<path fill="none" stroke="midnightblue" d="M27.1464,-202.608C33.7501,-176.502 49.1858,-130.405 80,-105 88.9594,-97.6135 100.521,-93.0775 111.702,-90.2989"/>
<polygon fill="midnightblue" stroke="midnightblue" points="23.7131,-201.919 24.8378,-212.454 30.5283,-203.517 23.7131,-201.919"/>
</g>
<!-- Node12 -->
<g id="node12" class="node"><title>Node12</title>
<g id="a_node12"><a xlink:href="classfactory_1_1resident__kernel.html" target="_top" xlink:title="factory::resident_kernel">
<polygon fill="white" stroke="black" points="92.5,-38.5 92.5,-57.5 211.5,-57.5 211.5,-38.5 92.5,-38.5"/>
<text text-anchor="middle" x="152" y="-45.5" font-family="Helvetica,sans-Serif" font-size="10.00">factory::resident_kernel</text>
</a>
</g>
</g>
<!-- Node1&#45;&gt;Node12 -->
<g id="edge11" class="edge"><title>Node1&#45;&gt;Node12</title>
<path fill="none" stroke="midnightblue" d="M24.5634,-202.145C28.2467,-169.162 40.4133,-103.142 80,-67 84.2406,-63.1285 89.1841,-60.0309 94.4525,-57.5549"/>
<polygon fill="midnightblue" stroke="midnightblue" points="21.0574,-202.041 23.5834,-212.33 28.0252,-202.712 21.0574,-202.041"/>
</g>
<!-- Node14 -->
<g id="node14" class="node"><title>Node14</title>
<g id="a_node14"><a xlink:href="structYear__kernel.html" target="_top" xlink:title="Year_kernel">
<polygon fill="white" stroke="black" points="118,-0.5 118,-19.5 186,-19.5 186,-0.5 118,-0.5"/>
<text text-anchor="middle" x="152" y="-7.5" font-family="Helvetica,sans-Serif" font-size="10.00">Year_kernel</text>
</a>
</g>
</g>
<!-- Node1&#45;&gt;Node14 -->
<g id="edge13" class="edge"><title>Node1&#45;&gt;Node14</title>
<path fill="none" stroke="midnightblue" d="M22.8592,-202.312C23.6943,-163.44 31.2676,-76.496 80,-29 90.0517,-19.2033 104.574,-14.3176 117.869,-11.9314"/>
<polygon fill="midnightblue" stroke="midnightblue" points="19.3592,-202.305 22.7757,-212.334 26.359,-202.363 19.3592,-202.305"/>
</g>
<!-- Node13 -->
<g id="node13" class="node"><title>Node13</title>
<g id="a_node13"><a xlink:href="classfactory_1_1master__discoverer.html" target="_top" xlink:title="factory::master_discoverer">
<polygon fill="white" stroke="black" points="260.5,-38.5 260.5,-57.5 393.5,-57.5 393.5,-38.5 260.5,-38.5"/>
<text text-anchor="middle" x="327" y="-45.5" font-family="Helvetica,sans-Serif" font-size="10.00">factory::master_discoverer</text>
</a>
</g>
</g>
<!-- Node12&#45;&gt;Node13 -->
<g id="edge12" class="edge"><title>Node12&#45;&gt;Node13</title>
<path fill="none" stroke="midnightblue" d="M221.656,-48C234.404,-48 247.693,-48 260.349,-48"/>
<polygon fill="midnightblue" stroke="midnightblue" points="221.57,-44.5001 211.57,-48 221.57,-51.5001 221.57,-44.5001"/>
</g>
</g>
</svg>
