<?xml version="1.0" encoding="UTF-8" standalone="no"?>
<!DOCTYPE svg PUBLIC "-//W3C//DTD SVG 1.1//EN"
 "http://www.w3.org/Graphics/SVG/1.1/DTD/svg11.dtd">
<!-- Generated by graphviz version 2.36.0 (20140111.2315)
 -->
<!-- Title: Graphical Class Hierarchy Pages: 1 -->
<svg width="244pt" height="48pt"
 viewBox="0.00 0.00 244.00 48.00" xmlns="http://www.w3.org/2000/svg" xmlns:xlink="http://www.w3.org/1999/xlink">
<g id="graph0" class="graph" transform="scale(1 1) rotate(0) translate(4 44)">
<title>Graphical Class Hierarchy</title>
<polygon fill="white" stroke="none" points="-4,4 -4,-44 240,-44 240,4 -4,4"/>
<!-- Node1 -->
<g id="node1" class="node"><title>Node1</title>
<g id="a_node1"><a xlink:href="structsys_1_1bits_1_1byte__swap__chooser.html" target="_top" xlink:title="sys::bits::byte_swap\l_chooser\&lt; uint128_t,\l true \&gt;">
<polygon fill="white" stroke="black" points="0,0.5 0,-40.5 108,-40.5 108,0.5 0,0.5"/>
<text text-anchor="start" x="8" y="-28.5" font-family="Helvetica,sans-Serif" font-size="10.00">sys::bits::byte_swap</text>
<text text-anchor="start" x="8" y="-17.5" font-family="Helvetica,sans-Serif" font-size="10.00">_chooser&lt; uint128_t,</text>
<text text-anchor="middle" x="54" y="-6.5" font-family="Helvetica,sans-Serif" font-size="10.00"> true &gt;</text>
</a>
</g>
</g>
<!-- Node2 -->
<g id="node2" class="node"><title>Node2</title>
<g id="a_node2"><a xlink:href="structsys_1_1bits_1_1Integral_3_0116_01_4.html" target="_top" xlink:title="sys::bits::Integral\l\&lt; 16 \&gt;">
<polygon fill="white" stroke="black" points="144,-5 144,-35 236,-35 236,-5 144,-5"/>
<text text-anchor="start" x="152" y="-23" font-family="Helvetica,sans-Serif" font-size="10.00">sys::bits::Integral</text>
<text text-anchor="middle" x="190" y="-12" font-family="Helvetica,sans-Serif" font-size="10.00">&lt; 16 &gt;</text>
</a>
</g>
</g>
<!-- Node1&#45;&gt;Node2 -->
<g id="edge1" class="edge"><title>Node1&#45;&gt;Node2</title>
<path fill="none" stroke="midnightblue" d="M118.581,-20C127.031,-20 135.554,-20 143.61,-20"/>
<polygon fill="midnightblue" stroke="midnightblue" points="118.345,-16.5001 108.345,-20 118.345,-23.5001 118.345,-16.5001"/>
</g>
</g>
</svg>
