<?xml version="1.0" encoding="UTF-8" standalone="no"?>
<!DOCTYPE svg PUBLIC "-//W3C//DTD SVG 1.1//EN"
 "http://www.w3.org/Graphics/SVG/1.1/DTD/svg11.dtd">
<!-- Generated by graphviz version 2.36.0 (20140111.2315)
 -->
<!-- Title: Graphical Class Hierarchy Pages: 1 -->
<svg width="626pt" height="601pt"
 viewBox="0.00 0.00 626.00 601.00" xmlns="http://www.w3.org/2000/svg" xmlns:xlink="http://www.w3.org/1999/xlink">
<g id="graph0" class="graph" transform="scale(1 1) rotate(0) translate(4 597)">
<title>Graphical Class Hierarchy</title>
<polygon fill="white" stroke="none" points="-4,4 -4,-597 622,-597 622,4 -4,4"/>
<!-- Node1 -->
<g id="node1" class="node"><title>Node1</title>
<g id="a_node1"><a xlink:href="classbsc_1_1pipeline__base.html" target="_top" xlink:title="bsc::pipeline_base">
<polygon fill="white" stroke="black" points="0,-112.5 0,-131.5 98,-131.5 98,-112.5 0,-112.5"/>
<text text-anchor="middle" x="49" y="-119.5" font-family="Helvetica,sans-Serif" font-size="10.00">bsc::pipeline_base</text>
</a>
</g>
</g>
<!-- Node2 -->
<g id="node2" class="node"><title>Node2</title>
<g id="a_node2"><a xlink:href="classbsc_1_1basic__pipeline.html" target="_top" xlink:title="bsc::basic_pipeline\&lt; T \&gt;">
<polygon fill="white" stroke="black" points="134,-472.5 134,-491.5 258,-491.5 258,-472.5 134,-472.5"/>
<text text-anchor="middle" x="196" y="-479.5" font-family="Helvetica,sans-Serif" font-size="10.00">bsc::basic_pipeline&lt; T &gt;</text>
</a>
</g>
</g>
<!-- Node1&#45;&gt;Node2 -->
<g id="edge1" class="edge"><title>Node1&#45;&gt;Node2</title>
<path fill="none" stroke="midnightblue" d="M55.818,-141.394C68.4028,-182.645 99.7922,-281.87 134,-362 151.985,-404.128 178.187,-452.089 189.482,-472.257"/>
<polygon fill="midnightblue" stroke="midnightblue" points="59.1545,-140.335 52.9061,-131.779 52.455,-142.364 59.1545,-140.335"/>
</g>
<!-- Node5 -->
<g id="node5" class="node"><title>Node5</title>
<g id="a_node5"><a xlink:href="classbsc_1_1basic__handler.html" target="_top" xlink:title="bsc::basic_handler">
<polygon fill="white" stroke="black" points="147,-333.5 147,-352.5 245,-352.5 245,-333.5 147,-333.5"/>
<text text-anchor="middle" x="196" y="-340.5" font-family="Helvetica,sans-Serif" font-size="10.00">bsc::basic_handler</text>
</a>
</g>
</g>
<!-- Node1&#45;&gt;Node5 -->
<g id="edge4" class="edge"><title>Node1&#45;&gt;Node5</title>
<path fill="none" stroke="midnightblue" d="M61.963,-140.233C91.3599,-185.038 166.361,-299.35 188.657,-333.332"/>
<polygon fill="midnightblue" stroke="midnightblue" points="64.8297,-138.222 56.4176,-131.781 58.977,-142.062 64.8297,-138.222"/>
</g>
<!-- Node14 -->
<g id="node14" class="node"><title>Node14</title>
<g id="a_node14"><a xlink:href="classbsc_1_1basic__pipeline.html" target="_top" xlink:title="bsc::basic_pipeline\l\&lt; T, Kernels, Traits,\l Threads, Mutex, Lock,\l Semaphore \&gt;">
<polygon fill="white" stroke="black" points="137,-126 137,-178 255,-178 255,-126 137,-126"/>
<text text-anchor="start" x="145" y="-166" font-family="Helvetica,sans-Serif" font-size="10.00">bsc::basic_pipeline</text>
<text text-anchor="start" x="145" y="-155" font-family="Helvetica,sans-Serif" font-size="10.00">&lt; T, Kernels, Traits,</text>
<text text-anchor="start" x="145" y="-144" font-family="Helvetica,sans-Serif" font-size="10.00"> Threads, Mutex, Lock,</text>
<text text-anchor="middle" x="196" y="-133" font-family="Helvetica,sans-Serif" font-size="10.00"> Semaphore &gt;</text>
</a>
</g>
</g>
<!-- Node1&#45;&gt;Node14 -->
<g id="edge13" class="edge"><title>Node1&#45;&gt;Node14</title>
<path fill="none" stroke="midnightblue" d="M106.185,-133.624C116.271,-135.711 126.802,-137.89 136.94,-139.988"/>
<polygon fill="midnightblue" stroke="midnightblue" points="106.779,-130.173 96.2776,-131.575 105.361,-137.028 106.779,-130.173"/>
</g>
<!-- Node23 -->
<g id="node23" class="node"><title>Node23</title>
<g id="a_node23"><a xlink:href="classbsc_1_1external__process__handler.html" target="_top" xlink:title="bsc::external_process\l_handler\&lt; T, Router \&gt;">
<polygon fill="white" stroke="black" points="139.5,-77 139.5,-107 252.5,-107 252.5,-77 139.5,-77"/>
<text text-anchor="start" x="147.5" y="-95" font-family="Helvetica,sans-Serif" font-size="10.00">bsc::external_process</text>
<text text-anchor="middle" x="196" y="-84" font-family="Helvetica,sans-Serif" font-size="10.00">_handler&lt; T, Router &gt;</text>
</a>
</g>
</g>
<!-- Node1&#45;&gt;Node23 -->
<g id="edge22" class="edge"><title>Node1&#45;&gt;Node23</title>
<path fill="none" stroke="midnightblue" d="M106.1,-110.393C116.988,-108.14 128.396,-105.78 139.272,-103.53"/>
<polygon fill="midnightblue" stroke="midnightblue" points="105.361,-106.972 96.2776,-112.425 106.779,-113.827 105.361,-106.972"/>
</g>
<!-- Node24 -->
<g id="node24" class="node"><title>Node24</title>
<g id="a_node24"><a xlink:href="classbsc_1_1Factory.html" target="_top" xlink:title="bsc::Factory\&lt; T \&gt;">
<polygon fill="white" stroke="black" points="148.5,-38.5 148.5,-57.5 243.5,-57.5 243.5,-38.5 148.5,-38.5"/>
<text text-anchor="middle" x="196" y="-45.5" font-family="Helvetica,sans-Serif" font-size="10.00">bsc::Factory&lt; T &gt;</text>
</a>
</g>
</g>
<!-- Node1&#45;&gt;Node24 -->
<g id="edge23" class="edge"><title>Node1&#45;&gt;Node24</title>
<path fill="none" stroke="midnightblue" d="M70.4608,-106.27C86.9089,-94.2142 110.988,-77.8569 134,-67 141.724,-63.3556 150.321,-60.1847 158.566,-57.532"/>
<polygon fill="midnightblue" stroke="midnightblue" points="68.0841,-103.676 62.1634,-112.462 72.2709,-109.286 68.0841,-103.676"/>
</g>
<!-- Node25 -->
<g id="node25" class="node"><title>Node25</title>
<g id="a_node25"><a xlink:href="classbsc_1_1Multi__pipeline.html" target="_top" xlink:title="bsc::Multi_pipeline\&lt; T \&gt;">
<polygon fill="white" stroke="black" points="135,-0.5 135,-19.5 257,-19.5 257,-0.5 135,-0.5"/>
<text text-anchor="middle" x="196" y="-7.5" font-family="Helvetica,sans-Serif" font-size="10.00">bsc::Multi_pipeline&lt; T &gt;</text>
</a>
</g>
</g>
<!-- Node1&#45;&gt;Node25 -->
<g id="edge24" class="edge"><title>Node1&#45;&gt;Node25</title>
<path fill="none" stroke="midnightblue" d="M61.7805,-103.94C76.3419,-82.9936 103.027,-48.8123 134,-29 139.98,-25.1747 146.783,-22.0746 153.623,-19.5761"/>
<polygon fill="midnightblue" stroke="midnightblue" points="58.8427,-102.036 56.1379,-112.28 64.6404,-105.959 58.8427,-102.036"/>
</g>
<!-- Node3 -->
<g id="node3" class="node"><title>Node3</title>
<g id="a_node3"><a xlink:href="classbsc_1_1parallel__pipeline.html" target="_top" xlink:title="bsc::parallel_pipeline\&lt; T \&gt;">
<polygon fill="white" stroke="black" points="308.5,-573.5 308.5,-592.5 439.5,-592.5 439.5,-573.5 308.5,-573.5"/>
<text text-anchor="middle" x="374" y="-580.5" font-family="Helvetica,sans-Serif" font-size="10.00">bsc::parallel_pipeline&lt; T &gt;</text>
</a>
</g>
</g>
<!-- Node2&#45;&gt;Node3 -->
<g id="edge2" class="edge"><title>Node2&#45;&gt;Node3</title>
<path fill="none" stroke="midnightblue" d="M212.668,-499.021C230.59,-517.475 261.656,-546.495 294,-563 302.443,-567.309 311.878,-570.732 321.208,-573.438"/>
<polygon fill="midnightblue" stroke="midnightblue" points="215.039,-496.436 205.614,-491.597 209.965,-501.257 215.039,-496.436"/>
</g>
<!-- Node4 -->
<g id="node4" class="node"><title>Node4</title>
<g id="a_node4"><a xlink:href="structbsc_1_1io__pipeline.html" target="_top" xlink:title="bsc::io_pipeline\&lt; T \&gt;">
<polygon fill="white" stroke="black" points="500,-573.5 500,-592.5 608,-592.5 608,-573.5 500,-573.5"/>
<text text-anchor="middle" x="554" y="-580.5" font-family="Helvetica,sans-Serif" font-size="10.00">bsc::io_pipeline&lt; T &gt;</text>
</a>
</g>
</g>
<!-- Node3&#45;&gt;Node4 -->
<g id="edge3" class="edge"><title>Node3&#45;&gt;Node4</title>
<path fill="none" stroke="midnightblue" d="M449.856,-583C466.645,-583 484.123,-583 499.817,-583"/>
<polygon fill="midnightblue" stroke="midnightblue" points="449.514,-579.5 439.514,-583 449.514,-586.5 449.514,-579.5"/>
</g>
<!-- Node6 -->
<g id="node6" class="node"><title>Node6</title>
<g id="a_node6"><a xlink:href="classbsc_1_1child__notify__handler.html" target="_top" xlink:title="bsc::child_notify_handler\l\&lt; K, R \&gt;">
<polygon fill="white" stroke="black" points="311.5,-524 311.5,-554 436.5,-554 436.5,-524 311.5,-524"/>
<text text-anchor="start" x="319.5" y="-542" font-family="Helvetica,sans-Serif" font-size="10.00">bsc::child_notify_handler</text>
<text text-anchor="middle" x="374" y="-531" font-family="Helvetica,sans-Serif" font-size="10.00">&lt; K, R &gt;</text>
</a>
</g>
</g>
<!-- Node5&#45;&gt;Node6 -->
<g id="edge5" class="edge"><title>Node5&#45;&gt;Node6</title>
<path fill="none" stroke="midnightblue" d="M206.697,-361.859C228.53,-404.05 280.678,-503.213 294,-514 299.143,-518.164 304.988,-521.639 311.118,-524.538"/>
<polygon fill="midnightblue" stroke="midnightblue" points="209.762,-360.167 202.066,-352.886 203.541,-363.377 209.762,-360.167"/>
</g>
<!-- Node7 -->
<g id="node7" class="node"><title>Node7</title>
<g id="a_node7"><a xlink:href="classbsc_1_1local__server.html" target="_top" xlink:title="bsc::local_server\&lt;\l K, S, R \&gt;">
<polygon fill="white" stroke="black" points="325.5,-475 325.5,-505 422.5,-505 422.5,-475 325.5,-475"/>
<text text-anchor="start" x="333.5" y="-493" font-family="Helvetica,sans-Serif" font-size="10.00">bsc::local_server&lt;</text>
<text text-anchor="middle" x="374" y="-482" font-family="Helvetica,sans-Serif" font-size="10.00"> K, S, R &gt;</text>
</a>
</g>
</g>
<!-- Node5&#45;&gt;Node7 -->
<g id="edge6" class="edge"><title>Node5&#45;&gt;Node7</title>
<path fill="none" stroke="midnightblue" d="M206.961,-361.57C222.22,-388.287 253.876,-437.386 294,-465 303.362,-471.443 314.469,-476.29 325.352,-479.913"/>
<polygon fill="midnightblue" stroke="midnightblue" points="209.849,-359.56 201.933,-352.518 203.729,-362.959 209.849,-359.56"/>
</g>
<!-- Node8 -->
<g id="node8" class="node"><title>Node8</title>
<g id="a_node8"><a xlink:href="classbsc_1_1process__handler.html" target="_top" xlink:title="bsc::process_handler\l\&lt; K, R \&gt;">
<polygon fill="white" stroke="black" points="319,-426 319,-456 429,-456 429,-426 319,-426"/>
<text text-anchor="start" x="327" y="-444" font-family="Helvetica,sans-Serif" font-size="10.00">bsc::process_handler</text>
<text text-anchor="middle" x="374" y="-433" font-family="Helvetica,sans-Serif" font-size="10.00">&lt; K, R &gt;</text>
</a>
</g>
</g>
<!-- Node5&#45;&gt;Node8 -->
<g id="edge7" class="edge"><title>Node5&#45;&gt;Node8</title>
<path fill="none" stroke="midnightblue" d="M214.896,-359.45C233.464,-375.767 263.943,-400.512 294,-416 301.8,-420.02 310.369,-423.543 318.897,-426.579"/>
<polygon fill="midnightblue" stroke="midnightblue" points="217.034,-356.667 207.247,-352.609 212.368,-361.884 217.034,-356.667"/>
</g>
<!-- Node9 -->
<g id="node9" class="node"><title>Node9</title>
<g id="a_node9"><a xlink:href="classbsc_1_1process__notify__handler.html" target="_top" xlink:title="bsc::process_notify\l_handler\&lt; K, R \&gt;">
<polygon fill="white" stroke="black" points="323,-377 323,-407 425,-407 425,-377 323,-377"/>
<text text-anchor="start" x="331" y="-395" font-family="Helvetica,sans-Serif" font-size="10.00">bsc::process_notify</text>
<text text-anchor="middle" x="374" y="-384" font-family="Helvetica,sans-Serif" font-size="10.00">_handler&lt; K, R &gt;</text>
</a>
</g>
</g>
<!-- Node5&#45;&gt;Node9 -->
<g id="edge8" class="edge"><title>Node5&#45;&gt;Node9</title>
<path fill="none" stroke="midnightblue" d="M241.216,-355.31C266.009,-362.213 297.026,-370.848 322.738,-378.007"/>
<polygon fill="midnightblue" stroke="midnightblue" points="241.925,-351.874 231.352,-352.564 240.047,-358.618 241.925,-351.874"/>
</g>
<!-- Node10 -->
<g id="node10" class="node"><title>Node10</title>
<g id="a_node10"><a xlink:href="classbsc_1_1remote__client.html" target="_top" xlink:title="bsc::remote_client\l\&lt; K, S, R \&gt;">
<polygon fill="white" stroke="black" points="325.5,-328 325.5,-358 422.5,-358 422.5,-328 325.5,-328"/>
<text text-anchor="start" x="333.5" y="-346" font-family="Helvetica,sans-Serif" font-size="10.00">bsc::remote_client</text>
<text text-anchor="middle" x="374" y="-335" font-family="Helvetica,sans-Serif" font-size="10.00">&lt; K, S, R &gt;</text>
</a>
</g>
</g>
<!-- Node5&#45;&gt;Node10 -->
<g id="edge9" class="edge"><title>Node5&#45;&gt;Node10</title>
<path fill="none" stroke="midnightblue" d="M255.29,-343C277.996,-343 303.692,-343 325.27,-343"/>
<polygon fill="midnightblue" stroke="midnightblue" points="255.093,-339.5 245.093,-343 255.093,-346.5 255.093,-339.5"/>
</g>
<!-- Node11 -->
<g id="node11" class="node"><title>Node11</title>
<g id="a_node11"><a xlink:href="classbsc_1_1socket__notify__handler.html" target="_top" xlink:title="bsc::socket_notify\l_handler\&lt; K, S, R \&gt;">
<polygon fill="white" stroke="black" points="322,-279 322,-309 426,-309 426,-279 322,-279"/>
<text text-anchor="start" x="330" y="-297" font-family="Helvetica,sans-Serif" font-size="10.00">bsc::socket_notify</text>
<text text-anchor="middle" x="374" y="-286" font-family="Helvetica,sans-Serif" font-size="10.00">_handler&lt; K, S, R &gt;</text>
</a>
</g>
</g>
<!-- Node5&#45;&gt;Node11 -->
<g id="edge10" class="edge"><title>Node5&#45;&gt;Node11</title>
<path fill="none" stroke="midnightblue" d="M241.098,-330.723C265.586,-323.905 296.171,-315.39 321.723,-308.276"/>
<polygon fill="midnightblue" stroke="midnightblue" points="240.047,-327.382 231.352,-333.436 241.925,-334.126 240.047,-327.382"/>
</g>
<!-- Node12 -->
<g id="node12" class="node"><title>Node12</title>
<g id="a_node12"><a xlink:href="classbsc_1_1unix__socket__client.html" target="_top" xlink:title="bsc::unix_socket_client\l\&lt; K, R \&gt;">
<polygon fill="white" stroke="black" points="314.5,-230 314.5,-260 433.5,-260 433.5,-230 314.5,-230"/>
<text text-anchor="start" x="322.5" y="-248" font-family="Helvetica,sans-Serif" font-size="10.00">bsc::unix_socket_client</text>
<text text-anchor="middle" x="374" y="-237" font-family="Helvetica,sans-Serif" font-size="10.00">&lt; K, R &gt;</text>
</a>
</g>
</g>
<!-- Node5&#45;&gt;Node12 -->
<g id="edge11" class="edge"><title>Node5&#45;&gt;Node12</title>
<path fill="none" stroke="midnightblue" d="M214.896,-326.55C233.464,-310.233 263.943,-285.488 294,-270 301.289,-266.244 309.249,-262.921 317.219,-260.025"/>
<polygon fill="midnightblue" stroke="midnightblue" points="212.368,-324.116 207.247,-333.391 217.034,-329.333 212.368,-324.116"/>
</g>
<!-- Node13 -->
<g id="node13" class="node"><title>Node13</title>
<g id="a_node13"><a xlink:href="classbsc_1_1unix__socket__server.html" target="_top" xlink:title="bsc::unix_socket_server\l\&lt; K, R \&gt;">
<polygon fill="white" stroke="black" points="312.5,-181 312.5,-211 435.5,-211 435.5,-181 312.5,-181"/>
<text text-anchor="start" x="320.5" y="-199" font-family="Helvetica,sans-Serif" font-size="10.00">bsc::unix_socket_server</text>
<text text-anchor="middle" x="374" y="-188" font-family="Helvetica,sans-Serif" font-size="10.00">&lt; K, R &gt;</text>
</a>
</g>
</g>
<!-- Node5&#45;&gt;Node13 -->
<g id="edge12" class="edge"><title>Node5&#45;&gt;Node13</title>
<path fill="none" stroke="midnightblue" d="M206.681,-324.57C221.761,-297.636 253.391,-247.722 294,-220 299.564,-216.202 305.748,-212.989 312.137,-210.275"/>
<polygon fill="midnightblue" stroke="midnightblue" points="203.598,-322.913 201.888,-333.369 209.745,-326.261 203.598,-322.913"/>
</g>
<!-- Node15 -->
<g id="node15" class="node"><title>Node15</title>
<g id="a_node15"><a xlink:href="classbsc_1_1basic__socket__pipeline.html" target="_top" xlink:title="bsc::basic_socket_pipeline\&lt; K \&gt;">
<polygon fill="white" stroke="black" points="294.5,-142.5 294.5,-161.5 453.5,-161.5 453.5,-142.5 294.5,-142.5"/>
<text text-anchor="middle" x="374" y="-149.5" font-family="Helvetica,sans-Serif" font-size="10.00">bsc::basic_socket_pipeline&lt; K &gt;</text>
</a>
</g>
</g>
<!-- Node14&#45;&gt;Node15 -->
<g id="edge14" class="edge"><title>Node14&#45;&gt;Node15</title>
<path fill="none" stroke="midnightblue" d="M265.262,-152C274.748,-152 284.557,-152 294.217,-152"/>
<polygon fill="midnightblue" stroke="midnightblue" points="265.117,-148.5 255.117,-152 265.117,-155.5 265.117,-148.5"/>
</g>
<!-- Node20 -->
<g id="node20" class="node"><title>Node20</title>
<g id="a_node20"><a xlink:href="classbsc_1_1basic__socket__pipeline.html" target="_top" xlink:title="bsc::basic_socket_pipeline\&lt; T \&gt;">
<polygon fill="white" stroke="black" points="295,-104.5 295,-123.5 453,-123.5 453,-104.5 295,-104.5"/>
<text text-anchor="middle" x="374" y="-111.5" font-family="Helvetica,sans-Serif" font-size="10.00">bsc::basic_socket_pipeline&lt; T &gt;</text>
</a>
</g>
</g>
<!-- Node14&#45;&gt;Node20 -->
<g id="edge19" class="edge"><title>Node14&#45;&gt;Node20</title>
<path fill="none" stroke="midnightblue" d="M265.141,-137.288C286.546,-132.666 309.605,-127.688 328.886,-123.525"/>
<polygon fill="midnightblue" stroke="midnightblue" points="264.153,-133.92 255.117,-139.452 265.63,-140.763 264.153,-133.92"/>
</g>
<!-- Node22 -->
<g id="node22" class="node"><title>Node22</title>
<g id="a_node22"><a xlink:href="structbsc_1_1timer__pipeline.html" target="_top" xlink:title="bsc::timer_pipeline\&lt; T \&gt;">
<polygon fill="white" stroke="black" points="313,-66.5 313,-85.5 435,-85.5 435,-66.5 313,-66.5"/>
<text text-anchor="middle" x="374" y="-73.5" font-family="Helvetica,sans-Serif" font-size="10.00">bsc::timer_pipeline&lt; T &gt;</text>
</a>
</g>
</g>
<!-- Node14&#45;&gt;Node22 -->
<g id="edge21" class="edge"><title>Node14&#45;&gt;Node22</title>
<path fill="none" stroke="midnightblue" d="M250.175,-120.646C272.412,-107.553 293.328,-95.2713 294,-95 303.287,-91.2511 313.5,-88.1202 323.41,-85.5529"/>
<polygon fill="midnightblue" stroke="midnightblue" points="248.135,-117.786 241.294,-125.877 251.687,-123.817 248.135,-117.786"/>
</g>
<!-- Node16 -->
<g id="node16" class="node"><title>Node16</title>
<g id="a_node16"><a xlink:href="classbsc_1_1child__process__pipeline.html" target="_top" xlink:title="bsc::child_process\l_pipeline\&lt; K, R \&gt;">
<polygon fill="white" stroke="black" points="505,-235 505,-265 603,-265 603,-235 505,-235"/>
<text text-anchor="start" x="513" y="-253" font-family="Helvetica,sans-Serif" font-size="10.00">bsc::child_process</text>
<text text-anchor="middle" x="554" y="-242" font-family="Helvetica,sans-Serif" font-size="10.00">_pipeline&lt; K, R &gt;</text>
</a>
</g>
</g>
<!-- Node15&#45;&gt;Node16 -->
<g id="edge15" class="edge"><title>Node15&#45;&gt;Node16</title>
<path fill="none" stroke="midnightblue" d="M444.919,-165.61C448.089,-167.212 451.137,-169.002 454,-171 477.652,-187.51 467.576,-206.857 490,-225 494.665,-228.775 499.972,-232.038 505.48,-234.843"/>
<polygon fill="midnightblue" stroke="midnightblue" points="446.277,-162.383 435.714,-161.571 443.465,-168.794 446.277,-162.383"/>
</g>
<!-- Node17 -->
<g id="node17" class="node"><title>Node17</title>
<g id="a_node17"><a xlink:href="classbsc_1_1process__pipeline.html" target="_top" xlink:title="bsc::process_pipeline\l\&lt; K, R \&gt;">
<polygon fill="white" stroke="black" points="498.5,-186 498.5,-216 609.5,-216 609.5,-186 498.5,-186"/>
<text text-anchor="start" x="506.5" y="-204" font-family="Helvetica,sans-Serif" font-size="10.00">bsc::process_pipeline</text>
<text text-anchor="middle" x="554" y="-193" font-family="Helvetica,sans-Serif" font-size="10.00">&lt; K, R &gt;</text>
</a>
</g>
</g>
<!-- Node15&#45;&gt;Node17 -->
<g id="edge16" class="edge"><title>Node15&#45;&gt;Node17</title>
<path fill="none" stroke="midnightblue" d="M426.378,-163.898C435.598,-166.163 445.102,-168.584 454,-171 470.812,-175.565 489.097,-180.977 505.325,-185.94"/>
<polygon fill="midnightblue" stroke="midnightblue" points="427.069,-160.464 416.526,-161.508 425.419,-167.267 427.069,-160.464"/>
</g>
<!-- Node18 -->
<g id="node18" class="node"><title>Node18</title>
<g id="a_node18"><a xlink:href="classbsc_1_1socket__pipeline.html" target="_top" xlink:title="bsc::socket_pipeline\l\&lt; K, S, R \&gt;">
<polygon fill="white" stroke="black" points="501,-137 501,-167 607,-167 607,-137 501,-137"/>
<text text-anchor="start" x="509" y="-155" font-family="Helvetica,sans-Serif" font-size="10.00">bsc::socket_pipeline</text>
<text text-anchor="middle" x="554" y="-144" font-family="Helvetica,sans-Serif" font-size="10.00">&lt; K, S, R &gt;</text>
</a>
</g>
</g>
<!-- Node15&#45;&gt;Node18 -->
<g id="edge17" class="edge"><title>Node15&#45;&gt;Node18</title>
<path fill="none" stroke="midnightblue" d="M463.769,-152C476.487,-152 489.21,-152 500.902,-152"/>
<polygon fill="midnightblue" stroke="midnightblue" points="463.592,-148.5 453.592,-152 463.591,-155.5 463.592,-148.5"/>
</g>
<!-- Node19 -->
<g id="node19" class="node"><title>Node19</title>
<g id="a_node19"><a xlink:href="classbsc_1_1unix__domain__socket__pipeline.html" target="_top" xlink:title="bsc::unix_domain_socket\l_pipeline\&lt; K, R \&gt;">
<polygon fill="white" stroke="black" points="490,-88 490,-118 618,-118 618,-88 490,-88"/>
<text text-anchor="start" x="498" y="-106" font-family="Helvetica,sans-Serif" font-size="10.00">bsc::unix_domain_socket</text>
<text text-anchor="middle" x="554" y="-95" font-family="Helvetica,sans-Serif" font-size="10.00">_pipeline&lt; K, R &gt;</text>
</a>
</g>
</g>
<!-- Node15&#45;&gt;Node19 -->
<g id="edge18" class="edge"><title>Node15&#45;&gt;Node19</title>
<path fill="none" stroke="midnightblue" d="M426.378,-140.102C435.598,-137.837 445.102,-135.416 454,-133 470.812,-128.435 489.097,-123.023 505.325,-118.06"/>
<polygon fill="midnightblue" stroke="midnightblue" points="425.419,-136.733 416.526,-142.492 427.069,-143.536 425.419,-136.733"/>
</g>
<!-- Node21 -->
<g id="node21" class="node"><title>Node21</title>
<g id="a_node21"><a xlink:href="classbsc_1_1child__process__pipeline.html" target="_top" xlink:title="bsc::child_process\l_pipeline\&lt; T, basic\l_router\&lt; T \&gt; \&gt;">
<polygon fill="white" stroke="black" points="504.5,-28.5 504.5,-69.5 603.5,-69.5 603.5,-28.5 504.5,-28.5"/>
<text text-anchor="start" x="512.5" y="-57.5" font-family="Helvetica,sans-Serif" font-size="10.00">bsc::child_process</text>
<text text-anchor="start" x="512.5" y="-46.5" font-family="Helvetica,sans-Serif" font-size="10.00">_pipeline&lt; T, basic</text>
<text text-anchor="middle" x="554" y="-35.5" font-family="Helvetica,sans-Serif" font-size="10.00">_router&lt; T &gt; &gt;</text>
</a>
</g>
</g>
<!-- Node20&#45;&gt;Node21 -->
<g id="edge20" class="edge"><title>Node20&#45;&gt;Node21</title>
<path fill="none" stroke="midnightblue" d="M431.713,-101.853C439.277,-99.7991 446.876,-97.5087 454,-95 470.69,-89.1225 473.963,-85.4772 490,-78 495.893,-75.2524 502.103,-72.3736 508.234,-69.5412"/>
<polygon fill="midnightblue" stroke="midnightblue" points="430.633,-98.5169 421.831,-104.415 432.39,-105.293 430.633,-98.5169"/>
</g>
</g>
</svg>
