<?xml version="1.0" encoding="UTF-8" standalone="no"?>
<!DOCTYPE svg PUBLIC "-//W3C//DTD SVG 1.1//EN"
 "http://www.w3.org/Graphics/SVG/1.1/DTD/svg11.dtd">
<!-- Generated by graphviz version 2.36.0 (20140111.2315)
 -->
<!-- Title: Graphical Class Hierarchy Pages: 1 -->
<svg width="414pt" height="530pt"
 viewBox="0.00 0.00 414.00 530.00" xmlns="http://www.w3.org/2000/svg" xmlns:xlink="http://www.w3.org/1999/xlink">
<g id="graph0" class="graph" transform="scale(1 1) rotate(0) translate(4 526)">
<title>Graphical Class Hierarchy</title>
<polygon fill="white" stroke="none" points="-4,4 -4,-526 410,-526 410,4 -4,4"/>
<!-- Node1 -->
<g id="node1" class="node"><title>Node1</title>
<polygon fill="white" stroke="#bfbfbf" points="0,-234.5 0,-253.5 44,-253.5 44,-234.5 0,-234.5"/>
<text text-anchor="middle" x="22" y="-241.5" font-family="Helvetica,sans-Serif" font-size="10.00">Kernel</text>
</g>
<!-- Node2 -->
<g id="node2" class="node"><title>Node2</title>
<g id="a_node2"><a xlink:href="classautoreg_1_1Autoreg__model.html" target="_top" xlink:title="autoreg::Autoreg_model\&lt; T \&gt;">
<polygon fill="white" stroke="black" points="86,-502.5 86,-521.5 230,-521.5 230,-502.5 86,-502.5"/>
<text text-anchor="middle" x="158" y="-509.5" font-family="Helvetica,sans-Serif" font-size="10.00">autoreg::Autoreg_model&lt; T &gt;</text>
</a>
</g>
</g>
<!-- Node1&#45;&gt;Node2 -->
<g id="edge1" class="edge"><title>Node1&#45;&gt;Node2</title>
<path fill="none" stroke="midnightblue" d="M24.8688,-263.697C30.2859,-316.626 47.7017,-460.152 80,-493 83.7649,-496.829 88.1698,-499.932 92.9322,-502.442"/>
<polygon fill="midnightblue" stroke="midnightblue" points="28.3364,-263.195 23.8691,-253.588 21.3704,-263.884 28.3364,-263.195"/>
</g>
<!-- Node3 -->
<g id="node3" class="node"><title>Node3</title>
<g id="a_node3"><a xlink:href="classautoreg_1_1Velocity__potential.html" target="_top" xlink:title="autoreg::Velocity_potential\&lt; T \&gt;">
<polygon fill="white" stroke="black" points="80,-464.5 80,-483.5 236,-483.5 236,-464.5 80,-464.5"/>
<text text-anchor="middle" x="158" y="-471.5" font-family="Helvetica,sans-Serif" font-size="10.00">autoreg::Velocity_potential&lt; T &gt;</text>
</a>
</g>
</g>
<!-- Node1&#45;&gt;Node3 -->
<g id="edge2" class="edge"><title>Node1&#45;&gt;Node3</title>
<path fill="none" stroke="midnightblue" d="M22.2589,-263.706C21.8344,-305.092 26.972,-401.548 80,-454 84.3206,-458.274 89.4306,-461.669 94.9311,-464.362"/>
<polygon fill="midnightblue" stroke="midnightblue" points="25.7609,-263.653 22.4909,-253.576 18.7627,-263.493 25.7609,-263.653"/>
</g>
<!-- Node4 -->
<g id="node4" class="node"><title>Node4</title>
<g id="a_node4"><a xlink:href="structfactory_1_1api_1_1Map.html" target="_top" xlink:title="factory::api::Map\&lt;\l F, G, I \&gt;">
<polygon fill="white" stroke="black" points="110,-415 110,-445 206,-445 206,-415 110,-415"/>
<text text-anchor="start" x="118" y="-433" font-family="Helvetica,sans-Serif" font-size="10.00">factory::api::Map&lt;</text>
<text text-anchor="middle" x="158" y="-422" font-family="Helvetica,sans-Serif" font-size="10.00"> F, G, I &gt;</text>
</a>
</g>
</g>
<!-- Node1&#45;&gt;Node4 -->
<g id="edge3" class="edge"><title>Node1&#45;&gt;Node4</title>
<path fill="none" stroke="midnightblue" d="M24.4845,-263.891C28.0642,-297.617 40.0986,-366.136 80,-405 88.1554,-412.943 98.8586,-418.363 109.681,-422.061"/>
<polygon fill="midnightblue" stroke="midnightblue" points="27.9324,-263.159 23.5391,-253.518 20.9613,-263.795 27.9324,-263.159"/>
</g>
<!-- Node5 -->
<g id="node5" class="node"><title>Node5</title>
<g id="a_node5"><a xlink:href="structfactory_1_1api_1_1Map_1_1Worker.html" target="_top" xlink:title="factory::api::Map\&lt;\l F, G, I \&gt;::Worker">
<polygon fill="white" stroke="black" points="110,-366 110,-396 206,-396 206,-366 110,-366"/>
<text text-anchor="start" x="118" y="-384" font-family="Helvetica,sans-Serif" font-size="10.00">factory::api::Map&lt;</text>
<text text-anchor="middle" x="158" y="-373" font-family="Helvetica,sans-Serif" font-size="10.00"> F, G, I &gt;::Worker</text>
</a>
</g>
</g>
<!-- Node1&#45;&gt;Node5 -->
<g id="edge4" class="edge"><title>Node1&#45;&gt;Node5</title>
<path fill="none" stroke="midnightblue" d="M27.8864,-263.428C35.1363,-288.354 51.0996,-331.31 80,-356 88.5491,-363.303 99.2745,-368.484 109.981,-372.154"/>
<polygon fill="midnightblue" stroke="midnightblue" points="31.232,-262.393 25.2266,-253.665 24.4781,-264.233 31.232,-262.393"/>
</g>
<!-- Node6 -->
<g id="node6" class="node"><title>Node6</title>
<g id="a_node6"><a xlink:href="classfactory_1_1api_1_1Notification.html" target="_top" xlink:title="factory::api::Notification">
<polygon fill="white" stroke="black" points="97.5,-327.5 97.5,-346.5 218.5,-346.5 218.5,-327.5 97.5,-327.5"/>
<text text-anchor="middle" x="158" y="-334.5" font-family="Helvetica,sans-Serif" font-size="10.00">factory::api::Notification</text>
</a>
</g>
</g>
<!-- Node1&#45;&gt;Node6 -->
<g id="edge5" class="edge"><title>Node1&#45;&gt;Node6</title>
<path fill="none" stroke="midnightblue" d="M32.7961,-262.578C42.5621,-279.296 59.1012,-303.278 80,-317 86.5809,-321.321 94.0485,-324.709 101.682,-327.366"/>
<polygon fill="midnightblue" stroke="midnightblue" points="35.7756,-260.735 27.847,-253.707 29.6626,-264.145 35.7756,-260.735"/>
</g>
<!-- Node7 -->
<g id="node7" class="node"><title>Node7</title>
<g id="a_node7"><a xlink:href="classfactory_1_1discovery__timer.html" target="_top" xlink:title="factory::discovery\l_timer">
<polygon fill="white" stroke="black" points="110.5,-278 110.5,-308 205.5,-308 205.5,-278 110.5,-278"/>
<text text-anchor="start" x="118.5" y="-296" font-family="Helvetica,sans-Serif" font-size="10.00">factory::discovery</text>
<text text-anchor="middle" x="158" y="-285" font-family="Helvetica,sans-Serif" font-size="10.00">_timer</text>
</a>
</g>
</g>
<!-- Node1&#45;&gt;Node7 -->
<g id="edge6" class="edge"><title>Node1&#45;&gt;Node7</title>
<path fill="none" stroke="midnightblue" d="M53.4382,-257.376C61.9739,-260.974 71.2993,-264.762 80,-268 89.7477,-271.627 100.294,-275.246 110.363,-278.559"/>
<polygon fill="midnightblue" stroke="midnightblue" points="54.7832,-254.145 44.2121,-253.435 52.0331,-260.582 54.7832,-254.145"/>
</g>
<!-- Node8 -->
<g id="node8" class="node"><title>Node8</title>
<g id="a_node8"><a xlink:href="classfactory_1_1hierarchy__kernel.html" target="_top" xlink:title="factory::hierarchy\l_kernel">
<polygon fill="white" stroke="black" points="112,-229 112,-259 204,-259 204,-229 112,-229"/>
<text text-anchor="start" x="120" y="-247" font-family="Helvetica,sans-Serif" font-size="10.00">factory::hierarchy</text>
<text text-anchor="middle" x="158" y="-236" font-family="Helvetica,sans-Serif" font-size="10.00">_kernel</text>
</a>
</g>
</g>
<!-- Node1&#45;&gt;Node8 -->
<g id="edge7" class="edge"><title>Node1&#45;&gt;Node8</title>
<path fill="none" stroke="midnightblue" d="M54.2479,-244C71.3447,-244 92.834,-244 111.735,-244"/>
<polygon fill="midnightblue" stroke="midnightblue" points="54.2327,-240.5 44.2327,-244 54.2327,-247.5 54.2327,-240.5"/>
</g>
<!-- Node9 -->
<g id="node9" class="node"><title>Node9</title>
<g id="a_node9"><a xlink:href="classfactory_1_1network__master.html" target="_top" xlink:title="factory::network_master">
<polygon fill="white" stroke="black" points="97,-190.5 97,-209.5 219,-209.5 219,-190.5 97,-190.5"/>
<text text-anchor="middle" x="158" y="-197.5" font-family="Helvetica,sans-Serif" font-size="10.00">factory::network_master</text>
</a>
</g>
</g>
<!-- Node1&#45;&gt;Node9 -->
<g id="edge8" class="edge"><title>Node1&#45;&gt;Node9</title>
<path fill="none" stroke="midnightblue" d="M52.8863,-230.461C61.5362,-226.804 71.0586,-223.026 80,-220 91.5128,-216.104 104.209,-212.523 115.915,-209.501"/>
<polygon fill="midnightblue" stroke="midnightblue" points="51.3572,-227.309 43.5686,-234.491 54.1363,-233.733 51.3572,-227.309"/>
</g>
<!-- Node10 -->
<g id="node10" class="node"><title>Node10</title>
<g id="a_node10"><a xlink:href="classfactory_1_1network__timer.html" target="_top" xlink:title="factory::network_timer">
<polygon fill="white" stroke="black" points="101,-152.5 101,-171.5 215,-171.5 215,-152.5 101,-152.5"/>
<text text-anchor="middle" x="158" y="-159.5" font-family="Helvetica,sans-Serif" font-size="10.00">factory::network_timer</text>
</a>
</g>
</g>
<!-- Node1&#45;&gt;Node10 -->
<g id="edge9" class="edge"><title>Node1&#45;&gt;Node10</title>
<path fill="none" stroke="midnightblue" d="M34.941,-225.702C45.213,-211.415 61.3047,-192.172 80,-181 86.5007,-177.115 93.7623,-174.023 101.158,-171.561"/>
<polygon fill="midnightblue" stroke="midnightblue" points="31.8505,-224.019 29.0624,-234.24 37.6161,-227.989 31.8505,-224.019"/>
</g>
<!-- Node11 -->
<g id="node11" class="node"><title>Node11</title>
<g id="a_node11"><a xlink:href="classfactory_1_1probe.html" target="_top" xlink:title="factory::probe">
<polygon fill="white" stroke="black" points="119.5,-114.5 119.5,-133.5 196.5,-133.5 196.5,-114.5 119.5,-114.5"/>
<text text-anchor="middle" x="158" y="-121.5" font-family="Helvetica,sans-Serif" font-size="10.00">factory::probe</text>
</a>
</g>
</g>
<!-- Node1&#45;&gt;Node11 -->
<g id="edge10" class="edge"><title>Node1&#45;&gt;Node11</title>
<path fill="none" stroke="midnightblue" d="M28.7378,-224.499C36.5363,-201.476 52.7294,-163.708 80,-143 91.2948,-134.423 105.966,-129.672 119.467,-127.057"/>
<polygon fill="midnightblue" stroke="midnightblue" points="25.3475,-223.611 25.6536,-234.201 32.0186,-225.731 25.3475,-223.611"/>
</g>
<!-- Node12 -->
<g id="node12" class="node"><title>Node12</title>
<g id="a_node12"><a xlink:href="classfactory_1_1prober.html" target="_top" xlink:title="factory::prober">
<polygon fill="white" stroke="black" points="118,-76.5 118,-95.5 198,-95.5 198,-76.5 118,-76.5"/>
<text text-anchor="middle" x="158" y="-83.5" font-family="Helvetica,sans-Serif" font-size="10.00">factory::prober</text>
</a>
</g>
</g>
<!-- Node1&#45;&gt;Node12 -->
<g id="edge11" class="edge"><title>Node1&#45;&gt;Node12</title>
<path fill="none" stroke="midnightblue" d="M25.4716,-223.976C30.311,-193.598 43.9249,-136.119 80,-105 90.4259,-96.0063 104.456,-91.1398 117.683,-88.5484"/>
<polygon fill="midnightblue" stroke="midnightblue" points="21.9633,-223.787 24.0179,-234.18 28.8933,-224.774 21.9633,-223.787"/>
</g>
<!-- Node13 -->
<g id="node13" class="node"><title>Node13</title>
<g id="a_node13"><a xlink:href="classfactory_1_1resident__kernel.html" target="_top" xlink:title="factory::resident_kernel">
<polygon fill="white" stroke="black" points="98.5,-38.5 98.5,-57.5 217.5,-57.5 217.5,-38.5 98.5,-38.5"/>
<text text-anchor="middle" x="158" y="-45.5" font-family="Helvetica,sans-Serif" font-size="10.00">factory::resident_kernel</text>
</a>
</g>
</g>
<!-- Node1&#45;&gt;Node13 -->
<g id="edge12" class="edge"><title>Node1&#45;&gt;Node13</title>
<path fill="none" stroke="midnightblue" d="M23.428,-223.867C25.3427,-187.127 34.8378,-109.122 80,-67 85.236,-62.1165 91.5218,-58.433 98.215,-55.6634"/>
<polygon fill="midnightblue" stroke="midnightblue" points="19.916,-224.123 23.0371,-234.248 26.911,-224.387 19.916,-224.123"/>
</g>
<!-- Node15 -->
<g id="node15" class="node"><title>Node15</title>
<g id="a_node15"><a xlink:href="structYear__kernel.html" target="_top" xlink:title="Year_kernel">
<polygon fill="white" stroke="black" points="124,-0.5 124,-19.5 192,-19.5 192,-0.5 124,-0.5"/>
<text text-anchor="middle" x="158" y="-7.5" font-family="Helvetica,sans-Serif" font-size="10.00">Year_kernel</text>
</a>
</g>
</g>
<!-- Node1&#45;&gt;Node15 -->
<g id="edge14" class="edge"><title>Node1&#45;&gt;Node15</title>
<path fill="none" stroke="midnightblue" d="M25.6096,-224.503C32.3668,-176.903 51.8908,-56.6289 80,-29 91.489,-17.7073 108.56,-12.7681 123.711,-10.7338"/>
<polygon fill="midnightblue" stroke="midnightblue" points="22.1349,-224.08 24.2327,-234.465 29.0689,-225.038 22.1349,-224.08"/>
</g>
<!-- Node14 -->
<g id="node14" class="node"><title>Node14</title>
<g id="a_node14"><a xlink:href="classfactory_1_1master__discoverer.html" target="_top" xlink:title="factory::master_discoverer">
<polygon fill="white" stroke="black" points="272.5,-38.5 272.5,-57.5 405.5,-57.5 405.5,-38.5 272.5,-38.5"/>
<text text-anchor="middle" x="339" y="-45.5" font-family="Helvetica,sans-Serif" font-size="10.00">factory::master_discoverer</text>
</a>
</g>
</g>
<!-- Node13&#45;&gt;Node14 -->
<g id="edge13" class="edge"><title>Node13&#45;&gt;Node14</title>
<path fill="none" stroke="midnightblue" d="M227.645,-48C242.353,-48 257.856,-48 272.443,-48"/>
<polygon fill="midnightblue" stroke="midnightblue" points="227.611,-44.5001 217.611,-48 227.611,-51.5001 227.611,-44.5001"/>
</g>
</g>
</svg>
