<?xml version="1.0" encoding="UTF-8" standalone="no"?>
<!DOCTYPE svg PUBLIC "-//W3C//DTD SVG 1.1//EN"
 "http://www.w3.org/Graphics/SVG/1.1/DTD/svg11.dtd">
<!-- Generated by graphviz version 2.36.0 (20140111.2315)
 -->
<!-- Title: Graphical Class Hierarchy Pages: 1 -->
<svg width="210pt" height="66pt"
 viewBox="0.00 0.00 210.00 66.00" xmlns="http://www.w3.org/2000/svg" xmlns:xlink="http://www.w3.org/1999/xlink">
<g id="graph0" class="graph" transform="scale(1 1) rotate(0) translate(4 62)">
<title>Graphical Class Hierarchy</title>
<polygon fill="white" stroke="none" points="-4,4 -4,-62 206,-62 206,4 -4,4"/>
<!-- Node1 -->
<g id="node1" class="node"><title>Node1</title>
<polygon fill="white" stroke="#bfbfbf" points="0,-19.5 0,-38.5 52,-38.5 52,-19.5 0,-19.5"/>
<text text-anchor="middle" x="26" y="-26.5" font-family="Helvetica,sans-Serif" font-size="10.00">pstream</text>
</g>
<!-- Node2 -->
<g id="node2" class="node"><title>Node2</title>
<g id="a_node2"><a xlink:href="structfactory_1_1kstream.html" target="_top" xlink:title="factory::kstream\&lt; T \&gt;">
<polygon fill="white" stroke="black" points="89,-38.5 89,-57.5 201,-57.5 201,-38.5 89,-38.5"/>
<text text-anchor="middle" x="145" y="-45.5" font-family="Helvetica,sans-Serif" font-size="10.00">factory::kstream&lt; T &gt;</text>
</a>
</g>
</g>
<!-- Node1&#45;&gt;Node2 -->
<g id="edge1" class="edge"><title>Node1&#45;&gt;Node2</title>
<path fill="none" stroke="midnightblue" d="M62.2008,-34.7164C70.5457,-36.0715 79.6466,-37.5495 88.6479,-39.0112"/>
<polygon fill="midnightblue" stroke="midnightblue" points="62.5312,-31.2242 52.0994,-33.076 61.4091,-38.1337 62.5312,-31.2242"/>
</g>
<!-- Node3 -->
<g id="node3" class="node"><title>Node3</title>
<g id="a_node3"><a xlink:href="structfactory_1_1kstream.html" target="_top" xlink:title="factory::kstream\&lt; K \&gt;">
<polygon fill="white" stroke="black" points="88.5,-0.5 88.5,-19.5 201.5,-19.5 201.5,-0.5 88.5,-0.5"/>
<text text-anchor="middle" x="145" y="-7.5" font-family="Helvetica,sans-Serif" font-size="10.00">factory::kstream&lt; K &gt;</text>
</a>
</g>
</g>
<!-- Node1&#45;&gt;Node3 -->
<g id="edge2" class="edge"><title>Node1&#45;&gt;Node3</title>
<path fill="none" stroke="midnightblue" d="M62.0688,-23.3051C70.3014,-21.9681 79.2757,-20.5108 88.1677,-19.0668"/>
<polygon fill="midnightblue" stroke="midnightblue" points="61.4091,-19.8663 52.0994,-24.924 62.5312,-26.7758 61.4091,-19.8663"/>
</g>
</g>
</svg>
