<?xml version="1.0" encoding="UTF-8" standalone="no"?>
<!DOCTYPE svg PUBLIC "-//W3C//DTD SVG 1.1//EN"
 "http://www.w3.org/Graphics/SVG/1.1/DTD/svg11.dtd">
<!-- Generated by graphviz version 2.36.0 (20140111.2315)
 -->
<!-- Title: Graphical Class Hierarchy Pages: 1 -->
<svg width="624pt" height="453pt"
 viewBox="0.00 0.00 624.00 453.00" xmlns="http://www.w3.org/2000/svg" xmlns:xlink="http://www.w3.org/1999/xlink">
<g id="graph0" class="graph" transform="scale(1 1) rotate(0) translate(4 449)">
<title>Graphical Class Hierarchy</title>
<polygon fill="white" stroke="none" points="-4,4 -4,-449 620,-449 620,4 -4,4"/>
<!-- Node1 -->
<g id="node1" class="node"><title>Node1</title>
<g id="a_node1"><a xlink:href="classbsc_1_1pipeline__base.html" target="_top" xlink:title="bsc::pipeline_base">
<polygon fill="white" stroke="black" points="0,-136.5 0,-155.5 98,-155.5 98,-136.5 0,-136.5"/>
<text text-anchor="middle" x="49" y="-143.5" font-family="Helvetica,sans-Serif" font-size="10.00">bsc::pipeline_base</text>
</a>
</g>
</g>
<!-- Node2 -->
<g id="node2" class="node"><title>Node2</title>
<g id="a_node2"><a xlink:href="classbsc_1_1basic__pipeline.html" target="_top" xlink:title="bsc::basic_pipeline\&lt; T \&gt;">
<polygon fill="white" stroke="black" points="134,-352.5 134,-371.5 258,-371.5 258,-352.5 134,-352.5"/>
<text text-anchor="middle" x="196" y="-359.5" font-family="Helvetica,sans-Serif" font-size="10.00">bsc::basic_pipeline&lt; T &gt;</text>
</a>
</g>
</g>
<!-- Node1&#45;&gt;Node2 -->
<g id="edge1" class="edge"><title>Node1&#45;&gt;Node2</title>
<path fill="none" stroke="midnightblue" d="M60.1858,-164.497C75.3192,-191.579 105.074,-243.329 134,-285 151.505,-310.218 174.551,-338.041 186.692,-352.338"/>
<polygon fill="midnightblue" stroke="midnightblue" points="63.2153,-162.743 55.3006,-155.699 57.0956,-166.141 63.2153,-162.743"/>
</g>
<!-- Node5 -->
<g id="node5" class="node"><title>Node5</title>
<g id="a_node5"><a xlink:href="classbsc_1_1basic__pipeline.html" target="_top" xlink:title="bsc::basic_pipeline\l\&lt; T, Kernels, Traits,\l Threads, Mutex, Lock,\l Semaphore \&gt;">
<polygon fill="white" stroke="black" points="137,-224 137,-276 255,-276 255,-224 137,-224"/>
<text text-anchor="start" x="145" y="-264" font-family="Helvetica,sans-Serif" font-size="10.00">bsc::basic_pipeline</text>
<text text-anchor="start" x="145" y="-253" font-family="Helvetica,sans-Serif" font-size="10.00">&lt; T, Kernels, Traits,</text>
<text text-anchor="start" x="145" y="-242" font-family="Helvetica,sans-Serif" font-size="10.00"> Threads, Mutex, Lock,</text>
<text text-anchor="middle" x="196" y="-231" font-family="Helvetica,sans-Serif" font-size="10.00"> Semaphore &gt;</text>
</a>
</g>
</g>
<!-- Node1&#45;&gt;Node5 -->
<g id="edge4" class="edge"><title>Node1&#45;&gt;Node5</title>
<path fill="none" stroke="midnightblue" d="M68.5858,-162.376C85.2093,-176.695 110.506,-197.69 134,-214 138.849,-217.366 144.024,-220.735 149.232,-223.989"/>
<polygon fill="midnightblue" stroke="midnightblue" points="70.5828,-159.474 60.7389,-155.557 65.9912,-164.758 70.5828,-159.474"/>
</g>
<!-- Node17 -->
<g id="node17" class="node"><title>Node17</title>
<g id="a_node17"><a xlink:href="classbsc_1_1external__process__handler.html" target="_top" xlink:title="bsc::external_process\l_handler\&lt; T, Router \&gt;">
<polygon fill="white" stroke="black" points="139.5,-175 139.5,-205 252.5,-205 252.5,-175 139.5,-175"/>
<text text-anchor="start" x="147.5" y="-193" font-family="Helvetica,sans-Serif" font-size="10.00">bsc::external_process</text>
<text text-anchor="middle" x="196" y="-182" font-family="Helvetica,sans-Serif" font-size="10.00">_handler&lt; T, Router &gt;</text>
</a>
</g>
</g>
<!-- Node1&#45;&gt;Node17 -->
<g id="edge16" class="edge"><title>Node1&#45;&gt;Node17</title>
<path fill="none" stroke="midnightblue" d="M91.0457,-158.455C107.938,-163.581 127.657,-169.565 145.353,-174.935"/>
<polygon fill="midnightblue" stroke="midnightblue" points="92.0483,-155.102 81.4628,-155.547 90.0156,-161.8 92.0483,-155.102"/>
</g>
<!-- Node18 -->
<g id="node18" class="node"><title>Node18</title>
<g id="a_node18"><a xlink:href="classbsc_1_1Factory.html" target="_top" xlink:title="bsc::Factory\&lt; T \&gt;">
<polygon fill="white" stroke="black" points="148.5,-136.5 148.5,-155.5 243.5,-155.5 243.5,-136.5 148.5,-136.5"/>
<text text-anchor="middle" x="196" y="-143.5" font-family="Helvetica,sans-Serif" font-size="10.00">bsc::Factory&lt; T &gt;</text>
</a>
</g>
</g>
<!-- Node1&#45;&gt;Node18 -->
<g id="edge17" class="edge"><title>Node1&#45;&gt;Node18</title>
<path fill="none" stroke="midnightblue" d="M108.315,-146C121.645,-146 135.641,-146 148.404,-146"/>
<polygon fill="midnightblue" stroke="midnightblue" points="108.283,-142.5 98.2829,-146 108.283,-149.5 108.283,-142.5"/>
</g>
<!-- Node19 -->
<g id="node19" class="node"><title>Node19</title>
<g id="a_node19"><a xlink:href="classbsc_1_1Multi__pipeline.html" target="_top" xlink:title="bsc::Multi_pipeline\&lt; T \&gt;">
<polygon fill="white" stroke="black" points="135,-98.5 135,-117.5 257,-117.5 257,-98.5 135,-98.5"/>
<text text-anchor="middle" x="196" y="-105.5" font-family="Helvetica,sans-Serif" font-size="10.00">bsc::Multi_pipeline&lt; T &gt;</text>
</a>
</g>
</g>
<!-- Node1&#45;&gt;Node19 -->
<g id="edge18" class="edge"><title>Node1&#45;&gt;Node19</title>
<path fill="none" stroke="midnightblue" d="M96.4928,-133.816C116.624,-128.54 139.838,-122.456 158.673,-117.52"/>
<polygon fill="midnightblue" stroke="midnightblue" points="95.3757,-130.49 86.5896,-136.411 97.1503,-137.262 95.3757,-130.49"/>
</g>
<!-- Node20 -->
<g id="node20" class="node"><title>Node20</title>
<g id="a_node20"><a xlink:href="classbsc_1_1process__handler.html" target="_top" xlink:title="bsc::process_handler\l\&lt; K, R \&gt;">
<polygon fill="white" stroke="black" points="141,-49 141,-79 251,-79 251,-49 141,-49"/>
<text text-anchor="start" x="149" y="-67" font-family="Helvetica,sans-Serif" font-size="10.00">bsc::process_handler</text>
<text text-anchor="middle" x="196" y="-56" font-family="Helvetica,sans-Serif" font-size="10.00">&lt; K, R &gt;</text>
</a>
</g>
</g>
<!-- Node1&#45;&gt;Node20 -->
<g id="edge19" class="edge"><title>Node1&#45;&gt;Node20</title>
<path fill="none" stroke="midnightblue" d="M70.6518,-130.204C87.2051,-117.989 111.333,-101.165 134,-89 140.555,-85.4819 147.714,-82.1387 154.747,-79.1083"/>
<polygon fill="midnightblue" stroke="midnightblue" points="68.2035,-127.665 62.2922,-136.457 72.3963,-133.27 68.2035,-127.665"/>
</g>
<!-- Node21 -->
<g id="node21" class="node"><title>Node21</title>
<g id="a_node21"><a xlink:href="classbsc_1_1remote__client.html" target="_top" xlink:title="bsc::remote_client\l\&lt; T, Socket, Router \&gt;">
<polygon fill="white" stroke="black" points="139.5,-0 139.5,-30 252.5,-30 252.5,-0 139.5,-0"/>
<text text-anchor="start" x="147.5" y="-18" font-family="Helvetica,sans-Serif" font-size="10.00">bsc::remote_client</text>
<text text-anchor="middle" x="196" y="-7" font-family="Helvetica,sans-Serif" font-size="10.00">&lt; T, Socket, Router &gt;</text>
</a>
</g>
</g>
<!-- Node1&#45;&gt;Node21 -->
<g id="edge20" class="edge"><title>Node1&#45;&gt;Node21</title>
<path fill="none" stroke="midnightblue" d="M60.3694,-127.348C74.3118,-103.804 101.182,-63.4363 134,-39 138.564,-35.6016 143.672,-32.6152 148.938,-30.0095"/>
<polygon fill="midnightblue" stroke="midnightblue" points="57.1642,-125.9 55.2059,-136.312 63.2299,-129.394 57.1642,-125.9"/>
</g>
<!-- Node3 -->
<g id="node3" class="node"><title>Node3</title>
<g id="a_node3"><a xlink:href="classbsc_1_1parallel__pipeline.html" target="_top" xlink:title="bsc::parallel_pipeline\&lt; T \&gt;">
<polygon fill="white" stroke="black" points="307.5,-409.5 307.5,-428.5 438.5,-428.5 438.5,-409.5 307.5,-409.5"/>
<text text-anchor="middle" x="373" y="-416.5" font-family="Helvetica,sans-Serif" font-size="10.00">bsc::parallel_pipeline&lt; T &gt;</text>
</a>
</g>
</g>
<!-- Node2&#45;&gt;Node3 -->
<g id="edge2" class="edge"><title>Node2&#45;&gt;Node3</title>
<path fill="none" stroke="midnightblue" d="M234.095,-374.906C252.132,-381.108 274.153,-388.572 294,-395 309.096,-399.889 325.913,-405.094 340.055,-409.403"/>
<polygon fill="midnightblue" stroke="midnightblue" points="235.118,-371.556 224.523,-371.604 232.836,-378.174 235.118,-371.556"/>
</g>
<!-- Node4 -->
<g id="node4" class="node"><title>Node4</title>
<g id="a_node4"><a xlink:href="structbsc_1_1io__pipeline.html" target="_top" xlink:title="bsc::io_pipeline\&lt; T \&gt;">
<polygon fill="white" stroke="black" points="498,-425.5 498,-444.5 606,-444.5 606,-425.5 498,-425.5"/>
<text text-anchor="middle" x="552" y="-432.5" font-family="Helvetica,sans-Serif" font-size="10.00">bsc::io_pipeline&lt; T &gt;</text>
</a>
</g>
</g>
<!-- Node3&#45;&gt;Node4 -->
<g id="edge3" class="edge"><title>Node3&#45;&gt;Node4</title>
<path fill="none" stroke="midnightblue" d="M448.81,-425.762C465.292,-427.252 482.423,-428.801 497.842,-430.195"/>
<polygon fill="midnightblue" stroke="midnightblue" points="448.927,-422.259 438.652,-424.844 448.297,-429.23 448.927,-422.259"/>
</g>
<!-- Node6 -->
<g id="node6" class="node"><title>Node6</title>
<g id="a_node6"><a xlink:href="structbsc_1_1basic__socket__pipeline.html" target="_top" xlink:title="bsc::basic_socket_pipeline\l\&lt; K, external_process_handler\l\&lt; K, R \&gt; \&gt;">
<polygon fill="white" stroke="black" points="298.5,-345.5 298.5,-386.5 447.5,-386.5 447.5,-345.5 298.5,-345.5"/>
<text text-anchor="start" x="306.5" y="-374.5" font-family="Helvetica,sans-Serif" font-size="10.00">bsc::basic_socket_pipeline</text>
<text text-anchor="start" x="306.5" y="-363.5" font-family="Helvetica,sans-Serif" font-size="10.00">&lt; K, external_process_handler</text>
<text text-anchor="middle" x="373" y="-352.5" font-family="Helvetica,sans-Serif" font-size="10.00">&lt; K, R &gt; &gt;</text>
</a>
</g>
</g>
<!-- Node5&#45;&gt;Node6 -->
<g id="edge5" class="edge"><title>Node5&#45;&gt;Node6</title>
<path fill="none" stroke="midnightblue" d="M233.612,-282.677C251.183,-297.496 272.954,-314.649 294,-328 303.794,-334.213 314.753,-340.126 325.29,-345.358"/>
<polygon fill="midnightblue" stroke="midnightblue" points="235.73,-279.883 225.852,-276.054 231.186,-285.208 235.73,-279.883"/>
</g>
<!-- Node8 -->
<g id="node8" class="node"><title>Node8</title>
<g id="a_node8"><a xlink:href="structbsc_1_1basic__socket__pipeline.html" target="_top" xlink:title="bsc::basic_socket_pipeline\l\&lt; K, process_handler\&lt; K, R \&gt; \&gt;">
<polygon fill="white" stroke="black" points="294.5,-289 294.5,-319 451.5,-319 451.5,-289 294.5,-289"/>
<text text-anchor="start" x="302.5" y="-307" font-family="Helvetica,sans-Serif" font-size="10.00">bsc::basic_socket_pipeline</text>
<text text-anchor="middle" x="373" y="-296" font-family="Helvetica,sans-Serif" font-size="10.00">&lt; K, process_handler&lt; K, R &gt; &gt;</text>
</a>
</g>
</g>
<!-- Node5&#45;&gt;Node8 -->
<g id="edge7" class="edge"><title>Node5&#45;&gt;Node8</title>
<path fill="none" stroke="midnightblue" d="M264.999,-270.983C284.458,-276.987 305.272,-283.41 323.322,-288.979"/>
<polygon fill="midnightblue" stroke="midnightblue" points="265.86,-267.585 255.272,-267.981 263.796,-274.274 265.86,-267.585"/>
</g>
<!-- Node11 -->
<g id="node11" class="node"><title>Node11</title>
<g id="a_node11"><a xlink:href="structbsc_1_1basic__socket__pipeline.html" target="_top" xlink:title="bsc::basic_socket_pipeline\l\&lt; T, process_handler\&lt; T,\l basic_router\&lt; T \&gt; \&gt; \&gt;">
<polygon fill="white" stroke="black" points="306,-229.5 306,-270.5 440,-270.5 440,-229.5 306,-229.5"/>
<text text-anchor="start" x="314" y="-258.5" font-family="Helvetica,sans-Serif" font-size="10.00">bsc::basic_socket_pipeline</text>
<text text-anchor="start" x="314" y="-247.5" font-family="Helvetica,sans-Serif" font-size="10.00">&lt; T, process_handler&lt; T,</text>
<text text-anchor="middle" x="373" y="-236.5" font-family="Helvetica,sans-Serif" font-size="10.00"> basic_router&lt; T &gt; &gt; &gt;</text>
</a>
</g>
</g>
<!-- Node5&#45;&gt;Node11 -->
<g id="edge10" class="edge"><title>Node5&#45;&gt;Node11</title>
<path fill="none" stroke="midnightblue" d="M265.314,-250C278.632,-250 292.575,-250 305.822,-250"/>
<polygon fill="midnightblue" stroke="midnightblue" points="265.273,-246.5 255.272,-250 265.272,-253.5 265.273,-246.5"/>
</g>
<!-- Node13 -->
<g id="node13" class="node"><title>Node13</title>
<g id="a_node13"><a xlink:href="structbsc_1_1basic__socket__pipeline.html" target="_top" xlink:title="bsc::basic_socket_pipeline\l\&lt; T, remote_client\&lt; T, Socket,\l Router \&gt; \&gt;">
<polygon fill="white" stroke="black" points="297.5,-169.5 297.5,-210.5 448.5,-210.5 448.5,-169.5 297.5,-169.5"/>
<text text-anchor="start" x="305.5" y="-198.5" font-family="Helvetica,sans-Serif" font-size="10.00">bsc::basic_socket_pipeline</text>
<text text-anchor="start" x="305.5" y="-187.5" font-family="Helvetica,sans-Serif" font-size="10.00">&lt; T, remote_client&lt; T, Socket,</text>
<text text-anchor="middle" x="373" y="-176.5" font-family="Helvetica,sans-Serif" font-size="10.00"> Router &gt; &gt;</text>
</a>
</g>
</g>
<!-- Node5&#45;&gt;Node13 -->
<g id="edge12" class="edge"><title>Node5&#45;&gt;Node13</title>
<path fill="none" stroke="midnightblue" d="M264.857,-226.735C280.465,-221.384 296.951,-215.731 312.188,-210.507"/>
<polygon fill="midnightblue" stroke="midnightblue" points="263.597,-223.467 255.272,-230.021 265.867,-230.088 263.597,-223.467"/>
</g>
<!-- Node15 -->
<g id="node15" class="node"><title>Node15</title>
<g id="a_node15"><a xlink:href="structbsc_1_1basic__socket__pipeline.html" target="_top" xlink:title="bsc::basic_socket_pipeline\l\&lt; T, Handler \&gt;">
<polygon fill="white" stroke="black" points="306,-121 306,-151 440,-151 440,-121 306,-121"/>
<text text-anchor="start" x="314" y="-139" font-family="Helvetica,sans-Serif" font-size="10.00">bsc::basic_socket_pipeline</text>
<text text-anchor="middle" x="373" y="-128" font-family="Helvetica,sans-Serif" font-size="10.00">&lt; T, Handler &gt;</text>
</a>
</g>
</g>
<!-- Node5&#45;&gt;Node15 -->
<g id="edge14" class="edge"><title>Node5&#45;&gt;Node15</title>
<path fill="none" stroke="midnightblue" d="M254.094,-217.507C255.436,-216.361 256.741,-215.191 258,-214 278.948,-194.171 270.875,-177.241 294,-160 298.657,-156.528 303.823,-153.552 309.216,-151.003"/>
<polygon fill="midnightblue" stroke="midnightblue" points="251.768,-214.883 246.059,-223.808 256.088,-220.391 251.768,-214.883"/>
</g>
<!-- Node16 -->
<g id="node16" class="node"><title>Node16</title>
<g id="a_node16"><a xlink:href="structbsc_1_1timer__pipeline.html" target="_top" xlink:title="bsc::timer_pipeline\&lt; T \&gt;">
<polygon fill="white" stroke="black" points="312,-82.5 312,-101.5 434,-101.5 434,-82.5 312,-82.5"/>
<text text-anchor="middle" x="373" y="-89.5" font-family="Helvetica,sans-Serif" font-size="10.00">bsc::timer_pipeline&lt; T &gt;</text>
</a>
</g>
</g>
<!-- Node5&#45;&gt;Node16 -->
<g id="edge15" class="edge"><title>Node5&#45;&gt;Node16</title>
<path fill="none" stroke="midnightblue" d="M255.756,-216.589C256.53,-215.742 257.279,-214.879 258,-214 288.753,-176.505 258.083,-143.582 294,-111 299.162,-106.318 305.282,-102.74 311.791,-100.013"/>
<polygon fill="midnightblue" stroke="midnightblue" points="253.047,-214.335 248.211,-223.762 257.87,-219.409 253.047,-214.335"/>
</g>
<!-- Node7 -->
<g id="node7" class="node"><title>Node7</title>
<g id="a_node7"><a xlink:href="classbsc_1_1unix__domain__socket__pipeline.html" target="_top" xlink:title="bsc::unix_domain_socket\l_pipeline\&lt; K, R \&gt;">
<polygon fill="white" stroke="black" points="488,-376 488,-406 616,-406 616,-376 488,-376"/>
<text text-anchor="start" x="496" y="-394" font-family="Helvetica,sans-Serif" font-size="10.00">bsc::unix_domain_socket</text>
<text text-anchor="middle" x="552" y="-383" font-family="Helvetica,sans-Serif" font-size="10.00">_pipeline&lt; K, R &gt;</text>
</a>
</g>
</g>
<!-- Node6&#45;&gt;Node7 -->
<g id="edge6" class="edge"><title>Node6&#45;&gt;Node7</title>
<path fill="none" stroke="midnightblue" d="M457.639,-377.813C467.8,-379.249 478.047,-380.696 487.842,-382.079"/>
<polygon fill="midnightblue" stroke="midnightblue" points="457.917,-374.318 447.526,-376.385 456.938,-381.249 457.917,-374.318"/>
</g>
<!-- Node9 -->
<g id="node9" class="node"><title>Node9</title>
<g id="a_node9"><a xlink:href="classbsc_1_1child__process__pipeline.html" target="_top" xlink:title="bsc::child_process\l_pipeline\&lt; K, R \&gt;">
<polygon fill="white" stroke="black" points="503,-327 503,-357 601,-357 601,-327 503,-327"/>
<text text-anchor="start" x="511" y="-345" font-family="Helvetica,sans-Serif" font-size="10.00">bsc::child_process</text>
<text text-anchor="middle" x="552" y="-334" font-family="Helvetica,sans-Serif" font-size="10.00">_pipeline&lt; K, R &gt;</text>
</a>
</g>
</g>
<!-- Node8&#45;&gt;Node9 -->
<g id="edge8" class="edge"><title>Node8&#45;&gt;Node9</title>
<path fill="none" stroke="midnightblue" d="M453.743,-321.12C470.48,-324.713 487.64,-328.397 502.795,-331.651"/>
<polygon fill="midnightblue" stroke="midnightblue" points="454.467,-317.696 443.955,-319.019 452.998,-324.54 454.467,-317.696"/>
</g>
<!-- Node10 -->
<g id="node10" class="node"><title>Node10</title>
<g id="a_node10"><a xlink:href="classbsc_1_1process__pipeline.html" target="_top" xlink:title="bsc::process_pipeline\l\&lt; K, R \&gt;">
<polygon fill="white" stroke="black" points="496.5,-278 496.5,-308 607.5,-308 607.5,-278 496.5,-278"/>
<text text-anchor="start" x="504.5" y="-296" font-family="Helvetica,sans-Serif" font-size="10.00">bsc::process_pipeline</text>
<text text-anchor="middle" x="552" y="-285" font-family="Helvetica,sans-Serif" font-size="10.00">&lt; K, R &gt;</text>
</a>
</g>
</g>
<!-- Node8&#45;&gt;Node10 -->
<g id="edge9" class="edge"><title>Node8&#45;&gt;Node10</title>
<path fill="none" stroke="midnightblue" d="M461.907,-298.537C473.624,-297.809 485.355,-297.08 496.278,-296.401"/>
<polygon fill="midnightblue" stroke="midnightblue" points="461.398,-295.062 451.635,-299.175 461.833,-302.048 461.398,-295.062"/>
</g>
<!-- Node12 -->
<g id="node12" class="node"><title>Node12</title>
<g id="a_node12"><a xlink:href="classbsc_1_1child__process__pipeline.html" target="_top" xlink:title="bsc::child_process\l_pipeline\&lt; T, basic\l_router\&lt; T \&gt; \&gt;">
<polygon fill="white" stroke="black" points="502.5,-218.5 502.5,-259.5 601.5,-259.5 601.5,-218.5 502.5,-218.5"/>
<text text-anchor="start" x="510.5" y="-247.5" font-family="Helvetica,sans-Serif" font-size="10.00">bsc::child_process</text>
<text text-anchor="start" x="510.5" y="-236.5" font-family="Helvetica,sans-Serif" font-size="10.00">_pipeline&lt; T, basic</text>
<text text-anchor="middle" x="552" y="-225.5" font-family="Helvetica,sans-Serif" font-size="10.00">_router&lt; T &gt; &gt;</text>
</a>
</g>
</g>
<!-- Node11&#45;&gt;Node12 -->
<g id="edge11" class="edge"><title>Node11&#45;&gt;Node12</title>
<path fill="none" stroke="midnightblue" d="M450.427,-245.25C468.029,-244.156 486.281,-243.022 502.326,-242.025"/>
<polygon fill="midnightblue" stroke="midnightblue" points="449.924,-241.775 440.16,-245.888 450.358,-248.761 449.924,-241.775"/>
</g>
<!-- Node14 -->
<g id="node14" class="node"><title>Node14</title>
<g id="a_node14"><a xlink:href="classbsc_1_1socket__pipeline.html" target="_top" xlink:title="bsc::socket_pipeline\l\&lt; T, Socket, Router \&gt;">
<polygon fill="white" stroke="black" points="495.5,-170 495.5,-200 608.5,-200 608.5,-170 495.5,-170"/>
<text text-anchor="start" x="503.5" y="-188" font-family="Helvetica,sans-Serif" font-size="10.00">bsc::socket_pipeline</text>
<text text-anchor="middle" x="552" y="-177" font-family="Helvetica,sans-Serif" font-size="10.00">&lt; T, Socket, Router &gt;</text>
</a>
</g>
</g>
<!-- Node13&#45;&gt;Node14 -->
<g id="edge13" class="edge"><title>Node13&#45;&gt;Node14</title>
<path fill="none" stroke="midnightblue" d="M458.908,-187.601C471.289,-187.252 483.765,-186.899 495.362,-186.572"/>
<polygon fill="midnightblue" stroke="midnightblue" points="458.448,-184.113 448.551,-187.894 458.646,-191.11 458.448,-184.113"/>
</g>
</g>
</svg>
