<?xml version="1.0" encoding="UTF-8" standalone="no"?>
<!DOCTYPE svg PUBLIC "-//W3C//DTD SVG 1.1//EN"
 "http://www.w3.org/Graphics/SVG/1.1/DTD/svg11.dtd">
<!-- Generated by graphviz version 2.36.0 (20140111.2315)
 -->
<!-- Title: Graphical Class Hierarchy Pages: 1 -->
<svg width="204pt" height="87pt"
 viewBox="0.00 0.00 204.00 87.00" xmlns="http://www.w3.org/2000/svg" xmlns:xlink="http://www.w3.org/1999/xlink">
<g id="graph0" class="graph" transform="scale(1 1) rotate(0) translate(4 83)">
<title>Graphical Class Hierarchy</title>
<polygon fill="white" stroke="none" points="-4,4 -4,-83 200,-83 200,4 -4,4"/>
<!-- Node1 -->
<g id="node1" class="node"><title>Node1</title>
<polygon fill="white" stroke="#bfbfbf" points="0,-29.5 0,-48.5 38,-48.5 38,-29.5 0,-29.5"/>
<text text-anchor="middle" x="19" y="-36.5" font-family="Helvetica,sans-Serif" font-size="10.00">hash</text>
</g>
<!-- Node2 -->
<g id="node2" class="node"><title>Node2</title>
<g id="a_node2"><a xlink:href="structstd_1_1hash_3_01bsc_1_1kernel__type_01_4.html" target="_top" xlink:title="std::hash\&lt; bsc::kernel\l_type \&gt;">
<polygon fill="white" stroke="black" points="78,-49 78,-79 192,-79 192,-49 78,-49"/>
<text text-anchor="start" x="86" y="-67" font-family="Helvetica,sans-Serif" font-size="10.00">std::hash&lt; bsc::kernel</text>
<text text-anchor="middle" x="135" y="-56" font-family="Helvetica,sans-Serif" font-size="10.00">_type &gt;</text>
</a>
</g>
</g>
<!-- Node1&#45;&gt;Node2 -->
<g id="edge1" class="edge"><title>Node1&#45;&gt;Node2</title>
<path fill="none" stroke="midnightblue" d="M47.942,-45.1276C56.9418,-47.1013 67.2609,-49.3642 77.5558,-51.6219"/>
<polygon fill="midnightblue" stroke="midnightblue" points="48.5813,-41.6847 38.0636,-42.9613 47.0818,-48.5222 48.5813,-41.6847"/>
</g>
<!-- Node3 -->
<g id="node3" class="node"><title>Node3</title>
<g id="a_node3"><a xlink:href="structstd_1_1hash_3_01bsc_1_1position__in__tree_3_01Addr_01_4_01_4.html" target="_top" xlink:title="std::hash\&lt; bsc::position\l_in_tree\&lt; Addr \&gt; \&gt;">
<polygon fill="white" stroke="black" points="74,-0 74,-30 196,-30 196,-0 74,-0"/>
<text text-anchor="start" x="82" y="-18" font-family="Helvetica,sans-Serif" font-size="10.00">std::hash&lt; bsc::position</text>
<text text-anchor="middle" x="135" y="-7" font-family="Helvetica,sans-Serif" font-size="10.00">_in_tree&lt; Addr &gt; &gt;</text>
</a>
</g>
</g>
<!-- Node1&#45;&gt;Node3 -->
<g id="edge2" class="edge"><title>Node1&#45;&gt;Node3</title>
<path fill="none" stroke="midnightblue" d="M48.024,-33.1002C55.8386,-31.455 64.6431,-29.6015 73.5603,-27.7242"/>
<polygon fill="midnightblue" stroke="midnightblue" points="47.1281,-29.712 38.0636,-35.1971 48.5702,-36.5619 47.1281,-29.712"/>
</g>
</g>
</svg>
