<?xml version="1.0" encoding="UTF-8" standalone="no"?>
<!DOCTYPE svg PUBLIC "-//W3C//DTD SVG 1.1//EN"
 "http://www.w3.org/Graphics/SVG/1.1/DTD/svg11.dtd">
<!-- Generated by graphviz version 2.36.0 (20140111.2315)
 -->
<!-- Title: Graphical Class Hierarchy Pages: 1 -->
<svg width="684pt" height="1188pt"
 viewBox="0.00 0.00 684.00 1188.00" xmlns="http://www.w3.org/2000/svg" xmlns:xlink="http://www.w3.org/1999/xlink">
<g id="graph0" class="graph" transform="scale(1 1) rotate(0) translate(4 1184)">
<title>Graphical Class Hierarchy</title>
<polygon fill="white" stroke="none" points="-4,4 -4,-1184 680,-1184 680,4 -4,4"/>
<!-- Node1 -->
<g id="node1" class="node"><title>Node1</title>
<g id="a_node1"><a xlink:href="classbsc_1_1kernel__base.html" target="_top" xlink:title="bsc::kernel_base">
<polygon fill="white" stroke="black" points="4.5,-582.5 4.5,-601.5 95.5,-601.5 95.5,-582.5 4.5,-582.5"/>
<text text-anchor="middle" x="50" y="-589.5" font-family="Helvetica,sans-Serif" font-size="10.00">bsc::kernel_base</text>
</a>
</g>
</g>
<!-- Node2 -->
<g id="node2" class="node"><title>Node2</title>
<g id="a_node2"><a xlink:href="classbsc_1_1mobile__kernel.html" target="_top" xlink:title="bsc::mobile_kernel">
<polygon fill="white" stroke="black" points="136,-563.5 136,-582.5 234,-582.5 234,-563.5 136,-563.5"/>
<text text-anchor="middle" x="185" y="-570.5" font-family="Helvetica,sans-Serif" font-size="10.00">bsc::mobile_kernel</text>
</a>
</g>
</g>
<!-- Node1&#45;&gt;Node2 -->
<g id="edge1" class="edge"><title>Node1&#45;&gt;Node2</title>
<path fill="none" stroke="midnightblue" d="M105.785,-584.174C115.663,-582.762 125.898,-581.3 135.58,-579.917"/>
<polygon fill="midnightblue" stroke="midnightblue" points="105.062,-580.741 95.6571,-585.62 106.052,-587.671 105.062,-580.741"/>
</g>
<!-- Node3 -->
<g id="node3" class="node"><title>Node3</title>
<g id="a_node3"><a xlink:href="structbsc_1_1kernel.html" target="_top" xlink:title="bsc::kernel">
<polygon fill="white" stroke="black" points="270.5,-563.5 270.5,-582.5 335.5,-582.5 335.5,-563.5 270.5,-563.5"/>
<text text-anchor="middle" x="303" y="-570.5" font-family="Helvetica,sans-Serif" font-size="10.00">bsc::kernel</text>
</a>
</g>
</g>
<!-- Node2&#45;&gt;Node3 -->
<g id="edge2" class="edge"><title>Node2&#45;&gt;Node3</title>
<path fill="none" stroke="midnightblue" d="M244.283,-573C253.263,-573 262.233,-573 270.334,-573"/>
<polygon fill="midnightblue" stroke="midnightblue" points="244.187,-569.5 234.187,-573 244.187,-576.5 244.187,-569.5"/>
</g>
<!-- Node4 -->
<g id="node4" class="node"><title>Node4</title>
<g id="a_node4"><a xlink:href="structautoreg_1_1ACF__generator.html" target="_top" xlink:title="autoreg::ACF_generator\&lt; T \&gt;">
<polygon fill="white" stroke="black" points="372.5,-1160.5 372.5,-1179.5 517.5,-1179.5 517.5,-1160.5 372.5,-1160.5"/>
<text text-anchor="middle" x="445" y="-1167.5" font-family="Helvetica,sans-Serif" font-size="10.00">autoreg::ACF_generator&lt; T &gt;</text>
</a>
</g>
</g>
<!-- Node3&#45;&gt;Node4 -->
<g id="edge3" class="edge"><title>Node3&#45;&gt;Node4</title>
<path fill="none" stroke="midnightblue" d="M305.02,-592.79C310.167,-689.316 334.525,-1107.83 372,-1151 375.305,-1154.81 379.275,-1157.9 383.629,-1160.4"/>
<polygon fill="midnightblue" stroke="midnightblue" points="308.508,-592.464 304.488,-582.662 301.518,-592.831 308.508,-592.464"/>
</g>
<!-- Node5 -->
<g id="node5" class="node"><title>Node5</title>
<g id="a_node5"><a xlink:href="structautoreg_1_1Autoreg__coefs.html" target="_top" xlink:title="autoreg::Autoreg_coefs\&lt; T \&gt;">
<polygon fill="white" stroke="black" points="374,-1122.5 374,-1141.5 516,-1141.5 516,-1122.5 374,-1122.5"/>
<text text-anchor="middle" x="445" y="-1129.5" font-family="Helvetica,sans-Serif" font-size="10.00">autoreg::Autoreg_coefs&lt; T &gt;</text>
</a>
</g>
</g>
<!-- Node3&#45;&gt;Node5 -->
<g id="edge4" class="edge"><title>Node3&#45;&gt;Node5</title>
<path fill="none" stroke="midnightblue" d="M303.646,-593.098C302.511,-681.337 302.461,-1033.56 372,-1113 375.321,-1116.79 379.301,-1119.87 383.662,-1122.37"/>
<polygon fill="midnightblue" stroke="midnightblue" points="307.149,-592.909 303.8,-582.857 300.15,-592.804 307.149,-592.909"/>
</g>
<!-- Node6 -->
<g id="node6" class="node"><title>Node6</title>
<g id="a_node6"><a xlink:href="classautoreg_1_1Autoreg__model.html" target="_top" xlink:title="autoreg::Autoreg_model\&lt; T \&gt;">
<polygon fill="white" stroke="black" points="373,-1084.5 373,-1103.5 517,-1103.5 517,-1084.5 373,-1084.5"/>
<text text-anchor="middle" x="445" y="-1091.5" font-family="Helvetica,sans-Serif" font-size="10.00">autoreg::Autoreg_model&lt; T &gt;</text>
</a>
</g>
</g>
<!-- Node3&#45;&gt;Node6 -->
<g id="edge5" class="edge"><title>Node3&#45;&gt;Node6</title>
<path fill="none" stroke="midnightblue" d="M303.891,-592.675C303.83,-676.187 307.793,-1000.41 372,-1074 375.753,-1078.3 380.342,-1081.71 385.37,-1084.42"/>
<polygon fill="midnightblue" stroke="midnightblue" points="307.391,-592.55 303.92,-582.539 300.391,-592.529 307.391,-592.55"/>
</g>
<!-- Node7 -->
<g id="node7" class="node"><title>Node7</title>
<g id="a_node7"><a xlink:href="structautoreg_1_1Generator1.html" target="_top" xlink:title="autoreg::Generator1\l\&lt; T, Grid \&gt;">
<polygon fill="white" stroke="black" points="393.5,-1035 393.5,-1065 496.5,-1065 496.5,-1035 393.5,-1035"/>
<text text-anchor="start" x="401.5" y="-1053" font-family="Helvetica,sans-Serif" font-size="10.00">autoreg::Generator1</text>
<text text-anchor="middle" x="445" y="-1042" font-family="Helvetica,sans-Serif" font-size="10.00">&lt; T, Grid &gt;</text>
</a>
</g>
</g>
<!-- Node3&#45;&gt;Node7 -->
<g id="edge6" class="edge"><title>Node3&#45;&gt;Node7</title>
<path fill="none" stroke="midnightblue" d="M304.343,-593.106C306.079,-671.789 316.187,-957.782 372,-1025 377.663,-1031.82 385.294,-1036.78 393.475,-1040.39"/>
<polygon fill="midnightblue" stroke="midnightblue" points="307.834,-592.614 304.137,-582.686 300.836,-592.753 307.834,-592.614"/>
</g>
<!-- Node8 -->
<g id="node8" class="node"><title>Node8</title>
<g id="a_node8"><a xlink:href="structautoreg_1_1Solve__Yule__Walker.html" target="_top" xlink:title="autoreg::Solve_Yule\l_Walker\&lt; T \&gt;">
<polygon fill="white" stroke="black" points="393,-986 393,-1016 497,-1016 497,-986 393,-986"/>
<text text-anchor="start" x="401" y="-1004" font-family="Helvetica,sans-Serif" font-size="10.00">autoreg::Solve_Yule</text>
<text text-anchor="middle" x="445" y="-993" font-family="Helvetica,sans-Serif" font-size="10.00">_Walker&lt; T &gt;</text>
</a>
</g>
</g>
<!-- Node3&#45;&gt;Node8 -->
<g id="edge7" class="edge"><title>Node3&#45;&gt;Node8</title>
<path fill="none" stroke="midnightblue" d="M304.736,-592.778C307.823,-665.491 321.992,-916.854 372,-976 377.553,-982.568 384.928,-987.412 392.842,-990.985"/>
<polygon fill="midnightblue" stroke="midnightblue" points="308.229,-592.55 304.331,-582.698 301.235,-592.83 308.229,-592.55"/>
</g>
<!-- Node9 -->
<g id="node9" class="node"><title>Node9</title>
<g id="a_node9"><a xlink:href="structautoreg_1_1Wave__surface__generator.html" target="_top" xlink:title="autoreg::Wave_surface\l_generator\&lt; T, Grid \&gt;">
<polygon fill="white" stroke="black" points="386,-937 386,-967 504,-967 504,-937 386,-937"/>
<text text-anchor="start" x="394" y="-955" font-family="Helvetica,sans-Serif" font-size="10.00">autoreg::Wave_surface</text>
<text text-anchor="middle" x="445" y="-944" font-family="Helvetica,sans-Serif" font-size="10.00">_generator&lt; T, Grid &gt;</text>
</a>
</g>
</g>
<!-- Node3&#45;&gt;Node9 -->
<g id="edge8" class="edge"><title>Node3&#45;&gt;Node9</title>
<path fill="none" stroke="midnightblue" d="M305.251,-592.894C309.845,-659.896 327.871,-875.989 372,-927 375.896,-931.503 380.647,-935.196 385.831,-938.223"/>
<polygon fill="midnightblue" stroke="midnightblue" points="308.717,-592.253 304.566,-582.505 301.732,-592.714 308.717,-592.253"/>
</g>
<!-- Node10 -->
<g id="node10" class="node"><title>Node10</title>
<g id="a_node10"><a xlink:href="structAutoreg__app.html" target="_top" xlink:title="Autoreg_app">
<polygon fill="white" stroke="black" points="409.5,-898.5 409.5,-917.5 480.5,-917.5 480.5,-898.5 409.5,-898.5"/>
<text text-anchor="middle" x="445" y="-905.5" font-family="Helvetica,sans-Serif" font-size="10.00">Autoreg_app</text>
</a>
</g>
</g>
<!-- Node3&#45;&gt;Node10 -->
<g id="edge9" class="edge"><title>Node3&#45;&gt;Node10</title>
<path fill="none" stroke="midnightblue" d="M305.6,-592.892C311.017,-655.313 330.68,-845.732 372,-889 381.643,-899.097 395.964,-904.057 409.3,-906.416"/>
<polygon fill="midnightblue" stroke="midnightblue" points="309.076,-592.463 304.752,-582.79 302.101,-593.048 309.076,-592.463"/>
</g>
<!-- Node11 -->
<g id="node11" class="node"><title>Node11</title>
<g id="a_node11"><a xlink:href="structBig__kernel.html" target="_top" xlink:title="Big_kernel\&lt; Size \&gt;">
<polygon fill="white" stroke="black" points="395,-860.5 395,-879.5 495,-879.5 495,-860.5 395,-860.5"/>
<text text-anchor="middle" x="445" y="-867.5" font-family="Helvetica,sans-Serif" font-size="10.00">Big_kernel&lt; Size &gt;</text>
</a>
</g>
</g>
<!-- Node3&#45;&gt;Node11 -->
<g id="edge10" class="edge"><title>Node3&#45;&gt;Node11</title>
<path fill="none" stroke="midnightblue" d="M306.254,-593.072C313.099,-650.506 335.44,-813.772 372,-851 378.25,-857.364 386.362,-861.678 394.877,-864.585"/>
<polygon fill="midnightblue" stroke="midnightblue" points="309.69,-592.314 305.06,-582.784 302.736,-593.121 309.69,-592.314"/>
</g>
<!-- Node12 -->
<g id="node12" class="node"><title>Node12</title>
<g id="a_node12"><a xlink:href="classbsc_1_1discovery__timer.html" target="_top" xlink:title="bsc::discovery_timer">
<polygon fill="white" stroke="black" points="391.5,-822.5 391.5,-841.5 498.5,-841.5 498.5,-822.5 391.5,-822.5"/>
<text text-anchor="middle" x="445" y="-829.5" font-family="Helvetica,sans-Serif" font-size="10.00">bsc::discovery_timer</text>
</a>
</g>
</g>
<!-- Node3&#45;&gt;Node12 -->
<g id="edge11" class="edge"><title>Node3&#45;&gt;Node12</title>
<path fill="none" stroke="midnightblue" d="M303.468,-593.049C303.396,-638.875 309.904,-752.017 372,-813 377.442,-818.344 384.2,-822.235 391.378,-825.057"/>
<polygon fill="midnightblue" stroke="midnightblue" points="306.969,-592.966 303.598,-582.922 299.969,-592.876 306.969,-592.966"/>
</g>
<!-- Node13 -->
<g id="node13" class="node"><title>Node13</title>
<g id="a_node13"><a xlink:href="classbsc_1_1hierarchy__kernel.html" target="_top" xlink:title="bsc::hierarchy_kernel">
<polygon fill="white" stroke="black" points="390,-784.5 390,-803.5 500,-803.5 500,-784.5 390,-784.5"/>
<text text-anchor="middle" x="445" y="-791.5" font-family="Helvetica,sans-Serif" font-size="10.00">bsc::hierarchy_kernel</text>
</a>
</g>
</g>
<!-- Node3&#45;&gt;Node13 -->
<g id="edge12" class="edge"><title>Node3&#45;&gt;Node13</title>
<path fill="none" stroke="midnightblue" d="M304.723,-592.858C307.3,-633.27 319.006,-725.429 372,-775 377.098,-779.769 383.249,-783.371 389.782,-786.087"/>
<polygon fill="midnightblue" stroke="midnightblue" points="308.209,-592.51 304.203,-582.702 301.219,-592.868 308.209,-592.51"/>
</g>
<!-- Node14 -->
<g id="node14" class="node"><title>Node14</title>
<g id="a_node14"><a xlink:href="structbsc_1_1Map.html" target="_top" xlink:title="bsc::Map\&lt; F, G, I \&gt;">
<polygon fill="white" stroke="black" points="393,-746.5 393,-765.5 497,-765.5 497,-746.5 393,-746.5"/>
<text text-anchor="middle" x="445" y="-753.5" font-family="Helvetica,sans-Serif" font-size="10.00">bsc::Map&lt; F, G, I &gt;</text>
</a>
</g>
</g>
<!-- Node3&#45;&gt;Node14 -->
<g id="edge13" class="edge"><title>Node3&#45;&gt;Node14</title>
<path fill="none" stroke="midnightblue" d="M306.637,-592.948C312.253,-627.324 328.632,-697.712 372,-736 377.933,-741.238 385.126,-745.115 392.642,-747.982"/>
<polygon fill="midnightblue" stroke="midnightblue" points="310.056,-592.145 305.122,-582.769 303.133,-593.176 310.056,-592.145"/>
</g>
<!-- Node15 -->
<g id="node15" class="node"><title>Node15</title>
<g id="a_node15"><a xlink:href="structbsc_1_1Map_1_1Worker.html" target="_top" xlink:title="bsc::Map\&lt; F, G, I \&gt;\l::Worker">
<polygon fill="white" stroke="black" points="393,-697 393,-727 497,-727 497,-697 393,-697"/>
<text text-anchor="start" x="401" y="-715" font-family="Helvetica,sans-Serif" font-size="10.00">bsc::Map&lt; F, G, I &gt;</text>
<text text-anchor="middle" x="445" y="-704" font-family="Helvetica,sans-Serif" font-size="10.00">::Worker</text>
</a>
</g>
</g>
<!-- Node3&#45;&gt;Node15 -->
<g id="edge14" class="edge"><title>Node3&#45;&gt;Node15</title>
<path fill="none" stroke="midnightblue" d="M310.724,-592.367C320.437,-617.61 340.732,-661.529 372,-687 378.155,-692.014 385.381,-696.051 392.836,-699.294"/>
<polygon fill="midnightblue" stroke="midnightblue" points="313.943,-590.979 307.208,-582.8 307.373,-593.393 313.943,-590.979"/>
</g>
<!-- Node16 -->
<g id="node16" class="node"><title>Node16</title>
<g id="a_node16"><a xlink:href="classbsc_1_1network__master.html" target="_top" xlink:title="bsc::network_master">
<polygon fill="white" stroke="black" points="391,-658.5 391,-677.5 499,-677.5 499,-658.5 391,-658.5"/>
<text text-anchor="middle" x="445" y="-665.5" font-family="Helvetica,sans-Serif" font-size="10.00">bsc::network_master</text>
</a>
</g>
</g>
<!-- Node3&#45;&gt;Node16 -->
<g id="edge15" class="edge"><title>Node3&#45;&gt;Node16</title>
<path fill="none" stroke="midnightblue" d="M315.635,-591.257C327.672,-608.663 348.049,-634.334 372,-649 378.284,-652.848 385.34,-655.925 392.511,-658.382"/>
<polygon fill="midnightblue" stroke="midnightblue" points="318.296,-588.938 309.836,-582.559 312.471,-592.821 318.296,-588.938"/>
</g>
<!-- Node17 -->
<g id="node17" class="node"><title>Node17</title>
<g id="a_node17"><a xlink:href="classbsc_1_1network__timer.html" target="_top" xlink:title="bsc::network_timer">
<polygon fill="white" stroke="black" points="395,-620.5 395,-639.5 495,-639.5 495,-620.5 395,-620.5"/>
<text text-anchor="middle" x="445" y="-627.5" font-family="Helvetica,sans-Serif" font-size="10.00">bsc::network_timer</text>
</a>
</g>
</g>
<!-- Node3&#45;&gt;Node17 -->
<g id="edge16" class="edge"><title>Node3&#45;&gt;Node17</title>
<path fill="none" stroke="midnightblue" d="M327.215,-587.897C340.031,-595.62 356.46,-604.725 372,-611 381.11,-614.679 391.157,-617.848 400.781,-620.486"/>
<polygon fill="midnightblue" stroke="midnightblue" points="328.935,-584.845 318.586,-582.576 325.261,-590.804 328.935,-584.845"/>
</g>
<!-- Node18 -->
<g id="node18" class="node"><title>Node18</title>
<g id="a_node18"><a xlink:href="classbsc_1_1Notification.html" target="_top" xlink:title="bsc::Notification">
<polygon fill="white" stroke="black" points="401,-582.5 401,-601.5 489,-601.5 489,-582.5 401,-582.5"/>
<text text-anchor="middle" x="445" y="-589.5" font-family="Helvetica,sans-Serif" font-size="10.00">bsc::Notification</text>
</a>
</g>
</g>
<!-- Node3&#45;&gt;Node18 -->
<g id="edge17" class="edge"><title>Node3&#45;&gt;Node18</title>
<path fill="none" stroke="midnightblue" d="M346.157,-578.721C363.483,-581.073 383.529,-583.793 400.947,-586.157"/>
<polygon fill="midnightblue" stroke="midnightblue" points="346.148,-575.188 335.768,-577.311 345.207,-582.124 346.148,-575.188"/>
</g>
<!-- Node19 -->
<g id="node19" class="node"><title>Node19</title>
<g id="a_node19"><a xlink:href="classbsc_1_1probe.html" target="_top" xlink:title="bsc::probe">
<polygon fill="white" stroke="black" points="414,-544.5 414,-563.5 476,-563.5 476,-544.5 414,-544.5"/>
<text text-anchor="middle" x="445" y="-551.5" font-family="Helvetica,sans-Serif" font-size="10.00">bsc::probe</text>
</a>
</g>
</g>
<!-- Node3&#45;&gt;Node19 -->
<g id="edge18" class="edge"><title>Node3&#45;&gt;Node19</title>
<path fill="none" stroke="midnightblue" d="M345.782,-567.33C367.648,-564.362 393.926,-560.796 413.797,-558.099"/>
<polygon fill="midnightblue" stroke="midnightblue" points="345.207,-563.875 335.768,-568.689 346.148,-570.812 345.207,-563.875"/>
</g>
<!-- Node20 -->
<g id="node20" class="node"><title>Node20</title>
<g id="a_node20"><a xlink:href="classbsc_1_1prober.html" target="_top" xlink:title="bsc::prober">
<polygon fill="white" stroke="black" points="412.5,-506.5 412.5,-525.5 477.5,-525.5 477.5,-506.5 412.5,-506.5"/>
<text text-anchor="middle" x="445" y="-513.5" font-family="Helvetica,sans-Serif" font-size="10.00">bsc::prober</text>
</a>
</g>
</g>
<!-- Node3&#45;&gt;Node20 -->
<g id="edge19" class="edge"><title>Node3&#45;&gt;Node20</title>
<path fill="none" stroke="midnightblue" d="M327.215,-558.103C340.031,-550.38 356.46,-541.275 372,-535 384.827,-529.82 399.509,-525.651 412.255,-522.553"/>
<polygon fill="midnightblue" stroke="midnightblue" points="325.261,-555.196 318.586,-563.424 328.935,-561.155 325.261,-555.196"/>
</g>
<!-- Node21 -->
<g id="node21" class="node"><title>Node21</title>
<g id="a_node21"><a xlink:href="classbsc_1_1resident__kernel.html" target="_top" xlink:title="bsc::resident_kernel">
<polygon fill="white" stroke="black" points="393,-468.5 393,-487.5 497,-487.5 497,-468.5 393,-468.5"/>
<text text-anchor="middle" x="445" y="-475.5" font-family="Helvetica,sans-Serif" font-size="10.00">bsc::resident_kernel</text>
</a>
</g>
</g>
<!-- Node3&#45;&gt;Node21 -->
<g id="edge20" class="edge"><title>Node3&#45;&gt;Node21</title>
<path fill="none" stroke="midnightblue" d="M315.635,-554.743C327.672,-537.337 348.049,-511.666 372,-497 378.395,-493.084 385.587,-489.968 392.888,-487.489"/>
<polygon fill="midnightblue" stroke="midnightblue" points="312.471,-553.179 309.836,-563.441 318.296,-557.062 312.471,-553.179"/>
</g>
<!-- Node23 -->
<g id="node23" class="node"><title>Node23</title>
<g id="a_node23"><a xlink:href="structDummy__kernel.html" target="_top" xlink:title="Dummy_kernel">
<polygon fill="white" stroke="black" points="403.5,-430.5 403.5,-449.5 486.5,-449.5 486.5,-430.5 403.5,-430.5"/>
<text text-anchor="middle" x="445" y="-437.5" font-family="Helvetica,sans-Serif" font-size="10.00">Dummy_kernel</text>
</a>
</g>
</g>
<!-- Node3&#45;&gt;Node23 -->
<g id="edge22" class="edge"><title>Node3&#45;&gt;Node23</title>
<path fill="none" stroke="midnightblue" d="M310.299,-553.653C319.638,-528.069 339.624,-483.383 372,-459 381.088,-452.156 392.435,-447.772 403.416,-444.966"/>
<polygon fill="midnightblue" stroke="midnightblue" points="306.912,-552.739 306.944,-563.334 313.526,-555.032 306.912,-552.739"/>
</g>
<!-- Node24 -->
<g id="node24" class="node"><title>Node24</title>
<g id="a_node24"><a xlink:href="structGood__kernel.html" target="_top" xlink:title="Good_kernel">
<polygon fill="white" stroke="black" points="409.5,-392.5 409.5,-411.5 480.5,-411.5 480.5,-392.5 409.5,-392.5"/>
<text text-anchor="middle" x="445" y="-399.5" font-family="Helvetica,sans-Serif" font-size="10.00">Good_kernel</text>
</a>
</g>
</g>
<!-- Node3&#45;&gt;Node24 -->
<g id="edge23" class="edge"><title>Node3&#45;&gt;Node24</title>
<path fill="none" stroke="midnightblue" d="M307.181,-553.43C313.512,-520.939 330.804,-455.987 372,-421 382.347,-412.213 396.318,-407.438 409.2,-404.862"/>
<polygon fill="midnightblue" stroke="midnightblue" points="303.701,-553.005 305.378,-563.466 310.591,-554.243 303.701,-553.005"/>
</g>
<!-- Node27 -->
<g id="node27" class="node"><title>Node27</title>
<g id="a_node27"><a xlink:href="structKernel__that__carries__its__parent.html" target="_top" xlink:title="Kernel_that_carries\l_its_parent">
<polygon fill="white" stroke="black" points="394.5,-343 394.5,-373 495.5,-373 495.5,-343 394.5,-343"/>
<text text-anchor="start" x="402.5" y="-361" font-family="Helvetica,sans-Serif" font-size="10.00">Kernel_that_carries</text>
<text text-anchor="middle" x="445" y="-350" font-family="Helvetica,sans-Serif" font-size="10.00">_its_parent</text>
</a>
</g>
</g>
<!-- Node3&#45;&gt;Node27 -->
<g id="edge26" class="edge"><title>Node3&#45;&gt;Node27</title>
<path fill="none" stroke="midnightblue" d="M305.598,-552.807C309.702,-514.439 323.953,-430.593 372,-383 378.205,-376.854 385.995,-372.215 394.142,-368.715"/>
<polygon fill="midnightblue" stroke="midnightblue" points="302.075,-552.88 304.624,-563.164 309.045,-553.536 302.075,-552.88"/>
</g>
<!-- Node28 -->
<g id="node28" class="node"><title>Node28</title>
<g id="a_node28"><a xlink:href="structLauncher.html" target="_top" xlink:title="Launcher">
<polygon fill="white" stroke="black" points="417,-304.5 417,-323.5 473,-323.5 473,-304.5 417,-304.5"/>
<text text-anchor="middle" x="445" y="-311.5" font-family="Helvetica,sans-Serif" font-size="10.00">Launcher</text>
</a>
</g>
</g>
<!-- Node3&#45;&gt;Node28 -->
<g id="edge27" class="edge"><title>Node3&#45;&gt;Node28</title>
<path fill="none" stroke="midnightblue" d="M303.468,-552.951C303.396,-507.125 309.904,-393.983 372,-333 383.806,-321.405 401.806,-316.655 416.855,-314.804"/>
<polygon fill="midnightblue" stroke="midnightblue" points="299.969,-553.124 303.598,-563.078 306.969,-553.034 299.969,-553.124"/>
</g>
<!-- Node29 -->
<g id="node29" class="node"><title>Node29</title>
<g id="a_node29"><a xlink:href="classMain.html" target="_top" xlink:title="Main">
<polygon fill="white" stroke="black" points="426,-266.5 426,-285.5 464,-285.5 464,-266.5 426,-266.5"/>
<text text-anchor="middle" x="445" y="-273.5" font-family="Helvetica,sans-Serif" font-size="10.00">Main</text>
</a>
</g>
</g>
<!-- Node3&#45;&gt;Node29 -->
<g id="edge28" class="edge"><title>Node3&#45;&gt;Node29</title>
<path fill="none" stroke="midnightblue" d="M306.254,-552.928C313.099,-495.494 335.44,-332.228 372,-295 386.04,-280.703 409.473,-276.754 425.778,-275.863"/>
<polygon fill="midnightblue" stroke="midnightblue" points="302.736,-552.879 305.06,-563.216 309.69,-553.686 302.736,-552.879"/>
</g>
<!-- Node30 -->
<g id="node30" class="node"><title>Node30</title>
<g id="a_node30"><a xlink:href="structSender.html" target="_top" xlink:title="Sender">
<polygon fill="white" stroke="black" points="421.5,-228.5 421.5,-247.5 468.5,-247.5 468.5,-228.5 421.5,-228.5"/>
<text text-anchor="middle" x="445" y="-235.5" font-family="Helvetica,sans-Serif" font-size="10.00">Sender</text>
</a>
</g>
</g>
<!-- Node3&#45;&gt;Node30 -->
<g id="edge29" class="edge"><title>Node3&#45;&gt;Node30</title>
<path fill="none" stroke="midnightblue" d="M305.6,-553.108C311.017,-490.687 330.68,-300.268 372,-257 384.679,-243.724 405.445,-239.33 421.425,-238.049"/>
<polygon fill="midnightblue" stroke="midnightblue" points="302.101,-552.952 304.752,-563.21 309.076,-553.537 302.101,-552.952"/>
</g>
<!-- Node31 -->
<g id="node31" class="node"><title>Node31</title>
<g id="a_node31"><a xlink:href="structSleepy__kernel.html" target="_top" xlink:title="Sleepy_kernel">
<polygon fill="white" stroke="black" points="406,-190.5 406,-209.5 484,-209.5 484,-190.5 406,-190.5"/>
<text text-anchor="middle" x="445" y="-197.5" font-family="Helvetica,sans-Serif" font-size="10.00">Sleepy_kernel</text>
</a>
</g>
</g>
<!-- Node3&#45;&gt;Node31 -->
<g id="edge30" class="edge"><title>Node3&#45;&gt;Node31</title>
<path fill="none" stroke="midnightblue" d="M305.082,-553.394C309.172,-486.461 325.865,-268.395 372,-219 380.736,-209.647 393.483,-204.686 405.832,-202.119"/>
<polygon fill="midnightblue" stroke="midnightblue" points="301.585,-553.244 304.496,-563.432 308.573,-553.653 301.585,-553.244"/>
</g>
<!-- Node32 -->
<g id="node32" class="node"><title>Node32</title>
<g id="a_node32"><a xlink:href="structSpec__app.html" target="_top" xlink:title="Spec_app">
<polygon fill="white" stroke="black" points="415,-152.5 415,-171.5 475,-171.5 475,-152.5 415,-152.5"/>
<text text-anchor="middle" x="445" y="-159.5" font-family="Helvetica,sans-Serif" font-size="10.00">Spec_app</text>
</a>
</g>
</g>
<!-- Node3&#45;&gt;Node32 -->
<g id="edge31" class="edge"><title>Node3&#45;&gt;Node32</title>
<path fill="none" stroke="midnightblue" d="M304.71,-552.722C307.656,-480.379 321.248,-236.329 372,-181 382.836,-169.187 400.067,-164.36 414.956,-162.523"/>
<polygon fill="midnightblue" stroke="midnightblue" points="301.196,-553.02 304.313,-563.146 308.191,-553.287 301.196,-553.02"/>
</g>
<!-- Node33 -->
<g id="node33" class="node"><title>Node33</title>
<g id="a_node33"><a xlink:href="structSpectrum__kernel.html" target="_top" xlink:title="Spectrum_kernel">
<polygon fill="white" stroke="black" points="400,-114.5 400,-133.5 490,-133.5 490,-114.5 400,-114.5"/>
<text text-anchor="middle" x="445" y="-121.5" font-family="Helvetica,sans-Serif" font-size="10.00">Spectrum_kernel</text>
</a>
</g>
</g>
<!-- Node3&#45;&gt;Node33 -->
<g id="edge32" class="edge"><title>Node3&#45;&gt;Node33</title>
<path fill="none" stroke="midnightblue" d="M304.356,-553.252C306.129,-477.221 316.331,-204.607 372,-143 379.194,-135.039 389.292,-130.243 399.654,-127.396"/>
<polygon fill="midnightblue" stroke="midnightblue" points="300.855,-553.28 304.144,-563.352 307.853,-553.427 300.855,-553.28"/>
</g>
<!-- Node34 -->
<g id="node34" class="node"><title>Node34</title>
<g id="a_node34"><a xlink:href="structStation__kernel.html" target="_top" xlink:title="Station_kernel">
<polygon fill="white" stroke="black" points="405.5,-76.5 405.5,-95.5 484.5,-95.5 484.5,-76.5 405.5,-76.5"/>
<text text-anchor="middle" x="445" y="-83.5" font-family="Helvetica,sans-Serif" font-size="10.00">Station_kernel</text>
</a>
</g>
</g>
<!-- Node3&#45;&gt;Node34 -->
<g id="edge33" class="edge"><title>Node3&#45;&gt;Node34</title>
<path fill="none" stroke="midnightblue" d="M304.077,-553.081C304.799,-472.628 311.564,-172.732 372,-105 380.435,-95.5468 392.963,-90.5468 405.215,-87.9759"/>
<polygon fill="midnightblue" stroke="midnightblue" points="300.576,-553.282 304.009,-563.305 307.576,-553.329 300.576,-553.282"/>
</g>
<!-- Node35 -->
<g id="node35" class="node"><title>Node35</title>
<g id="a_node35"><a xlink:href="structTest__socket.html" target="_top" xlink:title="Test_socket">
<polygon fill="white" stroke="black" points="409.5,-38.5 409.5,-57.5 480.5,-57.5 480.5,-38.5 409.5,-38.5"/>
<text text-anchor="middle" x="445" y="-45.5" font-family="Helvetica,sans-Serif" font-size="10.00">Test_socket</text>
</a>
</g>
</g>
<!-- Node3&#45;&gt;Node35 -->
<g id="edge34" class="edge"><title>Node3&#45;&gt;Node35</title>
<path fill="none" stroke="midnightblue" d="M303.836,-553.109C303.552,-468.681 306.733,-140.938 372,-67 381.325,-56.4357 395.762,-51.423 409.268,-49.1497"/>
<polygon fill="midnightblue" stroke="midnightblue" points="300.338,-553.375 303.893,-563.355 307.338,-553.336 300.338,-553.375"/>
</g>
<!-- Node36 -->
<g id="node36" class="node"><title>Node36</title>
<g id="a_node36"><a xlink:href="structYear__kernel.html" target="_top" xlink:title="Year_kernel">
<polygon fill="white" stroke="black" points="411,-0.5 411,-19.5 479,-19.5 479,-0.5 411,-0.5"/>
<text text-anchor="middle" x="445" y="-7.5" font-family="Helvetica,sans-Serif" font-size="10.00">Year_kernel</text>
</a>
</g>
</g>
<!-- Node3&#45;&gt;Node36 -->
<g id="edge35" class="edge"><title>Node3&#45;&gt;Node36</title>
<path fill="none" stroke="midnightblue" d="M303.631,-553.322C302.393,-465.387 301.841,-109.224 372,-29 381.617,-18.0035 396.772,-13.0129 410.703,-10.8686"/>
<polygon fill="midnightblue" stroke="midnightblue" points="300.135,-553.553 303.796,-563.495 307.134,-553.44 300.135,-553.553"/>
</g>
<!-- Node22 -->
<g id="node22" class="node"><title>Node22</title>
<g id="a_node22"><a xlink:href="classbsc_1_1master__discoverer.html" target="_top" xlink:title="bsc::master_discoverer">
<polygon fill="white" stroke="black" points="555.5,-468.5 555.5,-487.5 674.5,-487.5 674.5,-468.5 555.5,-468.5"/>
<text text-anchor="middle" x="615" y="-475.5" font-family="Helvetica,sans-Serif" font-size="10.00">bsc::master_discoverer</text>
</a>
</g>
</g>
<!-- Node21&#45;&gt;Node22 -->
<g id="edge21" class="edge"><title>Node21&#45;&gt;Node22</title>
<path fill="none" stroke="midnightblue" d="M507.415,-478C523.065,-478 539.845,-478 555.352,-478"/>
<polygon fill="midnightblue" stroke="midnightblue" points="507.318,-474.5 497.318,-478 507.318,-481.5 507.318,-474.5"/>
</g>
<!-- Node25 -->
<g id="node25" class="node"><title>Node25</title>
<g id="a_node25"><a xlink:href="structKernel__that__reads__more__than__writes.html" target="_top" xlink:title="Kernel_that_reads_more\l_than_writes">
<polygon fill="white" stroke="black" points="554,-403 554,-433 676,-433 676,-403 554,-403"/>
<text text-anchor="start" x="562" y="-421" font-family="Helvetica,sans-Serif" font-size="10.00">Kernel_that_reads_more</text>
<text text-anchor="middle" x="615" y="-410" font-family="Helvetica,sans-Serif" font-size="10.00">_than_writes</text>
</a>
</g>
</g>
<!-- Node24&#45;&gt;Node25 -->
<g id="edge24" class="edge"><title>Node24&#45;&gt;Node25</title>
<path fill="none" stroke="midnightblue" d="M490.839,-406.27C510.141,-408.109 532.997,-410.285 553.747,-412.262"/>
<polygon fill="midnightblue" stroke="midnightblue" points="491.097,-402.779 480.81,-405.315 490.433,-409.748 491.097,-402.779"/>
</g>
<!-- Node26 -->
<g id="node26" class="node"><title>Node26</title>
<g id="a_node26"><a xlink:href="structKernel__that__writes__more__than__reads.html" target="_top" xlink:title="Kernel_that_writes\l_more_than_reads">
<polygon fill="white" stroke="black" points="566,-354 566,-384 664,-384 664,-354 566,-354"/>
<text text-anchor="start" x="574" y="-372" font-family="Helvetica,sans-Serif" font-size="10.00">Kernel_that_writes</text>
<text text-anchor="middle" x="615" y="-361" font-family="Helvetica,sans-Serif" font-size="10.00">_more_than_reads</text>
</a>
</g>
</g>
<!-- Node24&#45;&gt;Node26 -->
<g id="edge25" class="edge"><title>Node24&#45;&gt;Node26</title>
<path fill="none" stroke="midnightblue" d="M490.726,-393.215C513.896,-388.663 542.211,-383.101 565.858,-378.456"/>
<polygon fill="midnightblue" stroke="midnightblue" points="489.948,-389.8 480.81,-395.162 491.297,-396.669 489.948,-389.8"/>
</g>
<!-- Node37 -->
<g id="node37" class="node"><title>Node37</title>
<g id="a_node37"><a xlink:href="classbsc_1_1kernel__header.html" target="_top" xlink:title="bsc::kernel_header">
<polygon fill="white" stroke="black" points="0.5,-544.5 0.5,-563.5 99.5,-563.5 99.5,-544.5 0.5,-544.5"/>
<text text-anchor="middle" x="50" y="-551.5" font-family="Helvetica,sans-Serif" font-size="10.00">bsc::kernel_header</text>
</a>
</g>
</g>
<!-- Node37&#45;&gt;Node2 -->
<g id="edge36" class="edge"><title>Node37&#45;&gt;Node2</title>
<path fill="none" stroke="midnightblue" d="M109.805,-562.401C118.453,-563.636 127.277,-564.897 135.681,-566.097"/>
<polygon fill="midnightblue" stroke="midnightblue" points="110.164,-558.916 99.7691,-560.967 109.174,-565.846 110.164,-558.916"/>
</g>
</g>
</svg>
