<?xml version="1.0" encoding="UTF-8" standalone="no"?>
<!DOCTYPE svg PUBLIC "-//W3C//DTD SVG 1.1//EN"
 "http://www.w3.org/Graphics/SVG/1.1/DTD/svg11.dtd">
<!-- Generated by graphviz version 2.36.0 (20140111.2315)
 -->
<!-- Title: Graphical Class Hierarchy Pages: 1 -->
<svg width="414pt" height="595pt"
 viewBox="0.00 0.00 414.00 595.00" xmlns="http://www.w3.org/2000/svg" xmlns:xlink="http://www.w3.org/1999/xlink">
<g id="graph0" class="graph" transform="scale(1 1) rotate(0) translate(4 591)">
<title>Graphical Class Hierarchy</title>
<polygon fill="white" stroke="none" points="-4,4 -4,-591 410,-591 410,4 -4,4"/>
<!-- Node1 -->
<g id="node1" class="node"><title>Node1</title>
<polygon fill="white" stroke="#bfbfbf" points="0,-266.5 0,-285.5 44,-285.5 44,-266.5 0,-266.5"/>
<text text-anchor="middle" x="22" y="-273.5" font-family="Helvetica,sans-Serif" font-size="10.00">Kernel</text>
</g>
<!-- Node2 -->
<g id="node2" class="node"><title>Node2</title>
<g id="a_node2"><a xlink:href="classautoreg_1_1Autoreg__model.html" target="_top" xlink:title="autoreg::Autoreg_model\&lt; T \&gt;">
<polygon fill="white" stroke="black" points="86,-567.5 86,-586.5 230,-586.5 230,-567.5 86,-567.5"/>
<text text-anchor="middle" x="158" y="-574.5" font-family="Helvetica,sans-Serif" font-size="10.00">autoreg::Autoreg_model&lt; T &gt;</text>
</a>
</g>
</g>
<!-- Node1&#45;&gt;Node2 -->
<g id="edge1" class="edge"><title>Node1&#45;&gt;Node2</title>
<path fill="none" stroke="midnightblue" d="M24.2884,-295.602C28.4682,-353.151 43.5492,-519.967 80,-558 83.6203,-561.777 87.8625,-564.852 92.462,-567.349"/>
<polygon fill="midnightblue" stroke="midnightblue" points="27.7796,-295.353 23.5947,-285.619 20.7964,-295.838 27.7796,-295.353"/>
</g>
<!-- Node3 -->
<g id="node3" class="node"><title>Node3</title>
<g id="a_node3"><a xlink:href="classautoreg_1_1Velocity__potential.html" target="_top" xlink:title="autoreg::Velocity_potential\&lt; T \&gt;">
<polygon fill="white" stroke="black" points="80,-529.5 80,-548.5 236,-548.5 236,-529.5 80,-529.5"/>
<text text-anchor="middle" x="158" y="-536.5" font-family="Helvetica,sans-Serif" font-size="10.00">autoreg::Velocity_potential&lt; T &gt;</text>
</a>
</g>
</g>
<!-- Node1&#45;&gt;Node3 -->
<g id="edge2" class="edge"><title>Node1&#45;&gt;Node3</title>
<path fill="none" stroke="midnightblue" d="M25.0334,-295.882C30.7617,-348.032 48.6871,-486.935 80,-519 84.1494,-523.249 89.0773,-526.635 94.4051,-529.328"/>
<polygon fill="midnightblue" stroke="midnightblue" points="28.4803,-295.196 23.9425,-285.623 21.5195,-295.937 28.4803,-295.196"/>
</g>
<!-- Node4 -->
<g id="node4" class="node"><title>Node4</title>
<g id="a_node4"><a xlink:href="structfactory_1_1api_1_1Map.html" target="_top" xlink:title="factory::api::Map\&lt;\l F, G, I \&gt;">
<polygon fill="white" stroke="black" points="110,-480 110,-510 206,-510 206,-480 110,-480"/>
<text text-anchor="start" x="118" y="-498" font-family="Helvetica,sans-Serif" font-size="10.00">factory::api::Map&lt;</text>
<text text-anchor="middle" x="158" y="-487" font-family="Helvetica,sans-Serif" font-size="10.00"> F, G, I &gt;</text>
</a>
</g>
</g>
<!-- Node1&#45;&gt;Node4 -->
<g id="edge3" class="edge"><title>Node1&#45;&gt;Node4</title>
<path fill="none" stroke="midnightblue" d="M23.0582,-296.071C24.2768,-334.994 32.5427,-421.187 80,-470 88.0339,-478.263 98.8213,-483.798 109.774,-487.504"/>
<polygon fill="midnightblue" stroke="midnightblue" points="26.5494,-295.538 22.8707,-285.603 19.5505,-295.664 26.5494,-295.538"/>
</g>
<!-- Node5 -->
<g id="node5" class="node"><title>Node5</title>
<g id="a_node5"><a xlink:href="structfactory_1_1api_1_1Map_1_1Worker.html" target="_top" xlink:title="factory::api::Map\&lt;\l F, G, I \&gt;::Worker">
<polygon fill="white" stroke="black" points="110,-431 110,-461 206,-461 206,-431 110,-431"/>
<text text-anchor="start" x="118" y="-449" font-family="Helvetica,sans-Serif" font-size="10.00">factory::api::Map&lt;</text>
<text text-anchor="middle" x="158" y="-438" font-family="Helvetica,sans-Serif" font-size="10.00"> F, G, I &gt;::Worker</text>
</a>
</g>
</g>
<!-- Node1&#45;&gt;Node5 -->
<g id="edge4" class="edge"><title>Node1&#45;&gt;Node5</title>
<path fill="none" stroke="midnightblue" d="M25.3617,-295.681C30.1142,-326.671 43.6865,-386.823 80,-421 88.2903,-428.802 99.0431,-434.17 109.87,-437.863"/>
<polygon fill="midnightblue" stroke="midnightblue" points="28.8167,-295.114 23.9841,-285.686 21.8822,-296.07 28.8167,-295.114"/>
</g>
<!-- Node6 -->
<g id="node6" class="node"><title>Node6</title>
<g id="a_node6"><a xlink:href="classfactory_1_1api_1_1Notification.html" target="_top" xlink:title="factory::api::Notification">
<polygon fill="white" stroke="black" points="97.5,-392.5 97.5,-411.5 218.5,-411.5 218.5,-392.5 97.5,-392.5"/>
<text text-anchor="middle" x="158" y="-399.5" font-family="Helvetica,sans-Serif" font-size="10.00">factory::api::Notification</text>
</a>
</g>
</g>
<!-- Node1&#45;&gt;Node6 -->
<g id="edge5" class="edge"><title>Node1&#45;&gt;Node6</title>
<path fill="none" stroke="midnightblue" d="M28.1803,-295.34C35.6151,-319.315 51.6424,-359.728 80,-382 85.5396,-386.351 91.9281,-389.762 98.6072,-392.435"/>
<polygon fill="midnightblue" stroke="midnightblue" points="31.5038,-294.234 25.3556,-285.605 24.7811,-296.184 31.5038,-294.234"/>
</g>
<!-- Node7 -->
<g id="node7" class="node"><title>Node7</title>
<g id="a_node7"><a xlink:href="classfactory_1_1discovery__timer.html" target="_top" xlink:title="factory::discovery\l_timer">
<polygon fill="white" stroke="black" points="110.5,-343 110.5,-373 205.5,-373 205.5,-343 110.5,-343"/>
<text text-anchor="start" x="118.5" y="-361" font-family="Helvetica,sans-Serif" font-size="10.00">factory::discovery</text>
<text text-anchor="middle" x="158" y="-350" font-family="Helvetica,sans-Serif" font-size="10.00">_timer</text>
</a>
</g>
</g>
<!-- Node1&#45;&gt;Node7 -->
<g id="edge6" class="edge"><title>Node1&#45;&gt;Node7</title>
<path fill="none" stroke="midnightblue" d="M36.9023,-293.833C47.5085,-306.361 63.1292,-322.664 80,-333 89.2282,-338.654 99.8712,-343.168 110.243,-346.717"/>
<polygon fill="midnightblue" stroke="midnightblue" points="39.4443,-291.412 30.4069,-285.883 34.0235,-295.841 39.4443,-291.412"/>
</g>
<!-- Node8 -->
<g id="node8" class="node"><title>Node8</title>
<g id="a_node8"><a xlink:href="classfactory_1_1network__master.html" target="_top" xlink:title="factory::network_master">
<polygon fill="white" stroke="black" points="97,-304.5 97,-323.5 219,-323.5 219,-304.5 97,-304.5"/>
<text text-anchor="middle" x="158" y="-311.5" font-family="Helvetica,sans-Serif" font-size="10.00">factory::network_master</text>
</a>
</g>
</g>
<!-- Node1&#45;&gt;Node8 -->
<g id="edge7" class="edge"><title>Node1&#45;&gt;Node8</title>
<path fill="none" stroke="midnightblue" d="M53.7634,-286.754C62.224,-289.574 71.4301,-292.519 80,-295 91.5064,-298.332 104.085,-301.593 115.678,-304.447"/>
<polygon fill="midnightblue" stroke="midnightblue" points="54.851,-283.427 44.2567,-283.534 52.6056,-290.057 54.851,-283.427"/>
</g>
<!-- Node9 -->
<g id="node9" class="node"><title>Node9</title>
<g id="a_node9"><a xlink:href="classfactory_1_1network__timer.html" target="_top" xlink:title="factory::network_timer">
<polygon fill="white" stroke="black" points="101,-266.5 101,-285.5 215,-285.5 215,-266.5 101,-266.5"/>
<text text-anchor="middle" x="158" y="-273.5" font-family="Helvetica,sans-Serif" font-size="10.00">factory::network_timer</text>
</a>
</g>
</g>
<!-- Node1&#45;&gt;Node9 -->
<g id="edge8" class="edge"><title>Node1&#45;&gt;Node9</title>
<path fill="none" stroke="midnightblue" d="M54.6417,-276C68.4592,-276 85.0889,-276 100.889,-276"/>
<polygon fill="midnightblue" stroke="midnightblue" points="54.2327,-272.5 44.2327,-276 54.2327,-279.5 54.2327,-272.5"/>
</g>
<!-- Node10 -->
<g id="node10" class="node"><title>Node10</title>
<g id="a_node10"><a xlink:href="classfactory_1_1probe.html" target="_top" xlink:title="factory::probe">
<polygon fill="white" stroke="black" points="119.5,-228.5 119.5,-247.5 196.5,-247.5 196.5,-228.5 119.5,-228.5"/>
<text text-anchor="middle" x="158" y="-235.5" font-family="Helvetica,sans-Serif" font-size="10.00">factory::probe</text>
</a>
</g>
</g>
<!-- Node1&#45;&gt;Node10 -->
<g id="edge9" class="edge"><title>Node1&#45;&gt;Node10</title>
<path fill="none" stroke="midnightblue" d="M53.7634,-265.246C62.224,-262.426 71.4301,-259.481 80,-257 92.6967,-253.324 106.699,-249.733 119.242,-246.68"/>
<polygon fill="midnightblue" stroke="midnightblue" points="52.6056,-261.943 44.2567,-268.466 54.851,-268.573 52.6056,-261.943"/>
</g>
<!-- Node11 -->
<g id="node11" class="node"><title>Node11</title>
<g id="a_node11"><a xlink:href="classfactory_1_1prober.html" target="_top" xlink:title="factory::prober">
<polygon fill="white" stroke="black" points="118,-190.5 118,-209.5 198,-209.5 198,-190.5 118,-190.5"/>
<text text-anchor="middle" x="158" y="-197.5" font-family="Helvetica,sans-Serif" font-size="10.00">factory::prober</text>
</a>
</g>
</g>
<!-- Node1&#45;&gt;Node11 -->
<g id="edge10" class="edge"><title>Node1&#45;&gt;Node11</title>
<path fill="none" stroke="midnightblue" d="M36.325,-258.235C46.827,-245.467 62.57,-228.834 80,-219 91.5125,-212.505 105.219,-208.209 117.854,-205.377"/>
<polygon fill="midnightblue" stroke="midnightblue" points="33.3864,-256.308 29.9354,-266.326 38.8799,-260.647 33.3864,-256.308"/>
</g>
<!-- Node12 -->
<g id="node12" class="node"><title>Node12</title>
<g id="a_node12"><a xlink:href="classfactory_1_1resident__kernel.html" target="_top" xlink:title="factory::resident_kernel">
<polygon fill="white" stroke="black" points="98.5,-152.5 98.5,-171.5 217.5,-171.5 217.5,-152.5 98.5,-152.5"/>
<text text-anchor="middle" x="158" y="-159.5" font-family="Helvetica,sans-Serif" font-size="10.00">factory::resident_kernel</text>
</a>
</g>
</g>
<!-- Node1&#45;&gt;Node12 -->
<g id="edge11" class="edge"><title>Node1&#45;&gt;Node12</title>
<path fill="none" stroke="midnightblue" d="M29.2973,-257.016C37.4969,-235.293 53.9399,-200.247 80,-181 85.5378,-176.91 91.8498,-173.693 98.4222,-171.163"/>
<polygon fill="midnightblue" stroke="midnightblue" points="25.9841,-255.887 25.9283,-266.482 32.5788,-258.234 25.9841,-255.887"/>
</g>
<!-- Node14 -->
<g id="node14" class="node"><title>Node14</title>
<g id="a_node14"><a xlink:href="structLauncher.html" target="_top" xlink:title="Launcher">
<polygon fill="white" stroke="black" points="130,-114.5 130,-133.5 186,-133.5 186,-114.5 130,-114.5"/>
<text text-anchor="middle" x="158" y="-121.5" font-family="Helvetica,sans-Serif" font-size="10.00">Launcher</text>
</a>
</g>
</g>
<!-- Node1&#45;&gt;Node14 -->
<g id="edge13" class="edge"><title>Node1&#45;&gt;Node14</title>
<path fill="none" stroke="midnightblue" d="M25.8872,-256.008C31.1998,-226.715 45.3421,-172.425 80,-143 93.7502,-131.326 113.591,-126.624 129.688,-124.816"/>
<polygon fill="midnightblue" stroke="midnightblue" points="22.3745,-255.802 24.211,-266.236 29.2823,-256.934 22.3745,-255.802"/>
</g>
<!-- Node15 -->
<g id="node15" class="node"><title>Node15</title>
<g id="a_node15"><a xlink:href="structPing.html" target="_top" xlink:title="Ping">
<polygon fill="white" stroke="black" points="140,-76.5 140,-95.5 176,-95.5 176,-76.5 140,-76.5"/>
<text text-anchor="middle" x="158" y="-83.5" font-family="Helvetica,sans-Serif" font-size="10.00">Ping</text>
</a>
</g>
</g>
<!-- Node1&#45;&gt;Node15 -->
<g id="edge14" class="edge"><title>Node1&#45;&gt;Node15</title>
<path fill="none" stroke="midnightblue" d="M23.6864,-256.028C26.0335,-220.3 36.2223,-145.415 80,-105 96.2882,-89.9628 122.544,-86.3246 139.788,-85.6952"/>
<polygon fill="midnightblue" stroke="midnightblue" points="20.1838,-255.992 23.1673,-266.158 27.1746,-256.35 20.1838,-255.992"/>
</g>
<!-- Node16 -->
<g id="node16" class="node"><title>Node16</title>
<g id="a_node16"><a xlink:href="structPing__pong.html" target="_top" xlink:title="Ping_pong">
<polygon fill="white" stroke="black" points="127,-38.5 127,-57.5 189,-57.5 189,-38.5 127,-38.5"/>
<text text-anchor="middle" x="158" y="-45.5" font-family="Helvetica,sans-Serif" font-size="10.00">Ping_pong</text>
</a>
</g>
</g>
<!-- Node1&#45;&gt;Node16 -->
<g id="edge15" class="edge"><title>Node1&#45;&gt;Node16</title>
<path fill="none" stroke="midnightblue" d="M22.241,-256.335C21.7823,-215.045 26.8581,-118.864 80,-67 92.3174,-54.9788 110.964,-50.1671 126.823,-48.3904"/>
<polygon fill="midnightblue" stroke="midnightblue" points="18.7445,-256.529 22.4818,-266.443 25.7425,-256.362 18.7445,-256.529"/>
</g>
<!-- Node17 -->
<g id="node17" class="node"><title>Node17</title>
<g id="a_node17"><a xlink:href="structYear__kernel.html" target="_top" xlink:title="Year_kernel">
<polygon fill="white" stroke="black" points="124,-0.5 124,-19.5 192,-19.5 192,-0.5 124,-0.5"/>
<text text-anchor="middle" x="158" y="-7.5" font-family="Helvetica,sans-Serif" font-size="10.00">Year_kernel</text>
</a>
</g>
</g>
<!-- Node1&#45;&gt;Node17 -->
<g id="edge16" class="edge"><title>Node1&#45;&gt;Node17</title>
<path fill="none" stroke="midnightblue" d="M24.892,-256.46C30.368,-203.952 47.9195,-61.5693 80,-29 91.4015,-17.4248 108.652,-12.4837 123.937,-10.5202"/>
<polygon fill="midnightblue" stroke="midnightblue" points="21.4019,-256.187 23.8807,-266.488 28.3666,-256.89 21.4019,-256.187"/>
</g>
<!-- Node13 -->
<g id="node13" class="node"><title>Node13</title>
<g id="a_node13"><a xlink:href="classfactory_1_1master__discoverer.html" target="_top" xlink:title="factory::master_discoverer">
<polygon fill="white" stroke="black" points="272.5,-152.5 272.5,-171.5 405.5,-171.5 405.5,-152.5 272.5,-152.5"/>
<text text-anchor="middle" x="339" y="-159.5" font-family="Helvetica,sans-Serif" font-size="10.00">factory::master_discoverer</text>
</a>
</g>
</g>
<!-- Node12&#45;&gt;Node13 -->
<g id="edge12" class="edge"><title>Node12&#45;&gt;Node13</title>
<path fill="none" stroke="midnightblue" d="M227.645,-162C242.353,-162 257.856,-162 272.443,-162"/>
<polygon fill="midnightblue" stroke="midnightblue" points="227.611,-158.5 217.611,-162 227.611,-165.5 227.611,-158.5"/>
</g>
</g>
</svg>
