<?xml version="1.0" encoding="UTF-8" standalone="no"?>
<!DOCTYPE svg PUBLIC "-//W3C//DTD SVG 1.1//EN"
 "http://www.w3.org/Graphics/SVG/1.1/DTD/svg11.dtd">
<!-- Generated by graphviz version 2.36.0 (20140111.2315)
 -->
<!-- Title: Graphical Class Hierarchy Pages: 1 -->
<svg width="206pt" height="87pt"
 viewBox="0.00 0.00 206.00 87.00" xmlns="http://www.w3.org/2000/svg" xmlns:xlink="http://www.w3.org/1999/xlink">
<g id="graph0" class="graph" transform="scale(1 1) rotate(0) translate(4 83)">
<title>Graphical Class Hierarchy</title>
<polygon fill="white" stroke="none" points="-4,4 -4,-83 202,-83 202,4 -4,4"/>
<!-- Node1 -->
<g id="node1" class="node"><title>Node1</title>
<polygon fill="white" stroke="#bfbfbf" points="0.5,-29.5 0.5,-48.5 47.5,-48.5 47.5,-29.5 0.5,-29.5"/>
<text text-anchor="middle" x="24" y="-36.5" font-family="Helvetica,sans-Serif" font-size="10.00">iterator</text>
</g>
<!-- Node2 -->
<g id="node2" class="node"><title>Node2</title>
<g id="a_node2"><a xlink:href="classbsc_1_1tree__hierarchy__iterator.html" target="_top" xlink:title="bsc::tree_hierarchy\l_iterator\&lt; Addr \&gt;">
<polygon fill="white" stroke="black" points="91,-49 91,-79 191,-79 191,-49 91,-49"/>
<text text-anchor="start" x="99" y="-67" font-family="Helvetica,sans-Serif" font-size="10.00">bsc::tree_hierarchy</text>
<text text-anchor="middle" x="141" y="-56" font-family="Helvetica,sans-Serif" font-size="10.00">_iterator&lt; Addr &gt;</text>
</a>
</g>
</g>
<!-- Node1&#45;&gt;Node2 -->
<g id="edge1" class="edge"><title>Node1&#45;&gt;Node2</title>
<path fill="none" stroke="midnightblue" d="M57.5232,-46.0703C67.8345,-48.3119 79.4759,-50.8426 90.6927,-53.281"/>
<polygon fill="midnightblue" stroke="midnightblue" points="58.2356,-42.6435 47.7203,-43.9392 56.7485,-49.4837 58.2356,-42.6435"/>
</g>
<!-- Node3 -->
<g id="node3" class="node"><title>Node3</title>
<g id="a_node3"><a xlink:href="classbsc_1_1tree__hierarchy__iterator.html" target="_top" xlink:title="bsc::tree_hierarchy\l_iterator\&lt; addr_type \&gt;">
<polygon fill="white" stroke="black" points="84.5,-0 84.5,-30 197.5,-30 197.5,-0 84.5,-0"/>
<text text-anchor="start" x="92.5" y="-18" font-family="Helvetica,sans-Serif" font-size="10.00">bsc::tree_hierarchy</text>
<text text-anchor="middle" x="141" y="-7" font-family="Helvetica,sans-Serif" font-size="10.00">_iterator&lt; addr_type &gt;</text>
</a>
</g>
</g>
<!-- Node1&#45;&gt;Node3 -->
<g id="edge2" class="edge"><title>Node1&#45;&gt;Node3</title>
<path fill="none" stroke="midnightblue" d="M57.7634,-32.1624C66.1099,-30.4205 75.3156,-28.4993 84.4553,-26.5919"/>
<polygon fill="midnightblue" stroke="midnightblue" points="56.7943,-28.7892 47.7203,-34.2584 58.2245,-35.6415 56.7943,-28.7892"/>
</g>
</g>
</svg>
