<?xml version="1.0" encoding="UTF-8" standalone="no"?>
<!DOCTYPE svg PUBLIC "-//W3C//DTD SVG 1.1//EN"
 "http://www.w3.org/Graphics/SVG/1.1/DTD/svg11.dtd">
<!-- Generated by graphviz version 2.38.0 (20140413.2041)
 -->
<!-- Title: Graphical Class Hierarchy Pages: 1 -->
<svg width="223pt" height="323pt"
 viewBox="0.00 0.00 223.00 323.00" xmlns="http://www.w3.org/2000/svg" xmlns:xlink="http://www.w3.org/1999/xlink">
<g id="graph0" class="graph" transform="scale(1 1) rotate(0) translate(4 319)">
<title>Graphical Class Hierarchy</title>
<polygon fill="white" stroke="none" points="-4,4 -4,-319 219,-319 219,4 -4,4"/>
<!-- Node1 -->
<g id="node1" class="node"><title>Node1</title>
<polygon fill="white" stroke="#bfbfbf" points="0,-143 0,-162 47,-162 47,-143 0,-143"/>
<text text-anchor="middle" x="23.5" y="-150" font-family="Helvetica,sans-Serif" font-size="10.00">iterator</text>
</g>
<!-- Node2 -->
<g id="node2" class="node"><title>Node2</title>
<g id="a_node2"><a xlink:href="structstdx_1_1back__insert__iterator.html" target="_top" xlink:title="stdx::back_insert_iterator\l\&lt; Container \&gt;">
<polygon fill="white" stroke="black" points="85.5,-284.5 85.5,-314.5 212.5,-314.5 212.5,-284.5 85.5,-284.5"/>
<text text-anchor="start" x="93.5" y="-302.5" font-family="Helvetica,sans-Serif" font-size="10.00">stdx::back_insert_iterator</text>
<text text-anchor="middle" x="149" y="-291.5" font-family="Helvetica,sans-Serif" font-size="10.00">&lt; Container &gt;</text>
</a>
</g>
</g>
<!-- Node1&#45;&gt;Node2 -->
<g id="edge1" class="edge"><title>Node1&#45;&gt;Node2</title>
<path fill="none" stroke="midnightblue" d="M28.8828,-172.1C35.8652,-198.985 52.0058,-247.184 83,-275.5 86.7301,-278.908 90.9858,-281.843 95.4942,-284.37"/>
<polygon fill="midnightblue" stroke="midnightblue" points="32.266,-171.2 26.5035,-162.309 25.464,-172.853 32.266,-171.2"/>
</g>
<!-- Node3 -->
<g id="node3" class="node"><title>Node3</title>
<g id="a_node3"><a xlink:href="structstdx_1_1front__pop__iterator.html" target="_top" xlink:title="stdx::front_pop_iterator\l\&lt; Container \&gt;">
<polygon fill="white" stroke="black" points="90.5,-235.5 90.5,-265.5 207.5,-265.5 207.5,-235.5 90.5,-235.5"/>
<text text-anchor="start" x="98.5" y="-253.5" font-family="Helvetica,sans-Serif" font-size="10.00">stdx::front_pop_iterator</text>
<text text-anchor="middle" x="149" y="-242.5" font-family="Helvetica,sans-Serif" font-size="10.00">&lt; Container &gt;</text>
</a>
</g>
</g>
<!-- Node1&#45;&gt;Node3 -->
<g id="edge2" class="edge"><title>Node1&#45;&gt;Node3</title>
<path fill="none" stroke="midnightblue" d="M34.9425,-170.849C45.2367,-187.458 62.3916,-211.544 83,-226.5 87.6732,-229.891 92.8791,-232.855 98.2536,-235.431"/>
<polygon fill="midnightblue" stroke="midnightblue" points="37.8286,-168.855 29.7,-162.06 31.8167,-172.441 37.8286,-168.855"/>
</g>
<!-- Node4 -->
<g id="node4" class="node"><title>Node4</title>
<g id="a_node4"><a xlink:href="structstdx_1_1intersperse__iterator.html" target="_top" xlink:title="stdx::intersperse_iterator\l\&lt; T, Delim, Ch, Tr \&gt;">
<polygon fill="white" stroke="black" points="86.5,-186.5 86.5,-216.5 211.5,-216.5 211.5,-186.5 86.5,-186.5"/>
<text text-anchor="start" x="94.5" y="-204.5" font-family="Helvetica,sans-Serif" font-size="10.00">stdx::intersperse_iterator</text>
<text text-anchor="middle" x="149" y="-193.5" font-family="Helvetica,sans-Serif" font-size="10.00">&lt; T, Delim, Ch, Tr &gt;</text>
</a>
</g>
</g>
<!-- Node1&#45;&gt;Node4 -->
<g id="edge3" class="edge"><title>Node1&#45;&gt;Node4</title>
<path fill="none" stroke="midnightblue" d="M55.3095,-166.009C64.2073,-169.817 73.9567,-173.901 83,-177.5 90.4884,-180.48 98.5094,-183.545 106.271,-186.445"/>
<polygon fill="midnightblue" stroke="midnightblue" points="56.6309,-162.767 46.0624,-162.021 53.8587,-169.195 56.6309,-162.767"/>
</g>
<!-- Node5 -->
<g id="node5" class="node"><title>Node5</title>
<g id="a_node5"><a xlink:href="structstdx_1_1paired__iterator.html" target="_top" xlink:title="stdx::paired_iterator\l\&lt; It1, It2 \&gt;">
<polygon fill="white" stroke="black" points="97.5,-137.5 97.5,-167.5 200.5,-167.5 200.5,-137.5 97.5,-137.5"/>
<text text-anchor="start" x="105.5" y="-155.5" font-family="Helvetica,sans-Serif" font-size="10.00">stdx::paired_iterator</text>
<text text-anchor="middle" x="149" y="-144.5" font-family="Helvetica,sans-Serif" font-size="10.00">&lt; It1, It2 &gt;</text>
</a>
</g>
</g>
<!-- Node1&#45;&gt;Node5 -->
<g id="edge4" class="edge"><title>Node1&#45;&gt;Node5</title>
<path fill="none" stroke="midnightblue" d="M57.353,-152.5C69.613,-152.5 83.8352,-152.5 97.3279,-152.5"/>
<polygon fill="midnightblue" stroke="midnightblue" points="57.1518,-149 47.1518,-152.5 57.1518,-156 57.1518,-149"/>
</g>
<!-- Node6 -->
<g id="node6" class="node"><title>Node6</title>
<g id="a_node6"><a xlink:href="classsys_1_1basic__istream__iterator.html" target="_top" xlink:title="sys::basic_istream\l_iterator\&lt; Stream, Value \&gt;">
<polygon fill="white" stroke="black" points="83,-88.5 83,-118.5 215,-118.5 215,-88.5 83,-88.5"/>
<text text-anchor="start" x="91" y="-106.5" font-family="Helvetica,sans-Serif" font-size="10.00">sys::basic_istream</text>
<text text-anchor="middle" x="149" y="-95.5" font-family="Helvetica,sans-Serif" font-size="10.00">_iterator&lt; Stream, Value &gt;</text>
</a>
</g>
</g>
<!-- Node1&#45;&gt;Node6 -->
<g id="edge5" class="edge"><title>Node1&#45;&gt;Node6</title>
<path fill="none" stroke="midnightblue" d="M56.5469,-139.203C65.1244,-135.685 74.4018,-131.917 83,-128.5 91.2023,-125.241 100.012,-121.807 108.416,-118.564"/>
<polygon fill="midnightblue" stroke="midnightblue" points="55.1485,-135.994 47.2335,-143.037 57.813,-142.467 55.1485,-135.994"/>
</g>
<!-- Node7 -->
<g id="node7" class="node"><title>Node7</title>
<g id="a_node7"><a xlink:href="structsys_1_1ifaddrs__iterator.html" target="_top" xlink:title="sys::ifaddrs_iterator">
<polygon fill="white" stroke="black" points="97.5,-50 97.5,-69 200.5,-69 200.5,-50 97.5,-50"/>
<text text-anchor="middle" x="149" y="-57" font-family="Helvetica,sans-Serif" font-size="10.00">sys::ifaddrs_iterator</text>
</a>
</g>
</g>
<!-- Node1&#45;&gt;Node7 -->
<g id="edge6" class="edge"><title>Node1&#45;&gt;Node7</title>
<path fill="none" stroke="midnightblue" d="M34.8141,-134.14C45.0186,-117.574 62.1138,-93.693 83,-79.5 89.3476,-75.1866 96.6622,-71.7742 104.044,-69.0834"/>
<polygon fill="midnightblue" stroke="midnightblue" points="31.7002,-132.529 29.6255,-142.919 37.7265,-136.091 31.7002,-132.529"/>
</g>
<!-- Node8 -->
<g id="node8" class="node"><title>Node8</title>
<g id="a_node8"><a xlink:href="structsys_1_1subnet__iterator.html" target="_top" xlink:title="sys::subnet_iterator\l\&lt; Address \&gt;">
<polygon fill="white" stroke="black" points="97.5,-0.5 97.5,-30.5 200.5,-30.5 200.5,-0.5 97.5,-0.5"/>
<text text-anchor="start" x="105.5" y="-18.5" font-family="Helvetica,sans-Serif" font-size="10.00">sys::subnet_iterator</text>
<text text-anchor="middle" x="149" y="-7.5" font-family="Helvetica,sans-Serif" font-size="10.00">&lt; Address &gt;</text>
</a>
</g>
</g>
<!-- Node1&#45;&gt;Node8 -->
<g id="edge7" class="edge"><title>Node1&#45;&gt;Node8</title>
<path fill="none" stroke="midnightblue" d="M29.8635,-133.301C37.683,-108.625 54.4776,-65.9387 83,-40.5 87.3311,-36.6371 92.3233,-33.3439 97.5762,-30.5426"/>
<polygon fill="midnightblue" stroke="midnightblue" points="26.4873,-132.375 26.9728,-142.959 33.1934,-134.382 26.4873,-132.375"/>
</g>
</g>
</svg>
