<?xml version="1.0" encoding="UTF-8" standalone="no"?>
<!DOCTYPE svg PUBLIC "-//W3C//DTD SVG 1.1//EN"
 "http://www.w3.org/Graphics/SVG/1.1/DTD/svg11.dtd">
<!-- Generated by graphviz version 2.36.0 (20140111.2315)
 -->
<!-- Title: Graphical Class Hierarchy Pages: 1 -->
<svg width="566pt" height="293pt"
 viewBox="0.00 0.00 566.00 293.00" xmlns="http://www.w3.org/2000/svg" xmlns:xlink="http://www.w3.org/1999/xlink">
<g id="graph0" class="graph" transform="scale(1 1) rotate(0) translate(4 289)">
<title>Graphical Class Hierarchy</title>
<polygon fill="white" stroke="none" points="-4,4 -4,-289 562,-289 562,4 -4,4"/>
<!-- Node1 -->
<g id="node1" class="node"><title>Node1</title>
<polygon fill="white" stroke="#bfbfbf" points="0.5,-130.5 0.5,-149.5 89.5,-149.5 89.5,-130.5 0.5,-130.5"/>
<text text-anchor="middle" x="45" y="-137.5" font-family="Helvetica,sans-Serif" font-size="10.00">basic_streambuf</text>
</g>
<!-- Node2 -->
<g id="node2" class="node"><title>Node2</title>
<g id="a_node2"><a xlink:href="classsys_1_1basic__argbuf.html" target="_top" xlink:title="sys::basic_argbuf\&lt;\l char_type, traits_type \&gt;">
<polygon fill="white" stroke="black" points="126.5,-255 126.5,-285 249.5,-285 249.5,-255 126.5,-255"/>
<text text-anchor="start" x="134.5" y="-273" font-family="Helvetica,sans-Serif" font-size="10.00">sys::basic_argbuf&lt;</text>
<text text-anchor="middle" x="188" y="-262" font-family="Helvetica,sans-Serif" font-size="10.00"> char_type, traits_type &gt;</text>
</a>
</g>
</g>
<!-- Node1&#45;&gt;Node2 -->
<g id="edge1" class="edge"><title>Node1&#45;&gt;Node2</title>
<path fill="none" stroke="midnightblue" d="M55.9986,-158.596C69.2512,-181.686 94.6557,-220.957 126,-245 130.904,-248.762 136.453,-252.049 142.157,-254.894"/>
<polygon fill="midnightblue" stroke="midnightblue" points="59.0099,-156.81 51.081,-149.782 52.897,-160.22 59.0099,-156.81"/>
</g>
<!-- Node3 -->
<g id="node3" class="node"><title>Node3</title>
<g id="a_node3"><a xlink:href="structsys_1_1basic__logbuf.html" target="_top" xlink:title="sys::basic_logbuf\&lt;\l char \&gt;">
<polygon fill="white" stroke="black" points="138.5,-206 138.5,-236 237.5,-236 237.5,-206 138.5,-206"/>
<text text-anchor="start" x="146.5" y="-224" font-family="Helvetica,sans-Serif" font-size="10.00">sys::basic_logbuf&lt;</text>
<text text-anchor="middle" x="188" y="-213" font-family="Helvetica,sans-Serif" font-size="10.00"> char &gt;</text>
</a>
</g>
</g>
<!-- Node1&#45;&gt;Node3 -->
<g id="edge2" class="edge"><title>Node1&#45;&gt;Node3</title>
<path fill="none" stroke="midnightblue" d="M65.8689,-155.778C81.5857,-167.789 104.406,-184.208 126,-196 132.529,-199.566 139.675,-202.932 146.704,-205.971"/>
<polygon fill="midnightblue" stroke="midnightblue" points="67.9687,-152.978 57.921,-149.617 63.6799,-158.51 67.9687,-152.978"/>
</g>
<!-- Node4 -->
<g id="node4" class="node"><title>Node4</title>
<g id="a_node4"><a xlink:href="structstdx_1_1basic__packetbuf.html" target="_top" xlink:title="stdx::basic_packetbuf\l\&lt; Ch, std::char_traits\l\&lt; Ch \&gt; \&gt;">
<polygon fill="white" stroke="black" points="131.5,-146.5 131.5,-187.5 244.5,-187.5 244.5,-146.5 131.5,-146.5"/>
<text text-anchor="start" x="139.5" y="-175.5" font-family="Helvetica,sans-Serif" font-size="10.00">stdx::basic_packetbuf</text>
<text text-anchor="start" x="139.5" y="-164.5" font-family="Helvetica,sans-Serif" font-size="10.00">&lt; Ch, std::char_traits</text>
<text text-anchor="middle" x="188" y="-153.5" font-family="Helvetica,sans-Serif" font-size="10.00">&lt; Ch &gt; &gt;</text>
</a>
</g>
</g>
<!-- Node1&#45;&gt;Node4 -->
<g id="edge3" class="edge"><title>Node1&#45;&gt;Node4</title>
<path fill="none" stroke="midnightblue" d="M99.9611,-150.333C110.284,-152.31 121.109,-154.383 131.48,-156.369"/>
<polygon fill="midnightblue" stroke="midnightblue" points="100.32,-146.838 89.8404,-148.395 99.0036,-153.713 100.32,-146.838"/>
</g>
<!-- Node7 -->
<g id="node7" class="node"><title>Node7</title>
<g id="a_node7"><a xlink:href="structstdx_1_1basic__packetbuf.html" target="_top" xlink:title="stdx::basic_packetbuf\l\&lt; Ch, Tr \&gt;">
<polygon fill="white" stroke="black" points="131.5,-98 131.5,-128 244.5,-128 244.5,-98 131.5,-98"/>
<text text-anchor="start" x="139.5" y="-116" font-family="Helvetica,sans-Serif" font-size="10.00">stdx::basic_packetbuf</text>
<text text-anchor="middle" x="188" y="-105" font-family="Helvetica,sans-Serif" font-size="10.00">&lt; Ch, Tr &gt;</text>
</a>
</g>
</g>
<!-- Node1&#45;&gt;Node7 -->
<g id="edge6" class="edge"><title>Node1&#45;&gt;Node7</title>
<path fill="none" stroke="midnightblue" d="M99.9611,-129.667C110.284,-127.69 121.109,-125.617 131.48,-123.631"/>
<polygon fill="midnightblue" stroke="midnightblue" points="99.0036,-126.287 89.8404,-131.605 100.32,-133.162 99.0036,-126.287"/>
</g>
<!-- Node11 -->
<g id="node11" class="node"><title>Node11</title>
<g id="a_node11"><a xlink:href="classsys_1_1basic__argbuf.html" target="_top" xlink:title="sys::basic_argbuf\&lt;\l Ch, Tr \&gt;">
<polygon fill="white" stroke="black" points="138,-49 138,-79 238,-79 238,-49 138,-49"/>
<text text-anchor="start" x="146" y="-67" font-family="Helvetica,sans-Serif" font-size="10.00">sys::basic_argbuf&lt;</text>
<text text-anchor="middle" x="188" y="-56" font-family="Helvetica,sans-Serif" font-size="10.00"> Ch, Tr &gt;</text>
</a>
</g>
</g>
<!-- Node1&#45;&gt;Node11 -->
<g id="edge10" class="edge"><title>Node1&#45;&gt;Node11</title>
<path fill="none" stroke="midnightblue" d="M67.9157,-124.521C83.6464,-113.789 105.586,-99.5824 126,-89 132.706,-85.5236 140.009,-82.178 147.155,-79.1268"/>
<polygon fill="midnightblue" stroke="midnightblue" points="65.6674,-121.82 59.4297,-130.384 69.6465,-127.579 65.6674,-121.82"/>
</g>
<!-- Node12 -->
<g id="node12" class="node"><title>Node12</title>
<g id="a_node12"><a xlink:href="structsys_1_1basic__logbuf.html" target="_top" xlink:title="sys::basic_logbuf\&lt;\l Ch, Tr \&gt;">
<polygon fill="white" stroke="black" points="138.5,-0 138.5,-30 237.5,-30 237.5,-0 138.5,-0"/>
<text text-anchor="start" x="146.5" y="-18" font-family="Helvetica,sans-Serif" font-size="10.00">sys::basic_logbuf&lt;</text>
<text text-anchor="middle" x="188" y="-7" font-family="Helvetica,sans-Serif" font-size="10.00"> Ch, Tr &gt;</text>
</a>
</g>
</g>
<!-- Node1&#45;&gt;Node12 -->
<g id="edge11" class="edge"><title>Node1&#45;&gt;Node12</title>
<path fill="none" stroke="midnightblue" d="M56.5985,-121.679C70.1721,-99.6313 95.6098,-62.7455 126,-40 131.04,-36.2281 136.729,-32.923 142.557,-30.0582"/>
<polygon fill="midnightblue" stroke="midnightblue" points="53.5116,-120.021 51.3744,-130.398 59.5164,-123.619 53.5116,-120.021"/>
</g>
<!-- Node5 -->
<g id="node5" class="node"><title>Node5</title>
<g id="a_node5"><a xlink:href="classsys_1_1basic__fildesbuf.html" target="_top" xlink:title="sys::basic_fildesbuf\l\&lt; Ch, std::char_traits\l\&lt; Ch \&gt;, sys::socket \&gt;">
<polygon fill="white" stroke="black" points="286.5,-147.5 286.5,-188.5 399.5,-188.5 399.5,-147.5 286.5,-147.5"/>
<text text-anchor="start" x="294.5" y="-176.5" font-family="Helvetica,sans-Serif" font-size="10.00">sys::basic_fildesbuf</text>
<text text-anchor="start" x="294.5" y="-165.5" font-family="Helvetica,sans-Serif" font-size="10.00">&lt; Ch, std::char_traits</text>
<text text-anchor="middle" x="343" y="-154.5" font-family="Helvetica,sans-Serif" font-size="10.00">&lt; Ch &gt;, sys::socket &gt;</text>
</a>
</g>
</g>
<!-- Node4&#45;&gt;Node5 -->
<g id="edge4" class="edge"><title>Node4&#45;&gt;Node5</title>
<path fill="none" stroke="midnightblue" d="M254.68,-167.429C265.239,-167.498 276.078,-167.569 286.372,-167.636"/>
<polygon fill="midnightblue" stroke="midnightblue" points="254.692,-163.929 244.669,-167.364 254.646,-170.929 254.692,-163.929"/>
</g>
<!-- Node6 -->
<g id="node6" class="node"><title>Node6</title>
<g id="a_node6"><a xlink:href="structfactory_1_1basic__kernelbuf.html" target="_top" xlink:title="factory::basic_kernelbuf\l\&lt; sys::basic_fildesbuf\l\&lt; Ch, std::char_traits\&lt;\l Ch \&gt;, sys::socket \&gt; \&gt;">
<polygon fill="white" stroke="black" points="436.5,-144 436.5,-196 557.5,-196 557.5,-144 436.5,-144"/>
<text text-anchor="start" x="444.5" y="-184" font-family="Helvetica,sans-Serif" font-size="10.00">factory::basic_kernelbuf</text>
<text text-anchor="start" x="444.5" y="-173" font-family="Helvetica,sans-Serif" font-size="10.00">&lt; sys::basic_fildesbuf</text>
<text text-anchor="start" x="444.5" y="-162" font-family="Helvetica,sans-Serif" font-size="10.00">&lt; Ch, std::char_traits&lt;</text>
<text text-anchor="middle" x="497" y="-151" font-family="Helvetica,sans-Serif" font-size="10.00"> Ch &gt;, sys::socket &gt; &gt;</text>
</a>
</g>
</g>
<!-- Node5&#45;&gt;Node6 -->
<g id="edge5" class="edge"><title>Node5&#45;&gt;Node6</title>
<path fill="none" stroke="midnightblue" d="M409.958,-168.868C418.762,-168.984 427.749,-169.102 436.435,-169.216"/>
<polygon fill="midnightblue" stroke="midnightblue" points="409.781,-165.365 399.736,-168.733 409.689,-172.365 409.781,-165.365"/>
</g>
<!-- Node8 -->
<g id="node8" class="node"><title>Node8</title>
<g id="a_node8"><a xlink:href="classsys_1_1basic__fildesbuf.html" target="_top" xlink:title="sys::basic_fildesbuf\l\&lt; Ch, Tr, Fd \&gt;">
<polygon fill="white" stroke="black" points="291,-98 291,-128 395,-128 395,-98 291,-98"/>
<text text-anchor="start" x="299" y="-116" font-family="Helvetica,sans-Serif" font-size="10.00">sys::basic_fildesbuf</text>
<text text-anchor="middle" x="343" y="-105" font-family="Helvetica,sans-Serif" font-size="10.00">&lt; Ch, Tr, Fd &gt;</text>
</a>
</g>
</g>
<!-- Node7&#45;&gt;Node8 -->
<g id="edge7" class="edge"><title>Node7&#45;&gt;Node8</title>
<path fill="none" stroke="midnightblue" d="M254.735,-113C266.854,-113 279.341,-113 290.946,-113"/>
<polygon fill="midnightblue" stroke="midnightblue" points="254.669,-109.5 244.669,-113 254.669,-116.5 254.669,-109.5"/>
</g>
<!-- Node10 -->
<g id="node10" class="node"><title>Node10</title>
<g id="a_node10"><a xlink:href="structsys_1_1basic__shmembuf.html" target="_top" xlink:title="sys::basic_shmembuf\l\&lt; Ch, Tr \&gt;">
<polygon fill="white" stroke="black" points="286.5,-49 286.5,-79 399.5,-79 399.5,-49 286.5,-49"/>
<text text-anchor="start" x="294.5" y="-67" font-family="Helvetica,sans-Serif" font-size="10.00">sys::basic_shmembuf</text>
<text text-anchor="middle" x="343" y="-56" font-family="Helvetica,sans-Serif" font-size="10.00">&lt; Ch, Tr &gt;</text>
</a>
</g>
</g>
<!-- Node7&#45;&gt;Node10 -->
<g id="edge9" class="edge"><title>Node7&#45;&gt;Node10</title>
<path fill="none" stroke="midnightblue" d="M246.013,-94.7409C262.15,-89.5727 279.527,-84.0076 295.002,-79.0516"/>
<polygon fill="midnightblue" stroke="midnightblue" points="244.609,-91.5152 236.153,-97.8986 246.745,-98.1817 244.609,-91.5152"/>
</g>
<!-- Node9 -->
<g id="node9" class="node"><title>Node9</title>
<g id="a_node9"><a xlink:href="structfactory_1_1basic__kernelbuf.html" target="_top" xlink:title="factory::basic_kernelbuf\l\&lt; sys::fildesbuf \&gt;">
<polygon fill="white" stroke="black" points="436.5,-95 436.5,-125 557.5,-125 557.5,-95 436.5,-95"/>
<text text-anchor="start" x="444.5" y="-113" font-family="Helvetica,sans-Serif" font-size="10.00">factory::basic_kernelbuf</text>
<text text-anchor="middle" x="497" y="-102" font-family="Helvetica,sans-Serif" font-size="10.00">&lt; sys::fildesbuf &gt;</text>
</a>
</g>
</g>
<!-- Node8&#45;&gt;Node9 -->
<g id="edge8" class="edge"><title>Node8&#45;&gt;Node9</title>
<path fill="none" stroke="midnightblue" d="M405.183,-111.792C415.485,-111.589 426.165,-111.378 436.425,-111.176"/>
<polygon fill="midnightblue" stroke="midnightblue" points="404.966,-108.296 395.037,-111.993 405.104,-115.295 404.966,-108.296"/>
</g>
</g>
</svg>
