<?xml version="1.0" encoding="UTF-8" standalone="no"?>
<!DOCTYPE svg PUBLIC "-//W3C//DTD SVG 1.1//EN"
 "http://www.w3.org/Graphics/SVG/1.1/DTD/svg11.dtd">
<!-- Generated by graphviz version 2.36.0 (20140111.2315)
 -->
<!-- Title: Graphical Class Hierarchy Pages: 1 -->
<svg width="216pt" height="48pt"
 viewBox="0.00 0.00 216.00 48.00" xmlns="http://www.w3.org/2000/svg" xmlns:xlink="http://www.w3.org/1999/xlink">
<g id="graph0" class="graph" transform="scale(1 1) rotate(0) translate(4 44)">
<title>Graphical Class Hierarchy</title>
<polygon fill="white" stroke="none" points="-4,4 -4,-44 212,-44 212,4 -4,4"/>
<!-- Node1 -->
<g id="node1" class="node"><title>Node1</title>
<polygon fill="white" stroke="#bfbfbf" points="0.5,-10.5 0.5,-29.5 41.5,-29.5 41.5,-10.5 0.5,-10.5"/>
<text text-anchor="middle" x="21" y="-17.5" font-family="Helvetica,sans-Serif" font-size="10.00">Tuple</text>
</g>
<!-- Node2 -->
<g id="node2" class="node"><title>Node2</title>
<g id="a_node2"><a xlink:href="structdiscovery_1_1basic__csvtuple_3_01Tuple_00_01last_00_01last_00_01Char_00_01separator_01_4.html" target="_top" xlink:title="discovery::basic_csvtuple\l\&lt; Tuple, last, last, Char,\l separator \&gt;">
<polygon fill="white" stroke="black" points="78,0.5 78,-40.5 208,-40.5 208,0.5 78,0.5"/>
<text text-anchor="start" x="86" y="-28.5" font-family="Helvetica,sans-Serif" font-size="10.00">discovery::basic_csvtuple</text>
<text text-anchor="start" x="86" y="-17.5" font-family="Helvetica,sans-Serif" font-size="10.00">&lt; Tuple, last, last, Char,</text>
<text text-anchor="middle" x="143" y="-6.5" font-family="Helvetica,sans-Serif" font-size="10.00"> separator &gt;</text>
</a>
</g>
</g>
<!-- Node1&#45;&gt;Node2 -->
<g id="edge1" class="edge"><title>Node1&#45;&gt;Node2</title>
<path fill="none" stroke="midnightblue" d="M51.7698,-20C59.765,-20 68.7296,-20 77.8227,-20"/>
<polygon fill="midnightblue" stroke="midnightblue" points="51.5472,-16.5001 41.5471,-20 51.5471,-23.5001 51.5472,-16.5001"/>
</g>
</g>
</svg>
