<?xml version="1.0" encoding="UTF-8" standalone="no"?>
<!DOCTYPE svg PUBLIC "-//W3C//DTD SVG 1.1//EN"
 "http://www.w3.org/Graphics/SVG/1.1/DTD/svg11.dtd">
<!-- Generated by graphviz version 2.36.0 (20140111.2315)
 -->
<!-- Title: Graphical Class Hierarchy Pages: 1 -->
<svg width="244pt" height="469pt"
 viewBox="0.00 0.00 244.00 469.00" xmlns="http://www.w3.org/2000/svg" xmlns:xlink="http://www.w3.org/1999/xlink">
<g id="graph0" class="graph" transform="scale(1 1) rotate(0) translate(4 465)">
<title>Graphical Class Hierarchy</title>
<polygon fill="white" stroke="none" points="-4,4 -4,-465 240,-465 240,4 -4,4"/>
<!-- Node1 -->
<g id="node1" class="node"><title>Node1</title>
<polygon fill="white" stroke="#bfbfbf" points="0,-209.5 0,-228.5 44,-228.5 44,-209.5 0,-209.5"/>
<text text-anchor="middle" x="22" y="-216.5" font-family="Helvetica,sans-Serif" font-size="10.00">Kernel</text>
</g>
<!-- Node2 -->
<g id="node2" class="node"><title>Node2</title>
<g id="a_node2"><a xlink:href="classautoreg_1_1Autoreg__model.html" target="_top" xlink:title="autoreg::Autoreg_model\&lt; T \&gt;">
<polygon fill="white" stroke="black" points="86,-441.5 86,-460.5 230,-460.5 230,-441.5 86,-441.5"/>
<text text-anchor="middle" x="158" y="-448.5" font-family="Helvetica,sans-Serif" font-size="10.00">autoreg::Autoreg_model&lt; T &gt;</text>
</a>
</g>
</g>
<!-- Node1&#45;&gt;Node2 -->
<g id="edge1" class="edge"><title>Node1&#45;&gt;Node2</title>
<path fill="none" stroke="midnightblue" d="M22.1167,-238.763C21.387,-280.675 25.9216,-378.969 80,-432 83.9324,-435.856 88.5157,-438.971 93.4507,-441.482"/>
<polygon fill="midnightblue" stroke="midnightblue" points="25.616,-238.835 22.416,-228.735 18.6191,-238.626 25.616,-238.835"/>
</g>
<!-- Node3 -->
<g id="node3" class="node"><title>Node3</title>
<g id="a_node3"><a xlink:href="classautoreg_1_1Velocity__potential.html" target="_top" xlink:title="autoreg::Velocity_potential\&lt; T \&gt;">
<polygon fill="white" stroke="black" points="80,-403.5 80,-422.5 236,-422.5 236,-403.5 80,-403.5"/>
<text text-anchor="middle" x="158" y="-410.5" font-family="Helvetica,sans-Serif" font-size="10.00">autoreg::Velocity_potential&lt; T &gt;</text>
</a>
</g>
</g>
<!-- Node1&#45;&gt;Node3 -->
<g id="edge2" class="edge"><title>Node1&#45;&gt;Node3</title>
<path fill="none" stroke="midnightblue" d="M23.5894,-238.748C25.7685,-274.794 35.68,-351.365 80,-393 84.6306,-397.35 90.0831,-400.783 95.9128,-403.487"/>
<polygon fill="midnightblue" stroke="midnightblue" points="27.0768,-238.392 23.1198,-228.564 20.0843,-238.715 27.0768,-238.392"/>
</g>
<!-- Node4 -->
<g id="node4" class="node"><title>Node4</title>
<g id="a_node4"><a xlink:href="structfactory_1_1api_1_1Map.html" target="_top" xlink:title="factory::api::Map\&lt;\l F, G, I \&gt;">
<polygon fill="white" stroke="black" points="110,-354 110,-384 206,-384 206,-354 110,-354"/>
<text text-anchor="start" x="118" y="-372" font-family="Helvetica,sans-Serif" font-size="10.00">factory::api::Map&lt;</text>
<text text-anchor="middle" x="158" y="-361" font-family="Helvetica,sans-Serif" font-size="10.00"> F, G, I &gt;</text>
</a>
</g>
</g>
<!-- Node1&#45;&gt;Node4 -->
<g id="edge3" class="edge"><title>Node1&#45;&gt;Node4</title>
<path fill="none" stroke="midnightblue" d="M26.7828,-238.677C33.0665,-266.113 48.2454,-315.671 80,-344 88.3903,-351.485 99.0563,-356.734 109.756,-360.412"/>
<polygon fill="midnightblue" stroke="midnightblue" points="30.168,-237.768 24.672,-228.71 23.3199,-239.218 30.168,-237.768"/>
</g>
<!-- Node5 -->
<g id="node5" class="node"><title>Node5</title>
<g id="a_node5"><a xlink:href="structfactory_1_1api_1_1Map_1_1Worker.html" target="_top" xlink:title="factory::api::Map\&lt;\l F, G, I \&gt;::Worker">
<polygon fill="white" stroke="black" points="110,-305 110,-335 206,-335 206,-305 110,-305"/>
<text text-anchor="start" x="118" y="-323" font-family="Helvetica,sans-Serif" font-size="10.00">factory::api::Map&lt;</text>
<text text-anchor="middle" x="158" y="-312" font-family="Helvetica,sans-Serif" font-size="10.00"> F, G, I &gt;::Worker</text>
</a>
</g>
</g>
<!-- Node1&#45;&gt;Node5 -->
<g id="edge4" class="edge"><title>Node1&#45;&gt;Node5</title>
<path fill="none" stroke="midnightblue" d="M32.656,-237.775C42.4131,-254.986 59.0258,-280.007 80,-295 88.8042,-301.294 99.2783,-306.063 109.621,-309.656"/>
<polygon fill="midnightblue" stroke="midnightblue" points="35.5665,-235.8 27.7222,-228.678 29.4133,-239.137 35.5665,-235.8"/>
</g>
<!-- Node6 -->
<g id="node6" class="node"><title>Node6</title>
<g id="a_node6"><a xlink:href="classfactory_1_1api_1_1Notification.html" target="_top" xlink:title="factory::api::Notification">
<polygon fill="white" stroke="black" points="97.5,-266.5 97.5,-285.5 218.5,-285.5 218.5,-266.5 97.5,-266.5"/>
<text text-anchor="middle" x="158" y="-273.5" font-family="Helvetica,sans-Serif" font-size="10.00">factory::api::Notification</text>
</a>
</g>
</g>
<!-- Node1&#45;&gt;Node6 -->
<g id="edge5" class="edge"><title>Node1&#45;&gt;Node6</title>
<path fill="none" stroke="midnightblue" d="M43.0283,-234.848C53.5291,-242.492 66.9053,-251.231 80,-257 88.5683,-260.775 98.0176,-263.885 107.275,-266.417"/>
<polygon fill="midnightblue" stroke="midnightblue" points="45.0487,-231.988 34.9532,-228.774 40.8409,-237.582 45.0487,-231.988"/>
</g>
<!-- Node7 -->
<g id="node7" class="node"><title>Node7</title>
<g id="a_node7"><a xlink:href="classfactory_1_1resident__kernel.html" target="_top" xlink:title="factory::resident_kernel">
<polygon fill="white" stroke="black" points="98.5,-228.5 98.5,-247.5 217.5,-247.5 217.5,-228.5 98.5,-228.5"/>
<text text-anchor="middle" x="158" y="-235.5" font-family="Helvetica,sans-Serif" font-size="10.00">factory::resident_kernel</text>
</a>
</g>
</g>
<!-- Node1&#45;&gt;Node7 -->
<g id="edge6" class="edge"><title>Node1&#45;&gt;Node7</title>
<path fill="none" stroke="midnightblue" d="M54.161,-223.418C67.3148,-225.283 83.0802,-227.519 98.2698,-229.673"/>
<polygon fill="midnightblue" stroke="midnightblue" points="54.6251,-219.949 44.2327,-222.011 53.6423,-226.88 54.6251,-219.949"/>
</g>
<!-- Node8 -->
<g id="node8" class="node"><title>Node8</title>
<g id="a_node8"><a xlink:href="classfactoryd_1_1network__master.html" target="_top" xlink:title="factoryd::network_master">
<polygon fill="white" stroke="black" points="94,-190.5 94,-209.5 222,-209.5 222,-190.5 94,-190.5"/>
<text text-anchor="middle" x="158" y="-197.5" font-family="Helvetica,sans-Serif" font-size="10.00">factoryd::network_master</text>
</a>
</g>
</g>
<!-- Node1&#45;&gt;Node8 -->
<g id="edge7" class="edge"><title>Node1&#45;&gt;Node8</title>
<path fill="none" stroke="midnightblue" d="M54.4456,-214.541C66.2753,-212.864 80.187,-210.891 93.8817,-208.95"/>
<polygon fill="midnightblue" stroke="midnightblue" points="53.6423,-211.12 44.2327,-215.989 54.625,-218.051 53.6423,-211.12"/>
</g>
<!-- Node9 -->
<g id="node9" class="node"><title>Node9</title>
<g id="a_node9"><a xlink:href="classfactoryd_1_1network__timer.html" target="_top" xlink:title="factoryd::network_timer">
<polygon fill="white" stroke="black" points="98.5,-152.5 98.5,-171.5 217.5,-171.5 217.5,-152.5 98.5,-152.5"/>
<text text-anchor="middle" x="158" y="-159.5" font-family="Helvetica,sans-Serif" font-size="10.00">factoryd::network_timer</text>
</a>
</g>
</g>
<!-- Node1&#45;&gt;Node9 -->
<g id="edge8" class="edge"><title>Node1&#45;&gt;Node9</title>
<path fill="none" stroke="midnightblue" d="M43.0283,-203.152C53.5291,-195.508 66.9053,-186.769 80,-181 88.5683,-177.225 98.0176,-174.115 107.275,-171.583"/>
<polygon fill="midnightblue" stroke="midnightblue" points="40.8409,-200.418 34.9532,-209.226 45.0487,-206.012 40.8409,-200.418"/>
</g>
<!-- Node10 -->
<g id="node10" class="node"><title>Node10</title>
<g id="a_node10"><a xlink:href="structLauncher.html" target="_top" xlink:title="Launcher">
<polygon fill="white" stroke="black" points="130,-114.5 130,-133.5 186,-133.5 186,-114.5 130,-114.5"/>
<text text-anchor="middle" x="158" y="-121.5" font-family="Helvetica,sans-Serif" font-size="10.00">Launcher</text>
</a>
</g>
</g>
<!-- Node1&#45;&gt;Node10 -->
<g id="edge9" class="edge"><title>Node1&#45;&gt;Node10</title>
<path fill="none" stroke="midnightblue" d="M32.2635,-200.157C41.8271,-182.688 58.3847,-157.304 80,-143 94.8123,-133.198 114.248,-128.45 129.887,-126.151"/>
<polygon fill="midnightblue" stroke="midnightblue" points="28.9726,-198.898 27.4554,-209.384 35.1803,-202.133 28.9726,-198.898"/>
</g>
<!-- Node11 -->
<g id="node11" class="node"><title>Node11</title>
<g id="a_node11"><a xlink:href="structPing.html" target="_top" xlink:title="Ping">
<polygon fill="white" stroke="black" points="140,-76.5 140,-95.5 176,-95.5 176,-76.5 140,-76.5"/>
<text text-anchor="middle" x="158" y="-83.5" font-family="Helvetica,sans-Serif" font-size="10.00">Ping</text>
</a>
</g>
</g>
<!-- Node1&#45;&gt;Node11 -->
<g id="edge10" class="edge"><title>Node1&#45;&gt;Node11</title>
<path fill="none" stroke="midnightblue" d="M27.4146,-199.287C34.2098,-173.622 49.7415,-129.197 80,-105 97.2057,-91.2413 122.982,-87.2591 139.895,-86.2072"/>
<polygon fill="midnightblue" stroke="midnightblue" points="23.9362,-198.775 24.9524,-209.321 30.7346,-200.444 23.9362,-198.775"/>
</g>
<!-- Node12 -->
<g id="node12" class="node"><title>Node12</title>
<g id="a_node12"><a xlink:href="structPing__pong.html" target="_top" xlink:title="Ping_pong">
<polygon fill="white" stroke="black" points="127,-38.5 127,-57.5 189,-57.5 189,-38.5 127,-38.5"/>
<text text-anchor="middle" x="158" y="-45.5" font-family="Helvetica,sans-Serif" font-size="10.00">Ping_pong</text>
</a>
</g>
</g>
<!-- Node1&#45;&gt;Node12 -->
<g id="edge11" class="edge"><title>Node1&#45;&gt;Node12</title>
<path fill="none" stroke="midnightblue" d="M24.6107,-199.437C28.3636,-166.957 40.63,-102.019 80,-67 92.7572,-55.6527 111.222,-50.8403 126.871,-48.8945"/>
<polygon fill="midnightblue" stroke="midnightblue" points="21.1199,-199.171 23.6079,-209.47 28.0852,-199.867 21.1199,-199.171"/>
</g>
<!-- Node13 -->
<g id="node13" class="node"><title>Node13</title>
<g id="a_node13"><a xlink:href="structYear__kernel.html" target="_top" xlink:title="Year_kernel">
<polygon fill="white" stroke="black" points="124,-0.5 124,-19.5 192,-19.5 192,-0.5 124,-0.5"/>
<text text-anchor="middle" x="158" y="-7.5" font-family="Helvetica,sans-Serif" font-size="10.00">Year_kernel</text>
</a>
</g>
</g>
<!-- Node1&#45;&gt;Node13 -->
<g id="edge12" class="edge"><title>Node1&#45;&gt;Node13</title>
<path fill="none" stroke="midnightblue" d="M22.8952,-199.032C23.8284,-160.367 31.6178,-75.043 80,-29 91.6699,-17.8943 108.756,-12.9712 123.871,-10.8992"/>
<polygon fill="midnightblue" stroke="midnightblue" points="19.3913,-199.403 22.7883,-209.438 26.3909,-199.475 19.3913,-199.403"/>
</g>
</g>
</svg>
