<?xml version="1.0" encoding="UTF-8" standalone="no"?>
<!DOCTYPE svg PUBLIC "-//W3C//DTD SVG 1.1//EN"
 "http://www.w3.org/Graphics/SVG/1.1/DTD/svg11.dtd">
<!-- Generated by graphviz version 2.36.0 (20140111.2315)
 -->
<!-- Title: Graphical Class Hierarchy Pages: 1 -->
<svg width="624pt" height="432pt"
 viewBox="0.00 0.00 624.00 432.00" xmlns="http://www.w3.org/2000/svg" xmlns:xlink="http://www.w3.org/1999/xlink">
<g id="graph0" class="graph" transform="scale(1 1) rotate(0) translate(4 428)">
<title>Graphical Class Hierarchy</title>
<polygon fill="white" stroke="none" points="-4,4 -4,-428 620,-428 620,4 -4,4"/>
<!-- Node1 -->
<g id="node1" class="node"><title>Node1</title>
<g id="a_node1"><a xlink:href="classasc_1_1pipeline__base.html" target="_top" xlink:title="asc::pipeline_base">
<polygon fill="white" stroke="black" points="0,-137.5 0,-156.5 98,-156.5 98,-137.5 0,-137.5"/>
<text text-anchor="middle" x="49" y="-144.5" font-family="Helvetica,sans-Serif" font-size="10.00">asc::pipeline_base</text>
</a>
</g>
</g>
<!-- Node2 -->
<g id="node2" class="node"><title>Node2</title>
<g id="a_node2"><a xlink:href="classasc_1_1basic__pipeline.html" target="_top" xlink:title="asc::basic_pipeline\l\&lt; T, Kernels, Traits,\l Threads, Mutex, Lock,\l Semaphore \&gt;">
<polygon fill="white" stroke="black" points="137,-263 137,-315 255,-315 255,-263 137,-263"/>
<text text-anchor="start" x="145" y="-303" font-family="Helvetica,sans-Serif" font-size="10.00">asc::basic_pipeline</text>
<text text-anchor="start" x="145" y="-292" font-family="Helvetica,sans-Serif" font-size="10.00">&lt; T, Kernels, Traits,</text>
<text text-anchor="start" x="145" y="-281" font-family="Helvetica,sans-Serif" font-size="10.00"> Threads, Mutex, Lock,</text>
<text text-anchor="middle" x="196" y="-270" font-family="Helvetica,sans-Serif" font-size="10.00"> Semaphore &gt;</text>
</a>
</g>
</g>
<!-- Node1&#45;&gt;Node2 -->
<g id="edge1" class="edge"><title>Node1&#45;&gt;Node2</title>
<path fill="none" stroke="midnightblue" d="M61.492,-165.374C76.2613,-187.96 103.644,-226.541 134,-253 137.986,-256.474 142.354,-259.797 146.863,-262.921"/>
<polygon fill="midnightblue" stroke="midnightblue" points="64.3084,-163.282 55.9626,-156.756 58.4166,-167.062 64.3084,-163.282"/>
</g>
<!-- Node14 -->
<g id="node14" class="node"><title>Node14</title>
<g id="a_node14"><a xlink:href="classasc_1_1external__process__handler.html" target="_top" xlink:title="asc::external_process\l_handler\&lt; T, Router \&gt;">
<polygon fill="white" stroke="black" points="139.5,-214 139.5,-244 252.5,-244 252.5,-214 139.5,-214"/>
<text text-anchor="start" x="147.5" y="-232" font-family="Helvetica,sans-Serif" font-size="10.00">asc::external_process</text>
<text text-anchor="middle" x="196" y="-221" font-family="Helvetica,sans-Serif" font-size="10.00">_handler&lt; T, Router &gt;</text>
</a>
</g>
</g>
<!-- Node1&#45;&gt;Node14 -->
<g id="edge13" class="edge"><title>Node1&#45;&gt;Node14</title>
<path fill="none" stroke="midnightblue" d="M70.6518,-162.796C87.2051,-175.011 111.333,-191.835 134,-204 140.555,-207.518 147.714,-210.861 154.747,-213.892"/>
<polygon fill="midnightblue" stroke="midnightblue" points="72.3963,-159.73 62.2922,-156.543 68.2035,-165.335 72.3963,-159.73"/>
</g>
<!-- Node15 -->
<g id="node15" class="node"><title>Node15</title>
<g id="a_node15"><a xlink:href="classasc_1_1Factory.html" target="_top" xlink:title="asc::Factory\&lt; T \&gt;">
<polygon fill="white" stroke="black" points="148.5,-175.5 148.5,-194.5 243.5,-194.5 243.5,-175.5 148.5,-175.5"/>
<text text-anchor="middle" x="196" y="-182.5" font-family="Helvetica,sans-Serif" font-size="10.00">asc::Factory&lt; T &gt;</text>
</a>
</g>
</g>
<!-- Node1&#45;&gt;Node15 -->
<g id="edge14" class="edge"><title>Node1&#45;&gt;Node15</title>
<path fill="none" stroke="midnightblue" d="M96.4928,-159.184C116.624,-164.46 139.838,-170.544 158.673,-175.48"/>
<polygon fill="midnightblue" stroke="midnightblue" points="97.1503,-155.738 86.5896,-156.589 95.3757,-162.51 97.1503,-155.738"/>
</g>
<!-- Node16 -->
<g id="node16" class="node"><title>Node16</title>
<g id="a_node16"><a xlink:href="classasc_1_1Multi__pipeline.html" target="_top" xlink:title="asc::Multi_pipeline\&lt; T \&gt;">
<polygon fill="white" stroke="black" points="135,-137.5 135,-156.5 257,-156.5 257,-137.5 135,-137.5"/>
<text text-anchor="middle" x="196" y="-144.5" font-family="Helvetica,sans-Serif" font-size="10.00">asc::Multi_pipeline&lt; T &gt;</text>
</a>
</g>
</g>
<!-- Node1&#45;&gt;Node16 -->
<g id="edge15" class="edge"><title>Node1&#45;&gt;Node16</title>
<path fill="none" stroke="midnightblue" d="M108.347,-147C117.059,-147 126.054,-147 134.803,-147"/>
<polygon fill="midnightblue" stroke="midnightblue" points="108.283,-143.5 98.2829,-147 108.283,-150.5 108.283,-143.5"/>
</g>
<!-- Node17 -->
<g id="node17" class="node"><title>Node17</title>
<g id="a_node17"><a xlink:href="classasc_1_1process__handler.html" target="_top" xlink:title="asc::process_handler\l\&lt; K, R \&gt;">
<polygon fill="white" stroke="black" points="141,-88 141,-118 251,-118 251,-88 141,-88"/>
<text text-anchor="start" x="149" y="-106" font-family="Helvetica,sans-Serif" font-size="10.00">asc::process_handler</text>
<text text-anchor="middle" x="196" y="-95" font-family="Helvetica,sans-Serif" font-size="10.00">&lt; K, R &gt;</text>
</a>
</g>
</g>
<!-- Node1&#45;&gt;Node17 -->
<g id="edge16" class="edge"><title>Node1&#45;&gt;Node17</title>
<path fill="none" stroke="midnightblue" d="M91.0457,-134.545C107.938,-129.419 127.657,-123.435 145.353,-118.065"/>
<polygon fill="midnightblue" stroke="midnightblue" points="90.0156,-131.2 81.4628,-137.453 92.0483,-137.898 90.0156,-131.2"/>
</g>
<!-- Node18 -->
<g id="node18" class="node"><title>Node18</title>
<g id="a_node18"><a xlink:href="classasc_1_1remote__client.html" target="_top" xlink:title="asc::remote_client\l\&lt; T, Socket, Router \&gt;">
<polygon fill="white" stroke="black" points="139.5,-39 139.5,-69 252.5,-69 252.5,-39 139.5,-39"/>
<text text-anchor="start" x="147.5" y="-57" font-family="Helvetica,sans-Serif" font-size="10.00">asc::remote_client</text>
<text text-anchor="middle" x="196" y="-46" font-family="Helvetica,sans-Serif" font-size="10.00">&lt; T, Socket, Router &gt;</text>
</a>
</g>
</g>
<!-- Node1&#45;&gt;Node18 -->
<g id="edge17" class="edge"><title>Node1&#45;&gt;Node18</title>
<path fill="none" stroke="midnightblue" d="M67.1358,-130.17C83.3107,-114.984 108.782,-92.8183 134,-78 139.593,-74.7136 145.719,-71.7009 151.864,-69.0029"/>
<polygon fill="midnightblue" stroke="midnightblue" points="64.3843,-127.958 59.5753,-137.399 69.2219,-133.018 64.3843,-127.958"/>
</g>
<!-- Node19 -->
<g id="node19" class="node"><title>Node19</title>
<g id="a_node19"><a xlink:href="classasc_1_1basic__pipeline.html" target="_top" xlink:title="asc::basic_pipeline\&lt; T \&gt;">
<polygon fill="white" stroke="black" points="134,-0.5 134,-19.5 258,-19.5 258,-0.5 134,-0.5"/>
<text text-anchor="middle" x="196" y="-7.5" font-family="Helvetica,sans-Serif" font-size="10.00">asc::basic_pipeline&lt; T &gt;</text>
</a>
</g>
</g>
<!-- Node1&#45;&gt;Node19 -->
<g id="edge18" class="edge"><title>Node1&#45;&gt;Node19</title>
<path fill="none" stroke="midnightblue" d="M58.4774,-128.271C71.2047,-102.225 97.6874,-55.3124 134,-29 139.299,-25.16 145.396,-22.0809 151.641,-19.6158"/>
<polygon fill="midnightblue" stroke="midnightblue" points="55.2514,-126.905 54.1453,-137.442 61.5809,-129.895 55.2514,-126.905"/>
</g>
<!-- Node3 -->
<g id="node3" class="node"><title>Node3</title>
<g id="a_node3"><a xlink:href="structasc_1_1basic__socket__pipeline.html" target="_top" xlink:title="asc::basic_socket_pipeline\l\&lt; T, Handler \&gt;">
<polygon fill="white" stroke="black" points="306,-394 306,-424 440,-424 440,-394 306,-394"/>
<text text-anchor="start" x="314" y="-412" font-family="Helvetica,sans-Serif" font-size="10.00">asc::basic_socket_pipeline</text>
<text text-anchor="middle" x="373" y="-401" font-family="Helvetica,sans-Serif" font-size="10.00">&lt; T, Handler &gt;</text>
</a>
</g>
</g>
<!-- Node2&#45;&gt;Node3 -->
<g id="edge2" class="edge"><title>Node2&#45;&gt;Node3</title>
<path fill="none" stroke="midnightblue" d="M224.66,-323.178C242.572,-343.352 267.447,-367.99 294,-384 300.333,-387.818 307.311,-391.117 314.411,-393.949"/>
<polygon fill="midnightblue" stroke="midnightblue" points="227.11,-320.662 217.908,-315.411 221.828,-325.254 227.11,-320.662"/>
</g>
<!-- Node4 -->
<g id="node4" class="node"><title>Node4</title>
<g id="a_node4"><a xlink:href="structasc_1_1timer__pipeline.html" target="_top" xlink:title="asc::timer_pipeline\&lt; T \&gt;">
<polygon fill="white" stroke="black" points="312,-355.5 312,-374.5 434,-374.5 434,-355.5 312,-355.5"/>
<text text-anchor="middle" x="373" y="-362.5" font-family="Helvetica,sans-Serif" font-size="10.00">asc::timer_pipeline&lt; T &gt;</text>
</a>
</g>
</g>
<!-- Node2&#45;&gt;Node4 -->
<g id="edge3" class="edge"><title>Node2&#45;&gt;Node4</title>
<path fill="none" stroke="midnightblue" d="M245.466,-320.439C260.579,-329.286 277.594,-338.308 294,-345 304.097,-349.118 315.282,-352.584 325.955,-355.412"/>
<polygon fill="midnightblue" stroke="midnightblue" points="247.187,-317.391 236.806,-315.27 243.599,-323.401 247.187,-317.391"/>
</g>
<!-- Node5 -->
<g id="node5" class="node"><title>Node5</title>
<g id="a_node5"><a xlink:href="structasc_1_1basic__socket__pipeline.html" target="_top" xlink:title="asc::basic_socket_pipeline\l\&lt; K, external_process_handler\l\&lt; K, R \&gt; \&gt;">
<polygon fill="white" stroke="black" points="298.5,-295.5 298.5,-336.5 447.5,-336.5 447.5,-295.5 298.5,-295.5"/>
<text text-anchor="start" x="306.5" y="-324.5" font-family="Helvetica,sans-Serif" font-size="10.00">asc::basic_socket_pipeline</text>
<text text-anchor="start" x="306.5" y="-313.5" font-family="Helvetica,sans-Serif" font-size="10.00">&lt; K, external_process_handler</text>
<text text-anchor="middle" x="373" y="-302.5" font-family="Helvetica,sans-Serif" font-size="10.00">&lt; K, R &gt; &gt;</text>
</a>
</g>
</g>
<!-- Node2&#45;&gt;Node5 -->
<g id="edge4" class="edge"><title>Node2&#45;&gt;Node5</title>
<path fill="none" stroke="midnightblue" d="M265.484,-299.566C276.29,-301.233 287.501,-302.963 298.416,-304.647"/>
<polygon fill="midnightblue" stroke="midnightblue" points="265.689,-296.056 255.272,-297.991 264.622,-302.975 265.689,-296.056"/>
</g>
<!-- Node7 -->
<g id="node7" class="node"><title>Node7</title>
<g id="a_node7"><a xlink:href="structasc_1_1basic__socket__pipeline.html" target="_top" xlink:title="asc::basic_socket_pipeline\l\&lt; K, process_handler\&lt; K, R \&gt; \&gt;">
<polygon fill="white" stroke="black" points="294.5,-247 294.5,-277 451.5,-277 451.5,-247 294.5,-247"/>
<text text-anchor="start" x="302.5" y="-265" font-family="Helvetica,sans-Serif" font-size="10.00">asc::basic_socket_pipeline</text>
<text text-anchor="middle" x="373" y="-254" font-family="Helvetica,sans-Serif" font-size="10.00">&lt; K, process_handler&lt; K, R &gt; &gt;</text>
</a>
</g>
</g>
<!-- Node2&#45;&gt;Node7 -->
<g id="edge6" class="edge"><title>Node2&#45;&gt;Node7</title>
<path fill="none" stroke="midnightblue" d="M265.424,-278.443C274.915,-276.979 284.72,-275.466 294.363,-273.978"/>
<polygon fill="midnightblue" stroke="midnightblue" points="264.622,-275.025 255.272,-280.009 265.689,-281.944 264.622,-275.025"/>
</g>
<!-- Node10 -->
<g id="node10" class="node"><title>Node10</title>
<g id="a_node10"><a xlink:href="structasc_1_1basic__socket__pipeline.html" target="_top" xlink:title="asc::basic_socket_pipeline\l\&lt; T, process_handler\&lt; T,\l basic_router\&lt; T \&gt; \&gt; \&gt;">
<polygon fill="white" stroke="black" points="306,-187.5 306,-228.5 440,-228.5 440,-187.5 306,-187.5"/>
<text text-anchor="start" x="314" y="-216.5" font-family="Helvetica,sans-Serif" font-size="10.00">asc::basic_socket_pipeline</text>
<text text-anchor="start" x="314" y="-205.5" font-family="Helvetica,sans-Serif" font-size="10.00">&lt; T, process_handler&lt; T,</text>
<text text-anchor="middle" x="373" y="-194.5" font-family="Helvetica,sans-Serif" font-size="10.00"> basic_router&lt; T &gt; &gt; &gt;</text>
</a>
</g>
</g>
<!-- Node2&#45;&gt;Node10 -->
<g id="edge9" class="edge"><title>Node2&#45;&gt;Node10</title>
<path fill="none" stroke="midnightblue" d="M251.547,-258.085C265.227,-250.798 280,-243.32 294,-237 300.452,-234.087 307.292,-231.227 314.135,-228.506"/>
<polygon fill="midnightblue" stroke="midnightblue" points="249.88,-255.007 242.735,-262.831 253.199,-261.17 249.88,-255.007"/>
</g>
<!-- Node12 -->
<g id="node12" class="node"><title>Node12</title>
<g id="a_node12"><a xlink:href="structasc_1_1basic__socket__pipeline.html" target="_top" xlink:title="asc::basic_socket_pipeline\l\&lt; T, remote_client\&lt; T, Socket,\l Router \&gt; \&gt;">
<polygon fill="white" stroke="black" points="297.5,-127.5 297.5,-168.5 448.5,-168.5 448.5,-127.5 297.5,-127.5"/>
<text text-anchor="start" x="305.5" y="-156.5" font-family="Helvetica,sans-Serif" font-size="10.00">asc::basic_socket_pipeline</text>
<text text-anchor="start" x="305.5" y="-145.5" font-family="Helvetica,sans-Serif" font-size="10.00">&lt; T, remote_client&lt; T, Socket,</text>
<text text-anchor="middle" x="373" y="-134.5" font-family="Helvetica,sans-Serif" font-size="10.00"> Router &gt; &gt;</text>
</a>
</g>
</g>
<!-- Node2&#45;&gt;Node12 -->
<g id="edge11" class="edge"><title>Node2&#45;&gt;Node12</title>
<path fill="none" stroke="midnightblue" d="M254.841,-256.242C255.931,-255.185 256.987,-254.104 258,-253 283.002,-225.76 266.826,-203.074 294,-178 297.839,-174.458 302.14,-171.319 306.698,-168.539"/>
<polygon fill="midnightblue" stroke="midnightblue" points="252.459,-253.674 247.194,-262.868 257.043,-258.964 252.459,-253.674"/>
</g>
<!-- Node6 -->
<g id="node6" class="node"><title>Node6</title>
<g id="a_node6"><a xlink:href="classasc_1_1unix__domain__socket__pipeline.html" target="_top" xlink:title="asc::unix_domain_socket\l_pipeline\&lt; K, R \&gt;">
<polygon fill="white" stroke="black" points="488,-342 488,-372 616,-372 616,-342 488,-342"/>
<text text-anchor="start" x="496" y="-360" font-family="Helvetica,sans-Serif" font-size="10.00">asc::unix_domain_socket</text>
<text text-anchor="middle" x="552" y="-349" font-family="Helvetica,sans-Serif" font-size="10.00">_pipeline&lt; K, R &gt;</text>
</a>
</g>
</g>
<!-- Node5&#45;&gt;Node6 -->
<g id="edge5" class="edge"><title>Node5&#45;&gt;Node6</title>
<path fill="none" stroke="midnightblue" d="M457.321,-335.3C467.587,-337.678 477.945,-340.078 487.842,-342.37"/>
<polygon fill="midnightblue" stroke="midnightblue" points="458.058,-331.878 447.526,-333.032 456.478,-338.698 458.058,-331.878"/>
</g>
<!-- Node8 -->
<g id="node8" class="node"><title>Node8</title>
<g id="a_node8"><a xlink:href="classasc_1_1child__process__pipeline.html" target="_top" xlink:title="asc::child_process\l_pipeline\&lt; K, R \&gt;">
<polygon fill="white" stroke="black" points="503,-293 503,-323 601,-323 601,-293 503,-293"/>
<text text-anchor="start" x="511" y="-311" font-family="Helvetica,sans-Serif" font-size="10.00">asc::child_process</text>
<text text-anchor="middle" x="552" y="-300" font-family="Helvetica,sans-Serif" font-size="10.00">_pipeline&lt; K, R &gt;</text>
</a>
</g>
</g>
<!-- Node7&#45;&gt;Node8 -->
<g id="edge7" class="edge"><title>Node7&#45;&gt;Node8</title>
<path fill="none" stroke="midnightblue" d="M441.82,-279.625C462.207,-284.924 484.145,-290.625 502.97,-295.518"/>
<polygon fill="midnightblue" stroke="midnightblue" points="442.515,-276.19 431.956,-277.062 440.755,-282.965 442.515,-276.19"/>
</g>
<!-- Node9 -->
<g id="node9" class="node"><title>Node9</title>
<g id="a_node9"><a xlink:href="classasc_1_1process__pipeline.html" target="_top" xlink:title="asc::process_pipeline\l\&lt; K, R \&gt;">
<polygon fill="white" stroke="black" points="496.5,-244 496.5,-274 607.5,-274 607.5,-244 496.5,-244"/>
<text text-anchor="start" x="504.5" y="-262" font-family="Helvetica,sans-Serif" font-size="10.00">asc::process_pipeline</text>
<text text-anchor="middle" x="552" y="-251" font-family="Helvetica,sans-Serif" font-size="10.00">&lt; K, R &gt;</text>
</a>
</g>
</g>
<!-- Node7&#45;&gt;Node9 -->
<g id="edge8" class="edge"><title>Node7&#45;&gt;Node9</title>
<path fill="none" stroke="midnightblue" d="M461.907,-260.51C473.624,-260.311 485.355,-260.113 496.278,-259.927"/>
<polygon fill="midnightblue" stroke="midnightblue" points="461.574,-257.015 451.635,-260.684 461.693,-264.014 461.574,-257.015"/>
</g>
<!-- Node11 -->
<g id="node11" class="node"><title>Node11</title>
<g id="a_node11"><a xlink:href="classasc_1_1child__process__pipeline.html" target="_top" xlink:title="asc::child_process\l_pipeline\&lt; T, basic\l_router\&lt; T \&gt; \&gt;">
<polygon fill="white" stroke="black" points="502.5,-184.5 502.5,-225.5 601.5,-225.5 601.5,-184.5 502.5,-184.5"/>
<text text-anchor="start" x="510.5" y="-213.5" font-family="Helvetica,sans-Serif" font-size="10.00">asc::child_process</text>
<text text-anchor="start" x="510.5" y="-202.5" font-family="Helvetica,sans-Serif" font-size="10.00">_pipeline&lt; T, basic</text>
<text text-anchor="middle" x="552" y="-191.5" font-family="Helvetica,sans-Serif" font-size="10.00">_router&lt; T &gt; &gt;</text>
</a>
</g>
</g>
<!-- Node10&#45;&gt;Node11 -->
<g id="edge10" class="edge"><title>Node10&#45;&gt;Node11</title>
<path fill="none" stroke="midnightblue" d="M450.427,-206.705C468.029,-206.406 486.281,-206.097 502.326,-205.825"/>
<polygon fill="midnightblue" stroke="midnightblue" points="450.099,-203.21 440.16,-206.879 450.218,-210.209 450.099,-203.21"/>
</g>
<!-- Node13 -->
<g id="node13" class="node"><title>Node13</title>
<g id="a_node13"><a xlink:href="classasc_1_1socket__pipeline.html" target="_top" xlink:title="asc::socket_pipeline\l\&lt; T, Socket, Router \&gt;">
<polygon fill="white" stroke="black" points="495.5,-133 495.5,-163 608.5,-163 608.5,-133 495.5,-133"/>
<text text-anchor="start" x="503.5" y="-151" font-family="Helvetica,sans-Serif" font-size="10.00">asc::socket_pipeline</text>
<text text-anchor="middle" x="552" y="-140" font-family="Helvetica,sans-Serif" font-size="10.00">&lt; T, Socket, Router &gt;</text>
</a>
</g>
</g>
<!-- Node12&#45;&gt;Node13 -->
<g id="edge12" class="edge"><title>Node12&#45;&gt;Node13</title>
<path fill="none" stroke="midnightblue" d="M458.908,-148C471.289,-148 483.765,-148 495.362,-148"/>
<polygon fill="midnightblue" stroke="midnightblue" points="458.551,-144.5 448.551,-148 458.551,-151.5 458.551,-144.5"/>
</g>
<!-- Node20 -->
<g id="node20" class="node"><title>Node20</title>
<g id="a_node20"><a xlink:href="classasc_1_1parallel__pipeline.html" target="_top" xlink:title="asc::parallel_pipeline\&lt; T \&gt;">
<polygon fill="white" stroke="black" points="307.5,-0.5 307.5,-19.5 438.5,-19.5 438.5,-0.5 307.5,-0.5"/>
<text text-anchor="middle" x="373" y="-7.5" font-family="Helvetica,sans-Serif" font-size="10.00">asc::parallel_pipeline&lt; T &gt;</text>
</a>
</g>
</g>
<!-- Node19&#45;&gt;Node20 -->
<g id="edge19" class="edge"><title>Node19&#45;&gt;Node20</title>
<path fill="none" stroke="midnightblue" d="M268.396,-10C281.258,-10 294.6,-10 307.26,-10"/>
<polygon fill="midnightblue" stroke="midnightblue" points="268.207,-6.5001 258.207,-10 268.206,-13.5001 268.207,-6.5001"/>
</g>
<!-- Node21 -->
<g id="node21" class="node"><title>Node21</title>
<g id="a_node21"><a xlink:href="structasc_1_1io__pipeline.html" target="_top" xlink:title="asc::io_pipeline\&lt; T \&gt;">
<polygon fill="white" stroke="black" points="498,-0.5 498,-19.5 606,-19.5 606,-0.5 498,-0.5"/>
<text text-anchor="middle" x="552" y="-7.5" font-family="Helvetica,sans-Serif" font-size="10.00">asc::io_pipeline&lt; T &gt;</text>
</a>
</g>
</g>
<!-- Node20&#45;&gt;Node21 -->
<g id="edge20" class="edge"><title>Node20&#45;&gt;Node21</title>
<path fill="none" stroke="midnightblue" d="M448.81,-10C465.292,-10 482.423,-10 497.842,-10"/>
<polygon fill="midnightblue" stroke="midnightblue" points="448.652,-6.5001 438.652,-10 448.652,-13.5001 448.652,-6.5001"/>
</g>
</g>
</svg>
