<?xml version="1.0" encoding="UTF-8" standalone="no"?>
<!DOCTYPE svg PUBLIC "-//W3C//DTD SVG 1.1//EN"
 "http://www.w3.org/Graphics/SVG/1.1/DTD/svg11.dtd">
<!-- Generated by graphviz version 2.36.0 (20140111.2315)
 -->
<!-- Title: Graphical Class Hierarchy Pages: 1 -->
<svg width="684pt" height="1264pt"
 viewBox="0.00 0.00 684.00 1264.00" xmlns="http://www.w3.org/2000/svg" xmlns:xlink="http://www.w3.org/1999/xlink">
<g id="graph0" class="graph" transform="scale(1 1) rotate(0) translate(4 1260)">
<title>Graphical Class Hierarchy</title>
<polygon fill="white" stroke="none" points="-4,4 -4,-1260 680,-1260 680,4 -4,4"/>
<!-- Node1 -->
<g id="node1" class="node"><title>Node1</title>
<g id="a_node1"><a xlink:href="classbsc_1_1kernel__base.html" target="_top" xlink:title="bsc::kernel_base">
<polygon fill="white" stroke="black" points="4.5,-620.5 4.5,-639.5 95.5,-639.5 95.5,-620.5 4.5,-620.5"/>
<text text-anchor="middle" x="50" y="-627.5" font-family="Helvetica,sans-Serif" font-size="10.00">bsc::kernel_base</text>
</a>
</g>
</g>
<!-- Node2 -->
<g id="node2" class="node"><title>Node2</title>
<g id="a_node2"><a xlink:href="classbsc_1_1mobile__kernel.html" target="_top" xlink:title="bsc::mobile_kernel">
<polygon fill="white" stroke="black" points="136,-601.5 136,-620.5 234,-620.5 234,-601.5 136,-601.5"/>
<text text-anchor="middle" x="185" y="-608.5" font-family="Helvetica,sans-Serif" font-size="10.00">bsc::mobile_kernel</text>
</a>
</g>
</g>
<!-- Node1&#45;&gt;Node2 -->
<g id="edge1" class="edge"><title>Node1&#45;&gt;Node2</title>
<path fill="none" stroke="midnightblue" d="M105.785,-622.174C115.663,-620.762 125.898,-619.3 135.58,-617.917"/>
<polygon fill="midnightblue" stroke="midnightblue" points="105.062,-618.741 95.6571,-623.62 106.052,-625.671 105.062,-618.741"/>
</g>
<!-- Node3 -->
<g id="node3" class="node"><title>Node3</title>
<g id="a_node3"><a xlink:href="structbsc_1_1kernel.html" target="_top" xlink:title="bsc::kernel">
<polygon fill="white" stroke="black" points="270.5,-601.5 270.5,-620.5 335.5,-620.5 335.5,-601.5 270.5,-601.5"/>
<text text-anchor="middle" x="303" y="-608.5" font-family="Helvetica,sans-Serif" font-size="10.00">bsc::kernel</text>
</a>
</g>
</g>
<!-- Node2&#45;&gt;Node3 -->
<g id="edge2" class="edge"><title>Node2&#45;&gt;Node3</title>
<path fill="none" stroke="midnightblue" d="M244.283,-611C253.263,-611 262.233,-611 270.334,-611"/>
<polygon fill="midnightblue" stroke="midnightblue" points="244.187,-607.5 234.187,-611 244.187,-614.5 244.187,-607.5"/>
</g>
<!-- Node4 -->
<g id="node4" class="node"><title>Node4</title>
<g id="a_node4"><a xlink:href="structautoreg_1_1ACF__generator.html" target="_top" xlink:title="autoreg::ACF_generator\&lt; T \&gt;">
<polygon fill="white" stroke="black" points="372.5,-1236.5 372.5,-1255.5 517.5,-1255.5 517.5,-1236.5 372.5,-1236.5"/>
<text text-anchor="middle" x="445" y="-1243.5" font-family="Helvetica,sans-Serif" font-size="10.00">autoreg::ACF_generator&lt; T &gt;</text>
</a>
</g>
</g>
<!-- Node3&#45;&gt;Node4 -->
<g id="edge3" class="edge"><title>Node3&#45;&gt;Node4</title>
<path fill="none" stroke="midnightblue" d="M304.871,-630.821C309.454,-731.221 332.093,-1180.7 372,-1227 375.292,-1230.82 379.251,-1233.92 383.599,-1236.42"/>
<polygon fill="midnightblue" stroke="midnightblue" points="308.366,-630.644 304.421,-620.811 301.373,-630.958 308.366,-630.644"/>
</g>
<!-- Node5 -->
<g id="node5" class="node"><title>Node5</title>
<g id="a_node5"><a xlink:href="structautoreg_1_1Autoreg__coefs.html" target="_top" xlink:title="autoreg::Autoreg_coefs\&lt; T \&gt;">
<polygon fill="white" stroke="black" points="374,-1198.5 374,-1217.5 516,-1217.5 516,-1198.5 374,-1198.5"/>
<text text-anchor="middle" x="445" y="-1205.5" font-family="Helvetica,sans-Serif" font-size="10.00">autoreg::Autoreg_coefs&lt; T &gt;</text>
</a>
</g>
</g>
<!-- Node3&#45;&gt;Node5 -->
<g id="edge4" class="edge"><title>Node3&#45;&gt;Node5</title>
<path fill="none" stroke="midnightblue" d="M305.02,-630.79C310.167,-727.316 334.525,-1145.83 372,-1189 375.305,-1192.81 379.275,-1195.9 383.629,-1198.4"/>
<polygon fill="midnightblue" stroke="midnightblue" points="308.508,-630.464 304.488,-620.662 301.518,-630.831 308.508,-630.464"/>
</g>
<!-- Node6 -->
<g id="node6" class="node"><title>Node6</title>
<g id="a_node6"><a xlink:href="classautoreg_1_1Autoreg__model.html" target="_top" xlink:title="autoreg::Autoreg_model\&lt; T \&gt;">
<polygon fill="white" stroke="black" points="373,-1160.5 373,-1179.5 517,-1179.5 517,-1160.5 373,-1160.5"/>
<text text-anchor="middle" x="445" y="-1167.5" font-family="Helvetica,sans-Serif" font-size="10.00">autoreg::Autoreg_model&lt; T &gt;</text>
</a>
</g>
</g>
<!-- Node3&#45;&gt;Node6 -->
<g id="edge5" class="edge"><title>Node3&#45;&gt;Node6</title>
<path fill="none" stroke="midnightblue" d="M303.677,-631.039C302.671,-719.024 303.093,-1070.26 372,-1150 375.732,-1154.32 380.309,-1157.74 385.329,-1160.46"/>
<polygon fill="midnightblue" stroke="midnightblue" points="307.179,-630.875 303.815,-620.828 300.18,-630.78 307.179,-630.875"/>
</g>
<!-- Node7 -->
<g id="node7" class="node"><title>Node7</title>
<g id="a_node7"><a xlink:href="structautoreg_1_1Generator1.html" target="_top" xlink:title="autoreg::Generator1\l\&lt; T, Grid \&gt;">
<polygon fill="white" stroke="black" points="393.5,-1111 393.5,-1141 496.5,-1141 496.5,-1111 393.5,-1111"/>
<text text-anchor="start" x="401.5" y="-1129" font-family="Helvetica,sans-Serif" font-size="10.00">autoreg::Generator1</text>
<text text-anchor="middle" x="445" y="-1118" font-family="Helvetica,sans-Serif" font-size="10.00">&lt; T, Grid &gt;</text>
</a>
</g>
</g>
<!-- Node3&#45;&gt;Node7 -->
<g id="edge6" class="edge"><title>Node3&#45;&gt;Node7</title>
<path fill="none" stroke="midnightblue" d="M304.081,-630.925C304.809,-713.424 311.567,-1027.37 372,-1101 377.624,-1107.85 385.236,-1112.83 393.411,-1116.45"/>
<polygon fill="midnightblue" stroke="midnightblue" points="307.579,-630.654 304.013,-620.678 300.58,-630.701 307.579,-630.654"/>
</g>
<!-- Node8 -->
<g id="node8" class="node"><title>Node8</title>
<g id="a_node8"><a xlink:href="structautoreg_1_1Solve__Yule__Walker.html" target="_top" xlink:title="autoreg::Solve_Yule\l_Walker\&lt; T \&gt;">
<polygon fill="white" stroke="black" points="393,-1062 393,-1092 497,-1092 497,-1062 393,-1062"/>
<text text-anchor="start" x="401" y="-1080" font-family="Helvetica,sans-Serif" font-size="10.00">autoreg::Solve_Yule</text>
<text text-anchor="middle" x="445" y="-1069" font-family="Helvetica,sans-Serif" font-size="10.00">_Walker&lt; T &gt;</text>
</a>
</g>
</g>
<!-- Node3&#45;&gt;Node8 -->
<g id="edge7" class="edge"><title>Node3&#45;&gt;Node8</title>
<path fill="none" stroke="midnightblue" d="M304.427,-631.121C306.464,-708.607 317.513,-986.623 372,-1052 377.507,-1058.61 384.858,-1063.47 392.764,-1067.05"/>
<polygon fill="midnightblue" stroke="midnightblue" points="307.919,-630.742 304.18,-620.829 300.921,-630.91 307.919,-630.742"/>
</g>
<!-- Node9 -->
<g id="node9" class="node"><title>Node9</title>
<g id="a_node9"><a xlink:href="structautoreg_1_1Wave__surface__generator.html" target="_top" xlink:title="autoreg::Wave_surface\l_generator\&lt; T, Grid \&gt;">
<polygon fill="white" stroke="black" points="386,-1013 386,-1043 504,-1043 504,-1013 386,-1013"/>
<text text-anchor="start" x="394" y="-1031" font-family="Helvetica,sans-Serif" font-size="10.00">autoreg::Wave_surface</text>
<text text-anchor="middle" x="445" y="-1020" font-family="Helvetica,sans-Serif" font-size="10.00">_generator&lt; T, Grid &gt;</text>
</a>
</g>
</g>
<!-- Node3&#45;&gt;Node9 -->
<g id="edge8" class="edge"><title>Node3&#45;&gt;Node9</title>
<path fill="none" stroke="midnightblue" d="M304.857,-631.148C308.302,-703.05 323.392,-945.778 372,-1003 375.855,-1007.54 380.579,-1011.25 385.748,-1014.29"/>
<polygon fill="midnightblue" stroke="midnightblue" points="308.336,-630.621 304.386,-620.79 301.343,-630.939 308.336,-630.621"/>
</g>
<!-- Node10 -->
<g id="node10" class="node"><title>Node10</title>
<g id="a_node10"><a xlink:href="structAutoreg__app.html" target="_top" xlink:title="Autoreg_app">
<polygon fill="white" stroke="black" points="409.5,-974.5 409.5,-993.5 480.5,-993.5 480.5,-974.5 409.5,-974.5"/>
<text text-anchor="middle" x="445" y="-981.5" font-family="Helvetica,sans-Serif" font-size="10.00">Autoreg_app</text>
</a>
</g>
</g>
<!-- Node3&#45;&gt;Node10 -->
<g id="edge9" class="edge"><title>Node3&#45;&gt;Node10</title>
<path fill="none" stroke="midnightblue" d="M305.082,-630.606C309.172,-697.539 325.865,-915.605 372,-965 381.53,-975.204 395.834,-980.18 409.187,-982.523"/>
<polygon fill="midnightblue" stroke="midnightblue" points="308.573,-630.347 304.496,-620.568 301.585,-630.756 308.573,-630.347"/>
</g>
<!-- Node11 -->
<g id="node11" class="node"><title>Node11</title>
<g id="a_node11"><a xlink:href="structBig__kernel.html" target="_top" xlink:title="Big_kernel\&lt; Size \&gt;">
<polygon fill="white" stroke="black" points="395,-936.5 395,-955.5 495,-955.5 495,-936.5 395,-936.5"/>
<text text-anchor="middle" x="445" y="-943.5" font-family="Helvetica,sans-Serif" font-size="10.00">Big_kernel&lt; Size &gt;</text>
</a>
</g>
</g>
<!-- Node3&#45;&gt;Node11 -->
<g id="edge10" class="edge"><title>Node3&#45;&gt;Node11</title>
<path fill="none" stroke="midnightblue" d="M305.6,-630.892C311.017,-693.313 330.68,-883.732 372,-927 378.161,-933.451 386.231,-937.805 394.734,-940.723"/>
<polygon fill="midnightblue" stroke="midnightblue" points="309.076,-630.463 304.752,-620.79 302.101,-631.048 309.076,-630.463"/>
</g>
<!-- Node12 -->
<g id="node12" class="node"><title>Node12</title>
<g id="a_node12"><a xlink:href="classbsc_1_1discovery__timer.html" target="_top" xlink:title="bsc::discovery_timer">
<polygon fill="white" stroke="black" points="391.5,-898.5 391.5,-917.5 498.5,-917.5 498.5,-898.5 391.5,-898.5"/>
<text text-anchor="middle" x="445" y="-905.5" font-family="Helvetica,sans-Serif" font-size="10.00">bsc::discovery_timer</text>
</a>
</g>
</g>
<!-- Node3&#45;&gt;Node12 -->
<g id="edge11" class="edge"><title>Node3&#45;&gt;Node12</title>
<path fill="none" stroke="midnightblue" d="M306.254,-631.072C313.099,-688.506 335.44,-851.772 372,-889 377.344,-894.442 384.05,-898.385 391.205,-901.23"/>
<polygon fill="midnightblue" stroke="midnightblue" points="309.69,-630.314 305.06,-620.784 302.736,-631.121 309.69,-630.314"/>
</g>
<!-- Node13 -->
<g id="node13" class="node"><title>Node13</title>
<g id="a_node13"><a xlink:href="classbsc_1_1hierarchy__kernel.html" target="_top" xlink:title="bsc::hierarchy_kernel">
<polygon fill="white" stroke="black" points="390,-860.5 390,-879.5 500,-879.5 500,-860.5 390,-860.5"/>
<text text-anchor="middle" x="445" y="-867.5" font-family="Helvetica,sans-Serif" font-size="10.00">bsc::hierarchy_kernel</text>
</a>
</g>
</g>
<!-- Node3&#45;&gt;Node13 -->
<g id="edge12" class="edge"><title>Node3&#45;&gt;Node13</title>
<path fill="none" stroke="midnightblue" d="M303.468,-631.049C303.396,-676.875 309.904,-790.017 372,-851 377.073,-855.982 383.29,-859.7 389.924,-862.468"/>
<polygon fill="midnightblue" stroke="midnightblue" points="306.969,-630.966 303.598,-620.922 299.969,-630.876 306.969,-630.966"/>
</g>
<!-- Node14 -->
<g id="node14" class="node"><title>Node14</title>
<g id="a_node14"><a xlink:href="structbsc_1_1Map.html" target="_top" xlink:title="bsc::Map\&lt; F, G, I \&gt;">
<polygon fill="white" stroke="black" points="393,-822.5 393,-841.5 497,-841.5 497,-822.5 393,-822.5"/>
<text text-anchor="middle" x="445" y="-829.5" font-family="Helvetica,sans-Serif" font-size="10.00">bsc::Map&lt; F, G, I &gt;</text>
</a>
</g>
</g>
<!-- Node3&#45;&gt;Node14 -->
<g id="edge13" class="edge"><title>Node3&#45;&gt;Node14</title>
<path fill="none" stroke="midnightblue" d="M304.808,-630.707C307.542,-670.819 319.525,-762.348 372,-812 377.843,-817.528 385.078,-821.552 392.69,-824.475"/>
<polygon fill="midnightblue" stroke="midnightblue" points="308.297,-630.417 304.247,-620.627 301.308,-630.806 308.297,-630.417"/>
</g>
<!-- Node15 -->
<g id="node15" class="node"><title>Node15</title>
<g id="a_node15"><a xlink:href="structbsc_1_1Map_1_1Worker.html" target="_top" xlink:title="bsc::Map\&lt; F, G, I \&gt;\l::Worker">
<polygon fill="white" stroke="black" points="393,-773 393,-803 497,-803 497,-773 393,-773"/>
<text text-anchor="start" x="401" y="-791" font-family="Helvetica,sans-Serif" font-size="10.00">bsc::Map&lt; F, G, I &gt;</text>
<text text-anchor="middle" x="445" y="-780" font-family="Helvetica,sans-Serif" font-size="10.00">::Worker</text>
</a>
</g>
</g>
<!-- Node3&#45;&gt;Node15 -->
<g id="edge14" class="edge"><title>Node3&#45;&gt;Node15</title>
<path fill="none" stroke="midnightblue" d="M307.576,-630.695C314.419,-662.842 332.357,-726.645 372,-763 377.949,-768.455 385.151,-772.73 392.671,-776.078"/>
<polygon fill="midnightblue" stroke="midnightblue" points="310.981,-629.869 305.601,-620.741 304.114,-631.231 310.981,-629.869"/>
</g>
<!-- Node16 -->
<g id="node16" class="node"><title>Node16</title>
<g id="a_node16"><a xlink:href="classbsc_1_1network__master.html" target="_top" xlink:title="bsc::network_master">
<polygon fill="white" stroke="black" points="391,-734.5 391,-753.5 499,-753.5 499,-734.5 391,-734.5"/>
<text text-anchor="middle" x="445" y="-741.5" font-family="Helvetica,sans-Serif" font-size="10.00">bsc::network_master</text>
</a>
</g>
</g>
<!-- Node3&#45;&gt;Node16 -->
<g id="edge15" class="edge"><title>Node3&#45;&gt;Node16</title>
<path fill="none" stroke="midnightblue" d="M310.299,-630.347C319.638,-655.931 339.624,-700.617 372,-725 377.577,-729.2 384.004,-732.473 390.676,-735.024"/>
<polygon fill="midnightblue" stroke="midnightblue" points="313.526,-628.968 306.944,-620.666 306.912,-631.261 313.526,-628.968"/>
</g>
<!-- Node17 -->
<g id="node17" class="node"><title>Node17</title>
<g id="a_node17"><a xlink:href="classbsc_1_1network__timer.html" target="_top" xlink:title="bsc::network_timer">
<polygon fill="white" stroke="black" points="395,-696.5 395,-715.5 495,-715.5 495,-696.5 395,-696.5"/>
<text text-anchor="middle" x="445" y="-703.5" font-family="Helvetica,sans-Serif" font-size="10.00">bsc::network_timer</text>
</a>
</g>
</g>
<!-- Node3&#45;&gt;Node17 -->
<g id="edge16" class="edge"><title>Node3&#45;&gt;Node17</title>
<path fill="none" stroke="midnightblue" d="M315.635,-629.257C327.672,-646.663 348.049,-672.334 372,-687 378.946,-691.253 386.833,-694.564 394.779,-697.138"/>
<polygon fill="midnightblue" stroke="midnightblue" points="318.296,-626.938 309.836,-620.559 312.471,-630.821 318.296,-626.938"/>
</g>
<!-- Node18 -->
<g id="node18" class="node"><title>Node18</title>
<g id="a_node18"><a xlink:href="classbsc_1_1Notification.html" target="_top" xlink:title="bsc::Notification">
<polygon fill="white" stroke="black" points="401,-658.5 401,-677.5 489,-677.5 489,-658.5 401,-658.5"/>
<text text-anchor="middle" x="445" y="-665.5" font-family="Helvetica,sans-Serif" font-size="10.00">bsc::Notification</text>
</a>
</g>
</g>
<!-- Node3&#45;&gt;Node18 -->
<g id="edge17" class="edge"><title>Node3&#45;&gt;Node18</title>
<path fill="none" stroke="midnightblue" d="M327.215,-625.897C340.031,-633.62 356.46,-642.725 372,-649 381.11,-652.679 391.157,-655.848 400.781,-658.486"/>
<polygon fill="midnightblue" stroke="midnightblue" points="328.935,-622.845 318.586,-620.576 325.261,-628.804 328.935,-622.845"/>
</g>
<!-- Node19 -->
<g id="node19" class="node"><title>Node19</title>
<g id="a_node19"><a xlink:href="classbsc_1_1probe.html" target="_top" xlink:title="bsc::probe">
<polygon fill="white" stroke="black" points="414,-620.5 414,-639.5 476,-639.5 476,-620.5 414,-620.5"/>
<text text-anchor="middle" x="445" y="-627.5" font-family="Helvetica,sans-Serif" font-size="10.00">bsc::probe</text>
</a>
</g>
</g>
<!-- Node3&#45;&gt;Node19 -->
<g id="edge18" class="edge"><title>Node3&#45;&gt;Node19</title>
<path fill="none" stroke="midnightblue" d="M345.782,-616.67C367.648,-619.638 393.926,-623.204 413.797,-625.901"/>
<polygon fill="midnightblue" stroke="midnightblue" points="346.148,-613.188 335.768,-615.311 345.207,-620.125 346.148,-613.188"/>
</g>
<!-- Node20 -->
<g id="node20" class="node"><title>Node20</title>
<g id="a_node20"><a xlink:href="classbsc_1_1prober.html" target="_top" xlink:title="bsc::prober">
<polygon fill="white" stroke="black" points="412.5,-582.5 412.5,-601.5 477.5,-601.5 477.5,-582.5 412.5,-582.5"/>
<text text-anchor="middle" x="445" y="-589.5" font-family="Helvetica,sans-Serif" font-size="10.00">bsc::prober</text>
</a>
</g>
</g>
<!-- Node3&#45;&gt;Node20 -->
<g id="edge19" class="edge"><title>Node3&#45;&gt;Node20</title>
<path fill="none" stroke="midnightblue" d="M345.858,-605.319C367.185,-602.425 392.693,-598.963 412.358,-596.294"/>
<polygon fill="midnightblue" stroke="midnightblue" points="345.207,-601.875 335.768,-606.689 346.148,-608.812 345.207,-601.875"/>
</g>
<!-- Node21 -->
<g id="node21" class="node"><title>Node21</title>
<g id="a_node21"><a xlink:href="classbsc_1_1resident__kernel.html" target="_top" xlink:title="bsc::resident_kernel">
<polygon fill="white" stroke="black" points="393,-544.5 393,-563.5 497,-563.5 497,-544.5 393,-544.5"/>
<text text-anchor="middle" x="445" y="-551.5" font-family="Helvetica,sans-Serif" font-size="10.00">bsc::resident_kernel</text>
</a>
</g>
</g>
<!-- Node3&#45;&gt;Node21 -->
<g id="edge20" class="edge"><title>Node3&#45;&gt;Node21</title>
<path fill="none" stroke="midnightblue" d="M327.215,-596.103C340.031,-588.38 356.46,-579.275 372,-573 381.11,-569.321 391.157,-566.152 400.781,-563.514"/>
<polygon fill="midnightblue" stroke="midnightblue" points="325.261,-593.196 318.586,-601.424 328.935,-599.155 325.261,-593.196"/>
</g>
<!-- Node23 -->
<g id="node23" class="node"><title>Node23</title>
<g id="a_node23"><a xlink:href="structDummy__kernel.html" target="_top" xlink:title="Dummy_kernel">
<polygon fill="white" stroke="black" points="403.5,-506.5 403.5,-525.5 486.5,-525.5 486.5,-506.5 403.5,-506.5"/>
<text text-anchor="middle" x="445" y="-513.5" font-family="Helvetica,sans-Serif" font-size="10.00">Dummy_kernel</text>
</a>
</g>
</g>
<!-- Node3&#45;&gt;Node23 -->
<g id="edge22" class="edge"><title>Node3&#45;&gt;Node23</title>
<path fill="none" stroke="midnightblue" d="M315.635,-592.743C327.672,-575.337 348.049,-549.666 372,-535 381.482,-529.194 392.718,-525.145 403.461,-522.327"/>
<polygon fill="midnightblue" stroke="midnightblue" points="312.471,-591.179 309.836,-601.441 318.296,-595.062 312.471,-591.179"/>
</g>
<!-- Node24 -->
<g id="node24" class="node"><title>Node24</title>
<g id="a_node24"><a xlink:href="structGood__kernel.html" target="_top" xlink:title="Good_kernel">
<polygon fill="white" stroke="black" points="409.5,-468.5 409.5,-487.5 480.5,-487.5 480.5,-468.5 409.5,-468.5"/>
<text text-anchor="middle" x="445" y="-475.5" font-family="Helvetica,sans-Serif" font-size="10.00">Good_kernel</text>
</a>
</g>
</g>
<!-- Node3&#45;&gt;Node24 -->
<g id="edge23" class="edge"><title>Node3&#45;&gt;Node24</title>
<path fill="none" stroke="midnightblue" d="M310.299,-591.653C319.638,-566.069 339.624,-521.383 372,-497 382.74,-488.912 396.637,-484.259 409.352,-481.586"/>
<polygon fill="midnightblue" stroke="midnightblue" points="306.912,-590.739 306.944,-601.334 313.526,-593.032 306.912,-590.739"/>
</g>
<!-- Node27 -->
<g id="node27" class="node"><title>Node27</title>
<g id="a_node27"><a xlink:href="structKernel__that__carries__its__parent.html" target="_top" xlink:title="Kernel_that_carries\l_its_parent">
<polygon fill="white" stroke="black" points="394.5,-419 394.5,-449 495.5,-449 495.5,-419 394.5,-419"/>
<text text-anchor="start" x="402.5" y="-437" font-family="Helvetica,sans-Serif" font-size="10.00">Kernel_that_carries</text>
<text text-anchor="middle" x="445" y="-426" font-family="Helvetica,sans-Serif" font-size="10.00">_its_parent</text>
</a>
</g>
</g>
<!-- Node3&#45;&gt;Node27 -->
<g id="edge26" class="edge"><title>Node3&#45;&gt;Node27</title>
<path fill="none" stroke="midnightblue" d="M307.576,-591.305C314.419,-559.158 332.357,-495.355 372,-459 378.339,-453.187 386.101,-448.714 394.154,-445.275"/>
<polygon fill="midnightblue" stroke="midnightblue" points="304.114,-590.769 305.601,-601.259 310.981,-592.131 304.114,-590.769"/>
</g>
<!-- Node28 -->
<g id="node28" class="node"><title>Node28</title>
<g id="a_node28"><a xlink:href="structLauncher.html" target="_top" xlink:title="Launcher">
<polygon fill="white" stroke="black" points="417,-380.5 417,-399.5 473,-399.5 473,-380.5 417,-380.5"/>
<text text-anchor="middle" x="445" y="-387.5" font-family="Helvetica,sans-Serif" font-size="10.00">Launcher</text>
</a>
</g>
</g>
<!-- Node3&#45;&gt;Node28 -->
<g id="edge27" class="edge"><title>Node3&#45;&gt;Node28</title>
<path fill="none" stroke="midnightblue" d="M304.723,-591.142C307.3,-550.73 319.006,-458.571 372,-409 383.99,-397.784 401.804,-393.02 416.712,-391.067"/>
<polygon fill="midnightblue" stroke="midnightblue" points="301.219,-591.132 304.203,-601.298 308.209,-591.49 301.219,-591.132"/>
</g>
<!-- Node29 -->
<g id="node29" class="node"><title>Node29</title>
<g id="a_node29"><a xlink:href="classMain.html" target="_top" xlink:title="Main">
<polygon fill="white" stroke="black" points="426,-342.5 426,-361.5 464,-361.5 464,-342.5 426,-342.5"/>
<text text-anchor="middle" x="445" y="-349.5" font-family="Helvetica,sans-Serif" font-size="10.00">Main</text>
</a>
</g>
</g>
<!-- Node3&#45;&gt;Node29 -->
<g id="edge28" class="edge"><title>Node3&#45;&gt;Node29</title>
<path fill="none" stroke="midnightblue" d="M303.468,-590.951C303.396,-545.125 309.904,-431.983 372,-371 386.297,-356.96 409.676,-352.956 425.898,-351.982"/>
<polygon fill="midnightblue" stroke="midnightblue" points="299.969,-591.124 303.598,-601.078 306.969,-591.034 299.969,-591.124"/>
</g>
<!-- Node30 -->
<g id="node30" class="node"><title>Node30</title>
<g id="a_node30"><a xlink:href="classmaster__kernel.html" target="_top" xlink:title="master_kernel">
<polygon fill="white" stroke="black" points="406,-304.5 406,-323.5 484,-323.5 484,-304.5 406,-304.5"/>
<text text-anchor="middle" x="445" y="-311.5" font-family="Helvetica,sans-Serif" font-size="10.00">master_kernel</text>
</a>
</g>
</g>
<!-- Node3&#45;&gt;Node30 -->
<g id="edge29" class="edge"><title>Node3&#45;&gt;Node30</title>
<path fill="none" stroke="midnightblue" d="M306.254,-590.928C313.099,-533.494 335.44,-370.228 372,-333 380.877,-323.961 393.509,-319.058 405.72,-316.449"/>
<polygon fill="midnightblue" stroke="midnightblue" points="302.736,-590.879 305.06,-601.216 309.69,-591.686 302.736,-590.879"/>
</g>
<!-- Node31 -->
<g id="node31" class="node"><title>Node31</title>
<g id="a_node31"><a xlink:href="structSender.html" target="_top" xlink:title="Sender">
<polygon fill="white" stroke="black" points="421.5,-266.5 421.5,-285.5 468.5,-285.5 468.5,-266.5 421.5,-266.5"/>
<text text-anchor="middle" x="445" y="-273.5" font-family="Helvetica,sans-Serif" font-size="10.00">Sender</text>
</a>
</g>
</g>
<!-- Node3&#45;&gt;Node31 -->
<g id="edge30" class="edge"><title>Node3&#45;&gt;Node31</title>
<path fill="none" stroke="midnightblue" d="M305.6,-591.108C311.017,-528.687 330.68,-338.268 372,-295 384.679,-281.724 405.445,-277.33 421.425,-276.049"/>
<polygon fill="midnightblue" stroke="midnightblue" points="302.101,-590.952 304.752,-601.21 309.076,-591.537 302.101,-590.952"/>
</g>
<!-- Node32 -->
<g id="node32" class="node"><title>Node32</title>
<g id="a_node32"><a xlink:href="classslave__kernel.html" target="_top" xlink:title="slave_kernel">
<polygon fill="white" stroke="black" points="409.5,-228.5 409.5,-247.5 480.5,-247.5 480.5,-228.5 409.5,-228.5"/>
<text text-anchor="middle" x="445" y="-235.5" font-family="Helvetica,sans-Serif" font-size="10.00">slave_kernel</text>
</a>
</g>
</g>
<!-- Node3&#45;&gt;Node32 -->
<g id="edge31" class="edge"><title>Node3&#45;&gt;Node32</title>
<path fill="none" stroke="midnightblue" d="M305.082,-591.394C309.172,-524.461 325.865,-306.395 372,-257 381.53,-246.796 395.834,-241.82 409.187,-239.477"/>
<polygon fill="midnightblue" stroke="midnightblue" points="301.585,-591.244 304.496,-601.432 308.573,-591.653 301.585,-591.244"/>
</g>
<!-- Node33 -->
<g id="node33" class="node"><title>Node33</title>
<g id="a_node33"><a xlink:href="structSleepy__kernel.html" target="_top" xlink:title="Sleepy_kernel">
<polygon fill="white" stroke="black" points="406,-190.5 406,-209.5 484,-209.5 484,-190.5 406,-190.5"/>
<text text-anchor="middle" x="445" y="-197.5" font-family="Helvetica,sans-Serif" font-size="10.00">Sleepy_kernel</text>
</a>
</g>
</g>
<!-- Node3&#45;&gt;Node33 -->
<g id="edge32" class="edge"><title>Node3&#45;&gt;Node33</title>
<path fill="none" stroke="midnightblue" d="M304.71,-590.722C307.656,-518.379 321.248,-274.329 372,-219 380.651,-209.568 393.379,-204.59 405.737,-202.031"/>
<polygon fill="midnightblue" stroke="midnightblue" points="301.196,-591.02 304.313,-601.146 308.191,-591.287 301.196,-591.02"/>
</g>
<!-- Node34 -->
<g id="node34" class="node"><title>Node34</title>
<g id="a_node34"><a xlink:href="structSpec__app.html" target="_top" xlink:title="Spec_app">
<polygon fill="white" stroke="black" points="415,-152.5 415,-171.5 475,-171.5 475,-152.5 415,-152.5"/>
<text text-anchor="middle" x="445" y="-159.5" font-family="Helvetica,sans-Serif" font-size="10.00">Spec_app</text>
</a>
</g>
</g>
<!-- Node3&#45;&gt;Node34 -->
<g id="edge33" class="edge"><title>Node3&#45;&gt;Node34</title>
<path fill="none" stroke="midnightblue" d="M304.356,-591.252C306.129,-515.221 316.331,-242.607 372,-181 382.748,-169.106 399.976,-164.277 414.886,-162.458"/>
<polygon fill="midnightblue" stroke="midnightblue" points="300.855,-591.28 304.144,-601.352 307.853,-591.427 300.855,-591.28"/>
</g>
<!-- Node35 -->
<g id="node35" class="node"><title>Node35</title>
<g id="a_node35"><a xlink:href="structSpectrum__kernel.html" target="_top" xlink:title="Spectrum_kernel">
<polygon fill="white" stroke="black" points="400,-114.5 400,-133.5 490,-133.5 490,-114.5 400,-114.5"/>
<text text-anchor="middle" x="445" y="-121.5" font-family="Helvetica,sans-Serif" font-size="10.00">Spectrum_kernel</text>
</a>
</g>
</g>
<!-- Node3&#45;&gt;Node35 -->
<g id="edge34" class="edge"><title>Node3&#45;&gt;Node35</title>
<path fill="none" stroke="midnightblue" d="M304.077,-591.081C304.799,-510.628 311.564,-210.732 372,-143 379.23,-134.897 389.467,-130.066 399.96,-127.232"/>
<polygon fill="midnightblue" stroke="midnightblue" points="300.576,-591.282 304.009,-601.305 307.576,-591.329 300.576,-591.282"/>
</g>
<!-- Node36 -->
<g id="node36" class="node"><title>Node36</title>
<g id="a_node36"><a xlink:href="structStation__kernel.html" target="_top" xlink:title="Station_kernel">
<polygon fill="white" stroke="black" points="405.5,-76.5 405.5,-95.5 484.5,-95.5 484.5,-76.5 405.5,-76.5"/>
<text text-anchor="middle" x="445" y="-83.5" font-family="Helvetica,sans-Serif" font-size="10.00">Station_kernel</text>
</a>
</g>
</g>
<!-- Node3&#45;&gt;Node36 -->
<g id="edge35" class="edge"><title>Node3&#45;&gt;Node36</title>
<path fill="none" stroke="midnightblue" d="M303.836,-591.109C303.552,-506.681 306.733,-178.938 372,-105 380.384,-95.5018 392.901,-90.4913 405.157,-87.9245"/>
<polygon fill="midnightblue" stroke="midnightblue" points="300.338,-591.375 303.893,-601.355 307.338,-591.336 300.338,-591.375"/>
</g>
<!-- Node37 -->
<g id="node37" class="node"><title>Node37</title>
<g id="a_node37"><a xlink:href="structTest__socket.html" target="_top" xlink:title="Test_socket">
<polygon fill="white" stroke="black" points="409.5,-38.5 409.5,-57.5 480.5,-57.5 480.5,-38.5 409.5,-38.5"/>
<text text-anchor="middle" x="445" y="-45.5" font-family="Helvetica,sans-Serif" font-size="10.00">Test_socket</text>
</a>
</g>
</g>
<!-- Node3&#45;&gt;Node37 -->
<g id="edge36" class="edge"><title>Node3&#45;&gt;Node37</title>
<path fill="none" stroke="midnightblue" d="M303.631,-591.322C302.393,-503.387 301.841,-147.224 372,-67 381.277,-56.3927 395.706,-51.3737 409.219,-49.1072"/>
<polygon fill="midnightblue" stroke="midnightblue" points="300.135,-591.553 303.796,-601.495 307.134,-591.44 300.135,-591.553"/>
</g>
<!-- Node38 -->
<g id="node38" class="node"><title>Node38</title>
<g id="a_node38"><a xlink:href="structYear__kernel.html" target="_top" xlink:title="Year_kernel">
<polygon fill="white" stroke="black" points="411,-0.5 411,-19.5 479,-19.5 479,-0.5 411,-0.5"/>
<text text-anchor="middle" x="445" y="-7.5" font-family="Helvetica,sans-Serif" font-size="10.00">Year_kernel</text>
</a>
</g>
</g>
<!-- Node3&#45;&gt;Node38 -->
<g id="edge37" class="edge"><title>Node3&#45;&gt;Node38</title>
<path fill="none" stroke="midnightblue" d="M305.011,-591.074C310.112,-493.882 334.287,-72.4751 372,-29 381.573,-17.9649 396.723,-12.9698 410.662,-10.8325"/>
<polygon fill="midnightblue" stroke="midnightblue" points="301.504,-591.104 304.483,-601.272 308.495,-591.466 301.504,-591.104"/>
</g>
<!-- Node22 -->
<g id="node22" class="node"><title>Node22</title>
<g id="a_node22"><a xlink:href="classbsc_1_1master__discoverer.html" target="_top" xlink:title="bsc::master_discoverer">
<polygon fill="white" stroke="black" points="555.5,-544.5 555.5,-563.5 674.5,-563.5 674.5,-544.5 555.5,-544.5"/>
<text text-anchor="middle" x="615" y="-551.5" font-family="Helvetica,sans-Serif" font-size="10.00">bsc::master_discoverer</text>
</a>
</g>
</g>
<!-- Node21&#45;&gt;Node22 -->
<g id="edge21" class="edge"><title>Node21&#45;&gt;Node22</title>
<path fill="none" stroke="midnightblue" d="M507.415,-554C523.065,-554 539.845,-554 555.352,-554"/>
<polygon fill="midnightblue" stroke="midnightblue" points="507.318,-550.5 497.318,-554 507.318,-557.5 507.318,-550.5"/>
</g>
<!-- Node25 -->
<g id="node25" class="node"><title>Node25</title>
<g id="a_node25"><a xlink:href="structKernel__that__reads__more__than__writes.html" target="_top" xlink:title="Kernel_that_reads_more\l_than_writes">
<polygon fill="white" stroke="black" points="554,-479 554,-509 676,-509 676,-479 554,-479"/>
<text text-anchor="start" x="562" y="-497" font-family="Helvetica,sans-Serif" font-size="10.00">Kernel_that_reads_more</text>
<text text-anchor="middle" x="615" y="-486" font-family="Helvetica,sans-Serif" font-size="10.00">_than_writes</text>
</a>
</g>
</g>
<!-- Node24&#45;&gt;Node25 -->
<g id="edge24" class="edge"><title>Node24&#45;&gt;Node25</title>
<path fill="none" stroke="midnightblue" d="M490.839,-482.27C510.141,-484.109 532.997,-486.285 553.747,-488.262"/>
<polygon fill="midnightblue" stroke="midnightblue" points="491.097,-478.779 480.81,-481.315 490.433,-485.748 491.097,-478.779"/>
</g>
<!-- Node26 -->
<g id="node26" class="node"><title>Node26</title>
<g id="a_node26"><a xlink:href="structKernel__that__writes__more__than__reads.html" target="_top" xlink:title="Kernel_that_writes\l_more_than_reads">
<polygon fill="white" stroke="black" points="566,-430 566,-460 664,-460 664,-430 566,-430"/>
<text text-anchor="start" x="574" y="-448" font-family="Helvetica,sans-Serif" font-size="10.00">Kernel_that_writes</text>
<text text-anchor="middle" x="615" y="-437" font-family="Helvetica,sans-Serif" font-size="10.00">_more_than_reads</text>
</a>
</g>
</g>
<!-- Node24&#45;&gt;Node26 -->
<g id="edge25" class="edge"><title>Node24&#45;&gt;Node26</title>
<path fill="none" stroke="midnightblue" d="M490.726,-469.215C513.896,-464.663 542.211,-459.101 565.858,-454.456"/>
<polygon fill="midnightblue" stroke="midnightblue" points="489.948,-465.8 480.81,-471.162 491.297,-472.669 489.948,-465.8"/>
</g>
<!-- Node39 -->
<g id="node39" class="node"><title>Node39</title>
<g id="a_node39"><a xlink:href="classbsc_1_1kernel__header.html" target="_top" xlink:title="bsc::kernel_header">
<polygon fill="white" stroke="black" points="0.5,-582.5 0.5,-601.5 99.5,-601.5 99.5,-582.5 0.5,-582.5"/>
<text text-anchor="middle" x="50" y="-589.5" font-family="Helvetica,sans-Serif" font-size="10.00">bsc::kernel_header</text>
</a>
</g>
</g>
<!-- Node39&#45;&gt;Node2 -->
<g id="edge38" class="edge"><title>Node39&#45;&gt;Node2</title>
<path fill="none" stroke="midnightblue" d="M109.805,-600.401C118.453,-601.636 127.277,-602.897 135.681,-604.097"/>
<polygon fill="midnightblue" stroke="midnightblue" points="110.164,-596.916 99.7691,-598.967 109.174,-603.846 110.164,-596.916"/>
</g>
</g>
</svg>
