<?xml version="1.0" encoding="UTF-8" standalone="no"?>
<!DOCTYPE svg PUBLIC "-//W3C//DTD SVG 1.1//EN"
 "http://www.w3.org/Graphics/SVG/1.1/DTD/svg11.dtd">
<!-- Generated by graphviz version 2.38.0 (20140413.2041)
 -->
<!-- Title: Graphical Class Hierarchy Pages: 1 -->
<svg width="281pt" height="284pt"
 viewBox="0.00 0.00 281.00 284.00" xmlns="http://www.w3.org/2000/svg" xmlns:xlink="http://www.w3.org/1999/xlink">
<g id="graph0" class="graph" transform="scale(1 1) rotate(0) translate(4 280)">
<title>Graphical Class Hierarchy</title>
<polygon fill="white" stroke="none" points="-4,4 -4,-280 277,-280 277,4 -4,4"/>
<!-- Node1 -->
<g id="node1" class="node"><title>Node1</title>
<g id="a_node1"><a xlink:href="structsys_1_1bits_1_1byte__swap__chooser.html" target="_top" xlink:title="sys::bits::byte_swap\l_chooser\&lt; uint8_t[bytes]\l, false \&gt;">
<polygon fill="white" stroke="black" points="0,-117 0,-158 125,-158 125,-117 0,-117"/>
<text text-anchor="start" x="8" y="-146" font-family="Helvetica,sans-Serif" font-size="10.00">sys::bits::byte_swap</text>
<text text-anchor="start" x="8" y="-135" font-family="Helvetica,sans-Serif" font-size="10.00">_chooser&lt; uint8_t[bytes]</text>
<text text-anchor="middle" x="62.5" y="-124" font-family="Helvetica,sans-Serif" font-size="10.00">, false &gt;</text>
</a>
</g>
</g>
<!-- Node2 -->
<g id="node2" class="node"><title>Node2</title>
<g id="a_node2"><a xlink:href="structsys_1_1bits_1_1Integral.html" target="_top" xlink:title="sys::bits::Integral\l\&lt; sizeof(addr4_type)\&gt;">
<polygon fill="white" stroke="black" points="161,-245.5 161,-275.5 273,-275.5 273,-245.5 161,-245.5"/>
<text text-anchor="start" x="169" y="-263.5" font-family="Helvetica,sans-Serif" font-size="10.00">sys::bits::Integral</text>
<text text-anchor="middle" x="217" y="-252.5" font-family="Helvetica,sans-Serif" font-size="10.00">&lt; sizeof(addr4_type)&gt;</text>
</a>
</g>
</g>
<!-- Node1&#45;&gt;Node2 -->
<g id="edge1" class="edge"><title>Node1&#45;&gt;Node2</title>
<path fill="none" stroke="midnightblue" d="M86.5147,-166.228C104.9,-187.742 132.267,-216.748 161,-236.5 165.808,-239.805 171.144,-242.813 176.547,-245.495"/>
<polygon fill="midnightblue" stroke="midnightblue" points="89.0368,-163.789 79.9242,-158.384 83.6774,-168.292 89.0368,-163.789"/>
</g>
<!-- Node3 -->
<g id="node3" class="node"><title>Node3</title>
<g id="a_node3"><a xlink:href="structsys_1_1bits_1_1Integral.html" target="_top" xlink:title="sys::bits::Integral\l\&lt; sizeof(double)\&gt;">
<polygon fill="white" stroke="black" points="171,-196.5 171,-226.5 263,-226.5 263,-196.5 171,-196.5"/>
<text text-anchor="start" x="179" y="-214.5" font-family="Helvetica,sans-Serif" font-size="10.00">sys::bits::Integral</text>
<text text-anchor="middle" x="217" y="-203.5" font-family="Helvetica,sans-Serif" font-size="10.00">&lt; sizeof(double)&gt;</text>
</a>
</g>
</g>
<!-- Node1&#45;&gt;Node3 -->
<g id="edge2" class="edge"><title>Node1&#45;&gt;Node3</title>
<path fill="none" stroke="midnightblue" d="M111.161,-162.693C126.923,-170.822 144.619,-179.735 161,-187.5 167.307,-190.49 174.081,-193.559 180.644,-196.46"/>
<polygon fill="midnightblue" stroke="midnightblue" points="112.617,-159.505 102.128,-158.011 109.396,-165.72 112.617,-159.505"/>
</g>
<!-- Node4 -->
<g id="node4" class="node"><title>Node4</title>
<g id="a_node4"><a xlink:href="structsys_1_1bits_1_1Integral.html" target="_top" xlink:title="sys::bits::Integral\l\&lt; sizeof(float)\&gt;">
<polygon fill="white" stroke="black" points="171,-147.5 171,-177.5 263,-177.5 263,-147.5 171,-147.5"/>
<text text-anchor="start" x="179" y="-165.5" font-family="Helvetica,sans-Serif" font-size="10.00">sys::bits::Integral</text>
<text text-anchor="middle" x="217" y="-154.5" font-family="Helvetica,sans-Serif" font-size="10.00">&lt; sizeof(float)&gt;</text>
</a>
</g>
</g>
<!-- Node1&#45;&gt;Node4 -->
<g id="edge3" class="edge"><title>Node1&#45;&gt;Node4</title>
<path fill="none" stroke="midnightblue" d="M135.159,-149.247C147.224,-151.225 159.442,-153.228 170.6,-155.057"/>
<polygon fill="midnightblue" stroke="midnightblue" points="135.523,-145.76 125.088,-147.596 134.39,-152.668 135.523,-145.76"/>
</g>
<!-- Node5 -->
<g id="node5" class="node"><title>Node5</title>
<g id="a_node5"><a xlink:href="structsys_1_1bits_1_1Integral.html" target="_top" xlink:title="sys::bits::Integral\l\&lt; sizeof(inet6_type)\&gt;">
<polygon fill="white" stroke="black" points="162.5,-98.5 162.5,-128.5 271.5,-128.5 271.5,-98.5 162.5,-98.5"/>
<text text-anchor="start" x="170.5" y="-116.5" font-family="Helvetica,sans-Serif" font-size="10.00">sys::bits::Integral</text>
<text text-anchor="middle" x="217" y="-105.5" font-family="Helvetica,sans-Serif" font-size="10.00">&lt; sizeof(inet6_type)&gt;</text>
</a>
</g>
</g>
<!-- Node1&#45;&gt;Node5 -->
<g id="edge4" class="edge"><title>Node1&#45;&gt;Node5</title>
<path fill="none" stroke="midnightblue" d="M135.214,-126.214C144.239,-124.793 153.349,-123.36 162.036,-121.993"/>
<polygon fill="midnightblue" stroke="midnightblue" points="134.422,-122.795 125.088,-127.807 135.511,-129.71 134.422,-122.795"/>
</g>
<!-- Node6 -->
<g id="node6" class="node"><title>Node6</title>
<g id="a_node6"><a xlink:href="structsys_1_1bits_1_1Integral.html" target="_top" xlink:title="sys::bits::Integral\l\&lt; sizeof(T)\&gt;">
<polygon fill="white" stroke="black" points="171,-49.5 171,-79.5 263,-79.5 263,-49.5 171,-49.5"/>
<text text-anchor="start" x="179" y="-67.5" font-family="Helvetica,sans-Serif" font-size="10.00">sys::bits::Integral</text>
<text text-anchor="middle" x="217" y="-56.5" font-family="Helvetica,sans-Serif" font-size="10.00">&lt; sizeof(T)&gt;</text>
</a>
</g>
</g>
<!-- Node1&#45;&gt;Node6 -->
<g id="edge5" class="edge"><title>Node1&#45;&gt;Node6</title>
<path fill="none" stroke="midnightblue" d="M113.827,-112.355C128.947,-104.901 145.606,-96.7856 161,-89.5 167.921,-86.2245 175.367,-82.7842 182.476,-79.5394"/>
<polygon fill="midnightblue" stroke="midnightblue" points="112.051,-109.329 104.637,-116.898 115.153,-115.604 112.051,-109.329"/>
</g>
<!-- Node7 -->
<g id="node7" class="node"><title>Node7</title>
<g id="a_node7"><a xlink:href="structsys_1_1bits_1_1Integral.html" target="_top" xlink:title="sys::bits::Integral\l\&lt; bytes \&gt;">
<polygon fill="white" stroke="black" points="171,-0.5 171,-30.5 263,-30.5 263,-0.5 171,-0.5"/>
<text text-anchor="start" x="179" y="-18.5" font-family="Helvetica,sans-Serif" font-size="10.00">sys::bits::Integral</text>
<text text-anchor="middle" x="217" y="-7.5" font-family="Helvetica,sans-Serif" font-size="10.00">&lt; bytes &gt;</text>
</a>
</g>
</g>
<!-- Node1&#45;&gt;Node7 -->
<g id="edge6" class="edge"><title>Node1&#45;&gt;Node7</title>
<path fill="none" stroke="midnightblue" d="M87.0504,-109.118C105.534,-88.1582 132.783,-60.0004 161,-40.5 166.263,-36.8624 172.141,-33.5389 178.042,-30.5864"/>
<polygon fill="midnightblue" stroke="midnightblue" points="84.3243,-106.919 80.4119,-116.765 89.6104,-111.508 84.3243,-106.919"/>
</g>
</g>
</svg>
