<?xml version="1.0" encoding="UTF-8" standalone="no"?>
<!DOCTYPE svg PUBLIC "-//W3C//DTD SVG 1.1//EN"
 "http://www.w3.org/Graphics/SVG/1.1/DTD/svg11.dtd">
<!-- Generated by graphviz version 2.36.0 (20140111.2315)
 -->
<!-- Title: Graphical Class Hierarchy Pages: 1 -->
<svg width="304pt" height="77pt"
 viewBox="0.00 0.00 304.00 77.00" xmlns="http://www.w3.org/2000/svg" xmlns:xlink="http://www.w3.org/1999/xlink">
<g id="graph0" class="graph" transform="scale(1 1) rotate(0) translate(4 73)">
<title>Graphical Class Hierarchy</title>
<polygon fill="white" stroke="none" points="-4,4 -4,-73 300,-73 300,4 -4,4"/>
<!-- Node1 -->
<g id="node1" class="node"><title>Node1</title>
<polygon fill="white" stroke="#bfbfbf" points="0,-27.5 0,-46.5 142,-46.5 142,-27.5 0,-27.5"/>
<text text-anchor="middle" x="71" y="-34.5" font-family="Helvetica,sans-Serif" font-size="10.00">FACTORY_KERNEL_TYPE</text>
</g>
<!-- Node2 -->
<g id="node2" class="node"><title>Node2</title>
<g id="a_node2"><a xlink:href="classasc_1_1Application__kernel.html" target="_top" xlink:title="asc::Application_kernel">
<polygon fill="white" stroke="black" points="178,-49.5 178,-68.5 296,-68.5 296,-49.5 178,-49.5"/>
<text text-anchor="middle" x="237" y="-56.5" font-family="Helvetica,sans-Serif" font-size="10.00">asc::Application_kernel</text>
</a>
</g>
</g>
<!-- Node1&#45;&gt;Node2 -->
<g id="edge1" class="edge"><title>Node1&#45;&gt;Node2</title>
<path fill="none" stroke="midnightblue" d="M152.149,-47.7517C160.802,-48.9125 169.483,-50.077 177.806,-51.1934"/>
<polygon fill="midnightblue" stroke="midnightblue" points="152.403,-44.2545 142.026,-46.3938 151.472,-51.1924 152.403,-44.2545"/>
</g>
<!-- Node3 -->
<g id="node3" class="node"><title>Node3</title>
<g id="a_node3"><a xlink:href="classasc_1_1socket__pipeline__kernel.html" target="_top" xlink:title="asc::socket_pipeline\l_kernel">
<polygon fill="white" stroke="black" points="184,-0 184,-30 290,-30 290,-0 184,-0"/>
<text text-anchor="start" x="192" y="-18" font-family="Helvetica,sans-Serif" font-size="10.00">asc::socket_pipeline</text>
<text text-anchor="middle" x="237" y="-7" font-family="Helvetica,sans-Serif" font-size="10.00">_kernel</text>
</a>
</g>
</g>
<!-- Node1&#45;&gt;Node3 -->
<g id="edge2" class="edge"><title>Node1&#45;&gt;Node3</title>
<path fill="none" stroke="midnightblue" d="M152.207,-26.2406C162.862,-24.8112 173.558,-23.3764 183.574,-22.0328"/>
<polygon fill="midnightblue" stroke="midnightblue" points="151.472,-22.8076 142.026,-27.6062 152.403,-29.7455 151.472,-22.8076"/>
</g>
</g>
</svg>
