<?xml version="1.0" encoding="UTF-8" standalone="no"?>
<!DOCTYPE svg PUBLIC "-//W3C//DTD SVG 1.1//EN"
 "http://www.w3.org/Graphics/SVG/1.1/DTD/svg11.dtd">
<!-- Generated by graphviz version 2.36.0 (20140111.2315)
 -->
<!-- Title: Graphical Class Hierarchy Pages: 1 -->
<svg width="326pt" height="77pt"
 viewBox="0.00 0.00 326.00 77.00" xmlns="http://www.w3.org/2000/svg" xmlns:xlink="http://www.w3.org/1999/xlink">
<g id="graph0" class="graph" transform="scale(1 1) rotate(0) translate(4 73)">
<title>Graphical Class Hierarchy</title>
<polygon fill="white" stroke="none" points="-4,4 -4,-73 322,-73 322,4 -4,4"/>
<!-- Node1 -->
<g id="node1" class="node"><title>Node1</title>
<polygon fill="white" stroke="#bfbfbf" points="0,-27.5 0,-46.5 164,-46.5 164,-27.5 0,-27.5"/>
<text text-anchor="middle" x="82" y="-34.5" font-family="Helvetica,sans-Serif" font-size="10.00">BSCHEDULER_KERNEL_TYPE</text>
</g>
<!-- Node2 -->
<g id="node2" class="node"><title>Node2</title>
<g id="a_node2"><a xlink:href="classbsc_1_1Application__kernel.html" target="_top" xlink:title="bsc::Application_kernel">
<polygon fill="white" stroke="black" points="200,-49.5 200,-68.5 318,-68.5 318,-49.5 200,-49.5"/>
<text text-anchor="middle" x="259" y="-56.5" font-family="Helvetica,sans-Serif" font-size="10.00">bsc::Application_kernel</text>
</a>
</g>
</g>
<!-- Node1&#45;&gt;Node2 -->
<g id="edge1" class="edge"><title>Node1&#45;&gt;Node2</title>
<path fill="none" stroke="midnightblue" d="M168.79,-47.785C179.303,-49.1067 189.85,-50.4325 199.822,-51.6861"/>
<polygon fill="midnightblue" stroke="midnightblue" points="169.098,-44.2963 158.74,-46.5216 168.225,-51.2416 169.098,-44.2963"/>
</g>
<!-- Node3 -->
<g id="node3" class="node"><title>Node3</title>
<g id="a_node3"><a xlink:href="classbsc_1_1socket__pipeline__kernel.html" target="_top" xlink:title="bsc::socket_pipeline\l_kernel">
<polygon fill="white" stroke="black" points="206,-0 206,-30 312,-30 312,-0 206,-0"/>
<text text-anchor="start" x="214" y="-18" font-family="Helvetica,sans-Serif" font-size="10.00">bsc::socket_pipeline</text>
<text text-anchor="middle" x="259" y="-7" font-family="Helvetica,sans-Serif" font-size="10.00">_kernel</text>
</a>
</g>
</g>
<!-- Node1&#45;&gt;Node3 -->
<g id="edge2" class="edge"><title>Node1&#45;&gt;Node3</title>
<path fill="none" stroke="midnightblue" d="M168.844,-26.2081C181.481,-24.6195 194.164,-23.0251 205.839,-21.5574"/>
<polygon fill="midnightblue" stroke="midnightblue" points="168.225,-22.7584 158.74,-27.4784 169.098,-29.7037 168.225,-22.7584"/>
</g>
</g>
</svg>
