<?xml version="1.0" encoding="UTF-8" standalone="no"?>
<!DOCTYPE svg PUBLIC "-//W3C//DTD SVG 1.1//EN"
 "http://www.w3.org/Graphics/SVG/1.1/DTD/svg11.dtd">
<!-- Generated by graphviz version 2.36.0 (20140111.2315)
 -->
<!-- Title: Graphical Class Hierarchy Pages: 1 -->
<svg width="206pt" height="115pt"
 viewBox="0.00 0.00 206.00 115.00" xmlns="http://www.w3.org/2000/svg" xmlns:xlink="http://www.w3.org/1999/xlink">
<g id="graph0" class="graph" transform="scale(1 1) rotate(0) translate(4 111)">
<title>Graphical Class Hierarchy</title>
<polygon fill="white" stroke="none" points="-4,4 -4,-111 202,-111 202,4 -4,4"/>
<!-- Node1 -->
<g id="node1" class="node"><title>Node1</title>
<polygon fill="white" stroke="#bfbfbf" points="0,-49.5 0,-68.5 52,-68.5 52,-49.5 0,-49.5"/>
<text text-anchor="middle" x="26" y="-56.5" font-family="Helvetica,sans-Serif" font-size="10.00">pstream</text>
</g>
<!-- Node2 -->
<g id="node2" class="node"><title>Node2</title>
<g id="a_node2"><a xlink:href="structbsc_1_1kstream.html" target="_top" xlink:title="bsc::kstream\&lt; T \&gt;">
<polygon fill="white" stroke="black" points="94,-87.5 94,-106.5 192,-106.5 192,-87.5 94,-87.5"/>
<text text-anchor="middle" x="143" y="-94.5" font-family="Helvetica,sans-Serif" font-size="10.00">bsc::kstream&lt; T &gt;</text>
</a>
</g>
</g>
<!-- Node1&#45;&gt;Node2 -->
<g id="edge1" class="edge"><title>Node1&#45;&gt;Node2</title>
<path fill="none" stroke="midnightblue" d="M62.0026,-70.5661C78.3817,-75.9783 97.6524,-82.346 113.175,-87.4754"/>
<polygon fill="midnightblue" stroke="midnightblue" points="62.8304,-67.1536 52.2372,-67.3393 60.6342,-73.8001 62.8304,-67.1536"/>
</g>
<!-- Node3 -->
<g id="node3" class="node"><title>Node3</title>
<g id="a_node3"><a xlink:href="structbsc_1_1kstream.html" target="_top" xlink:title="bsc::kstream\&lt; K \&gt;">
<polygon fill="white" stroke="black" points="94,-49.5 94,-68.5 192,-68.5 192,-49.5 94,-49.5"/>
<text text-anchor="middle" x="143" y="-56.5" font-family="Helvetica,sans-Serif" font-size="10.00">bsc::kstream&lt; K &gt;</text>
</a>
</g>
</g>
<!-- Node1&#45;&gt;Node3 -->
<g id="edge2" class="edge"><title>Node1&#45;&gt;Node3</title>
<path fill="none" stroke="midnightblue" d="M62.4669,-59C72.325,-59 83.201,-59 93.6618,-59"/>
<polygon fill="midnightblue" stroke="midnightblue" points="62.2373,-55.5001 52.2372,-59 62.2372,-62.5001 62.2373,-55.5001"/>
</g>
<!-- Node4 -->
<g id="node4" class="node"><title>Node4</title>
<g id="a_node4"><a xlink:href="structbsc_1_1kstream.html" target="_top" xlink:title="bsc::kstream\&lt; kernel\l_type \&gt;">
<polygon fill="white" stroke="black" points="88.5,-0 88.5,-30 197.5,-30 197.5,-0 88.5,-0"/>
<text text-anchor="start" x="96.5" y="-18" font-family="Helvetica,sans-Serif" font-size="10.00">bsc::kstream&lt; kernel</text>
<text text-anchor="middle" x="143" y="-7" font-family="Helvetica,sans-Serif" font-size="10.00">_type &gt;</text>
</a>
</g>
</g>
<!-- Node1&#45;&gt;Node4 -->
<g id="edge3" class="edge"><title>Node1&#45;&gt;Node4</title>
<path fill="none" stroke="midnightblue" d="M61.446,-45.8207C74.4092,-40.8608 89.246,-35.1841 102.625,-30.0654"/>
<polygon fill="midnightblue" stroke="midnightblue" points="60.0423,-42.6102 51.9533,-49.4527 62.5437,-49.148 60.0423,-42.6102"/>
</g>
</g>
</svg>
