<?xml version="1.0" encoding="UTF-8" standalone="no"?>
<!DOCTYPE svg PUBLIC "-//W3C//DTD SVG 1.1//EN"
 "http://www.w3.org/Graphics/SVG/1.1/DTD/svg11.dtd">
<!-- Generated by graphviz version 2.36.0 (20140111.2315)
 -->
<!-- Title: factory::Process_rserver&lt; T, Router &gt; Pages: 1 -->
<svg width="215pt" height="178pt"
 viewBox="0.00 0.00 215.00 178.00" xmlns="http://www.w3.org/2000/svg" xmlns:xlink="http://www.w3.org/1999/xlink">
<g id="graph0" class="graph" transform="scale(1 1) rotate(0) translate(4 174)">
<title>factory::Process_rserver&lt; T, Router &gt;</title>
<polygon fill="white" stroke="none" points="-4,4 -4,-174 211,-174 211,4 -4,4"/>
<!-- Node1 -->
<g id="node1" class="node"><title>Node1</title>
<polygon fill="#bfbfbf" stroke="black" points="47,-1 47,-31 171,-31 171,-1 47,-1"/>
<text text-anchor="start" x="55" y="-19" font-family="Helvetica,sans-Serif" font-size="10.00">factory::Process_rserver</text>
<text text-anchor="middle" x="109" y="-8" font-family="Helvetica,sans-Serif" font-size="10.00">&lt; T, Router &gt;</text>
</g>
<!-- Node2 -->
<g id="node2" class="node"><title>Node2</title>
<g id="a_node2"><a xlink:href="structfactory_1_1Buffered__server.html" target="_top" xlink:title="factory::Buffered_server\l\&lt; T, Router \&gt;">
<polygon fill="white" stroke="black" points="48,-71 48,-101 170,-101 170,-71 48,-71"/>
<text text-anchor="start" x="56" y="-89" font-family="Helvetica,sans-Serif" font-size="10.00">factory::Buffered_server</text>
<text text-anchor="middle" x="109" y="-78" font-family="Helvetica,sans-Serif" font-size="10.00">&lt; T, Router &gt;</text>
</a>
</g>
</g>
<!-- Node2&#45;&gt;Node1 -->
<g id="edge1" class="edge"><title>Node2&#45;&gt;Node1</title>
<path fill="none" stroke="midnightblue" d="M109,-60.7688C109,-50.8141 109,-39.6384 109,-31.0716"/>
<polygon fill="midnightblue" stroke="midnightblue" points="105.5,-60.9103 109,-70.9104 112.5,-60.9104 105.5,-60.9103"/>
</g>
<!-- Node3 -->
<g id="node3" class="node"><title>Node3</title>
<g id="a_node3"><a xlink:href="structfactory_1_1Server__base.html" target="_top" xlink:title="factory::Server_base">
<polygon fill="white" stroke="black" points="-0.5,-150.5 -0.5,-169.5 106.5,-169.5 106.5,-150.5 -0.5,-150.5"/>
<text text-anchor="middle" x="53" y="-157.5" font-family="Helvetica,sans-Serif" font-size="10.00">factory::Server_base</text>
</a>
</g>
</g>
<!-- Node3&#45;&gt;Node2 -->
<g id="edge2" class="edge"><title>Node3&#45;&gt;Node2</title>
<path fill="none" stroke="midnightblue" d="M65.9872,-142.302C75.6669,-129.857 88.7453,-113.042 97.931,-101.232"/>
<polygon fill="midnightblue" stroke="midnightblue" points="63.0205,-140.416 59.6438,-150.458 68.546,-144.713 63.0205,-140.416"/>
</g>
<!-- Node4 -->
<g id="node4" class="node"><title>Node4</title>
<g id="a_node4"><a xlink:href="structfactory_1_1Router.html" target="_top" xlink:title="factory::Router">
<polygon fill="white" stroke="black" points="125,-150.5 125,-169.5 207,-169.5 207,-150.5 125,-150.5"/>
<text text-anchor="middle" x="166" y="-157.5" font-family="Helvetica,sans-Serif" font-size="10.00">factory::Router</text>
</a>
</g>
</g>
<!-- Node4&#45;&gt;Node2 -->
<g id="edge3" class="edge"><title>Node4&#45;&gt;Node2</title>
<path fill="none" stroke="#9a32cd" stroke-dasharray="5,2" d="M152.781,-142.302C142.928,-129.857 129.616,-113.042 120.267,-101.232"/>
<polygon fill="#9a32cd" stroke="#9a32cd" points="150.286,-144.79 159.238,-150.458 155.775,-140.445 150.286,-144.79"/>
<text text-anchor="middle" x="162" y="-123.5" font-family="Helvetica,sans-Serif" font-size="10.00"> _router</text>
</g>
</g>
</svg>
