<?xml version="1.0" encoding="UTF-8" standalone="no"?>
<!DOCTYPE svg PUBLIC "-//W3C//DTD SVG 1.1//EN"
 "http://www.w3.org/Graphics/SVG/1.1/DTD/svg11.dtd">
<!-- Generated by graphviz version 2.38.0 (20140413.2041)
 -->
<!-- Title: factory::Register_type&lt; T, ID &gt; Pages: 1 -->
<svg width="178pt" height="174pt"
 viewBox="0.00 0.00 178.00 174.00" xmlns="http://www.w3.org/2000/svg" xmlns:xlink="http://www.w3.org/1999/xlink">
<g id="graph0" class="graph" transform="scale(1 1) rotate(0) translate(4 170)">
<title>factory::Register_type&lt; T, ID &gt;</title>
<polygon fill="white" stroke="none" points="-4,4 -4,-170 174,-170 174,4 -4,4"/>
<!-- Node1 -->
<g id="node1" class="node"><title>Node1</title>
<polygon fill="#bfbfbf" stroke="black" points="57,-0.5 57,-30.5 170,-30.5 170,-0.5 57,-0.5"/>
<text text-anchor="start" x="65" y="-18.5" font-family="Helvetica,sans-Serif" font-size="10.00">factory::Register_type</text>
<text text-anchor="middle" x="113.5" y="-7.5" font-family="Helvetica,sans-Serif" font-size="10.00">&lt; T, ID &gt;</text>
</g>
<!-- Node2 -->
<g id="node2" class="node"><title>Node2</title>
<g id="a_node2"><a xlink:href="structfactory_1_1Register__type_1_1Init.html" target="_top" xlink:title="factory::Register_type\l\&lt; T, ID \&gt;::Init">
<polygon fill="white" stroke="black" points="0,-78.5 0,-108.5 113,-108.5 113,-78.5 0,-78.5"/>
<text text-anchor="start" x="8" y="-96.5" font-family="Helvetica,sans-Serif" font-size="10.00">factory::Register_type</text>
<text text-anchor="middle" x="56.5" y="-85.5" font-family="Helvetica,sans-Serif" font-size="10.00">&lt; T, ID &gt;::Init</text>
</a>
</g>
</g>
<!-- Node2&#45;&gt;Node1 -->
<g id="edge1" class="edge"><title>Node2&#45;&gt;Node1</title>
<path fill="none" stroke="#9a32cd" stroke-dasharray="5,2" d="M69.6208,-69.548C73.801,-62.7538 78.6154,-55.4193 83.5,-49 88.3359,-42.6448 94.1937,-36.0894 99.4452,-30.5454"/>
<polygon fill="#9a32cd" stroke="#9a32cd" points="66.4915,-67.9616 64.3666,-78.3412 72.5005,-71.5522 66.4915,-67.9616"/>
<text text-anchor="middle" x="103.5" y="-52" font-family="Helvetica,sans-Serif" font-size="10.00"> _inittype</text>
</g>
<!-- Node3 -->
<g id="node3" class="node"><title>Node3</title>
<g id="a_node3"><a xlink:href="structfactory_1_1Type.html" target="_top" xlink:title="factory::Type">
<polygon fill="white" stroke="black" points="19.5,-146.5 19.5,-165.5 93.5,-165.5 93.5,-146.5 19.5,-146.5"/>
<text text-anchor="middle" x="56.5" y="-153.5" font-family="Helvetica,sans-Serif" font-size="10.00">factory::Type</text>
</a>
</g>
</g>
<!-- Node3&#45;&gt;Node2 -->
<g id="edge2" class="edge"><title>Node3&#45;&gt;Node2</title>
<path fill="none" stroke="midnightblue" d="M56.5,-136.215C56.5,-127.356 56.5,-116.958 56.5,-108.759"/>
<polygon fill="midnightblue" stroke="midnightblue" points="53.0001,-136.332 56.5,-146.332 60.0001,-136.332 53.0001,-136.332"/>
</g>
<!-- Node4 -->
<g id="node4" class="node"><title>Node4</title>
<polygon fill="white" stroke="#bfbfbf" points="131,-84 131,-103 160,-103 160,-84 131,-84"/>
<text text-anchor="middle" x="145.5" y="-91" font-family="Helvetica,sans-Serif" font-size="10.00">ID</text>
</g>
<!-- Node4&#45;&gt;Node1 -->
<g id="edge3" class="edge"><title>Node4&#45;&gt;Node1</title>
<path fill="none" stroke="#9a32cd" stroke-dasharray="5,2" d="M137.787,-74.1816C132.135,-60.7585 124.578,-42.8097 119.403,-30.5198"/>
<polygon fill="#9a32cd" stroke="#9a32cd" points="134.723,-75.9237 141.829,-83.7818 141.174,-73.2073 134.723,-75.9237"/>
<text text-anchor="middle" x="148" y="-52" font-family="Helvetica,sans-Serif" font-size="10.00"> id_type</text>
</g>
</g>
</svg>
