<?xml version="1.0" encoding="UTF-8" standalone="no"?>
<!DOCTYPE svg PUBLIC "-//W3C//DTD SVG 1.1//EN"
 "http://www.w3.org/Graphics/SVG/1.1/DTD/svg11.dtd">
<!-- Generated by graphviz version 2.38.0 (20140413.2041)
 -->
<!-- Title: factory::Process_iserver&lt; T, Router &gt; Pages: 1 -->
<svg width="184pt" height="264pt"
 viewBox="0.00 0.00 183.50 264.00" xmlns="http://www.w3.org/2000/svg" xmlns:xlink="http://www.w3.org/1999/xlink">
<g id="graph0" class="graph" transform="scale(1 1) rotate(0) translate(4 260)">
<title>factory::Process_iserver&lt; T, Router &gt;</title>
<polygon fill="white" stroke="none" points="-4,4 -4,-260 179.5,-260 179.5,4 -4,4"/>
<!-- Node1 -->
<g id="node1" class="node"><title>Node1</title>
<polygon fill="#bfbfbf" stroke="black" points="40,-0.5 40,-30.5 163,-30.5 163,-0.5 40,-0.5"/>
<text text-anchor="start" x="48" y="-18.5" font-family="Helvetica,sans-Serif" font-size="10.00">factory::Process_iserver</text>
<text text-anchor="middle" x="101.5" y="-7.5" font-family="Helvetica,sans-Serif" font-size="10.00">&lt; T, Router &gt;</text>
</g>
<!-- Node2 -->
<g id="node2" class="node"><title>Node2</title>
<g id="a_node2"><a xlink:href="structfactory_1_1Proxy__server.html" target="_top" xlink:title="factory::Proxy_server\l\&lt; T, Process_rserver\l\&lt; T, Router \&gt; \&gt;">
<polygon fill="white" stroke="black" points="46.5,-68.5 46.5,-109.5 156.5,-109.5 156.5,-68.5 46.5,-68.5"/>
<text text-anchor="start" x="54.5" y="-97.5" font-family="Helvetica,sans-Serif" font-size="10.00">factory::Proxy_server</text>
<text text-anchor="start" x="54.5" y="-86.5" font-family="Helvetica,sans-Serif" font-size="10.00">&lt; T, Process_rserver</text>
<text text-anchor="middle" x="101.5" y="-75.5" font-family="Helvetica,sans-Serif" font-size="10.00">&lt; T, Router &gt; &gt;</text>
</a>
</g>
</g>
<!-- Node2&#45;&gt;Node1 -->
<g id="edge1" class="edge"><title>Node2&#45;&gt;Node1</title>
<path fill="none" stroke="midnightblue" d="M101.5,-58.1581C101.5,-48.6872 101.5,-38.6473 101.5,-30.7972"/>
<polygon fill="midnightblue" stroke="midnightblue" points="98.0001,-58.4623 101.5,-68.4623 105,-58.4623 98.0001,-58.4623"/>
</g>
<!-- Node3 -->
<g id="node3" class="node"><title>Node3</title>
<g id="a_node3"><a xlink:href="structfactory_1_1Server__with__pool.html" target="_top" xlink:title="Proxy_server_base\&lt;\l T, Process_rserver\l\&lt; T, Router \&gt; &#160;\&gt;">
<polygon fill="white" stroke="black" points="48,-147.5 48,-188.5 155,-188.5 155,-147.5 48,-147.5"/>
<text text-anchor="start" x="56" y="-176.5" font-family="Helvetica,sans-Serif" font-size="10.00">Proxy_server_base&lt;</text>
<text text-anchor="start" x="56" y="-165.5" font-family="Helvetica,sans-Serif" font-size="10.00"> T, Process_rserver</text>
<text text-anchor="middle" x="101.5" y="-154.5" font-family="Helvetica,sans-Serif" font-size="10.00">&lt; T, Router &gt; &gt;</text>
</a>
</g>
</g>
<!-- Node3&#45;&gt;Node2 -->
<g id="edge2" class="edge"><title>Node3&#45;&gt;Node2</title>
<path fill="none" stroke="midnightblue" d="M101.5,-136.906C101.5,-127.792 101.5,-118.017 101.5,-109.762"/>
<polygon fill="midnightblue" stroke="midnightblue" points="98.0001,-137.171 101.5,-147.171 105,-137.171 98.0001,-137.171"/>
</g>
<!-- Node4 -->
<g id="node4" class="node"><title>Node4</title>
<g id="a_node4"><a xlink:href="structfactory_1_1Server__base.html" target="_top" xlink:title="factory::Server_base">
<polygon fill="white" stroke="black" points="0,-236.5 0,-255.5 107,-255.5 107,-236.5 0,-236.5"/>
<text text-anchor="middle" x="53.5" y="-243.5" font-family="Helvetica,sans-Serif" font-size="10.00">factory::Server_base</text>
</a>
</g>
</g>
<!-- Node4&#45;&gt;Node3 -->
<g id="edge3" class="edge"><title>Node4&#45;&gt;Node3</title>
<path fill="none" stroke="midnightblue" d="M64.5232,-227.547C71.8509,-215.944 81.4864,-200.688 89.0842,-188.658"/>
<polygon fill="midnightblue" stroke="midnightblue" points="61.387,-225.958 59.0062,-236.282 67.3054,-229.696 61.387,-225.958"/>
</g>
<!-- Node5 -->
<g id="node5" class="node"><title>Node5</title>
<polygon fill="white" stroke="#bfbfbf" points="125.5,-236.5 125.5,-255.5 175.5,-255.5 175.5,-236.5 125.5,-236.5"/>
<text text-anchor="middle" x="150.5" y="-243.5" font-family="Helvetica,sans-Serif" font-size="10.00">Kernels</text>
</g>
<!-- Node5&#45;&gt;Node3 -->
<g id="edge4" class="edge"><title>Node5&#45;&gt;Node3</title>
<path fill="none" stroke="#9a32cd" stroke-dasharray="5,2" d="M139.247,-227.547C131.767,-215.944 121.931,-200.688 114.174,-188.658"/>
<polygon fill="#9a32cd" stroke="#9a32cd" points="136.519,-229.774 144.879,-236.282 142.402,-225.981 136.519,-229.774"/>
<text text-anchor="middle" x="152.5" y="-210" font-family="Helvetica,sans-Serif" font-size="10.00"> _kernels</text>
</g>
</g>
</svg>
