<?xml version="1.0" encoding="UTF-8" standalone="no"?>
<!DOCTYPE svg PUBLIC "-//W3C//DTD SVG 1.1//EN"
 "http://www.w3.org/Graphics/SVG/1.1/DTD/svg11.dtd">
<!-- Generated by graphviz version 2.38.0 (20140413.2041)
 -->
<!-- Title: factory::Basic_CPU_server&lt; T &gt; Pages: 1 -->
<svg width="276pt" height="218pt"
 viewBox="0.00 0.00 276.00 218.00" xmlns="http://www.w3.org/2000/svg" xmlns:xlink="http://www.w3.org/1999/xlink">
<g id="graph0" class="graph" transform="scale(1 1) rotate(0) translate(4 214)">
<title>factory::Basic_CPU_server&lt; T &gt;</title>
<polygon fill="white" stroke="none" points="-4,4 -4,-214 272,-214 272,4 -4,4"/>
<!-- Node1 -->
<g id="node1" class="node"><title>Node1</title>
<polygon fill="#bfbfbf" stroke="black" points="84.5,-56.5 84.5,-86.5 188.5,-86.5 188.5,-56.5 84.5,-56.5"/>
<text text-anchor="start" x="92.5" y="-74.5" font-family="Helvetica,sans-Serif" font-size="10.00">factory::Basic_CPU</text>
<text text-anchor="middle" x="136.5" y="-63.5" font-family="Helvetica,sans-Serif" font-size="10.00">_server&lt; T &gt;</text>
</g>
<!-- Node4 -->
<g id="node4" class="node"><title>Node4</title>
<g id="a_node4"><a xlink:href="structfactory_1_1CPU__server.html" target="_top" xlink:title="factory::CPU_server\&lt; T \&gt;">
<polygon fill="white" stroke="black" points="0,-0.5 0,-19.5 131,-19.5 131,-0.5 0,-0.5"/>
<text text-anchor="middle" x="65.5" y="-7.5" font-family="Helvetica,sans-Serif" font-size="10.00">factory::CPU_server&lt; T &gt;</text>
</a>
</g>
</g>
<!-- Node1&#45;&gt;Node4 -->
<g id="edge3" class="edge"><title>Node1&#45;&gt;Node4</title>
<path fill="none" stroke="midnightblue" d="M111.911,-49.8934C99.56,-39.5432 85.2579,-27.5577 75.8311,-19.6578"/>
<polygon fill="midnightblue" stroke="midnightblue" points="109.761,-52.6588 119.674,-56.3993 114.258,-47.2937 109.761,-52.6588"/>
</g>
<!-- Node5 -->
<g id="node5" class="node"><title>Node5</title>
<g id="a_node5"><a xlink:href="structfactory_1_1IO__server.html" target="_top" xlink:title="factory::IO_server\&lt; T \&gt;">
<polygon fill="white" stroke="black" points="149,-0.5 149,-19.5 268,-19.5 268,-0.5 149,-0.5"/>
<text text-anchor="middle" x="208.5" y="-7.5" font-family="Helvetica,sans-Serif" font-size="10.00">factory::IO_server&lt; T &gt;</text>
</a>
</g>
</g>
<!-- Node1&#45;&gt;Node5 -->
<g id="edge4" class="edge"><title>Node1&#45;&gt;Node5</title>
<path fill="none" stroke="midnightblue" d="M161.436,-49.8934C173.96,-39.5432 188.464,-27.5577 198.023,-19.6578"/>
<polygon fill="midnightblue" stroke="midnightblue" points="159.042,-47.3311 153.563,-56.3993 163.501,-52.7271 159.042,-47.3311"/>
</g>
<!-- Node2 -->
<g id="node2" class="node"><title>Node2</title>
<g id="a_node2"><a xlink:href="structfactory_1_1Server__with__pool.html" target="_top" xlink:title="Standard_server_with\l_pool\&lt; T \&gt;">
<polygon fill="white" stroke="black" points="81,-123.5 81,-153.5 192,-153.5 192,-123.5 81,-123.5"/>
<text text-anchor="start" x="89" y="-141.5" font-family="Helvetica,sans-Serif" font-size="10.00">Standard_server_with</text>
<text text-anchor="middle" x="136.5" y="-130.5" font-family="Helvetica,sans-Serif" font-size="10.00">_pool&lt; T &gt;</text>
</a>
</g>
</g>
<!-- Node2&#45;&gt;Node1 -->
<g id="edge1" class="edge"><title>Node2&#45;&gt;Node1</title>
<path fill="none" stroke="midnightblue" d="M136.5,-113.108C136.5,-104.154 136.5,-94.3227 136.5,-86.5765"/>
<polygon fill="midnightblue" stroke="midnightblue" points="133,-113.396 136.5,-123.396 140,-113.396 133,-113.396"/>
</g>
<!-- Node3 -->
<g id="node3" class="node"><title>Node3</title>
<g id="a_node3"><a xlink:href="structfactory_1_1Server__base.html" target="_top" xlink:title="factory::Server_base">
<polygon fill="white" stroke="black" points="83,-190.5 83,-209.5 190,-209.5 190,-190.5 83,-190.5"/>
<text text-anchor="middle" x="136.5" y="-197.5" font-family="Helvetica,sans-Serif" font-size="10.00">factory::Server_base</text>
</a>
</g>
</g>
<!-- Node3&#45;&gt;Node2 -->
<g id="edge2" class="edge"><title>Node3&#45;&gt;Node2</title>
<path fill="none" stroke="midnightblue" d="M136.5,-180.235C136.5,-171.586 136.5,-161.497 136.5,-153.523"/>
<polygon fill="midnightblue" stroke="midnightblue" points="133,-180.475 136.5,-190.475 140,-180.475 133,-180.475"/>
</g>
</g>
</svg>
