<?xml version="1.0" encoding="UTF-8" standalone="no"?>
<!DOCTYPE svg PUBLIC "-//W3C//DTD SVG 1.1//EN"
 "http://www.w3.org/Graphics/SVG/1.1/DTD/svg11.dtd">
<!-- Generated by graphviz version 2.36.0 (20140111.2315)
 -->
<!-- Title: bsc::kernel Pages: 1 -->
<svg width="215pt" height="146pt"
 viewBox="0.00 0.00 215.00 146.00" xmlns="http://www.w3.org/2000/svg" xmlns:xlink="http://www.w3.org/1999/xlink">
<g id="graph0" class="graph" transform="scale(1 1) rotate(0) translate(4 142)">
<title>bsc::kernel</title>
<polygon fill="white" stroke="none" points="-4,4 -4,-142 211,-142 211,4 -4,4"/>
<!-- Node1 -->
<g id="node1" class="node"><title>Node1</title>
<polygon fill="#bfbfbf" stroke="black" points="68.5,-1.5 68.5,-20.5 133.5,-20.5 133.5,-1.5 68.5,-1.5"/>
<text text-anchor="middle" x="101" y="-8.5" font-family="Helvetica,sans-Serif" font-size="10.00">bsc::kernel</text>
</g>
<!-- Node1&#45;&gt;Node1 -->
<g id="edge4" class="edge"><title>Node1&#45;&gt;Node1</title>
<path fill="none" stroke="#9a32cd" stroke-dasharray="5,2" d="M143.791,-15.6366C148.189,-14.7236 151,-13.178 151,-11 151,-7.42578 143.43,-5.5549 133.7,-5.38736"/>
<polygon fill="#9a32cd" stroke="#9a32cd" points="143.317,-12.166 133.7,-16.6126 143.991,-19.1335 143.317,-12.166"/>
<text text-anchor="middle" x="173.5" y="-14" font-family="Helvetica,sans-Serif" font-size="10.00"> _principal</text>
<text text-anchor="middle" x="173.5" y="-3" font-family="Helvetica,sans-Serif" font-size="10.00">_parent</text>
</g>
<!-- Node2 -->
<g id="node2" class="node"><title>Node2</title>
<g id="a_node2"><a xlink:href="classbsc_1_1mobile__kernel.html" target="_top" xlink:title="bsc::mobile_kernel">
<polygon fill="white" stroke="black" points="52,-60.5 52,-79.5 150,-79.5 150,-60.5 52,-60.5"/>
<text text-anchor="middle" x="101" y="-67.5" font-family="Helvetica,sans-Serif" font-size="10.00">bsc::mobile_kernel</text>
</a>
</g>
</g>
<!-- Node2&#45;&gt;Node1 -->
<g id="edge1" class="edge"><title>Node2&#45;&gt;Node1</title>
<path fill="none" stroke="midnightblue" d="M101,-49.9331C101,-40.0243 101,-28.4007 101,-20.6571"/>
<polygon fill="midnightblue" stroke="midnightblue" points="97.5001,-50.0937 101,-60.0938 104.5,-50.0938 97.5001,-50.0937"/>
</g>
<!-- Node3 -->
<g id="node3" class="node"><title>Node3</title>
<g id="a_node3"><a xlink:href="classbsc_1_1kernel__base.html" target="_top" xlink:title="bsc::kernel_base">
<polygon fill="white" stroke="black" points="-0.5,-118.5 -0.5,-137.5 90.5,-137.5 90.5,-118.5 -0.5,-118.5"/>
<text text-anchor="middle" x="45" y="-125.5" font-family="Helvetica,sans-Serif" font-size="10.00">bsc::kernel_base</text>
</a>
</g>
</g>
<!-- Node3&#45;&gt;Node2 -->
<g id="edge2" class="edge"><title>Node3&#45;&gt;Node2</title>
<path fill="none" stroke="midnightblue" d="M60.9584,-111.042C71.2214,-100.779 84.1508,-87.8492 92.4948,-79.5052"/>
<polygon fill="midnightblue" stroke="midnightblue" points="58.3462,-108.704 53.75,-118.25 63.296,-113.654 58.3462,-108.704"/>
</g>
<!-- Node4 -->
<g id="node4" class="node"><title>Node4</title>
<g id="a_node4"><a xlink:href="classbsc_1_1kernel__header.html" target="_top" xlink:title="bsc::kernel_header">
<polygon fill="white" stroke="black" points="108.5,-118.5 108.5,-137.5 207.5,-137.5 207.5,-118.5 108.5,-118.5"/>
<text text-anchor="middle" x="158" y="-125.5" font-family="Helvetica,sans-Serif" font-size="10.00">bsc::kernel_header</text>
</a>
</g>
</g>
<!-- Node4&#45;&gt;Node2 -->
<g id="edge3" class="edge"><title>Node4&#45;&gt;Node2</title>
<path fill="none" stroke="midnightblue" d="M141.757,-111.042C131.31,-100.779 118.15,-87.8492 109.657,-79.5052"/>
<polygon fill="midnightblue" stroke="midnightblue" points="139.507,-113.738 149.094,-118.25 144.413,-108.745 139.507,-113.738"/>
</g>
</g>
</svg>
