<?xml version="1.0" encoding="UTF-8" standalone="no"?>
<!DOCTYPE svg PUBLIC "-//W3C//DTD SVG 1.1//EN"
 "http://www.w3.org/Graphics/SVG/1.1/DTD/svg11.dtd">
<!-- Generated by graphviz version 2.36.0 (20140111.2315)
 -->
<!-- Title: factory::timer_pipeline&lt; T &gt; Pages: 1 -->
<svg width="405pt" height="166pt"
 viewBox="0.00 0.00 405.00 166.00" xmlns="http://www.w3.org/2000/svg" xmlns:xlink="http://www.w3.org/1999/xlink">
<g id="graph0" class="graph" transform="scale(1 1) rotate(0) translate(4 162)">
<title>factory::timer_pipeline&lt; T &gt;</title>
<polygon fill="white" stroke="none" points="-4,4 -4,-162 401,-162 401,4 -4,4"/>
<!-- Node1 -->
<g id="node1" class="node"><title>Node1</title>
<polygon fill="#bfbfbf" stroke="black" points="160.5,-0.5 160.5,-19.5 297.5,-19.5 297.5,-0.5 160.5,-0.5"/>
<text text-anchor="middle" x="229" y="-7.5" font-family="Helvetica,sans-Serif" font-size="10.00">factory::timer_pipeline&lt; T &gt;</text>
</g>
<!-- Node2 -->
<g id="node2" class="node"><title>Node2</title>
<g id="a_node2"><a xlink:href="classfactory_1_1basic__pipeline.html" target="_top" xlink:title="bits::Timer_pipeline\l_base\&lt; T \&gt;">
<polygon fill="white" stroke="black" points="178.5,-59 178.5,-89 279.5,-89 279.5,-59 178.5,-59"/>
<text text-anchor="start" x="186.5" y="-77" font-family="Helvetica,sans-Serif" font-size="10.00">bits::Timer_pipeline</text>
<text text-anchor="middle" x="229" y="-66" font-family="Helvetica,sans-Serif" font-size="10.00">_base&lt; T &gt;</text>
</a>
</g>
</g>
<!-- Node2&#45;&gt;Node1 -->
<g id="edge1" class="edge"><title>Node2&#45;&gt;Node1</title>
<path fill="none" stroke="midnightblue" d="M229,-48.8706C229,-38.6625 229,-27.4077 229,-19.8419"/>
<polygon fill="midnightblue" stroke="midnightblue" points="225.5,-48.9312 229,-58.9312 232.5,-48.9313 225.5,-48.9312"/>
</g>
<!-- Node3 -->
<g id="node3" class="node"><title>Node3</title>
<g id="a_node3"><a xlink:href="classfactory_1_1pipeline__base.html" target="_top" xlink:title="factory::pipeline_base">
<polygon fill="white" stroke="black" points="0,-138.5 0,-157.5 112,-157.5 112,-138.5 0,-138.5"/>
<text text-anchor="middle" x="56" y="-145.5" font-family="Helvetica,sans-Serif" font-size="10.00">factory::pipeline_base</text>
</a>
</g>
</g>
<!-- Node3&#45;&gt;Node2 -->
<g id="edge2" class="edge"><title>Node3&#45;&gt;Node2</title>
<path fill="none" stroke="midnightblue" d="M85.7684,-134.611C116.175,-121.956 163.313,-102.338 195.129,-89.0968"/>
<polygon fill="midnightblue" stroke="midnightblue" points="84.4122,-131.384 76.5247,-138.458 87.1019,-137.847 84.4122,-131.384"/>
</g>
<!-- Node4 -->
<g id="node4" class="node"><title>Node4</title>
<polygon fill="white" stroke="#bfbfbf" points="130,-138.5 130,-157.5 180,-157.5 180,-138.5 130,-138.5"/>
<text text-anchor="middle" x="155" y="-145.5" font-family="Helvetica,sans-Serif" font-size="10.00">Kernels</text>
</g>
<!-- Node4&#45;&gt;Node2 -->
<g id="edge3" class="edge"><title>Node4&#45;&gt;Node2</title>
<path fill="none" stroke="#9a32cd" stroke-dasharray="5,2" d="M166.465,-130.07C171.707,-122.895 178.249,-114.669 185,-108 191.929,-101.155 200.321,-94.526 207.911,-89.0273"/>
<polygon fill="#9a32cd" stroke="#9a32cd" points="163.496,-128.208 160.602,-138.4 169.22,-132.237 163.496,-128.208"/>
<text text-anchor="middle" x="205" y="-111.5" font-family="Helvetica,sans-Serif" font-size="10.00"> _kernels</text>
</g>
<!-- Node5 -->
<g id="node5" class="node"><title>Node5</title>
<polygon fill="white" stroke="#bfbfbf" points="198,-138.5 198,-157.5 264,-157.5 264,-138.5 198,-138.5"/>
<text text-anchor="middle" x="231" y="-145.5" font-family="Helvetica,sans-Serif" font-size="10.00">Semaphore</text>
</g>
<!-- Node5&#45;&gt;Node2 -->
<g id="edge4" class="edge"><title>Node5&#45;&gt;Node2</title>
<path fill="none" stroke="#9a32cd" stroke-dasharray="5,2" d="M230.274,-128.374C230.175,-125.568 230.08,-122.708 230,-120 229.695,-109.689 229.438,-98.0476 229.262,-89.1885"/>
<polygon fill="#9a32cd" stroke="#9a32cd" points="226.781,-128.627 230.652,-138.489 233.776,-128.365 226.781,-128.627"/>
<text text-anchor="middle" x="258.5" y="-111.5" font-family="Helvetica,sans-Serif" font-size="10.00"> _semaphore</text>
</g>
<!-- Node6 -->
<g id="node6" class="node"><title>Node6</title>
<polygon fill="white" stroke="#bfbfbf" points="283,-138.5 283,-157.5 335,-157.5 335,-138.5 283,-138.5"/>
<text text-anchor="middle" x="309" y="-145.5" font-family="Helvetica,sans-Serif" font-size="10.00">Threads</text>
</g>
<!-- Node6&#45;&gt;Node2 -->
<g id="edge5" class="edge"><title>Node6&#45;&gt;Node2</title>
<path fill="none" stroke="#9a32cd" stroke-dasharray="5,2" d="M301.334,-128.832C297.722,-121.745 292.898,-113.92 287,-108 279.559,-100.532 270.079,-94.2029 260.951,-89.1474"/>
<polygon fill="#9a32cd" stroke="#9a32cd" points="298.372,-130.766 305.743,-138.377 304.727,-127.831 298.372,-130.766"/>
<text text-anchor="middle" x="316.5" y="-111.5" font-family="Helvetica,sans-Serif" font-size="10.00"> _threads</text>
</g>
<!-- Node7 -->
<g id="node7" class="node"><title>Node7</title>
<polygon fill="white" stroke="#bfbfbf" points="353,-138.5 353,-157.5 397,-157.5 397,-138.5 353,-138.5"/>
<text text-anchor="middle" x="375" y="-145.5" font-family="Helvetica,sans-Serif" font-size="10.00">Mutex</text>
</g>
<!-- Node7&#45;&gt;Node2 -->
<g id="edge6" class="edge"><title>Node7&#45;&gt;Node2</title>
<path fill="none" stroke="#9a32cd" stroke-dasharray="5,2" d="M363.553,-129.899C357.634,-122.224 349.805,-113.645 341,-108 322.57,-96.1831 299.757,-88.4634 279.539,-83.4871"/>
<polygon fill="#9a32cd" stroke="#9a32cd" points="360.889,-132.189 369.569,-138.264 366.572,-128.102 360.889,-132.189"/>
<text text-anchor="middle" x="372" y="-111.5" font-family="Helvetica,sans-Serif" font-size="10.00"> _mutex</text>
</g>
</g>
</svg>
