<?xml version="1.0" encoding="UTF-8" standalone="no"?>
<!DOCTYPE svg PUBLIC "-//W3C//DTD SVG 1.1//EN"
 "http://www.w3.org/Graphics/SVG/1.1/DTD/svg11.dtd">
<!-- Generated by graphviz version 2.36.0 (20140111.2315)
 -->
<!-- Title: Main&lt; Address &gt; Pages: 1 -->
<svg width="243pt" height="196pt"
 viewBox="0.00 0.00 243.00 196.00" xmlns="http://www.w3.org/2000/svg" xmlns:xlink="http://www.w3.org/1999/xlink">
<g id="graph0" class="graph" transform="scale(1 1) rotate(0) translate(4 192)">
<title>Main&lt; Address &gt;</title>
<polygon fill="white" stroke="none" points="-4,4 -4,-192 239,-192 239,4 -4,4"/>
<!-- Node1 -->
<g id="node1" class="node"><title>Node1</title>
<polygon fill="#bfbfbf" stroke="black" points="109,-0.5 109,-19.5 201,-19.5 201,-0.5 109,-0.5"/>
<text text-anchor="middle" x="155" y="-7.5" font-family="Helvetica,sans-Serif" font-size="10.00">Main&lt; Address &gt;</text>
</g>
<!-- Node2 -->
<g id="node2" class="node"><title>Node2</title>
<g id="a_node2"><a xlink:href="structfactory_1_1Kernel.html" target="_top" xlink:title="factory::Kernel">
<polygon fill="white" stroke="black" points="75,-56.5 75,-75.5 155,-75.5 155,-56.5 75,-56.5"/>
<text text-anchor="middle" x="115" y="-63.5" font-family="Helvetica,sans-Serif" font-size="10.00">factory::Kernel</text>
</a>
</g>
</g>
<!-- Node2&#45;&gt;Node1 -->
<g id="edge1" class="edge"><title>Node2&#45;&gt;Node1</title>
<path fill="none" stroke="midnightblue" d="M121.747,-47.2747C127.825,-38.0454 136.298,-27.1703 143.387,-19.7511"/>
<polygon fill="midnightblue" stroke="midnightblue" points="118.603,-45.7115 116.439,-56.083 124.598,-49.3246 118.603,-45.7115"/>
</g>
<!-- Node2&#45;&gt;Node1 -->
<g id="edge5" class="edge"><title>Node2&#45;&gt;Node1</title>
<path fill="none" stroke="midnightblue" d="M133.554,-48.4314C141.458,-38.9673 149.582,-27.4827 153.649,-19.7511"/>
<polygon fill="midnightblue" stroke="midnightblue" points="130.785,-46.278 126.772,-56.083 136.024,-50.9212 130.785,-46.278"/>
</g>
<!-- Node3 -->
<g id="node3" class="node"><title>Node3</title>
<g id="a_node3"><a xlink:href="classfactory_1_1mobile__kernel.html" target="_top" xlink:title="factory::mobile_kernel">
<polygon fill="white" stroke="black" points="58.5,-112.5 58.5,-131.5 171.5,-131.5 171.5,-112.5 58.5,-112.5"/>
<text text-anchor="middle" x="115" y="-119.5" font-family="Helvetica,sans-Serif" font-size="10.00">factory::mobile_kernel</text>
</a>
</g>
</g>
<!-- Node3&#45;&gt;Node2 -->
<g id="edge2" class="edge"><title>Node3&#45;&gt;Node2</title>
<path fill="none" stroke="midnightblue" d="M115,-101.805C115,-92.9102 115,-82.7798 115,-75.7511"/>
<polygon fill="midnightblue" stroke="midnightblue" points="111.5,-102.083 115,-112.083 118.5,-102.083 111.5,-102.083"/>
</g>
<!-- Node4 -->
<g id="node4" class="node"><title>Node4</title>
<g id="a_node4"><a xlink:href="classfactory_1_1kernel__base.html" target="_top" xlink:title="factory::kernel_base">
<polygon fill="white" stroke="black" points="-0.5,-168.5 -0.5,-187.5 104.5,-187.5 104.5,-168.5 -0.5,-168.5"/>
<text text-anchor="middle" x="52" y="-175.5" font-family="Helvetica,sans-Serif" font-size="10.00">factory::kernel_base</text>
</a>
</g>
</g>
<!-- Node4&#45;&gt;Node3 -->
<g id="edge3" class="edge"><title>Node4&#45;&gt;Node3</title>
<path fill="none" stroke="midnightblue" d="M70.0399,-161.537C81.2731,-151.909 95.3191,-139.869 104.694,-131.834"/>
<polygon fill="midnightblue" stroke="midnightblue" points="67.4368,-159.159 62.122,-168.324 71.9924,-164.473 67.4368,-159.159"/>
</g>
<!-- Node5 -->
<g id="node5" class="node"><title>Node5</title>
<g id="a_node5"><a xlink:href="classfactory_1_1kernel__header.html" target="_top" xlink:title="factory::kernel_header">
<polygon fill="white" stroke="black" points="122.5,-168.5 122.5,-187.5 235.5,-187.5 235.5,-168.5 122.5,-168.5"/>
<text text-anchor="middle" x="179" y="-175.5" font-family="Helvetica,sans-Serif" font-size="10.00">factory::kernel_header</text>
</a>
</g>
</g>
<!-- Node5&#45;&gt;Node3 -->
<g id="edge4" class="edge"><title>Node5&#45;&gt;Node3</title>
<path fill="none" stroke="midnightblue" d="M161.009,-161.82C149.542,-152.145 135.087,-139.948 125.47,-131.834"/>
<polygon fill="midnightblue" stroke="midnightblue" points="158.817,-164.55 168.717,-168.324 163.331,-159.2 158.817,-164.55"/>
</g>
<!-- Node6 -->
<g id="node6" class="node"><title>Node6</title>
<polygon fill="white" stroke="#bfbfbf" points="173,-56.5 173,-75.5 217,-75.5 217,-56.5 173,-56.5"/>
<text text-anchor="middle" x="195" y="-63.5" font-family="Helvetica,sans-Serif" font-size="10.00">Kernel</text>
</g>
<!-- Node6&#45;&gt;Node1 -->
<g id="edge6" class="edge"><title>Node6&#45;&gt;Node1</title>
<path fill="none" stroke="midnightblue" d="M176.446,-48.4314C168.542,-38.9673 160.418,-27.4827 156.351,-19.7511"/>
<polygon fill="midnightblue" stroke="midnightblue" points="173.976,-50.9212 183.228,-56.083 179.215,-46.278 173.976,-50.9212"/>
</g>
<!-- Node6&#45;&gt;Node1 -->
<g id="edge7" class="edge"><title>Node6&#45;&gt;Node1</title>
<path fill="none" stroke="midnightblue" d="M188.253,-47.2747C182.175,-38.0454 173.702,-27.1703 166.613,-19.7511"/>
<polygon fill="midnightblue" stroke="midnightblue" points="185.402,-49.3246 193.561,-56.083 191.397,-45.7115 185.402,-49.3246"/>
</g>
</g>
</svg>
