<?xml version="1.0" encoding="UTF-8" standalone="no"?>
<!DOCTYPE svg PUBLIC "-//W3C//DTD SVG 1.1//EN"
 "http://www.w3.org/Graphics/SVG/1.1/DTD/svg11.dtd">
<!-- Generated by graphviz version 2.38.0 (20140413.2041)
 -->
<!-- Title: factory::Server_with_pool&lt; T, Kernels, Threads, Mutex, Lock, Semaphore &gt; Pages: 1 -->
<svg width="184pt" height="117pt"
 viewBox="0.00 0.00 183.50 117.00" xmlns="http://www.w3.org/2000/svg" xmlns:xlink="http://www.w3.org/1999/xlink">
<g id="graph0" class="graph" transform="scale(1 1) rotate(0) translate(4 113)">
<title>factory::Server_with_pool&lt; T, Kernels, Threads, Mutex, Lock, Semaphore &gt;</title>
<polygon fill="white" stroke="none" points="-4,4 -4,-113 179.5,-113 179.5,4 -4,4"/>
<!-- Node1 -->
<g id="node1" class="node"><title>Node1</title>
<polygon fill="#bfbfbf" stroke="black" points="32.5,-0.5 32.5,-41.5 170.5,-41.5 170.5,-0.5 32.5,-0.5"/>
<text text-anchor="start" x="40.5" y="-29.5" font-family="Helvetica,sans-Serif" font-size="10.00">factory::Server_with</text>
<text text-anchor="start" x="40.5" y="-18.5" font-family="Helvetica,sans-Serif" font-size="10.00">_pool&lt; T, Kernels, Threads,</text>
<text text-anchor="middle" x="101.5" y="-7.5" font-family="Helvetica,sans-Serif" font-size="10.00"> Mutex, Lock, Semaphore &gt;</text>
</g>
<!-- Node2 -->
<g id="node2" class="node"><title>Node2</title>
<g id="a_node2"><a xlink:href="structfactory_1_1Server__base.html" target="_top" xlink:title="factory::Server_base">
<polygon fill="white" stroke="black" points="0,-89.5 0,-108.5 107,-108.5 107,-89.5 0,-89.5"/>
<text text-anchor="middle" x="53.5" y="-96.5" font-family="Helvetica,sans-Serif" font-size="10.00">factory::Server_base</text>
</a>
</g>
</g>
<!-- Node2&#45;&gt;Node1 -->
<g id="edge1" class="edge"><title>Node2&#45;&gt;Node1</title>
<path fill="none" stroke="midnightblue" d="M64.5232,-80.5466C71.8509,-68.9445 81.4864,-53.6883 89.0842,-41.6584"/>
<polygon fill="midnightblue" stroke="midnightblue" points="61.387,-78.9579 59.0062,-89.2818 67.3054,-82.6959 61.387,-78.9579"/>
</g>
<!-- Node3 -->
<g id="node3" class="node"><title>Node3</title>
<polygon fill="white" stroke="#bfbfbf" points="125.5,-89.5 125.5,-108.5 175.5,-108.5 175.5,-89.5 125.5,-89.5"/>
<text text-anchor="middle" x="150.5" y="-96.5" font-family="Helvetica,sans-Serif" font-size="10.00">Kernels</text>
</g>
<!-- Node3&#45;&gt;Node1 -->
<g id="edge2" class="edge"><title>Node3&#45;&gt;Node1</title>
<path fill="none" stroke="#9a32cd" stroke-dasharray="5,2" d="M139.247,-80.5466C131.767,-68.9445 121.931,-53.6883 114.174,-41.6584"/>
<polygon fill="#9a32cd" stroke="#9a32cd" points="136.519,-82.7738 144.879,-89.2818 142.402,-78.9806 136.519,-82.7738"/>
<text text-anchor="middle" x="152.5" y="-63" font-family="Helvetica,sans-Serif" font-size="10.00"> _kernels</text>
</g>
</g>
</svg>
