<?xml version="1.0" encoding="UTF-8" standalone="no"?>
<!DOCTYPE svg PUBLIC "-//W3C//DTD SVG 1.1//EN"
 "http://www.w3.org/Graphics/SVG/1.1/DTD/svg11.dtd">
<!-- Generated by graphviz version 2.38.0 (20140413.2041)
 -->
<!-- Title: factory::Kernel_header Pages: 1 -->
<svg width="700pt" height="432pt"
 viewBox="0.00 0.00 700.00 432.00" xmlns="http://www.w3.org/2000/svg" xmlns:xlink="http://www.w3.org/1999/xlink">
<g id="graph0" class="graph" transform="scale(1 1) rotate(0) translate(4 428)">
<title>factory::Kernel_header</title>
<polygon fill="white" stroke="none" points="-4,4 -4,-428 696,-428 696,4 -4,4"/>
<!-- Node1 -->
<g id="node1" class="node"><title>Node1</title>
<polygon fill="#bfbfbf" stroke="black" points="0,-158.5 0,-177.5 115,-177.5 115,-158.5 0,-158.5"/>
<text text-anchor="middle" x="57.5" y="-165.5" font-family="Helvetica,sans-Serif" font-size="10.00">factory::Kernel_header</text>
</g>
<!-- Node2 -->
<g id="node2" class="node"><title>Node2</title>
<g id="a_node2"><a xlink:href="structfactory_1_1Mobile__kernel.html" target="_top" xlink:title="factory::Mobile_kernel">
<polygon fill="white" stroke="black" points="151,-158.5 151,-177.5 264,-177.5 264,-158.5 151,-158.5"/>
<text text-anchor="middle" x="207.5" y="-165.5" font-family="Helvetica,sans-Serif" font-size="10.00">factory::Mobile_kernel</text>
</a>
</g>
</g>
<!-- Node1&#45;&gt;Node2 -->
<g id="edge1" class="edge"><title>Node1&#45;&gt;Node2</title>
<path fill="none" stroke="midnightblue" d="M125.455,-168C133.856,-168 142.38,-168 150.587,-168"/>
<polygon fill="midnightblue" stroke="midnightblue" points="125.297,-164.5 115.297,-168 125.297,-171.5 125.297,-164.5"/>
</g>
<!-- Node3 -->
<g id="node3" class="node"><title>Node3</title>
<g id="a_node3"><a xlink:href="structfactory_1_1Kernel.html" target="_top" xlink:title="factory::Kernel">
<polygon fill="white" stroke="black" points="300,-158.5 300,-177.5 380,-177.5 380,-158.5 300,-158.5"/>
<text text-anchor="middle" x="340" y="-165.5" font-family="Helvetica,sans-Serif" font-size="10.00">factory::Kernel</text>
</a>
</g>
</g>
<!-- Node2&#45;&gt;Node3 -->
<g id="edge2" class="edge"><title>Node2&#45;&gt;Node3</title>
<path fill="none" stroke="midnightblue" d="M274.342,-168C282.989,-168 291.621,-168 299.633,-168"/>
<polygon fill="midnightblue" stroke="midnightblue" points="274.222,-164.5 264.222,-168 274.222,-171.5 274.222,-164.5"/>
</g>
<!-- Node4 -->
<g id="node4" class="node"><title>Node4</title>
<g id="a_node4"><a xlink:href="structBig__kernel.html" target="_top" xlink:title="Big_kernel\&lt; Size \&gt;">
<polygon fill="white" stroke="black" points="425,-404.5 425,-423.5 525,-423.5 525,-404.5 425,-404.5"/>
<text text-anchor="middle" x="475" y="-411.5" font-family="Helvetica,sans-Serif" font-size="10.00">Big_kernel&lt; Size &gt;</text>
</a>
</g>
</g>
<!-- Node3&#45;&gt;Node4 -->
<g id="edge3" class="edge"><title>Node3&#45;&gt;Node4</title>
<path fill="none" stroke="midnightblue" d="M341.793,-187.943C344.614,-231.648 357.464,-336.612 416,-395 419.901,-398.891 424.61,-401.985 429.639,-404.446"/>
<polygon fill="midnightblue" stroke="midnightblue" points="345.278,-187.571 341.252,-177.771 338.288,-187.943 345.278,-187.571"/>
</g>
<!-- Node5 -->
<g id="node5" class="node"><title>Node5</title>
<g id="a_node5"><a xlink:href="structDummy__kernel.html" target="_top" xlink:title="Dummy_kernel">
<polygon fill="white" stroke="black" points="433.5,-366.5 433.5,-385.5 516.5,-385.5 516.5,-366.5 433.5,-366.5"/>
<text text-anchor="middle" x="475" y="-373.5" font-family="Helvetica,sans-Serif" font-size="10.00">Dummy_kernel</text>
</a>
</g>
</g>
<!-- Node3&#45;&gt;Node5 -->
<g id="edge4" class="edge"><title>Node3&#45;&gt;Node5</title>
<path fill="none" stroke="midnightblue" d="M343.371,-188.205C348.94,-226.575 366.364,-310.312 416,-357 420.94,-361.646 427.034,-365.157 433.398,-367.809"/>
<polygon fill="midnightblue" stroke="midnightblue" points="346.782,-187.3 342.001,-177.845 339.843,-188.218 346.782,-187.3"/>
</g>
<!-- Node6 -->
<g id="node6" class="node"><title>Node6</title>
<g id="a_node6"><a xlink:href="structfactory_1_1Map.html" target="_top" xlink:title="factory::Map\&lt; F, G, I \&gt;">
<polygon fill="white" stroke="black" points="416,-328.5 416,-347.5 534,-347.5 534,-328.5 416,-328.5"/>
<text text-anchor="middle" x="475" y="-335.5" font-family="Helvetica,sans-Serif" font-size="10.00">factory::Map&lt; F, G, I &gt;</text>
</a>
</g>
</g>
<!-- Node3&#45;&gt;Node6 -->
<g id="edge5" class="edge"><title>Node3&#45;&gt;Node6</title>
<path fill="none" stroke="midnightblue" d="M345.512,-187.674C353.876,-219.766 374.811,-283.368 416,-319 420.488,-322.882 425.787,-325.975 431.329,-328.438"/>
<polygon fill="midnightblue" stroke="midnightblue" points="348.854,-186.607 343.065,-177.734 342.057,-188.281 348.854,-186.607"/>
</g>
<!-- Node7 -->
<g id="node7" class="node"><title>Node7</title>
<g id="a_node7"><a xlink:href="structfactory_1_1Map_1_1Worker.html" target="_top" xlink:title="factory::Map\&lt; F, G,\l I \&gt;::Worker">
<polygon fill="white" stroke="black" points="423.5,-279 423.5,-309 526.5,-309 526.5,-279 423.5,-279"/>
<text text-anchor="start" x="431.5" y="-297" font-family="Helvetica,sans-Serif" font-size="10.00">factory::Map&lt; F, G,</text>
<text text-anchor="middle" x="475" y="-286" font-family="Helvetica,sans-Serif" font-size="10.00"> I &gt;::Worker</text>
</a>
</g>
</g>
<!-- Node3&#45;&gt;Node7 -->
<g id="edge6" class="edge"><title>Node3&#45;&gt;Node7</title>
<path fill="none" stroke="midnightblue" d="M350.687,-186.448C363.163,-208.66 386.761,-245.858 416,-269 420.729,-272.743 426.103,-276.031 431.627,-278.888"/>
<polygon fill="midnightblue" stroke="midnightblue" points="353.758,-184.769 345.897,-177.666 347.613,-188.121 353.758,-184.769"/>
</g>
<!-- Node8 -->
<g id="node8" class="node"><title>Node8</title>
<g id="a_node8"><a xlink:href="classfactory_1_1Notification.html" target="_top" xlink:title="factory::Notification">
<polygon fill="white" stroke="black" points="424,-240.5 424,-259.5 526,-259.5 526,-240.5 424,-240.5"/>
<text text-anchor="middle" x="475" y="-247.5" font-family="Helvetica,sans-Serif" font-size="10.00">factory::Notification</text>
</a>
</g>
</g>
<!-- Node3&#45;&gt;Node8 -->
<g id="edge7" class="edge"><title>Node3&#45;&gt;Node8</title>
<path fill="none" stroke="midnightblue" d="M357.408,-185.029C371.736,-199.054 393.681,-218.585 416,-231 422.667,-234.708 430.172,-237.834 437.516,-240.411"/>
<polygon fill="midnightblue" stroke="midnightblue" points="359.819,-182.49 350.278,-177.884 354.864,-187.435 359.819,-182.49"/>
</g>
<!-- Node9 -->
<g id="node9" class="node"><title>Node9</title>
<g id="a_node9"><a xlink:href="structGood__kernel.html" target="_top" xlink:title="Good_kernel">
<polygon fill="white" stroke="black" points="439.5,-202.5 439.5,-221.5 510.5,-221.5 510.5,-202.5 439.5,-202.5"/>
<text text-anchor="middle" x="475" y="-209.5" font-family="Helvetica,sans-Serif" font-size="10.00">Good_kernel</text>
</a>
</g>
</g>
<!-- Node3&#45;&gt;Node9 -->
<g id="edge8" class="edge"><title>Node3&#45;&gt;Node9</title>
<path fill="none" stroke="midnightblue" d="M379.07,-180.732C390.899,-184.677 403.986,-189.03 416,-193 425.357,-196.092 435.57,-199.445 444.782,-202.461"/>
<polygon fill="midnightblue" stroke="midnightblue" points="380.073,-177.378 369.48,-177.532 377.857,-184.018 380.073,-177.378"/>
</g>
<!-- Node12 -->
<g id="node12" class="node"><title>Node12</title>
<g id="a_node12"><a xlink:href="structKernel__that__carries__its__parent.html" target="_top" xlink:title="Kernel_that_carries\l_its_parent">
<polygon fill="white" stroke="black" points="424.5,-153 424.5,-183 525.5,-183 525.5,-153 424.5,-153"/>
<text text-anchor="start" x="432.5" y="-171" font-family="Helvetica,sans-Serif" font-size="10.00">Kernel_that_carries</text>
<text text-anchor="middle" x="475" y="-160" font-family="Helvetica,sans-Serif" font-size="10.00">_its_parent</text>
</a>
</g>
</g>
<!-- Node3&#45;&gt;Node12 -->
<g id="edge11" class="edge"><title>Node3&#45;&gt;Node12</title>
<path fill="none" stroke="midnightblue" d="M390.497,-168C401.51,-168 413.191,-168 424.216,-168"/>
<polygon fill="midnightblue" stroke="midnightblue" points="390.185,-164.5 380.185,-168 390.185,-171.5 390.185,-164.5"/>
</g>
<!-- Node13 -->
<g id="node13" class="node"><title>Node13</title>
<g id="a_node13"><a xlink:href="structMain.html" target="_top" xlink:title="Main\&lt; Address \&gt;">
<polygon fill="white" stroke="black" points="429,-114.5 429,-133.5 521,-133.5 521,-114.5 429,-114.5"/>
<text text-anchor="middle" x="475" y="-121.5" font-family="Helvetica,sans-Serif" font-size="10.00">Main&lt; Address &gt;</text>
</a>
</g>
</g>
<!-- Node3&#45;&gt;Node13 -->
<g id="edge12" class="edge"><title>Node3&#45;&gt;Node13</title>
<path fill="none" stroke="midnightblue" d="M365.829,-154.389C383.503,-147.202 407.754,-138.835 428.816,-132.516"/>
<polygon fill="midnightblue" stroke="midnightblue" points="364.09,-151.325 356.257,-158.459 366.829,-157.767 364.09,-151.325"/>
</g>
<!-- Node3&#45;&gt;Node13 -->
<g id="edge13" class="edge"><title>Node3&#45;&gt;Node13</title>
<path fill="none" stroke="midnightblue" d="M389.969,-158.337C414.191,-150.925 441.754,-141.134 458.507,-133.647"/>
<polygon fill="midnightblue" stroke="midnightblue" points="388.769,-155.042 380.185,-161.253 390.768,-161.751 388.769,-155.042"/>
</g>
<!-- Node14 -->
<g id="node14" class="node"><title>Node14</title>
<g id="a_node14"><a xlink:href="structSender.html" target="_top" xlink:title="Sender">
<polygon fill="white" stroke="black" points="451.5,-76.5 451.5,-95.5 498.5,-95.5 498.5,-76.5 451.5,-76.5"/>
<text text-anchor="middle" x="475" y="-83.5" font-family="Helvetica,sans-Serif" font-size="10.00">Sender</text>
</a>
</g>
</g>
<!-- Node3&#45;&gt;Node14 -->
<g id="edge14" class="edge"><title>Node3&#45;&gt;Node14</title>
<path fill="none" stroke="midnightblue" d="M357.408,-150.971C371.736,-136.946 393.681,-117.415 416,-105 427.019,-98.8707 440.327,-94.3343 451.414,-91.2342"/>
<polygon fill="midnightblue" stroke="midnightblue" points="354.864,-148.565 350.278,-158.116 359.819,-153.51 354.864,-148.565"/>
</g>
<!-- Node15 -->
<g id="node15" class="node"><title>Node15</title>
<g id="a_node15"><a xlink:href="structSleepy__kernel.html" target="_top" xlink:title="Sleepy_kernel">
<polygon fill="white" stroke="black" points="436,-38.5 436,-57.5 514,-57.5 514,-38.5 436,-38.5"/>
<text text-anchor="middle" x="475" y="-45.5" font-family="Helvetica,sans-Serif" font-size="10.00">Sleepy_kernel</text>
</a>
</g>
</g>
<!-- Node3&#45;&gt;Node15 -->
<g id="edge15" class="edge"><title>Node3&#45;&gt;Node15</title>
<path fill="none" stroke="midnightblue" d="M350.164,-149.45C362.249,-126.829 385.591,-88.9084 416,-67 421.932,-62.7263 428.88,-59.3761 435.865,-56.762"/>
<polygon fill="midnightblue" stroke="midnightblue" points="347.028,-147.895 345.552,-158.386 353.249,-151.105 347.028,-147.895"/>
</g>
<!-- Node16 -->
<g id="node16" class="node"><title>Node16</title>
<g id="a_node16"><a xlink:href="structTest__socket.html" target="_top" xlink:title="Test_socket">
<polygon fill="white" stroke="black" points="439.5,-0.5 439.5,-19.5 510.5,-19.5 510.5,-0.5 439.5,-0.5"/>
<text text-anchor="middle" x="475" y="-7.5" font-family="Helvetica,sans-Serif" font-size="10.00">Test_socket</text>
</a>
</g>
</g>
<!-- Node3&#45;&gt;Node16 -->
<g id="edge16" class="edge"><title>Node3&#45;&gt;Node16</title>
<path fill="none" stroke="midnightblue" d="M344.87,-148.467C353.134,-116.424 375.162,-54.1383 416,-20 422.666,-14.4273 431.013,-10.4752 439.279,-7.9731"/>
<polygon fill="midnightblue" stroke="midnightblue" points="341.406,-147.907 342.513,-158.444 348.219,-149.516 341.406,-147.907"/>
</g>
<!-- Node3&#45;&gt;Node16 -->
<g id="edge17" class="edge"><title>Node3&#45;&gt;Node16</title>
<path fill="none" stroke="midnightblue" d="M348.392,-148.536C358.613,-120.073 379.996,-68.0975 416,-38 427.707,-28.2138 444.595,-23.4254 457.131,-19.5068"/>
<polygon fill="midnightblue" stroke="midnightblue" points="345.01,-147.604 345.014,-158.199 351.618,-149.914 345.01,-147.604"/>
</g>
<!-- Node10 -->
<g id="node10" class="node"><title>Node10</title>
<g id="a_node10"><a xlink:href="structKernel__that__reads__more__than__writes.html" target="_top" xlink:title="Kernel_that_reads_more\l_than_writes">
<polygon fill="white" stroke="black" points="570,-221 570,-251 692,-251 692,-221 570,-221"/>
<text text-anchor="start" x="578" y="-239" font-family="Helvetica,sans-Serif" font-size="10.00">Kernel_that_reads_more</text>
<text text-anchor="middle" x="631" y="-228" font-family="Helvetica,sans-Serif" font-size="10.00">_than_writes</text>
</a>
</g>
</g>
<!-- Node9&#45;&gt;Node10 -->
<g id="edge9" class="edge"><title>Node9&#45;&gt;Node10</title>
<path fill="none" stroke="midnightblue" d="M520.796,-218.981C536.115,-221.369 553.508,-224.079 569.838,-226.624"/>
<polygon fill="midnightblue" stroke="midnightblue" points="520.98,-215.468 510.561,-217.386 519.902,-222.384 520.98,-215.468"/>
</g>
<!-- Node11 -->
<g id="node11" class="node"><title>Node11</title>
<g id="a_node11"><a xlink:href="structKernel__that__writes__more__than__reads.html" target="_top" xlink:title="Kernel_that_writes\l_more_than_reads">
<polygon fill="white" stroke="black" points="582,-172 582,-202 680,-202 680,-172 582,-172"/>
<text text-anchor="start" x="590" y="-190" font-family="Helvetica,sans-Serif" font-size="10.00">Kernel_that_writes</text>
<text text-anchor="middle" x="631" y="-179" font-family="Helvetica,sans-Serif" font-size="10.00">_more_than_reads</text>
</a>
</g>
</g>
<!-- Node9&#45;&gt;Node11 -->
<g id="edge10" class="edge"><title>Node9&#45;&gt;Node11</title>
<path fill="none" stroke="midnightblue" d="M520.557,-204.767C539.757,-201.65 562.249,-197.998 581.834,-194.819"/>
<polygon fill="midnightblue" stroke="midnightblue" points="519.871,-201.332 510.561,-206.39 520.992,-208.242 519.871,-201.332"/>
</g>
</g>
</svg>
