<?xml version="1.0" encoding="UTF-8" standalone="no"?>
<!DOCTYPE svg PUBLIC "-//W3C//DTD SVG 1.1//EN"
 "http://www.w3.org/Graphics/SVG/1.1/DTD/svg11.dtd">
<!-- Generated by graphviz version 2.36.0 (20140111.2315)
 -->
<!-- Title: factory::pipeline_base Pages: 1 -->
<svg width="646pt" height="418pt"
 viewBox="0.00 0.00 646.00 418.00" xmlns="http://www.w3.org/2000/svg" xmlns:xlink="http://www.w3.org/1999/xlink">
<g id="graph0" class="graph" transform="scale(1 1) rotate(0) translate(4 414)">
<title>factory::pipeline_base</title>
<polygon fill="white" stroke="none" points="-4,4 -4,-414 642,-414 642,4 -4,4"/>
<!-- Node1 -->
<g id="node1" class="node"><title>Node1</title>
<polygon fill="#bfbfbf" stroke="black" points="0,-142.5 0,-161.5 112,-161.5 112,-142.5 0,-142.5"/>
<text text-anchor="middle" x="56" y="-149.5" font-family="Helvetica,sans-Serif" font-size="10.00">factory::pipeline_base</text>
</g>
<!-- Node2 -->
<g id="node2" class="node"><title>Node2</title>
<g id="a_node2"><a xlink:href="classfactory_1_1basic__pipeline.html" target="_top" xlink:title="factory::basic_pipeline\&lt; T \&gt;">
<polygon fill="white" stroke="black" points="152,-346.5 152,-365.5 290,-365.5 290,-346.5 152,-346.5"/>
<text text-anchor="middle" x="221" y="-353.5" font-family="Helvetica,sans-Serif" font-size="10.00">factory::basic_pipeline&lt; T &gt;</text>
</a>
</g>
</g>
<!-- Node1&#45;&gt;Node2 -->
<g id="edge1" class="edge"><title>Node1&#45;&gt;Node2</title>
<path fill="none" stroke="midnightblue" d="M62.8442,-171.778C74.0442,-206.6 101.624,-279.295 148,-323 159.208,-333.562 174.39,-341.199 187.924,-346.448"/>
<polygon fill="midnightblue" stroke="midnightblue" points="66.0828,-170.404 59.7803,-161.888 59.3963,-172.476 66.0828,-170.404"/>
</g>
<!-- Node5 -->
<g id="node5" class="node"><title>Node5</title>
<g id="a_node5"><a xlink:href="structfactory_1_1Buffered__pipeline.html" target="_top" xlink:title="factory::Buffered_pipeline\l\&lt; T, Router \&gt;">
<polygon fill="white" stroke="black" points="157,-284 157,-314 285,-314 285,-284 157,-284"/>
<text text-anchor="start" x="165" y="-302" font-family="Helvetica,sans-Serif" font-size="10.00">factory::Buffered_pipeline</text>
<text text-anchor="middle" x="221" y="-291" font-family="Helvetica,sans-Serif" font-size="10.00">&lt; T, Router &gt;</text>
</a>
</g>
</g>
<!-- Node1&#45;&gt;Node5 -->
<g id="edge4" class="edge"><title>Node1&#45;&gt;Node5</title>
<path fill="none" stroke="midnightblue" d="M71.8777,-169.339C89.2256,-189.113 119.208,-221.941 148,-247 163.469,-260.464 182.298,-273.973 196.821,-283.847"/>
<polygon fill="midnightblue" stroke="midnightblue" points="74.4596,-166.974 65.2568,-161.724 69.1772,-171.567 74.4596,-166.974"/>
</g>
<!-- Node7 -->
<g id="node7" class="node"><title>Node7</title>
<g id="a_node7"><a xlink:href="classfactory_1_1basic__pipeline.html" target="_top" xlink:title="factory::basic_pipeline\l\&lt; T, Kernels, Traits,\l Threads, Mutex, Lock,\l Semaphore \&gt;">
<polygon fill="white" stroke="black" points="162,-186 162,-238 280,-238 280,-186 162,-186"/>
<text text-anchor="start" x="170" y="-226" font-family="Helvetica,sans-Serif" font-size="10.00">factory::basic_pipeline</text>
<text text-anchor="start" x="170" y="-215" font-family="Helvetica,sans-Serif" font-size="10.00">&lt; T, Kernels, Traits,</text>
<text text-anchor="start" x="170" y="-204" font-family="Helvetica,sans-Serif" font-size="10.00"> Threads, Mutex, Lock,</text>
<text text-anchor="middle" x="221" y="-193" font-family="Helvetica,sans-Serif" font-size="10.00"> Semaphore &gt;</text>
</a>
</g>
</g>
<!-- Node1&#45;&gt;Node7 -->
<g id="edge6" class="edge"><title>Node1&#45;&gt;Node7</title>
<path fill="none" stroke="midnightblue" d="M92.2986,-164.993C112.601,-172.467 138.616,-182.043 161.862,-190.599"/>
<polygon fill="midnightblue" stroke="midnightblue" points="93.4213,-161.677 82.8278,-161.507 91.0032,-168.246 93.4213,-161.677"/>
</g>
<!-- Node19 -->
<g id="node19" class="node"><title>Node19</title>
<g id="a_node19"><a xlink:href="structfactory_1_1Buffered__pipeline.html" target="_top" xlink:title="factory::Buffered_pipeline\l\&lt; T, Router, Kernels, Traits \&gt;">
<polygon fill="white" stroke="black" points="148,-137 148,-167 294,-167 294,-137 148,-137"/>
<text text-anchor="start" x="156" y="-155" font-family="Helvetica,sans-Serif" font-size="10.00">factory::Buffered_pipeline</text>
<text text-anchor="middle" x="221" y="-144" font-family="Helvetica,sans-Serif" font-size="10.00">&lt; T, Router, Kernels, Traits &gt;</text>
</a>
</g>
</g>
<!-- Node1&#45;&gt;Node19 -->
<g id="edge18" class="edge"><title>Node1&#45;&gt;Node19</title>
<path fill="none" stroke="midnightblue" d="M122.285,-152C130.684,-152 139.322,-152 147.824,-152"/>
<polygon fill="midnightblue" stroke="midnightblue" points="122.184,-148.5 112.184,-152 122.184,-155.5 122.184,-148.5"/>
</g>
<!-- Node20 -->
<g id="node20" class="node"><title>Node20</title>
<g id="a_node20"><a xlink:href="classfactory_1_1Factory.html" target="_top" xlink:title="factory::Factory\&lt; T \&gt;">
<polygon fill="white" stroke="black" points="166,-98.5 166,-117.5 276,-117.5 276,-98.5 166,-98.5"/>
<text text-anchor="middle" x="221" y="-105.5" font-family="Helvetica,sans-Serif" font-size="10.00">factory::Factory&lt; T &gt;</text>
</a>
</g>
</g>
<!-- Node1&#45;&gt;Node20 -->
<g id="edge19" class="edge"><title>Node1&#45;&gt;Node20</title>
<path fill="none" stroke="midnightblue" d="M102.028,-139.845C128.111,-132.805 160.472,-124.069 184.7,-117.529"/>
<polygon fill="midnightblue" stroke="midnightblue" points="101.111,-136.467 92.3686,-142.453 102.935,-143.226 101.111,-136.467"/>
</g>
<!-- Node21 -->
<g id="node21" class="node"><title>Node21</title>
<g id="a_node21"><a xlink:href="classfactory_1_1Multi__pipeline.html" target="_top" xlink:title="factory::Multi_pipeline\&lt; T \&gt;">
<polygon fill="white" stroke="black" points="153,-60.5 153,-79.5 289,-79.5 289,-60.5 153,-60.5"/>
<text text-anchor="middle" x="221" y="-67.5" font-family="Helvetica,sans-Serif" font-size="10.00">factory::Multi_pipeline&lt; T &gt;</text>
</a>
</g>
</g>
<!-- Node1&#45;&gt;Node21 -->
<g id="edge20" class="edge"><title>Node1&#45;&gt;Node21</title>
<path fill="none" stroke="midnightblue" d="M75.7922,-136.053C93.4073,-121.848 121.004,-101.439 148,-89 156.219,-85.2129 165.327,-82.0763 174.222,-79.5176"/>
<polygon fill="midnightblue" stroke="midnightblue" points="73.494,-133.412 67.993,-142.466 77.94,-138.818 73.494,-133.412"/>
</g>
<!-- Node22 -->
<g id="node22" class="node"><title>Node22</title>
<g id="a_node22"><a xlink:href="structfactory_1_1remote__client.html" target="_top" xlink:title="factory::remote_client\l\&lt; T, Socket, Router, Kernels,\l Traits \&gt;">
<polygon fill="white" stroke="black" points="148,-0.5 148,-41.5 294,-41.5 294,-0.5 148,-0.5"/>
<text text-anchor="start" x="156" y="-29.5" font-family="Helvetica,sans-Serif" font-size="10.00">factory::remote_client</text>
<text text-anchor="start" x="156" y="-18.5" font-family="Helvetica,sans-Serif" font-size="10.00">&lt; T, Socket, Router, Kernels,</text>
<text text-anchor="middle" x="221" y="-7.5" font-family="Helvetica,sans-Serif" font-size="10.00"> Traits &gt;</text>
</a>
</g>
</g>
<!-- Node1&#45;&gt;Node22 -->
<g id="edge21" class="edge"><title>Node1&#45;&gt;Node22</title>
<path fill="none" stroke="midnightblue" d="M69.4009,-133.897C85.3513,-111.77 114.965,-74.3907 148,-51 152.863,-47.5569 158.181,-44.4111 163.654,-41.5622"/>
<polygon fill="midnightblue" stroke="midnightblue" points="66.3347,-132.172 63.4314,-142.362 72.0551,-136.207 66.3347,-132.172"/>
</g>
<!-- Node3 -->
<g id="node3" class="node"><title>Node3</title>
<g id="a_node3"><a xlink:href="classfactory_1_1parallel__pipeline.html" target="_top" xlink:title="factory::parallel_pipeline\&lt; T \&gt;">
<polygon fill="white" stroke="black" points="330,-390.5 330,-409.5 476,-409.5 476,-390.5 330,-390.5"/>
<text text-anchor="middle" x="403" y="-397.5" font-family="Helvetica,sans-Serif" font-size="10.00">factory::parallel_pipeline&lt; T &gt;</text>
</a>
</g>
</g>
<!-- Node2&#45;&gt;Node3 -->
<g id="edge2" class="edge"><title>Node2&#45;&gt;Node3</title>
<path fill="none" stroke="midnightblue" d="M270.964,-367.969C299.897,-375.041 336.028,-383.874 363.019,-390.471"/>
<polygon fill="midnightblue" stroke="midnightblue" points="271.602,-364.522 261.057,-365.547 269.94,-371.322 271.602,-364.522"/>
</g>
<!-- Node4 -->
<g id="node4" class="node"><title>Node4</title>
<g id="a_node4"><a xlink:href="structfactory_1_1io__pipeline.html" target="_top" xlink:title="factory::io_pipeline\&lt; T \&gt;">
<polygon fill="white" stroke="black" points="514,-390.5 514,-409.5 636,-409.5 636,-390.5 514,-390.5"/>
<text text-anchor="middle" x="575" y="-397.5" font-family="Helvetica,sans-Serif" font-size="10.00">factory::io_pipeline&lt; T &gt;</text>
</a>
</g>
</g>
<!-- Node3&#45;&gt;Node4 -->
<g id="edge3" class="edge"><title>Node3&#45;&gt;Node4</title>
<path fill="none" stroke="midnightblue" d="M486.179,-400C495.509,-400 504.883,-400 513.853,-400"/>
<polygon fill="midnightblue" stroke="midnightblue" points="486.095,-396.5 476.095,-400 486.095,-403.5 486.095,-396.5"/>
</g>
<!-- Node6 -->
<g id="node6" class="node"><title>Node6</title>
<g id="a_node6"><a xlink:href="structfactory_1_1process__handler.html" target="_top" xlink:title="factory::process_handler\l\&lt; T, Router \&gt;">
<polygon fill="white" stroke="black" points="341,-341 341,-371 465,-371 465,-341 341,-341"/>
<text text-anchor="start" x="349" y="-359" font-family="Helvetica,sans-Serif" font-size="10.00">factory::process_handler</text>
<text text-anchor="middle" x="403" y="-348" font-family="Helvetica,sans-Serif" font-size="10.00">&lt; T, Router &gt;</text>
</a>
</g>
</g>
<!-- Node5&#45;&gt;Node6 -->
<g id="edge5" class="edge"><title>Node5&#45;&gt;Node6</title>
<path fill="none" stroke="midnightblue" d="M279.51,-317.211C303.636,-324.852 331.361,-333.631 354.325,-340.903"/>
<polygon fill="midnightblue" stroke="midnightblue" points="280.354,-313.808 269.764,-314.125 278.241,-320.481 280.354,-313.808"/>
</g>
<!-- Node8 -->
<g id="node8" class="node"><title>Node8</title>
<g id="a_node8"><a xlink:href="structfactory_1_1basic__socket__pipeline.html" target="_top" xlink:title="basic_socket_pipeline\l\&lt; T, process_handler\l\&lt; T, basic_router\&lt; T \&gt; \&gt; \&gt;">
<polygon fill="white" stroke="black" points="336.5,-281.5 336.5,-322.5 469.5,-322.5 469.5,-281.5 336.5,-281.5"/>
<text text-anchor="start" x="344.5" y="-310.5" font-family="Helvetica,sans-Serif" font-size="10.00">basic_socket_pipeline</text>
<text text-anchor="start" x="344.5" y="-299.5" font-family="Helvetica,sans-Serif" font-size="10.00">&lt; T, process_handler</text>
<text text-anchor="middle" x="403" y="-288.5" font-family="Helvetica,sans-Serif" font-size="10.00">&lt; T, basic_router&lt; T &gt; &gt; &gt;</text>
</a>
</g>
</g>
<!-- Node7&#45;&gt;Node8 -->
<g id="edge7" class="edge"><title>Node7&#45;&gt;Node8</title>
<path fill="none" stroke="midnightblue" d="M276.675,-243.157C293.597,-252.45 312.416,-262.435 330,-271 337.219,-274.516 344.934,-278.058 352.534,-281.428"/>
<polygon fill="midnightblue" stroke="midnightblue" points="277.934,-239.854 267.489,-238.079 274.547,-245.98 277.934,-239.854"/>
</g>
<!-- Node10 -->
<g id="node10" class="node"><title>Node10</title>
<g id="a_node10"><a xlink:href="structfactory_1_1basic__socket__pipeline.html" target="_top" xlink:title="basic_socket_pipeline\l\&lt; T, process_handler\l\&lt; T, Router \&gt; \&gt;">
<polygon fill="white" stroke="black" points="346.5,-221.5 346.5,-262.5 459.5,-262.5 459.5,-221.5 346.5,-221.5"/>
<text text-anchor="start" x="354.5" y="-250.5" font-family="Helvetica,sans-Serif" font-size="10.00">basic_socket_pipeline</text>
<text text-anchor="start" x="354.5" y="-239.5" font-family="Helvetica,sans-Serif" font-size="10.00">&lt; T, process_handler</text>
<text text-anchor="middle" x="403" y="-228.5" font-family="Helvetica,sans-Serif" font-size="10.00">&lt; T, Router &gt; &gt;</text>
</a>
</g>
</g>
<!-- Node7&#45;&gt;Node10 -->
<g id="edge9" class="edge"><title>Node7&#45;&gt;Node10</title>
<path fill="none" stroke="midnightblue" d="M290.527,-223.421C308.957,-226.493 328.662,-229.777 346.301,-232.717"/>
<polygon fill="midnightblue" stroke="midnightblue" points="290.88,-219.932 280.441,-221.74 289.729,-226.837 290.88,-219.932"/>
</g>
<!-- Node13 -->
<g id="node13" class="node"><title>Node13</title>
<g id="a_node13"><a xlink:href="structfactory_1_1basic__socket__pipeline.html" target="_top" xlink:title="basic_socket_pipeline\l\&lt; T, remote_client\&lt; T,\l Socket, Router \&gt; \&gt;">
<polygon fill="white" stroke="black" points="346,-161.5 346,-202.5 460,-202.5 460,-161.5 346,-161.5"/>
<text text-anchor="start" x="354" y="-190.5" font-family="Helvetica,sans-Serif" font-size="10.00">basic_socket_pipeline</text>
<text text-anchor="start" x="354" y="-179.5" font-family="Helvetica,sans-Serif" font-size="10.00">&lt; T, remote_client&lt; T,</text>
<text text-anchor="middle" x="403" y="-168.5" font-family="Helvetica,sans-Serif" font-size="10.00"> Socket, Router &gt; &gt;</text>
</a>
</g>
</g>
<!-- Node7&#45;&gt;Node13 -->
<g id="edge12" class="edge"><title>Node7&#45;&gt;Node13</title>
<path fill="none" stroke="midnightblue" d="M290.477,-200.587C308.815,-197.531 328.42,-194.263 345.996,-191.334"/>
<polygon fill="midnightblue" stroke="midnightblue" points="289.729,-197.163 280.441,-202.26 290.88,-204.068 289.729,-197.163"/>
</g>
<!-- Node15 -->
<g id="node15" class="node"><title>Node15</title>
<g id="a_node15"><a xlink:href="structfactory_1_1basic__socket__pipeline.html" target="_top" xlink:title="basic_socket_pipeline\l\&lt; T, remote_client\&lt; T,\l sys::socket, basic_router\l\&lt; T \&gt; \&gt; \&gt;">
<polygon fill="white" stroke="black" points="338,-90 338,-142 468,-142 468,-90 338,-90"/>
<text text-anchor="start" x="346" y="-130" font-family="Helvetica,sans-Serif" font-size="10.00">basic_socket_pipeline</text>
<text text-anchor="start" x="346" y="-119" font-family="Helvetica,sans-Serif" font-size="10.00">&lt; T, remote_client&lt; T,</text>
<text text-anchor="start" x="346" y="-108" font-family="Helvetica,sans-Serif" font-size="10.00"> sys::socket, basic_router</text>
<text text-anchor="middle" x="403" y="-97" font-family="Helvetica,sans-Serif" font-size="10.00">&lt; T &gt; &gt; &gt;</text>
</a>
</g>
</g>
<!-- Node7&#45;&gt;Node15 -->
<g id="edge14" class="edge"><title>Node7&#45;&gt;Node15</title>
<path fill="none" stroke="midnightblue" d="M284.788,-181.194C287.922,-179.473 291.008,-177.736 294,-176 310.632,-166.348 313.368,-161.652 330,-152 335.802,-148.633 341.959,-145.263 348.135,-142.009"/>
<polygon fill="midnightblue" stroke="midnightblue" points="283.016,-178.173 275.865,-185.991 286.33,-184.339 283.016,-178.173"/>
</g>
<!-- Node17 -->
<g id="node17" class="node"><title>Node17</title>
<g id="a_node17"><a xlink:href="structfactory_1_1basic__socket__pipeline.html" target="_top" xlink:title="factory::basic_socket\l_pipeline\&lt; T, Handler \&gt;">
<polygon fill="white" stroke="black" points="343.5,-41 343.5,-71 462.5,-71 462.5,-41 343.5,-41"/>
<text text-anchor="start" x="351.5" y="-59" font-family="Helvetica,sans-Serif" font-size="10.00">factory::basic_socket</text>
<text text-anchor="middle" x="403" y="-48" font-family="Helvetica,sans-Serif" font-size="10.00">_pipeline&lt; T, Handler &gt;</text>
</a>
</g>
</g>
<!-- Node7&#45;&gt;Node17 -->
<g id="edge16" class="edge"><title>Node7&#45;&gt;Node17</title>
<path fill="none" stroke="midnightblue" d="M288.361,-181.587C290.352,-179.815 292.241,-177.954 294,-176 324.488,-142.134 297.188,-111.62 330,-80 333.89,-76.2514 338.381,-73.0879 343.18,-70.4183"/>
<polygon fill="midnightblue" stroke="midnightblue" points="285.93,-179.046 280.238,-187.981 290.26,-184.546 285.93,-179.046"/>
</g>
<!-- Node18 -->
<g id="node18" class="node"><title>Node18</title>
<g id="a_node18"><a xlink:href="structfactory_1_1timer__pipeline.html" target="_top" xlink:title="factory::timer_pipeline\&lt; T \&gt;">
<polygon fill="white" stroke="black" points="334.5,-2.5 334.5,-21.5 471.5,-21.5 471.5,-2.5 334.5,-2.5"/>
<text text-anchor="middle" x="403" y="-9.5" font-family="Helvetica,sans-Serif" font-size="10.00">factory::timer_pipeline&lt; T &gt;</text>
</a>
</g>
</g>
<!-- Node7&#45;&gt;Node18 -->
<g id="edge17" class="edge"><title>Node7&#45;&gt;Node18</title>
<path fill="none" stroke="midnightblue" d="M287.959,-182.505C290.129,-180.467 292.157,-178.301 294,-176 335.507,-124.171 283.393,-78.2953 330,-31 333.811,-27.1326 338.31,-24.0227 343.168,-21.526"/>
<polygon fill="midnightblue" stroke="midnightblue" points="285.612,-179.904 280.096,-188.95 290.049,-185.318 285.612,-179.904"/>
</g>
<!-- Node9 -->
<g id="node9" class="node"><title>Node9</title>
<g id="a_node9"><a xlink:href="structfactory_1_1process__pipeline.html" target="_top" xlink:title="factory::process_pipeline\l\&lt; T, basic_router\&lt; T \&gt; \&gt;">
<polygon fill="white" stroke="black" points="512.5,-308 512.5,-338 637.5,-338 637.5,-308 512.5,-308"/>
<text text-anchor="start" x="520.5" y="-326" font-family="Helvetica,sans-Serif" font-size="10.00">factory::process_pipeline</text>
<text text-anchor="middle" x="575" y="-315" font-family="Helvetica,sans-Serif" font-size="10.00">&lt; T, basic_router&lt; T &gt; &gt;</text>
</a>
</g>
</g>
<!-- Node8&#45;&gt;Node9 -->
<g id="edge8" class="edge"><title>Node8&#45;&gt;Node9</title>
<path fill="none" stroke="midnightblue" d="M479.681,-311.349C490.608,-312.699 501.742,-314.074 512.35,-315.384"/>
<polygon fill="midnightblue" stroke="midnightblue" points="480.08,-307.872 469.726,-310.119 479.222,-314.819 480.08,-307.872"/>
</g>
<!-- Node11 -->
<g id="node11" class="node"><title>Node11</title>
<g id="a_node11"><a xlink:href="structfactory_1_1child__process__pipeline.html" target="_top" xlink:title="factory::child_process\l_pipeline\&lt; T, Router \&gt;">
<polygon fill="white" stroke="black" points="518,-259 518,-289 632,-289 632,-259 518,-259"/>
<text text-anchor="start" x="526" y="-277" font-family="Helvetica,sans-Serif" font-size="10.00">factory::child_process</text>
<text text-anchor="middle" x="575" y="-266" font-family="Helvetica,sans-Serif" font-size="10.00">_pipeline&lt; T, Router &gt;</text>
</a>
</g>
</g>
<!-- Node10&#45;&gt;Node11 -->
<g id="edge10" class="edge"><title>Node10&#45;&gt;Node11</title>
<path fill="none" stroke="midnightblue" d="M469.923,-254.409C485.776,-257.393 502.563,-260.553 517.92,-263.444"/>
<polygon fill="midnightblue" stroke="midnightblue" points="470.139,-250.888 459.664,-252.478 468.844,-257.768 470.139,-250.888"/>
</g>
<!-- Node12 -->
<g id="node12" class="node"><title>Node12</title>
<g id="a_node12"><a xlink:href="structfactory_1_1process__pipeline.html" target="_top" xlink:title="factory::process_pipeline\l\&lt; T, Router \&gt;">
<polygon fill="white" stroke="black" points="512.5,-210 512.5,-240 637.5,-240 637.5,-210 512.5,-210"/>
<text text-anchor="start" x="520.5" y="-228" font-family="Helvetica,sans-Serif" font-size="10.00">factory::process_pipeline</text>
<text text-anchor="middle" x="575" y="-217" font-family="Helvetica,sans-Serif" font-size="10.00">&lt; T, Router &gt;</text>
</a>
</g>
</g>
<!-- Node10&#45;&gt;Node12 -->
<g id="edge11" class="edge"><title>Node10&#45;&gt;Node12</title>
<path fill="none" stroke="midnightblue" d="M469.714,-235.429C483.727,-234.027 498.478,-232.552 512.333,-231.167"/>
<polygon fill="midnightblue" stroke="midnightblue" points="469.266,-231.956 459.664,-236.434 469.963,-238.921 469.266,-231.956"/>
</g>
<!-- Node14 -->
<g id="node14" class="node"><title>Node14</title>
<g id="a_node14"><a xlink:href="structfactory_1_1socket__pipeline.html" target="_top" xlink:title="factory::socket_pipeline\l\&lt; T, Socket, Router \&gt;">
<polygon fill="white" stroke="black" points="515,-161 515,-191 635,-191 635,-161 515,-161"/>
<text text-anchor="start" x="523" y="-179" font-family="Helvetica,sans-Serif" font-size="10.00">factory::socket_pipeline</text>
<text text-anchor="middle" x="575" y="-168" font-family="Helvetica,sans-Serif" font-size="10.00">&lt; T, Socket, Router &gt;</text>
</a>
</g>
</g>
<!-- Node13&#45;&gt;Node14 -->
<g id="edge13" class="edge"><title>Node13&#45;&gt;Node14</title>
<path fill="none" stroke="midnightblue" d="M470.155,-179.665C484.842,-179.147 500.32,-178.6 514.713,-178.092"/>
<polygon fill="midnightblue" stroke="midnightblue" points="470.006,-176.168 460.135,-180.019 470.253,-183.164 470.006,-176.168"/>
</g>
<!-- Node16 -->
<g id="node16" class="node"><title>Node16</title>
<g id="a_node16"><a xlink:href="structfactory_1_1socket__pipeline.html" target="_top" xlink:title="factory::socket_pipeline\l\&lt; T, sys::socket, basic\l_router\&lt; T \&gt; \&gt;">
<polygon fill="white" stroke="black" points="515,-95.5 515,-136.5 635,-136.5 635,-95.5 515,-95.5"/>
<text text-anchor="start" x="523" y="-124.5" font-family="Helvetica,sans-Serif" font-size="10.00">factory::socket_pipeline</text>
<text text-anchor="start" x="523" y="-113.5" font-family="Helvetica,sans-Serif" font-size="10.00">&lt; T, sys::socket, basic</text>
<text text-anchor="middle" x="575" y="-102.5" font-family="Helvetica,sans-Serif" font-size="10.00">_router&lt; T &gt; &gt;</text>
</a>
</g>
</g>
<!-- Node15&#45;&gt;Node16 -->
<g id="edge15" class="edge"><title>Node15&#45;&gt;Node16</title>
<path fill="none" stroke="midnightblue" d="M478.442,-116C490.662,-116 503.178,-116 514.958,-116"/>
<polygon fill="midnightblue" stroke="midnightblue" points="478.27,-112.5 468.27,-116 478.27,-119.5 478.27,-112.5"/>
</g>
</g>
</svg>
