<?xml version="1.0" encoding="UTF-8" standalone="no"?>
<!DOCTYPE svg PUBLIC "-//W3C//DTD SVG 1.1//EN"
 "http://www.w3.org/Graphics/SVG/1.1/DTD/svg11.dtd">
<!-- Generated by graphviz version 2.36.0 (20140111.2315)
 -->
<!-- Title: factory::Timer_server&lt; T &gt; Pages: 1 -->
<svg width="183pt" height="154pt"
 viewBox="0.00 0.00 183.00 154.00" xmlns="http://www.w3.org/2000/svg" xmlns:xlink="http://www.w3.org/1999/xlink">
<g id="graph0" class="graph" transform="scale(1 1) rotate(0) translate(4 150)">
<title>factory::Timer_server&lt; T &gt;</title>
<polygon fill="white" stroke="none" points="-4,4 -4,-150 179,-150 179,4 -4,4"/>
<!-- Node1 -->
<g id="node1" class="node"><title>Node1</title>
<polygon fill="#bfbfbf" stroke="black" points="34,-0.5 34,-19.5 168,-19.5 168,-0.5 34,-0.5"/>
<text text-anchor="middle" x="101" y="-7.5" font-family="Helvetica,sans-Serif" font-size="10.00">factory::Timer_server&lt; T &gt;</text>
</g>
<!-- Node2 -->
<g id="node2" class="node"><title>Node2</title>
<g id="a_node2"><a xlink:href="structfactory_1_1Server__with__pool.html" target="_top" xlink:title="Timer_server_base\&lt; T \&gt;">
<polygon fill="white" stroke="black" points="39,-58.5 39,-77.5 163,-77.5 163,-58.5 39,-58.5"/>
<text text-anchor="middle" x="101" y="-65.5" font-family="Helvetica,sans-Serif" font-size="10.00">Timer_server_base&lt; T &gt;</text>
</a>
</g>
</g>
<!-- Node2&#45;&gt;Node1 -->
<g id="edge1" class="edge"><title>Node2&#45;&gt;Node1</title>
<path fill="none" stroke="midnightblue" d="M101,-47.953C101,-38.2875 101,-27.0312 101,-19.5052"/>
<polygon fill="midnightblue" stroke="midnightblue" points="97.5001,-48.25 101,-58.25 104.5,-48.25 97.5001,-48.25"/>
</g>
<!-- Node3 -->
<g id="node3" class="node"><title>Node3</title>
<g id="a_node3"><a xlink:href="structfactory_1_1Server__base.html" target="_top" xlink:title="factory::Server_base">
<polygon fill="white" stroke="black" points="-0.5,-126.5 -0.5,-145.5 106.5,-145.5 106.5,-126.5 -0.5,-126.5"/>
<text text-anchor="middle" x="53" y="-133.5" font-family="Helvetica,sans-Serif" font-size="10.00">factory::Server_base</text>
</a>
</g>
</g>
<!-- Node3&#45;&gt;Node2 -->
<g id="edge2" class="edge"><title>Node3&#45;&gt;Node2</title>
<path fill="none" stroke="midnightblue" d="M65.4089,-117.938C74.7368,-105.112 87.1388,-88.0591 94.5701,-77.8411"/>
<polygon fill="midnightblue" stroke="midnightblue" points="62.3263,-116.226 59.2752,-126.372 67.9875,-120.343 62.3263,-116.226"/>
</g>
<!-- Node4 -->
<g id="node4" class="node"><title>Node4</title>
<polygon fill="white" stroke="#bfbfbf" points="125,-126.5 125,-145.5 175,-145.5 175,-126.5 125,-126.5"/>
<text text-anchor="middle" x="150" y="-133.5" font-family="Helvetica,sans-Serif" font-size="10.00">Kernels</text>
</g>
<!-- Node4&#45;&gt;Node2 -->
<g id="edge3" class="edge"><title>Node4&#45;&gt;Node2</title>
<path fill="none" stroke="#9a32cd" stroke-dasharray="5,2" d="M137.609,-118.31C128.057,-105.444 115.224,-88.1583 107.564,-77.8411"/>
<polygon fill="#9a32cd" stroke="#9a32cd" points="134.823,-120.429 143.594,-126.372 140.443,-116.256 134.823,-120.429"/>
<text text-anchor="middle" x="150" y="-99.5" font-family="Helvetica,sans-Serif" font-size="10.00"> _kernels</text>
</g>
</g>
</svg>
