<?xml version="1.0" encoding="UTF-8" standalone="no"?>
<!DOCTYPE svg PUBLIC "-//W3C//DTD SVG 1.1//EN"
 "http://www.w3.org/Graphics/SVG/1.1/DTD/svg11.dtd">
<!-- Generated by graphviz version 2.36.0 (20140111.2315)
 -->
<!-- Title: factory::Server_with_pool&lt; T, Kernels, Threads, Mutex, Lock, Semaphore &gt; Pages: 1 -->
<svg width="183pt" height="118pt"
 viewBox="0.00 0.00 183.00 118.00" xmlns="http://www.w3.org/2000/svg" xmlns:xlink="http://www.w3.org/1999/xlink">
<g id="graph0" class="graph" transform="scale(1 1) rotate(0) translate(4 114)">
<title>factory::Server_with_pool&lt; T, Kernels, Threads, Mutex, Lock, Semaphore &gt;</title>
<polygon fill="white" stroke="none" points="-4,4 -4,-114 179,-114 179,4 -4,4"/>
<!-- Node1 -->
<g id="node1" class="node"><title>Node1</title>
<polygon fill="#bfbfbf" stroke="black" points="32,-0.5 32,-41.5 170,-41.5 170,-0.5 32,-0.5"/>
<text text-anchor="start" x="40" y="-29.5" font-family="Helvetica,sans-Serif" font-size="10.00">factory::Server_with</text>
<text text-anchor="start" x="40" y="-18.5" font-family="Helvetica,sans-Serif" font-size="10.00">_pool&lt; T, Kernels, Threads,</text>
<text text-anchor="middle" x="101" y="-7.5" font-family="Helvetica,sans-Serif" font-size="10.00"> Mutex, Lock, Semaphore &gt;</text>
</g>
<!-- Node2 -->
<g id="node2" class="node"><title>Node2</title>
<g id="a_node2"><a xlink:href="structfactory_1_1Server__base.html" target="_top" xlink:title="factory::Server_base">
<polygon fill="white" stroke="black" points="-0.5,-90.5 -0.5,-109.5 106.5,-109.5 106.5,-90.5 -0.5,-90.5"/>
<text text-anchor="middle" x="53" y="-97.5" font-family="Helvetica,sans-Serif" font-size="10.00">factory::Server_base</text>
</a>
</g>
</g>
<!-- Node2&#45;&gt;Node1 -->
<g id="edge1" class="edge"><title>Node2&#45;&gt;Node1</title>
<path fill="none" stroke="midnightblue" d="M63.6344,-81.9407C71.0368,-70.0659 80.9299,-54.1958 88.6768,-41.7685"/>
<polygon fill="midnightblue" stroke="midnightblue" points="60.6402,-80.1277 58.3202,-90.4655 66.5805,-83.8308 60.6402,-80.1277"/>
</g>
<!-- Node3 -->
<g id="node3" class="node"><title>Node3</title>
<polygon fill="white" stroke="#bfbfbf" points="125,-90.5 125,-109.5 175,-109.5 175,-90.5 125,-90.5"/>
<text text-anchor="middle" x="150" y="-97.5" font-family="Helvetica,sans-Serif" font-size="10.00">Kernels</text>
</g>
<!-- Node3&#45;&gt;Node1 -->
<g id="edge2" class="edge"><title>Node3&#45;&gt;Node1</title>
<path fill="none" stroke="#9a32cd" stroke-dasharray="5,2" d="M139.144,-81.9407C131.587,-70.0659 121.488,-54.1958 113.58,-41.7685"/>
<polygon fill="#9a32cd" stroke="#9a32cd" points="136.247,-83.9079 144.569,-90.4655 142.153,-80.1497 136.247,-83.9079"/>
<text text-anchor="middle" x="153" y="-63.5" font-family="Helvetica,sans-Serif" font-size="10.00"> _kernels</text>
</g>
</g>
</svg>
