<?xml version="1.0" encoding="UTF-8" standalone="no"?>
<!DOCTYPE svg PUBLIC "-//W3C//DTD SVG 1.1//EN"
 "http://www.w3.org/Graphics/SVG/1.1/DTD/svg11.dtd">
<!-- Generated by graphviz version 2.36.0 (20140111.2315)
 -->
<!-- Title: stdx::basic_packetbuf&lt; Ch, Tr &gt; Pages: 1 -->
<svg width="120pt" height="108pt"
 viewBox="0.00 0.00 120.00 108.00" xmlns="http://www.w3.org/2000/svg" xmlns:xlink="http://www.w3.org/1999/xlink">
<g id="graph0" class="graph" transform="scale(1 1) rotate(0) translate(4 104)">
<title>stdx::basic_packetbuf&lt; Ch, Tr &gt;</title>
<polygon fill="white" stroke="none" points="-4,4 -4,-104 116,-104 116,4 -4,4"/>
<!-- Node1 -->
<g id="node1" class="node"><title>Node1</title>
<polygon fill="#bfbfbf" stroke="black" points="-0.5,-1 -0.5,-31 112.5,-31 112.5,-1 -0.5,-1"/>
<text text-anchor="start" x="7.5" y="-19" font-family="Helvetica,sans-Serif" font-size="10.00">stdx::basic_packetbuf</text>
<text text-anchor="middle" x="56" y="-8" font-family="Helvetica,sans-Serif" font-size="10.00">&lt; Ch, Tr &gt;</text>
</g>
<!-- Node2 -->
<g id="node2" class="node"><title>Node2</title>
<polygon fill="white" stroke="#bfbfbf" points="2,-69 2,-99 110,-99 110,-69 2,-69"/>
<text text-anchor="start" x="10" y="-87" font-family="Helvetica,sans-Serif" font-size="10.00">std::basic_streambuf</text>
<text text-anchor="middle" x="56" y="-76" font-family="Helvetica,sans-Serif" font-size="10.00">&lt; Ch, Tr &gt;</text>
</g>
<!-- Node2&#45;&gt;Node1 -->
<g id="edge1" class="edge"><title>Node2&#45;&gt;Node1</title>
<path fill="none" stroke="midnightblue" d="M56,-58.5322C56,-49.3606 56,-39.2449 56,-31.2931"/>
<polygon fill="midnightblue" stroke="midnightblue" points="52.5001,-58.6789 56,-68.679 59.5001,-58.679 52.5001,-58.6789"/>
</g>
</g>
</svg>
