<?xml version="1.0" encoding="UTF-8" standalone="no"?>
<!DOCTYPE svg PUBLIC "-//W3C//DTD SVG 1.1//EN"
 "http://www.w3.org/Graphics/SVG/1.1/DTD/svg11.dtd">
<!-- Generated by graphviz version 2.36.0 (20140111.2315)
 -->
<!-- Title: stdx::basic_packetbuf&lt; Ch, Tr &gt; Pages: 1 -->
<svg width="246pt" height="244pt"
 viewBox="0.00 0.00 246.00 244.00" xmlns="http://www.w3.org/2000/svg" xmlns:xlink="http://www.w3.org/1999/xlink">
<g id="graph0" class="graph" transform="scale(1 1) rotate(0) translate(4 240)">
<title>stdx::basic_packetbuf&lt; Ch, Tr &gt;</title>
<polygon fill="white" stroke="none" points="-4,4 -4,-240 242,-240 242,4 -4,4"/>
<!-- Node1 -->
<g id="node1" class="node"><title>Node1</title>
<polygon fill="#bfbfbf" stroke="black" points="61.5,-137 61.5,-167 174.5,-167 174.5,-137 61.5,-137"/>
<text text-anchor="start" x="69.5" y="-155" font-family="Helvetica,sans-Serif" font-size="10.00">stdx::basic_packetbuf</text>
<text text-anchor="middle" x="118" y="-144" font-family="Helvetica,sans-Serif" font-size="10.00">&lt; Ch, Tr &gt;</text>
</g>
<!-- Node3 -->
<g id="node3" class="node"><title>Node3</title>
<g id="a_node3"><a xlink:href="classsys_1_1basic__fildesbuf.html" target="_top" xlink:title="sys::basic_fildesbuf\l\&lt; Ch, Tr \&gt;">
<polygon fill="white" stroke="black" points="3,-69 3,-99 107,-99 107,-69 3,-69"/>
<text text-anchor="start" x="11" y="-87" font-family="Helvetica,sans-Serif" font-size="10.00">sys::basic_fildesbuf</text>
<text text-anchor="middle" x="55" y="-76" font-family="Helvetica,sans-Serif" font-size="10.00">&lt; Ch, Tr &gt;</text>
</a>
</g>
</g>
<!-- Node1&#45;&gt;Node3 -->
<g id="edge2" class="edge"><title>Node1&#45;&gt;Node3</title>
<path fill="none" stroke="midnightblue" d="M97.185,-129.194C87.7986,-119.36 76.9763,-108.023 68.6434,-99.2931"/>
<polygon fill="midnightblue" stroke="midnightblue" points="94.8934,-131.862 104.33,-136.679 99.9569,-127.029 94.8934,-131.862"/>
</g>
<!-- Node5 -->
<g id="node5" class="node"><title>Node5</title>
<g id="a_node5"><a xlink:href="structsys_1_1basic__shmembuf.html" target="_top" xlink:title="sys::basic_shmembuf\l\&lt; Ch, Tr \&gt;">
<polygon fill="white" stroke="black" points="125.5,-69 125.5,-99 238.5,-99 238.5,-69 125.5,-69"/>
<text text-anchor="start" x="133.5" y="-87" font-family="Helvetica,sans-Serif" font-size="10.00">sys::basic_shmembuf</text>
<text text-anchor="middle" x="182" y="-76" font-family="Helvetica,sans-Serif" font-size="10.00">&lt; Ch, Tr &gt;</text>
</a>
</g>
</g>
<!-- Node1&#45;&gt;Node5 -->
<g id="edge4" class="edge"><title>Node1&#45;&gt;Node5</title>
<path fill="none" stroke="midnightblue" d="M138.863,-129.485C148.463,-119.585 159.591,-108.109 168.14,-99.2931"/>
<polygon fill="midnightblue" stroke="midnightblue" points="136.336,-127.063 131.887,-136.679 141.361,-131.936 136.336,-127.063"/>
</g>
<!-- Node2 -->
<g id="node2" class="node"><title>Node2</title>
<polygon fill="white" stroke="#bfbfbf" points="64,-205 64,-235 172,-235 172,-205 64,-205"/>
<text text-anchor="start" x="72" y="-223" font-family="Helvetica,sans-Serif" font-size="10.00">std::basic_streambuf</text>
<text text-anchor="middle" x="118" y="-212" font-family="Helvetica,sans-Serif" font-size="10.00">&lt; Ch, Tr &gt;</text>
</g>
<!-- Node2&#45;&gt;Node1 -->
<g id="edge1" class="edge"><title>Node2&#45;&gt;Node1</title>
<path fill="none" stroke="midnightblue" d="M118,-194.532C118,-185.361 118,-175.245 118,-167.293"/>
<polygon fill="midnightblue" stroke="midnightblue" points="114.5,-194.679 118,-204.679 121.5,-194.679 114.5,-194.679"/>
</g>
<!-- Node4 -->
<g id="node4" class="node"><title>Node4</title>
<g id="a_node4"><a xlink:href="structfactory_1_1basic__kernelbuf.html" target="_top" xlink:title="basic_kernelbuf\&lt; sys\l::fildesbuf \&gt;">
<polygon fill="white" stroke="black" points="0,-1 0,-31 110,-31 110,-1 0,-1"/>
<text text-anchor="start" x="8" y="-19" font-family="Helvetica,sans-Serif" font-size="10.00">basic_kernelbuf&lt; sys</text>
<text text-anchor="middle" x="55" y="-8" font-family="Helvetica,sans-Serif" font-size="10.00">::fildesbuf &gt;</text>
</a>
</g>
</g>
<!-- Node3&#45;&gt;Node4 -->
<g id="edge3" class="edge"><title>Node3&#45;&gt;Node4</title>
<path fill="none" stroke="midnightblue" d="M55,-58.5322C55,-49.3606 55,-39.2449 55,-31.2931"/>
<polygon fill="midnightblue" stroke="midnightblue" points="51.5001,-58.6789 55,-68.679 58.5001,-58.679 51.5001,-58.6789"/>
</g>
</g>
</svg>
