<?xml version="1.0" encoding="UTF-8" standalone="no"?>
<!DOCTYPE svg PUBLIC "-//W3C//DTD SVG 1.1//EN"
 "http://www.w3.org/Graphics/SVG/1.1/DTD/svg11.dtd">
<!-- Generated by graphviz version 2.38.0 (20140413.2041)
 -->
<!-- Title: factory::Basic_CPU_server&lt; T &gt; Pages: 1 -->
<svg width="184pt" height="174pt"
 viewBox="0.00 0.00 183.50 174.00" xmlns="http://www.w3.org/2000/svg" xmlns:xlink="http://www.w3.org/1999/xlink">
<g id="graph0" class="graph" transform="scale(1 1) rotate(0) translate(4 170)">
<title>factory::Basic_CPU_server&lt; T &gt;</title>
<polygon fill="white" stroke="none" points="-4,4 -4,-170 179.5,-170 179.5,4 -4,4"/>
<!-- Node1 -->
<g id="node1" class="node"><title>Node1</title>
<polygon fill="#bfbfbf" stroke="black" points="49.5,-0.5 49.5,-30.5 153.5,-30.5 153.5,-0.5 49.5,-0.5"/>
<text text-anchor="start" x="57.5" y="-18.5" font-family="Helvetica,sans-Serif" font-size="10.00">factory::Basic_CPU</text>
<text text-anchor="middle" x="101.5" y="-7.5" font-family="Helvetica,sans-Serif" font-size="10.00">_server&lt; T &gt;</text>
</g>
<!-- Node2 -->
<g id="node2" class="node"><title>Node2</title>
<g id="a_node2"><a xlink:href="structfactory_1_1Server__with__pool.html" target="_top" xlink:title="Standard_server_with\l_pool\&lt; T \&gt;">
<polygon fill="white" stroke="black" points="46,-68.5 46,-98.5 157,-98.5 157,-68.5 46,-68.5"/>
<text text-anchor="start" x="54" y="-86.5" font-family="Helvetica,sans-Serif" font-size="10.00">Standard_server_with</text>
<text text-anchor="middle" x="101.5" y="-75.5" font-family="Helvetica,sans-Serif" font-size="10.00">_pool&lt; T &gt;</text>
</a>
</g>
</g>
<!-- Node2&#45;&gt;Node1 -->
<g id="edge1" class="edge"><title>Node2&#45;&gt;Node1</title>
<path fill="none" stroke="midnightblue" d="M101.5,-58.0322C101.5,-48.8606 101.5,-38.7449 101.5,-30.7931"/>
<polygon fill="midnightblue" stroke="midnightblue" points="98.0001,-58.1789 101.5,-68.179 105,-58.179 98.0001,-58.1789"/>
</g>
<!-- Node3 -->
<g id="node3" class="node"><title>Node3</title>
<g id="a_node3"><a xlink:href="structfactory_1_1Server__base.html" target="_top" xlink:title="factory::Server_base">
<polygon fill="white" stroke="black" points="0,-146.5 0,-165.5 107,-165.5 107,-146.5 0,-146.5"/>
<text text-anchor="middle" x="53.5" y="-153.5" font-family="Helvetica,sans-Serif" font-size="10.00">factory::Server_base</text>
</a>
</g>
</g>
<!-- Node3&#45;&gt;Node2 -->
<g id="edge2" class="edge"><title>Node3&#45;&gt;Node2</title>
<path fill="none" stroke="midnightblue" d="M65.048,-138.039C73.2664,-125.968 84.1792,-109.94 91.9162,-98.5762"/>
<polygon fill="midnightblue" stroke="midnightblue" points="62.1206,-136.12 59.3857,-146.355 67.9068,-140.059 62.1206,-136.12"/>
</g>
<!-- Node4 -->
<g id="node4" class="node"><title>Node4</title>
<polygon fill="white" stroke="#bfbfbf" points="125.5,-146.5 125.5,-165.5 175.5,-165.5 175.5,-146.5 125.5,-146.5"/>
<text text-anchor="middle" x="150.5" y="-153.5" font-family="Helvetica,sans-Serif" font-size="10.00">Kernels</text>
</g>
<!-- Node4&#45;&gt;Node2 -->
<g id="edge3" class="edge"><title>Node4&#45;&gt;Node2</title>
<path fill="none" stroke="#9a32cd" stroke-dasharray="5,2" d="M138.711,-138.039C130.322,-125.968 119.182,-109.94 111.283,-98.5762"/>
<polygon fill="#9a32cd" stroke="#9a32cd" points="135.91,-140.141 144.492,-146.355 141.658,-136.146 135.91,-140.141"/>
<text text-anchor="middle" x="150.5" y="-120" font-family="Helvetica,sans-Serif" font-size="10.00"> _kernels</text>
</g>
</g>
</svg>
