<?xml version="1.0" encoding="UTF-8" standalone="no"?>
<!DOCTYPE svg PUBLIC "-//W3C//DTD SVG 1.1//EN"
 "http://www.w3.org/Graphics/SVG/1.1/DTD/svg11.dtd">
<!-- Generated by graphviz version 2.38.0 (20140413.2041)
 -->
<!-- Title: Good_kernel Pages: 1 -->
<svg width="256pt" height="263pt"
 viewBox="0.00 0.00 255.50 263.00" xmlns="http://www.w3.org/2000/svg" xmlns:xlink="http://www.w3.org/1999/xlink">
<g id="graph0" class="graph" transform="scale(1 1) rotate(0) translate(4 259)">
<title>Good_kernel</title>
<polygon fill="white" stroke="none" points="-4,4 -4,-259 251.5,-259 251.5,4 -4,4"/>
<!-- Node1 -->
<g id="node1" class="node"><title>Node1</title>
<polygon fill="#bfbfbf" stroke="black" points="89.5,-67.5 89.5,-86.5 160.5,-86.5 160.5,-67.5 89.5,-67.5"/>
<text text-anchor="middle" x="125" y="-74.5" font-family="Helvetica,sans-Serif" font-size="10.00">Good_kernel</text>
</g>
<!-- Node6 -->
<g id="node6" class="node"><title>Node6</title>
<g id="a_node6"><a xlink:href="structKernel__that__reads__more__than__writes.html" target="_top" xlink:title="Kernel_that_reads_more\l_than_writes">
<polygon fill="white" stroke="black" points="0,-0.5 0,-30.5 122,-30.5 122,-0.5 0,-0.5"/>
<text text-anchor="start" x="8" y="-18.5" font-family="Helvetica,sans-Serif" font-size="10.00">Kernel_that_reads_more</text>
<text text-anchor="middle" x="61" y="-7.5" font-family="Helvetica,sans-Serif" font-size="10.00">_than_writes</text>
</a>
</g>
</g>
<!-- Node1&#45;&gt;Node6 -->
<g id="edge5" class="edge"><title>Node1&#45;&gt;Node6</title>
<path fill="none" stroke="midnightblue" d="M108.485,-60.6459C98.481,-51.3456 85.8169,-39.572 76.0835,-30.523"/>
<polygon fill="midnightblue" stroke="midnightblue" points="106.123,-63.2295 115.83,-67.4751 110.89,-58.1028 106.123,-63.2295"/>
</g>
<!-- Node7 -->
<g id="node7" class="node"><title>Node7</title>
<g id="a_node7"><a xlink:href="structKernel__that__writes__more__than__reads.html" target="_top" xlink:title="Kernel_that_writes\l_more_than_reads">
<polygon fill="white" stroke="black" points="140,-0.5 140,-30.5 238,-30.5 238,-0.5 140,-0.5"/>
<text text-anchor="start" x="148" y="-18.5" font-family="Helvetica,sans-Serif" font-size="10.00">Kernel_that_writes</text>
<text text-anchor="middle" x="189" y="-7.5" font-family="Helvetica,sans-Serif" font-size="10.00">_more_than_reads</text>
</a>
</g>
</g>
<!-- Node1&#45;&gt;Node7 -->
<g id="edge6" class="edge"><title>Node1&#45;&gt;Node7</title>
<path fill="none" stroke="midnightblue" d="M141.515,-60.6459C151.519,-51.3456 164.183,-39.572 173.916,-30.523"/>
<polygon fill="midnightblue" stroke="midnightblue" points="139.11,-58.1028 134.17,-67.4751 143.877,-63.2295 139.11,-58.1028"/>
</g>
<!-- Node2 -->
<g id="node2" class="node"><title>Node2</title>
<g id="a_node2"><a xlink:href="structfactory_1_1Kernel.html" target="_top" xlink:title="factory::Kernel">
<polygon fill="white" stroke="black" points="85,-123.5 85,-142.5 165,-142.5 165,-123.5 85,-123.5"/>
<text text-anchor="middle" x="125" y="-130.5" font-family="Helvetica,sans-Serif" font-size="10.00">factory::Kernel</text>
</a>
</g>
</g>
<!-- Node2&#45;&gt;Node1 -->
<g id="edge1" class="edge"><title>Node2&#45;&gt;Node1</title>
<path fill="none" stroke="midnightblue" d="M125,-112.805C125,-103.91 125,-93.7798 125,-86.7511"/>
<polygon fill="midnightblue" stroke="midnightblue" points="121.5,-113.083 125,-123.083 128.5,-113.083 121.5,-113.083"/>
</g>
<!-- Node3 -->
<g id="node3" class="node"><title>Node3</title>
<g id="a_node3"><a xlink:href="structfactory_1_1Mobile__kernel.html" target="_top" xlink:title="factory::Mobile_kernel">
<polygon fill="white" stroke="black" points="68.5,-179.5 68.5,-198.5 181.5,-198.5 181.5,-179.5 68.5,-179.5"/>
<text text-anchor="middle" x="125" y="-186.5" font-family="Helvetica,sans-Serif" font-size="10.00">factory::Mobile_kernel</text>
</a>
</g>
</g>
<!-- Node3&#45;&gt;Node2 -->
<g id="edge2" class="edge"><title>Node3&#45;&gt;Node2</title>
<path fill="none" stroke="midnightblue" d="M125,-168.805C125,-159.91 125,-149.78 125,-142.751"/>
<polygon fill="midnightblue" stroke="midnightblue" points="121.5,-169.083 125,-179.083 128.5,-169.083 121.5,-169.083"/>
</g>
<!-- Node4 -->
<g id="node4" class="node"><title>Node4</title>
<g id="a_node4"><a xlink:href="structfactory_1_1Basic__kernel.html" target="_top" xlink:title="factory::Basic_kernel">
<polygon fill="white" stroke="black" points="5.5,-235.5 5.5,-254.5 114.5,-254.5 114.5,-235.5 5.5,-235.5"/>
<text text-anchor="middle" x="60" y="-242.5" font-family="Helvetica,sans-Serif" font-size="10.00">factory::Basic_kernel</text>
</a>
</g>
</g>
<!-- Node4&#45;&gt;Node3 -->
<g id="edge3" class="edge"><title>Node4&#45;&gt;Node3</title>
<path fill="none" stroke="midnightblue" d="M78.2726,-228.82C89.9178,-219.145 104.599,-206.948 114.367,-198.834"/>
<polygon fill="midnightblue" stroke="midnightblue" points="75.8987,-226.242 70.4434,-235.324 80.3719,-231.626 75.8987,-226.242"/>
</g>
<!-- Node5 -->
<g id="node5" class="node"><title>Node5</title>
<g id="a_node5"><a xlink:href="structfactory_1_1Kernel__header.html" target="_top" xlink:title="factory::Kernel_header">
<polygon fill="white" stroke="black" points="132.5,-235.5 132.5,-254.5 247.5,-254.5 247.5,-235.5 132.5,-235.5"/>
<text text-anchor="middle" x="190" y="-242.5" font-family="Helvetica,sans-Serif" font-size="10.00">factory::Kernel_header</text>
</a>
</g>
</g>
<!-- Node5&#45;&gt;Node3 -->
<g id="edge4" class="edge"><title>Node5&#45;&gt;Node3</title>
<path fill="none" stroke="midnightblue" d="M171.727,-228.82C160.082,-219.145 145.401,-206.948 135.633,-198.834"/>
<polygon fill="midnightblue" stroke="midnightblue" points="169.628,-231.626 179.557,-235.324 174.101,-226.242 169.628,-231.626"/>
</g>
</g>
</svg>
