<?xml version="1.0" encoding="UTF-8" standalone="no"?>
<!DOCTYPE svg PUBLIC "-//W3C//DTD SVG 1.1//EN"
 "http://www.w3.org/Graphics/SVG/1.1/DTD/svg11.dtd">
<!-- Generated by graphviz version 2.36.0 (20140111.2315)
 -->
<!-- Title: sys::pathentry Pages: 1 -->
<svg width="159pt" height="154pt"
 viewBox="0.00 0.00 159.00 154.00" xmlns="http://www.w3.org/2000/svg" xmlns:xlink="http://www.w3.org/1999/xlink">
<g id="graph0" class="graph" transform="scale(1 1) rotate(0) translate(4 150)">
<title>sys::pathentry</title>
<polygon fill="white" stroke="none" points="-4,4 -4,-150 155,-150 155,4 -4,4"/>
<!-- Node1 -->
<g id="node1" class="node"><title>Node1</title>
<polygon fill="#bfbfbf" stroke="black" points="56.5,-0.5 56.5,-19.5 135.5,-19.5 135.5,-0.5 56.5,-0.5"/>
<text text-anchor="middle" x="96" y="-7.5" font-family="Helvetica,sans-Serif" font-size="10.00">sys::pathentry</text>
</g>
<!-- Node2 -->
<g id="node2" class="node"><title>Node2</title>
<g id="a_node2"><a xlink:href="structsys_1_1direntry.html" target="_top" xlink:title="sys::direntry">
<polygon fill="white" stroke="black" points="-0.5,-68.5 -0.5,-87.5 70.5,-87.5 70.5,-68.5 -0.5,-68.5"/>
<text text-anchor="middle" x="35" y="-75.5" font-family="Helvetica,sans-Serif" font-size="10.00">sys::direntry</text>
</a>
</g>
</g>
<!-- Node2&#45;&gt;Node1 -->
<g id="edge1" class="edge"><title>Node2&#45;&gt;Node1</title>
<path fill="none" stroke="midnightblue" d="M50.0836,-60.68C62.0093,-47.7768 78.2014,-30.2575 87.8287,-19.8411"/>
<polygon fill="midnightblue" stroke="midnightblue" points="47.1918,-58.6523 42.9747,-68.3717 52.3325,-63.4035 47.1918,-58.6523"/>
</g>
<!-- Node3 -->
<g id="node3" class="node"><title>Node3</title>
<polygon fill="white" stroke="#bfbfbf" points="2.5,-126.5 2.5,-145.5 67.5,-145.5 67.5,-126.5 2.5,-126.5"/>
<text text-anchor="middle" x="35" y="-133.5" font-family="Helvetica,sans-Serif" font-size="10.00">dirent_type</text>
</g>
<!-- Node3&#45;&gt;Node2 -->
<g id="edge2" class="edge"><title>Node3&#45;&gt;Node2</title>
<path fill="none" stroke="midnightblue" d="M35,-115.953C35,-106.287 35,-95.0312 35,-87.5052"/>
<polygon fill="midnightblue" stroke="midnightblue" points="31.5001,-116.25 35,-126.25 38.5001,-116.25 31.5001,-116.25"/>
</g>
<!-- Node4 -->
<g id="node4" class="node"><title>Node4</title>
<g id="a_node4"><a xlink:href="structsys_1_1path.html" target="_top" xlink:title="sys::path">
<polygon fill="white" stroke="black" points="88.5,-68.5 88.5,-87.5 145.5,-87.5 145.5,-68.5 88.5,-68.5"/>
<text text-anchor="middle" x="117" y="-75.5" font-family="Helvetica,sans-Serif" font-size="10.00">sys::path</text>
</a>
</g>
</g>
<!-- Node4&#45;&gt;Node1 -->
<g id="edge3" class="edge"><title>Node4&#45;&gt;Node1</title>
<path fill="none" stroke="#9a32cd" stroke-dasharray="5,2" d="M111.211,-58.8066C107.176,-46.1244 101.97,-29.7615 98.8131,-19.8411"/>
<polygon fill="#9a32cd" stroke="#9a32cd" points="107.887,-59.9036 114.255,-68.3717 114.558,-57.7812 107.887,-59.9036"/>
<text text-anchor="middle" x="129.5" y="-41.5" font-family="Helvetica,sans-Serif" font-size="10.00"> _dirname</text>
</g>
</g>
</svg>
