<?xml version="1.0" encoding="UTF-8" standalone="no"?>
<!DOCTYPE svg PUBLIC "-//W3C//DTD SVG 1.1//EN"
 "http://www.w3.org/Graphics/SVG/1.1/DTD/svg11.dtd">
<!-- Generated by graphviz version 2.36.0 (20140111.2315)
 -->
<!-- Title: stdx::bits::Object&lt; Args &gt; Pages: 1 -->
<svg width="100pt" height="108pt"
 viewBox="0.00 0.00 100.00 108.00" xmlns="http://www.w3.org/2000/svg" xmlns:xlink="http://www.w3.org/1999/xlink">
<g id="graph0" class="graph" transform="scale(1 1) rotate(0) translate(4 104)">
<title>stdx::bits::Object&lt; Args &gt;</title>
<polygon fill="white" stroke="none" points="-4,4 -4,-104 96,-104 96,4 -4,4"/>
<!-- Node1 -->
<g id="node1" class="node"><title>Node1</title>
<polygon fill="#bfbfbf" stroke="black" points="0,-1 0,-31 92,-31 92,-1 0,-1"/>
<text text-anchor="start" x="8" y="-19" font-family="Helvetica,sans-Serif" font-size="10.00">stdx::bits::Object</text>
<text text-anchor="middle" x="46" y="-8" font-family="Helvetica,sans-Serif" font-size="10.00">&lt; Args &gt;</text>
</g>
<!-- Node2 -->
<g id="node2" class="node"><title>Node2</title>
<g id="a_node2"><a xlink:href="structstdx_1_1bits_1_1Field.html" target="_top" xlink:title="stdx::bits::Field\&lt;\l Args...\&gt;">
<polygon fill="white" stroke="black" points="1,-69 1,-99 91,-99 91,-69 1,-69"/>
<text text-anchor="start" x="9" y="-87" font-family="Helvetica,sans-Serif" font-size="10.00">stdx::bits::Field&lt;</text>
<text text-anchor="middle" x="46" y="-76" font-family="Helvetica,sans-Serif" font-size="10.00"> Args...&gt;</text>
</a>
</g>
</g>
<!-- Node2&#45;&gt;Node1 -->
<g id="edge1" class="edge"><title>Node2&#45;&gt;Node1</title>
<path fill="none" stroke="midnightblue" d="M46,-58.5322C46,-49.3606 46,-39.2449 46,-31.2931"/>
<polygon fill="midnightblue" stroke="midnightblue" points="42.5001,-58.6789 46,-68.679 49.5001,-58.679 42.5001,-58.6789"/>
</g>
</g>
</svg>
