<?xml version="1.0" encoding="UTF-8" standalone="no"?>
<!DOCTYPE svg PUBLIC "-//W3C//DTD SVG 1.1//EN"
 "http://www.w3.org/Graphics/SVG/1.1/DTD/svg11.dtd">
<!-- Generated by graphviz version 2.38.0 (20140413.2041)
 -->
<!-- Title: discovery::Hierarchy&lt; Addr &gt; Pages: 1 -->
<svg width="224pt" height="117pt"
 viewBox="0.00 0.00 224.00 117.00" xmlns="http://www.w3.org/2000/svg" xmlns:xlink="http://www.w3.org/1999/xlink">
<g id="graph0" class="graph" transform="scale(1 1) rotate(0) translate(4 113)">
<title>discovery::Hierarchy&lt; Addr &gt;</title>
<polygon fill="white" stroke="none" points="-4,4 -4,-113 220,-113 220,4 -4,4"/>
<!-- Node1 -->
<g id="node1" class="node"><title>Node1</title>
<polygon fill="#bfbfbf" stroke="black" points="42,-0.5 42,-30.5 149,-30.5 149,-0.5 42,-0.5"/>
<text text-anchor="start" x="50" y="-18.5" font-family="Helvetica,sans-Serif" font-size="10.00">discovery::Hierarchy</text>
<text text-anchor="middle" x="95.5" y="-7.5" font-family="Helvetica,sans-Serif" font-size="10.00">&lt; Addr &gt;</text>
</g>
<!-- Node2 -->
<g id="node2" class="node"><title>Node2</title>
<g id="a_node2"><a xlink:href="unionsys_1_1endpoint.html" target="_top" xlink:title="sys::endpoint">
<polygon fill="white" stroke="black" points="0,-89.5 0,-108.5 75,-108.5 75,-89.5 0,-89.5"/>
<text text-anchor="middle" x="37.5" y="-96.5" font-family="Helvetica,sans-Serif" font-size="10.00">sys::endpoint</text>
</a>
</g>
</g>
<!-- Node2&#45;&gt;Node1 -->
<g id="edge1" class="edge"><title>Node2&#45;&gt;Node1</title>
<path fill="none" stroke="#9a32cd" stroke-dasharray="5,2" d="M49.6363,-80.9464C60.2625,-66.0148 75.518,-44.5781 85.4675,-30.5974"/>
<polygon fill="#9a32cd" stroke="#9a32cd" points="46.6536,-79.1012 43.707,-89.2781 52.3569,-83.16 46.6536,-79.1012"/>
<text text-anchor="middle" x="95.5" y="-63" font-family="Helvetica,sans-Serif" font-size="10.00"> _bindaddr</text>
<text text-anchor="middle" x="95.5" y="-52" font-family="Helvetica,sans-Serif" font-size="10.00">_principal</text>
</g>
<!-- Node3 -->
<g id="node3" class="node"><title>Node3</title>
<g id="a_node3"><a xlink:href="classsys_1_1ifaddr.html" target="_top" xlink:title="sys::ifaddr\&lt; addr_type \&gt;">
<polygon fill="white" stroke="black" points="93,-89.5 93,-108.5 216,-108.5 216,-89.5 93,-89.5"/>
<text text-anchor="middle" x="154.5" y="-96.5" font-family="Helvetica,sans-Serif" font-size="10.00">sys::ifaddr&lt; addr_type &gt;</text>
</a>
</g>
</g>
<!-- Node3&#45;&gt;Node1 -->
<g id="edge2" class="edge"><title>Node3&#45;&gt;Node1</title>
<path fill="none" stroke="#9a32cd" stroke-dasharray="5,2" d="M144.007,-80.894C137.974,-71.331 130.103,-59.2999 122.5,-49 117.969,-42.8622 112.664,-36.3476 107.961,-30.7753"/>
<polygon fill="#9a32cd" stroke="#9a32cd" points="141.094,-82.838 149.349,-89.4788 147.037,-79.1394 141.094,-82.838"/>
<text text-anchor="middle" x="158" y="-57.5" font-family="Helvetica,sans-Serif" font-size="10.00"> _network</text>
</g>
</g>
</svg>
