<?xml version="1.0" encoding="UTF-8" standalone="no"?>
<!DOCTYPE svg PUBLIC "-//W3C//DTD SVG 1.1//EN"
 "http://www.w3.org/Graphics/SVG/1.1/DTD/svg11.dtd">
<!-- Generated by graphviz version 2.38.0 (20140413.2041)
 -->
<!-- Title: factory::Proxy_server&lt; T, Rserver &gt; Pages: 1 -->
<svg width="118pt" height="162pt"
 viewBox="0.00 0.00 118.00 162.00" xmlns="http://www.w3.org/2000/svg" xmlns:xlink="http://www.w3.org/1999/xlink">
<g id="graph0" class="graph" transform="scale(1 1) rotate(0) translate(4 158)">
<title>factory::Proxy_server&lt; T, Rserver &gt;</title>
<polygon fill="white" stroke="none" points="-4,4 -4,-158 114,-158 114,4 -4,4"/>
<!-- Node1 -->
<g id="node1" class="node"><title>Node1</title>
<polygon fill="#bfbfbf" stroke="black" points="0,-0.5 0,-30.5 110,-30.5 110,-0.5 0,-0.5"/>
<text text-anchor="start" x="8" y="-18.5" font-family="Helvetica,sans-Serif" font-size="10.00">factory::Proxy_server</text>
<text text-anchor="middle" x="55" y="-7.5" font-family="Helvetica,sans-Serif" font-size="10.00">&lt; T, Rserver &gt;</text>
</g>
<!-- Node2 -->
<g id="node2" class="node"><title>Node2</title>
<g id="a_node2"><a xlink:href="structfactory_1_1Server__with__pool.html" target="_top" xlink:title="Proxy_server_base\&lt;\l T, Rserver \&gt;">
<polygon fill="white" stroke="black" points="1.5,-67.5 1.5,-97.5 108.5,-97.5 108.5,-67.5 1.5,-67.5"/>
<text text-anchor="start" x="9.5" y="-85.5" font-family="Helvetica,sans-Serif" font-size="10.00">Proxy_server_base&lt;</text>
<text text-anchor="middle" x="55" y="-74.5" font-family="Helvetica,sans-Serif" font-size="10.00"> T, Rserver &gt;</text>
</a>
</g>
</g>
<!-- Node2&#45;&gt;Node1 -->
<g id="edge1" class="edge"><title>Node2&#45;&gt;Node1</title>
<path fill="none" stroke="midnightblue" d="M55,-57.1081C55,-48.1539 55,-38.3227 55,-30.5765"/>
<polygon fill="midnightblue" stroke="midnightblue" points="51.5001,-57.3959 55,-67.396 58.5001,-57.396 51.5001,-57.3959"/>
</g>
<!-- Node3 -->
<g id="node3" class="node"><title>Node3</title>
<g id="a_node3"><a xlink:href="structfactory_1_1Server__base.html" target="_top" xlink:title="factory::Server_base">
<polygon fill="white" stroke="black" points="1.5,-134.5 1.5,-153.5 108.5,-153.5 108.5,-134.5 1.5,-134.5"/>
<text text-anchor="middle" x="55" y="-141.5" font-family="Helvetica,sans-Serif" font-size="10.00">factory::Server_base</text>
</a>
</g>
</g>
<!-- Node3&#45;&gt;Node2 -->
<g id="edge2" class="edge"><title>Node3&#45;&gt;Node2</title>
<path fill="none" stroke="midnightblue" d="M55,-124.235C55,-115.586 55,-105.497 55,-97.523"/>
<polygon fill="midnightblue" stroke="midnightblue" points="51.5001,-124.475 55,-134.475 58.5001,-124.475 51.5001,-124.475"/>
</g>
</g>
</svg>
