<?xml version="1.0" encoding="UTF-8" standalone="no"?>
<!DOCTYPE svg PUBLIC "-//W3C//DTD SVG 1.1//EN"
 "http://www.w3.org/Graphics/SVG/1.1/DTD/svg11.dtd">
<!-- Generated by graphviz version 2.38.0 (20140413.2041)
 -->
<!-- Title: factory::Basic_kernel Pages: 1 -->
<svg width="694pt" height="432pt"
 viewBox="0.00 0.00 694.00 432.00" xmlns="http://www.w3.org/2000/svg" xmlns:xlink="http://www.w3.org/1999/xlink">
<g id="graph0" class="graph" transform="scale(1 1) rotate(0) translate(4 428)">
<title>factory::Basic_kernel</title>
<polygon fill="white" stroke="none" points="-4,4 -4,-428 690,-428 690,4 -4,4"/>
<!-- Node1 -->
<g id="node1" class="node"><title>Node1</title>
<polygon fill="#bfbfbf" stroke="black" points="0,-158.5 0,-177.5 109,-177.5 109,-158.5 0,-158.5"/>
<text text-anchor="middle" x="54.5" y="-165.5" font-family="Helvetica,sans-Serif" font-size="10.00">factory::Basic_kernel</text>
</g>
<!-- Node2 -->
<g id="node2" class="node"><title>Node2</title>
<g id="a_node2"><a xlink:href="structfactory_1_1Mobile__kernel.html" target="_top" xlink:title="factory::Mobile_kernel">
<polygon fill="white" stroke="black" points="145,-158.5 145,-177.5 258,-177.5 258,-158.5 145,-158.5"/>
<text text-anchor="middle" x="201.5" y="-165.5" font-family="Helvetica,sans-Serif" font-size="10.00">factory::Mobile_kernel</text>
</a>
</g>
</g>
<!-- Node1&#45;&gt;Node2 -->
<g id="edge1" class="edge"><title>Node1&#45;&gt;Node2</title>
<path fill="none" stroke="midnightblue" d="M119.298,-168C127.765,-168 136.394,-168 144.711,-168"/>
<polygon fill="midnightblue" stroke="midnightblue" points="119.081,-164.5 109.081,-168 119.081,-171.5 119.081,-164.5"/>
</g>
<!-- Node3 -->
<g id="node3" class="node"><title>Node3</title>
<g id="a_node3"><a xlink:href="structfactory_1_1Kernel.html" target="_top" xlink:title="factory::Kernel">
<polygon fill="white" stroke="black" points="294,-158.5 294,-177.5 374,-177.5 374,-158.5 294,-158.5"/>
<text text-anchor="middle" x="334" y="-165.5" font-family="Helvetica,sans-Serif" font-size="10.00">factory::Kernel</text>
</a>
</g>
</g>
<!-- Node2&#45;&gt;Node3 -->
<g id="edge2" class="edge"><title>Node2&#45;&gt;Node3</title>
<path fill="none" stroke="midnightblue" d="M268.342,-168C276.989,-168 285.621,-168 293.633,-168"/>
<polygon fill="midnightblue" stroke="midnightblue" points="268.222,-164.5 258.222,-168 268.222,-171.5 268.222,-164.5"/>
</g>
<!-- Node4 -->
<g id="node4" class="node"><title>Node4</title>
<g id="a_node4"><a xlink:href="structBig__kernel.html" target="_top" xlink:title="Big_kernel\&lt; Size \&gt;">
<polygon fill="white" stroke="black" points="419,-404.5 419,-423.5 519,-423.5 519,-404.5 419,-404.5"/>
<text text-anchor="middle" x="469" y="-411.5" font-family="Helvetica,sans-Serif" font-size="10.00">Big_kernel&lt; Size &gt;</text>
</a>
</g>
</g>
<!-- Node3&#45;&gt;Node4 -->
<g id="edge3" class="edge"><title>Node3&#45;&gt;Node4</title>
<path fill="none" stroke="midnightblue" d="M335.793,-187.943C338.614,-231.648 351.464,-336.612 410,-395 413.901,-398.891 418.61,-401.985 423.639,-404.446"/>
<polygon fill="midnightblue" stroke="midnightblue" points="339.278,-187.571 335.252,-177.771 332.288,-187.943 339.278,-187.571"/>
</g>
<!-- Node5 -->
<g id="node5" class="node"><title>Node5</title>
<g id="a_node5"><a xlink:href="structDummy__kernel.html" target="_top" xlink:title="Dummy_kernel">
<polygon fill="white" stroke="black" points="427.5,-366.5 427.5,-385.5 510.5,-385.5 510.5,-366.5 427.5,-366.5"/>
<text text-anchor="middle" x="469" y="-373.5" font-family="Helvetica,sans-Serif" font-size="10.00">Dummy_kernel</text>
</a>
</g>
</g>
<!-- Node3&#45;&gt;Node5 -->
<g id="edge4" class="edge"><title>Node3&#45;&gt;Node5</title>
<path fill="none" stroke="midnightblue" d="M337.371,-188.205C342.94,-226.575 360.364,-310.312 410,-357 414.94,-361.646 421.034,-365.157 427.398,-367.809"/>
<polygon fill="midnightblue" stroke="midnightblue" points="340.782,-187.3 336.001,-177.845 333.843,-188.218 340.782,-187.3"/>
</g>
<!-- Node6 -->
<g id="node6" class="node"><title>Node6</title>
<g id="a_node6"><a xlink:href="structfactory_1_1Map.html" target="_top" xlink:title="factory::Map\&lt; F, G, I \&gt;">
<polygon fill="white" stroke="black" points="410,-328.5 410,-347.5 528,-347.5 528,-328.5 410,-328.5"/>
<text text-anchor="middle" x="469" y="-335.5" font-family="Helvetica,sans-Serif" font-size="10.00">factory::Map&lt; F, G, I &gt;</text>
</a>
</g>
</g>
<!-- Node3&#45;&gt;Node6 -->
<g id="edge5" class="edge"><title>Node3&#45;&gt;Node6</title>
<path fill="none" stroke="midnightblue" d="M339.512,-187.674C347.876,-219.766 368.811,-283.368 410,-319 414.488,-322.882 419.787,-325.975 425.329,-328.438"/>
<polygon fill="midnightblue" stroke="midnightblue" points="342.854,-186.607 337.065,-177.734 336.057,-188.281 342.854,-186.607"/>
</g>
<!-- Node7 -->
<g id="node7" class="node"><title>Node7</title>
<g id="a_node7"><a xlink:href="structfactory_1_1Map_1_1Worker.html" target="_top" xlink:title="factory::Map\&lt; F, G,\l I \&gt;::Worker">
<polygon fill="white" stroke="black" points="417.5,-279 417.5,-309 520.5,-309 520.5,-279 417.5,-279"/>
<text text-anchor="start" x="425.5" y="-297" font-family="Helvetica,sans-Serif" font-size="10.00">factory::Map&lt; F, G,</text>
<text text-anchor="middle" x="469" y="-286" font-family="Helvetica,sans-Serif" font-size="10.00"> I &gt;::Worker</text>
</a>
</g>
</g>
<!-- Node3&#45;&gt;Node7 -->
<g id="edge6" class="edge"><title>Node3&#45;&gt;Node7</title>
<path fill="none" stroke="midnightblue" d="M344.687,-186.448C357.163,-208.66 380.761,-245.858 410,-269 414.729,-272.743 420.103,-276.031 425.627,-278.888"/>
<polygon fill="midnightblue" stroke="midnightblue" points="347.758,-184.769 339.897,-177.666 341.613,-188.121 347.758,-184.769"/>
</g>
<!-- Node8 -->
<g id="node8" class="node"><title>Node8</title>
<g id="a_node8"><a xlink:href="classfactory_1_1Notification.html" target="_top" xlink:title="factory::Notification">
<polygon fill="white" stroke="black" points="418,-240.5 418,-259.5 520,-259.5 520,-240.5 418,-240.5"/>
<text text-anchor="middle" x="469" y="-247.5" font-family="Helvetica,sans-Serif" font-size="10.00">factory::Notification</text>
</a>
</g>
</g>
<!-- Node3&#45;&gt;Node8 -->
<g id="edge7" class="edge"><title>Node3&#45;&gt;Node8</title>
<path fill="none" stroke="midnightblue" d="M351.408,-185.029C365.736,-199.054 387.681,-218.585 410,-231 416.667,-234.708 424.172,-237.834 431.516,-240.411"/>
<polygon fill="midnightblue" stroke="midnightblue" points="353.819,-182.49 344.278,-177.884 348.864,-187.435 353.819,-182.49"/>
</g>
<!-- Node9 -->
<g id="node9" class="node"><title>Node9</title>
<g id="a_node9"><a xlink:href="structGood__kernel.html" target="_top" xlink:title="Good_kernel">
<polygon fill="white" stroke="black" points="433.5,-202.5 433.5,-221.5 504.5,-221.5 504.5,-202.5 433.5,-202.5"/>
<text text-anchor="middle" x="469" y="-209.5" font-family="Helvetica,sans-Serif" font-size="10.00">Good_kernel</text>
</a>
</g>
</g>
<!-- Node3&#45;&gt;Node9 -->
<g id="edge8" class="edge"><title>Node3&#45;&gt;Node9</title>
<path fill="none" stroke="midnightblue" d="M373.07,-180.732C384.899,-184.677 397.986,-189.03 410,-193 419.357,-196.092 429.57,-199.445 438.782,-202.461"/>
<polygon fill="midnightblue" stroke="midnightblue" points="374.073,-177.378 363.48,-177.532 371.857,-184.018 374.073,-177.378"/>
</g>
<!-- Node12 -->
<g id="node12" class="node"><title>Node12</title>
<g id="a_node12"><a xlink:href="structKernel__that__carries__its__parent.html" target="_top" xlink:title="Kernel_that_carries\l_its_parent">
<polygon fill="white" stroke="black" points="418.5,-153 418.5,-183 519.5,-183 519.5,-153 418.5,-153"/>
<text text-anchor="start" x="426.5" y="-171" font-family="Helvetica,sans-Serif" font-size="10.00">Kernel_that_carries</text>
<text text-anchor="middle" x="469" y="-160" font-family="Helvetica,sans-Serif" font-size="10.00">_its_parent</text>
</a>
</g>
</g>
<!-- Node3&#45;&gt;Node12 -->
<g id="edge11" class="edge"><title>Node3&#45;&gt;Node12</title>
<path fill="none" stroke="midnightblue" d="M384.497,-168C395.51,-168 407.191,-168 418.216,-168"/>
<polygon fill="midnightblue" stroke="midnightblue" points="384.185,-164.5 374.185,-168 384.185,-171.5 384.185,-164.5"/>
</g>
<!-- Node13 -->
<g id="node13" class="node"><title>Node13</title>
<g id="a_node13"><a xlink:href="structMain.html" target="_top" xlink:title="Main\&lt; Address \&gt;">
<polygon fill="white" stroke="black" points="423,-114.5 423,-133.5 515,-133.5 515,-114.5 423,-114.5"/>
<text text-anchor="middle" x="469" y="-121.5" font-family="Helvetica,sans-Serif" font-size="10.00">Main&lt; Address &gt;</text>
</a>
</g>
</g>
<!-- Node3&#45;&gt;Node13 -->
<g id="edge12" class="edge"><title>Node3&#45;&gt;Node13</title>
<path fill="none" stroke="midnightblue" d="M359.829,-154.389C377.503,-147.202 401.754,-138.835 422.816,-132.516"/>
<polygon fill="midnightblue" stroke="midnightblue" points="358.09,-151.325 350.257,-158.459 360.829,-157.767 358.09,-151.325"/>
</g>
<!-- Node3&#45;&gt;Node13 -->
<g id="edge13" class="edge"><title>Node3&#45;&gt;Node13</title>
<path fill="none" stroke="midnightblue" d="M383.969,-158.337C408.191,-150.925 435.754,-141.134 452.507,-133.647"/>
<polygon fill="midnightblue" stroke="midnightblue" points="382.769,-155.042 374.185,-161.253 384.768,-161.751 382.769,-155.042"/>
</g>
<!-- Node14 -->
<g id="node14" class="node"><title>Node14</title>
<g id="a_node14"><a xlink:href="structSender.html" target="_top" xlink:title="Sender">
<polygon fill="white" stroke="black" points="445.5,-76.5 445.5,-95.5 492.5,-95.5 492.5,-76.5 445.5,-76.5"/>
<text text-anchor="middle" x="469" y="-83.5" font-family="Helvetica,sans-Serif" font-size="10.00">Sender</text>
</a>
</g>
</g>
<!-- Node3&#45;&gt;Node14 -->
<g id="edge14" class="edge"><title>Node3&#45;&gt;Node14</title>
<path fill="none" stroke="midnightblue" d="M351.408,-150.971C365.736,-136.946 387.681,-117.415 410,-105 421.019,-98.8707 434.327,-94.3343 445.414,-91.2342"/>
<polygon fill="midnightblue" stroke="midnightblue" points="348.864,-148.565 344.278,-158.116 353.819,-153.51 348.864,-148.565"/>
</g>
<!-- Node15 -->
<g id="node15" class="node"><title>Node15</title>
<g id="a_node15"><a xlink:href="structSleepy__kernel.html" target="_top" xlink:title="Sleepy_kernel">
<polygon fill="white" stroke="black" points="430,-38.5 430,-57.5 508,-57.5 508,-38.5 430,-38.5"/>
<text text-anchor="middle" x="469" y="-45.5" font-family="Helvetica,sans-Serif" font-size="10.00">Sleepy_kernel</text>
</a>
</g>
</g>
<!-- Node3&#45;&gt;Node15 -->
<g id="edge15" class="edge"><title>Node3&#45;&gt;Node15</title>
<path fill="none" stroke="midnightblue" d="M344.164,-149.45C356.249,-126.829 379.591,-88.9084 410,-67 415.932,-62.7263 422.88,-59.3761 429.865,-56.762"/>
<polygon fill="midnightblue" stroke="midnightblue" points="341.028,-147.895 339.552,-158.386 347.249,-151.105 341.028,-147.895"/>
</g>
<!-- Node16 -->
<g id="node16" class="node"><title>Node16</title>
<g id="a_node16"><a xlink:href="structTest__socket.html" target="_top" xlink:title="Test_socket">
<polygon fill="white" stroke="black" points="433.5,-0.5 433.5,-19.5 504.5,-19.5 504.5,-0.5 433.5,-0.5"/>
<text text-anchor="middle" x="469" y="-7.5" font-family="Helvetica,sans-Serif" font-size="10.00">Test_socket</text>
</a>
</g>
</g>
<!-- Node3&#45;&gt;Node16 -->
<g id="edge16" class="edge"><title>Node3&#45;&gt;Node16</title>
<path fill="none" stroke="midnightblue" d="M338.87,-148.467C347.134,-116.424 369.162,-54.1383 410,-20 416.666,-14.4273 425.013,-10.4752 433.279,-7.9731"/>
<polygon fill="midnightblue" stroke="midnightblue" points="335.406,-147.907 336.513,-158.444 342.219,-149.516 335.406,-147.907"/>
</g>
<!-- Node3&#45;&gt;Node16 -->
<g id="edge17" class="edge"><title>Node3&#45;&gt;Node16</title>
<path fill="none" stroke="midnightblue" d="M342.392,-148.536C352.613,-120.073 373.996,-68.0975 410,-38 421.707,-28.2138 438.595,-23.4254 451.131,-19.5068"/>
<polygon fill="midnightblue" stroke="midnightblue" points="339.01,-147.604 339.014,-158.199 345.618,-149.914 339.01,-147.604"/>
</g>
<!-- Node10 -->
<g id="node10" class="node"><title>Node10</title>
<g id="a_node10"><a xlink:href="structKernel__that__reads__more__than__writes.html" target="_top" xlink:title="Kernel_that_reads_more\l_than_writes">
<polygon fill="white" stroke="black" points="564,-221 564,-251 686,-251 686,-221 564,-221"/>
<text text-anchor="start" x="572" y="-239" font-family="Helvetica,sans-Serif" font-size="10.00">Kernel_that_reads_more</text>
<text text-anchor="middle" x="625" y="-228" font-family="Helvetica,sans-Serif" font-size="10.00">_than_writes</text>
</a>
</g>
</g>
<!-- Node9&#45;&gt;Node10 -->
<g id="edge9" class="edge"><title>Node9&#45;&gt;Node10</title>
<path fill="none" stroke="midnightblue" d="M514.796,-218.981C530.115,-221.369 547.508,-224.079 563.838,-226.624"/>
<polygon fill="midnightblue" stroke="midnightblue" points="514.98,-215.468 504.561,-217.386 513.902,-222.384 514.98,-215.468"/>
</g>
<!-- Node11 -->
<g id="node11" class="node"><title>Node11</title>
<g id="a_node11"><a xlink:href="structKernel__that__writes__more__than__reads.html" target="_top" xlink:title="Kernel_that_writes\l_more_than_reads">
<polygon fill="white" stroke="black" points="576,-172 576,-202 674,-202 674,-172 576,-172"/>
<text text-anchor="start" x="584" y="-190" font-family="Helvetica,sans-Serif" font-size="10.00">Kernel_that_writes</text>
<text text-anchor="middle" x="625" y="-179" font-family="Helvetica,sans-Serif" font-size="10.00">_more_than_reads</text>
</a>
</g>
</g>
<!-- Node9&#45;&gt;Node11 -->
<g id="edge10" class="edge"><title>Node9&#45;&gt;Node11</title>
<path fill="none" stroke="midnightblue" d="M514.557,-204.767C533.757,-201.65 556.249,-197.998 575.834,-194.819"/>
<polygon fill="midnightblue" stroke="midnightblue" points="513.871,-201.332 504.561,-206.39 514.992,-208.242 513.871,-201.332"/>
</g>
</g>
</svg>
