<?xml version="1.0" encoding="UTF-8" standalone="no"?>
<!DOCTYPE svg PUBLIC "-//W3C//DTD SVG 1.1//EN"
 "http://www.w3.org/Graphics/SVG/1.1/DTD/svg11.dtd">
<!-- Generated by graphviz version 2.36.0 (20140111.2315)
 -->
<!-- Title: Kernel_that_reads_more_than_writes Pages: 1 -->
<svg width="243pt" height="264pt"
 viewBox="0.00 0.00 243.00 264.00" xmlns="http://www.w3.org/2000/svg" xmlns:xlink="http://www.w3.org/1999/xlink">
<g id="graph0" class="graph" transform="scale(1 1) rotate(0) translate(4 260)">
<title>Kernel_that_reads_more_than_writes</title>
<polygon fill="white" stroke="none" points="-4,4 -4,-260 239,-260 239,4 -4,4"/>
<!-- Node1 -->
<g id="node1" class="node"><title>Node1</title>
<polygon fill="#bfbfbf" stroke="black" points="54,-1 54,-31 176,-31 176,-1 54,-1"/>
<text text-anchor="start" x="62" y="-19" font-family="Helvetica,sans-Serif" font-size="10.00">Kernel_that_reads_more</text>
<text text-anchor="middle" x="115" y="-8" font-family="Helvetica,sans-Serif" font-size="10.00">_than_writes</text>
</g>
<!-- Node2 -->
<g id="node2" class="node"><title>Node2</title>
<g id="a_node2"><a xlink:href="structGood__kernel.html" target="_top" xlink:title="Good_kernel">
<polygon fill="white" stroke="black" points="79.5,-68.5 79.5,-87.5 150.5,-87.5 150.5,-68.5 79.5,-68.5"/>
<text text-anchor="middle" x="115" y="-75.5" font-family="Helvetica,sans-Serif" font-size="10.00">Good_kernel</text>
</a>
</g>
</g>
<!-- Node2&#45;&gt;Node1 -->
<g id="edge1" class="edge"><title>Node2&#45;&gt;Node1</title>
<path fill="none" stroke="midnightblue" d="M115,-58.3707C115,-49.5849 115,-39.2721 115,-31.1408"/>
<polygon fill="midnightblue" stroke="midnightblue" points="111.5,-58.4034 115,-68.4035 118.5,-58.4035 111.5,-58.4034"/>
</g>
<!-- Node3 -->
<g id="node3" class="node"><title>Node3</title>
<g id="a_node3"><a xlink:href="structfactory_1_1Kernel.html" target="_top" xlink:title="factory::Kernel">
<polygon fill="white" stroke="black" points="75,-124.5 75,-143.5 155,-143.5 155,-124.5 75,-124.5"/>
<text text-anchor="middle" x="115" y="-131.5" font-family="Helvetica,sans-Serif" font-size="10.00">factory::Kernel</text>
</a>
</g>
</g>
<!-- Node3&#45;&gt;Node2 -->
<g id="edge2" class="edge"><title>Node3&#45;&gt;Node2</title>
<path fill="none" stroke="midnightblue" d="M115,-113.805C115,-104.91 115,-94.7798 115,-87.7511"/>
<polygon fill="midnightblue" stroke="midnightblue" points="111.5,-114.083 115,-124.083 118.5,-114.083 111.5,-114.083"/>
</g>
<!-- Node4 -->
<g id="node4" class="node"><title>Node4</title>
<g id="a_node4"><a xlink:href="classfactory_1_1mobile__kernel.html" target="_top" xlink:title="factory::mobile_kernel">
<polygon fill="white" stroke="black" points="58.5,-180.5 58.5,-199.5 171.5,-199.5 171.5,-180.5 58.5,-180.5"/>
<text text-anchor="middle" x="115" y="-187.5" font-family="Helvetica,sans-Serif" font-size="10.00">factory::mobile_kernel</text>
</a>
</g>
</g>
<!-- Node4&#45;&gt;Node3 -->
<g id="edge3" class="edge"><title>Node4&#45;&gt;Node3</title>
<path fill="none" stroke="midnightblue" d="M115,-169.805C115,-160.91 115,-150.78 115,-143.751"/>
<polygon fill="midnightblue" stroke="midnightblue" points="111.5,-170.083 115,-180.083 118.5,-170.083 111.5,-170.083"/>
</g>
<!-- Node5 -->
<g id="node5" class="node"><title>Node5</title>
<g id="a_node5"><a xlink:href="classfactory_1_1kernel__base.html" target="_top" xlink:title="factory::kernel_base">
<polygon fill="white" stroke="black" points="-0.5,-236.5 -0.5,-255.5 104.5,-255.5 104.5,-236.5 -0.5,-236.5"/>
<text text-anchor="middle" x="52" y="-243.5" font-family="Helvetica,sans-Serif" font-size="10.00">factory::kernel_base</text>
</a>
</g>
</g>
<!-- Node5&#45;&gt;Node4 -->
<g id="edge4" class="edge"><title>Node5&#45;&gt;Node4</title>
<path fill="none" stroke="midnightblue" d="M70.0399,-229.537C81.2731,-219.909 95.3191,-207.869 104.694,-199.834"/>
<polygon fill="midnightblue" stroke="midnightblue" points="67.4368,-227.159 62.122,-236.324 71.9924,-232.473 67.4368,-227.159"/>
</g>
<!-- Node6 -->
<g id="node6" class="node"><title>Node6</title>
<g id="a_node6"><a xlink:href="classfactory_1_1kernel__header.html" target="_top" xlink:title="factory::kernel_header">
<polygon fill="white" stroke="black" points="122.5,-236.5 122.5,-255.5 235.5,-255.5 235.5,-236.5 122.5,-236.5"/>
<text text-anchor="middle" x="179" y="-243.5" font-family="Helvetica,sans-Serif" font-size="10.00">factory::kernel_header</text>
</a>
</g>
</g>
<!-- Node6&#45;&gt;Node4 -->
<g id="edge5" class="edge"><title>Node6&#45;&gt;Node4</title>
<path fill="none" stroke="midnightblue" d="M161.009,-229.82C149.542,-220.145 135.087,-207.948 125.47,-199.834"/>
<polygon fill="midnightblue" stroke="midnightblue" points="158.817,-232.55 168.717,-236.324 163.331,-227.2 158.817,-232.55"/>
</g>
</g>
</svg>
