<?xml version="1.0" encoding="UTF-8" standalone="no"?>
<!DOCTYPE svg PUBLIC "-//W3C//DTD SVG 1.1//EN"
 "http://www.w3.org/Graphics/SVG/1.1/DTD/svg11.dtd">
<!-- Generated by graphviz version 2.38.0 (20140413.2041)
 -->
<!-- Title: Kernel_that_carries_its_parent Pages: 1 -->
<svg width="250pt" height="212pt"
 viewBox="0.00 0.00 250.00 212.00" xmlns="http://www.w3.org/2000/svg" xmlns:xlink="http://www.w3.org/1999/xlink">
<g id="graph0" class="graph" transform="scale(1 1) rotate(0) translate(4 208)">
<title>Kernel_that_carries_its_parent</title>
<polygon fill="white" stroke="none" points="-4,4 -4,-208 246,-208 246,4 -4,4"/>
<!-- Node1 -->
<g id="node1" class="node"><title>Node1</title>
<polygon fill="#bfbfbf" stroke="black" points="69,-0.5 69,-30.5 170,-30.5 170,-0.5 69,-0.5"/>
<text text-anchor="start" x="77" y="-18.5" font-family="Helvetica,sans-Serif" font-size="10.00">Kernel_that_carries</text>
<text text-anchor="middle" x="119.5" y="-7.5" font-family="Helvetica,sans-Serif" font-size="10.00">_its_parent</text>
</g>
<!-- Node2 -->
<g id="node2" class="node"><title>Node2</title>
<g id="a_node2"><a xlink:href="structfactory_1_1Kernel.html" target="_top" xlink:title="factory::Kernel">
<polygon fill="white" stroke="black" points="79.5,-69.5 79.5,-88.5 159.5,-88.5 159.5,-69.5 79.5,-69.5"/>
<text text-anchor="middle" x="119.5" y="-76.5" font-family="Helvetica,sans-Serif" font-size="10.00">factory::Kernel</text>
</a>
</g>
</g>
<!-- Node2&#45;&gt;Node1 -->
<g id="edge1" class="edge"><title>Node2&#45;&gt;Node1</title>
<path fill="none" stroke="midnightblue" d="M119.5,-59.3344C119.5,-50.1126 119.5,-39.1664 119.5,-30.6479"/>
<polygon fill="midnightblue" stroke="midnightblue" points="116,-59.4487 119.5,-69.4487 123,-59.4487 116,-59.4487"/>
</g>
<!-- Node2&#45;&gt;Node2 -->
<g id="edge5" class="edge"><title>Node2&#45;&gt;Node2</title>
<path fill="none" stroke="#9a32cd" stroke-dasharray="5,2" d="M169.765,-83.218C174.505,-82.3542 177.5,-80.9482 177.5,-79 177.5,-75.8828 169.832,-74.1537 159.619,-73.8128"/>
<polygon fill="#9a32cd" stroke="#9a32cd" points="169.24,-79.7521 159.619,-84.1872 169.906,-86.7204 169.24,-79.7521"/>
<text text-anchor="middle" x="200" y="-82" font-family="Helvetica,sans-Serif" font-size="10.00"> _principal</text>
<text text-anchor="middle" x="200" y="-71" font-family="Helvetica,sans-Serif" font-size="10.00">_parent</text>
</g>
<!-- Node3 -->
<g id="node3" class="node"><title>Node3</title>
<g id="a_node3"><a xlink:href="structfactory_1_1Mobile__kernel.html" target="_top" xlink:title="factory::Mobile_kernel">
<polygon fill="white" stroke="black" points="63,-127.5 63,-146.5 176,-146.5 176,-127.5 63,-127.5"/>
<text text-anchor="middle" x="119.5" y="-134.5" font-family="Helvetica,sans-Serif" font-size="10.00">factory::Mobile_kernel</text>
</a>
</g>
</g>
<!-- Node3&#45;&gt;Node2 -->
<g id="edge2" class="edge"><title>Node3&#45;&gt;Node2</title>
<path fill="none" stroke="midnightblue" d="M119.5,-116.953C119.5,-107.287 119.5,-96.0312 119.5,-88.5052"/>
<polygon fill="midnightblue" stroke="midnightblue" points="116,-117.25 119.5,-127.25 123,-117.25 116,-117.25"/>
</g>
<!-- Node4 -->
<g id="node4" class="node"><title>Node4</title>
<g id="a_node4"><a xlink:href="structfactory_1_1Basic__kernel.html" target="_top" xlink:title="factory::Basic_kernel">
<polygon fill="white" stroke="black" points="0,-184.5 0,-203.5 109,-203.5 109,-184.5 0,-184.5"/>
<text text-anchor="middle" x="54.5" y="-191.5" font-family="Helvetica,sans-Serif" font-size="10.00">factory::Basic_kernel</text>
</a>
</g>
</g>
<!-- Node4&#45;&gt;Node3 -->
<g id="edge3" class="edge"><title>Node4&#45;&gt;Node3</title>
<path fill="none" stroke="midnightblue" d="M72.5724,-177.708C84.3822,-167.715 99.3811,-155.024 109.201,-146.715"/>
<polygon fill="midnightblue" stroke="midnightblue" points="70.0293,-175.275 64.6562,-184.406 74.5509,-180.619 70.0293,-175.275"/>
</g>
<!-- Node5 -->
<g id="node5" class="node"><title>Node5</title>
<g id="a_node5"><a xlink:href="structfactory_1_1Kernel__header.html" target="_top" xlink:title="factory::Kernel_header">
<polygon fill="white" stroke="black" points="127,-184.5 127,-203.5 242,-203.5 242,-184.5 127,-184.5"/>
<text text-anchor="middle" x="184.5" y="-191.5" font-family="Helvetica,sans-Serif" font-size="10.00">factory::Kernel_header</text>
</a>
</g>
</g>
<!-- Node5&#45;&gt;Node3 -->
<g id="edge4" class="edge"><title>Node5&#45;&gt;Node3</title>
<path fill="none" stroke="midnightblue" d="M166.428,-177.708C154.618,-167.715 139.619,-155.024 129.799,-146.715"/>
<polygon fill="midnightblue" stroke="midnightblue" points="164.449,-180.619 174.344,-184.406 168.971,-175.275 164.449,-180.619"/>
</g>
</g>
</svg>
