<?xml version="1.0" encoding="UTF-8" standalone="no"?>
<!DOCTYPE svg PUBLIC "-//W3C//DTD SVG 1.1//EN"
 "http://www.w3.org/Graphics/SVG/1.1/DTD/svg11.dtd">
<!-- Generated by graphviz version 2.38.0 (20140413.2041)
 -->
<!-- Title: factory::Process_rserver&lt; T, Router &gt; Pages: 1 -->
<svg width="216pt" height="174pt"
 viewBox="0.00 0.00 215.50 174.00" xmlns="http://www.w3.org/2000/svg" xmlns:xlink="http://www.w3.org/1999/xlink">
<g id="graph0" class="graph" transform="scale(1 1) rotate(0) translate(4 170)">
<title>factory::Process_rserver&lt; T, Router &gt;</title>
<polygon fill="white" stroke="none" points="-4,4 -4,-170 211.5,-170 211.5,4 -4,4"/>
<!-- Node1 -->
<g id="node1" class="node"><title>Node1</title>
<polygon fill="#bfbfbf" stroke="black" points="47.5,-0.5 47.5,-30.5 171.5,-30.5 171.5,-0.5 47.5,-0.5"/>
<text text-anchor="start" x="55.5" y="-18.5" font-family="Helvetica,sans-Serif" font-size="10.00">factory::Process_rserver</text>
<text text-anchor="middle" x="109.5" y="-7.5" font-family="Helvetica,sans-Serif" font-size="10.00">&lt; T, Router &gt;</text>
</g>
<!-- Node2 -->
<g id="node2" class="node"><title>Node2</title>
<g id="a_node2"><a xlink:href="structfactory_1_1Buffered__server.html" target="_top" xlink:title="factory::Buffered_server\l\&lt; T, Router \&gt;">
<polygon fill="white" stroke="black" points="48.5,-68.5 48.5,-98.5 170.5,-98.5 170.5,-68.5 48.5,-68.5"/>
<text text-anchor="start" x="56.5" y="-86.5" font-family="Helvetica,sans-Serif" font-size="10.00">factory::Buffered_server</text>
<text text-anchor="middle" x="109.5" y="-75.5" font-family="Helvetica,sans-Serif" font-size="10.00">&lt; T, Router &gt;</text>
</a>
</g>
</g>
<!-- Node2&#45;&gt;Node1 -->
<g id="edge1" class="edge"><title>Node2&#45;&gt;Node1</title>
<path fill="none" stroke="midnightblue" d="M109.5,-58.0322C109.5,-48.8606 109.5,-38.7449 109.5,-30.7931"/>
<polygon fill="midnightblue" stroke="midnightblue" points="106,-58.1789 109.5,-68.179 113,-58.179 106,-58.1789"/>
</g>
<!-- Node3 -->
<g id="node3" class="node"><title>Node3</title>
<g id="a_node3"><a xlink:href="structfactory_1_1Server__base.html" target="_top" xlink:title="factory::Server_base">
<polygon fill="white" stroke="black" points="0,-146.5 0,-165.5 107,-165.5 107,-146.5 0,-146.5"/>
<text text-anchor="middle" x="53.5" y="-153.5" font-family="Helvetica,sans-Serif" font-size="10.00">factory::Server_base</text>
</a>
</g>
</g>
<!-- Node3&#45;&gt;Node2 -->
<g id="edge2" class="edge"><title>Node3&#45;&gt;Node2</title>
<path fill="none" stroke="midnightblue" d="M66.6916,-138.393C76.3109,-126.283 89.2039,-110.051 98.3189,-98.5762"/>
<polygon fill="midnightblue" stroke="midnightblue" points="63.8459,-136.348 60.3667,-146.355 69.3272,-140.702 63.8459,-136.348"/>
</g>
<!-- Node4 -->
<g id="node4" class="node"><title>Node4</title>
<g id="a_node4"><a xlink:href="structfactory_1_1Router.html" target="_top" xlink:title="factory::Router">
<polygon fill="white" stroke="black" points="125.5,-146.5 125.5,-165.5 207.5,-165.5 207.5,-146.5 125.5,-146.5"/>
<text text-anchor="middle" x="166.5" y="-153.5" font-family="Helvetica,sans-Serif" font-size="10.00">factory::Router</text>
</a>
</g>
</g>
<!-- Node4&#45;&gt;Node2 -->
<g id="edge3" class="edge"><title>Node4&#45;&gt;Node2</title>
<path fill="none" stroke="#9a32cd" stroke-dasharray="5,2" d="M153.073,-138.393C143.282,-126.283 130.159,-110.051 120.881,-98.5762"/>
<polygon fill="#9a32cd" stroke="#9a32cd" points="150.502,-140.78 159.511,-146.355 155.945,-136.378 150.502,-140.78"/>
<text text-anchor="middle" x="160.5" y="-120" font-family="Helvetica,sans-Serif" font-size="10.00"> _router</text>
</g>
</g>
</svg>
