<?xml version="1.0" encoding="UTF-8" standalone="no"?>
<!DOCTYPE svg PUBLIC "-//W3C//DTD SVG 1.1//EN"
 "http://www.w3.org/Graphics/SVG/1.1/DTD/svg11.dtd">
<!-- Generated by graphviz version 2.36.0 (20140111.2315)
 -->
<!-- Title: Kernel_that_writes_more_than_reads Pages: 1 -->
<svg width="249pt" height="274pt"
 viewBox="0.00 0.00 249.00 274.00" xmlns="http://www.w3.org/2000/svg" xmlns:xlink="http://www.w3.org/1999/xlink">
<g id="graph0" class="graph" transform="scale(1 1) rotate(0) translate(4 270)">
<title>Kernel_that_writes_more_than_reads</title>
<polygon fill="white" stroke="none" points="-4,4 -4,-270 245,-270 245,4 -4,4"/>
<!-- Node1 -->
<g id="node1" class="node"><title>Node1</title>
<polygon fill="#bfbfbf" stroke="black" points="70,-1 70,-31 168,-31 168,-1 70,-1"/>
<text text-anchor="start" x="78" y="-19" font-family="Helvetica,sans-Serif" font-size="10.00">Kernel_that_writes</text>
<text text-anchor="middle" x="119" y="-8" font-family="Helvetica,sans-Serif" font-size="10.00">_more_than_reads</text>
</g>
<!-- Node2 -->
<g id="node2" class="node"><title>Node2</title>
<g id="a_node2"><a xlink:href="structGood__kernel.html" target="_top" xlink:title="Good_kernel">
<polygon fill="white" stroke="black" points="83.5,-70.5 83.5,-89.5 154.5,-89.5 154.5,-70.5 83.5,-70.5"/>
<text text-anchor="middle" x="119" y="-77.5" font-family="Helvetica,sans-Serif" font-size="10.00">Good_kernel</text>
</a>
</g>
</g>
<!-- Node2&#45;&gt;Node1 -->
<g id="edge1" class="edge"><title>Node2&#45;&gt;Node1</title>
<path fill="none" stroke="midnightblue" d="M119,-60.1826C119,-50.8859 119,-39.8507 119,-31.263"/>
<polygon fill="midnightblue" stroke="midnightblue" points="115.5,-60.3791 119,-70.3792 122.5,-60.3792 115.5,-60.3791"/>
</g>
<!-- Node3 -->
<g id="node3" class="node"><title>Node3</title>
<g id="a_node3"><a xlink:href="structfactory_1_1Kernel.html" target="_top" xlink:title="factory::Kernel">
<polygon fill="white" stroke="black" points="79,-129.5 79,-148.5 159,-148.5 159,-129.5 79,-129.5"/>
<text text-anchor="middle" x="119" y="-136.5" font-family="Helvetica,sans-Serif" font-size="10.00">factory::Kernel</text>
</a>
</g>
</g>
<!-- Node3&#45;&gt;Node2 -->
<g id="edge2" class="edge"><title>Node3&#45;&gt;Node2</title>
<path fill="none" stroke="midnightblue" d="M119,-118.933C119,-109.024 119,-97.4007 119,-89.6571"/>
<polygon fill="midnightblue" stroke="midnightblue" points="115.5,-119.094 119,-129.094 122.5,-119.094 115.5,-119.094"/>
</g>
<!-- Node3&#45;&gt;Node3 -->
<g id="edge6" class="edge"><title>Node3&#45;&gt;Node3</title>
<path fill="none" stroke="#9a32cd" stroke-dasharray="5,2" d="M169.265,-143.519C174.005,-142.594 177,-141.087 177,-139 177,-135.66 169.332,-133.808 159.119,-133.442"/>
<polygon fill="#9a32cd" stroke="#9a32cd" points="168.71,-140.058 159.119,-144.558 169.423,-147.021 168.71,-140.058"/>
<text text-anchor="middle" x="199.5" y="-142" font-family="Helvetica,sans-Serif" font-size="10.00"> _principal</text>
<text text-anchor="middle" x="199.5" y="-131" font-family="Helvetica,sans-Serif" font-size="10.00">_parent</text>
</g>
<!-- Node4 -->
<g id="node4" class="node"><title>Node4</title>
<g id="a_node4"><a xlink:href="structfactory_1_1Mobile__kernel.html" target="_top" xlink:title="factory::Mobile_kernel">
<polygon fill="white" stroke="black" points="62.5,-188.5 62.5,-207.5 175.5,-207.5 175.5,-188.5 62.5,-188.5"/>
<text text-anchor="middle" x="119" y="-195.5" font-family="Helvetica,sans-Serif" font-size="10.00">factory::Mobile_kernel</text>
</a>
</g>
</g>
<!-- Node4&#45;&gt;Node3 -->
<g id="edge3" class="edge"><title>Node4&#45;&gt;Node3</title>
<path fill="none" stroke="midnightblue" d="M119,-177.933C119,-168.024 119,-156.401 119,-148.657"/>
<polygon fill="midnightblue" stroke="midnightblue" points="115.5,-178.094 119,-188.094 122.5,-178.094 115.5,-178.094"/>
</g>
<!-- Node5 -->
<g id="node5" class="node"><title>Node5</title>
<g id="a_node5"><a xlink:href="structfactory_1_1Basic__kernel.html" target="_top" xlink:title="factory::Basic_kernel">
<polygon fill="white" stroke="black" points="-0.5,-246.5 -0.5,-265.5 108.5,-265.5 108.5,-246.5 -0.5,-246.5"/>
<text text-anchor="middle" x="54" y="-253.5" font-family="Helvetica,sans-Serif" font-size="10.00">factory::Basic_kernel</text>
</a>
</g>
</g>
<!-- Node5&#45;&gt;Node4 -->
<g id="edge4" class="edge"><title>Node5&#45;&gt;Node4</title>
<path fill="none" stroke="midnightblue" d="M71.526,-239.901C83.5502,-229.541 99.0739,-216.167 109.035,-207.585"/>
<polygon fill="midnightblue" stroke="midnightblue" points="69.1637,-237.316 63.8721,-246.495 73.7327,-242.619 69.1637,-237.316"/>
</g>
<!-- Node6 -->
<g id="node6" class="node"><title>Node6</title>
<g id="a_node6"><a xlink:href="structfactory_1_1Kernel__header.html" target="_top" xlink:title="factory::Kernel_header">
<polygon fill="white" stroke="black" points="126.5,-246.5 126.5,-265.5 241.5,-265.5 241.5,-246.5 126.5,-246.5"/>
<text text-anchor="middle" x="184" y="-253.5" font-family="Helvetica,sans-Serif" font-size="10.00">factory::Kernel_header</text>
</a>
</g>
</g>
<!-- Node6&#45;&gt;Node4 -->
<g id="edge5" class="edge"><title>Node6&#45;&gt;Node4</title>
<path fill="none" stroke="midnightblue" d="M166.474,-239.901C154.45,-229.541 138.926,-216.167 128.965,-207.585"/>
<polygon fill="midnightblue" stroke="midnightblue" points="164.267,-242.619 174.128,-246.495 168.836,-237.316 164.267,-242.619"/>
</g>
</g>
</svg>
