<?xml version="1.0" encoding="UTF-8" standalone="no"?>
<!DOCTYPE svg PUBLIC "-//W3C//DTD SVG 1.1//EN"
 "http://www.w3.org/Graphics/SVG/1.1/DTD/svg11.dtd">
<!-- Generated by graphviz version 2.36.0 (20140111.2315)
 -->
<!-- Title: factory::Server_base Pages: 1 -->
<svg width="670pt" height="283pt"
 viewBox="0.00 0.00 670.00 283.00" xmlns="http://www.w3.org/2000/svg" xmlns:xlink="http://www.w3.org/1999/xlink">
<g id="graph0" class="graph" transform="scale(1 1) rotate(0) translate(4 279)">
<title>factory::Server_base</title>
<polygon fill="white" stroke="none" points="-4,4 -4,-279 666,-279 666,4 -4,4"/>
<!-- Node1 -->
<g id="node1" class="node"><title>Node1</title>
<polygon fill="#bfbfbf" stroke="black" points="0.5,-176.5 0.5,-195.5 107.5,-195.5 107.5,-176.5 0.5,-176.5"/>
<text text-anchor="middle" x="54" y="-183.5" font-family="Helvetica,sans-Serif" font-size="10.00">factory::Server_base</text>
</g>
<!-- Node2 -->
<g id="node2" class="node"><title>Node2</title>
<g id="a_node2"><a xlink:href="structfactory_1_1Buffered__server.html" target="_top" xlink:title="factory::Buffered_server\l\&lt; T, Router \&gt;">
<polygon fill="white" stroke="black" points="159,-245 159,-275 281,-275 281,-245 159,-245"/>
<text text-anchor="start" x="167" y="-263" font-family="Helvetica,sans-Serif" font-size="10.00">factory::Buffered_server</text>
<text text-anchor="middle" x="220" y="-252" font-family="Helvetica,sans-Serif" font-size="10.00">&lt; T, Router &gt;</text>
</a>
</g>
</g>
<!-- Node1&#45;&gt;Node2 -->
<g id="edge1" class="edge"><title>Node1&#45;&gt;Node2</title>
<path fill="none" stroke="midnightblue" d="M79.3024,-200.953C96.8592,-211.361 121.368,-225.096 144,-235 152.173,-238.577 161.031,-241.949 169.699,-244.99"/>
<polygon fill="midnightblue" stroke="midnightblue" points="80.6946,-197.706 70.3199,-195.558 77.0904,-203.707 80.6946,-197.706"/>
</g>
<!-- Node4 -->
<g id="node4" class="node"><title>Node4</title>
<g id="a_node4"><a xlink:href="structfactory_1_1Buffered__server.html" target="_top" xlink:title="factory::Buffered_server\l\&lt; T, Router, Kernels \&gt;">
<polygon fill="white" stroke="black" points="159,-196 159,-226 281,-226 281,-196 159,-196"/>
<text text-anchor="start" x="167" y="-214" font-family="Helvetica,sans-Serif" font-size="10.00">factory::Buffered_server</text>
<text text-anchor="middle" x="220" y="-203" font-family="Helvetica,sans-Serif" font-size="10.00">&lt; T, Router, Kernels &gt;</text>
</a>
</g>
</g>
<!-- Node1&#45;&gt;Node4 -->
<g id="edge3" class="edge"><title>Node1&#45;&gt;Node4</title>
<path fill="none" stroke="midnightblue" d="M117.915,-195.591C131.37,-197.642 145.551,-199.803 158.896,-201.838"/>
<polygon fill="midnightblue" stroke="midnightblue" points="118.207,-192.095 107.793,-194.048 117.152,-199.015 118.207,-192.095"/>
</g>
<!-- Node5 -->
<g id="node5" class="node"><title>Node5</title>
<g id="a_node5"><a xlink:href="structfactory_1_1Remote__Rserver.html" target="_top" xlink:title="factory::Remote_Rserver\l\&lt; T, Socket, Router, Kernels \&gt;">
<polygon fill="white" stroke="black" points="144,-147 144,-177 296,-177 296,-147 144,-147"/>
<text text-anchor="start" x="152" y="-165" font-family="Helvetica,sans-Serif" font-size="10.00">factory::Remote_Rserver</text>
<text text-anchor="middle" x="220" y="-154" font-family="Helvetica,sans-Serif" font-size="10.00">&lt; T, Socket, Router, Kernels &gt;</text>
</a>
</g>
</g>
<!-- Node1&#45;&gt;Node5 -->
<g id="edge4" class="edge"><title>Node1&#45;&gt;Node5</title>
<path fill="none" stroke="midnightblue" d="M117.697,-176.825C126.27,-175.57 135.143,-174.272 143.909,-172.989"/>
<polygon fill="midnightblue" stroke="midnightblue" points="117.181,-173.363 107.793,-178.274 118.195,-180.289 117.181,-173.363"/>
</g>
<!-- Node6 -->
<g id="node6" class="node"><title>Node6</title>
<g id="a_node6"><a xlink:href="structfactory_1_1Server__with__pool.html" target="_top" xlink:title="factory::Server_with\l_pool\&lt; T, Kernels, Threads,\l Mutex, Lock, Semaphore \&gt;">
<polygon fill="white" stroke="black" points="151,-87.5 151,-128.5 289,-128.5 289,-87.5 151,-87.5"/>
<text text-anchor="start" x="159" y="-116.5" font-family="Helvetica,sans-Serif" font-size="10.00">factory::Server_with</text>
<text text-anchor="start" x="159" y="-105.5" font-family="Helvetica,sans-Serif" font-size="10.00">_pool&lt; T, Kernels, Threads,</text>
<text text-anchor="middle" x="220" y="-94.5" font-family="Helvetica,sans-Serif" font-size="10.00"> Mutex, Lock, Semaphore &gt;</text>
</a>
</g>
</g>
<!-- Node1&#45;&gt;Node6 -->
<g id="edge5" class="edge"><title>Node1&#45;&gt;Node6</title>
<path fill="none" stroke="midnightblue" d="M79.7694,-171.189C97.3721,-160.955 121.742,-147.373 144,-137 150.2,-134.11 156.775,-131.265 163.353,-128.551"/>
<polygon fill="midnightblue" stroke="midnightblue" points="77.5948,-168.407 70.7428,-176.487 81.1386,-174.443 77.5948,-168.407"/>
</g>
<!-- Node3 -->
<g id="node3" class="node"><title>Node3</title>
<g id="a_node3"><a xlink:href="structfactory_1_1Process__rserver.html" target="_top" xlink:title="factory::Process_rserver\l\&lt; T, Router \&gt;">
<polygon fill="white" stroke="black" points="351,-245 351,-275 475,-275 475,-245 351,-245"/>
<text text-anchor="start" x="359" y="-263" font-family="Helvetica,sans-Serif" font-size="10.00">factory::Process_rserver</text>
<text text-anchor="middle" x="413" y="-252" font-family="Helvetica,sans-Serif" font-size="10.00">&lt; T, Router &gt;</text>
</a>
</g>
</g>
<!-- Node2&#45;&gt;Node3 -->
<g id="edge2" class="edge"><title>Node2&#45;&gt;Node3</title>
<path fill="none" stroke="midnightblue" d="M291.233,-260C310.775,-260 331.839,-260 350.817,-260"/>
<polygon fill="midnightblue" stroke="midnightblue" points="291.171,-256.5 281.171,-260 291.171,-263.5 291.171,-256.5"/>
</g>
<!-- Node7 -->
<g id="node7" class="node"><title>Node7</title>
<g id="a_node7"><a xlink:href="structfactory_1_1Basic__CPU__server.html" target="_top" xlink:title="factory::Basic_CPU\l_server\&lt; T \&gt;">
<polygon fill="white" stroke="black" points="361,-186 361,-216 465,-216 465,-186 361,-186"/>
<text text-anchor="start" x="369" y="-204" font-family="Helvetica,sans-Serif" font-size="10.00">factory::Basic_CPU</text>
<text text-anchor="middle" x="413" y="-193" font-family="Helvetica,sans-Serif" font-size="10.00">_server&lt; T &gt;</text>
</a>
</g>
</g>
<!-- Node6&#45;&gt;Node7 -->
<g id="edge6" class="edge"><title>Node6&#45;&gt;Node7</title>
<path fill="none" stroke="midnightblue" d="M290.791,-133.665C292.571,-134.74 294.312,-135.852 296,-137 315.507,-150.264 312.066,-163.387 332,-176 340.731,-181.524 350.772,-185.907 360.726,-189.357"/>
<polygon fill="midnightblue" stroke="midnightblue" points="292.049,-130.361 281.604,-128.587 288.662,-136.488 292.049,-130.361"/>
</g>
<!-- Node10 -->
<g id="node10" class="node"><title>Node10</title>
<g id="a_node10"><a xlink:href="structfactory_1_1Proxy__server.html" target="_top" xlink:title="factory::Proxy_server\l\&lt; T, Rserver \&gt;">
<polygon fill="white" stroke="black" points="358,-137 358,-167 468,-167 468,-137 358,-137"/>
<text text-anchor="start" x="366" y="-155" font-family="Helvetica,sans-Serif" font-size="10.00">factory::Proxy_server</text>
<text text-anchor="middle" x="413" y="-144" font-family="Helvetica,sans-Serif" font-size="10.00">&lt; T, Rserver &gt;</text>
</a>
</g>
</g>
<!-- Node6&#45;&gt;Node10 -->
<g id="edge9" class="edge"><title>Node6&#45;&gt;Node10</title>
<path fill="none" stroke="midnightblue" d="M299.071,-125.985C318.859,-130.544 339.682,-135.34 357.982,-139.556"/>
<polygon fill="midnightblue" stroke="midnightblue" points="299.677,-122.533 289.146,-123.699 298.106,-129.354 299.677,-122.533"/>
</g>
<!-- Node11 -->
<g id="node11" class="node"><title>Node11</title>
<g id="a_node11"><a xlink:href="structfactory_1_1Timer__server.html" target="_top" xlink:title="factory::Timer_server\&lt; T \&gt;">
<polygon fill="white" stroke="black" points="346,-98.5 346,-117.5 480,-117.5 480,-98.5 346,-98.5"/>
<text text-anchor="middle" x="413" y="-105.5" font-family="Helvetica,sans-Serif" font-size="10.00">factory::Timer_server&lt; T &gt;</text>
</a>
</g>
</g>
<!-- Node6&#45;&gt;Node11 -->
<g id="edge10" class="edge"><title>Node6&#45;&gt;Node11</title>
<path fill="none" stroke="midnightblue" d="M299.206,-108C314.678,-108 330.776,-108 345.803,-108"/>
<polygon fill="midnightblue" stroke="midnightblue" points="299.147,-104.5 289.146,-108 299.146,-111.5 299.147,-104.5"/>
</g>
<!-- Node12 -->
<g id="node12" class="node"><title>Node12</title>
<g id="a_node12"><a xlink:href="structfactory_1_1Proxy__server.html" target="_top" xlink:title="Proxy_server\&lt; T, Process\l_rserver\&lt; T, Router \&gt; \&gt;">
<polygon fill="white" stroke="black" points="347.5,-49 347.5,-79 478.5,-79 478.5,-49 347.5,-49"/>
<text text-anchor="start" x="355.5" y="-67" font-family="Helvetica,sans-Serif" font-size="10.00">Proxy_server&lt; T, Process</text>
<text text-anchor="middle" x="413" y="-56" font-family="Helvetica,sans-Serif" font-size="10.00">_rserver&lt; T, Router &gt; &gt;</text>
</a>
</g>
</g>
<!-- Node6&#45;&gt;Node12 -->
<g id="edge11" class="edge"><title>Node6&#45;&gt;Node12</title>
<path fill="none" stroke="midnightblue" d="M299.046,-90.0207C315.115,-86.319 331.866,-82.4601 347.396,-78.8826"/>
<polygon fill="midnightblue" stroke="midnightblue" points="298.106,-86.6457 289.146,-92.3013 299.677,-93.4671 298.106,-86.6457"/>
</g>
<!-- Node15 -->
<g id="node15" class="node"><title>Node15</title>
<g id="a_node15"><a xlink:href="structfactory_1_1Proxy__server.html" target="_top" xlink:title="Proxy_server\&lt; T, Remote\l_Rserver\&lt; T, Socket, Router \&gt; \&gt;">
<polygon fill="white" stroke="black" points="332.5,-0 332.5,-30 493.5,-30 493.5,-0 332.5,-0"/>
<text text-anchor="start" x="340.5" y="-18" font-family="Helvetica,sans-Serif" font-size="10.00">Proxy_server&lt; T, Remote</text>
<text text-anchor="middle" x="413" y="-7" font-family="Helvetica,sans-Serif" font-size="10.00">_Rserver&lt; T, Socket, Router &gt; &gt;</text>
</a>
</g>
</g>
<!-- Node6&#45;&gt;Node15 -->
<g id="edge14" class="edge"><title>Node6&#45;&gt;Node15</title>
<path fill="none" stroke="midnightblue" d="M257.798,-81.6807C278.78,-67.5714 306.005,-50.7279 332,-39 339.27,-35.7203 347.108,-32.742 354.936,-30.0871"/>
<polygon fill="midnightblue" stroke="midnightblue" points="255.792,-78.812 249.501,-87.3363 259.735,-84.5961 255.792,-78.812"/>
</g>
<!-- Node8 -->
<g id="node8" class="node"><title>Node8</title>
<g id="a_node8"><a xlink:href="structfactory_1_1CPU__server.html" target="_top" xlink:title="factory::CPU_server\&lt; T \&gt;">
<polygon fill="white" stroke="black" points="530.5,-210.5 530.5,-229.5 661.5,-229.5 661.5,-210.5 530.5,-210.5"/>
<text text-anchor="middle" x="596" y="-217.5" font-family="Helvetica,sans-Serif" font-size="10.00">factory::CPU_server&lt; T &gt;</text>
</a>
</g>
</g>
<!-- Node7&#45;&gt;Node8 -->
<g id="edge7" class="edge"><title>Node7&#45;&gt;Node8</title>
<path fill="none" stroke="midnightblue" d="M475.547,-207.461C493.171,-209.311 512.432,-211.333 530.242,-213.202"/>
<polygon fill="midnightblue" stroke="midnightblue" points="475.694,-203.957 465.383,-206.394 474.963,-210.919 475.694,-203.957"/>
</g>
<!-- Node9 -->
<g id="node9" class="node"><title>Node9</title>
<g id="a_node9"><a xlink:href="structfactory_1_1IO__server.html" target="_top" xlink:title="factory::IO_server\&lt; T \&gt;">
<polygon fill="white" stroke="black" points="536.5,-172.5 536.5,-191.5 655.5,-191.5 655.5,-172.5 536.5,-172.5"/>
<text text-anchor="middle" x="596" y="-179.5" font-family="Helvetica,sans-Serif" font-size="10.00">factory::IO_server&lt; T &gt;</text>
</a>
</g>
</g>
<!-- Node7&#45;&gt;Node9 -->
<g id="edge8" class="edge"><title>Node7&#45;&gt;Node9</title>
<path fill="none" stroke="midnightblue" d="M475.483,-194.546C495.199,-192.476 516.97,-190.191 536.469,-188.144"/>
<polygon fill="midnightblue" stroke="midnightblue" points="474.963,-191.081 465.383,-195.606 475.694,-198.043 474.963,-191.081"/>
</g>
<!-- Node13 -->
<g id="node13" class="node"><title>Node13</title>
<g id="a_node13"><a xlink:href="structfactory_1_1Process__child__server.html" target="_top" xlink:title="factory::Process_child\l_server\&lt; T, Router \&gt;">
<polygon fill="white" stroke="black" points="539,-98 539,-128 653,-128 653,-98 539,-98"/>
<text text-anchor="start" x="547" y="-116" font-family="Helvetica,sans-Serif" font-size="10.00">factory::Process_child</text>
<text text-anchor="middle" x="596" y="-105" font-family="Helvetica,sans-Serif" font-size="10.00">_server&lt; T, Router &gt;</text>
</a>
</g>
</g>
<!-- Node12&#45;&gt;Node13 -->
<g id="edge12" class="edge"><title>Node12&#45;&gt;Node13</title>
<path fill="none" stroke="midnightblue" d="M479.561,-81.7485C499.177,-87.0591 520.49,-92.8288 539.401,-97.9484"/>
<polygon fill="midnightblue" stroke="midnightblue" points="480.35,-78.3362 469.783,-79.1014 478.521,-85.093 480.35,-78.3362"/>
</g>
<!-- Node14 -->
<g id="node14" class="node"><title>Node14</title>
<g id="a_node14"><a xlink:href="structfactory_1_1Process__iserver.html" target="_top" xlink:title="factory::Process_iserver\l\&lt; T, Router \&gt;">
<polygon fill="white" stroke="black" points="534.5,-49 534.5,-79 657.5,-79 657.5,-49 534.5,-49"/>
<text text-anchor="start" x="542.5" y="-67" font-family="Helvetica,sans-Serif" font-size="10.00">factory::Process_iserver</text>
<text text-anchor="middle" x="596" y="-56" font-family="Helvetica,sans-Serif" font-size="10.00">&lt; T, Router &gt;</text>
</a>
</g>
</g>
<!-- Node12&#45;&gt;Node14 -->
<g id="edge13" class="edge"><title>Node12&#45;&gt;Node14</title>
<path fill="none" stroke="midnightblue" d="M488.94,-64C504.075,-64 519.81,-64 534.38,-64"/>
<polygon fill="midnightblue" stroke="midnightblue" points="488.579,-60.5001 478.579,-64 488.579,-67.5001 488.579,-60.5001"/>
</g>
<!-- Node16 -->
<g id="node16" class="node"><title>Node16</title>
<g id="a_node16"><a xlink:href="structfactory_1_1NIC__server.html" target="_top" xlink:title="factory::NIC_server\l\&lt; T, Socket, Router \&gt;">
<polygon fill="white" stroke="black" points="539.5,-0 539.5,-30 652.5,-30 652.5,-0 539.5,-0"/>
<text text-anchor="start" x="547.5" y="-18" font-family="Helvetica,sans-Serif" font-size="10.00">factory::NIC_server</text>
<text text-anchor="middle" x="596" y="-7" font-family="Helvetica,sans-Serif" font-size="10.00">&lt; T, Socket, Router &gt;</text>
</a>
</g>
</g>
<!-- Node15&#45;&gt;Node16 -->
<g id="edge15" class="edge"><title>Node15&#45;&gt;Node16</title>
<path fill="none" stroke="midnightblue" d="M503.84,-15C515.996,-15 528.167,-15 539.477,-15"/>
<polygon fill="midnightblue" stroke="midnightblue" points="503.653,-11.5001 493.653,-15 503.653,-18.5001 503.653,-11.5001"/>
</g>
</g>
</svg>
