<?xml version="1.0" encoding="UTF-8" standalone="no"?>
<!DOCTYPE svg PUBLIC "-//W3C//DTD SVG 1.1//EN"
 "http://www.w3.org/Graphics/SVG/1.1/DTD/svg11.dtd">
<!-- Generated by graphviz version 2.36.0 (20140111.2315)
 -->
<!-- Title: asc::basic_socket_pipeline&lt; T, Handler &gt; Pages: 1 -->
<svg width="142pt" height="164pt"
 viewBox="0.00 0.00 142.00 164.00" xmlns="http://www.w3.org/2000/svg" xmlns:xlink="http://www.w3.org/1999/xlink">
<g id="graph0" class="graph" transform="scale(1 1) rotate(0) translate(4 160)">
<title>asc::basic_socket_pipeline&lt; T, Handler &gt;</title>
<polygon fill="white" stroke="none" points="-4,4 -4,-160 138,-160 138,4 -4,4"/>
<!-- Node1 -->
<g id="node1" class="node"><title>Node1</title>
<polygon fill="#bfbfbf" stroke="black" points="0,-1 0,-31 134,-31 134,-1 0,-1"/>
<text text-anchor="start" x="8" y="-19" font-family="Helvetica,sans-Serif" font-size="10.00">asc::basic_socket_pipeline</text>
<text text-anchor="middle" x="67" y="-8" font-family="Helvetica,sans-Serif" font-size="10.00">&lt; T, Handler &gt;</text>
</g>
<!-- Node2 -->
<g id="node2" class="node"><title>Node2</title>
<g id="a_node2"><a xlink:href="classasc_1_1basic__pipeline.html" target="_top" xlink:title="Proxy_pipeline_base\l\&lt; T, Handler \&gt;">
<polygon fill="white" stroke="black" points="13.5,-69 13.5,-99 120.5,-99 120.5,-69 13.5,-69"/>
<text text-anchor="start" x="21.5" y="-87" font-family="Helvetica,sans-Serif" font-size="10.00">Proxy_pipeline_base</text>
<text text-anchor="middle" x="67" y="-76" font-family="Helvetica,sans-Serif" font-size="10.00">&lt; T, Handler &gt;</text>
</a>
</g>
</g>
<!-- Node2&#45;&gt;Node1 -->
<g id="edge1" class="edge"><title>Node2&#45;&gt;Node1</title>
<path fill="none" stroke="midnightblue" d="M67,-58.5322C67,-49.3606 67,-39.2449 67,-31.2931"/>
<polygon fill="midnightblue" stroke="midnightblue" points="63.5001,-58.6789 67,-68.679 70.5001,-58.679 63.5001,-58.6789"/>
</g>
<!-- Node3 -->
<g id="node3" class="node"><title>Node3</title>
<g id="a_node3"><a xlink:href="classasc_1_1pipeline__base.html" target="_top" xlink:title="asc::pipeline_base">
<polygon fill="white" stroke="black" points="18,-136.5 18,-155.5 116,-155.5 116,-136.5 18,-136.5"/>
<text text-anchor="middle" x="67" y="-143.5" font-family="Helvetica,sans-Serif" font-size="10.00">asc::pipeline_base</text>
</a>
</g>
</g>
<!-- Node3&#45;&gt;Node2 -->
<g id="edge2" class="edge"><title>Node3&#45;&gt;Node2</title>
<path fill="none" stroke="midnightblue" d="M67,-126.371C67,-117.585 67,-107.272 67,-99.1408"/>
<polygon fill="midnightblue" stroke="midnightblue" points="63.5001,-126.403 67,-136.403 70.5001,-126.403 63.5001,-126.403"/>
</g>
</g>
</svg>
