<?xml version="1.0" encoding="UTF-8" standalone="no"?>
<!DOCTYPE svg PUBLIC "-//W3C//DTD SVG 1.1//EN"
 "http://www.w3.org/Graphics/SVG/1.1/DTD/svg11.dtd">
<!-- Generated by graphviz version 2.36.0 (20140111.2315)
 -->
<!-- Title: Main&lt; Address &gt; Pages: 1 -->
<svg width="610pt" height="224pt"
 viewBox="0.00 0.00 610.00 224.00" xmlns="http://www.w3.org/2000/svg" xmlns:xlink="http://www.w3.org/1999/xlink">
<g id="graph0" class="graph" transform="scale(1 1) rotate(0) translate(4 220)">
<title>Main&lt; Address &gt;</title>
<polygon fill="white" stroke="none" points="-4,4 -4,-220 606,-220 606,4 -4,4"/>
<!-- Node1 -->
<g id="node1" class="node"><title>Node1</title>
<polygon fill="#bfbfbf" stroke="black" points="216,-0.5 216,-19.5 308,-19.5 308,-0.5 216,-0.5"/>
<text text-anchor="middle" x="262" y="-7.5" font-family="Helvetica,sans-Serif" font-size="10.00">Main&lt; Address &gt;</text>
</g>
<!-- Node2 -->
<g id="node2" class="node"><title>Node2</title>
<g id="a_node2"><a xlink:href="structfactory_1_1Kernel.html" target="_top" xlink:title="factory::Kernel">
<polygon fill="white" stroke="black" points="79,-74.5 79,-93.5 159,-93.5 159,-74.5 79,-74.5"/>
<text text-anchor="middle" x="119" y="-81.5" font-family="Helvetica,sans-Serif" font-size="10.00">factory::Kernel</text>
</a>
</g>
</g>
<!-- Node2&#45;&gt;Node1 -->
<g id="edge1" class="edge"><title>Node2&#45;&gt;Node1</title>
<path fill="none" stroke="midnightblue" d="M140.469,-69.4665C167.548,-54.8064 213.396,-31.866 240.504,-19.531"/>
<polygon fill="midnightblue" stroke="midnightblue" points="138.48,-66.5662 131.411,-74.4579 141.858,-72.6969 138.48,-66.5662"/>
</g>
<!-- Node2&#45;&gt;Node1 -->
<g id="edge7" class="edge"><title>Node2&#45;&gt;Node1</title>
<path fill="none" stroke="midnightblue" d="M149.663,-70.2303C180.847,-55.6146 227.335,-32.0824 249.609,-19.531"/>
<polygon fill="midnightblue" stroke="midnightblue" points="148.128,-67.084 140.52,-74.4579 151.066,-73.4377 148.128,-67.084"/>
</g>
<!-- Node2&#45;&gt;Node2 -->
<g id="edge5" class="edge"><title>Node2&#45;&gt;Node2</title>
<path fill="none" stroke="#9a32cd" stroke-dasharray="5,2" d="M169.265,-89.1219C174.005,-88.073 177,-86.3657 177,-84 177,-80.2148 169.332,-78.1153 159.119,-77.7013"/>
<polygon fill="#9a32cd" stroke="#9a32cd" points="168.649,-85.6698 159.119,-90.2987 169.455,-92.6232 168.649,-85.6698"/>
<text text-anchor="middle" x="199.5" y="-87" font-family="Helvetica,sans-Serif" font-size="10.00"> _principal</text>
<text text-anchor="middle" x="199.5" y="-76" font-family="Helvetica,sans-Serif" font-size="10.00">_parent</text>
</g>
<!-- Node3 -->
<g id="node3" class="node"><title>Node3</title>
<g id="a_node3"><a xlink:href="structfactory_1_1Mobile__kernel.html" target="_top" xlink:title="factory::Mobile_kernel">
<polygon fill="white" stroke="black" points="62.5,-138.5 62.5,-157.5 175.5,-157.5 175.5,-138.5 62.5,-138.5"/>
<text text-anchor="middle" x="119" y="-145.5" font-family="Helvetica,sans-Serif" font-size="10.00">factory::Mobile_kernel</text>
</a>
</g>
</g>
<!-- Node3&#45;&gt;Node2 -->
<g id="edge2" class="edge"><title>Node3&#45;&gt;Node2</title>
<path fill="none" stroke="midnightblue" d="M119,-128.037C119,-116.53 119,-102.403 119,-93.5476"/>
<polygon fill="midnightblue" stroke="midnightblue" points="115.5,-128.379 119,-138.379 122.5,-128.379 115.5,-128.379"/>
</g>
<!-- Node4 -->
<g id="node4" class="node"><title>Node4</title>
<g id="a_node4"><a xlink:href="structfactory_1_1Basic__kernel.html" target="_top" xlink:title="factory::Basic_kernel">
<polygon fill="white" stroke="black" points="-0.5,-196.5 -0.5,-215.5 108.5,-215.5 108.5,-196.5 -0.5,-196.5"/>
<text text-anchor="middle" x="54" y="-203.5" font-family="Helvetica,sans-Serif" font-size="10.00">factory::Basic_kernel</text>
</a>
</g>
</g>
<!-- Node4&#45;&gt;Node3 -->
<g id="edge3" class="edge"><title>Node4&#45;&gt;Node3</title>
<path fill="none" stroke="midnightblue" d="M71.526,-189.901C83.5502,-179.541 99.0739,-166.167 109.035,-157.585"/>
<polygon fill="midnightblue" stroke="midnightblue" points="69.1637,-187.316 63.8721,-196.495 73.7327,-192.619 69.1637,-187.316"/>
</g>
<!-- Node5 -->
<g id="node5" class="node"><title>Node5</title>
<g id="a_node5"><a xlink:href="structfactory_1_1Kernel__header.html" target="_top" xlink:title="factory::Kernel_header">
<polygon fill="white" stroke="black" points="126.5,-196.5 126.5,-215.5 241.5,-215.5 241.5,-196.5 126.5,-196.5"/>
<text text-anchor="middle" x="184" y="-203.5" font-family="Helvetica,sans-Serif" font-size="10.00">factory::Kernel_header</text>
</a>
</g>
</g>
<!-- Node5&#45;&gt;Node3 -->
<g id="edge4" class="edge"><title>Node5&#45;&gt;Node3</title>
<path fill="none" stroke="midnightblue" d="M166.474,-189.901C154.45,-179.541 138.926,-166.167 128.965,-157.585"/>
<polygon fill="midnightblue" stroke="midnightblue" points="164.267,-192.619 174.128,-196.495 168.836,-187.316 164.267,-192.619"/>
</g>
<!-- Node6 -->
<g id="node6" class="node"><title>Node6</title>
<polygon fill="white" stroke="#bfbfbf" points="240,-74.5 240,-93.5 284,-93.5 284,-74.5 240,-74.5"/>
<text text-anchor="middle" x="262" y="-81.5" font-family="Helvetica,sans-Serif" font-size="10.00">Kernel</text>
</g>
<!-- Node6&#45;&gt;Node1 -->
<g id="edge6" class="edge"><title>Node6&#45;&gt;Node1</title>
<path fill="none" stroke="midnightblue" d="M255.984,-64.1562C254.648,-49.7123 255.136,-30.4594 257.448,-19.531"/>
<polygon fill="midnightblue" stroke="midnightblue" points="252.575,-65.0489 257.445,-74.4579 259.506,-64.0653 252.575,-65.0489"/>
</g>
<!-- Node6&#45;&gt;Node1 -->
<g id="edge8" class="edge"><title>Node6&#45;&gt;Node1</title>
<path fill="none" stroke="midnightblue" d="M268.016,-64.1562C269.352,-49.7123 268.864,-30.4594 266.552,-19.531"/>
<polygon fill="midnightblue" stroke="midnightblue" points="264.494,-64.0653 266.555,-74.4579 271.425,-65.0489 264.494,-64.0653"/>
</g>
<!-- Node7 -->
<g id="node7" class="node"><title>Node7</title>
<g id="a_node7"><a xlink:href="structsys_1_1cmdline.html" target="_top" xlink:title="sys::cmdline">
<polygon fill="white" stroke="black" points="302,-74.5 302,-93.5 374,-93.5 374,-74.5 302,-74.5"/>
<text text-anchor="middle" x="338" y="-81.5" font-family="Helvetica,sans-Serif" font-size="10.00">sys::cmdline</text>
</a>
</g>
</g>
<!-- Node7&#45;&gt;Node1 -->
<g id="edge9" class="edge"><title>Node7&#45;&gt;Node1</title>
<path fill="none" stroke="#9a32cd" stroke-dasharray="5,2" d="M321.63,-67.4913C306.138,-52.8145 283.454,-31.325 271.005,-19.531"/>
<polygon fill="#9a32cd" stroke="#9a32cd" points="319.317,-70.1213 328.983,-74.4579 324.131,-65.0396 319.317,-70.1213"/>
<text text-anchor="middle" x="324.5" y="-41.5" font-family="Helvetica,sans-Serif" font-size="10.00"> _cmdline</text>
</g>
<!-- Node8 -->
<g id="node8" class="node"><title>Node8</title>
<g id="a_node8"><a xlink:href="structsys_1_1basic__cmdline.html" target="_top" xlink:title="sys::basic_cmdline">
<polygon fill="white" stroke="black" points="287.5,-138.5 287.5,-157.5 388.5,-157.5 388.5,-138.5 287.5,-138.5"/>
<text text-anchor="middle" x="338" y="-145.5" font-family="Helvetica,sans-Serif" font-size="10.00">sys::basic_cmdline</text>
</a>
</g>
</g>
<!-- Node8&#45;&gt;Node7 -->
<g id="edge10" class="edge"><title>Node8&#45;&gt;Node7</title>
<path fill="none" stroke="midnightblue" d="M338,-128.037C338,-116.53 338,-102.403 338,-93.5476"/>
<polygon fill="midnightblue" stroke="midnightblue" points="334.5,-128.379 338,-138.379 341.5,-128.379 334.5,-128.379"/>
</g>
<!-- Node9 -->
<g id="node9" class="node"><title>Node9</title>
<g id="a_node9"><a xlink:href="classsys_1_1ifaddr.html" target="_top" xlink:title="sys::ifaddr\&lt; sys::ipv4\l_addr \&gt;">
<polygon fill="white" stroke="black" points="392.5,-69 392.5,-99 503.5,-99 503.5,-69 392.5,-69"/>
<text text-anchor="start" x="400.5" y="-87" font-family="Helvetica,sans-Serif" font-size="10.00">sys::ifaddr&lt; sys::ipv4</text>
<text text-anchor="middle" x="448" y="-76" font-family="Helvetica,sans-Serif" font-size="10.00">_addr &gt;</text>
</a>
</g>
</g>
<!-- Node9&#45;&gt;Node1 -->
<g id="edge11" class="edge"><title>Node9&#45;&gt;Node1</title>
<path fill="none" stroke="#9a32cd" stroke-dasharray="5,2" d="M411.042,-64.6195C392.894,-55.9586 370.559,-45.8344 350,-38 331.483,-30.9436 310.258,-24.3884 293.292,-19.5044"/>
<polygon fill="#9a32cd" stroke="#9a32cd" points="409.591,-67.8056 420.119,-68.9954 412.631,-61.5 409.591,-67.8056"/>
<text text-anchor="middle" x="399.5" y="-41.5" font-family="Helvetica,sans-Serif" font-size="10.00"> _network</text>
</g>
<!-- Node10 -->
<g id="node10" class="node"><title>Node10</title>
<g id="a_node10"><a xlink:href="unionsys_1_1ipv4__addr.html" target="_top" xlink:title="sys::ipv4_addr">
<polygon fill="white" stroke="black" points="522,-74.5 522,-93.5 602,-93.5 602,-74.5 522,-74.5"/>
<text text-anchor="middle" x="562" y="-81.5" font-family="Helvetica,sans-Serif" font-size="10.00">sys::ipv4_addr</text>
</a>
</g>
</g>
<!-- Node10&#45;&gt;Node1 -->
<g id="edge12" class="edge"><title>Node10&#45;&gt;Node1</title>
<path fill="none" stroke="#9a32cd" stroke-dasharray="5,2" d="M530.027,-70.9519C502.517,-60.9602 461.595,-46.9848 425,-38 386,-28.4248 340.908,-21.2475 308.05,-16.7091"/>
<polygon fill="#9a32cd" stroke="#9a32cd" points="528.929,-74.2772 539.523,-74.4362 531.341,-67.7056 528.929,-74.2772"/>
<text text-anchor="middle" x="496" y="-41.5" font-family="Helvetica,sans-Serif" font-size="10.00"> _masteraddr</text>
</g>
</g>
</svg>
