<?xml version="1.0" encoding="UTF-8" standalone="no"?>
<!DOCTYPE svg PUBLIC "-//W3C//DTD SVG 1.1//EN"
 "http://www.w3.org/Graphics/SVG/1.1/DTD/svg11.dtd">
<!-- Generated by graphviz version 2.38.0 (20140413.2041)
 -->
<!-- Title: factory::Buffered_server&lt; T, Router, Kernels &gt; Pages: 1 -->
<svg width="216pt" height="106pt"
 viewBox="0.00 0.00 215.50 106.00" xmlns="http://www.w3.org/2000/svg" xmlns:xlink="http://www.w3.org/1999/xlink">
<g id="graph0" class="graph" transform="scale(1 1) rotate(0) translate(4 102)">
<title>factory::Buffered_server&lt; T, Router, Kernels &gt;</title>
<polygon fill="white" stroke="none" points="-4,4 -4,-102 211.5,-102 211.5,4 -4,4"/>
<!-- Node1 -->
<g id="node1" class="node"><title>Node1</title>
<polygon fill="#bfbfbf" stroke="black" points="48.5,-0.5 48.5,-30.5 170.5,-30.5 170.5,-0.5 48.5,-0.5"/>
<text text-anchor="start" x="56.5" y="-18.5" font-family="Helvetica,sans-Serif" font-size="10.00">factory::Buffered_server</text>
<text text-anchor="middle" x="109.5" y="-7.5" font-family="Helvetica,sans-Serif" font-size="10.00">&lt; T, Router, Kernels &gt;</text>
</g>
<!-- Node2 -->
<g id="node2" class="node"><title>Node2</title>
<g id="a_node2"><a xlink:href="structfactory_1_1Server__base.html" target="_top" xlink:title="factory::Server_base">
<polygon fill="white" stroke="black" points="0,-78.5 0,-97.5 107,-97.5 107,-78.5 0,-78.5"/>
<text text-anchor="middle" x="53.5" y="-85.5" font-family="Helvetica,sans-Serif" font-size="10.00">factory::Server_base</text>
</a>
</g>
</g>
<!-- Node2&#45;&gt;Node1 -->
<g id="edge1" class="edge"><title>Node2&#45;&gt;Node1</title>
<path fill="none" stroke="midnightblue" d="M66.6916,-70.3927C76.3109,-58.2828 89.2039,-42.0514 98.3189,-30.5762"/>
<polygon fill="midnightblue" stroke="midnightblue" points="63.8459,-68.348 60.3667,-78.3553 69.3272,-72.7019 63.8459,-68.348"/>
</g>
<!-- Node3 -->
<g id="node3" class="node"><title>Node3</title>
<g id="a_node3"><a xlink:href="structfactory_1_1Router.html" target="_top" xlink:title="factory::Router">
<polygon fill="white" stroke="black" points="125.5,-78.5 125.5,-97.5 207.5,-97.5 207.5,-78.5 125.5,-78.5"/>
<text text-anchor="middle" x="166.5" y="-85.5" font-family="Helvetica,sans-Serif" font-size="10.00">factory::Router</text>
</a>
</g>
</g>
<!-- Node3&#45;&gt;Node1 -->
<g id="edge2" class="edge"><title>Node3&#45;&gt;Node1</title>
<path fill="none" stroke="#9a32cd" stroke-dasharray="5,2" d="M153.073,-70.3927C143.282,-58.2828 130.159,-42.0514 120.881,-30.5762"/>
<polygon fill="#9a32cd" stroke="#9a32cd" points="150.502,-72.7795 159.511,-78.3553 155.945,-68.3785 150.502,-72.7795"/>
<text text-anchor="middle" x="160.5" y="-52" font-family="Helvetica,sans-Serif" font-size="10.00"> _router</text>
</g>
</g>
</svg>
