<?xml version="1.0" encoding="UTF-8" standalone="no"?>
<!DOCTYPE svg PUBLIC "-//W3C//DTD SVG 1.1//EN"
 "http://www.w3.org/Graphics/SVG/1.1/DTD/svg11.dtd">
<!-- Generated by graphviz version 2.36.0 (20140111.2315)
 -->
<!-- Title: Kernel_that_writes_more_than_reads Pages: 1 -->
<svg width="249pt" height="264pt"
 viewBox="0.00 0.00 249.00 264.00" xmlns="http://www.w3.org/2000/svg" xmlns:xlink="http://www.w3.org/1999/xlink">
<g id="graph0" class="graph" transform="scale(1 1) rotate(0) translate(4 260)">
<title>Kernel_that_writes_more_than_reads</title>
<polygon fill="white" stroke="none" points="-4,4 -4,-260 245,-260 245,4 -4,4"/>
<!-- Node1 -->
<g id="node1" class="node"><title>Node1</title>
<polygon fill="#bfbfbf" stroke="black" points="70,-1 70,-31 168,-31 168,-1 70,-1"/>
<text text-anchor="start" x="78" y="-19" font-family="Helvetica,sans-Serif" font-size="10.00">Kernel_that_writes</text>
<text text-anchor="middle" x="119" y="-8" font-family="Helvetica,sans-Serif" font-size="10.00">_more_than_reads</text>
</g>
<!-- Node2 -->
<g id="node2" class="node"><title>Node2</title>
<g id="a_node2"><a xlink:href="structGood__kernel.html" target="_top" xlink:title="Good_kernel">
<polygon fill="white" stroke="black" points="83.5,-68.5 83.5,-87.5 154.5,-87.5 154.5,-68.5 83.5,-68.5"/>
<text text-anchor="middle" x="119" y="-75.5" font-family="Helvetica,sans-Serif" font-size="10.00">Good_kernel</text>
</a>
</g>
</g>
<!-- Node2&#45;&gt;Node1 -->
<g id="edge1" class="edge"><title>Node2&#45;&gt;Node1</title>
<path fill="none" stroke="midnightblue" d="M119,-58.3707C119,-49.5849 119,-39.2721 119,-31.1408"/>
<polygon fill="midnightblue" stroke="midnightblue" points="115.5,-58.4034 119,-68.4035 122.5,-58.4035 115.5,-58.4034"/>
</g>
<!-- Node3 -->
<g id="node3" class="node"><title>Node3</title>
<g id="a_node3"><a xlink:href="structfactory_1_1Kernel.html" target="_top" xlink:title="factory::Kernel">
<polygon fill="white" stroke="black" points="79,-124.5 79,-143.5 159,-143.5 159,-124.5 79,-124.5"/>
<text text-anchor="middle" x="119" y="-131.5" font-family="Helvetica,sans-Serif" font-size="10.00">factory::Kernel</text>
</a>
</g>
</g>
<!-- Node3&#45;&gt;Node2 -->
<g id="edge2" class="edge"><title>Node3&#45;&gt;Node2</title>
<path fill="none" stroke="midnightblue" d="M119,-113.805C119,-104.91 119,-94.7798 119,-87.7511"/>
<polygon fill="midnightblue" stroke="midnightblue" points="115.5,-114.083 119,-124.083 122.5,-114.083 115.5,-114.083"/>
</g>
<!-- Node4 -->
<g id="node4" class="node"><title>Node4</title>
<g id="a_node4"><a xlink:href="structfactory_1_1Mobile__kernel.html" target="_top" xlink:title="factory::Mobile_kernel">
<polygon fill="white" stroke="black" points="62.5,-180.5 62.5,-199.5 175.5,-199.5 175.5,-180.5 62.5,-180.5"/>
<text text-anchor="middle" x="119" y="-187.5" font-family="Helvetica,sans-Serif" font-size="10.00">factory::Mobile_kernel</text>
</a>
</g>
</g>
<!-- Node4&#45;&gt;Node3 -->
<g id="edge3" class="edge"><title>Node4&#45;&gt;Node3</title>
<path fill="none" stroke="midnightblue" d="M119,-169.805C119,-160.91 119,-150.78 119,-143.751"/>
<polygon fill="midnightblue" stroke="midnightblue" points="115.5,-170.083 119,-180.083 122.5,-170.083 115.5,-170.083"/>
</g>
<!-- Node5 -->
<g id="node5" class="node"><title>Node5</title>
<g id="a_node5"><a xlink:href="structfactory_1_1Basic__kernel.html" target="_top" xlink:title="factory::Basic_kernel">
<polygon fill="white" stroke="black" points="-0.5,-236.5 -0.5,-255.5 108.5,-255.5 108.5,-236.5 -0.5,-236.5"/>
<text text-anchor="middle" x="54" y="-243.5" font-family="Helvetica,sans-Serif" font-size="10.00">factory::Basic_kernel</text>
</a>
</g>
</g>
<!-- Node5&#45;&gt;Node4 -->
<g id="edge4" class="edge"><title>Node5&#45;&gt;Node4</title>
<path fill="none" stroke="midnightblue" d="M72.2726,-229.82C83.9178,-220.145 98.5995,-207.948 108.367,-199.834"/>
<polygon fill="midnightblue" stroke="midnightblue" points="69.8987,-227.242 64.4434,-236.324 74.3719,-232.626 69.8987,-227.242"/>
</g>
<!-- Node6 -->
<g id="node6" class="node"><title>Node6</title>
<g id="a_node6"><a xlink:href="structfactory_1_1Kernel__header.html" target="_top" xlink:title="factory::Kernel_header">
<polygon fill="white" stroke="black" points="126.5,-236.5 126.5,-255.5 241.5,-255.5 241.5,-236.5 126.5,-236.5"/>
<text text-anchor="middle" x="184" y="-243.5" font-family="Helvetica,sans-Serif" font-size="10.00">factory::Kernel_header</text>
</a>
</g>
</g>
<!-- Node6&#45;&gt;Node4 -->
<g id="edge5" class="edge"><title>Node6&#45;&gt;Node4</title>
<path fill="none" stroke="midnightblue" d="M165.727,-229.82C154.082,-220.145 139.401,-207.948 129.633,-199.834"/>
<polygon fill="midnightblue" stroke="midnightblue" points="163.628,-232.626 173.557,-236.324 168.101,-227.242 163.628,-232.626"/>
</g>
</g>
</svg>
