<?xml version="1.0" encoding="UTF-8" standalone="no"?>
<!DOCTYPE svg PUBLIC "-//W3C//DTD SVG 1.1//EN"
 "http://www.w3.org/Graphics/SVG/1.1/DTD/svg11.dtd">
<!-- Generated by graphviz version 2.36.0 (20140111.2315)
 -->
<!-- Title: discovery::Hierarchy&lt; Addr &gt; Pages: 1 -->
<svg width="223pt" height="118pt"
 viewBox="0.00 0.00 223.00 118.00" xmlns="http://www.w3.org/2000/svg" xmlns:xlink="http://www.w3.org/1999/xlink">
<g id="graph0" class="graph" transform="scale(1 1) rotate(0) translate(4 114)">
<title>discovery::Hierarchy&lt; Addr &gt;</title>
<polygon fill="white" stroke="none" points="-4,4 -4,-114 219,-114 219,4 -4,4"/>
<!-- Node1 -->
<g id="node1" class="node"><title>Node1</title>
<polygon fill="#bfbfbf" stroke="black" points="41.5,-1 41.5,-31 148.5,-31 148.5,-1 41.5,-1"/>
<text text-anchor="start" x="49.5" y="-19" font-family="Helvetica,sans-Serif" font-size="10.00">discovery::Hierarchy</text>
<text text-anchor="middle" x="95" y="-8" font-family="Helvetica,sans-Serif" font-size="10.00">&lt; Addr &gt;</text>
</g>
<!-- Node2 -->
<g id="node2" class="node"><title>Node2</title>
<g id="a_node2"><a xlink:href="unionsys_1_1endpoint.html" target="_top" xlink:title="sys::endpoint">
<polygon fill="white" stroke="black" points="-0.5,-90.5 -0.5,-109.5 74.5,-109.5 74.5,-90.5 -0.5,-90.5"/>
<text text-anchor="middle" x="37" y="-97.5" font-family="Helvetica,sans-Serif" font-size="10.00">sys::endpoint</text>
</a>
</g>
</g>
<!-- Node2&#45;&gt;Node1 -->
<g id="edge1" class="edge"><title>Node2&#45;&gt;Node1</title>
<path fill="none" stroke="#9a32cd" stroke-dasharray="5,2" d="M49.1363,-81.8418C59.7625,-66.8185 75.018,-45.2504 84.9675,-31.1839"/>
<polygon fill="#9a32cd" stroke="#9a32cd" points="46.1242,-80.0392 43.207,-90.2246 51.8392,-84.0815 46.1242,-80.0392"/>
<text text-anchor="middle" x="95" y="-64" font-family="Helvetica,sans-Serif" font-size="10.00"> _bindaddr</text>
<text text-anchor="middle" x="95" y="-53" font-family="Helvetica,sans-Serif" font-size="10.00">_principal</text>
</g>
<!-- Node3 -->
<g id="node3" class="node"><title>Node3</title>
<g id="a_node3"><a xlink:href="classsys_1_1ifaddr.html" target="_top" xlink:title="sys::ifaddr\&lt; addr_type \&gt;">
<polygon fill="white" stroke="black" points="92.5,-90.5 92.5,-109.5 215.5,-109.5 215.5,-90.5 92.5,-90.5"/>
<text text-anchor="middle" x="154" y="-97.5" font-family="Helvetica,sans-Serif" font-size="10.00">sys::ifaddr&lt; addr_type &gt;</text>
</a>
</g>
</g>
<!-- Node3&#45;&gt;Node1 -->
<g id="edge2" class="edge"><title>Node3&#45;&gt;Node1</title>
<path fill="none" stroke="#9a32cd" stroke-dasharray="5,2" d="M143.477,-81.916C137.434,-72.3599 129.564,-60.3283 122,-50 117.364,-43.6696 111.938,-36.9238 107.171,-31.1919"/>
<polygon fill="#9a32cd" stroke="#9a32cd" points="140.566,-83.8632 148.831,-90.4923 146.504,-80.1561 140.566,-83.8632"/>
<text text-anchor="middle" x="157.5" y="-58.5" font-family="Helvetica,sans-Serif" font-size="10.00"> _network</text>
</g>
</g>
</svg>
