<?xml version="1.0" encoding="UTF-8" standalone="no"?>
<!DOCTYPE svg PUBLIC "-//W3C//DTD SVG 1.1//EN"
 "http://www.w3.org/Graphics/SVG/1.1/DTD/svg11.dtd">
<!-- Generated by graphviz version 2.36.0 (20140111.2315)
 -->
<!-- Title: bsc::kernel Pages: 1 -->
<svg width="684pt" height="1188pt"
 viewBox="0.00 0.00 684.00 1188.00" xmlns="http://www.w3.org/2000/svg" xmlns:xlink="http://www.w3.org/1999/xlink">
<g id="graph0" class="graph" transform="scale(1 1) rotate(0) translate(4 1184)">
<title>bsc::kernel</title>
<polygon fill="white" stroke="none" points="-4,4 -4,-1184 680,-1184 680,4 -4,4"/>
<!-- Node1 -->
<g id="node1" class="node"><title>Node1</title>
<polygon fill="#bfbfbf" stroke="black" points="270.5,-487.5 270.5,-506.5 335.5,-506.5 335.5,-487.5 270.5,-487.5"/>
<text text-anchor="middle" x="303" y="-494.5" font-family="Helvetica,sans-Serif" font-size="10.00">bsc::kernel</text>
</g>
<!-- Node5 -->
<g id="node5" class="node"><title>Node5</title>
<g id="a_node5"><a xlink:href="structautoreg_1_1ACF__generator.html" target="_top" xlink:title="autoreg::ACF_generator\&lt; T \&gt;">
<polygon fill="white" stroke="black" points="372.5,-1160.5 372.5,-1179.5 517.5,-1179.5 517.5,-1160.5 372.5,-1160.5"/>
<text text-anchor="middle" x="445" y="-1167.5" font-family="Helvetica,sans-Serif" font-size="10.00">autoreg::ACF_generator&lt; T &gt;</text>
</a>
</g>
</g>
<!-- Node1&#45;&gt;Node5 -->
<g id="edge4" class="edge"><title>Node1&#45;&gt;Node5</title>
<path fill="none" stroke="midnightblue" d="M304.746,-517.049C308.811,-621.619 329.684,-1101.59 372,-1151 375.28,-1154.83 379.231,-1157.93 383.573,-1160.44"/>
<polygon fill="midnightblue" stroke="midnightblue" points="308.238,-516.773 304.359,-506.913 301.243,-517.04 308.238,-516.773"/>
</g>
<!-- Node6 -->
<g id="node6" class="node"><title>Node6</title>
<g id="a_node6"><a xlink:href="structautoreg_1_1Autoreg__coefs.html" target="_top" xlink:title="autoreg::Autoreg_coefs\&lt; T \&gt;">
<polygon fill="white" stroke="black" points="374,-1122.5 374,-1141.5 516,-1141.5 516,-1122.5 374,-1122.5"/>
<text text-anchor="middle" x="445" y="-1129.5" font-family="Helvetica,sans-Serif" font-size="10.00">autoreg::Autoreg_coefs&lt; T &gt;</text>
</a>
</g>
</g>
<!-- Node1&#45;&gt;Node6 -->
<g id="edge5" class="edge"><title>Node1&#45;&gt;Node6</title>
<path fill="none" stroke="midnightblue" d="M304.871,-516.821C309.454,-617.221 332.093,-1066.7 372,-1113 375.292,-1116.82 379.251,-1119.92 383.599,-1122.42"/>
<polygon fill="midnightblue" stroke="midnightblue" points="308.366,-516.644 304.421,-506.811 301.373,-516.958 308.366,-516.644"/>
</g>
<!-- Node7 -->
<g id="node7" class="node"><title>Node7</title>
<g id="a_node7"><a xlink:href="classautoreg_1_1Autoreg__model.html" target="_top" xlink:title="autoreg::Autoreg_model\&lt; T \&gt;">
<polygon fill="white" stroke="black" points="373,-1084.5 373,-1103.5 517,-1103.5 517,-1084.5 373,-1084.5"/>
<text text-anchor="middle" x="445" y="-1091.5" font-family="Helvetica,sans-Serif" font-size="10.00">autoreg::Autoreg_model&lt; T &gt;</text>
</a>
</g>
</g>
<!-- Node1&#45;&gt;Node7 -->
<g id="edge6" class="edge"><title>Node1&#45;&gt;Node7</title>
<path fill="none" stroke="midnightblue" d="M305.034,-516.746C310.246,-613.059 334.864,-1030.67 372,-1074 375.715,-1078.33 380.279,-1081.77 385.292,-1084.49"/>
<polygon fill="midnightblue" stroke="midnightblue" points="308.523,-516.439 304.495,-506.64 301.532,-516.812 308.523,-516.439"/>
</g>
<!-- Node8 -->
<g id="node8" class="node"><title>Node8</title>
<g id="a_node8"><a xlink:href="structautoreg_1_1Generator1.html" target="_top" xlink:title="autoreg::Generator1\l\&lt; T, Grid \&gt;">
<polygon fill="white" stroke="black" points="393.5,-1035 393.5,-1065 496.5,-1065 496.5,-1035 393.5,-1035"/>
<text text-anchor="start" x="401.5" y="-1053" font-family="Helvetica,sans-Serif" font-size="10.00">autoreg::Generator1</text>
<text text-anchor="middle" x="445" y="-1042" font-family="Helvetica,sans-Serif" font-size="10.00">&lt; T, Grid &gt;</text>
</a>
</g>
</g>
<!-- Node1&#45;&gt;Node8 -->
<g id="edge7" class="edge"><title>Node1&#45;&gt;Node8</title>
<path fill="none" stroke="midnightblue" d="M303.86,-516.795C303.64,-603.001 306.944,-944.935 372,-1025 377.591,-1031.88 385.187,-1036.87 393.356,-1040.49"/>
<polygon fill="midnightblue" stroke="midnightblue" points="307.36,-516.594 303.907,-506.578 300.361,-516.562 307.36,-516.594"/>
</g>
<!-- Node9 -->
<g id="node9" class="node"><title>Node9</title>
<g id="a_node9"><a xlink:href="structautoreg_1_1Solve__Yule__Walker.html" target="_top" xlink:title="autoreg::Solve_Yule\l_Walker\&lt; T \&gt;">
<polygon fill="white" stroke="black" points="393,-986 393,-1016 497,-1016 497,-986 393,-986"/>
<text text-anchor="start" x="401" y="-1004" font-family="Helvetica,sans-Serif" font-size="10.00">autoreg::Solve_Yule</text>
<text text-anchor="middle" x="445" y="-993" font-family="Helvetica,sans-Serif" font-size="10.00">_Walker&lt; T &gt;</text>
</a>
</g>
</g>
<!-- Node1&#45;&gt;Node9 -->
<g id="edge8" class="edge"><title>Node1&#45;&gt;Node9</title>
<path fill="none" stroke="midnightblue" d="M304.156,-517.255C305.183,-599.086 312.973,-904.308 372,-976 377.467,-982.64 384.799,-987.52 392.698,-991.105"/>
<polygon fill="midnightblue" stroke="midnightblue" points="307.652,-516.82 304.048,-506.857 300.652,-516.893 307.652,-516.82"/>
</g>
<!-- Node10 -->
<g id="node10" class="node"><title>Node10</title>
<g id="a_node10"><a xlink:href="structautoreg_1_1Wave__surface__generator.html" target="_top" xlink:title="autoreg::Wave_surface\l_generator\&lt; T, Grid \&gt;">
<polygon fill="white" stroke="black" points="386,-937 386,-967 504,-967 504,-937 386,-937"/>
<text text-anchor="start" x="394" y="-955" font-family="Helvetica,sans-Serif" font-size="10.00">autoreg::Wave_surface</text>
<text text-anchor="middle" x="445" y="-944" font-family="Helvetica,sans-Serif" font-size="10.00">_generator&lt; T, Grid &gt;</text>
</a>
</g>
</g>
<!-- Node1&#45;&gt;Node10 -->
<g id="edge9" class="edge"><title>Node1&#45;&gt;Node10</title>
<path fill="none" stroke="midnightblue" d="M304.5,-516.623C306.806,-592.19 318.717,-863.318 372,-927 375.821,-931.567 380.523,-935.301 385.679,-938.353"/>
<polygon fill="midnightblue" stroke="midnightblue" points="307.997,-516.483 304.216,-506.586 301,-516.681 307.997,-516.483"/>
</g>
<!-- Node11 -->
<g id="node11" class="node"><title>Node11</title>
<g id="a_node11"><a xlink:href="structAutoreg__app.html" target="_top" xlink:title="Autoreg_app">
<polygon fill="white" stroke="black" points="409.5,-898.5 409.5,-917.5 480.5,-917.5 480.5,-898.5 409.5,-898.5"/>
<text text-anchor="middle" x="445" y="-905.5" font-family="Helvetica,sans-Serif" font-size="10.00">Autoreg_app</text>
</a>
</g>
</g>
<!-- Node1&#45;&gt;Node11 -->
<g id="edge10" class="edge"><title>Node1&#45;&gt;Node11</title>
<path fill="none" stroke="midnightblue" d="M304.71,-517.278C307.656,-589.621 321.248,-833.671 372,-889 381.525,-899.384 395.992,-904.37 409.466,-906.672"/>
<polygon fill="midnightblue" stroke="midnightblue" points="308.191,-516.713 304.313,-506.854 301.196,-516.98 308.191,-516.713"/>
</g>
<!-- Node12 -->
<g id="node12" class="node"><title>Node12</title>
<g id="a_node12"><a xlink:href="structBig__kernel.html" target="_top" xlink:title="Big_kernel\&lt; Size \&gt;">
<polygon fill="white" stroke="black" points="395,-860.5 395,-879.5 495,-879.5 495,-860.5 395,-860.5"/>
<text text-anchor="middle" x="445" y="-867.5" font-family="Helvetica,sans-Serif" font-size="10.00">Big_kernel&lt; Size &gt;</text>
</a>
</g>
</g>
<!-- Node1&#45;&gt;Node12 -->
<g id="edge11" class="edge"><title>Node1&#45;&gt;Node12</title>
<path fill="none" stroke="midnightblue" d="M305.082,-516.606C309.172,-583.539 325.865,-801.605 372,-851 378.177,-857.614 386.359,-862.031 394.988,-864.959"/>
<polygon fill="midnightblue" stroke="midnightblue" points="308.573,-516.347 304.496,-506.568 301.585,-516.756 308.573,-516.347"/>
</g>
<!-- Node13 -->
<g id="node13" class="node"><title>Node13</title>
<g id="a_node13"><a xlink:href="classbsc_1_1discovery__timer.html" target="_top" xlink:title="bsc::discovery_timer">
<polygon fill="white" stroke="black" points="391.5,-822.5 391.5,-841.5 498.5,-841.5 498.5,-822.5 391.5,-822.5"/>
<text text-anchor="middle" x="445" y="-829.5" font-family="Helvetica,sans-Serif" font-size="10.00">bsc::discovery_timer</text>
</a>
</g>
</g>
<!-- Node1&#45;&gt;Node13 -->
<g id="edge12" class="edge"><title>Node1&#45;&gt;Node13</title>
<path fill="none" stroke="midnightblue" d="M305.6,-516.892C311.017,-579.313 330.68,-769.732 372,-813 377.357,-818.61 384.158,-822.634 391.432,-825.507"/>
<polygon fill="midnightblue" stroke="midnightblue" points="309.076,-516.463 304.752,-506.79 302.101,-517.048 309.076,-516.463"/>
</g>
<!-- Node14 -->
<g id="node14" class="node"><title>Node14</title>
<g id="a_node14"><a xlink:href="classbsc_1_1hierarchy__kernel.html" target="_top" xlink:title="bsc::hierarchy_kernel">
<polygon fill="white" stroke="black" points="390,-784.5 390,-803.5 500,-803.5 500,-784.5 390,-784.5"/>
<text text-anchor="middle" x="445" y="-791.5" font-family="Helvetica,sans-Serif" font-size="10.00">bsc::hierarchy_kernel</text>
</a>
</g>
</g>
<!-- Node1&#45;&gt;Node14 -->
<g id="edge13" class="edge"><title>Node1&#45;&gt;Node14</title>
<path fill="none" stroke="midnightblue" d="M306.254,-517.072C313.099,-574.506 335.44,-737.772 372,-775 376.982,-780.073 383.147,-783.843 389.756,-786.636"/>
<polygon fill="midnightblue" stroke="midnightblue" points="309.69,-516.314 305.06,-506.784 302.736,-517.121 309.69,-516.314"/>
</g>
<!-- Node15 -->
<g id="node15" class="node"><title>Node15</title>
<g id="a_node15"><a xlink:href="structbsc_1_1Map.html" target="_top" xlink:title="bsc::Map\&lt; F, G, I \&gt;">
<polygon fill="white" stroke="black" points="393,-746.5 393,-765.5 497,-765.5 497,-746.5 393,-746.5"/>
<text text-anchor="middle" x="445" y="-753.5" font-family="Helvetica,sans-Serif" font-size="10.00">bsc::Map&lt; F, G, I &gt;</text>
</a>
</g>
</g>
<!-- Node1&#45;&gt;Node15 -->
<g id="edge14" class="edge"><title>Node1&#45;&gt;Node15</title>
<path fill="none" stroke="midnightblue" d="M303.551,-516.912C303.654,-562.435 310.504,-674.887 372,-736 377.797,-741.761 385.102,-745.898 392.82,-748.861"/>
<polygon fill="midnightblue" stroke="midnightblue" points="307.051,-516.884 303.641,-506.853 300.051,-516.821 307.051,-516.884"/>
</g>
<!-- Node16 -->
<g id="node16" class="node"><title>Node16</title>
<g id="a_node16"><a xlink:href="structbsc_1_1Map_1_1Worker.html" target="_top" xlink:title="bsc::Map\&lt; F, G, I \&gt;\l::Worker">
<polygon fill="white" stroke="black" points="393,-697 393,-727 497,-727 497,-697 393,-697"/>
<text text-anchor="start" x="401" y="-715" font-family="Helvetica,sans-Serif" font-size="10.00">bsc::Map&lt; F, G, I &gt;</text>
<text text-anchor="middle" x="445" y="-704" font-family="Helvetica,sans-Serif" font-size="10.00">::Worker</text>
</a>
</g>
</g>
<!-- Node1&#45;&gt;Node16 -->
<g id="edge15" class="edge"><title>Node1&#45;&gt;Node16</title>
<path fill="none" stroke="midnightblue" d="M305.598,-517.193C309.702,-555.561 323.953,-639.407 372,-687 377.828,-692.773 385.057,-697.217 392.665,-700.636"/>
<polygon fill="midnightblue" stroke="midnightblue" points="309.045,-516.464 304.624,-506.836 302.075,-517.12 309.045,-516.464"/>
</g>
<!-- Node17 -->
<g id="node17" class="node"><title>Node17</title>
<g id="a_node17"><a xlink:href="classbsc_1_1network__master.html" target="_top" xlink:title="bsc::network_master">
<polygon fill="white" stroke="black" points="391,-658.5 391,-677.5 499,-677.5 499,-658.5 391,-658.5"/>
<text text-anchor="middle" x="445" y="-665.5" font-family="Helvetica,sans-Serif" font-size="10.00">bsc::network_master</text>
</a>
</g>
</g>
<!-- Node1&#45;&gt;Node17 -->
<g id="edge16" class="edge"><title>Node1&#45;&gt;Node17</title>
<path fill="none" stroke="midnightblue" d="M307.181,-516.57C313.512,-549.061 330.804,-614.013 372,-649 377.518,-653.686 384.067,-657.232 390.933,-659.911"/>
<polygon fill="midnightblue" stroke="midnightblue" points="310.591,-515.757 305.378,-506.534 303.701,-516.995 310.591,-515.757"/>
</g>
<!-- Node18 -->
<g id="node18" class="node"><title>Node18</title>
<g id="a_node18"><a xlink:href="classbsc_1_1network__timer.html" target="_top" xlink:title="bsc::network_timer">
<polygon fill="white" stroke="black" points="395,-620.5 395,-639.5 495,-639.5 495,-620.5 395,-620.5"/>
<text text-anchor="middle" x="445" y="-627.5" font-family="Helvetica,sans-Serif" font-size="10.00">bsc::network_timer</text>
</a>
</g>
</g>
<!-- Node1&#45;&gt;Node18 -->
<g id="edge17" class="edge"><title>Node1&#45;&gt;Node18</title>
<path fill="none" stroke="midnightblue" d="M310.299,-516.347C319.638,-541.931 339.624,-586.617 372,-611 378.713,-616.055 386.658,-619.768 394.778,-622.495"/>
<polygon fill="midnightblue" stroke="midnightblue" points="313.526,-514.968 306.944,-506.666 306.912,-517.261 313.526,-514.968"/>
</g>
<!-- Node19 -->
<g id="node19" class="node"><title>Node19</title>
<g id="a_node19"><a xlink:href="classbsc_1_1Notification.html" target="_top" xlink:title="bsc::Notification">
<polygon fill="white" stroke="black" points="401,-582.5 401,-601.5 489,-601.5 489,-582.5 401,-582.5"/>
<text text-anchor="middle" x="445" y="-589.5" font-family="Helvetica,sans-Serif" font-size="10.00">bsc::Notification</text>
</a>
</g>
</g>
<!-- Node1&#45;&gt;Node19 -->
<g id="edge18" class="edge"><title>Node1&#45;&gt;Node19</title>
<path fill="none" stroke="midnightblue" d="M315.635,-515.257C327.672,-532.663 348.049,-558.334 372,-573 380.71,-578.333 390.901,-582.185 400.829,-584.96"/>
<polygon fill="midnightblue" stroke="midnightblue" points="318.296,-512.938 309.836,-506.559 312.471,-516.821 318.296,-512.938"/>
</g>
<!-- Node20 -->
<g id="node20" class="node"><title>Node20</title>
<g id="a_node20"><a xlink:href="classbsc_1_1probe.html" target="_top" xlink:title="bsc::probe">
<polygon fill="white" stroke="black" points="414,-544.5 414,-563.5 476,-563.5 476,-544.5 414,-544.5"/>
<text text-anchor="middle" x="445" y="-551.5" font-family="Helvetica,sans-Serif" font-size="10.00">bsc::probe</text>
</a>
</g>
</g>
<!-- Node1&#45;&gt;Node20 -->
<g id="edge19" class="edge"><title>Node1&#45;&gt;Node20</title>
<path fill="none" stroke="midnightblue" d="M327.215,-511.897C340.031,-519.62 356.46,-528.725 372,-535 385.306,-540.373 400.609,-544.659 413.677,-547.79"/>
<polygon fill="midnightblue" stroke="midnightblue" points="328.935,-508.845 318.586,-506.576 325.261,-514.804 328.935,-508.845"/>
</g>
<!-- Node21 -->
<g id="node21" class="node"><title>Node21</title>
<g id="a_node21"><a xlink:href="classbsc_1_1prober.html" target="_top" xlink:title="bsc::prober">
<polygon fill="white" stroke="black" points="412.5,-506.5 412.5,-525.5 477.5,-525.5 477.5,-506.5 412.5,-506.5"/>
<text text-anchor="middle" x="445" y="-513.5" font-family="Helvetica,sans-Serif" font-size="10.00">bsc::prober</text>
</a>
</g>
</g>
<!-- Node1&#45;&gt;Node21 -->
<g id="edge20" class="edge"><title>Node1&#45;&gt;Node21</title>
<path fill="none" stroke="midnightblue" d="M345.858,-502.681C367.185,-505.575 392.693,-509.037 412.358,-511.706"/>
<polygon fill="midnightblue" stroke="midnightblue" points="346.148,-499.188 335.768,-501.311 345.207,-506.125 346.148,-499.188"/>
</g>
<!-- Node22 -->
<g id="node22" class="node"><title>Node22</title>
<g id="a_node22"><a xlink:href="classbsc_1_1resident__kernel.html" target="_top" xlink:title="bsc::resident_kernel">
<polygon fill="white" stroke="black" points="393,-468.5 393,-487.5 497,-487.5 497,-468.5 393,-468.5"/>
<text text-anchor="middle" x="445" y="-475.5" font-family="Helvetica,sans-Serif" font-size="10.00">bsc::resident_kernel</text>
</a>
</g>
</g>
<!-- Node1&#45;&gt;Node22 -->
<g id="edge21" class="edge"><title>Node1&#45;&gt;Node22</title>
<path fill="none" stroke="midnightblue" d="M346.089,-491.288C360.806,-489.291 377.491,-487.026 392.864,-484.94"/>
<polygon fill="midnightblue" stroke="midnightblue" points="345.207,-487.876 335.768,-492.689 346.148,-494.812 345.207,-487.876"/>
</g>
<!-- Node24 -->
<g id="node24" class="node"><title>Node24</title>
<g id="a_node24"><a xlink:href="structDummy__kernel.html" target="_top" xlink:title="Dummy_kernel">
<polygon fill="white" stroke="black" points="403.5,-430.5 403.5,-449.5 486.5,-449.5 486.5,-430.5 403.5,-430.5"/>
<text text-anchor="middle" x="445" y="-437.5" font-family="Helvetica,sans-Serif" font-size="10.00">Dummy_kernel</text>
</a>
</g>
</g>
<!-- Node1&#45;&gt;Node24 -->
<g id="edge23" class="edge"><title>Node1&#45;&gt;Node24</title>
<path fill="none" stroke="midnightblue" d="M327.215,-482.103C340.031,-474.38 356.46,-465.275 372,-459 381.95,-454.982 393.016,-451.572 403.429,-448.799"/>
<polygon fill="midnightblue" stroke="midnightblue" points="325.261,-479.196 318.586,-487.424 328.935,-485.155 325.261,-479.196"/>
</g>
<!-- Node25 -->
<g id="node25" class="node"><title>Node25</title>
<g id="a_node25"><a xlink:href="structGood__kernel.html" target="_top" xlink:title="Good_kernel">
<polygon fill="white" stroke="black" points="409.5,-392.5 409.5,-411.5 480.5,-411.5 480.5,-392.5 409.5,-392.5"/>
<text text-anchor="middle" x="445" y="-399.5" font-family="Helvetica,sans-Serif" font-size="10.00">Good_kernel</text>
</a>
</g>
</g>
<!-- Node1&#45;&gt;Node25 -->
<g id="edge24" class="edge"><title>Node1&#45;&gt;Node25</title>
<path fill="none" stroke="midnightblue" d="M315.635,-478.743C327.672,-461.337 348.049,-435.666 372,-421 383.246,-414.114 396.96,-409.699 409.391,-406.879"/>
<polygon fill="midnightblue" stroke="midnightblue" points="312.471,-477.179 309.836,-487.441 318.296,-481.062 312.471,-477.179"/>
</g>
<!-- Node28 -->
<g id="node28" class="node"><title>Node28</title>
<g id="a_node28"><a xlink:href="structKernel__that__carries__its__parent.html" target="_top" xlink:title="Kernel_that_carries\l_its_parent">
<polygon fill="white" stroke="black" points="394.5,-343 394.5,-373 495.5,-373 495.5,-343 394.5,-343"/>
<text text-anchor="start" x="402.5" y="-361" font-family="Helvetica,sans-Serif" font-size="10.00">Kernel_that_carries</text>
<text text-anchor="middle" x="445" y="-350" font-family="Helvetica,sans-Serif" font-size="10.00">_its_parent</text>
</a>
</g>
</g>
<!-- Node1&#45;&gt;Node28 -->
<g id="edge27" class="edge"><title>Node1&#45;&gt;Node28</title>
<path fill="none" stroke="midnightblue" d="M310.724,-477.633C320.437,-452.39 340.732,-408.471 372,-383 378.566,-377.652 386.349,-373.415 394.33,-370.068"/>
<polygon fill="midnightblue" stroke="midnightblue" points="307.373,-476.607 307.208,-487.2 313.943,-479.021 307.373,-476.607"/>
</g>
<!-- Node29 -->
<g id="node29" class="node"><title>Node29</title>
<g id="a_node29"><a xlink:href="structLauncher.html" target="_top" xlink:title="Launcher">
<polygon fill="white" stroke="black" points="417,-304.5 417,-323.5 473,-323.5 473,-304.5 417,-304.5"/>
<text text-anchor="middle" x="445" y="-311.5" font-family="Helvetica,sans-Serif" font-size="10.00">Launcher</text>
</a>
</g>
</g>
<!-- Node1&#45;&gt;Node29 -->
<g id="edge28" class="edge"><title>Node1&#45;&gt;Node29</title>
<path fill="none" stroke="midnightblue" d="M306.547,-476.873C312.025,-442.201 328.198,-371.253 372,-333 384.366,-322.2 402.183,-317.44 416.998,-315.384"/>
<polygon fill="midnightblue" stroke="midnightblue" points="303.03,-476.746 305.075,-487.142 309.959,-477.739 303.03,-476.746"/>
</g>
<!-- Node30 -->
<g id="node30" class="node"><title>Node30</title>
<g id="a_node30"><a xlink:href="classMain.html" target="_top" xlink:title="Main">
<polygon fill="white" stroke="black" points="426,-266.5 426,-285.5 464,-285.5 464,-266.5 426,-266.5"/>
<text text-anchor="middle" x="445" y="-273.5" font-family="Helvetica,sans-Serif" font-size="10.00">Main</text>
</a>
</g>
</g>
<!-- Node1&#45;&gt;Node30 -->
<g id="edge29" class="edge"><title>Node1&#45;&gt;Node30</title>
<path fill="none" stroke="midnightblue" d="M304.177,-477.38C305.302,-429.486 313.461,-322.759 372,-268 392.959,-248.394 431.712,-248.504 441.636,-266.487"/>
<polygon fill="midnightblue" stroke="midnightblue" points="300.676,-477.396 304.021,-487.449 307.675,-477.504 300.676,-477.396"/>
</g>
<!-- Node1&#45;&gt;Node30 -->
<g id="edge30" class="edge"><title>Node1&#45;&gt;Node30</title>
<path fill="none" stroke="midnightblue" d="M304.472,-476.919C306.49,-434.605 317.047,-337.404 372,-286 386.539,-272.4 409.641,-268.286 425.742,-269.127"/>
<polygon fill="midnightblue" stroke="midnightblue" points="300.968,-476.976 304.105,-487.096 307.964,-477.229 300.968,-476.976"/>
</g>
<!-- Node1&#45;&gt;Node30 -->
<g id="edge31" class="edge"><title>Node1&#45;&gt;Node30</title>
<path fill="none" stroke="midnightblue" d="M305.118,-476.991C308.407,-437.719 321.334,-351.394 372,-304 386.539,-290.4 409.641,-286.286 425.742,-283.209"/>
<polygon fill="midnightblue" stroke="midnightblue" points="301.612,-476.941 304.398,-487.163 308.595,-477.435 301.612,-476.941"/>
</g>
<!-- Node1&#45;&gt;Node30 -->
<g id="edge32" class="edge"><title>Node1&#45;&gt;Node30</title>
<path fill="none" stroke="midnightblue" d="M306.335,-477.399C311.193,-439.724 326.13,-364.908 372,-322 392.771,-302.571 431.016,-302.504 441.361,-285.733"/>
<polygon fill="midnightblue" stroke="midnightblue" points="302.85,-477.066 305.171,-487.404 309.803,-477.875 302.85,-477.066"/>
</g>
<!-- Node31 -->
<g id="node31" class="node"><title>Node31</title>
<g id="a_node31"><a xlink:href="structSender.html" target="_top" xlink:title="Sender">
<polygon fill="white" stroke="black" points="421.5,-228.5 421.5,-247.5 468.5,-247.5 468.5,-228.5 421.5,-228.5"/>
<text text-anchor="middle" x="445" y="-235.5" font-family="Helvetica,sans-Serif" font-size="10.00">Sender</text>
</a>
</g>
</g>
<!-- Node1&#45;&gt;Node31 -->
<g id="edge33" class="edge"><title>Node1&#45;&gt;Node31</title>
<path fill="none" stroke="midnightblue" d="M303.468,-476.951C303.396,-431.125 309.904,-317.983 372,-257 385.005,-244.228 405.526,-239.761 421.339,-238.325"/>
<polygon fill="midnightblue" stroke="midnightblue" points="299.969,-477.124 303.598,-487.078 306.969,-477.034 299.969,-477.124"/>
</g>
<!-- Node32 -->
<g id="node32" class="node"><title>Node32</title>
<g id="a_node32"><a xlink:href="structSleepy__kernel.html" target="_top" xlink:title="Sleepy_kernel">
<polygon fill="white" stroke="black" points="406,-190.5 406,-209.5 484,-209.5 484,-190.5 406,-190.5"/>
<text text-anchor="middle" x="445" y="-197.5" font-family="Helvetica,sans-Serif" font-size="10.00">Sleepy_kernel</text>
</a>
</g>
</g>
<!-- Node1&#45;&gt;Node32 -->
<g id="edge34" class="edge"><title>Node1&#45;&gt;Node32</title>
<path fill="none" stroke="midnightblue" d="M306.254,-476.928C313.099,-419.494 335.44,-256.228 372,-219 380.877,-209.961 393.509,-205.058 405.72,-202.449"/>
<polygon fill="midnightblue" stroke="midnightblue" points="302.736,-476.879 305.06,-487.216 309.69,-477.686 302.736,-476.879"/>
</g>
<!-- Node33 -->
<g id="node33" class="node"><title>Node33</title>
<g id="a_node33"><a xlink:href="structSpec__app.html" target="_top" xlink:title="Spec_app">
<polygon fill="white" stroke="black" points="415,-152.5 415,-171.5 475,-171.5 475,-152.5 415,-152.5"/>
<text text-anchor="middle" x="445" y="-159.5" font-family="Helvetica,sans-Serif" font-size="10.00">Spec_app</text>
</a>
</g>
</g>
<!-- Node1&#45;&gt;Node33 -->
<g id="edge35" class="edge"><title>Node1&#45;&gt;Node33</title>
<path fill="none" stroke="midnightblue" d="M305.6,-477.108C311.017,-414.687 330.68,-224.268 372,-181 382.982,-169.5 400.032,-164.665 414.784,-162.745"/>
<polygon fill="midnightblue" stroke="midnightblue" points="302.101,-476.952 304.752,-487.21 309.076,-477.537 302.101,-476.952"/>
</g>
<!-- Node34 -->
<g id="node34" class="node"><title>Node34</title>
<g id="a_node34"><a xlink:href="structSpectrum__kernel.html" target="_top" xlink:title="Spectrum_kernel">
<polygon fill="white" stroke="black" points="400,-114.5 400,-133.5 490,-133.5 490,-114.5 400,-114.5"/>
<text text-anchor="middle" x="445" y="-121.5" font-family="Helvetica,sans-Serif" font-size="10.00">Spectrum_kernel</text>
</a>
</g>
</g>
<!-- Node1&#45;&gt;Node34 -->
<g id="edge36" class="edge"><title>Node1&#45;&gt;Node34</title>
<path fill="none" stroke="midnightblue" d="M305.082,-477.394C309.172,-410.461 325.865,-192.395 372,-143 379.324,-135.158 389.468,-130.404 399.832,-127.56"/>
<polygon fill="midnightblue" stroke="midnightblue" points="301.585,-477.244 304.496,-487.432 308.573,-477.653 301.585,-477.244"/>
</g>
<!-- Node35 -->
<g id="node35" class="node"><title>Node35</title>
<g id="a_node35"><a xlink:href="structStation__kernel.html" target="_top" xlink:title="Station_kernel">
<polygon fill="white" stroke="black" points="405.5,-76.5 405.5,-95.5 484.5,-95.5 484.5,-76.5 405.5,-76.5"/>
<text text-anchor="middle" x="445" y="-83.5" font-family="Helvetica,sans-Serif" font-size="10.00">Station_kernel</text>
</a>
</g>
</g>
<!-- Node1&#45;&gt;Node35 -->
<g id="edge37" class="edge"><title>Node1&#45;&gt;Node35</title>
<path fill="none" stroke="midnightblue" d="M304.71,-476.722C307.656,-404.379 321.248,-160.329 372,-105 380.564,-95.6635 393.123,-90.6909 405.362,-88.1093"/>
<polygon fill="midnightblue" stroke="midnightblue" points="301.196,-477.02 304.313,-487.146 308.191,-477.287 301.196,-477.02"/>
</g>
<!-- Node36 -->
<g id="node36" class="node"><title>Node36</title>
<g id="a_node36"><a xlink:href="structTest__socket.html" target="_top" xlink:title="Test_socket">
<polygon fill="white" stroke="black" points="409.5,-38.5 409.5,-57.5 480.5,-57.5 480.5,-38.5 409.5,-38.5"/>
<text text-anchor="middle" x="445" y="-45.5" font-family="Helvetica,sans-Serif" font-size="10.00">Test_socket</text>
</a>
</g>
</g>
<!-- Node1&#45;&gt;Node36 -->
<g id="edge38" class="edge"><title>Node1&#45;&gt;Node36</title>
<path fill="none" stroke="midnightblue" d="M304.291,-477.029C305.872,-399.338 315.608,-120.407 372,-58 381.448,-47.5448 395.903,-42.5484 409.389,-40.9523"/>
<polygon fill="midnightblue" stroke="midnightblue" points="300.786,-477.285 304.107,-487.346 307.785,-477.41 300.786,-477.285"/>
</g>
<!-- Node1&#45;&gt;Node36 -->
<g id="edge39" class="edge"><title>Node1&#45;&gt;Node36</title>
<path fill="none" stroke="midnightblue" d="M304.442,-477.226C306.449,-402.009 317.174,-136.673 372,-76 381.448,-65.5448 395.903,-60.5484 409.389,-57.5629"/>
<polygon fill="midnightblue" stroke="midnightblue" points="300.943,-477.171 304.198,-487.254 307.941,-477.342 300.943,-477.171"/>
</g>
<!-- Node37 -->
<g id="node37" class="node"><title>Node37</title>
<g id="a_node37"><a xlink:href="structYear__kernel.html" target="_top" xlink:title="Year_kernel">
<polygon fill="white" stroke="black" points="411,-0.5 411,-19.5 479,-19.5 479,-0.5 411,-0.5"/>
<text text-anchor="middle" x="445" y="-7.5" font-family="Helvetica,sans-Serif" font-size="10.00">Year_kernel</text>
</a>
</g>
</g>
<!-- Node1&#45;&gt;Node37 -->
<g id="edge40" class="edge"><title>Node1&#45;&gt;Node37</title>
<path fill="none" stroke="midnightblue" d="M304.077,-477.081C304.799,-396.628 311.564,-96.7318 372,-29 381.726,-18.0999 396.894,-13.1206 410.805,-10.9589"/>
<polygon fill="midnightblue" stroke="midnightblue" points="300.576,-477.282 304.009,-487.305 307.576,-477.329 300.576,-477.282"/>
</g>
<!-- Node2 -->
<g id="node2" class="node"><title>Node2</title>
<g id="a_node2"><a xlink:href="classbsc_1_1mobile__kernel.html" target="_top" xlink:title="bsc::mobile_kernel">
<polygon fill="white" stroke="black" points="136,-487.5 136,-506.5 234,-506.5 234,-487.5 136,-487.5"/>
<text text-anchor="middle" x="185" y="-494.5" font-family="Helvetica,sans-Serif" font-size="10.00">bsc::mobile_kernel</text>
</a>
</g>
</g>
<!-- Node2&#45;&gt;Node1 -->
<g id="edge1" class="edge"><title>Node2&#45;&gt;Node1</title>
<path fill="none" stroke="midnightblue" d="M244.283,-497C253.263,-497 262.233,-497 270.334,-497"/>
<polygon fill="midnightblue" stroke="midnightblue" points="244.187,-493.5 234.187,-497 244.187,-500.5 244.187,-493.5"/>
</g>
<!-- Node3 -->
<g id="node3" class="node"><title>Node3</title>
<g id="a_node3"><a xlink:href="classbsc_1_1kernel__base.html" target="_top" xlink:title="bsc::kernel_base">
<polygon fill="white" stroke="black" points="4.5,-506.5 4.5,-525.5 95.5,-525.5 95.5,-506.5 4.5,-506.5"/>
<text text-anchor="middle" x="50" y="-513.5" font-family="Helvetica,sans-Serif" font-size="10.00">bsc::kernel_base</text>
</a>
</g>
</g>
<!-- Node3&#45;&gt;Node2 -->
<g id="edge2" class="edge"><title>Node3&#45;&gt;Node2</title>
<path fill="none" stroke="midnightblue" d="M105.785,-508.174C115.663,-506.762 125.898,-505.3 135.58,-503.917"/>
<polygon fill="midnightblue" stroke="midnightblue" points="105.062,-504.741 95.6571,-509.62 106.052,-511.671 105.062,-504.741"/>
</g>
<!-- Node4 -->
<g id="node4" class="node"><title>Node4</title>
<g id="a_node4"><a xlink:href="classbsc_1_1kernel__header.html" target="_top" xlink:title="bsc::kernel_header">
<polygon fill="white" stroke="black" points="0.5,-468.5 0.5,-487.5 99.5,-487.5 99.5,-468.5 0.5,-468.5"/>
<text text-anchor="middle" x="50" y="-475.5" font-family="Helvetica,sans-Serif" font-size="10.00">bsc::kernel_header</text>
</a>
</g>
</g>
<!-- Node4&#45;&gt;Node2 -->
<g id="edge3" class="edge"><title>Node4&#45;&gt;Node2</title>
<path fill="none" stroke="midnightblue" d="M109.805,-486.401C118.453,-487.636 127.277,-488.897 135.681,-490.097"/>
<polygon fill="midnightblue" stroke="midnightblue" points="110.164,-482.916 99.7691,-484.967 109.174,-489.846 110.164,-482.916"/>
</g>
<!-- Node23 -->
<g id="node23" class="node"><title>Node23</title>
<g id="a_node23"><a xlink:href="classbsc_1_1master__discoverer.html" target="_top" xlink:title="bsc::master_discoverer">
<polygon fill="white" stroke="black" points="555.5,-468.5 555.5,-487.5 674.5,-487.5 674.5,-468.5 555.5,-468.5"/>
<text text-anchor="middle" x="615" y="-475.5" font-family="Helvetica,sans-Serif" font-size="10.00">bsc::master_discoverer</text>
</a>
</g>
</g>
<!-- Node22&#45;&gt;Node23 -->
<g id="edge22" class="edge"><title>Node22&#45;&gt;Node23</title>
<path fill="none" stroke="midnightblue" d="M507.415,-478C523.065,-478 539.845,-478 555.352,-478"/>
<polygon fill="midnightblue" stroke="midnightblue" points="507.318,-474.5 497.318,-478 507.318,-481.5 507.318,-474.5"/>
</g>
<!-- Node26 -->
<g id="node26" class="node"><title>Node26</title>
<g id="a_node26"><a xlink:href="structKernel__that__reads__more__than__writes.html" target="_top" xlink:title="Kernel_that_reads_more\l_than_writes">
<polygon fill="white" stroke="black" points="554,-403 554,-433 676,-433 676,-403 554,-403"/>
<text text-anchor="start" x="562" y="-421" font-family="Helvetica,sans-Serif" font-size="10.00">Kernel_that_reads_more</text>
<text text-anchor="middle" x="615" y="-410" font-family="Helvetica,sans-Serif" font-size="10.00">_than_writes</text>
</a>
</g>
</g>
<!-- Node25&#45;&gt;Node26 -->
<g id="edge25" class="edge"><title>Node25&#45;&gt;Node26</title>
<path fill="none" stroke="midnightblue" d="M490.839,-406.27C510.141,-408.109 532.997,-410.285 553.747,-412.262"/>
<polygon fill="midnightblue" stroke="midnightblue" points="491.097,-402.779 480.81,-405.315 490.433,-409.748 491.097,-402.779"/>
</g>
<!-- Node27 -->
<g id="node27" class="node"><title>Node27</title>
<g id="a_node27"><a xlink:href="structKernel__that__writes__more__than__reads.html" target="_top" xlink:title="Kernel_that_writes\l_more_than_reads">
<polygon fill="white" stroke="black" points="566,-354 566,-384 664,-384 664,-354 566,-354"/>
<text text-anchor="start" x="574" y="-372" font-family="Helvetica,sans-Serif" font-size="10.00">Kernel_that_writes</text>
<text text-anchor="middle" x="615" y="-361" font-family="Helvetica,sans-Serif" font-size="10.00">_more_than_reads</text>
</a>
</g>
</g>
<!-- Node25&#45;&gt;Node27 -->
<g id="edge26" class="edge"><title>Node25&#45;&gt;Node27</title>
<path fill="none" stroke="midnightblue" d="M490.726,-393.215C513.896,-388.663 542.211,-383.101 565.858,-378.456"/>
<polygon fill="midnightblue" stroke="midnightblue" points="489.948,-389.8 480.81,-395.162 491.297,-396.669 489.948,-389.8"/>
</g>
</g>
</svg>
