<?xml version="1.0" encoding="UTF-8" standalone="no"?>
<!DOCTYPE svg PUBLIC "-//W3C//DTD SVG 1.1//EN"
 "http://www.w3.org/Graphics/SVG/1.1/DTD/svg11.dtd">
<!-- Generated by graphviz version 2.38.0 (20140413.2041)
 -->
<!-- Title: factory::Server_with_pool&lt; T, Kernels, Threads, Mutex, Lock, Semaphore &gt; Pages: 1 -->
<svg width="653pt" height="239pt"
 viewBox="0.00 0.00 653.00 238.50" xmlns="http://www.w3.org/2000/svg" xmlns:xlink="http://www.w3.org/1999/xlink">
<g id="graph0" class="graph" transform="scale(1 1) rotate(0) translate(4 234.5)">
<title>factory::Server_with_pool&lt; T, Kernels, Threads, Mutex, Lock, Semaphore &gt;</title>
<polygon fill="white" stroke="none" points="-4,4 -4,-234.5 649,-234.5 649,4 -4,4"/>
<!-- Node1 -->
<g id="node1" class="node"><title>Node1</title>
<polygon fill="#bfbfbf" stroke="black" points="143,-88 143,-129 281,-129 281,-88 143,-88"/>
<text text-anchor="start" x="151" y="-117" font-family="Helvetica,sans-Serif" font-size="10.00">factory::Server_with</text>
<text text-anchor="start" x="151" y="-106" font-family="Helvetica,sans-Serif" font-size="10.00">_pool&lt; T, Kernels, Threads,</text>
<text text-anchor="middle" x="212" y="-95" font-family="Helvetica,sans-Serif" font-size="10.00"> Mutex, Lock, Semaphore &gt;</text>
</g>
<!-- Node3 -->
<g id="node3" class="node"><title>Node3</title>
<g id="a_node3"><a xlink:href="structfactory_1_1Basic__CPU__server.html" target="_top" xlink:title="factory::Basic_CPU\l_server\&lt; T \&gt;">
<polygon fill="white" stroke="black" points="345.5,-186.5 345.5,-216.5 449.5,-216.5 449.5,-186.5 345.5,-186.5"/>
<text text-anchor="start" x="353.5" y="-204.5" font-family="Helvetica,sans-Serif" font-size="10.00">factory::Basic_CPU</text>
<text text-anchor="middle" x="397.5" y="-193.5" font-family="Helvetica,sans-Serif" font-size="10.00">_server&lt; T &gt;</text>
</a>
</g>
</g>
<!-- Node1&#45;&gt;Node3 -->
<g id="edge2" class="edge"><title>Node1&#45;&gt;Node3</title>
<path fill="none" stroke="midnightblue" d="M248.294,-135.071C267.787,-148.829 292.879,-165.089 317,-176.5 325.894,-180.707 335.672,-184.443 345.237,-187.662"/>
<polygon fill="midnightblue" stroke="midnightblue" points="250.197,-132.129 240.029,-129.151 246.121,-137.82 250.197,-132.129"/>
</g>
<!-- Node6 -->
<g id="node6" class="node"><title>Node6</title>
<g id="a_node6"><a xlink:href="structfactory_1_1Proxy__server.html" target="_top" xlink:title="factory::Proxy_server\l\&lt; T, Rserver \&gt;">
<polygon fill="white" stroke="black" points="342.5,-137.5 342.5,-167.5 452.5,-167.5 452.5,-137.5 342.5,-137.5"/>
<text text-anchor="start" x="350.5" y="-155.5" font-family="Helvetica,sans-Serif" font-size="10.00">factory::Proxy_server</text>
<text text-anchor="middle" x="397.5" y="-144.5" font-family="Helvetica,sans-Serif" font-size="10.00">&lt; T, Rserver &gt;</text>
</a>
</g>
</g>
<!-- Node1&#45;&gt;Node6 -->
<g id="edge5" class="edge"><title>Node1&#45;&gt;Node6</title>
<path fill="none" stroke="midnightblue" d="M291.121,-127.232C308.358,-131.365 326.25,-135.655 342.292,-139.502"/>
<polygon fill="midnightblue" stroke="midnightblue" points="291.608,-123.75 281.068,-124.821 289.976,-130.557 291.608,-123.75"/>
</g>
<!-- Node7 -->
<g id="node7" class="node"><title>Node7</title>
<g id="a_node7"><a xlink:href="structfactory_1_1Timer__server.html" target="_top" xlink:title="factory::Timer_server\&lt; T \&gt;">
<polygon fill="white" stroke="black" points="330.5,-99 330.5,-118 464.5,-118 464.5,-99 330.5,-99"/>
<text text-anchor="middle" x="397.5" y="-106" font-family="Helvetica,sans-Serif" font-size="10.00">factory::Timer_server&lt; T &gt;</text>
</a>
</g>
</g>
<!-- Node1&#45;&gt;Node7 -->
<g id="edge6" class="edge"><title>Node1&#45;&gt;Node7</title>
<path fill="none" stroke="midnightblue" d="M291.385,-108.5C304.373,-108.5 317.726,-108.5 330.373,-108.5"/>
<polygon fill="midnightblue" stroke="midnightblue" points="291.068,-105 281.068,-108.5 291.068,-112 291.068,-105"/>
</g>
<!-- Node8 -->
<g id="node8" class="node"><title>Node8</title>
<g id="a_node8"><a xlink:href="structfactory_1_1Proxy__server.html" target="_top" xlink:title="Proxy_server\&lt; T, Process\l_rserver\&lt; T, Router \&gt; \&gt;">
<polygon fill="white" stroke="black" points="332,-49.5 332,-79.5 463,-79.5 463,-49.5 332,-49.5"/>
<text text-anchor="start" x="340" y="-67.5" font-family="Helvetica,sans-Serif" font-size="10.00">Proxy_server&lt; T, Process</text>
<text text-anchor="middle" x="397.5" y="-56.5" font-family="Helvetica,sans-Serif" font-size="10.00">_rserver&lt; T, Router &gt; &gt;</text>
</a>
</g>
</g>
<!-- Node1&#45;&gt;Node8 -->
<g id="edge7" class="edge"><title>Node1&#45;&gt;Node8</title>
<path fill="none" stroke="midnightblue" d="M290.873,-89.8276C305.167,-86.4001 319.92,-82.8624 333.703,-79.5576"/>
<polygon fill="midnightblue" stroke="midnightblue" points="289.976,-86.4432 281.068,-92.1786 291.608,-93.2503 289.976,-86.4432"/>
</g>
<!-- Node11 -->
<g id="node11" class="node"><title>Node11</title>
<g id="a_node11"><a xlink:href="structfactory_1_1Proxy__server.html" target="_top" xlink:title="Proxy_server\&lt; T, Remote\l_Rserver\&lt; T, Socket, Router \&gt; \&gt;">
<polygon fill="white" stroke="black" points="317,-0.5 317,-30.5 478,-30.5 478,-0.5 317,-0.5"/>
<text text-anchor="start" x="325" y="-18.5" font-family="Helvetica,sans-Serif" font-size="10.00">Proxy_server&lt; T, Remote</text>
<text text-anchor="middle" x="397.5" y="-7.5" font-family="Helvetica,sans-Serif" font-size="10.00">_Rserver&lt; T, Socket, Router &gt; &gt;</text>
</a>
</g>
</g>
<!-- Node1&#45;&gt;Node11 -->
<g id="edge10" class="edge"><title>Node1&#45;&gt;Node11</title>
<path fill="none" stroke="midnightblue" d="M247.776,-81.6934C267.295,-67.629 292.574,-50.984 317,-39.5 324.046,-36.1876 331.656,-33.2047 339.28,-30.5597"/>
<polygon fill="midnightblue" stroke="midnightblue" points="245.513,-79.0122 239.511,-87.7426 249.648,-84.661 245.513,-79.0122"/>
</g>
<!-- Node2 -->
<g id="node2" class="node"><title>Node2</title>
<g id="a_node2"><a xlink:href="structfactory_1_1Server__base.html" target="_top" xlink:title="factory::Server_base">
<polygon fill="white" stroke="black" points="0,-99 0,-118 107,-118 107,-99 0,-99"/>
<text text-anchor="middle" x="53.5" y="-106" font-family="Helvetica,sans-Serif" font-size="10.00">factory::Server_base</text>
</a>
</g>
</g>
<!-- Node2&#45;&gt;Node1 -->
<g id="edge1" class="edge"><title>Node2&#45;&gt;Node1</title>
<path fill="none" stroke="midnightblue" d="M117.161,-108.5C125.576,-108.5 134.243,-108.5 142.749,-108.5"/>
<polygon fill="midnightblue" stroke="midnightblue" points="117.048,-105 107.048,-108.5 117.048,-112 117.048,-105"/>
</g>
<!-- Node4 -->
<g id="node4" class="node"><title>Node4</title>
<g id="a_node4"><a xlink:href="structfactory_1_1CPU__server.html" target="_top" xlink:title="factory::CPU_server\&lt; T \&gt;">
<polygon fill="white" stroke="black" points="514,-211 514,-230 645,-230 645,-211 514,-211"/>
<text text-anchor="middle" x="579.5" y="-218" font-family="Helvetica,sans-Serif" font-size="10.00">factory::CPU_server&lt; T &gt;</text>
</a>
</g>
</g>
<!-- Node3&#45;&gt;Node4 -->
<g id="edge3" class="edge"><title>Node3&#45;&gt;Node4</title>
<path fill="none" stroke="midnightblue" d="M459.654,-207.955C477.086,-209.795 496.133,-211.806 513.77,-213.667"/>
<polygon fill="midnightblue" stroke="midnightblue" points="459.911,-204.463 449.599,-206.894 459.177,-211.424 459.911,-204.463"/>
</g>
<!-- Node5 -->
<g id="node5" class="node"><title>Node5</title>
<g id="a_node5"><a xlink:href="structfactory_1_1IO__server.html" target="_top" xlink:title="factory::IO_server\&lt; T \&gt;">
<polygon fill="white" stroke="black" points="520,-173 520,-192 639,-192 639,-173 520,-173"/>
<text text-anchor="middle" x="579.5" y="-180" font-family="Helvetica,sans-Serif" font-size="10.00">factory::IO_server&lt; T &gt;</text>
</a>
</g>
</g>
<!-- Node3&#45;&gt;Node5 -->
<g id="edge4" class="edge"><title>Node3&#45;&gt;Node5</title>
<path fill="none" stroke="midnightblue" d="M459.595,-195.051C479.106,-192.992 500.645,-190.718 519.97,-188.678"/>
<polygon fill="midnightblue" stroke="midnightblue" points="459.177,-191.576 449.599,-196.106 459.911,-198.537 459.177,-191.576"/>
</g>
<!-- Node9 -->
<g id="node9" class="node"><title>Node9</title>
<g id="a_node9"><a xlink:href="structfactory_1_1Process__child__server.html" target="_top" xlink:title="factory::Process_child\l_server\&lt; T, Router \&gt;">
<polygon fill="white" stroke="black" points="522.5,-98.5 522.5,-128.5 636.5,-128.5 636.5,-98.5 522.5,-98.5"/>
<text text-anchor="start" x="530.5" y="-116.5" font-family="Helvetica,sans-Serif" font-size="10.00">factory::Process_child</text>
<text text-anchor="middle" x="579.5" y="-105.5" font-family="Helvetica,sans-Serif" font-size="10.00">_server&lt; T, Router &gt;</text>
</a>
</g>
</g>
<!-- Node8&#45;&gt;Node9 -->
<g id="edge8" class="edge"><title>Node8&#45;&gt;Node9</title>
<path fill="none" stroke="midnightblue" d="M463.698,-82.2485C483.207,-87.5591 504.402,-93.3288 523.208,-98.4484"/>
<polygon fill="midnightblue" stroke="midnightblue" points="464.543,-78.851 453.975,-79.6014 462.704,-85.6053 464.543,-78.851"/>
</g>
<!-- Node10 -->
<g id="node10" class="node"><title>Node10</title>
<g id="a_node10"><a xlink:href="structfactory_1_1Process__iserver.html" target="_top" xlink:title="factory::Process_iserver\l\&lt; T, Router \&gt;">
<polygon fill="white" stroke="black" points="518,-49.5 518,-79.5 641,-79.5 641,-49.5 518,-49.5"/>
<text text-anchor="start" x="526" y="-67.5" font-family="Helvetica,sans-Serif" font-size="10.00">factory::Process_iserver</text>
<text text-anchor="middle" x="579.5" y="-56.5" font-family="Helvetica,sans-Serif" font-size="10.00">&lt; T, Router &gt;</text>
</a>
</g>
</g>
<!-- Node8&#45;&gt;Node10 -->
<g id="edge9" class="edge"><title>Node8&#45;&gt;Node10</title>
<path fill="none" stroke="midnightblue" d="M473.396,-64.5C488.241,-64.5 503.65,-64.5 517.945,-64.5"/>
<polygon fill="midnightblue" stroke="midnightblue" points="473.23,-61.0001 463.23,-64.5 473.23,-68.0001 473.23,-61.0001"/>
</g>
<!-- Node12 -->
<g id="node12" class="node"><title>Node12</title>
<g id="a_node12"><a xlink:href="structfactory_1_1NIC__server.html" target="_top" xlink:title="factory::NIC_server\l\&lt; T, Socket, Router \&gt;">
<polygon fill="white" stroke="black" points="523,-0.5 523,-30.5 636,-30.5 636,-0.5 523,-0.5"/>
<text text-anchor="start" x="531" y="-18.5" font-family="Helvetica,sans-Serif" font-size="10.00">factory::NIC_server</text>
<text text-anchor="middle" x="579.5" y="-7.5" font-family="Helvetica,sans-Serif" font-size="10.00">&lt; T, Socket, Router &gt;</text>
</a>
</g>
</g>
<!-- Node11&#45;&gt;Node12 -->
<g id="edge11" class="edge"><title>Node11&#45;&gt;Node12</title>
<path fill="none" stroke="midnightblue" d="M488.503,-15.5C500.208,-15.5 511.913,-15.5 522.826,-15.5"/>
<polygon fill="midnightblue" stroke="midnightblue" points="488.237,-12.0001 478.237,-15.5 488.237,-19.0001 488.237,-12.0001"/>
</g>
</g>
</svg>
