<?xml version="1.0" encoding="UTF-8" standalone="no"?>
<!DOCTYPE svg PUBLIC "-//W3C//DTD SVG 1.1//EN"
 "http://www.w3.org/Graphics/SVG/1.1/DTD/svg11.dtd">
<!-- Generated by graphviz version 2.36.0 (20140111.2315)
 -->
<!-- Title: sys::ifaddrs_iterator Pages: 1 -->
<svg width="110pt" height="106pt"
 viewBox="0.00 0.00 110.00 106.00" xmlns="http://www.w3.org/2000/svg" xmlns:xlink="http://www.w3.org/1999/xlink">
<g id="graph0" class="graph" transform="scale(1 1) rotate(0) translate(4 102)">
<title>sys::ifaddrs_iterator</title>
<polygon fill="white" stroke="none" points="-4,4 -4,-102 106,-102 106,4 -4,4"/>
<!-- Node1 -->
<g id="node1" class="node"><title>Node1</title>
<polygon fill="#bfbfbf" stroke="black" points="-0.5,-0.5 -0.5,-19.5 102.5,-19.5 102.5,-0.5 -0.5,-0.5"/>
<text text-anchor="middle" x="51" y="-7.5" font-family="Helvetica,sans-Serif" font-size="10.00">sys::ifaddrs_iterator</text>
</g>
<!-- Node2 -->
<g id="node2" class="node"><title>Node2</title>
<polygon fill="white" stroke="#bfbfbf" points="0.5,-56.5 0.5,-97.5 101.5,-97.5 101.5,-56.5 0.5,-56.5"/>
<text text-anchor="start" x="8.5" y="-85.5" font-family="Helvetica,sans-Serif" font-size="10.00">std::iterator&lt; std</text>
<text text-anchor="start" x="8.5" y="-74.5" font-family="Helvetica,sans-Serif" font-size="10.00">::input_iterator_tag,</text>
<text text-anchor="middle" x="51" y="-63.5" font-family="Helvetica,sans-Serif" font-size="10.00"> ifaddrs_type &gt;</text>
</g>
<!-- Node2&#45;&gt;Node1 -->
<g id="edge1" class="edge"><title>Node2&#45;&gt;Node1</title>
<path fill="none" stroke="midnightblue" d="M51,-46.2632C51,-36.5592 51,-26.5242 51,-19.6525"/>
<polygon fill="midnightblue" stroke="midnightblue" points="47.5001,-46.4978 51,-56.4979 54.5001,-46.4979 47.5001,-46.4978"/>
</g>
</g>
</svg>
