<?xml version="1.0" encoding="UTF-8" standalone="no"?>
<!DOCTYPE svg PUBLIC "-//W3C//DTD SVG 1.1//EN"
 "http://www.w3.org/Graphics/SVG/1.1/DTD/svg11.dtd">
<!-- Generated by graphviz version 2.38.0 (20140413.2041)
 -->
<!-- Title: Test_missing_values Pages: 1 -->
<svg width="134pt" height="151pt"
 viewBox="0.00 0.00 134.00 151.00" xmlns="http://www.w3.org/2000/svg" xmlns:xlink="http://www.w3.org/1999/xlink">
<g id="graph0" class="graph" transform="scale(1 1) rotate(0) translate(4 147)">
<title>Test_missing_values</title>
<polygon fill="white" stroke="none" points="-4,4 -4,-147 130,-147 130,4 -4,4"/>
<!-- Node1 -->
<g id="node1" class="node"><title>Node1</title>
<polygon fill="#bfbfbf" stroke="black" points="8.5,-0.5 8.5,-19.5 117.5,-19.5 117.5,-0.5 8.5,-0.5"/>
<text text-anchor="middle" x="63" y="-7.5" font-family="Helvetica,sans-Serif" font-size="10.00">Test_missing_values</text>
</g>
<!-- Node2 -->
<g id="node2" class="node"><title>Node2</title>
<g id="a_node2"><a xlink:href="structtest_1_1Test.html" target="_top" xlink:title="test::Test\&lt; Test_missing\l_values \&gt;">
<polygon fill="white" stroke="black" points="0,-56.5 0,-86.5 126,-86.5 126,-56.5 0,-56.5"/>
<text text-anchor="start" x="8" y="-74.5" font-family="Helvetica,sans-Serif" font-size="10.00">test::Test&lt; Test_missing</text>
<text text-anchor="middle" x="63" y="-63.5" font-family="Helvetica,sans-Serif" font-size="10.00">_values &gt;</text>
</a>
</g>
</g>
<!-- Node2&#45;&gt;Node1 -->
<g id="edge1" class="edge"><title>Node2&#45;&gt;Node1</title>
<path fill="none" stroke="midnightblue" d="M63,-46.2892C63,-36.857 63,-26.6548 63,-19.6578"/>
<polygon fill="midnightblue" stroke="midnightblue" points="59.5001,-46.3993 63,-56.3993 66.5001,-46.3994 59.5001,-46.3993"/>
</g>
<!-- Node3 -->
<g id="node3" class="node"><title>Node3</title>
<g id="a_node3"><a xlink:href="structtest_1_1Basic__test.html" target="_top" xlink:title="test::Basic_test">
<polygon fill="white" stroke="black" points="20,-123.5 20,-142.5 106,-142.5 106,-123.5 20,-123.5"/>
<text text-anchor="middle" x="63" y="-130.5" font-family="Helvetica,sans-Serif" font-size="10.00">test::Basic_test</text>
</a>
</g>
</g>
<!-- Node3&#45;&gt;Node2 -->
<g id="edge2" class="edge"><title>Node3&#45;&gt;Node2</title>
<path fill="none" stroke="midnightblue" d="M63,-113.235C63,-104.586 63,-94.4969 63,-86.523"/>
<polygon fill="midnightblue" stroke="midnightblue" points="59.5001,-113.475 63,-123.475 66.5001,-113.475 59.5001,-113.475"/>
</g>
</g>
</svg>
