<?xml version="1.0" encoding="UTF-8" standalone="no"?>
<!DOCTYPE svg PUBLIC "-//W3C//DTD SVG 1.1//EN"
 "http://www.w3.org/Graphics/SVG/1.1/DTD/svg11.dtd">
<!-- Generated by graphviz version 2.36.0 (20140111.2315)
 -->
<!-- Title: factory::timer_pipeline&lt; T &gt; Pages: 1 -->
<svg width="405pt" height="154pt"
 viewBox="0.00 0.00 405.00 154.00" xmlns="http://www.w3.org/2000/svg" xmlns:xlink="http://www.w3.org/1999/xlink">
<g id="graph0" class="graph" transform="scale(1 1) rotate(0) translate(4 150)">
<title>factory::timer_pipeline&lt; T &gt;</title>
<polygon fill="white" stroke="none" points="-4,4 -4,-150 401,-150 401,4 -4,4"/>
<!-- Node1 -->
<g id="node1" class="node"><title>Node1</title>
<polygon fill="#bfbfbf" stroke="black" points="160.5,-0.5 160.5,-19.5 297.5,-19.5 297.5,-0.5 160.5,-0.5"/>
<text text-anchor="middle" x="229" y="-7.5" font-family="Helvetica,sans-Serif" font-size="10.00">factory::timer_pipeline&lt; T &gt;</text>
</g>
<!-- Node2 -->
<g id="node2" class="node"><title>Node2</title>
<g id="a_node2"><a xlink:href="classfactory_1_1basic__pipeline.html" target="_top" xlink:title="Timer_pipeline_base\&lt; T \&gt;">
<polygon fill="white" stroke="black" points="164,-58.5 164,-77.5 294,-77.5 294,-58.5 164,-58.5"/>
<text text-anchor="middle" x="229" y="-65.5" font-family="Helvetica,sans-Serif" font-size="10.00">Timer_pipeline_base&lt; T &gt;</text>
</a>
</g>
</g>
<!-- Node2&#45;&gt;Node1 -->
<g id="edge1" class="edge"><title>Node2&#45;&gt;Node1</title>
<path fill="none" stroke="midnightblue" d="M229,-47.953C229,-38.2875 229,-27.0312 229,-19.5052"/>
<polygon fill="midnightblue" stroke="midnightblue" points="225.5,-48.25 229,-58.25 232.5,-48.25 225.5,-48.25"/>
</g>
<!-- Node3 -->
<g id="node3" class="node"><title>Node3</title>
<g id="a_node3"><a xlink:href="classfactory_1_1pipeline__base.html" target="_top" xlink:title="factory::pipeline_base">
<polygon fill="white" stroke="black" points="0,-126.5 0,-145.5 112,-145.5 112,-126.5 0,-126.5"/>
<text text-anchor="middle" x="56" y="-133.5" font-family="Helvetica,sans-Serif" font-size="10.00">factory::pipeline_base</text>
</a>
</g>
</g>
<!-- Node3&#45;&gt;Node2 -->
<g id="edge2" class="edge"><title>Node3&#45;&gt;Node2</title>
<path fill="none" stroke="midnightblue" d="M88.2253,-122.706C122.719,-109.547 176.532,-89.0166 206.652,-77.5259"/>
<polygon fill="midnightblue" stroke="midnightblue" points="86.7123,-119.537 78.6167,-126.372 89.2075,-126.077 86.7123,-119.537"/>
</g>
<!-- Node4 -->
<g id="node4" class="node"><title>Node4</title>
<polygon fill="white" stroke="#bfbfbf" points="130,-126.5 130,-145.5 180,-145.5 180,-126.5 130,-126.5"/>
<text text-anchor="middle" x="155" y="-133.5" font-family="Helvetica,sans-Serif" font-size="10.00">Kernels</text>
</g>
<!-- Node4&#45;&gt;Node2 -->
<g id="edge3" class="edge"><title>Node4&#45;&gt;Node2</title>
<path fill="none" stroke="#9a32cd" stroke-dasharray="5,2" d="M166.174,-117.761C171.364,-110.531 177.946,-102.348 185,-96 192.995,-88.8059 203.162,-82.4237 211.709,-77.6729"/>
<polygon fill="#9a32cd" stroke="#9a32cd" points="163.161,-115.967 160.412,-126.199 168.942,-119.914 163.161,-115.967"/>
<text text-anchor="middle" x="205" y="-99.5" font-family="Helvetica,sans-Serif" font-size="10.00"> _kernels</text>
</g>
<!-- Node5 -->
<g id="node5" class="node"><title>Node5</title>
<polygon fill="white" stroke="#bfbfbf" points="198,-126.5 198,-145.5 264,-145.5 264,-126.5 198,-126.5"/>
<text text-anchor="middle" x="231" y="-133.5" font-family="Helvetica,sans-Serif" font-size="10.00">Semaphore</text>
</g>
<!-- Node5&#45;&gt;Node2 -->
<g id="edge4" class="edge"><title>Node5&#45;&gt;Node2</title>
<path fill="none" stroke="#9a32cd" stroke-dasharray="5,2" d="M230.282,-116.373C230.182,-113.568 230.085,-110.708 230,-108 229.673,-97.5746 229.378,-85.579 229.194,-77.6751"/>
<polygon fill="#9a32cd" stroke="#9a32cd" points="226.789,-116.626 230.66,-126.489 233.784,-116.365 226.789,-116.626"/>
<text text-anchor="middle" x="258.5" y="-99.5" font-family="Helvetica,sans-Serif" font-size="10.00"> _semaphore</text>
</g>
<!-- Node6 -->
<g id="node6" class="node"><title>Node6</title>
<polygon fill="white" stroke="#bfbfbf" points="283,-126.5 283,-145.5 335,-145.5 335,-126.5 283,-126.5"/>
<text text-anchor="middle" x="309" y="-133.5" font-family="Helvetica,sans-Serif" font-size="10.00">Threads</text>
</g>
<!-- Node6&#45;&gt;Node2 -->
<g id="edge5" class="edge"><title>Node6&#45;&gt;Node2</title>
<path fill="none" stroke="#9a32cd" stroke-dasharray="5,2" d="M301.82,-117.08C298.222,-109.824 293.278,-101.807 287,-96 278.275,-87.9301 266.712,-81.8893 256.206,-77.5911"/>
<polygon fill="#9a32cd" stroke="#9a32cd" points="298.627,-118.511 305.891,-126.223 305.021,-115.664 298.627,-118.511"/>
<text text-anchor="middle" x="316.5" y="-99.5" font-family="Helvetica,sans-Serif" font-size="10.00"> _threads</text>
</g>
<!-- Node7 -->
<g id="node7" class="node"><title>Node7</title>
<polygon fill="white" stroke="#bfbfbf" points="353,-126.5 353,-145.5 397,-145.5 397,-126.5 353,-126.5"/>
<text text-anchor="middle" x="375" y="-133.5" font-family="Helvetica,sans-Serif" font-size="10.00">Mutex</text>
</g>
<!-- Node7&#45;&gt;Node2 -->
<g id="edge6" class="edge"><title>Node7&#45;&gt;Node2</title>
<path fill="none" stroke="#9a32cd" stroke-dasharray="5,2" d="M364.086,-118.24C358.15,-110.383 350.152,-101.55 341,-96 326.805,-87.3912 310.042,-81.5265 293.867,-77.5314"/>
<polygon fill="#9a32cd" stroke="#9a32cd" points="361.253,-120.296 369.863,-126.469 366.982,-116.274 361.253,-120.296"/>
<text text-anchor="middle" x="373" y="-99.5" font-family="Helvetica,sans-Serif" font-size="10.00"> _mutex</text>
</g>
</g>
</svg>
