<?xml version="1.0" encoding="UTF-8" standalone="no"?>
<!DOCTYPE svg PUBLIC "-//W3C//DTD SVG 1.1//EN"
 "http://www.w3.org/Graphics/SVG/1.1/DTD/svg11.dtd">
<!-- Generated by graphviz version 2.36.0 (20140111.2315)
 -->
<!-- Title: sys::subnet_iterator&lt; Address &gt; Pages: 1 -->
<svg width="134pt" height="118pt"
 viewBox="0.00 0.00 134.00 118.00" xmlns="http://www.w3.org/2000/svg" xmlns:xlink="http://www.w3.org/1999/xlink">
<g id="graph0" class="graph" transform="scale(1 1) rotate(0) translate(4 114)">
<title>sys::subnet_iterator&lt; Address &gt;</title>
<polygon fill="white" stroke="none" points="-4,4 -4,-114 130,-114 130,4 -4,4"/>
<!-- Node1 -->
<g id="node1" class="node"><title>Node1</title>
<polygon fill="#bfbfbf" stroke="black" points="11.5,-1 11.5,-31 114.5,-31 114.5,-1 11.5,-1"/>
<text text-anchor="start" x="19.5" y="-19" font-family="Helvetica,sans-Serif" font-size="10.00">sys::subnet_iterator</text>
<text text-anchor="middle" x="63" y="-8" font-family="Helvetica,sans-Serif" font-size="10.00">&lt; Address &gt;</text>
</g>
<!-- Node2 -->
<g id="node2" class="node"><title>Node2</title>
<polygon fill="white" stroke="#bfbfbf" points="-0.5,-68.5 -0.5,-109.5 126.5,-109.5 126.5,-68.5 -0.5,-68.5"/>
<text text-anchor="start" x="7.5" y="-97.5" font-family="Helvetica,sans-Serif" font-size="10.00">std::iterator&lt; std</text>
<text text-anchor="start" x="7.5" y="-86.5" font-family="Helvetica,sans-Serif" font-size="10.00">::random_access_iterator</text>
<text text-anchor="middle" x="63" y="-75.5" font-family="Helvetica,sans-Serif" font-size="10.00">_tag, Address &gt;</text>
</g>
<!-- Node2&#45;&gt;Node1 -->
<g id="edge1" class="edge"><title>Node2&#45;&gt;Node1</title>
<path fill="none" stroke="midnightblue" d="M63,-58.0188C63,-48.6567 63,-38.7696 63,-31.0485"/>
<polygon fill="midnightblue" stroke="midnightblue" points="59.5001,-58.2225 63,-68.2225 66.5001,-58.2226 59.5001,-58.2225"/>
</g>
</g>
</svg>
