<?xml version="1.0" encoding="UTF-8" standalone="no"?>
<!DOCTYPE svg PUBLIC "-//W3C//DTD SVG 1.1//EN"
 "http://www.w3.org/Graphics/SVG/1.1/DTD/svg11.dtd">
<!-- Generated by graphviz version 2.36.0 (20140111.2315)
 -->
<!-- Title: stdx::intersperse_iterator&lt; T, Delim, Ch, Tr &gt; Pages: 1 -->
<svg width="132pt" height="118pt"
 viewBox="0.00 0.00 132.00 118.00" xmlns="http://www.w3.org/2000/svg" xmlns:xlink="http://www.w3.org/1999/xlink">
<g id="graph0" class="graph" transform="scale(1 1) rotate(0) translate(4 114)">
<title>stdx::intersperse_iterator&lt; T, Delim, Ch, Tr &gt;</title>
<polygon fill="white" stroke="none" points="-4,4 -4,-114 128,-114 128,4 -4,4"/>
<!-- Node1 -->
<g id="node1" class="node"><title>Node1</title>
<polygon fill="#bfbfbf" stroke="black" points="-0.5,-1 -0.5,-31 124.5,-31 124.5,-1 -0.5,-1"/>
<text text-anchor="start" x="7.5" y="-19" font-family="Helvetica,sans-Serif" font-size="10.00">stdx::intersperse_iterator</text>
<text text-anchor="middle" x="62" y="-8" font-family="Helvetica,sans-Serif" font-size="10.00">&lt; T, Delim, Ch, Tr &gt;</text>
</g>
<!-- Node2 -->
<g id="node2" class="node"><title>Node2</title>
<polygon fill="white" stroke="#bfbfbf" points="2.5,-68.5 2.5,-109.5 121.5,-109.5 121.5,-68.5 2.5,-68.5"/>
<text text-anchor="start" x="10.5" y="-97.5" font-family="Helvetica,sans-Serif" font-size="10.00">std::iterator&lt; std</text>
<text text-anchor="start" x="10.5" y="-86.5" font-family="Helvetica,sans-Serif" font-size="10.00">::output_iterator_tag,</text>
<text text-anchor="middle" x="62" y="-75.5" font-family="Helvetica,sans-Serif" font-size="10.00"> void, void, void, void &gt;</text>
</g>
<!-- Node2&#45;&gt;Node1 -->
<g id="edge1" class="edge"><title>Node2&#45;&gt;Node1</title>
<path fill="none" stroke="midnightblue" d="M62,-58.0188C62,-48.6567 62,-38.7696 62,-31.0485"/>
<polygon fill="midnightblue" stroke="midnightblue" points="58.5001,-58.2225 62,-68.2225 65.5001,-58.2226 58.5001,-58.2225"/>
</g>
</g>
</svg>
