<?xml version="1.0" encoding="UTF-8" standalone="no"?>
<!DOCTYPE svg PUBLIC "-//W3C//DTD SVG 1.1//EN"
 "http://www.w3.org/Graphics/SVG/1.1/DTD/svg11.dtd">
<!-- Generated by graphviz version 2.36.0 (20140111.2315)
 -->
<!-- Title: factory::Register_type&lt; T, ID &gt; Pages: 1 -->
<svg width="177pt" height="178pt"
 viewBox="0.00 0.00 177.00 178.00" xmlns="http://www.w3.org/2000/svg" xmlns:xlink="http://www.w3.org/1999/xlink">
<g id="graph0" class="graph" transform="scale(1 1) rotate(0) translate(4 174)">
<title>factory::Register_type&lt; T, ID &gt;</title>
<polygon fill="white" stroke="none" points="-4,4 -4,-174 173,-174 173,4 -4,4"/>
<!-- Node1 -->
<g id="node1" class="node"><title>Node1</title>
<polygon fill="#bfbfbf" stroke="black" points="56.5,-1 56.5,-31 169.5,-31 169.5,-1 56.5,-1"/>
<text text-anchor="start" x="64.5" y="-19" font-family="Helvetica,sans-Serif" font-size="10.00">factory::Register_type</text>
<text text-anchor="middle" x="113" y="-8" font-family="Helvetica,sans-Serif" font-size="10.00">&lt; T, ID &gt;</text>
</g>
<!-- Node2 -->
<g id="node2" class="node"><title>Node2</title>
<g id="a_node2"><a xlink:href="structfactory_1_1Register__type_1_1Init.html" target="_top" xlink:title="factory::Register_type\l\&lt; T, ID \&gt;::Init">
<polygon fill="white" stroke="black" points="-0.5,-81 -0.5,-111 112.5,-111 112.5,-81 -0.5,-81"/>
<text text-anchor="start" x="7.5" y="-99" font-family="Helvetica,sans-Serif" font-size="10.00">factory::Register_type</text>
<text text-anchor="middle" x="56" y="-88" font-family="Helvetica,sans-Serif" font-size="10.00">&lt; T, ID &gt;::Init</text>
</a>
</g>
</g>
<!-- Node2&#45;&gt;Node1 -->
<g id="edge1" class="edge"><title>Node2&#45;&gt;Node1</title>
<path fill="none" stroke="#9a32cd" stroke-dasharray="5,2" d="M68.5855,-72.0544C72.8711,-64.8036 77.8797,-56.8898 83,-50 87.8032,-43.5369 93.655,-36.8788 98.9106,-31.2508"/>
<polygon fill="#9a32cd" stroke="#9a32cd" points="65.5328,-70.342 63.5898,-80.7572 71.6037,-73.8269 65.5328,-70.342"/>
<text text-anchor="middle" x="103" y="-53.5" font-family="Helvetica,sans-Serif" font-size="10.00"> _inittype</text>
</g>
<!-- Node3 -->
<g id="node3" class="node"><title>Node3</title>
<g id="a_node3"><a xlink:href="structfactory_1_1Type.html" target="_top" xlink:title="factory::Type">
<polygon fill="white" stroke="black" points="19,-150.5 19,-169.5 93,-169.5 93,-150.5 19,-150.5"/>
<text text-anchor="middle" x="56" y="-157.5" font-family="Helvetica,sans-Serif" font-size="10.00">factory::Type</text>
</a>
</g>
</g>
<!-- Node3&#45;&gt;Node2 -->
<g id="edge2" class="edge"><title>Node3&#45;&gt;Node2</title>
<path fill="none" stroke="midnightblue" d="M56,-140.183C56,-130.886 56,-119.851 56,-111.263"/>
<polygon fill="midnightblue" stroke="midnightblue" points="52.5001,-140.379 56,-150.379 59.5001,-140.379 52.5001,-140.379"/>
</g>
<!-- Node4 -->
<g id="node4" class="node"><title>Node4</title>
<polygon fill="white" stroke="#bfbfbf" points="130.5,-86.5 130.5,-105.5 159.5,-105.5 159.5,-86.5 130.5,-86.5"/>
<text text-anchor="middle" x="145" y="-93.5" font-family="Helvetica,sans-Serif" font-size="10.00">ID</text>
</g>
<!-- Node4&#45;&gt;Node1 -->
<g id="edge3" class="edge"><title>Node4&#45;&gt;Node1</title>
<path fill="none" stroke="#9a32cd" stroke-dasharray="5,2" d="M137.568,-76.8856C131.864,-62.9816 124.099,-44.054 118.837,-31.227"/>
<polygon fill="#9a32cd" stroke="#9a32cd" points="134.419,-78.4314 141.453,-86.3546 140.896,-75.7745 134.419,-78.4314"/>
<text text-anchor="middle" x="147.5" y="-53.5" font-family="Helvetica,sans-Serif" font-size="10.00"> id_type</text>
</g>
</g>
</svg>
