<?xml version="1.0" encoding="UTF-8" standalone="no"?>
<!DOCTYPE svg PUBLIC "-//W3C//DTD SVG 1.1//EN"
 "http://www.w3.org/Graphics/SVG/1.1/DTD/svg11.dtd">
<!-- Generated by graphviz version 2.38.0 (20140413.2041)
 -->
<!-- Title: factory::CPU_server&lt; T &gt; Pages: 1 -->
<svg width="139pt" height="218pt"
 viewBox="0.00 0.00 139.00 218.00" xmlns="http://www.w3.org/2000/svg" xmlns:xlink="http://www.w3.org/1999/xlink">
<g id="graph0" class="graph" transform="scale(1 1) rotate(0) translate(4 214)">
<title>factory::CPU_server&lt; T &gt;</title>
<polygon fill="white" stroke="none" points="-4,4 -4,-214 135,-214 135,4 -4,4"/>
<!-- Node1 -->
<g id="node1" class="node"><title>Node1</title>
<polygon fill="#bfbfbf" stroke="black" points="0,-0.5 0,-19.5 131,-19.5 131,-0.5 0,-0.5"/>
<text text-anchor="middle" x="65.5" y="-7.5" font-family="Helvetica,sans-Serif" font-size="10.00">factory::CPU_server&lt; T &gt;</text>
</g>
<!-- Node2 -->
<g id="node2" class="node"><title>Node2</title>
<g id="a_node2"><a xlink:href="structfactory_1_1Basic__CPU__server.html" target="_top" xlink:title="factory::Basic_CPU\l_server\&lt; T \&gt;">
<polygon fill="white" stroke="black" points="13.5,-56.5 13.5,-86.5 117.5,-86.5 117.5,-56.5 13.5,-56.5"/>
<text text-anchor="start" x="21.5" y="-74.5" font-family="Helvetica,sans-Serif" font-size="10.00">factory::Basic_CPU</text>
<text text-anchor="middle" x="65.5" y="-63.5" font-family="Helvetica,sans-Serif" font-size="10.00">_server&lt; T &gt;</text>
</a>
</g>
</g>
<!-- Node2&#45;&gt;Node1 -->
<g id="edge1" class="edge"><title>Node2&#45;&gt;Node1</title>
<path fill="none" stroke="midnightblue" d="M65.5,-46.2892C65.5,-36.857 65.5,-26.6548 65.5,-19.6578"/>
<polygon fill="midnightblue" stroke="midnightblue" points="62.0001,-46.3993 65.5,-56.3993 69.0001,-46.3994 62.0001,-46.3993"/>
</g>
<!-- Node3 -->
<g id="node3" class="node"><title>Node3</title>
<g id="a_node3"><a xlink:href="structfactory_1_1Server__with__pool.html" target="_top" xlink:title="Standard_server_with\l_pool\&lt; T \&gt;">
<polygon fill="white" stroke="black" points="10,-123.5 10,-153.5 121,-153.5 121,-123.5 10,-123.5"/>
<text text-anchor="start" x="18" y="-141.5" font-family="Helvetica,sans-Serif" font-size="10.00">Standard_server_with</text>
<text text-anchor="middle" x="65.5" y="-130.5" font-family="Helvetica,sans-Serif" font-size="10.00">_pool&lt; T &gt;</text>
</a>
</g>
</g>
<!-- Node3&#45;&gt;Node2 -->
<g id="edge2" class="edge"><title>Node3&#45;&gt;Node2</title>
<path fill="none" stroke="midnightblue" d="M65.5,-113.108C65.5,-104.154 65.5,-94.3227 65.5,-86.5765"/>
<polygon fill="midnightblue" stroke="midnightblue" points="62.0001,-113.396 65.5,-123.396 69.0001,-113.396 62.0001,-113.396"/>
</g>
<!-- Node4 -->
<g id="node4" class="node"><title>Node4</title>
<g id="a_node4"><a xlink:href="structfactory_1_1Server__base.html" target="_top" xlink:title="factory::Server_base">
<polygon fill="white" stroke="black" points="12,-190.5 12,-209.5 119,-209.5 119,-190.5 12,-190.5"/>
<text text-anchor="middle" x="65.5" y="-197.5" font-family="Helvetica,sans-Serif" font-size="10.00">factory::Server_base</text>
</a>
</g>
</g>
<!-- Node4&#45;&gt;Node3 -->
<g id="edge3" class="edge"><title>Node4&#45;&gt;Node3</title>
<path fill="none" stroke="midnightblue" d="M65.5,-180.235C65.5,-171.586 65.5,-161.497 65.5,-153.523"/>
<polygon fill="midnightblue" stroke="midnightblue" points="62.0001,-180.475 65.5,-190.475 69.0001,-180.475 62.0001,-180.475"/>
</g>
</g>
</svg>
