<?xml version="1.0" encoding="UTF-8" standalone="no"?>
<!DOCTYPE svg PUBLIC "-//W3C//DTD SVG 1.1//EN"
 "http://www.w3.org/Graphics/SVG/1.1/DTD/svg11.dtd">
<!-- Generated by graphviz version 2.36.0 (20140111.2315)
 -->
<!-- Title: sys::path Pages: 1 -->
<svg width="181pt" height="84pt"
 viewBox="0.00 0.00 181.00 84.00" xmlns="http://www.w3.org/2000/svg" xmlns:xlink="http://www.w3.org/1999/xlink">
<g id="graph0" class="graph" transform="scale(1 1) rotate(0) translate(4 80)">
<title>sys::path</title>
<polygon fill="white" stroke="none" points="-4,4 -4,-80 177,-80 177,4 -4,4"/>
<!-- Node1 -->
<g id="node1" class="node"><title>Node1</title>
<polygon fill="#bfbfbf" stroke="black" points="71.5,-56.5 71.5,-75.5 128.5,-75.5 128.5,-56.5 71.5,-56.5"/>
<text text-anchor="middle" x="100" y="-63.5" font-family="Helvetica,sans-Serif" font-size="10.00">sys::path</text>
</g>
<!-- Node2 -->
<g id="node2" class="node"><title>Node2</title>
<g id="a_node2"><a xlink:href="structsys_1_1canonical__path.html" target="_top" xlink:title="sys::canonical_path">
<polygon fill="white" stroke="black" points="0,-0.5 0,-19.5 104,-19.5 104,-0.5 0,-0.5"/>
<text text-anchor="middle" x="52" y="-7.5" font-family="Helvetica,sans-Serif" font-size="10.00">sys::canonical_path</text>
</a>
</g>
</g>
<!-- Node1&#45;&gt;Node2 -->
<g id="edge1" class="edge"><title>Node1&#45;&gt;Node2</title>
<path fill="none" stroke="midnightblue" d="M85.2723,-48.4314C76.8599,-38.9673 66.6513,-27.4827 59.7787,-19.7511"/>
<polygon fill="midnightblue" stroke="midnightblue" points="82.8142,-50.9342 92.0738,-56.083 88.046,-46.2836 82.8142,-50.9342"/>
</g>
<!-- Node3 -->
<g id="node3" class="node"><title>Node3</title>
<g id="a_node3"><a xlink:href="structsys_1_1file.html" target="_top" xlink:title="sys::file">
<polygon fill="white" stroke="black" points="122.5,-0.5 122.5,-19.5 173.5,-19.5 173.5,-0.5 122.5,-0.5"/>
<text text-anchor="middle" x="148" y="-7.5" font-family="Helvetica,sans-Serif" font-size="10.00">sys::file</text>
</a>
</g>
</g>
<!-- Node1&#45;&gt;Node3 -->
<g id="edge2" class="edge"><title>Node1&#45;&gt;Node3</title>
<path fill="none" stroke="midnightblue" d="M114.728,-48.4314C123.14,-38.9673 133.349,-27.4827 140.221,-19.7511"/>
<polygon fill="midnightblue" stroke="midnightblue" points="111.954,-46.2836 107.926,-56.083 117.186,-50.9342 111.954,-46.2836"/>
</g>
</g>
</svg>
