<?xml version="1.0" encoding="UTF-8" standalone="no"?>
<!DOCTYPE svg PUBLIC "-//W3C//DTD SVG 1.1//EN"
 "http://www.w3.org/Graphics/SVG/1.1/DTD/svg11.dtd">
<!-- Generated by graphviz version 2.36.0 (20140111.2315)
 -->
<!-- Title: Good_kernel Pages: 1 -->
<svg width="246pt" height="264pt"
 viewBox="0.00 0.00 246.00 264.00" xmlns="http://www.w3.org/2000/svg" xmlns:xlink="http://www.w3.org/1999/xlink">
<g id="graph0" class="graph" transform="scale(1 1) rotate(0) translate(4 260)">
<title>Good_kernel</title>
<polygon fill="white" stroke="none" points="-4,4 -4,-260 242,-260 242,4 -4,4"/>
<!-- Node1 -->
<g id="node1" class="node"><title>Node1</title>
<polygon fill="#bfbfbf" stroke="black" points="89.5,-68.5 89.5,-87.5 160.5,-87.5 160.5,-68.5 89.5,-68.5"/>
<text text-anchor="middle" x="125" y="-75.5" font-family="Helvetica,sans-Serif" font-size="10.00">Good_kernel</text>
</g>
<!-- Node6 -->
<g id="node6" class="node"><title>Node6</title>
<g id="a_node6"><a xlink:href="structKernel__that__reads__more__than__writes.html" target="_top" xlink:title="Kernel_that_reads_more\l_than_writes">
<polygon fill="white" stroke="black" points="0,-1 0,-31 122,-31 122,-1 0,-1"/>
<text text-anchor="start" x="8" y="-19" font-family="Helvetica,sans-Serif" font-size="10.00">Kernel_that_reads_more</text>
<text text-anchor="middle" x="61" y="-8" font-family="Helvetica,sans-Serif" font-size="10.00">_than_writes</text>
</a>
</g>
</g>
<!-- Node1&#45;&gt;Node6 -->
<g id="edge5" class="edge"><title>Node1&#45;&gt;Node6</title>
<path fill="none" stroke="midnightblue" d="M108.485,-61.5169C98.481,-52.1384 85.8169,-40.2659 76.0835,-31.1408"/>
<polygon fill="midnightblue" stroke="midnightblue" points="106.141,-64.1174 115.83,-68.4035 110.929,-59.0106 106.141,-64.1174"/>
</g>
<!-- Node7 -->
<g id="node7" class="node"><title>Node7</title>
<g id="a_node7"><a xlink:href="structKernel__that__writes__more__than__reads.html" target="_top" xlink:title="Kernel_that_writes\l_more_than_reads">
<polygon fill="white" stroke="black" points="140,-1 140,-31 238,-31 238,-1 140,-1"/>
<text text-anchor="start" x="148" y="-19" font-family="Helvetica,sans-Serif" font-size="10.00">Kernel_that_writes</text>
<text text-anchor="middle" x="189" y="-8" font-family="Helvetica,sans-Serif" font-size="10.00">_more_than_reads</text>
</a>
</g>
</g>
<!-- Node1&#45;&gt;Node7 -->
<g id="edge6" class="edge"><title>Node1&#45;&gt;Node7</title>
<path fill="none" stroke="midnightblue" d="M141.515,-61.5169C151.519,-52.1384 164.183,-40.2659 173.916,-31.1408"/>
<polygon fill="midnightblue" stroke="midnightblue" points="139.071,-59.0106 134.17,-68.4035 143.859,-64.1174 139.071,-59.0106"/>
</g>
<!-- Node2 -->
<g id="node2" class="node"><title>Node2</title>
<g id="a_node2"><a xlink:href="structasc_1_1Kernel.html" target="_top" xlink:title="asc::Kernel">
<polygon fill="white" stroke="black" points="92,-124.5 92,-143.5 158,-143.5 158,-124.5 92,-124.5"/>
<text text-anchor="middle" x="125" y="-131.5" font-family="Helvetica,sans-Serif" font-size="10.00">asc::Kernel</text>
</a>
</g>
</g>
<!-- Node2&#45;&gt;Node1 -->
<g id="edge1" class="edge"><title>Node2&#45;&gt;Node1</title>
<path fill="none" stroke="midnightblue" d="M125,-113.805C125,-104.91 125,-94.7798 125,-87.7511"/>
<polygon fill="midnightblue" stroke="midnightblue" points="121.5,-114.083 125,-124.083 128.5,-114.083 121.5,-114.083"/>
</g>
<!-- Node3 -->
<g id="node3" class="node"><title>Node3</title>
<g id="a_node3"><a xlink:href="classasc_1_1mobile__kernel.html" target="_top" xlink:title="asc::mobile_kernel">
<polygon fill="white" stroke="black" points="76,-180.5 76,-199.5 174,-199.5 174,-180.5 76,-180.5"/>
<text text-anchor="middle" x="125" y="-187.5" font-family="Helvetica,sans-Serif" font-size="10.00">asc::mobile_kernel</text>
</a>
</g>
</g>
<!-- Node3&#45;&gt;Node2 -->
<g id="edge2" class="edge"><title>Node3&#45;&gt;Node2</title>
<path fill="none" stroke="midnightblue" d="M125,-169.805C125,-160.91 125,-150.78 125,-143.751"/>
<polygon fill="midnightblue" stroke="midnightblue" points="121.5,-170.083 125,-180.083 128.5,-170.083 121.5,-170.083"/>
</g>
<!-- Node4 -->
<g id="node4" class="node"><title>Node4</title>
<g id="a_node4"><a xlink:href="classasc_1_1kernel__base.html" target="_top" xlink:title="asc::kernel_base">
<polygon fill="white" stroke="black" points="23.5,-236.5 23.5,-255.5 114.5,-255.5 114.5,-236.5 23.5,-236.5"/>
<text text-anchor="middle" x="69" y="-243.5" font-family="Helvetica,sans-Serif" font-size="10.00">asc::kernel_base</text>
</a>
</g>
</g>
<!-- Node4&#45;&gt;Node3 -->
<g id="edge3" class="edge"><title>Node4&#45;&gt;Node3</title>
<path fill="none" stroke="midnightblue" d="M85.3299,-229.253C95.265,-219.673 107.588,-207.791 115.839,-199.834"/>
<polygon fill="midnightblue" stroke="midnightblue" points="82.7664,-226.863 77.9974,-236.324 87.6253,-231.902 82.7664,-226.863"/>
</g>
<!-- Node5 -->
<g id="node5" class="node"><title>Node5</title>
<g id="a_node5"><a xlink:href="classasc_1_1kernel__header.html" target="_top" xlink:title="asc::kernel_header">
<polygon fill="white" stroke="black" points="132.5,-236.5 132.5,-255.5 231.5,-255.5 231.5,-236.5 132.5,-236.5"/>
<text text-anchor="middle" x="182" y="-243.5" font-family="Helvetica,sans-Serif" font-size="10.00">asc::kernel_header</text>
</a>
</g>
</g>
<!-- Node5&#45;&gt;Node3 -->
<g id="edge4" class="edge"><title>Node5&#45;&gt;Node3</title>
<path fill="none" stroke="midnightblue" d="M165.379,-229.253C155.266,-219.673 142.723,-207.791 134.325,-199.834"/>
<polygon fill="midnightblue" stroke="midnightblue" points="163.175,-231.987 172.842,-236.324 167.99,-226.906 163.175,-231.987"/>
</g>
</g>
</svg>
