<?xml version="1.0" encoding="UTF-8" standalone="no"?>
<!DOCTYPE svg PUBLIC "-//W3C//DTD SVG 1.1//EN"
 "http://www.w3.org/Graphics/SVG/1.1/DTD/svg11.dtd">
<!-- Generated by graphviz version 2.38.0 (20140413.2041)
 -->
<!-- Title: Master_discoverer&lt; Address, Hierarchy, Distance &gt; Pages: 1 -->
<svg width="133pt" height="106pt"
 viewBox="0.00 0.00 133.00 106.00" xmlns="http://www.w3.org/2000/svg" xmlns:xlink="http://www.w3.org/1999/xlink">
<g id="graph0" class="graph" transform="scale(1 1) rotate(0) translate(4 102)">
<title>Master_discoverer&lt; Address, Hierarchy, Distance &gt;</title>
<polygon fill="white" stroke="none" points="-4,4 -4,-102 129,-102 129,4 -4,4"/>
<!-- Node1 -->
<g id="node1" class="node"><title>Node1</title>
<polygon fill="#bfbfbf" stroke="black" points="9,-0.5 9,-41.5 116,-41.5 116,-0.5 9,-0.5"/>
<text text-anchor="start" x="17" y="-29.5" font-family="Helvetica,sans-Serif" font-size="10.00">Master_discoverer&lt;</text>
<text text-anchor="start" x="17" y="-18.5" font-family="Helvetica,sans-Serif" font-size="10.00"> Address, Hierarchy,</text>
<text text-anchor="middle" x="62.5" y="-7.5" font-family="Helvetica,sans-Serif" font-size="10.00"> Distance &gt;</text>
</g>
<!-- Node2 -->
<g id="node2" class="node"><title>Node2</title>
<polygon fill="white" stroke="#bfbfbf" points="0,-78.5 0,-97.5 125,-97.5 125,-78.5 0,-78.5"/>
<text text-anchor="middle" x="62.5" y="-85.5" font-family="Helvetica,sans-Serif" font-size="10.00">Priority_kernel&lt; Kernel &gt;</text>
</g>
<!-- Node2&#45;&gt;Node1 -->
<g id="edge1" class="edge"><title>Node2&#45;&gt;Node1</title>
<path fill="none" stroke="midnightblue" d="M62.5,-68.037C62.5,-59.7084 62.5,-49.9358 62.5,-41.5421"/>
<polygon fill="midnightblue" stroke="midnightblue" points="59.0001,-68.2338 62.5,-78.2338 66.0001,-68.2338 59.0001,-68.2338"/>
</g>
</g>
</svg>
