<?xml version="1.0" encoding="UTF-8" standalone="no"?>
<!DOCTYPE svg PUBLIC "-//W3C//DTD SVG 1.1//EN"
 "http://www.w3.org/Graphics/SVG/1.1/DTD/svg11.dtd">
<!-- Generated by graphviz version 2.38.0 (20140413.2041)
 -->
<!-- Title: Test_mutex&lt; Mutex &gt; Pages: 1 -->
<svg width="127pt" height="218pt"
 viewBox="0.00 0.00 127.00 218.00" xmlns="http://www.w3.org/2000/svg" xmlns:xlink="http://www.w3.org/1999/xlink">
<g id="graph0" class="graph" transform="scale(1 1) rotate(0) translate(4 214)">
<title>Test_mutex&lt; Mutex &gt;</title>
<polygon fill="white" stroke="none" points="-4,4 -4,-214 123,-214 123,4 -4,4"/>
<!-- Node1 -->
<g id="node1" class="node"><title>Node1</title>
<polygon fill="#bfbfbf" stroke="black" points="3,-0.5 3,-19.5 116,-19.5 116,-0.5 3,-0.5"/>
<text text-anchor="middle" x="59.5" y="-7.5" font-family="Helvetica,sans-Serif" font-size="10.00">Test_mutex&lt; Mutex &gt;</text>
</g>
<!-- Node2 -->
<g id="node2" class="node"><title>Node2</title>
<g id="a_node2"><a xlink:href="structParametric__test.html" target="_top" xlink:title="Parametric_test\&lt; Test\l_mutex\&lt; Mutex \&gt; \&gt;">
<polygon fill="white" stroke="black" points="2.5,-56.5 2.5,-86.5 116.5,-86.5 116.5,-56.5 2.5,-56.5"/>
<text text-anchor="start" x="10.5" y="-74.5" font-family="Helvetica,sans-Serif" font-size="10.00">Parametric_test&lt; Test</text>
<text text-anchor="middle" x="59.5" y="-63.5" font-family="Helvetica,sans-Serif" font-size="10.00">_mutex&lt; Mutex &gt; &gt;</text>
</a>
</g>
</g>
<!-- Node2&#45;&gt;Node1 -->
<g id="edge1" class="edge"><title>Node2&#45;&gt;Node1</title>
<path fill="none" stroke="midnightblue" d="M59.5,-46.2892C59.5,-36.857 59.5,-26.6548 59.5,-19.6578"/>
<polygon fill="midnightblue" stroke="midnightblue" points="56.0001,-46.3993 59.5,-56.3993 63.0001,-46.3994 56.0001,-46.3993"/>
</g>
<!-- Node3 -->
<g id="node3" class="node"><title>Node3</title>
<g id="a_node3"><a xlink:href="structtest_1_1Test.html" target="_top" xlink:title="test::Test\&lt; Test_mutex\l\&lt; Mutex \&gt; \&gt;">
<polygon fill="white" stroke="black" points="0,-123.5 0,-153.5 119,-153.5 119,-123.5 0,-123.5"/>
<text text-anchor="start" x="8" y="-141.5" font-family="Helvetica,sans-Serif" font-size="10.00">test::Test&lt; Test_mutex</text>
<text text-anchor="middle" x="59.5" y="-130.5" font-family="Helvetica,sans-Serif" font-size="10.00">&lt; Mutex &gt; &gt;</text>
</a>
</g>
</g>
<!-- Node3&#45;&gt;Node2 -->
<g id="edge2" class="edge"><title>Node3&#45;&gt;Node2</title>
<path fill="none" stroke="midnightblue" d="M59.5,-113.108C59.5,-104.154 59.5,-94.3227 59.5,-86.5765"/>
<polygon fill="midnightblue" stroke="midnightblue" points="56.0001,-113.396 59.5,-123.396 63.0001,-113.396 56.0001,-113.396"/>
</g>
<!-- Node4 -->
<g id="node4" class="node"><title>Node4</title>
<g id="a_node4"><a xlink:href="structtest_1_1Basic__test.html" target="_top" xlink:title="test::Basic_test">
<polygon fill="white" stroke="black" points="16.5,-190.5 16.5,-209.5 102.5,-209.5 102.5,-190.5 16.5,-190.5"/>
<text text-anchor="middle" x="59.5" y="-197.5" font-family="Helvetica,sans-Serif" font-size="10.00">test::Basic_test</text>
</a>
</g>
</g>
<!-- Node4&#45;&gt;Node3 -->
<g id="edge3" class="edge"><title>Node4&#45;&gt;Node3</title>
<path fill="none" stroke="midnightblue" d="M59.5,-180.235C59.5,-171.586 59.5,-161.497 59.5,-153.523"/>
<polygon fill="midnightblue" stroke="midnightblue" points="56.0001,-180.475 59.5,-190.475 63.0001,-180.475 56.0001,-180.475"/>
</g>
</g>
</svg>
