<?xml version="1.0" encoding="UTF-8" standalone="no"?>
<!DOCTYPE svg PUBLIC "-//W3C//DTD SVG 1.1//EN"
 "http://www.w3.org/Graphics/SVG/1.1/DTD/svg11.dtd">
<!-- Generated by graphviz version 2.36.0 (20140111.2315)
 -->
<!-- Title: factory::Process_rserver&lt; T, Router &gt; Pages: 1 -->
<svg width="130pt" height="164pt"
 viewBox="0.00 0.00 130.00 164.00" xmlns="http://www.w3.org/2000/svg" xmlns:xlink="http://www.w3.org/1999/xlink">
<g id="graph0" class="graph" transform="scale(1 1) rotate(0) translate(4 160)">
<title>factory::Process_rserver&lt; T, Router &gt;</title>
<polygon fill="white" stroke="none" points="-4,4 -4,-160 126,-160 126,4 -4,4"/>
<!-- Node1 -->
<g id="node1" class="node"><title>Node1</title>
<polygon fill="#bfbfbf" stroke="black" points="-1,-1 -1,-31 123,-31 123,-1 -1,-1"/>
<text text-anchor="start" x="7" y="-19" font-family="Helvetica,sans-Serif" font-size="10.00">factory::Process_rserver</text>
<text text-anchor="middle" x="61" y="-8" font-family="Helvetica,sans-Serif" font-size="10.00">&lt; T, Router &gt;</text>
</g>
<!-- Node2 -->
<g id="node2" class="node"><title>Node2</title>
<g id="a_node2"><a xlink:href="structfactory_1_1Buffered__server.html" target="_top" xlink:title="factory::Buffered_server\l\&lt; T, Router \&gt;">
<polygon fill="white" stroke="black" points="0,-69 0,-99 122,-99 122,-69 0,-69"/>
<text text-anchor="start" x="8" y="-87" font-family="Helvetica,sans-Serif" font-size="10.00">factory::Buffered_server</text>
<text text-anchor="middle" x="61" y="-76" font-family="Helvetica,sans-Serif" font-size="10.00">&lt; T, Router &gt;</text>
</a>
</g>
</g>
<!-- Node2&#45;&gt;Node1 -->
<g id="edge1" class="edge"><title>Node2&#45;&gt;Node1</title>
<path fill="none" stroke="midnightblue" d="M61,-58.5322C61,-49.3606 61,-39.2449 61,-31.2931"/>
<polygon fill="midnightblue" stroke="midnightblue" points="57.5001,-58.6789 61,-68.679 64.5001,-58.679 57.5001,-58.6789"/>
</g>
<!-- Node3 -->
<g id="node3" class="node"><title>Node3</title>
<g id="a_node3"><a xlink:href="structfactory_1_1Server__base.html" target="_top" xlink:title="factory::Server_base">
<polygon fill="white" stroke="black" points="7.5,-136.5 7.5,-155.5 114.5,-155.5 114.5,-136.5 7.5,-136.5"/>
<text text-anchor="middle" x="61" y="-143.5" font-family="Helvetica,sans-Serif" font-size="10.00">factory::Server_base</text>
</a>
</g>
</g>
<!-- Node3&#45;&gt;Node2 -->
<g id="edge2" class="edge"><title>Node3&#45;&gt;Node2</title>
<path fill="none" stroke="midnightblue" d="M61,-126.371C61,-117.585 61,-107.272 61,-99.1408"/>
<polygon fill="midnightblue" stroke="midnightblue" points="57.5001,-126.403 61,-136.403 64.5001,-126.403 57.5001,-126.403"/>
</g>
</g>
</svg>
