<?xml version="1.0" encoding="UTF-8" standalone="no"?>
<!DOCTYPE svg PUBLIC "-//W3C//DTD SVG 1.1//EN"
 "http://www.w3.org/Graphics/SVG/1.1/DTD/svg11.dtd">
<!-- Generated by graphviz version 2.38.0 (20140413.2041)
 -->
<!-- Title: Main&lt; Address &gt; Pages: 1 -->
<svg width="250pt" height="196pt"
 viewBox="0.00 0.00 250.00 196.00" xmlns="http://www.w3.org/2000/svg" xmlns:xlink="http://www.w3.org/1999/xlink">
<g id="graph0" class="graph" transform="scale(1 1) rotate(0) translate(4 192)">
<title>Main&lt; Address &gt;</title>
<polygon fill="white" stroke="none" points="-4,4 -4,-192 246,-192 246,4 -4,4"/>
<!-- Node1 -->
<g id="node1" class="node"><title>Node1</title>
<polygon fill="#bfbfbf" stroke="black" points="113.5,-0.5 113.5,-19.5 205.5,-19.5 205.5,-0.5 113.5,-0.5"/>
<text text-anchor="middle" x="159.5" y="-7.5" font-family="Helvetica,sans-Serif" font-size="10.00">Main&lt; Address &gt;</text>
</g>
<!-- Node2 -->
<g id="node2" class="node"><title>Node2</title>
<g id="a_node2"><a xlink:href="structfactory_1_1Kernel.html" target="_top" xlink:title="factory::Kernel">
<polygon fill="white" stroke="black" points="79.5,-56.5 79.5,-75.5 159.5,-75.5 159.5,-56.5 79.5,-56.5"/>
<text text-anchor="middle" x="119.5" y="-63.5" font-family="Helvetica,sans-Serif" font-size="10.00">factory::Kernel</text>
</a>
</g>
</g>
<!-- Node2&#45;&gt;Node1 -->
<g id="edge1" class="edge"><title>Node2&#45;&gt;Node1</title>
<path fill="none" stroke="midnightblue" d="M126.247,-47.2747C132.325,-38.0454 140.798,-27.1703 147.887,-19.7511"/>
<polygon fill="midnightblue" stroke="midnightblue" points="123.103,-45.7115 120.939,-56.083 129.098,-49.3246 123.103,-45.7115"/>
</g>
<!-- Node2&#45;&gt;Node1 -->
<g id="edge6" class="edge"><title>Node2&#45;&gt;Node1</title>
<path fill="none" stroke="midnightblue" d="M138.054,-48.4314C145.958,-38.9673 154.082,-27.4827 158.149,-19.7511"/>
<polygon fill="midnightblue" stroke="midnightblue" points="135.285,-46.278 131.272,-56.083 140.524,-50.9212 135.285,-46.278"/>
</g>
<!-- Node3 -->
<g id="node3" class="node"><title>Node3</title>
<g id="a_node3"><a xlink:href="structfactory_1_1Mobile__kernel.html" target="_top" xlink:title="factory::Mobile_kernel">
<polygon fill="white" stroke="black" points="63,-112.5 63,-131.5 176,-131.5 176,-112.5 63,-112.5"/>
<text text-anchor="middle" x="119.5" y="-119.5" font-family="Helvetica,sans-Serif" font-size="10.00">factory::Mobile_kernel</text>
</a>
</g>
</g>
<!-- Node3&#45;&gt;Node2 -->
<g id="edge2" class="edge"><title>Node3&#45;&gt;Node2</title>
<path fill="none" stroke="midnightblue" d="M119.5,-101.805C119.5,-92.9102 119.5,-82.7798 119.5,-75.7511"/>
<polygon fill="midnightblue" stroke="midnightblue" points="116,-102.083 119.5,-112.083 123,-102.083 116,-102.083"/>
</g>
<!-- Node4 -->
<g id="node4" class="node"><title>Node4</title>
<g id="a_node4"><a xlink:href="structfactory_1_1Basic__kernel.html" target="_top" xlink:title="factory::Basic_kernel">
<polygon fill="white" stroke="black" points="0,-168.5 0,-187.5 109,-187.5 109,-168.5 0,-168.5"/>
<text text-anchor="middle" x="54.5" y="-175.5" font-family="Helvetica,sans-Serif" font-size="10.00">factory::Basic_kernel</text>
</a>
</g>
</g>
<!-- Node4&#45;&gt;Node3 -->
<g id="edge3" class="edge"><title>Node4&#45;&gt;Node3</title>
<path fill="none" stroke="midnightblue" d="M72.7726,-161.82C84.4178,-152.145 99.0995,-139.948 108.867,-131.834"/>
<polygon fill="midnightblue" stroke="midnightblue" points="70.3987,-159.242 64.9434,-168.324 74.8719,-164.626 70.3987,-159.242"/>
</g>
<!-- Node5 -->
<g id="node5" class="node"><title>Node5</title>
<g id="a_node5"><a xlink:href="structfactory_1_1Kernel__header.html" target="_top" xlink:title="factory::Kernel_header">
<polygon fill="white" stroke="black" points="127,-168.5 127,-187.5 242,-187.5 242,-168.5 127,-168.5"/>
<text text-anchor="middle" x="184.5" y="-175.5" font-family="Helvetica,sans-Serif" font-size="10.00">factory::Kernel_header</text>
</a>
</g>
</g>
<!-- Node5&#45;&gt;Node3 -->
<g id="edge4" class="edge"><title>Node5&#45;&gt;Node3</title>
<path fill="none" stroke="midnightblue" d="M166.227,-161.82C154.582,-152.145 139.901,-139.948 130.133,-131.834"/>
<polygon fill="midnightblue" stroke="midnightblue" points="164.128,-164.626 174.057,-168.324 168.601,-159.242 164.128,-164.626"/>
</g>
<!-- Node6 -->
<g id="node6" class="node"><title>Node6</title>
<polygon fill="white" stroke="#bfbfbf" points="177.5,-56.5 177.5,-75.5 221.5,-75.5 221.5,-56.5 177.5,-56.5"/>
<text text-anchor="middle" x="199.5" y="-63.5" font-family="Helvetica,sans-Serif" font-size="10.00">Kernel</text>
</g>
<!-- Node6&#45;&gt;Node1 -->
<g id="edge5" class="edge"><title>Node6&#45;&gt;Node1</title>
<path fill="none" stroke="midnightblue" d="M180.946,-48.4314C173.042,-38.9673 164.918,-27.4827 160.851,-19.7511"/>
<polygon fill="midnightblue" stroke="midnightblue" points="178.476,-50.9212 187.728,-56.083 183.715,-46.278 178.476,-50.9212"/>
</g>
<!-- Node6&#45;&gt;Node1 -->
<g id="edge7" class="edge"><title>Node6&#45;&gt;Node1</title>
<path fill="none" stroke="midnightblue" d="M192.753,-47.2747C186.675,-38.0454 178.202,-27.1703 171.113,-19.7511"/>
<polygon fill="midnightblue" stroke="midnightblue" points="189.902,-49.3246 198.061,-56.083 195.897,-45.7115 189.902,-49.3246"/>
</g>
</g>
</svg>
