<?xml version="1.0" encoding="UTF-8" standalone="no"?>
<!DOCTYPE svg PUBLIC "-//W3C//DTD SVG 1.1//EN"
 "http://www.w3.org/Graphics/SVG/1.1/DTD/svg11.dtd">
<!-- Generated by graphviz version 2.36.0 (20140111.2315)
 -->
<!-- Title: bsc::kernel Pages: 1 -->
<svg width="684pt" height="1264pt"
 viewBox="0.00 0.00 684.00 1264.00" xmlns="http://www.w3.org/2000/svg" xmlns:xlink="http://www.w3.org/1999/xlink">
<g id="graph0" class="graph" transform="scale(1 1) rotate(0) translate(4 1260)">
<title>bsc::kernel</title>
<polygon fill="white" stroke="none" points="-4,4 -4,-1260 680,-1260 680,4 -4,4"/>
<!-- Node1 -->
<g id="node1" class="node"><title>Node1</title>
<polygon fill="#bfbfbf" stroke="black" points="270.5,-525.5 270.5,-544.5 335.5,-544.5 335.5,-525.5 270.5,-525.5"/>
<text text-anchor="middle" x="303" y="-532.5" font-family="Helvetica,sans-Serif" font-size="10.00">bsc::kernel</text>
</g>
<!-- Node5 -->
<g id="node5" class="node"><title>Node5</title>
<g id="a_node5"><a xlink:href="structautoreg_1_1ACF__generator.html" target="_top" xlink:title="autoreg::ACF_generator\&lt; T \&gt;">
<polygon fill="white" stroke="black" points="372.5,-1236.5 372.5,-1255.5 517.5,-1255.5 517.5,-1236.5 372.5,-1236.5"/>
<text text-anchor="middle" x="445" y="-1243.5" font-family="Helvetica,sans-Serif" font-size="10.00">autoreg::ACF_generator&lt; T &gt;</text>
</a>
</g>
</g>
<!-- Node1&#45;&gt;Node5 -->
<g id="edge4" class="edge"><title>Node1&#45;&gt;Node5</title>
<path fill="none" stroke="midnightblue" d="M304.619,-554.841C308.151,-662.578 327.212,-1174.4 372,-1227 375.269,-1230.84 379.213,-1233.95 383.55,-1236.46"/>
<polygon fill="midnightblue" stroke="midnightblue" points="308.113,-554.598 304.294,-544.715 301.116,-554.823 308.113,-554.598"/>
</g>
<!-- Node6 -->
<g id="node6" class="node"><title>Node6</title>
<g id="a_node6"><a xlink:href="structautoreg_1_1Autoreg__coefs.html" target="_top" xlink:title="autoreg::Autoreg_coefs\&lt; T \&gt;">
<polygon fill="white" stroke="black" points="374,-1198.5 374,-1217.5 516,-1217.5 516,-1198.5 374,-1198.5"/>
<text text-anchor="middle" x="445" y="-1205.5" font-family="Helvetica,sans-Serif" font-size="10.00">autoreg::Autoreg_coefs&lt; T &gt;</text>
</a>
</g>
</g>
<!-- Node1&#45;&gt;Node6 -->
<g id="edge5" class="edge"><title>Node1&#45;&gt;Node6</title>
<path fill="none" stroke="midnightblue" d="M304.746,-555.049C308.811,-659.619 329.684,-1139.59 372,-1189 375.28,-1192.83 379.231,-1195.93 383.573,-1198.44"/>
<polygon fill="midnightblue" stroke="midnightblue" points="308.238,-554.773 304.359,-544.913 301.243,-555.04 308.238,-554.773"/>
</g>
<!-- Node7 -->
<g id="node7" class="node"><title>Node7</title>
<g id="a_node7"><a xlink:href="classautoreg_1_1Autoreg__model.html" target="_top" xlink:title="autoreg::Autoreg_model\&lt; T \&gt;">
<polygon fill="white" stroke="black" points="373,-1160.5 373,-1179.5 517,-1179.5 517,-1160.5 373,-1160.5"/>
<text text-anchor="middle" x="445" y="-1167.5" font-family="Helvetica,sans-Serif" font-size="10.00">autoreg::Autoreg_model&lt; T &gt;</text>
</a>
</g>
</g>
<!-- Node1&#45;&gt;Node7 -->
<g id="edge6" class="edge"><title>Node1&#45;&gt;Node7</title>
<path fill="none" stroke="midnightblue" d="M304.899,-555.085C309.581,-655.878 332.493,-1103.57 372,-1150 375.615,-1154.25 380.047,-1157.63 384.919,-1160.33"/>
<polygon fill="midnightblue" stroke="midnightblue" points="308.381,-554.62 304.428,-544.791 301.388,-554.94 308.381,-554.62"/>
</g>
<!-- Node8 -->
<g id="node8" class="node"><title>Node8</title>
<g id="a_node8"><a xlink:href="structautoreg_1_1Generator1.html" target="_top" xlink:title="autoreg::Generator1\l\&lt; T, Grid \&gt;">
<polygon fill="white" stroke="black" points="393.5,-1111 393.5,-1141 496.5,-1141 496.5,-1111 393.5,-1111"/>
<text text-anchor="start" x="401.5" y="-1129" font-family="Helvetica,sans-Serif" font-size="10.00">autoreg::Generator1</text>
<text text-anchor="middle" x="445" y="-1118" font-family="Helvetica,sans-Serif" font-size="10.00">&lt; T, Grid &gt;</text>
</a>
</g>
</g>
<!-- Node1&#45;&gt;Node8 -->
<g id="edge7" class="edge"><title>Node1&#45;&gt;Node8</title>
<path fill="none" stroke="midnightblue" d="M303.665,-555.063C302.554,-645.503 302.412,-1014.61 372,-1101 377.561,-1107.9 385.143,-1112.91 393.308,-1116.53"/>
<polygon fill="midnightblue" stroke="midnightblue" points="307.168,-554.873 303.811,-544.824 300.169,-554.773 307.168,-554.873"/>
</g>
<!-- Node9 -->
<g id="node9" class="node"><title>Node9</title>
<g id="a_node9"><a xlink:href="structautoreg_1_1Solve__Yule__Walker.html" target="_top" xlink:title="autoreg::Solve_Yule\l_Walker\&lt; T \&gt;">
<polygon fill="white" stroke="black" points="393,-1062 393,-1092 497,-1092 497,-1062 393,-1062"/>
<text text-anchor="start" x="401" y="-1080" font-family="Helvetica,sans-Serif" font-size="10.00">autoreg::Solve_Yule</text>
<text text-anchor="middle" x="445" y="-1069" font-family="Helvetica,sans-Serif" font-size="10.00">_Walker&lt; T &gt;</text>
</a>
</g>
</g>
<!-- Node1&#45;&gt;Node9 -->
<g id="edge8" class="edge"><title>Node1&#45;&gt;Node9</title>
<path fill="none" stroke="midnightblue" d="M303.92,-554.931C303.972,-640.24 308.308,-973.83 372,-1052 377.433,-1058.67 384.748,-1063.56 392.641,-1067.15"/>
<polygon fill="midnightblue" stroke="midnightblue" points="307.42,-554.795 303.935,-544.79 300.42,-554.785 307.42,-554.795"/>
</g>
<!-- Node10 -->
<g id="node10" class="node"><title>Node10</title>
<g id="a_node10"><a xlink:href="structautoreg_1_1Wave__surface__generator.html" target="_top" xlink:title="autoreg::Wave_surface\l_generator\&lt; T, Grid \&gt;">
<polygon fill="white" stroke="black" points="386,-1013 386,-1043 504,-1043 504,-1013 386,-1013"/>
<text text-anchor="start" x="394" y="-1031" font-family="Helvetica,sans-Serif" font-size="10.00">autoreg::Wave_surface</text>
<text text-anchor="middle" x="445" y="-1020" font-family="Helvetica,sans-Serif" font-size="10.00">_generator&lt; T, Grid &gt;</text>
</a>
</g>
</g>
<!-- Node1&#45;&gt;Node10 -->
<g id="edge9" class="edge"><title>Node1&#45;&gt;Node10</title>
<path fill="none" stroke="midnightblue" d="M304.223,-554.794C305.514,-634.758 314.187,-933.016 372,-1003 375.877,-1007.69 380.685,-1011.51 385.964,-1014.6"/>
<polygon fill="midnightblue" stroke="midnightblue" points="307.721,-554.583 304.082,-544.633 300.722,-554.68 307.721,-554.583"/>
</g>
<!-- Node11 -->
<g id="node11" class="node"><title>Node11</title>
<g id="a_node11"><a xlink:href="structAutoreg__app.html" target="_top" xlink:title="Autoreg_app">
<polygon fill="white" stroke="black" points="409.5,-974.5 409.5,-993.5 480.5,-993.5 480.5,-974.5 409.5,-974.5"/>
<text text-anchor="middle" x="445" y="-981.5" font-family="Helvetica,sans-Serif" font-size="10.00">Autoreg_app</text>
</a>
</g>
</g>
<!-- Node1&#45;&gt;Node11 -->
<g id="edge10" class="edge"><title>Node1&#45;&gt;Node11</title>
<path fill="none" stroke="midnightblue" d="M304.356,-554.748C306.129,-630.779 316.331,-903.393 372,-965 381.448,-975.455 395.903,-980.452 409.389,-982.742"/>
<polygon fill="midnightblue" stroke="midnightblue" points="307.853,-554.573 304.144,-544.648 300.855,-554.72 307.853,-554.573"/>
</g>
<!-- Node12 -->
<g id="node12" class="node"><title>Node12</title>
<g id="a_node12"><a xlink:href="structBig__kernel.html" target="_top" xlink:title="Big_kernel\&lt; Size \&gt;">
<polygon fill="white" stroke="black" points="395,-936.5 395,-955.5 495,-955.5 495,-936.5 395,-936.5"/>
<text text-anchor="middle" x="445" y="-943.5" font-family="Helvetica,sans-Serif" font-size="10.00">Big_kernel&lt; Size &gt;</text>
</a>
</g>
</g>
<!-- Node1&#45;&gt;Node12 -->
<g id="edge11" class="edge"><title>Node1&#45;&gt;Node12</title>
<path fill="none" stroke="midnightblue" d="M304.71,-555.278C307.656,-627.621 321.248,-871.671 372,-927 378.117,-933.669 386.272,-938.111 394.894,-941.046"/>
<polygon fill="midnightblue" stroke="midnightblue" points="308.191,-554.713 304.313,-544.854 301.196,-554.98 308.191,-554.713"/>
</g>
<!-- Node13 -->
<g id="node13" class="node"><title>Node13</title>
<g id="a_node13"><a xlink:href="classbsc_1_1discovery__timer.html" target="_top" xlink:title="bsc::discovery_timer">
<polygon fill="white" stroke="black" points="391.5,-898.5 391.5,-917.5 498.5,-917.5 498.5,-898.5 391.5,-898.5"/>
<text text-anchor="middle" x="445" y="-905.5" font-family="Helvetica,sans-Serif" font-size="10.00">bsc::discovery_timer</text>
</a>
</g>
</g>
<!-- Node1&#45;&gt;Node13 -->
<g id="edge12" class="edge"><title>Node1&#45;&gt;Node13</title>
<path fill="none" stroke="midnightblue" d="M305.082,-554.606C309.172,-621.539 325.865,-839.605 372,-889 377.295,-894.669 384.062,-898.724 391.322,-901.611"/>
<polygon fill="midnightblue" stroke="midnightblue" points="308.573,-554.347 304.496,-544.568 301.585,-554.756 308.573,-554.347"/>
</g>
<!-- Node14 -->
<g id="node14" class="node"><title>Node14</title>
<g id="a_node14"><a xlink:href="classbsc_1_1hierarchy__kernel.html" target="_top" xlink:title="bsc::hierarchy_kernel">
<polygon fill="white" stroke="black" points="390,-860.5 390,-879.5 500,-879.5 500,-860.5 390,-860.5"/>
<text text-anchor="middle" x="445" y="-867.5" font-family="Helvetica,sans-Serif" font-size="10.00">bsc::hierarchy_kernel</text>
</a>
</g>
</g>
<!-- Node1&#45;&gt;Node14 -->
<g id="edge13" class="edge"><title>Node1&#45;&gt;Node14</title>
<path fill="none" stroke="midnightblue" d="M305.6,-554.892C311.017,-617.313 330.68,-807.732 372,-851 377,-856.236 383.258,-860.09 389.984,-862.917"/>
<polygon fill="midnightblue" stroke="midnightblue" points="309.076,-554.463 304.752,-544.79 302.101,-555.048 309.076,-554.463"/>
</g>
<!-- Node15 -->
<g id="node15" class="node"><title>Node15</title>
<g id="a_node15"><a xlink:href="structbsc_1_1Map.html" target="_top" xlink:title="bsc::Map\&lt; F, G, I \&gt;">
<polygon fill="white" stroke="black" points="393,-822.5 393,-841.5 497,-841.5 497,-822.5 393,-822.5"/>
<text text-anchor="middle" x="445" y="-829.5" font-family="Helvetica,sans-Serif" font-size="10.00">bsc::Map&lt; F, G, I &gt;</text>
</a>
</g>
</g>
<!-- Node1&#45;&gt;Node15 -->
<g id="edge14" class="edge"><title>Node1&#45;&gt;Node15</title>
<path fill="none" stroke="midnightblue" d="M306.288,-554.978C313.224,-612.146 335.789,-774.678 372,-812 377.691,-817.866 384.942,-822.056 392.64,-825.04"/>
<polygon fill="midnightblue" stroke="midnightblue" points="309.727,-554.258 305.077,-544.738 302.775,-555.079 309.727,-554.258"/>
</g>
<!-- Node16 -->
<g id="node16" class="node"><title>Node16</title>
<g id="a_node16"><a xlink:href="structbsc_1_1Map_1_1Worker.html" target="_top" xlink:title="bsc::Map\&lt; F, G, I \&gt;\l::Worker">
<polygon fill="white" stroke="black" points="393,-773 393,-803 497,-803 497,-773 393,-773"/>
<text text-anchor="start" x="401" y="-791" font-family="Helvetica,sans-Serif" font-size="10.00">bsc::Map&lt; F, G, I &gt;</text>
<text text-anchor="middle" x="445" y="-780" font-family="Helvetica,sans-Serif" font-size="10.00">::Worker</text>
</a>
</g>
</g>
<!-- Node1&#45;&gt;Node16 -->
<g id="edge15" class="edge"><title>Node1&#45;&gt;Node16</title>
<path fill="none" stroke="midnightblue" d="M304.157,-554.911C305.588,-598.567 315.122,-703.542 372,-763 377.762,-769.024 385.049,-773.597 392.761,-777.068"/>
<polygon fill="midnightblue" stroke="midnightblue" points="307.653,-554.675 303.94,-544.753 300.655,-554.825 307.653,-554.675"/>
</g>
<!-- Node17 -->
<g id="node17" class="node"><title>Node17</title>
<g id="a_node17"><a xlink:href="classbsc_1_1network__master.html" target="_top" xlink:title="bsc::network_master">
<polygon fill="white" stroke="black" points="391,-734.5 391,-753.5 499,-753.5 499,-734.5 391,-734.5"/>
<text text-anchor="middle" x="445" y="-741.5" font-family="Helvetica,sans-Serif" font-size="10.00">bsc::network_master</text>
</a>
</g>
</g>
<!-- Node1&#45;&gt;Node17 -->
<g id="edge16" class="edge"><title>Node1&#45;&gt;Node17</title>
<path fill="none" stroke="midnightblue" d="M305.226,-554.986C308.702,-593.681 321.941,-679.057 372,-725 377.429,-729.983 384.01,-733.688 390.96,-736.439"/>
<polygon fill="midnightblue" stroke="midnightblue" points="308.682,-554.275 304.43,-544.571 301.702,-554.808 308.682,-554.275"/>
</g>
<!-- Node18 -->
<g id="node18" class="node"><title>Node18</title>
<g id="a_node18"><a xlink:href="classbsc_1_1network__timer.html" target="_top" xlink:title="bsc::network_timer">
<polygon fill="white" stroke="black" points="395,-696.5 395,-715.5 495,-715.5 495,-696.5 395,-696.5"/>
<text text-anchor="middle" x="445" y="-703.5" font-family="Helvetica,sans-Serif" font-size="10.00">bsc::network_timer</text>
</a>
</g>
</g>
<!-- Node1&#45;&gt;Node18 -->
<g id="edge17" class="edge"><title>Node1&#45;&gt;Node18</title>
<path fill="none" stroke="midnightblue" d="M307.181,-554.57C313.512,-587.061 330.804,-652.013 372,-687 378.504,-692.523 386.439,-696.461 394.637,-699.265"/>
<polygon fill="midnightblue" stroke="midnightblue" points="310.591,-553.757 305.378,-544.534 303.701,-554.995 310.591,-553.757"/>
</g>
<!-- Node19 -->
<g id="node19" class="node"><title>Node19</title>
<g id="a_node19"><a xlink:href="classbsc_1_1Notification.html" target="_top" xlink:title="bsc::Notification">
<polygon fill="white" stroke="black" points="401,-658.5 401,-677.5 489,-677.5 489,-658.5 401,-658.5"/>
<text text-anchor="middle" x="445" y="-665.5" font-family="Helvetica,sans-Serif" font-size="10.00">bsc::Notification</text>
</a>
</g>
</g>
<!-- Node1&#45;&gt;Node19 -->
<g id="edge18" class="edge"><title>Node1&#45;&gt;Node19</title>
<path fill="none" stroke="midnightblue" d="M310.299,-554.347C319.638,-579.931 339.624,-624.617 372,-649 380.365,-655.3 390.644,-659.515 400.79,-662.334"/>
<polygon fill="midnightblue" stroke="midnightblue" points="313.526,-552.968 306.944,-544.666 306.912,-555.261 313.526,-552.968"/>
</g>
<!-- Node20 -->
<g id="node20" class="node"><title>Node20</title>
<g id="a_node20"><a xlink:href="classbsc_1_1probe.html" target="_top" xlink:title="bsc::probe">
<polygon fill="white" stroke="black" points="414,-620.5 414,-639.5 476,-639.5 476,-620.5 414,-620.5"/>
<text text-anchor="middle" x="445" y="-627.5" font-family="Helvetica,sans-Serif" font-size="10.00">bsc::probe</text>
</a>
</g>
</g>
<!-- Node1&#45;&gt;Node20 -->
<g id="edge19" class="edge"><title>Node1&#45;&gt;Node20</title>
<path fill="none" stroke="midnightblue" d="M315.635,-553.257C327.672,-570.663 348.049,-596.334 372,-611 384.569,-618.696 400.221,-623.306 413.719,-626.052"/>
<polygon fill="midnightblue" stroke="midnightblue" points="318.296,-550.938 309.836,-544.559 312.471,-554.821 318.296,-550.938"/>
</g>
<!-- Node21 -->
<g id="node21" class="node"><title>Node21</title>
<g id="a_node21"><a xlink:href="classbsc_1_1prober.html" target="_top" xlink:title="bsc::prober">
<polygon fill="white" stroke="black" points="412.5,-582.5 412.5,-601.5 477.5,-601.5 477.5,-582.5 412.5,-582.5"/>
<text text-anchor="middle" x="445" y="-589.5" font-family="Helvetica,sans-Serif" font-size="10.00">bsc::prober</text>
</a>
</g>
</g>
<!-- Node1&#45;&gt;Node21 -->
<g id="edge20" class="edge"><title>Node1&#45;&gt;Node21</title>
<path fill="none" stroke="midnightblue" d="M327.215,-549.897C340.031,-557.62 356.46,-566.725 372,-573 384.827,-578.18 399.509,-582.349 412.255,-585.447"/>
<polygon fill="midnightblue" stroke="midnightblue" points="328.935,-546.845 318.586,-544.576 325.261,-552.804 328.935,-546.845"/>
</g>
<!-- Node22 -->
<g id="node22" class="node"><title>Node22</title>
<g id="a_node22"><a xlink:href="classbsc_1_1resident__kernel.html" target="_top" xlink:title="bsc::resident_kernel">
<polygon fill="white" stroke="black" points="393,-544.5 393,-563.5 497,-563.5 497,-544.5 393,-544.5"/>
<text text-anchor="middle" x="445" y="-551.5" font-family="Helvetica,sans-Serif" font-size="10.00">bsc::resident_kernel</text>
</a>
</g>
</g>
<!-- Node1&#45;&gt;Node22 -->
<g id="edge21" class="edge"><title>Node1&#45;&gt;Node22</title>
<path fill="none" stroke="midnightblue" d="M346.089,-540.712C360.806,-542.709 377.491,-544.974 392.864,-547.06"/>
<polygon fill="midnightblue" stroke="midnightblue" points="346.148,-537.188 335.768,-539.311 345.207,-544.124 346.148,-537.188"/>
</g>
<!-- Node24 -->
<g id="node24" class="node"><title>Node24</title>
<g id="a_node24"><a xlink:href="structDummy__kernel.html" target="_top" xlink:title="Dummy_kernel">
<polygon fill="white" stroke="black" points="403.5,-506.5 403.5,-525.5 486.5,-525.5 486.5,-506.5 403.5,-506.5"/>
<text text-anchor="middle" x="445" y="-513.5" font-family="Helvetica,sans-Serif" font-size="10.00">Dummy_kernel</text>
</a>
</g>
</g>
<!-- Node1&#45;&gt;Node24 -->
<g id="edge23" class="edge"><title>Node1&#45;&gt;Node24</title>
<path fill="none" stroke="midnightblue" d="M345.8,-529.327C363.994,-526.858 385.24,-523.975 403.306,-521.523"/>
<polygon fill="midnightblue" stroke="midnightblue" points="345.207,-525.875 335.768,-530.689 346.148,-532.812 345.207,-525.875"/>
</g>
<!-- Node25 -->
<g id="node25" class="node"><title>Node25</title>
<g id="a_node25"><a xlink:href="structGood__kernel.html" target="_top" xlink:title="Good_kernel">
<polygon fill="white" stroke="black" points="409.5,-468.5 409.5,-487.5 480.5,-487.5 480.5,-468.5 409.5,-468.5"/>
<text text-anchor="middle" x="445" y="-475.5" font-family="Helvetica,sans-Serif" font-size="10.00">Good_kernel</text>
</a>
</g>
</g>
<!-- Node1&#45;&gt;Node25 -->
<g id="edge24" class="edge"><title>Node1&#45;&gt;Node25</title>
<path fill="none" stroke="midnightblue" d="M327.215,-520.103C340.031,-512.38 356.46,-503.275 372,-497 383.868,-492.208 397.324,-488.28 409.366,-485.266"/>
<polygon fill="midnightblue" stroke="midnightblue" points="325.261,-517.196 318.586,-525.424 328.935,-523.155 325.261,-517.196"/>
</g>
<!-- Node28 -->
<g id="node28" class="node"><title>Node28</title>
<g id="a_node28"><a xlink:href="structKernel__that__carries__its__parent.html" target="_top" xlink:title="Kernel_that_carries\l_its_parent">
<polygon fill="white" stroke="black" points="394.5,-419 394.5,-449 495.5,-449 495.5,-419 394.5,-419"/>
<text text-anchor="start" x="402.5" y="-437" font-family="Helvetica,sans-Serif" font-size="10.00">Kernel_that_carries</text>
<text text-anchor="middle" x="445" y="-426" font-family="Helvetica,sans-Serif" font-size="10.00">_its_parent</text>
</a>
</g>
</g>
<!-- Node1&#45;&gt;Node28 -->
<g id="edge27" class="edge"><title>Node1&#45;&gt;Node28</title>
<path fill="none" stroke="midnightblue" d="M316.081,-516.861C328.328,-499.752 348.75,-474.485 372,-459 378.828,-454.452 386.572,-450.641 394.388,-447.476"/>
<polygon fill="midnightblue" stroke="midnightblue" points="312.973,-515.2 310.151,-525.413 318.726,-519.189 312.973,-515.2"/>
</g>
<!-- Node29 -->
<g id="node29" class="node"><title>Node29</title>
<g id="a_node29"><a xlink:href="structLauncher.html" target="_top" xlink:title="Launcher">
<polygon fill="white" stroke="black" points="417,-380.5 417,-399.5 473,-399.5 473,-380.5 417,-380.5"/>
<text text-anchor="middle" x="445" y="-387.5" font-family="Helvetica,sans-Serif" font-size="10.00">Launcher</text>
</a>
</g>
</g>
<!-- Node1&#45;&gt;Node29 -->
<g id="edge28" class="edge"><title>Node1&#45;&gt;Node29</title>
<path fill="none" stroke="midnightblue" d="M309.113,-515.64C317.488,-487.78 336.827,-436.692 372,-409 384.697,-399.004 402.161,-394.239 416.709,-391.981"/>
<polygon fill="midnightblue" stroke="midnightblue" points="305.707,-514.823 306.346,-525.399 312.441,-516.733 305.707,-514.823"/>
</g>
<!-- Node30 -->
<g id="node30" class="node"><title>Node30</title>
<g id="a_node30"><a xlink:href="classMain.html" target="_top" xlink:title="Main">
<polygon fill="white" stroke="black" points="426,-342.5 426,-361.5 464,-361.5 464,-342.5 426,-342.5"/>
<text text-anchor="middle" x="445" y="-349.5" font-family="Helvetica,sans-Serif" font-size="10.00">Main</text>
</a>
</g>
</g>
<!-- Node1&#45;&gt;Node30 -->
<g id="edge29" class="edge"><title>Node1&#45;&gt;Node30</title>
<path fill="none" stroke="midnightblue" d="M304.906,-515.134C308.257,-472.377 322.452,-387.271 372,-344 393.422,-325.292 431.199,-324.706 441.4,-342.048"/>
<polygon fill="midnightblue" stroke="midnightblue" points="301.402,-515.08 304.261,-525.282 308.388,-515.524 301.402,-515.08"/>
</g>
<!-- Node1&#45;&gt;Node30 -->
<g id="edge30" class="edge"><title>Node1&#45;&gt;Node30</title>
<path fill="none" stroke="midnightblue" d="M305.778,-515.165C310.42,-478.657 325.924,-402.239 372,-362 386.996,-348.904 410.005,-344.689 425.96,-345.368"/>
<polygon fill="midnightblue" stroke="midnightblue" points="302.297,-514.803 304.665,-525.13 309.254,-515.58 302.297,-514.803"/>
</g>
<!-- Node1&#45;&gt;Node30 -->
<g id="edge31" class="edge"><title>Node1&#45;&gt;Node30</title>
<path fill="none" stroke="midnightblue" d="M307.404,-515.568C313.628,-482.518 330.284,-416.431 372,-380 386.996,-366.904 410.005,-362.689 425.96,-359.449"/>
<polygon fill="midnightblue" stroke="midnightblue" points="303.957,-514.965 305.673,-525.42 310.851,-516.177 303.957,-514.965"/>
</g>
<!-- Node1&#45;&gt;Node30 -->
<g id="edge32" class="edge"><title>Node1&#45;&gt;Node30</title>
<path fill="none" stroke="midnightblue" d="M310.36,-515.171C318.334,-483.985 335.657,-429.739 372,-398 393.422,-379.292 431.199,-378.706 441.4,-361.776"/>
<polygon fill="midnightblue" stroke="midnightblue" points="306.891,-514.62 307.913,-525.166 313.691,-516.285 306.891,-514.62"/>
</g>
<!-- Node31 -->
<g id="node31" class="node"><title>Node31</title>
<g id="a_node31"><a xlink:href="classmaster__kernel.html" target="_top" xlink:title="master_kernel">
<polygon fill="white" stroke="black" points="406,-304.5 406,-323.5 484,-323.5 484,-304.5 406,-304.5"/>
<text text-anchor="middle" x="445" y="-311.5" font-family="Helvetica,sans-Serif" font-size="10.00">master_kernel</text>
</a>
</g>
</g>
<!-- Node1&#45;&gt;Node31 -->
<g id="edge33" class="edge"><title>Node1&#45;&gt;Node31</title>
<path fill="none" stroke="midnightblue" d="M304.723,-515.142C307.3,-474.73 319.006,-382.571 372,-333 381.158,-324.433 393.713,-319.631 405.776,-316.97"/>
<polygon fill="midnightblue" stroke="midnightblue" points="301.219,-515.132 304.203,-525.298 308.209,-515.49 301.219,-515.132"/>
</g>
<!-- Node32 -->
<g id="node32" class="node"><title>Node32</title>
<g id="a_node32"><a xlink:href="structSender.html" target="_top" xlink:title="Sender">
<polygon fill="white" stroke="black" points="421.5,-266.5 421.5,-285.5 468.5,-285.5 468.5,-266.5 421.5,-266.5"/>
<text text-anchor="middle" x="445" y="-273.5" font-family="Helvetica,sans-Serif" font-size="10.00">Sender</text>
</a>
</g>
</g>
<!-- Node1&#45;&gt;Node32 -->
<g id="edge34" class="edge"><title>Node1&#45;&gt;Node32</title>
<path fill="none" stroke="midnightblue" d="M303.468,-514.951C303.396,-469.125 309.904,-355.983 372,-295 385.005,-282.228 405.526,-277.761 421.339,-276.325"/>
<polygon fill="midnightblue" stroke="midnightblue" points="299.969,-515.124 303.598,-525.078 306.969,-515.034 299.969,-515.124"/>
</g>
<!-- Node33 -->
<g id="node33" class="node"><title>Node33</title>
<g id="a_node33"><a xlink:href="classslave__kernel.html" target="_top" xlink:title="slave_kernel">
<polygon fill="white" stroke="black" points="409.5,-228.5 409.5,-247.5 480.5,-247.5 480.5,-228.5 409.5,-228.5"/>
<text text-anchor="middle" x="445" y="-235.5" font-family="Helvetica,sans-Serif" font-size="10.00">slave_kernel</text>
</a>
</g>
</g>
<!-- Node1&#45;&gt;Node33 -->
<g id="edge35" class="edge"><title>Node1&#45;&gt;Node33</title>
<path fill="none" stroke="midnightblue" d="M306.254,-514.928C313.099,-457.494 335.44,-294.228 372,-257 381.783,-247.038 396.126,-242.1 409.44,-239.72"/>
<polygon fill="midnightblue" stroke="midnightblue" points="302.736,-514.879 305.06,-525.216 309.69,-515.686 302.736,-514.879"/>
</g>
<!-- Node34 -->
<g id="node34" class="node"><title>Node34</title>
<g id="a_node34"><a xlink:href="structSleepy__kernel.html" target="_top" xlink:title="Sleepy_kernel">
<polygon fill="white" stroke="black" points="406,-190.5 406,-209.5 484,-209.5 484,-190.5 406,-190.5"/>
<text text-anchor="middle" x="445" y="-197.5" font-family="Helvetica,sans-Serif" font-size="10.00">Sleepy_kernel</text>
</a>
</g>
</g>
<!-- Node1&#45;&gt;Node34 -->
<g id="edge36" class="edge"><title>Node1&#45;&gt;Node34</title>
<path fill="none" stroke="midnightblue" d="M305.6,-515.108C311.017,-452.687 330.68,-262.268 372,-219 380.839,-209.744 393.61,-204.806 405.949,-202.229"/>
<polygon fill="midnightblue" stroke="midnightblue" points="302.101,-514.952 304.752,-525.21 309.076,-515.537 302.101,-514.952"/>
</g>
<!-- Node35 -->
<g id="node35" class="node"><title>Node35</title>
<g id="a_node35"><a xlink:href="structSpec__app.html" target="_top" xlink:title="Spec_app">
<polygon fill="white" stroke="black" points="415,-152.5 415,-171.5 475,-171.5 475,-152.5 415,-152.5"/>
<text text-anchor="middle" x="445" y="-159.5" font-family="Helvetica,sans-Serif" font-size="10.00">Spec_app</text>
</a>
</g>
</g>
<!-- Node1&#45;&gt;Node35 -->
<g id="edge37" class="edge"><title>Node1&#45;&gt;Node35</title>
<path fill="none" stroke="midnightblue" d="M305.082,-515.394C309.172,-448.461 325.865,-230.395 372,-181 382.854,-169.379 399.899,-164.539 414.681,-162.646"/>
<polygon fill="midnightblue" stroke="midnightblue" points="301.585,-515.244 304.496,-525.432 308.573,-515.653 301.585,-515.244"/>
</g>
<!-- Node36 -->
<g id="node36" class="node"><title>Node36</title>
<g id="a_node36"><a xlink:href="structSpectrum__kernel.html" target="_top" xlink:title="Spectrum_kernel">
<polygon fill="white" stroke="black" points="400,-114.5 400,-133.5 490,-133.5 490,-114.5 400,-114.5"/>
<text text-anchor="middle" x="445" y="-121.5" font-family="Helvetica,sans-Serif" font-size="10.00">Spectrum_kernel</text>
</a>
</g>
</g>
<!-- Node1&#45;&gt;Node36 -->
<g id="edge38" class="edge"><title>Node1&#45;&gt;Node36</title>
<path fill="none" stroke="midnightblue" d="M304.71,-514.722C307.656,-442.379 321.248,-198.329 372,-143 379.253,-135.093 389.372,-130.315 399.735,-127.47"/>
<polygon fill="midnightblue" stroke="midnightblue" points="301.196,-515.02 304.313,-525.146 308.191,-515.287 301.196,-515.02"/>
</g>
<!-- Node37 -->
<g id="node37" class="node"><title>Node37</title>
<g id="a_node37"><a xlink:href="structStation__kernel.html" target="_top" xlink:title="Station_kernel">
<polygon fill="white" stroke="black" points="405.5,-76.5 405.5,-95.5 484.5,-95.5 484.5,-76.5 405.5,-76.5"/>
<text text-anchor="middle" x="445" y="-83.5" font-family="Helvetica,sans-Serif" font-size="10.00">Station_kernel</text>
</a>
</g>
</g>
<!-- Node1&#45;&gt;Node37 -->
<g id="edge39" class="edge"><title>Node1&#45;&gt;Node37</title>
<path fill="none" stroke="midnightblue" d="M304.356,-515.252C306.129,-439.221 316.331,-166.607 372,-105 380.494,-95.5999 393.036,-90.6124 405.282,-88.0366"/>
<polygon fill="midnightblue" stroke="midnightblue" points="300.855,-515.28 304.144,-525.352 307.853,-515.427 300.855,-515.28"/>
</g>
<!-- Node38 -->
<g id="node38" class="node"><title>Node38</title>
<g id="a_node38"><a xlink:href="structTest__socket.html" target="_top" xlink:title="Test_socket">
<polygon fill="white" stroke="black" points="409.5,-38.5 409.5,-57.5 480.5,-57.5 480.5,-38.5 409.5,-38.5"/>
<text text-anchor="middle" x="445" y="-45.5" font-family="Helvetica,sans-Serif" font-size="10.00">Test_socket</text>
</a>
</g>
</g>
<!-- Node1&#45;&gt;Node38 -->
<g id="edge40" class="edge"><title>Node1&#45;&gt;Node38</title>
<path fill="none" stroke="midnightblue" d="M304.052,-515.119C304.633,-433.423 310.782,-126.608 372,-58 381.382,-47.4857 395.827,-42.4805 409.324,-40.8939"/>
<polygon fill="midnightblue" stroke="midnightblue" points="300.551,-515.467 304.001,-525.484 307.55,-515.501 300.551,-515.467"/>
</g>
<!-- Node1&#45;&gt;Node38 -->
<g id="edge41" class="edge"><title>Node1&#45;&gt;Node38</title>
<path fill="none" stroke="midnightblue" d="M304.108,-515.273C304.983,-435.911 312.345,-142.856 372,-76 381.382,-65.4857 395.827,-60.4805 409.324,-57.5045"/>
<polygon fill="midnightblue" stroke="midnightblue" points="300.608,-515.349 304.021,-525.379 307.607,-515.41 300.608,-515.349"/>
</g>
<!-- Node39 -->
<g id="node39" class="node"><title>Node39</title>
<g id="a_node39"><a xlink:href="structYear__kernel.html" target="_top" xlink:title="Year_kernel">
<polygon fill="white" stroke="black" points="411,-0.5 411,-19.5 479,-19.5 479,-0.5 411,-0.5"/>
<text text-anchor="middle" x="445" y="-7.5" font-family="Helvetica,sans-Serif" font-size="10.00">Year_kernel</text>
</a>
</g>
</g>
<!-- Node1&#45;&gt;Node39 -->
<g id="edge42" class="edge"><title>Node1&#45;&gt;Node39</title>
<path fill="none" stroke="midnightblue" d="M303.836,-515.109C303.552,-430.681 306.733,-102.938 372,-29 381.668,-18.048 396.829,-13.0626 410.751,-10.9103"/>
<polygon fill="midnightblue" stroke="midnightblue" points="300.338,-515.375 303.893,-525.355 307.338,-515.336 300.338,-515.375"/>
</g>
<!-- Node2 -->
<g id="node2" class="node"><title>Node2</title>
<g id="a_node2"><a xlink:href="classbsc_1_1mobile__kernel.html" target="_top" xlink:title="bsc::mobile_kernel">
<polygon fill="white" stroke="black" points="136,-525.5 136,-544.5 234,-544.5 234,-525.5 136,-525.5"/>
<text text-anchor="middle" x="185" y="-532.5" font-family="Helvetica,sans-Serif" font-size="10.00">bsc::mobile_kernel</text>
</a>
</g>
</g>
<!-- Node2&#45;&gt;Node1 -->
<g id="edge1" class="edge"><title>Node2&#45;&gt;Node1</title>
<path fill="none" stroke="midnightblue" d="M244.283,-535C253.263,-535 262.233,-535 270.334,-535"/>
<polygon fill="midnightblue" stroke="midnightblue" points="244.187,-531.5 234.187,-535 244.187,-538.5 244.187,-531.5"/>
</g>
<!-- Node3 -->
<g id="node3" class="node"><title>Node3</title>
<g id="a_node3"><a xlink:href="classbsc_1_1kernel__base.html" target="_top" xlink:title="bsc::kernel_base">
<polygon fill="white" stroke="black" points="4.5,-544.5 4.5,-563.5 95.5,-563.5 95.5,-544.5 4.5,-544.5"/>
<text text-anchor="middle" x="50" y="-551.5" font-family="Helvetica,sans-Serif" font-size="10.00">bsc::kernel_base</text>
</a>
</g>
</g>
<!-- Node3&#45;&gt;Node2 -->
<g id="edge2" class="edge"><title>Node3&#45;&gt;Node2</title>
<path fill="none" stroke="midnightblue" d="M105.785,-546.174C115.663,-544.762 125.898,-543.3 135.58,-541.917"/>
<polygon fill="midnightblue" stroke="midnightblue" points="105.062,-542.741 95.6571,-547.62 106.052,-549.671 105.062,-542.741"/>
</g>
<!-- Node4 -->
<g id="node4" class="node"><title>Node4</title>
<g id="a_node4"><a xlink:href="classbsc_1_1kernel__header.html" target="_top" xlink:title="bsc::kernel_header">
<polygon fill="white" stroke="black" points="0.5,-506.5 0.5,-525.5 99.5,-525.5 99.5,-506.5 0.5,-506.5"/>
<text text-anchor="middle" x="50" y="-513.5" font-family="Helvetica,sans-Serif" font-size="10.00">bsc::kernel_header</text>
</a>
</g>
</g>
<!-- Node4&#45;&gt;Node2 -->
<g id="edge3" class="edge"><title>Node4&#45;&gt;Node2</title>
<path fill="none" stroke="midnightblue" d="M109.805,-524.401C118.453,-525.636 127.277,-526.897 135.681,-528.097"/>
<polygon fill="midnightblue" stroke="midnightblue" points="110.164,-520.916 99.7691,-522.967 109.174,-527.846 110.164,-520.916"/>
</g>
<!-- Node23 -->
<g id="node23" class="node"><title>Node23</title>
<g id="a_node23"><a xlink:href="classbsc_1_1master__discoverer.html" target="_top" xlink:title="bsc::master_discoverer">
<polygon fill="white" stroke="black" points="555.5,-544.5 555.5,-563.5 674.5,-563.5 674.5,-544.5 555.5,-544.5"/>
<text text-anchor="middle" x="615" y="-551.5" font-family="Helvetica,sans-Serif" font-size="10.00">bsc::master_discoverer</text>
</a>
</g>
</g>
<!-- Node22&#45;&gt;Node23 -->
<g id="edge22" class="edge"><title>Node22&#45;&gt;Node23</title>
<path fill="none" stroke="midnightblue" d="M507.415,-554C523.065,-554 539.845,-554 555.352,-554"/>
<polygon fill="midnightblue" stroke="midnightblue" points="507.318,-550.5 497.318,-554 507.318,-557.5 507.318,-550.5"/>
</g>
<!-- Node26 -->
<g id="node26" class="node"><title>Node26</title>
<g id="a_node26"><a xlink:href="structKernel__that__reads__more__than__writes.html" target="_top" xlink:title="Kernel_that_reads_more\l_than_writes">
<polygon fill="white" stroke="black" points="554,-479 554,-509 676,-509 676,-479 554,-479"/>
<text text-anchor="start" x="562" y="-497" font-family="Helvetica,sans-Serif" font-size="10.00">Kernel_that_reads_more</text>
<text text-anchor="middle" x="615" y="-486" font-family="Helvetica,sans-Serif" font-size="10.00">_than_writes</text>
</a>
</g>
</g>
<!-- Node25&#45;&gt;Node26 -->
<g id="edge25" class="edge"><title>Node25&#45;&gt;Node26</title>
<path fill="none" stroke="midnightblue" d="M490.839,-482.27C510.141,-484.109 532.997,-486.285 553.747,-488.262"/>
<polygon fill="midnightblue" stroke="midnightblue" points="491.097,-478.779 480.81,-481.315 490.433,-485.748 491.097,-478.779"/>
</g>
<!-- Node27 -->
<g id="node27" class="node"><title>Node27</title>
<g id="a_node27"><a xlink:href="structKernel__that__writes__more__than__reads.html" target="_top" xlink:title="Kernel_that_writes\l_more_than_reads">
<polygon fill="white" stroke="black" points="566,-430 566,-460 664,-460 664,-430 566,-430"/>
<text text-anchor="start" x="574" y="-448" font-family="Helvetica,sans-Serif" font-size="10.00">Kernel_that_writes</text>
<text text-anchor="middle" x="615" y="-437" font-family="Helvetica,sans-Serif" font-size="10.00">_more_than_reads</text>
</a>
</g>
</g>
<!-- Node25&#45;&gt;Node27 -->
<g id="edge26" class="edge"><title>Node25&#45;&gt;Node27</title>
<path fill="none" stroke="midnightblue" d="M490.726,-469.215C513.896,-464.663 542.211,-459.101 565.858,-454.456"/>
<polygon fill="midnightblue" stroke="midnightblue" points="489.948,-465.8 480.81,-471.162 491.297,-472.669 489.948,-465.8"/>
</g>
</g>
</svg>
