<?xml version="1.0" encoding="UTF-8" standalone="no"?>
<!DOCTYPE svg PUBLIC "-//W3C//DTD SVG 1.1//EN"
 "http://www.w3.org/Graphics/SVG/1.1/DTD/svg11.dtd">
<!-- Generated by graphviz version 2.36.0 (20140111.2315)
 -->
<!-- Title: factory::timer_pipeline&lt; T &gt; Pages: 1 -->
<svg width="144pt" height="152pt"
 viewBox="0.00 0.00 144.00 152.00" xmlns="http://www.w3.org/2000/svg" xmlns:xlink="http://www.w3.org/1999/xlink">
<g id="graph0" class="graph" transform="scale(1 1) rotate(0) translate(4 148)">
<title>factory::timer_pipeline&lt; T &gt;</title>
<polygon fill="white" stroke="none" points="-4,4 -4,-148 140,-148 140,4 -4,4"/>
<!-- Node1 -->
<g id="node1" class="node"><title>Node1</title>
<polygon fill="#bfbfbf" stroke="black" points="-0.5,-0.5 -0.5,-19.5 136.5,-19.5 136.5,-0.5 -0.5,-0.5"/>
<text text-anchor="middle" x="68" y="-7.5" font-family="Helvetica,sans-Serif" font-size="10.00">factory::timer_pipeline&lt; T &gt;</text>
</g>
<!-- Node2 -->
<g id="node2" class="node"><title>Node2</title>
<g id="a_node2"><a xlink:href="classfactory_1_1basic__pipeline.html" target="_top" xlink:title="bits::Timer_pipeline\l_base\&lt; T \&gt;">
<polygon fill="white" stroke="black" points="17.5,-57 17.5,-87 118.5,-87 118.5,-57 17.5,-57"/>
<text text-anchor="start" x="25.5" y="-75" font-family="Helvetica,sans-Serif" font-size="10.00">bits::Timer_pipeline</text>
<text text-anchor="middle" x="68" y="-64" font-family="Helvetica,sans-Serif" font-size="10.00">_base&lt; T &gt;</text>
</a>
</g>
</g>
<!-- Node2&#45;&gt;Node1 -->
<g id="edge1" class="edge"><title>Node2&#45;&gt;Node1</title>
<path fill="none" stroke="midnightblue" d="M68,-46.5858C68,-37.0743 68,-26.7864 68,-19.7305"/>
<polygon fill="midnightblue" stroke="midnightblue" points="64.5001,-46.7808 68,-56.7808 71.5001,-46.7809 64.5001,-46.7808"/>
</g>
<!-- Node3 -->
<g id="node3" class="node"><title>Node3</title>
<g id="a_node3"><a xlink:href="classfactory_1_1pipeline__base.html" target="_top" xlink:title="factory::pipeline_base">
<polygon fill="white" stroke="black" points="12,-124.5 12,-143.5 124,-143.5 124,-124.5 12,-124.5"/>
<text text-anchor="middle" x="68" y="-131.5" font-family="Helvetica,sans-Serif" font-size="10.00">factory::pipeline_base</text>
</a>
</g>
</g>
<!-- Node3&#45;&gt;Node2 -->
<g id="edge2" class="edge"><title>Node3&#45;&gt;Node2</title>
<path fill="none" stroke="midnightblue" d="M68,-114.371C68,-105.585 68,-95.2721 68,-87.1408"/>
<polygon fill="midnightblue" stroke="midnightblue" points="64.5001,-114.403 68,-124.403 71.5001,-114.403 64.5001,-114.403"/>
</g>
</g>
</svg>
