<?xml version="1.0" encoding="UTF-8" standalone="no"?>
<!DOCTYPE svg PUBLIC "-//W3C//DTD SVG 1.1//EN"
 "http://www.w3.org/Graphics/SVG/1.1/DTD/svg11.dtd">
<!-- Generated by graphviz version 2.36.0 (20140111.2315)
 -->
<!-- Title: factory::Basic_CPU_server&lt; T &gt; Pages: 1 -->
<svg width="275pt" height="220pt"
 viewBox="0.00 0.00 275.00 220.00" xmlns="http://www.w3.org/2000/svg" xmlns:xlink="http://www.w3.org/1999/xlink">
<g id="graph0" class="graph" transform="scale(1 1) rotate(0) translate(4 216)">
<title>factory::Basic_CPU_server&lt; T &gt;</title>
<polygon fill="white" stroke="none" points="-4,4 -4,-216 271,-216 271,4 -4,4"/>
<!-- Node1 -->
<g id="node1" class="node"><title>Node1</title>
<polygon fill="#bfbfbf" stroke="black" points="84,-57 84,-87 188,-87 188,-57 84,-57"/>
<text text-anchor="start" x="92" y="-75" font-family="Helvetica,sans-Serif" font-size="10.00">factory::Basic_CPU</text>
<text text-anchor="middle" x="136" y="-64" font-family="Helvetica,sans-Serif" font-size="10.00">_server&lt; T &gt;</text>
</g>
<!-- Node4 -->
<g id="node4" class="node"><title>Node4</title>
<g id="a_node4"><a xlink:href="structfactory_1_1CPU__server.html" target="_top" xlink:title="factory::CPU_server\&lt; T \&gt;">
<polygon fill="white" stroke="black" points="-0.5,-0.5 -0.5,-19.5 130.5,-19.5 130.5,-0.5 -0.5,-0.5"/>
<text text-anchor="middle" x="65" y="-7.5" font-family="Helvetica,sans-Serif" font-size="10.00">factory::CPU_server&lt; T &gt;</text>
</a>
</g>
</g>
<!-- Node1&#45;&gt;Node4 -->
<g id="edge3" class="edge"><title>Node1&#45;&gt;Node4</title>
<path fill="none" stroke="midnightblue" d="M111.411,-50.2202C99.06,-39.7831 84.7579,-27.6968 75.3311,-19.7305"/>
<polygon fill="midnightblue" stroke="midnightblue" points="109.277,-52.9995 119.174,-56.7808 113.795,-47.6529 109.277,-52.9995"/>
</g>
<!-- Node5 -->
<g id="node5" class="node"><title>Node5</title>
<g id="a_node5"><a xlink:href="structfactory_1_1IO__server.html" target="_top" xlink:title="factory::IO_server\&lt; T \&gt;">
<polygon fill="white" stroke="black" points="148.5,-0.5 148.5,-19.5 267.5,-19.5 267.5,-0.5 148.5,-0.5"/>
<text text-anchor="middle" x="208" y="-7.5" font-family="Helvetica,sans-Serif" font-size="10.00">factory::IO_server&lt; T &gt;</text>
</a>
</g>
</g>
<!-- Node1&#45;&gt;Node5 -->
<g id="edge4" class="edge"><title>Node1&#45;&gt;Node5</title>
<path fill="none" stroke="midnightblue" d="M160.936,-50.2202C173.46,-39.7831 187.964,-27.6968 197.523,-19.7305"/>
<polygon fill="midnightblue" stroke="midnightblue" points="158.505,-47.6902 153.063,-56.7808 162.986,-53.0677 158.505,-47.6902"/>
</g>
<!-- Node2 -->
<g id="node2" class="node"><title>Node2</title>
<g id="a_node2"><a xlink:href="structfactory_1_1Server__with__pool.html" target="_top" xlink:title="Standard_server_with\l_pool\&lt; T \&gt;">
<polygon fill="white" stroke="black" points="80.5,-125 80.5,-155 191.5,-155 191.5,-125 80.5,-125"/>
<text text-anchor="start" x="88.5" y="-143" font-family="Helvetica,sans-Serif" font-size="10.00">Standard_server_with</text>
<text text-anchor="middle" x="136" y="-132" font-family="Helvetica,sans-Serif" font-size="10.00">_pool&lt; T &gt;</text>
</a>
</g>
</g>
<!-- Node2&#45;&gt;Node1 -->
<g id="edge1" class="edge"><title>Node2&#45;&gt;Node1</title>
<path fill="none" stroke="midnightblue" d="M136,-114.532C136,-105.361 136,-95.2449 136,-87.2931"/>
<polygon fill="midnightblue" stroke="midnightblue" points="132.5,-114.679 136,-124.679 139.5,-114.679 132.5,-114.679"/>
</g>
<!-- Node3 -->
<g id="node3" class="node"><title>Node3</title>
<g id="a_node3"><a xlink:href="structfactory_1_1Server__base.html" target="_top" xlink:title="factory::Server_base">
<polygon fill="white" stroke="black" points="82.5,-192.5 82.5,-211.5 189.5,-211.5 189.5,-192.5 82.5,-192.5"/>
<text text-anchor="middle" x="136" y="-199.5" font-family="Helvetica,sans-Serif" font-size="10.00">factory::Server_base</text>
</a>
</g>
</g>
<!-- Node3&#45;&gt;Node2 -->
<g id="edge2" class="edge"><title>Node3&#45;&gt;Node2</title>
<path fill="none" stroke="midnightblue" d="M136,-182.371C136,-173.585 136,-163.272 136,-155.141"/>
<polygon fill="midnightblue" stroke="midnightblue" points="132.5,-182.403 136,-192.403 139.5,-182.403 132.5,-182.403"/>
</g>
</g>
</svg>
