<?xml version="1.0" encoding="UTF-8" standalone="no"?>
<!DOCTYPE svg PUBLIC "-//W3C//DTD SVG 1.1//EN"
 "http://www.w3.org/Graphics/SVG/1.1/DTD/svg11.dtd">
<!-- Generated by graphviz version 2.38.0 (20140413.2041)
 -->
<!-- Title: Main&lt; Address &gt; Pages: 1 -->
<svg width="293pt" height="201pt"
 viewBox="0.00 0.00 292.50 201.00" xmlns="http://www.w3.org/2000/svg" xmlns:xlink="http://www.w3.org/1999/xlink">
<g id="graph0" class="graph" transform="scale(1 1) rotate(0) translate(4 197)">
<title>Main&lt; Address &gt;</title>
<polygon fill="white" stroke="none" points="-4,4 -4,-197 288.5,-197 288.5,4 -4,4"/>
<!-- Node1 -->
<g id="node1" class="node"><title>Node1</title>
<polygon fill="#bfbfbf" stroke="black" points="144.5,-0.5 144.5,-19.5 236.5,-19.5 236.5,-0.5 144.5,-0.5"/>
<text text-anchor="middle" x="190.5" y="-7.5" font-family="Helvetica,sans-Serif" font-size="10.00">Main&lt; Address &gt;</text>
</g>
<!-- Node2 -->
<g id="node2" class="node"><title>Node2</title>
<g id="a_node2"><a xlink:href="structfactory_1_1Kernel.html" target="_top" xlink:title="factory::Kernel">
<polygon fill="white" stroke="black" points="79.5,-58.5 79.5,-77.5 159.5,-77.5 159.5,-58.5 79.5,-58.5"/>
<text text-anchor="middle" x="119.5" y="-65.5" font-family="Helvetica,sans-Serif" font-size="10.00">factory::Kernel</text>
</a>
</g>
</g>
<!-- Node2&#45;&gt;Node1 -->
<g id="edge1" class="edge"><title>Node2&#45;&gt;Node1</title>
<path fill="none" stroke="midnightblue" d="M133.222,-51.3427C145.187,-41.0326 162.171,-27.931 174.707,-19.5052"/>
<polygon fill="midnightblue" stroke="midnightblue" points="130.632,-48.9639 125.531,-58.25 135.31,-54.1717 130.632,-48.9639"/>
</g>
<!-- Node2&#45;&gt;Node1 -->
<g id="edge7" class="edge"><title>Node2&#45;&gt;Node1</title>
<path fill="none" stroke="midnightblue" d="M143.889,-52.4949C158.382,-42.0575 175.46,-28.3321 184.642,-19.5852"/>
<polygon fill="midnightblue" stroke="midnightblue" points="141.49,-49.9012 135.293,-58.4948 145.496,-55.6413 141.49,-49.9012"/>
</g>
<!-- Node2&#45;&gt;Node2 -->
<g id="edge5" class="edge"><title>Node2&#45;&gt;Node2</title>
<path fill="none" stroke="#9a32cd" stroke-dasharray="5,2" d="M169.765,-72.218C174.505,-71.3542 177.5,-69.9482 177.5,-68 177.5,-64.8828 169.832,-63.1537 159.619,-62.8128"/>
<polygon fill="#9a32cd" stroke="#9a32cd" points="169.24,-68.7521 159.619,-73.1872 169.906,-75.7204 169.24,-68.7521"/>
<text text-anchor="middle" x="200" y="-71" font-family="Helvetica,sans-Serif" font-size="10.00"> _principal</text>
<text text-anchor="middle" x="200" y="-60" font-family="Helvetica,sans-Serif" font-size="10.00">_parent</text>
</g>
<!-- Node3 -->
<g id="node3" class="node"><title>Node3</title>
<g id="a_node3"><a xlink:href="structfactory_1_1Mobile__kernel.html" target="_top" xlink:title="factory::Mobile_kernel">
<polygon fill="white" stroke="black" points="63,-116.5 63,-135.5 176,-135.5 176,-116.5 63,-116.5"/>
<text text-anchor="middle" x="119.5" y="-123.5" font-family="Helvetica,sans-Serif" font-size="10.00">factory::Mobile_kernel</text>
</a>
</g>
</g>
<!-- Node3&#45;&gt;Node2 -->
<g id="edge2" class="edge"><title>Node3&#45;&gt;Node2</title>
<path fill="none" stroke="midnightblue" d="M119.5,-105.953C119.5,-96.2875 119.5,-85.0312 119.5,-77.5052"/>
<polygon fill="midnightblue" stroke="midnightblue" points="116,-106.25 119.5,-116.25 123,-106.25 116,-106.25"/>
</g>
<!-- Node4 -->
<g id="node4" class="node"><title>Node4</title>
<g id="a_node4"><a xlink:href="structfactory_1_1Basic__kernel.html" target="_top" xlink:title="factory::Basic_kernel">
<polygon fill="white" stroke="black" points="0,-173.5 0,-192.5 109,-192.5 109,-173.5 0,-173.5"/>
<text text-anchor="middle" x="54.5" y="-180.5" font-family="Helvetica,sans-Serif" font-size="10.00">factory::Basic_kernel</text>
</a>
</g>
</g>
<!-- Node4&#45;&gt;Node3 -->
<g id="edge3" class="edge"><title>Node4&#45;&gt;Node3</title>
<path fill="none" stroke="midnightblue" d="M72.5724,-166.708C84.3822,-156.715 99.3811,-144.024 109.201,-135.715"/>
<polygon fill="midnightblue" stroke="midnightblue" points="70.0293,-164.275 64.6562,-173.406 74.5509,-169.619 70.0293,-164.275"/>
</g>
<!-- Node5 -->
<g id="node5" class="node"><title>Node5</title>
<g id="a_node5"><a xlink:href="structfactory_1_1Kernel__header.html" target="_top" xlink:title="factory::Kernel_header">
<polygon fill="white" stroke="black" points="127,-173.5 127,-192.5 242,-192.5 242,-173.5 127,-173.5"/>
<text text-anchor="middle" x="184.5" y="-180.5" font-family="Helvetica,sans-Serif" font-size="10.00">factory::Kernel_header</text>
</a>
</g>
</g>
<!-- Node5&#45;&gt;Node3 -->
<g id="edge4" class="edge"><title>Node5&#45;&gt;Node3</title>
<path fill="none" stroke="midnightblue" d="M166.428,-166.708C154.618,-156.715 139.619,-144.024 129.799,-135.715"/>
<polygon fill="midnightblue" stroke="midnightblue" points="164.449,-169.619 174.344,-173.406 168.971,-164.275 164.449,-169.619"/>
</g>
<!-- Node6 -->
<g id="node6" class="node"><title>Node6</title>
<polygon fill="white" stroke="#bfbfbf" points="240.5,-58.5 240.5,-77.5 284.5,-77.5 284.5,-58.5 240.5,-58.5"/>
<text text-anchor="middle" x="262.5" y="-65.5" font-family="Helvetica,sans-Serif" font-size="10.00">Kernel</text>
</g>
<!-- Node6&#45;&gt;Node1 -->
<g id="edge6" class="edge"><title>Node6&#45;&gt;Node1</title>
<path fill="none" stroke="midnightblue" d="M238.267,-52.7894C223.501,-42.317 205.938,-28.4147 196.511,-19.5852"/>
<polygon fill="midnightblue" stroke="midnightblue" points="236.334,-55.7077 246.555,-58.4948 240.303,-49.9417 236.334,-55.7077"/>
</g>
<!-- Node6&#45;&gt;Node1 -->
<g id="edge8" class="edge"><title>Node6&#45;&gt;Node1</title>
<path fill="none" stroke="midnightblue" d="M248.803,-51.601C236.676,-41.2846 219.346,-28.0846 206.565,-19.5852"/>
<polygon fill="midnightblue" stroke="midnightblue" points="246.771,-54.4769 256.574,-58.4948 251.416,-49.2404 246.771,-54.4769"/>
</g>
</g>
</svg>
