<?xml version="1.0" encoding="UTF-8" standalone="no"?>
<!DOCTYPE svg PUBLIC "-//W3C//DTD SVG 1.1//EN"
 "http://www.w3.org/Graphics/SVG/1.1/DTD/svg11.dtd">
<!-- Generated by graphviz version 2.36.0 (20140111.2315)
 -->
<!-- Title: asc::basic_socket_pipeline&lt; T, Handler &gt; Pages: 1 -->
<svg width="391pt" height="178pt"
 viewBox="0.00 0.00 391.00 178.00" xmlns="http://www.w3.org/2000/svg" xmlns:xlink="http://www.w3.org/1999/xlink">
<g id="graph0" class="graph" transform="scale(1 1) rotate(0) translate(4 174)">
<title>asc::basic_socket_pipeline&lt; T, Handler &gt;</title>
<polygon fill="white" stroke="none" points="-4,4 -4,-174 387,-174 387,4 -4,4"/>
<!-- Node1 -->
<g id="node1" class="node"><title>Node1</title>
<polygon fill="#bfbfbf" stroke="black" points="148,-1 148,-31 282,-31 282,-1 148,-1"/>
<text text-anchor="start" x="156" y="-19" font-family="Helvetica,sans-Serif" font-size="10.00">asc::basic_socket_pipeline</text>
<text text-anchor="middle" x="215" y="-8" font-family="Helvetica,sans-Serif" font-size="10.00">&lt; T, Handler &gt;</text>
</g>
<!-- Node2 -->
<g id="node2" class="node"><title>Node2</title>
<g id="a_node2"><a xlink:href="classasc_1_1basic__pipeline.html" target="_top" xlink:title="Proxy_pipeline_base\l\&lt; T, Handler \&gt;">
<polygon fill="white" stroke="black" points="161.5,-71 161.5,-101 268.5,-101 268.5,-71 161.5,-71"/>
<text text-anchor="start" x="169.5" y="-89" font-family="Helvetica,sans-Serif" font-size="10.00">Proxy_pipeline_base</text>
<text text-anchor="middle" x="215" y="-78" font-family="Helvetica,sans-Serif" font-size="10.00">&lt; T, Handler &gt;</text>
</a>
</g>
</g>
<!-- Node2&#45;&gt;Node1 -->
<g id="edge1" class="edge"><title>Node2&#45;&gt;Node1</title>
<path fill="none" stroke="midnightblue" d="M215,-60.7688C215,-50.8141 215,-39.6384 215,-31.0716"/>
<polygon fill="midnightblue" stroke="midnightblue" points="211.5,-60.9103 215,-70.9104 218.5,-60.9104 211.5,-60.9103"/>
</g>
<!-- Node3 -->
<g id="node3" class="node"><title>Node3</title>
<g id="a_node3"><a xlink:href="classasc_1_1pipeline__base.html" target="_top" xlink:title="asc::pipeline_base">
<polygon fill="white" stroke="black" points="0,-150.5 0,-169.5 98,-169.5 98,-150.5 0,-150.5"/>
<text text-anchor="middle" x="49" y="-157.5" font-family="Helvetica,sans-Serif" font-size="10.00">asc::pipeline_base</text>
</a>
</g>
</g>
<!-- Node3&#45;&gt;Node2 -->
<g id="edge2" class="edge"><title>Node3&#45;&gt;Node2</title>
<path fill="none" stroke="midnightblue" d="M77.9438,-146.446C107.132,-133.786 152.103,-114.28 182.499,-101.097"/>
<polygon fill="midnightblue" stroke="midnightblue" points="76.4757,-143.268 68.6943,-150.458 79.2612,-149.69 76.4757,-143.268"/>
</g>
<!-- Node4 -->
<g id="node4" class="node"><title>Node4</title>
<polygon fill="white" stroke="#bfbfbf" points="116,-150.5 116,-169.5 166,-169.5 166,-150.5 116,-150.5"/>
<text text-anchor="middle" x="141" y="-157.5" font-family="Helvetica,sans-Serif" font-size="10.00">Kernels</text>
</g>
<!-- Node4&#45;&gt;Node2 -->
<g id="edge3" class="edge"><title>Node4&#45;&gt;Node2</title>
<path fill="none" stroke="#9a32cd" stroke-dasharray="5,2" d="M152.465,-142.07C157.707,-134.895 164.249,-126.669 171,-120 177.929,-113.155 186.321,-106.526 193.911,-101.027"/>
<polygon fill="#9a32cd" stroke="#9a32cd" points="149.496,-140.208 146.602,-150.4 155.22,-144.237 149.496,-140.208"/>
<text text-anchor="middle" x="191" y="-123.5" font-family="Helvetica,sans-Serif" font-size="10.00"> _kernels</text>
</g>
<!-- Node5 -->
<g id="node5" class="node"><title>Node5</title>
<polygon fill="white" stroke="#bfbfbf" points="184,-150.5 184,-169.5 250,-169.5 250,-150.5 184,-150.5"/>
<text text-anchor="middle" x="217" y="-157.5" font-family="Helvetica,sans-Serif" font-size="10.00">Semaphore</text>
</g>
<!-- Node5&#45;&gt;Node2 -->
<g id="edge4" class="edge"><title>Node5&#45;&gt;Node2</title>
<path fill="none" stroke="#9a32cd" stroke-dasharray="5,2" d="M216.274,-140.374C216.175,-137.568 216.08,-134.708 216,-132 215.695,-121.689 215.438,-110.048 215.262,-101.189"/>
<polygon fill="#9a32cd" stroke="#9a32cd" points="212.781,-140.627 216.652,-150.489 219.776,-140.365 212.781,-140.627"/>
<text text-anchor="middle" x="244.5" y="-123.5" font-family="Helvetica,sans-Serif" font-size="10.00"> _semaphore</text>
</g>
<!-- Node6 -->
<g id="node6" class="node"><title>Node6</title>
<polygon fill="white" stroke="#bfbfbf" points="269,-150.5 269,-169.5 321,-169.5 321,-150.5 269,-150.5"/>
<text text-anchor="middle" x="295" y="-157.5" font-family="Helvetica,sans-Serif" font-size="10.00">Threads</text>
</g>
<!-- Node6&#45;&gt;Node2 -->
<g id="edge5" class="edge"><title>Node6&#45;&gt;Node2</title>
<path fill="none" stroke="#9a32cd" stroke-dasharray="5,2" d="M287.334,-140.832C283.722,-133.745 278.898,-125.92 273,-120 265.559,-112.532 256.079,-106.203 246.951,-101.147"/>
<polygon fill="#9a32cd" stroke="#9a32cd" points="284.372,-142.766 291.743,-150.377 290.727,-139.831 284.372,-142.766"/>
<text text-anchor="middle" x="302.5" y="-123.5" font-family="Helvetica,sans-Serif" font-size="10.00"> _threads</text>
</g>
<!-- Node7 -->
<g id="node7" class="node"><title>Node7</title>
<polygon fill="white" stroke="#bfbfbf" points="339,-150.5 339,-169.5 383,-169.5 383,-150.5 339,-150.5"/>
<text text-anchor="middle" x="361" y="-157.5" font-family="Helvetica,sans-Serif" font-size="10.00">Mutex</text>
</g>
<!-- Node7&#45;&gt;Node2 -->
<g id="edge6" class="edge"><title>Node7&#45;&gt;Node2</title>
<path fill="none" stroke="#9a32cd" stroke-dasharray="5,2" d="M349.553,-141.899C343.634,-134.224 335.805,-125.645 327,-120 309.509,-108.785 288.069,-101.26 268.647,-96.2689"/>
<polygon fill="#9a32cd" stroke="#9a32cd" points="346.889,-144.189 355.569,-150.264 352.572,-140.102 346.889,-144.189"/>
<text text-anchor="middle" x="358" y="-123.5" font-family="Helvetica,sans-Serif" font-size="10.00"> _mutex</text>
</g>
</g>
</svg>
