<?xml version="1.0" encoding="UTF-8" standalone="no"?>
<!DOCTYPE svg PUBLIC "-//W3C//DTD SVG 1.1//EN"
 "http://www.w3.org/Graphics/SVG/1.1/DTD/svg11.dtd">
<!-- Generated by graphviz version 2.36.0 (20140111.2315)
 -->
<!-- Title: Kernel_that_reads_more_than_writes Pages: 1 -->
<svg width="215pt" height="264pt"
 viewBox="0.00 0.00 215.00 264.00" xmlns="http://www.w3.org/2000/svg" xmlns:xlink="http://www.w3.org/1999/xlink">
<g id="graph0" class="graph" transform="scale(1 1) rotate(0) translate(4 260)">
<title>Kernel_that_reads_more_than_writes</title>
<polygon fill="white" stroke="none" points="-4,4 -4,-260 211,-260 211,4 -4,4"/>
<!-- Node1 -->
<g id="node1" class="node"><title>Node1</title>
<polygon fill="#bfbfbf" stroke="black" points="40,-1 40,-31 162,-31 162,-1 40,-1"/>
<text text-anchor="start" x="48" y="-19" font-family="Helvetica,sans-Serif" font-size="10.00">Kernel_that_reads_more</text>
<text text-anchor="middle" x="101" y="-8" font-family="Helvetica,sans-Serif" font-size="10.00">_than_writes</text>
</g>
<!-- Node2 -->
<g id="node2" class="node"><title>Node2</title>
<g id="a_node2"><a xlink:href="structGood__kernel.html" target="_top" xlink:title="Good_kernel">
<polygon fill="white" stroke="black" points="65.5,-68.5 65.5,-87.5 136.5,-87.5 136.5,-68.5 65.5,-68.5"/>
<text text-anchor="middle" x="101" y="-75.5" font-family="Helvetica,sans-Serif" font-size="10.00">Good_kernel</text>
</a>
</g>
</g>
<!-- Node2&#45;&gt;Node1 -->
<g id="edge1" class="edge"><title>Node2&#45;&gt;Node1</title>
<path fill="none" stroke="midnightblue" d="M101,-58.3707C101,-49.5849 101,-39.2721 101,-31.1408"/>
<polygon fill="midnightblue" stroke="midnightblue" points="97.5001,-58.4034 101,-68.4035 104.5,-58.4035 97.5001,-58.4034"/>
</g>
<!-- Node3 -->
<g id="node3" class="node"><title>Node3</title>
<g id="a_node3"><a xlink:href="structasc_1_1Kernel.html" target="_top" xlink:title="asc::Kernel">
<polygon fill="white" stroke="black" points="68,-124.5 68,-143.5 134,-143.5 134,-124.5 68,-124.5"/>
<text text-anchor="middle" x="101" y="-131.5" font-family="Helvetica,sans-Serif" font-size="10.00">asc::Kernel</text>
</a>
</g>
</g>
<!-- Node3&#45;&gt;Node2 -->
<g id="edge2" class="edge"><title>Node3&#45;&gt;Node2</title>
<path fill="none" stroke="midnightblue" d="M101,-113.805C101,-104.91 101,-94.7798 101,-87.7511"/>
<polygon fill="midnightblue" stroke="midnightblue" points="97.5001,-114.083 101,-124.083 104.5,-114.083 97.5001,-114.083"/>
</g>
<!-- Node4 -->
<g id="node4" class="node"><title>Node4</title>
<g id="a_node4"><a xlink:href="classasc_1_1mobile__kernel.html" target="_top" xlink:title="asc::mobile_kernel">
<polygon fill="white" stroke="black" points="52,-180.5 52,-199.5 150,-199.5 150,-180.5 52,-180.5"/>
<text text-anchor="middle" x="101" y="-187.5" font-family="Helvetica,sans-Serif" font-size="10.00">asc::mobile_kernel</text>
</a>
</g>
</g>
<!-- Node4&#45;&gt;Node3 -->
<g id="edge3" class="edge"><title>Node4&#45;&gt;Node3</title>
<path fill="none" stroke="midnightblue" d="M101,-169.805C101,-160.91 101,-150.78 101,-143.751"/>
<polygon fill="midnightblue" stroke="midnightblue" points="97.5001,-170.083 101,-180.083 104.5,-170.083 97.5001,-170.083"/>
</g>
<!-- Node5 -->
<g id="node5" class="node"><title>Node5</title>
<g id="a_node5"><a xlink:href="classasc_1_1kernel__base.html" target="_top" xlink:title="asc::kernel_base">
<polygon fill="white" stroke="black" points="-0.5,-236.5 -0.5,-255.5 90.5,-255.5 90.5,-236.5 -0.5,-236.5"/>
<text text-anchor="middle" x="45" y="-243.5" font-family="Helvetica,sans-Serif" font-size="10.00">asc::kernel_base</text>
</a>
</g>
</g>
<!-- Node5&#45;&gt;Node4 -->
<g id="edge4" class="edge"><title>Node5&#45;&gt;Node4</title>
<path fill="none" stroke="midnightblue" d="M61.3299,-229.253C71.265,-219.673 83.5875,-207.791 91.8389,-199.834"/>
<polygon fill="midnightblue" stroke="midnightblue" points="58.7664,-226.863 53.9974,-236.324 63.6253,-231.902 58.7664,-226.863"/>
</g>
<!-- Node6 -->
<g id="node6" class="node"><title>Node6</title>
<g id="a_node6"><a xlink:href="classasc_1_1kernel__header.html" target="_top" xlink:title="asc::kernel_header">
<polygon fill="white" stroke="black" points="108.5,-236.5 108.5,-255.5 207.5,-255.5 207.5,-236.5 108.5,-236.5"/>
<text text-anchor="middle" x="158" y="-243.5" font-family="Helvetica,sans-Serif" font-size="10.00">asc::kernel_header</text>
</a>
</g>
</g>
<!-- Node6&#45;&gt;Node4 -->
<g id="edge5" class="edge"><title>Node6&#45;&gt;Node4</title>
<path fill="none" stroke="midnightblue" d="M141.379,-229.253C131.266,-219.673 118.723,-207.791 110.325,-199.834"/>
<polygon fill="midnightblue" stroke="midnightblue" points="139.175,-231.987 148.842,-236.324 143.99,-226.906 139.175,-231.987"/>
</g>
</g>
</svg>
