<?xml version="1.0" encoding="UTF-8" standalone="no"?>
<!DOCTYPE svg PUBLIC "-//W3C//DTD SVG 1.1//EN"
 "http://www.w3.org/Graphics/SVG/1.1/DTD/svg11.dtd">
<!-- Generated by graphviz version 2.36.0 (20140111.2315)
 -->
<!-- Title: factory::Proxy_server&lt; T, Rserver &gt; Pages: 1 -->
<svg width="118pt" height="164pt"
 viewBox="0.00 0.00 118.00 164.00" xmlns="http://www.w3.org/2000/svg" xmlns:xlink="http://www.w3.org/1999/xlink">
<g id="graph0" class="graph" transform="scale(1 1) rotate(0) translate(4 160)">
<title>factory::Proxy_server&lt; T, Rserver &gt;</title>
<polygon fill="white" stroke="none" points="-4,4 -4,-160 114,-160 114,4 -4,4"/>
<!-- Node1 -->
<g id="node1" class="node"><title>Node1</title>
<polygon fill="#bfbfbf" stroke="black" points="0,-1 0,-31 110,-31 110,-1 0,-1"/>
<text text-anchor="start" x="8" y="-19" font-family="Helvetica,sans-Serif" font-size="10.00">factory::Proxy_server</text>
<text text-anchor="middle" x="55" y="-8" font-family="Helvetica,sans-Serif" font-size="10.00">&lt; T, Rserver &gt;</text>
</g>
<!-- Node2 -->
<g id="node2" class="node"><title>Node2</title>
<g id="a_node2"><a xlink:href="structfactory_1_1Server__with__pool.html" target="_top" xlink:title="Proxy_server_base\&lt;\l T, Rserver \&gt;">
<polygon fill="white" stroke="black" points="1.5,-69 1.5,-99 108.5,-99 108.5,-69 1.5,-69"/>
<text text-anchor="start" x="9.5" y="-87" font-family="Helvetica,sans-Serif" font-size="10.00">Proxy_server_base&lt;</text>
<text text-anchor="middle" x="55" y="-76" font-family="Helvetica,sans-Serif" font-size="10.00"> T, Rserver &gt;</text>
</a>
</g>
</g>
<!-- Node2&#45;&gt;Node1 -->
<g id="edge1" class="edge"><title>Node2&#45;&gt;Node1</title>
<path fill="none" stroke="midnightblue" d="M55,-58.5322C55,-49.3606 55,-39.2449 55,-31.2931"/>
<polygon fill="midnightblue" stroke="midnightblue" points="51.5001,-58.6789 55,-68.679 58.5001,-58.679 51.5001,-58.6789"/>
</g>
<!-- Node3 -->
<g id="node3" class="node"><title>Node3</title>
<g id="a_node3"><a xlink:href="structfactory_1_1Server__base.html" target="_top" xlink:title="factory::Server_base">
<polygon fill="white" stroke="black" points="1.5,-136.5 1.5,-155.5 108.5,-155.5 108.5,-136.5 1.5,-136.5"/>
<text text-anchor="middle" x="55" y="-143.5" font-family="Helvetica,sans-Serif" font-size="10.00">factory::Server_base</text>
</a>
</g>
</g>
<!-- Node3&#45;&gt;Node2 -->
<g id="edge2" class="edge"><title>Node3&#45;&gt;Node2</title>
<path fill="none" stroke="midnightblue" d="M55,-126.371C55,-117.585 55,-107.272 55,-99.1408"/>
<polygon fill="midnightblue" stroke="midnightblue" points="51.5001,-126.403 55,-136.403 58.5001,-126.403 51.5001,-126.403"/>
</g>
</g>
</svg>
