<?xml version="1.0" encoding="UTF-8" standalone="no"?>
<!DOCTYPE svg PUBLIC "-//W3C//DTD SVG 1.1//EN"
 "http://www.w3.org/Graphics/SVG/1.1/DTD/svg11.dtd">
<!-- Generated by graphviz version 2.36.0 (20140111.2315)
 -->
<!-- Title: Test_socket Pages: 1 -->
<svg width="249pt" height="196pt"
 viewBox="0.00 0.00 249.00 196.00" xmlns="http://www.w3.org/2000/svg" xmlns:xlink="http://www.w3.org/1999/xlink">
<g id="graph0" class="graph" transform="scale(1 1) rotate(0) translate(4 192)">
<title>Test_socket</title>
<polygon fill="white" stroke="none" points="-4,4 -4,-192 245,-192 245,4 -4,4"/>
<!-- Node1 -->
<g id="node1" class="node"><title>Node1</title>
<polygon fill="#bfbfbf" stroke="black" points="83.5,-0.5 83.5,-19.5 154.5,-19.5 154.5,-0.5 83.5,-0.5"/>
<text text-anchor="middle" x="119" y="-7.5" font-family="Helvetica,sans-Serif" font-size="10.00">Test_socket</text>
</g>
<!-- Node2 -->
<g id="node2" class="node"><title>Node2</title>
<g id="a_node2"><a xlink:href="structfactory_1_1Kernel.html" target="_top" xlink:title="factory::Kernel">
<polygon fill="white" stroke="black" points="79,-56.5 79,-75.5 159,-75.5 159,-56.5 79,-56.5"/>
<text text-anchor="middle" x="119" y="-63.5" font-family="Helvetica,sans-Serif" font-size="10.00">factory::Kernel</text>
</a>
</g>
</g>
<!-- Node2&#45;&gt;Node1 -->
<g id="edge1" class="edge"><title>Node2&#45;&gt;Node1</title>
<path fill="none" stroke="midnightblue" d="M112.528,-46.1005C111.896,-37.1357 112.343,-26.8579 113.869,-19.7511"/>
<polygon fill="midnightblue" stroke="midnightblue" points="109.066,-46.6216 113.834,-56.083 116.007,-45.7134 109.066,-46.6216"/>
</g>
<!-- Node2&#45;&gt;Node1 -->
<g id="edge5" class="edge"><title>Node2&#45;&gt;Node1</title>
<path fill="none" stroke="midnightblue" d="M125.472,-46.1005C126.104,-37.1357 125.657,-26.8579 124.131,-19.7511"/>
<polygon fill="midnightblue" stroke="midnightblue" points="121.993,-45.7134 124.166,-56.083 128.934,-46.6216 121.993,-45.7134"/>
</g>
<!-- Node3 -->
<g id="node3" class="node"><title>Node3</title>
<g id="a_node3"><a xlink:href="structfactory_1_1Mobile__kernel.html" target="_top" xlink:title="factory::Mobile_kernel">
<polygon fill="white" stroke="black" points="62.5,-112.5 62.5,-131.5 175.5,-131.5 175.5,-112.5 62.5,-112.5"/>
<text text-anchor="middle" x="119" y="-119.5" font-family="Helvetica,sans-Serif" font-size="10.00">factory::Mobile_kernel</text>
</a>
</g>
</g>
<!-- Node3&#45;&gt;Node2 -->
<g id="edge2" class="edge"><title>Node3&#45;&gt;Node2</title>
<path fill="none" stroke="midnightblue" d="M119,-101.805C119,-92.9102 119,-82.7798 119,-75.7511"/>
<polygon fill="midnightblue" stroke="midnightblue" points="115.5,-102.083 119,-112.083 122.5,-102.083 115.5,-102.083"/>
</g>
<!-- Node4 -->
<g id="node4" class="node"><title>Node4</title>
<g id="a_node4"><a xlink:href="structfactory_1_1Basic__kernel.html" target="_top" xlink:title="factory::Basic_kernel">
<polygon fill="white" stroke="black" points="-0.5,-168.5 -0.5,-187.5 108.5,-187.5 108.5,-168.5 -0.5,-168.5"/>
<text text-anchor="middle" x="54" y="-175.5" font-family="Helvetica,sans-Serif" font-size="10.00">factory::Basic_kernel</text>
</a>
</g>
</g>
<!-- Node4&#45;&gt;Node3 -->
<g id="edge3" class="edge"><title>Node4&#45;&gt;Node3</title>
<path fill="none" stroke="midnightblue" d="M72.2726,-161.82C83.9178,-152.145 98.5995,-139.948 108.367,-131.834"/>
<polygon fill="midnightblue" stroke="midnightblue" points="69.8987,-159.242 64.4434,-168.324 74.3719,-164.626 69.8987,-159.242"/>
</g>
<!-- Node5 -->
<g id="node5" class="node"><title>Node5</title>
<g id="a_node5"><a xlink:href="structfactory_1_1Kernel__header.html" target="_top" xlink:title="factory::Kernel_header">
<polygon fill="white" stroke="black" points="126.5,-168.5 126.5,-187.5 241.5,-187.5 241.5,-168.5 126.5,-168.5"/>
<text text-anchor="middle" x="184" y="-175.5" font-family="Helvetica,sans-Serif" font-size="10.00">factory::Kernel_header</text>
</a>
</g>
</g>
<!-- Node5&#45;&gt;Node3 -->
<g id="edge4" class="edge"><title>Node5&#45;&gt;Node3</title>
<path fill="none" stroke="midnightblue" d="M165.727,-161.82C154.082,-152.145 139.401,-139.948 129.633,-131.834"/>
<polygon fill="midnightblue" stroke="midnightblue" points="163.628,-164.626 173.557,-168.324 168.101,-159.242 163.628,-164.626"/>
</g>
</g>
</svg>
