<?xml version="1.0" encoding="UTF-8" standalone="no"?>
<!DOCTYPE svg PUBLIC "-//W3C//DTD SVG 1.1//EN"
 "http://www.w3.org/Graphics/SVG/1.1/DTD/svg11.dtd">
<!-- Generated by graphviz version 2.36.0 (20140111.2315)
 -->
<!-- Title: Kernel_that_writes_more_than_reads Pages: 1 -->
<svg width="243pt" height="274pt"
 viewBox="0.00 0.00 243.00 274.00" xmlns="http://www.w3.org/2000/svg" xmlns:xlink="http://www.w3.org/1999/xlink">
<g id="graph0" class="graph" transform="scale(1 1) rotate(0) translate(4 270)">
<title>Kernel_that_writes_more_than_reads</title>
<polygon fill="white" stroke="none" points="-4,4 -4,-270 239,-270 239,4 -4,4"/>
<!-- Node1 -->
<g id="node1" class="node"><title>Node1</title>
<polygon fill="#bfbfbf" stroke="black" points="66,-1 66,-31 164,-31 164,-1 66,-1"/>
<text text-anchor="start" x="74" y="-19" font-family="Helvetica,sans-Serif" font-size="10.00">Kernel_that_writes</text>
<text text-anchor="middle" x="115" y="-8" font-family="Helvetica,sans-Serif" font-size="10.00">_more_than_reads</text>
</g>
<!-- Node2 -->
<g id="node2" class="node"><title>Node2</title>
<g id="a_node2"><a xlink:href="structGood__kernel.html" target="_top" xlink:title="Good_kernel">
<polygon fill="white" stroke="black" points="79.5,-70.5 79.5,-89.5 150.5,-89.5 150.5,-70.5 79.5,-70.5"/>
<text text-anchor="middle" x="115" y="-77.5" font-family="Helvetica,sans-Serif" font-size="10.00">Good_kernel</text>
</a>
</g>
</g>
<!-- Node2&#45;&gt;Node1 -->
<g id="edge1" class="edge"><title>Node2&#45;&gt;Node1</title>
<path fill="none" stroke="midnightblue" d="M115,-60.1826C115,-50.8859 115,-39.8507 115,-31.263"/>
<polygon fill="midnightblue" stroke="midnightblue" points="111.5,-60.3791 115,-70.3792 118.5,-60.3792 111.5,-60.3791"/>
</g>
<!-- Node3 -->
<g id="node3" class="node"><title>Node3</title>
<g id="a_node3"><a xlink:href="structfactory_1_1Kernel.html" target="_top" xlink:title="factory::Kernel">
<polygon fill="white" stroke="black" points="75,-129.5 75,-148.5 155,-148.5 155,-129.5 75,-129.5"/>
<text text-anchor="middle" x="115" y="-136.5" font-family="Helvetica,sans-Serif" font-size="10.00">factory::Kernel</text>
</a>
</g>
</g>
<!-- Node3&#45;&gt;Node2 -->
<g id="edge2" class="edge"><title>Node3&#45;&gt;Node2</title>
<path fill="none" stroke="midnightblue" d="M115,-118.933C115,-109.024 115,-97.4007 115,-89.6571"/>
<polygon fill="midnightblue" stroke="midnightblue" points="111.5,-119.094 115,-129.094 118.5,-119.094 111.5,-119.094"/>
</g>
<!-- Node3&#45;&gt;Node3 -->
<g id="edge6" class="edge"><title>Node3&#45;&gt;Node3</title>
<path fill="none" stroke="#9a32cd" stroke-dasharray="5,2" d="M165.265,-143.519C170.005,-142.594 173,-141.087 173,-139 173,-135.66 165.332,-133.808 155.119,-133.442"/>
<polygon fill="#9a32cd" stroke="#9a32cd" points="164.71,-140.058 155.119,-144.558 165.423,-147.021 164.71,-140.058"/>
<text text-anchor="middle" x="195.5" y="-142" font-family="Helvetica,sans-Serif" font-size="10.00"> _principal</text>
<text text-anchor="middle" x="195.5" y="-131" font-family="Helvetica,sans-Serif" font-size="10.00">_parent</text>
</g>
<!-- Node4 -->
<g id="node4" class="node"><title>Node4</title>
<g id="a_node4"><a xlink:href="classfactory_1_1mobile__kernel.html" target="_top" xlink:title="factory::mobile_kernel">
<polygon fill="white" stroke="black" points="58.5,-188.5 58.5,-207.5 171.5,-207.5 171.5,-188.5 58.5,-188.5"/>
<text text-anchor="middle" x="115" y="-195.5" font-family="Helvetica,sans-Serif" font-size="10.00">factory::mobile_kernel</text>
</a>
</g>
</g>
<!-- Node4&#45;&gt;Node3 -->
<g id="edge3" class="edge"><title>Node4&#45;&gt;Node3</title>
<path fill="none" stroke="midnightblue" d="M115,-177.933C115,-168.024 115,-156.401 115,-148.657"/>
<polygon fill="midnightblue" stroke="midnightblue" points="111.5,-178.094 115,-188.094 118.5,-178.094 111.5,-178.094"/>
</g>
<!-- Node5 -->
<g id="node5" class="node"><title>Node5</title>
<g id="a_node5"><a xlink:href="classfactory_1_1kernel__base.html" target="_top" xlink:title="factory::kernel_base">
<polygon fill="white" stroke="black" points="-0.5,-246.5 -0.5,-265.5 104.5,-265.5 104.5,-246.5 -0.5,-246.5"/>
<text text-anchor="middle" x="52" y="-253.5" font-family="Helvetica,sans-Serif" font-size="10.00">factory::kernel_base</text>
</a>
</g>
</g>
<!-- Node5&#45;&gt;Node4 -->
<g id="edge4" class="edge"><title>Node5&#45;&gt;Node4</title>
<path fill="none" stroke="midnightblue" d="M69.3239,-239.601C80.9298,-229.285 95.7798,-216.085 105.342,-207.585"/>
<polygon fill="midnightblue" stroke="midnightblue" points="66.7172,-237.235 61.5683,-246.495 71.3677,-242.467 66.7172,-237.235"/>
</g>
<!-- Node6 -->
<g id="node6" class="node"><title>Node6</title>
<g id="a_node6"><a xlink:href="classfactory_1_1kernel__header.html" target="_top" xlink:title="factory::kernel_header">
<polygon fill="white" stroke="black" points="122.5,-246.5 122.5,-265.5 235.5,-265.5 235.5,-246.5 122.5,-246.5"/>
<text text-anchor="middle" x="179" y="-253.5" font-family="Helvetica,sans-Serif" font-size="10.00">factory::kernel_header</text>
</a>
</g>
</g>
<!-- Node6&#45;&gt;Node4 -->
<g id="edge5" class="edge"><title>Node6&#45;&gt;Node4</title>
<path fill="none" stroke="midnightblue" d="M161.744,-239.901C149.904,-229.541 134.62,-216.167 124.812,-207.585"/>
<polygon fill="midnightblue" stroke="midnightblue" points="159.449,-242.544 169.28,-246.495 164.059,-237.276 159.449,-242.544"/>
</g>
</g>
</svg>
