<?xml version="1.0" encoding="UTF-8" standalone="no"?>
<!DOCTYPE svg PUBLIC "-//W3C//DTD SVG 1.1//EN"
 "http://www.w3.org/Graphics/SVG/1.1/DTD/svg11.dtd">
<!-- Generated by graphviz version 2.38.0 (20140413.2041)
 -->
<!-- Title: Kernel_that_reads_more_than_writes Pages: 1 -->
<svg width="250pt" height="269pt"
 viewBox="0.00 0.00 250.00 269.00" xmlns="http://www.w3.org/2000/svg" xmlns:xlink="http://www.w3.org/1999/xlink">
<g id="graph0" class="graph" transform="scale(1 1) rotate(0) translate(4 265)">
<title>Kernel_that_reads_more_than_writes</title>
<polygon fill="white" stroke="none" points="-4,4 -4,-265 246,-265 246,4 -4,4"/>
<!-- Node1 -->
<g id="node1" class="node"><title>Node1</title>
<polygon fill="#bfbfbf" stroke="black" points="58.5,-0.5 58.5,-30.5 180.5,-30.5 180.5,-0.5 58.5,-0.5"/>
<text text-anchor="start" x="66.5" y="-18.5" font-family="Helvetica,sans-Serif" font-size="10.00">Kernel_that_reads_more</text>
<text text-anchor="middle" x="119.5" y="-7.5" font-family="Helvetica,sans-Serif" font-size="10.00">_than_writes</text>
</g>
<!-- Node2 -->
<g id="node2" class="node"><title>Node2</title>
<g id="a_node2"><a xlink:href="structGood__kernel.html" target="_top" xlink:title="Good_kernel">
<polygon fill="white" stroke="black" points="84,-68.5 84,-87.5 155,-87.5 155,-68.5 84,-68.5"/>
<text text-anchor="middle" x="119.5" y="-75.5" font-family="Helvetica,sans-Serif" font-size="10.00">Good_kernel</text>
</a>
</g>
</g>
<!-- Node2&#45;&gt;Node1 -->
<g id="edge1" class="edge"><title>Node2&#45;&gt;Node1</title>
<path fill="none" stroke="midnightblue" d="M119.5,-58.2154C119.5,-49.3565 119.5,-38.9577 119.5,-30.7587"/>
<polygon fill="midnightblue" stroke="midnightblue" points="116,-58.3318 119.5,-68.3318 123,-58.3319 116,-58.3318"/>
</g>
<!-- Node3 -->
<g id="node3" class="node"><title>Node3</title>
<g id="a_node3"><a xlink:href="structfactory_1_1Kernel.html" target="_top" xlink:title="factory::Kernel">
<polygon fill="white" stroke="black" points="79.5,-126.5 79.5,-145.5 159.5,-145.5 159.5,-126.5 79.5,-126.5"/>
<text text-anchor="middle" x="119.5" y="-133.5" font-family="Helvetica,sans-Serif" font-size="10.00">factory::Kernel</text>
</a>
</g>
</g>
<!-- Node3&#45;&gt;Node2 -->
<g id="edge2" class="edge"><title>Node3&#45;&gt;Node2</title>
<path fill="none" stroke="midnightblue" d="M119.5,-115.953C119.5,-106.287 119.5,-95.0312 119.5,-87.5052"/>
<polygon fill="midnightblue" stroke="midnightblue" points="116,-116.25 119.5,-126.25 123,-116.25 116,-116.25"/>
</g>
<!-- Node3&#45;&gt;Node3 -->
<g id="edge6" class="edge"><title>Node3&#45;&gt;Node3</title>
<path fill="none" stroke="#9a32cd" stroke-dasharray="5,2" d="M169.765,-140.218C174.505,-139.354 177.5,-137.948 177.5,-136 177.5,-132.883 169.832,-131.154 159.619,-130.813"/>
<polygon fill="#9a32cd" stroke="#9a32cd" points="169.24,-136.752 159.619,-141.187 169.906,-143.72 169.24,-136.752"/>
<text text-anchor="middle" x="200" y="-139" font-family="Helvetica,sans-Serif" font-size="10.00"> _principal</text>
<text text-anchor="middle" x="200" y="-128" font-family="Helvetica,sans-Serif" font-size="10.00">_parent</text>
</g>
<!-- Node4 -->
<g id="node4" class="node"><title>Node4</title>
<g id="a_node4"><a xlink:href="structfactory_1_1Mobile__kernel.html" target="_top" xlink:title="factory::Mobile_kernel">
<polygon fill="white" stroke="black" points="63,-184.5 63,-203.5 176,-203.5 176,-184.5 63,-184.5"/>
<text text-anchor="middle" x="119.5" y="-191.5" font-family="Helvetica,sans-Serif" font-size="10.00">factory::Mobile_kernel</text>
</a>
</g>
</g>
<!-- Node4&#45;&gt;Node3 -->
<g id="edge3" class="edge"><title>Node4&#45;&gt;Node3</title>
<path fill="none" stroke="midnightblue" d="M119.5,-173.953C119.5,-164.287 119.5,-153.031 119.5,-145.505"/>
<polygon fill="midnightblue" stroke="midnightblue" points="116,-174.25 119.5,-184.25 123,-174.25 116,-174.25"/>
</g>
<!-- Node5 -->
<g id="node5" class="node"><title>Node5</title>
<g id="a_node5"><a xlink:href="structfactory_1_1Basic__kernel.html" target="_top" xlink:title="factory::Basic_kernel">
<polygon fill="white" stroke="black" points="0,-241.5 0,-260.5 109,-260.5 109,-241.5 0,-241.5"/>
<text text-anchor="middle" x="54.5" y="-248.5" font-family="Helvetica,sans-Serif" font-size="10.00">factory::Basic_kernel</text>
</a>
</g>
</g>
<!-- Node5&#45;&gt;Node4 -->
<g id="edge4" class="edge"><title>Node5&#45;&gt;Node4</title>
<path fill="none" stroke="midnightblue" d="M72.5724,-234.708C84.3822,-224.715 99.3811,-212.024 109.201,-203.715"/>
<polygon fill="midnightblue" stroke="midnightblue" points="70.0293,-232.275 64.6562,-241.406 74.5509,-237.619 70.0293,-232.275"/>
</g>
<!-- Node6 -->
<g id="node6" class="node"><title>Node6</title>
<g id="a_node6"><a xlink:href="structfactory_1_1Kernel__header.html" target="_top" xlink:title="factory::Kernel_header">
<polygon fill="white" stroke="black" points="127,-241.5 127,-260.5 242,-260.5 242,-241.5 127,-241.5"/>
<text text-anchor="middle" x="184.5" y="-248.5" font-family="Helvetica,sans-Serif" font-size="10.00">factory::Kernel_header</text>
</a>
</g>
</g>
<!-- Node6&#45;&gt;Node4 -->
<g id="edge5" class="edge"><title>Node6&#45;&gt;Node4</title>
<path fill="none" stroke="midnightblue" d="M166.428,-234.708C154.618,-224.715 139.619,-212.024 129.799,-203.715"/>
<polygon fill="midnightblue" stroke="midnightblue" points="164.449,-237.619 174.344,-241.406 168.971,-232.275 164.449,-237.619"/>
</g>
</g>
</svg>
