<?xml version="1.0" encoding="UTF-8" standalone="no"?>
<!DOCTYPE svg PUBLIC "-//W3C//DTD SVG 1.1//EN"
 "http://www.w3.org/Graphics/SVG/1.1/DTD/svg11.dtd">
<!-- Generated by graphviz version 2.36.0 (20140111.2315)
 -->
<!-- Title: Kernel_that_carries_its_parent Pages: 1 -->
<svg width="215pt" height="208pt"
 viewBox="0.00 0.00 215.00 208.00" xmlns="http://www.w3.org/2000/svg" xmlns:xlink="http://www.w3.org/1999/xlink">
<g id="graph0" class="graph" transform="scale(1 1) rotate(0) translate(4 204)">
<title>Kernel_that_carries_its_parent</title>
<polygon fill="white" stroke="none" points="-4,4 -4,-204 211,-204 211,4 -4,4"/>
<!-- Node1 -->
<g id="node1" class="node"><title>Node1</title>
<polygon fill="#bfbfbf" stroke="black" points="50.5,-1 50.5,-31 151.5,-31 151.5,-1 50.5,-1"/>
<text text-anchor="start" x="58.5" y="-19" font-family="Helvetica,sans-Serif" font-size="10.00">Kernel_that_carries</text>
<text text-anchor="middle" x="101" y="-8" font-family="Helvetica,sans-Serif" font-size="10.00">_its_parent</text>
</g>
<!-- Node2 -->
<g id="node2" class="node"><title>Node2</title>
<g id="a_node2"><a xlink:href="structbsc_1_1kernel.html" target="_top" xlink:title="bsc::kernel">
<polygon fill="white" stroke="black" points="68.5,-68.5 68.5,-87.5 133.5,-87.5 133.5,-68.5 68.5,-68.5"/>
<text text-anchor="middle" x="101" y="-75.5" font-family="Helvetica,sans-Serif" font-size="10.00">bsc::kernel</text>
</a>
</g>
</g>
<!-- Node2&#45;&gt;Node1 -->
<g id="edge1" class="edge"><title>Node2&#45;&gt;Node1</title>
<path fill="none" stroke="midnightblue" d="M101,-58.3707C101,-49.5849 101,-39.2721 101,-31.1408"/>
<polygon fill="midnightblue" stroke="midnightblue" points="97.5001,-58.4034 101,-68.4035 104.5,-58.4035 97.5001,-58.4034"/>
</g>
<!-- Node3 -->
<g id="node3" class="node"><title>Node3</title>
<g id="a_node3"><a xlink:href="classbsc_1_1mobile__kernel.html" target="_top" xlink:title="bsc::mobile_kernel">
<polygon fill="white" stroke="black" points="52,-124.5 52,-143.5 150,-143.5 150,-124.5 52,-124.5"/>
<text text-anchor="middle" x="101" y="-131.5" font-family="Helvetica,sans-Serif" font-size="10.00">bsc::mobile_kernel</text>
</a>
</g>
</g>
<!-- Node3&#45;&gt;Node2 -->
<g id="edge2" class="edge"><title>Node3&#45;&gt;Node2</title>
<path fill="none" stroke="midnightblue" d="M101,-113.805C101,-104.91 101,-94.7798 101,-87.7511"/>
<polygon fill="midnightblue" stroke="midnightblue" points="97.5001,-114.083 101,-124.083 104.5,-114.083 97.5001,-114.083"/>
</g>
<!-- Node4 -->
<g id="node4" class="node"><title>Node4</title>
<g id="a_node4"><a xlink:href="classbsc_1_1kernel__base.html" target="_top" xlink:title="bsc::kernel_base">
<polygon fill="white" stroke="black" points="-0.5,-180.5 -0.5,-199.5 90.5,-199.5 90.5,-180.5 -0.5,-180.5"/>
<text text-anchor="middle" x="45" y="-187.5" font-family="Helvetica,sans-Serif" font-size="10.00">bsc::kernel_base</text>
</a>
</g>
</g>
<!-- Node4&#45;&gt;Node3 -->
<g id="edge3" class="edge"><title>Node4&#45;&gt;Node3</title>
<path fill="none" stroke="midnightblue" d="M61.3299,-173.253C71.265,-163.673 83.5875,-151.791 91.8389,-143.834"/>
<polygon fill="midnightblue" stroke="midnightblue" points="58.7664,-170.863 53.9974,-180.324 63.6253,-175.902 58.7664,-170.863"/>
</g>
<!-- Node5 -->
<g id="node5" class="node"><title>Node5</title>
<g id="a_node5"><a xlink:href="classbsc_1_1kernel__header.html" target="_top" xlink:title="bsc::kernel_header">
<polygon fill="white" stroke="black" points="108.5,-180.5 108.5,-199.5 207.5,-199.5 207.5,-180.5 108.5,-180.5"/>
<text text-anchor="middle" x="158" y="-187.5" font-family="Helvetica,sans-Serif" font-size="10.00">bsc::kernel_header</text>
</a>
</g>
</g>
<!-- Node5&#45;&gt;Node3 -->
<g id="edge4" class="edge"><title>Node5&#45;&gt;Node3</title>
<path fill="none" stroke="midnightblue" d="M141.379,-173.253C131.266,-163.673 118.723,-151.791 110.325,-143.834"/>
<polygon fill="midnightblue" stroke="midnightblue" points="139.175,-175.987 148.842,-180.324 143.99,-170.906 139.175,-175.987"/>
</g>
</g>
</svg>
