<?xml version="1.0" encoding="UTF-8" standalone="no"?>
<!DOCTYPE svg PUBLIC "-//W3C//DTD SVG 1.1//EN"
 "http://www.w3.org/Graphics/SVG/1.1/DTD/svg11.dtd">
<!-- Generated by graphviz version 2.36.0 (20140111.2315)
 -->
<!-- Title: stdx::front_pop_iterator&lt; Container &gt; Pages: 1 -->
<svg width="130pt" height="118pt"
 viewBox="0.00 0.00 130.00 118.00" xmlns="http://www.w3.org/2000/svg" xmlns:xlink="http://www.w3.org/1999/xlink">
<g id="graph0" class="graph" transform="scale(1 1) rotate(0) translate(4 114)">
<title>stdx::front_pop_iterator&lt; Container &gt;</title>
<polygon fill="white" stroke="none" points="-4,4 -4,-114 126,-114 126,4 -4,4"/>
<!-- Node1 -->
<g id="node1" class="node"><title>Node1</title>
<polygon fill="#bfbfbf" stroke="black" points="2.5,-1 2.5,-31 119.5,-31 119.5,-1 2.5,-1"/>
<text text-anchor="start" x="10.5" y="-19" font-family="Helvetica,sans-Serif" font-size="10.00">stdx::front_pop_iterator</text>
<text text-anchor="middle" x="61" y="-8" font-family="Helvetica,sans-Serif" font-size="10.00">&lt; Container &gt;</text>
</g>
<!-- Node2 -->
<g id="node2" class="node"><title>Node2</title>
<polygon fill="white" stroke="#bfbfbf" points="-1,-68.5 -1,-109.5 123,-109.5 123,-68.5 -1,-68.5"/>
<text text-anchor="start" x="7" y="-97.5" font-family="Helvetica,sans-Serif" font-size="10.00">std::iterator&lt; std</text>
<text text-anchor="start" x="7" y="-86.5" font-family="Helvetica,sans-Serif" font-size="10.00">::input_iterator_tag,</text>
<text text-anchor="middle" x="61" y="-75.5" font-family="Helvetica,sans-Serif" font-size="10.00"> Container::value_type &gt;</text>
</g>
<!-- Node2&#45;&gt;Node1 -->
<g id="edge1" class="edge"><title>Node2&#45;&gt;Node1</title>
<path fill="none" stroke="midnightblue" d="M61,-58.0188C61,-48.6567 61,-38.7696 61,-31.0485"/>
<polygon fill="midnightblue" stroke="midnightblue" points="57.5001,-58.2225 61,-68.2225 64.5001,-58.2226 57.5001,-58.2225"/>
</g>
</g>
</svg>
