<?xml version="1.0" encoding="UTF-8" standalone="no"?>
<!DOCTYPE svg PUBLIC "-//W3C//DTD SVG 1.1//EN"
 "http://www.w3.org/Graphics/SVG/1.1/DTD/svg11.dtd">
<!-- Generated by graphviz version 2.36.0 (20140111.2315)
 -->
<!-- Title: sys::bits::Integral&lt; 16 &gt; Pages: 1 -->
<svg width="116pt" height="118pt"
 viewBox="0.00 0.00 116.00 118.00" xmlns="http://www.w3.org/2000/svg" xmlns:xlink="http://www.w3.org/1999/xlink">
<g id="graph0" class="graph" transform="scale(1 1) rotate(0) translate(4 114)">
<title>sys::bits::Integral&lt; 16 &gt;</title>
<polygon fill="white" stroke="none" points="-4,4 -4,-114 112,-114 112,4 -4,4"/>
<!-- Node1 -->
<g id="node1" class="node"><title>Node1</title>
<polygon fill="#bfbfbf" stroke="black" points="8,-1 8,-31 100,-31 100,-1 8,-1"/>
<text text-anchor="start" x="16" y="-19" font-family="Helvetica,sans-Serif" font-size="10.00">sys::bits::Integral</text>
<text text-anchor="middle" x="54" y="-8" font-family="Helvetica,sans-Serif" font-size="10.00">&lt; 16 &gt;</text>
</g>
<!-- Node2 -->
<g id="node2" class="node"><title>Node2</title>
<g id="a_node2"><a xlink:href="structsys_1_1bits_1_1byte__swap__chooser.html" target="_top" xlink:title="sys::bits::byte_swap\l_chooser\&lt; uint128_t,\l true \&gt;">
<polygon fill="white" stroke="black" points="0,-68.5 0,-109.5 108,-109.5 108,-68.5 0,-68.5"/>
<text text-anchor="start" x="8" y="-97.5" font-family="Helvetica,sans-Serif" font-size="10.00">sys::bits::byte_swap</text>
<text text-anchor="start" x="8" y="-86.5" font-family="Helvetica,sans-Serif" font-size="10.00">_chooser&lt; uint128_t,</text>
<text text-anchor="middle" x="54" y="-75.5" font-family="Helvetica,sans-Serif" font-size="10.00"> true &gt;</text>
</a>
</g>
</g>
<!-- Node2&#45;&gt;Node1 -->
<g id="edge1" class="edge"><title>Node2&#45;&gt;Node1</title>
<path fill="none" stroke="midnightblue" d="M54,-58.0188C54,-48.6567 54,-38.7696 54,-31.0485"/>
<polygon fill="midnightblue" stroke="midnightblue" points="50.5001,-58.2225 54,-68.2225 57.5001,-58.2226 50.5001,-58.2225"/>
</g>
</g>
</svg>
