<?xml version="1.0" encoding="UTF-8" standalone="no"?>
<!DOCTYPE svg PUBLIC "-//W3C//DTD SVG 1.1//EN"
 "http://www.w3.org/Graphics/SVG/1.1/DTD/svg11.dtd">
<!-- Generated by graphviz version 2.36.0 (20140111.2315)
 -->
<!-- Title: factory::Basic_kernel Pages: 1 -->
<svg width="696pt" height="432pt"
 viewBox="0.00 0.00 696.00 432.00" xmlns="http://www.w3.org/2000/svg" xmlns:xlink="http://www.w3.org/1999/xlink">
<g id="graph0" class="graph" transform="scale(1 1) rotate(0) translate(4 428)">
<title>factory::Basic_kernel</title>
<polygon fill="white" stroke="none" points="-4,4 -4,-428 692,-428 692,4 -4,4"/>
<!-- Node1 -->
<g id="node1" class="node"><title>Node1</title>
<polygon fill="#bfbfbf" stroke="black" points="0.5,-158.5 0.5,-177.5 109.5,-177.5 109.5,-158.5 0.5,-158.5"/>
<text text-anchor="middle" x="55" y="-165.5" font-family="Helvetica,sans-Serif" font-size="10.00">factory::Basic_kernel</text>
</g>
<!-- Node2 -->
<g id="node2" class="node"><title>Node2</title>
<g id="a_node2"><a xlink:href="structfactory_1_1Mobile__kernel.html" target="_top" xlink:title="factory::Mobile_kernel">
<polygon fill="white" stroke="black" points="146.5,-158.5 146.5,-177.5 259.5,-177.5 259.5,-158.5 146.5,-158.5"/>
<text text-anchor="middle" x="203" y="-165.5" font-family="Helvetica,sans-Serif" font-size="10.00">factory::Mobile_kernel</text>
</a>
</g>
</g>
<!-- Node1&#45;&gt;Node2 -->
<g id="edge1" class="edge"><title>Node1&#45;&gt;Node2</title>
<path fill="none" stroke="midnightblue" d="M119.707,-168C128.468,-168 137.411,-168 146.019,-168"/>
<polygon fill="midnightblue" stroke="midnightblue" points="119.536,-164.5 109.536,-168 119.536,-171.5 119.536,-164.5"/>
</g>
<!-- Node3 -->
<g id="node3" class="node"><title>Node3</title>
<g id="a_node3"><a xlink:href="structfactory_1_1Kernel.html" target="_top" xlink:title="factory::Kernel">
<polygon fill="white" stroke="black" points="296,-158.5 296,-177.5 376,-177.5 376,-158.5 296,-158.5"/>
<text text-anchor="middle" x="336" y="-165.5" font-family="Helvetica,sans-Serif" font-size="10.00">factory::Kernel</text>
</a>
</g>
</g>
<!-- Node2&#45;&gt;Node3 -->
<g id="edge2" class="edge"><title>Node2&#45;&gt;Node3</title>
<path fill="none" stroke="midnightblue" d="M269.579,-168C278.487,-168 287.392,-168 295.637,-168"/>
<polygon fill="midnightblue" stroke="midnightblue" points="269.556,-164.5 259.556,-168 269.556,-171.5 269.556,-164.5"/>
</g>
<!-- Node4 -->
<g id="node4" class="node"><title>Node4</title>
<g id="a_node4"><a xlink:href="structBig__kernel.html" target="_top" xlink:title="Big_kernel\&lt; Size \&gt;">
<polygon fill="white" stroke="black" points="421,-404.5 421,-423.5 521,-423.5 521,-404.5 421,-404.5"/>
<text text-anchor="middle" x="471" y="-411.5" font-family="Helvetica,sans-Serif" font-size="10.00">Big_kernel&lt; Size &gt;</text>
</a>
</g>
</g>
<!-- Node3&#45;&gt;Node4 -->
<g id="edge3" class="edge"><title>Node3&#45;&gt;Node4</title>
<path fill="none" stroke="midnightblue" d="M337.793,-187.943C340.614,-231.648 353.464,-336.612 412,-395 415.901,-398.891 420.61,-401.985 425.639,-404.446"/>
<polygon fill="midnightblue" stroke="midnightblue" points="341.278,-187.571 337.252,-177.771 334.288,-187.943 341.278,-187.571"/>
</g>
<!-- Node5 -->
<g id="node5" class="node"><title>Node5</title>
<g id="a_node5"><a xlink:href="structDummy__kernel.html" target="_top" xlink:title="Dummy_kernel">
<polygon fill="white" stroke="black" points="429.5,-366.5 429.5,-385.5 512.5,-385.5 512.5,-366.5 429.5,-366.5"/>
<text text-anchor="middle" x="471" y="-373.5" font-family="Helvetica,sans-Serif" font-size="10.00">Dummy_kernel</text>
</a>
</g>
</g>
<!-- Node3&#45;&gt;Node5 -->
<g id="edge4" class="edge"><title>Node3&#45;&gt;Node5</title>
<path fill="none" stroke="midnightblue" d="M339.371,-188.205C344.94,-226.575 362.364,-310.312 412,-357 416.94,-361.646 423.034,-365.157 429.398,-367.809"/>
<polygon fill="midnightblue" stroke="midnightblue" points="342.782,-187.3 338.001,-177.845 335.843,-188.218 342.782,-187.3"/>
</g>
<!-- Node6 -->
<g id="node6" class="node"><title>Node6</title>
<g id="a_node6"><a xlink:href="structfactory_1_1Map.html" target="_top" xlink:title="factory::Map\&lt; F, G, I \&gt;">
<polygon fill="white" stroke="black" points="412,-328.5 412,-347.5 530,-347.5 530,-328.5 412,-328.5"/>
<text text-anchor="middle" x="471" y="-335.5" font-family="Helvetica,sans-Serif" font-size="10.00">factory::Map&lt; F, G, I &gt;</text>
</a>
</g>
</g>
<!-- Node3&#45;&gt;Node6 -->
<g id="edge5" class="edge"><title>Node3&#45;&gt;Node6</title>
<path fill="none" stroke="midnightblue" d="M341.612,-187.474C350.121,-219.254 371.258,-282.295 412,-318 416.966,-322.352 422.929,-325.77 429.115,-328.45"/>
<polygon fill="midnightblue" stroke="midnightblue" points="344.967,-186.467 339.118,-177.633 338.182,-188.186 344.967,-186.467"/>
</g>
<!-- Node7 -->
<g id="node7" class="node"><title>Node7</title>
<g id="a_node7"><a xlink:href="structfactory_1_1Map_1_1Worker.html" target="_top" xlink:title="factory::Map\&lt; F, G,\l I \&gt;::Worker">
<polygon fill="white" stroke="black" points="419.5,-279 419.5,-309 522.5,-309 522.5,-279 419.5,-279"/>
<text text-anchor="start" x="427.5" y="-297" font-family="Helvetica,sans-Serif" font-size="10.00">factory::Map&lt; F, G,</text>
<text text-anchor="middle" x="471" y="-286" font-family="Helvetica,sans-Serif" font-size="10.00"> I &gt;::Worker</text>
</a>
</g>
</g>
<!-- Node3&#45;&gt;Node7 -->
<g id="edge6" class="edge"><title>Node3&#45;&gt;Node7</title>
<path fill="none" stroke="midnightblue" d="M346.687,-186.448C359.163,-208.66 382.761,-245.858 412,-269 416.729,-272.743 422.103,-276.031 427.627,-278.888"/>
<polygon fill="midnightblue" stroke="midnightblue" points="349.758,-184.769 341.897,-177.666 343.613,-188.121 349.758,-184.769"/>
</g>
<!-- Node8 -->
<g id="node8" class="node"><title>Node8</title>
<g id="a_node8"><a xlink:href="classfactory_1_1Notification.html" target="_top" xlink:title="factory::Notification">
<polygon fill="white" stroke="black" points="420,-240.5 420,-259.5 522,-259.5 522,-240.5 420,-240.5"/>
<text text-anchor="middle" x="471" y="-247.5" font-family="Helvetica,sans-Serif" font-size="10.00">factory::Notification</text>
</a>
</g>
</g>
<!-- Node3&#45;&gt;Node8 -->
<g id="edge7" class="edge"><title>Node3&#45;&gt;Node8</title>
<path fill="none" stroke="midnightblue" d="M353.408,-185.029C367.736,-199.054 389.681,-218.585 412,-231 418.667,-234.708 426.172,-237.834 433.516,-240.411"/>
<polygon fill="midnightblue" stroke="midnightblue" points="355.819,-182.49 346.278,-177.884 350.864,-187.435 355.819,-182.49"/>
</g>
<!-- Node9 -->
<g id="node9" class="node"><title>Node9</title>
<g id="a_node9"><a xlink:href="structGood__kernel.html" target="_top" xlink:title="Good_kernel">
<polygon fill="white" stroke="black" points="435.5,-202.5 435.5,-221.5 506.5,-221.5 506.5,-202.5 435.5,-202.5"/>
<text text-anchor="middle" x="471" y="-209.5" font-family="Helvetica,sans-Serif" font-size="10.00">Good_kernel</text>
</a>
</g>
</g>
<!-- Node3&#45;&gt;Node9 -->
<g id="edge8" class="edge"><title>Node3&#45;&gt;Node9</title>
<path fill="none" stroke="midnightblue" d="M375.438,-180.716C396.414,-187.656 421.951,-196.104 441.197,-202.471"/>
<polygon fill="midnightblue" stroke="midnightblue" points="376.452,-177.365 365.859,-177.547 374.254,-184.011 376.452,-177.365"/>
</g>
<!-- Node12 -->
<g id="node12" class="node"><title>Node12</title>
<g id="a_node12"><a xlink:href="structKernel__that__carries__its__parent.html" target="_top" xlink:title="Kernel_that_carries\l_its_parent">
<polygon fill="white" stroke="black" points="420.5,-153 420.5,-183 521.5,-183 521.5,-153 420.5,-153"/>
<text text-anchor="start" x="428.5" y="-171" font-family="Helvetica,sans-Serif" font-size="10.00">Kernel_that_carries</text>
<text text-anchor="middle" x="471" y="-160" font-family="Helvetica,sans-Serif" font-size="10.00">_its_parent</text>
</a>
</g>
</g>
<!-- Node3&#45;&gt;Node12 -->
<g id="edge11" class="edge"><title>Node3&#45;&gt;Node12</title>
<path fill="none" stroke="midnightblue" d="M386.497,-168C397.51,-168 409.191,-168 420.216,-168"/>
<polygon fill="midnightblue" stroke="midnightblue" points="386.185,-164.5 376.185,-168 386.185,-171.5 386.185,-164.5"/>
</g>
<!-- Node13 -->
<g id="node13" class="node"><title>Node13</title>
<g id="a_node13"><a xlink:href="structMain.html" target="_top" xlink:title="Main\&lt; Address \&gt;">
<polygon fill="white" stroke="black" points="425,-114.5 425,-133.5 517,-133.5 517,-114.5 425,-114.5"/>
<text text-anchor="middle" x="471" y="-121.5" font-family="Helvetica,sans-Serif" font-size="10.00">Main&lt; Address &gt;</text>
</a>
</g>
</g>
<!-- Node3&#45;&gt;Node13 -->
<g id="edge12" class="edge"><title>Node3&#45;&gt;Node13</title>
<path fill="none" stroke="midnightblue" d="M361.829,-154.389C379.503,-147.202 403.754,-138.835 424.816,-132.516"/>
<polygon fill="midnightblue" stroke="midnightblue" points="360.09,-151.325 352.257,-158.459 362.829,-157.767 360.09,-151.325"/>
</g>
<!-- Node3&#45;&gt;Node13 -->
<g id="edge13" class="edge"><title>Node3&#45;&gt;Node13</title>
<path fill="none" stroke="midnightblue" d="M385.969,-158.337C410.191,-150.925 437.754,-141.134 454.507,-133.647"/>
<polygon fill="midnightblue" stroke="midnightblue" points="384.769,-155.042 376.185,-161.253 386.768,-161.751 384.769,-155.042"/>
</g>
<!-- Node14 -->
<g id="node14" class="node"><title>Node14</title>
<g id="a_node14"><a xlink:href="structSender.html" target="_top" xlink:title="Sender">
<polygon fill="white" stroke="black" points="447.5,-76.5 447.5,-95.5 494.5,-95.5 494.5,-76.5 447.5,-76.5"/>
<text text-anchor="middle" x="471" y="-83.5" font-family="Helvetica,sans-Serif" font-size="10.00">Sender</text>
</a>
</g>
</g>
<!-- Node3&#45;&gt;Node14 -->
<g id="edge14" class="edge"><title>Node3&#45;&gt;Node14</title>
<path fill="none" stroke="midnightblue" d="M353.408,-150.971C367.736,-136.946 389.681,-117.415 412,-105 423.019,-98.8707 436.327,-94.3343 447.414,-91.2342"/>
<polygon fill="midnightblue" stroke="midnightblue" points="350.864,-148.565 346.278,-158.116 355.819,-153.51 350.864,-148.565"/>
</g>
<!-- Node15 -->
<g id="node15" class="node"><title>Node15</title>
<g id="a_node15"><a xlink:href="structSleepy__kernel.html" target="_top" xlink:title="Sleepy_kernel">
<polygon fill="white" stroke="black" points="432,-38.5 432,-57.5 510,-57.5 510,-38.5 432,-38.5"/>
<text text-anchor="middle" x="471" y="-45.5" font-family="Helvetica,sans-Serif" font-size="10.00">Sleepy_kernel</text>
</a>
</g>
</g>
<!-- Node3&#45;&gt;Node15 -->
<g id="edge15" class="edge"><title>Node3&#45;&gt;Node15</title>
<path fill="none" stroke="midnightblue" d="M346.164,-149.45C358.249,-126.829 381.591,-88.9084 412,-67 417.932,-62.7263 424.88,-59.3761 431.865,-56.762"/>
<polygon fill="midnightblue" stroke="midnightblue" points="343.028,-147.895 341.552,-158.386 349.249,-151.105 343.028,-147.895"/>
</g>
<!-- Node16 -->
<g id="node16" class="node"><title>Node16</title>
<g id="a_node16"><a xlink:href="structTest__socket.html" target="_top" xlink:title="Test_socket">
<polygon fill="white" stroke="black" points="435.5,-0.5 435.5,-19.5 506.5,-19.5 506.5,-0.5 435.5,-0.5"/>
<text text-anchor="middle" x="471" y="-7.5" font-family="Helvetica,sans-Serif" font-size="10.00">Test_socket</text>
</a>
</g>
</g>
<!-- Node3&#45;&gt;Node16 -->
<g id="edge16" class="edge"><title>Node3&#45;&gt;Node16</title>
<path fill="none" stroke="midnightblue" d="M340.87,-148.467C349.134,-116.424 371.162,-54.1383 412,-20 418.666,-14.4273 427.013,-10.4752 435.279,-7.9731"/>
<polygon fill="midnightblue" stroke="midnightblue" points="337.406,-147.907 338.513,-158.444 344.219,-149.516 337.406,-147.907"/>
</g>
<!-- Node3&#45;&gt;Node16 -->
<g id="edge17" class="edge"><title>Node3&#45;&gt;Node16</title>
<path fill="none" stroke="midnightblue" d="M344.392,-148.536C354.613,-120.073 375.996,-68.0975 412,-38 423.707,-28.2138 440.595,-23.4254 453.131,-19.5068"/>
<polygon fill="midnightblue" stroke="midnightblue" points="341.01,-147.604 341.014,-158.199 347.618,-149.914 341.01,-147.604"/>
</g>
<!-- Node10 -->
<g id="node10" class="node"><title>Node10</title>
<g id="a_node10"><a xlink:href="structKernel__that__reads__more__than__writes.html" target="_top" xlink:title="Kernel_that_reads_more\l_than_writes">
<polygon fill="white" stroke="black" points="566,-221 566,-251 688,-251 688,-221 566,-221"/>
<text text-anchor="start" x="574" y="-239" font-family="Helvetica,sans-Serif" font-size="10.00">Kernel_that_reads_more</text>
<text text-anchor="middle" x="627" y="-228" font-family="Helvetica,sans-Serif" font-size="10.00">_than_writes</text>
</a>
</g>
</g>
<!-- Node9&#45;&gt;Node10 -->
<g id="edge9" class="edge"><title>Node9&#45;&gt;Node10</title>
<path fill="none" stroke="midnightblue" d="M516.796,-218.981C532.115,-221.369 549.508,-224.079 565.838,-226.624"/>
<polygon fill="midnightblue" stroke="midnightblue" points="516.98,-215.468 506.561,-217.386 515.902,-222.384 516.98,-215.468"/>
</g>
<!-- Node11 -->
<g id="node11" class="node"><title>Node11</title>
<g id="a_node11"><a xlink:href="structKernel__that__writes__more__than__reads.html" target="_top" xlink:title="Kernel_that_writes\l_more_than_reads">
<polygon fill="white" stroke="black" points="578,-172 578,-202 676,-202 676,-172 578,-172"/>
<text text-anchor="start" x="586" y="-190" font-family="Helvetica,sans-Serif" font-size="10.00">Kernel_that_writes</text>
<text text-anchor="middle" x="627" y="-179" font-family="Helvetica,sans-Serif" font-size="10.00">_more_than_reads</text>
</a>
</g>
</g>
<!-- Node9&#45;&gt;Node11 -->
<g id="edge10" class="edge"><title>Node9&#45;&gt;Node11</title>
<path fill="none" stroke="midnightblue" d="M516.557,-204.767C535.757,-201.65 558.249,-197.998 577.834,-194.819"/>
<polygon fill="midnightblue" stroke="midnightblue" points="515.871,-201.332 506.561,-206.39 516.992,-208.242 515.871,-201.332"/>
</g>
</g>
</svg>
