<?xml version="1.0" encoding="UTF-8" standalone="no"?>
<!DOCTYPE svg PUBLIC "-//W3C//DTD SVG 1.1//EN"
 "http://www.w3.org/Graphics/SVG/1.1/DTD/svg11.dtd">
<!-- Generated by graphviz version 2.36.0 (20140111.2315)
 -->
<!-- Title: factory::Mobile_kernel Pages: 1 -->
<svg width="249pt" height="84pt"
 viewBox="0.00 0.00 249.00 84.00" xmlns="http://www.w3.org/2000/svg" xmlns:xlink="http://www.w3.org/1999/xlink">
<g id="graph0" class="graph" transform="scale(1 1) rotate(0) translate(4 80)">
<title>factory::Mobile_kernel</title>
<polygon fill="white" stroke="none" points="-4,4 -4,-80 245,-80 245,4 -4,4"/>
<!-- Node1 -->
<g id="node1" class="node"><title>Node1</title>
<polygon fill="#bfbfbf" stroke="black" points="62.5,-0.5 62.5,-19.5 175.5,-19.5 175.5,-0.5 62.5,-0.5"/>
<text text-anchor="middle" x="119" y="-7.5" font-family="Helvetica,sans-Serif" font-size="10.00">factory::Mobile_kernel</text>
</g>
<!-- Node2 -->
<g id="node2" class="node"><title>Node2</title>
<g id="a_node2"><a xlink:href="structfactory_1_1Basic__kernel.html" target="_top" xlink:title="factory::Basic_kernel">
<polygon fill="white" stroke="black" points="-0.5,-56.5 -0.5,-75.5 108.5,-75.5 108.5,-56.5 -0.5,-56.5"/>
<text text-anchor="middle" x="54" y="-63.5" font-family="Helvetica,sans-Serif" font-size="10.00">factory::Basic_kernel</text>
</a>
</g>
</g>
<!-- Node2&#45;&gt;Node1 -->
<g id="edge1" class="edge"><title>Node2&#45;&gt;Node1</title>
<path fill="none" stroke="midnightblue" d="M72.2726,-49.8197C83.9178,-40.1452 98.5995,-27.9481 108.367,-19.8339"/>
<polygon fill="midnightblue" stroke="midnightblue" points="69.8987,-47.2416 64.4434,-56.324 74.3719,-52.6259 69.8987,-47.2416"/>
</g>
<!-- Node3 -->
<g id="node3" class="node"><title>Node3</title>
<g id="a_node3"><a xlink:href="structfactory_1_1Kernel__header.html" target="_top" xlink:title="factory::Kernel_header">
<polygon fill="white" stroke="black" points="126.5,-56.5 126.5,-75.5 241.5,-75.5 241.5,-56.5 126.5,-56.5"/>
<text text-anchor="middle" x="184" y="-63.5" font-family="Helvetica,sans-Serif" font-size="10.00">factory::Kernel_header</text>
</a>
</g>
</g>
<!-- Node3&#45;&gt;Node1 -->
<g id="edge2" class="edge"><title>Node3&#45;&gt;Node1</title>
<path fill="none" stroke="midnightblue" d="M165.727,-49.8197C154.082,-40.1452 139.401,-27.9481 129.633,-19.8339"/>
<polygon fill="midnightblue" stroke="midnightblue" points="163.628,-52.6259 173.557,-56.324 168.101,-47.2416 163.628,-52.6259"/>
</g>
</g>
</svg>
