<?xml version="1.0" encoding="UTF-8" standalone="no"?>
<!DOCTYPE svg PUBLIC "-//W3C//DTD SVG 1.1//EN"
 "http://www.w3.org/Graphics/SVG/1.1/DTD/svg11.dtd">
<!-- Generated by graphviz version 2.38.0 (20140413.2041)
 -->
<!-- Title: factory::Process_iserver&lt; T, Router &gt; Pages: 1 -->
<svg width="131pt" height="251pt"
 viewBox="0.00 0.00 131.00 251.00" xmlns="http://www.w3.org/2000/svg" xmlns:xlink="http://www.w3.org/1999/xlink">
<g id="graph0" class="graph" transform="scale(1 1) rotate(0) translate(4 247)">
<title>factory::Process_iserver&lt; T, Router &gt;</title>
<polygon fill="white" stroke="none" points="-4,4 -4,-247 127,-247 127,4 -4,4"/>
<!-- Node1 -->
<g id="node1" class="node"><title>Node1</title>
<polygon fill="#bfbfbf" stroke="black" points="0,-0.5 0,-30.5 123,-30.5 123,-0.5 0,-0.5"/>
<text text-anchor="start" x="8" y="-18.5" font-family="Helvetica,sans-Serif" font-size="10.00">factory::Process_iserver</text>
<text text-anchor="middle" x="61.5" y="-7.5" font-family="Helvetica,sans-Serif" font-size="10.00">&lt; T, Router &gt;</text>
</g>
<!-- Node2 -->
<g id="node2" class="node"><title>Node2</title>
<g id="a_node2"><a xlink:href="structfactory_1_1Proxy__server.html" target="_top" xlink:title="factory::Proxy_server\l\&lt; T, Process_rserver\l\&lt; T, Router \&gt; \&gt;">
<polygon fill="white" stroke="black" points="6.5,-67.5 6.5,-108.5 116.5,-108.5 116.5,-67.5 6.5,-67.5"/>
<text text-anchor="start" x="14.5" y="-96.5" font-family="Helvetica,sans-Serif" font-size="10.00">factory::Proxy_server</text>
<text text-anchor="start" x="14.5" y="-85.5" font-family="Helvetica,sans-Serif" font-size="10.00">&lt; T, Process_rserver</text>
<text text-anchor="middle" x="61.5" y="-74.5" font-family="Helvetica,sans-Serif" font-size="10.00">&lt; T, Router &gt; &gt;</text>
</a>
</g>
</g>
<!-- Node2&#45;&gt;Node1 -->
<g id="edge1" class="edge"><title>Node2&#45;&gt;Node1</title>
<path fill="none" stroke="midnightblue" d="M61.5,-57.08C61.5,-48.0061 61.5,-38.4498 61.5,-30.8916"/>
<polygon fill="midnightblue" stroke="midnightblue" points="58.0001,-57.3618 61.5,-67.3618 65.0001,-57.3619 58.0001,-57.3618"/>
</g>
<!-- Node3 -->
<g id="node3" class="node"><title>Node3</title>
<g id="a_node3"><a xlink:href="structfactory_1_1Server__with__pool.html" target="_top" xlink:title="Proxy_server_base\&lt;\l T, Process_rserver\l\&lt; T, Router \&gt; &#160;\&gt;">
<polygon fill="white" stroke="black" points="8,-145.5 8,-186.5 115,-186.5 115,-145.5 8,-145.5"/>
<text text-anchor="start" x="16" y="-174.5" font-family="Helvetica,sans-Serif" font-size="10.00">Proxy_server_base&lt;</text>
<text text-anchor="start" x="16" y="-163.5" font-family="Helvetica,sans-Serif" font-size="10.00"> T, Process_rserver</text>
<text text-anchor="middle" x="61.5" y="-152.5" font-family="Helvetica,sans-Serif" font-size="10.00">&lt; T, Router &gt; &gt;</text>
</a>
</g>
</g>
<!-- Node3&#45;&gt;Node2 -->
<g id="edge2" class="edge"><title>Node3&#45;&gt;Node2</title>
<path fill="none" stroke="midnightblue" d="M61.5,-135.297C61.5,-126.301 61.5,-116.653 61.5,-108.506"/>
<polygon fill="midnightblue" stroke="midnightblue" points="58.0001,-135.428 61.5,-145.428 65.0001,-135.428 58.0001,-135.428"/>
</g>
<!-- Node4 -->
<g id="node4" class="node"><title>Node4</title>
<g id="a_node4"><a xlink:href="structfactory_1_1Server__base.html" target="_top" xlink:title="factory::Server_base">
<polygon fill="white" stroke="black" points="8,-223.5 8,-242.5 115,-242.5 115,-223.5 8,-223.5"/>
<text text-anchor="middle" x="61.5" y="-230.5" font-family="Helvetica,sans-Serif" font-size="10.00">factory::Server_base</text>
</a>
</g>
</g>
<!-- Node4&#45;&gt;Node3 -->
<g id="edge3" class="edge"><title>Node4&#45;&gt;Node3</title>
<path fill="none" stroke="midnightblue" d="M61.5,-213.037C61.5,-204.708 61.5,-194.936 61.5,-186.542"/>
<polygon fill="midnightblue" stroke="midnightblue" points="58.0001,-213.234 61.5,-223.234 65.0001,-213.234 58.0001,-213.234"/>
</g>
</g>
</svg>
