<?xml version="1.0" encoding="UTF-8" standalone="no"?>
<!DOCTYPE svg PUBLIC "-//W3C//DTD SVG 1.1//EN"
 "http://www.w3.org/Graphics/SVG/1.1/DTD/svg11.dtd">
<!-- Generated by graphviz version 2.36.0 (20140111.2315)
 -->
<!-- Title: Test_shmem&lt; T &gt; Pages: 1 -->
<svg width="132pt" height="152pt"
 viewBox="0.00 0.00 132.00 152.00" xmlns="http://www.w3.org/2000/svg" xmlns:xlink="http://www.w3.org/1999/xlink">
<g id="graph0" class="graph" transform="scale(1 1) rotate(0) translate(4 148)">
<title>Test_shmem&lt; T &gt;</title>
<polygon fill="white" stroke="none" points="-4,4 -4,-148 128,-148 128,4 -4,4"/>
<!-- Node1 -->
<g id="node1" class="node"><title>Node1</title>
<polygon fill="#bfbfbf" stroke="black" points="13,-0.5 13,-19.5 111,-19.5 111,-0.5 13,-0.5"/>
<text text-anchor="middle" x="62" y="-7.5" font-family="Helvetica,sans-Serif" font-size="10.00">Test_shmem&lt; T &gt;</text>
</g>
<!-- Node2 -->
<g id="node2" class="node"><title>Node2</title>
<g id="a_node2"><a xlink:href="structtest_1_1Test.html" target="_top" xlink:title="test::Test\&lt; Test_shmem\l\&lt; T \&gt; \&gt;">
<polygon fill="white" stroke="black" points="-0.5,-57 -0.5,-87 124.5,-87 124.5,-57 -0.5,-57"/>
<text text-anchor="start" x="7.5" y="-75" font-family="Helvetica,sans-Serif" font-size="10.00">test::Test&lt; Test_shmem</text>
<text text-anchor="middle" x="62" y="-64" font-family="Helvetica,sans-Serif" font-size="10.00">&lt; T &gt; &gt;</text>
</a>
</g>
</g>
<!-- Node2&#45;&gt;Node1 -->
<g id="edge1" class="edge"><title>Node2&#45;&gt;Node1</title>
<path fill="none" stroke="midnightblue" d="M62,-46.5858C62,-37.0743 62,-26.7864 62,-19.7305"/>
<polygon fill="midnightblue" stroke="midnightblue" points="58.5001,-46.7808 62,-56.7808 65.5001,-46.7809 58.5001,-46.7808"/>
</g>
<!-- Node3 -->
<g id="node3" class="node"><title>Node3</title>
<g id="a_node3"><a xlink:href="structtest_1_1Basic__test.html" target="_top" xlink:title="test::Basic_test">
<polygon fill="white" stroke="black" points="19,-124.5 19,-143.5 105,-143.5 105,-124.5 19,-124.5"/>
<text text-anchor="middle" x="62" y="-131.5" font-family="Helvetica,sans-Serif" font-size="10.00">test::Basic_test</text>
</a>
</g>
</g>
<!-- Node3&#45;&gt;Node2 -->
<g id="edge2" class="edge"><title>Node3&#45;&gt;Node2</title>
<path fill="none" stroke="midnightblue" d="M62,-114.371C62,-105.585 62,-95.2721 62,-87.1408"/>
<polygon fill="midnightblue" stroke="midnightblue" points="58.5001,-114.403 62,-124.403 65.5001,-114.403 58.5001,-114.403"/>
</g>
</g>
</svg>
