<?xml version="1.0" encoding="UTF-8" standalone="no"?>
<!DOCTYPE svg PUBLIC "-//W3C//DTD SVG 1.1//EN"
 "http://www.w3.org/Graphics/SVG/1.1/DTD/svg11.dtd">
<!-- Generated by graphviz version 2.36.0 (20140111.2315)
 -->
<!-- Title: factory::Map&lt; F, G, I &gt;::Worker Pages: 1 -->
<svg width="249pt" height="216pt"
 viewBox="0.00 0.00 249.00 216.00" xmlns="http://www.w3.org/2000/svg" xmlns:xlink="http://www.w3.org/1999/xlink">
<g id="graph0" class="graph" transform="scale(1 1) rotate(0) translate(4 212)">
<title>factory::Map&lt; F, G, I &gt;::Worker</title>
<polygon fill="white" stroke="none" points="-4,4 -4,-212 245,-212 245,4 -4,4"/>
<!-- Node1 -->
<g id="node1" class="node"><title>Node1</title>
<polygon fill="#bfbfbf" stroke="black" points="67.5,-1 67.5,-31 170.5,-31 170.5,-1 67.5,-1"/>
<text text-anchor="start" x="75.5" y="-19" font-family="Helvetica,sans-Serif" font-size="10.00">factory::Map&lt; F, G,</text>
<text text-anchor="middle" x="119" y="-8" font-family="Helvetica,sans-Serif" font-size="10.00"> I &gt;::Worker</text>
</g>
<!-- Node2 -->
<g id="node2" class="node"><title>Node2</title>
<g id="a_node2"><a xlink:href="structfactory_1_1Kernel.html" target="_top" xlink:title="factory::Kernel">
<polygon fill="white" stroke="black" points="79,-71.5 79,-90.5 159,-90.5 159,-71.5 79,-71.5"/>
<text text-anchor="middle" x="119" y="-78.5" font-family="Helvetica,sans-Serif" font-size="10.00">factory::Kernel</text>
</a>
</g>
</g>
<!-- Node2&#45;&gt;Node1 -->
<g id="edge1" class="edge"><title>Node2&#45;&gt;Node1</title>
<path fill="none" stroke="midnightblue" d="M119,-61.0429C119,-51.3877 119,-39.8535 119,-31.0111"/>
<polygon fill="midnightblue" stroke="midnightblue" points="115.5,-61.2401 119,-71.2401 122.5,-61.2402 115.5,-61.2401"/>
</g>
<!-- Node2&#45;&gt;Node2 -->
<g id="edge5" class="edge"><title>Node2&#45;&gt;Node2</title>
<path fill="none" stroke="#9a32cd" stroke-dasharray="5,2" d="M169.265,-85.5193C174.005,-84.5938 177,-83.0874 177,-81 177,-77.6602 169.332,-75.8076 159.119,-75.4423"/>
<polygon fill="#9a32cd" stroke="#9a32cd" points="168.71,-82.0577 159.119,-86.5577 169.423,-89.0213 168.71,-82.0577"/>
<text text-anchor="middle" x="199.5" y="-84" font-family="Helvetica,sans-Serif" font-size="10.00"> _principal</text>
<text text-anchor="middle" x="199.5" y="-73" font-family="Helvetica,sans-Serif" font-size="10.00">_parent</text>
</g>
<!-- Node3 -->
<g id="node3" class="node"><title>Node3</title>
<g id="a_node3"><a xlink:href="structfactory_1_1Mobile__kernel.html" target="_top" xlink:title="factory::Mobile_kernel">
<polygon fill="white" stroke="black" points="62.5,-130.5 62.5,-149.5 175.5,-149.5 175.5,-130.5 62.5,-130.5"/>
<text text-anchor="middle" x="119" y="-137.5" font-family="Helvetica,sans-Serif" font-size="10.00">factory::Mobile_kernel</text>
</a>
</g>
</g>
<!-- Node3&#45;&gt;Node2 -->
<g id="edge2" class="edge"><title>Node3&#45;&gt;Node2</title>
<path fill="none" stroke="midnightblue" d="M119,-119.933C119,-110.024 119,-98.4007 119,-90.6571"/>
<polygon fill="midnightblue" stroke="midnightblue" points="115.5,-120.094 119,-130.094 122.5,-120.094 115.5,-120.094"/>
</g>
<!-- Node4 -->
<g id="node4" class="node"><title>Node4</title>
<g id="a_node4"><a xlink:href="structfactory_1_1Basic__kernel.html" target="_top" xlink:title="factory::Basic_kernel">
<polygon fill="white" stroke="black" points="-0.5,-188.5 -0.5,-207.5 108.5,-207.5 108.5,-188.5 -0.5,-188.5"/>
<text text-anchor="middle" x="54" y="-195.5" font-family="Helvetica,sans-Serif" font-size="10.00">factory::Basic_kernel</text>
</a>
</g>
</g>
<!-- Node4&#45;&gt;Node3 -->
<g id="edge3" class="edge"><title>Node4&#45;&gt;Node3</title>
<path fill="none" stroke="midnightblue" d="M71.526,-181.901C83.5502,-171.541 99.0739,-158.167 109.035,-149.585"/>
<polygon fill="midnightblue" stroke="midnightblue" points="69.1637,-179.316 63.8721,-188.495 73.7327,-184.619 69.1637,-179.316"/>
</g>
<!-- Node5 -->
<g id="node5" class="node"><title>Node5</title>
<g id="a_node5"><a xlink:href="structfactory_1_1Kernel__header.html" target="_top" xlink:title="factory::Kernel_header">
<polygon fill="white" stroke="black" points="126.5,-188.5 126.5,-207.5 241.5,-207.5 241.5,-188.5 126.5,-188.5"/>
<text text-anchor="middle" x="184" y="-195.5" font-family="Helvetica,sans-Serif" font-size="10.00">factory::Kernel_header</text>
</a>
</g>
</g>
<!-- Node5&#45;&gt;Node3 -->
<g id="edge4" class="edge"><title>Node5&#45;&gt;Node3</title>
<path fill="none" stroke="midnightblue" d="M166.474,-181.901C154.45,-171.541 138.926,-158.167 128.965,-149.585"/>
<polygon fill="midnightblue" stroke="midnightblue" points="164.267,-184.619 174.128,-188.495 168.836,-179.316 164.267,-184.619"/>
</g>
</g>
</svg>
