<?xml version="1.0" encoding="UTF-8" standalone="no"?>
<!DOCTYPE svg PUBLIC "-//W3C//DTD SVG 1.1//EN"
 "http://www.w3.org/Graphics/SVG/1.1/DTD/svg11.dtd">
<!-- Generated by graphviz version 2.36.0 (20140111.2315)
 -->
<!-- Title: factory::Kernel Pages: 1 -->
<svg width="243pt" height="146pt"
 viewBox="0.00 0.00 243.00 146.00" xmlns="http://www.w3.org/2000/svg" xmlns:xlink="http://www.w3.org/1999/xlink">
<g id="graph0" class="graph" transform="scale(1 1) rotate(0) translate(4 142)">
<title>factory::Kernel</title>
<polygon fill="white" stroke="none" points="-4,4 -4,-142 239,-142 239,4 -4,4"/>
<!-- Node1 -->
<g id="node1" class="node"><title>Node1</title>
<polygon fill="#bfbfbf" stroke="black" points="75,-1.5 75,-20.5 155,-20.5 155,-1.5 75,-1.5"/>
<text text-anchor="middle" x="115" y="-8.5" font-family="Helvetica,sans-Serif" font-size="10.00">factory::Kernel</text>
</g>
<!-- Node1&#45;&gt;Node1 -->
<g id="edge4" class="edge"><title>Node1&#45;&gt;Node1</title>
<path fill="none" stroke="#9a32cd" stroke-dasharray="5,2" d="M165.265,-15.5193C170.005,-14.5938 173,-13.0874 173,-11 173,-7.66016 165.332,-5.80759 155.119,-5.44229"/>
<polygon fill="#9a32cd" stroke="#9a32cd" points="164.71,-12.0577 155.119,-16.5577 165.423,-19.0213 164.71,-12.0577"/>
<text text-anchor="middle" x="195.5" y="-14" font-family="Helvetica,sans-Serif" font-size="10.00"> _principal</text>
<text text-anchor="middle" x="195.5" y="-3" font-family="Helvetica,sans-Serif" font-size="10.00">_parent</text>
</g>
<!-- Node2 -->
<g id="node2" class="node"><title>Node2</title>
<g id="a_node2"><a xlink:href="classfactory_1_1mobile__kernel.html" target="_top" xlink:title="factory::mobile_kernel">
<polygon fill="white" stroke="black" points="58.5,-60.5 58.5,-79.5 171.5,-79.5 171.5,-60.5 58.5,-60.5"/>
<text text-anchor="middle" x="115" y="-67.5" font-family="Helvetica,sans-Serif" font-size="10.00">factory::mobile_kernel</text>
</a>
</g>
</g>
<!-- Node2&#45;&gt;Node1 -->
<g id="edge1" class="edge"><title>Node2&#45;&gt;Node1</title>
<path fill="none" stroke="midnightblue" d="M115,-49.9331C115,-40.0243 115,-28.4007 115,-20.6571"/>
<polygon fill="midnightblue" stroke="midnightblue" points="111.5,-50.0937 115,-60.0938 118.5,-50.0938 111.5,-50.0937"/>
</g>
<!-- Node3 -->
<g id="node3" class="node"><title>Node3</title>
<g id="a_node3"><a xlink:href="classfactory_1_1kernel__base.html" target="_top" xlink:title="factory::kernel_base">
<polygon fill="white" stroke="black" points="-0.5,-118.5 -0.5,-137.5 104.5,-137.5 104.5,-118.5 -0.5,-118.5"/>
<text text-anchor="middle" x="52" y="-125.5" font-family="Helvetica,sans-Serif" font-size="10.00">factory::kernel_base</text>
</a>
</g>
</g>
<!-- Node3&#45;&gt;Node2 -->
<g id="edge2" class="edge"><title>Node3&#45;&gt;Node2</title>
<path fill="none" stroke="midnightblue" d="M69.3239,-111.601C80.9298,-101.285 95.7798,-88.0846 105.342,-79.5852"/>
<polygon fill="midnightblue" stroke="midnightblue" points="66.7172,-109.235 61.5683,-118.495 71.3677,-114.467 66.7172,-109.235"/>
</g>
<!-- Node4 -->
<g id="node4" class="node"><title>Node4</title>
<g id="a_node4"><a xlink:href="classfactory_1_1kernel__header.html" target="_top" xlink:title="factory::kernel_header">
<polygon fill="white" stroke="black" points="122.5,-118.5 122.5,-137.5 235.5,-137.5 235.5,-118.5 122.5,-118.5"/>
<text text-anchor="middle" x="179" y="-125.5" font-family="Helvetica,sans-Serif" font-size="10.00">factory::kernel_header</text>
</a>
</g>
</g>
<!-- Node4&#45;&gt;Node2 -->
<g id="edge3" class="edge"><title>Node4&#45;&gt;Node2</title>
<path fill="none" stroke="midnightblue" d="M161.744,-111.901C149.904,-101.541 134.62,-88.1671 124.812,-79.5852"/>
<polygon fill="midnightblue" stroke="midnightblue" points="159.449,-114.544 169.28,-118.495 164.059,-109.276 159.449,-114.544"/>
</g>
</g>
</svg>
