<?xml version="1.0" encoding="UTF-8" standalone="no"?>
<!DOCTYPE svg PUBLIC "-//W3C//DTD SVG 1.1//EN"
 "http://www.w3.org/Graphics/SVG/1.1/DTD/svg11.dtd">
<!-- Generated by graphviz version 2.36.0 (20140111.2315)
 -->
<!-- Title: autoreg::Wave_surface_generator&lt; T, Grid &gt; Pages: 1 -->
<svg width="215pt" height="216pt"
 viewBox="0.00 0.00 215.00 216.00" xmlns="http://www.w3.org/2000/svg" xmlns:xlink="http://www.w3.org/1999/xlink">
<g id="graph0" class="graph" transform="scale(1 1) rotate(0) translate(4 212)">
<title>autoreg::Wave_surface_generator&lt; T, Grid &gt;</title>
<polygon fill="white" stroke="none" points="-4,4 -4,-212 211,-212 211,4 -4,4"/>
<!-- Node1 -->
<g id="node1" class="node"><title>Node1</title>
<polygon fill="#bfbfbf" stroke="black" points="42,-1 42,-31 160,-31 160,-1 42,-1"/>
<text text-anchor="start" x="50" y="-19" font-family="Helvetica,sans-Serif" font-size="10.00">autoreg::Wave_surface</text>
<text text-anchor="middle" x="101" y="-8" font-family="Helvetica,sans-Serif" font-size="10.00">_generator&lt; T, Grid &gt;</text>
</g>
<!-- Node2 -->
<g id="node2" class="node"><title>Node2</title>
<g id="a_node2"><a xlink:href="structbsc_1_1kernel.html" target="_top" xlink:title="bsc::kernel">
<polygon fill="white" stroke="black" points="68.5,-71.5 68.5,-90.5 133.5,-90.5 133.5,-71.5 68.5,-71.5"/>
<text text-anchor="middle" x="101" y="-78.5" font-family="Helvetica,sans-Serif" font-size="10.00">bsc::kernel</text>
</a>
</g>
</g>
<!-- Node2&#45;&gt;Node1 -->
<g id="edge1" class="edge"><title>Node2&#45;&gt;Node1</title>
<path fill="none" stroke="midnightblue" d="M101,-61.0429C101,-51.3877 101,-39.8535 101,-31.0111"/>
<polygon fill="midnightblue" stroke="midnightblue" points="97.5001,-61.2401 101,-71.2401 104.5,-61.2402 97.5001,-61.2401"/>
</g>
<!-- Node2&#45;&gt;Node2 -->
<g id="edge5" class="edge"><title>Node2&#45;&gt;Node2</title>
<path fill="none" stroke="#9a32cd" stroke-dasharray="5,2" d="M143.791,-85.6366C148.189,-84.7236 151,-83.178 151,-81 151,-77.4258 143.43,-75.5549 133.7,-75.3874"/>
<polygon fill="#9a32cd" stroke="#9a32cd" points="143.317,-82.166 133.7,-86.6126 143.991,-89.1335 143.317,-82.166"/>
<text text-anchor="middle" x="173.5" y="-84" font-family="Helvetica,sans-Serif" font-size="10.00"> _principal</text>
<text text-anchor="middle" x="173.5" y="-73" font-family="Helvetica,sans-Serif" font-size="10.00">_parent</text>
</g>
<!-- Node3 -->
<g id="node3" class="node"><title>Node3</title>
<g id="a_node3"><a xlink:href="classbsc_1_1mobile__kernel.html" target="_top" xlink:title="bsc::mobile_kernel">
<polygon fill="white" stroke="black" points="52,-130.5 52,-149.5 150,-149.5 150,-130.5 52,-130.5"/>
<text text-anchor="middle" x="101" y="-137.5" font-family="Helvetica,sans-Serif" font-size="10.00">bsc::mobile_kernel</text>
</a>
</g>
</g>
<!-- Node3&#45;&gt;Node2 -->
<g id="edge2" class="edge"><title>Node3&#45;&gt;Node2</title>
<path fill="none" stroke="midnightblue" d="M101,-119.933C101,-110.024 101,-98.4007 101,-90.6571"/>
<polygon fill="midnightblue" stroke="midnightblue" points="97.5001,-120.094 101,-130.094 104.5,-120.094 97.5001,-120.094"/>
</g>
<!-- Node4 -->
<g id="node4" class="node"><title>Node4</title>
<g id="a_node4"><a xlink:href="classbsc_1_1kernel__base.html" target="_top" xlink:title="bsc::kernel_base">
<polygon fill="white" stroke="black" points="-0.5,-188.5 -0.5,-207.5 90.5,-207.5 90.5,-188.5 -0.5,-188.5"/>
<text text-anchor="middle" x="45" y="-195.5" font-family="Helvetica,sans-Serif" font-size="10.00">bsc::kernel_base</text>
</a>
</g>
</g>
<!-- Node4&#45;&gt;Node3 -->
<g id="edge3" class="edge"><title>Node4&#45;&gt;Node3</title>
<path fill="none" stroke="midnightblue" d="M60.9584,-181.042C71.2214,-170.779 84.1508,-157.849 92.4948,-149.505"/>
<polygon fill="midnightblue" stroke="midnightblue" points="58.3462,-178.704 53.75,-188.25 63.296,-183.654 58.3462,-178.704"/>
</g>
<!-- Node5 -->
<g id="node5" class="node"><title>Node5</title>
<g id="a_node5"><a xlink:href="classbsc_1_1kernel__header.html" target="_top" xlink:title="bsc::kernel_header">
<polygon fill="white" stroke="black" points="108.5,-188.5 108.5,-207.5 207.5,-207.5 207.5,-188.5 108.5,-188.5"/>
<text text-anchor="middle" x="158" y="-195.5" font-family="Helvetica,sans-Serif" font-size="10.00">bsc::kernel_header</text>
</a>
</g>
</g>
<!-- Node5&#45;&gt;Node3 -->
<g id="edge4" class="edge"><title>Node5&#45;&gt;Node3</title>
<path fill="none" stroke="midnightblue" d="M141.757,-181.042C131.31,-170.779 118.15,-157.849 109.657,-149.505"/>
<polygon fill="midnightblue" stroke="midnightblue" points="139.507,-183.738 149.094,-188.25 144.413,-178.745 139.507,-183.738"/>
</g>
</g>
</svg>
