<?xml version="1.0" encoding="UTF-8" standalone="no"?>
<!DOCTYPE svg PUBLIC "-//W3C//DTD SVG 1.1//EN"
 "http://www.w3.org/Graphics/SVG/1.1/DTD/svg11.dtd">
<!-- Generated by graphviz version 2.36.0 (20140111.2315)
 -->
<!-- Title: factory::CPU_server&lt; T &gt; Pages: 1 -->
<svg width="183pt" height="236pt"
 viewBox="0.00 0.00 183.00 236.00" xmlns="http://www.w3.org/2000/svg" xmlns:xlink="http://www.w3.org/1999/xlink">
<g id="graph0" class="graph" transform="scale(1 1) rotate(0) translate(4 232)">
<title>factory::CPU_server&lt; T &gt;</title>
<polygon fill="white" stroke="none" points="-4,4 -4,-232 179,-232 179,4 -4,4"/>
<!-- Node1 -->
<g id="node1" class="node"><title>Node1</title>
<polygon fill="#bfbfbf" stroke="black" points="35.5,-0.5 35.5,-19.5 166.5,-19.5 166.5,-0.5 35.5,-0.5"/>
<text text-anchor="middle" x="101" y="-7.5" font-family="Helvetica,sans-Serif" font-size="10.00">factory::CPU_server&lt; T &gt;</text>
</g>
<!-- Node2 -->
<g id="node2" class="node"><title>Node2</title>
<g id="a_node2"><a xlink:href="structfactory_1_1Basic__CPU__server.html" target="_top" xlink:title="factory::Basic_CPU\l_server\&lt; T \&gt;">
<polygon fill="white" stroke="black" points="49,-59 49,-89 153,-89 153,-59 49,-59"/>
<text text-anchor="start" x="57" y="-77" font-family="Helvetica,sans-Serif" font-size="10.00">factory::Basic_CPU</text>
<text text-anchor="middle" x="101" y="-66" font-family="Helvetica,sans-Serif" font-size="10.00">_server&lt; T &gt;</text>
</a>
</g>
</g>
<!-- Node2&#45;&gt;Node1 -->
<g id="edge1" class="edge"><title>Node2&#45;&gt;Node1</title>
<path fill="none" stroke="midnightblue" d="M101,-48.8706C101,-38.6625 101,-27.4077 101,-19.8419"/>
<polygon fill="midnightblue" stroke="midnightblue" points="97.5001,-48.9312 101,-58.9312 104.5,-48.9313 97.5001,-48.9312"/>
</g>
<!-- Node3 -->
<g id="node3" class="node"><title>Node3</title>
<g id="a_node3"><a xlink:href="structfactory_1_1Server__with__pool.html" target="_top" xlink:title="Standard_server_with\l_pool\&lt; T \&gt;">
<polygon fill="white" stroke="black" points="45.5,-129 45.5,-159 156.5,-159 156.5,-129 45.5,-129"/>
<text text-anchor="start" x="53.5" y="-147" font-family="Helvetica,sans-Serif" font-size="10.00">Standard_server_with</text>
<text text-anchor="middle" x="101" y="-136" font-family="Helvetica,sans-Serif" font-size="10.00">_pool&lt; T &gt;</text>
</a>
</g>
</g>
<!-- Node3&#45;&gt;Node2 -->
<g id="edge2" class="edge"><title>Node3&#45;&gt;Node2</title>
<path fill="none" stroke="midnightblue" d="M101,-118.769C101,-108.814 101,-97.6384 101,-89.0716"/>
<polygon fill="midnightblue" stroke="midnightblue" points="97.5001,-118.91 101,-128.91 104.5,-118.91 97.5001,-118.91"/>
</g>
<!-- Node4 -->
<g id="node4" class="node"><title>Node4</title>
<g id="a_node4"><a xlink:href="structfactory_1_1Server__base.html" target="_top" xlink:title="factory::Server_base">
<polygon fill="white" stroke="black" points="-0.5,-208.5 -0.5,-227.5 106.5,-227.5 106.5,-208.5 -0.5,-208.5"/>
<text text-anchor="middle" x="53" y="-215.5" font-family="Helvetica,sans-Serif" font-size="10.00">factory::Server_base</text>
</a>
</g>
</g>
<!-- Node4&#45;&gt;Node3 -->
<g id="edge3" class="edge"><title>Node4&#45;&gt;Node3</title>
<path fill="none" stroke="midnightblue" d="M64.3744,-199.938C72.6461,-187.531 83.7152,-170.927 91.5123,-159.232"/>
<polygon fill="midnightblue" stroke="midnightblue" points="61.3296,-198.196 58.6947,-208.458 67.154,-202.079 61.3296,-198.196"/>
</g>
<!-- Node5 -->
<g id="node5" class="node"><title>Node5</title>
<polygon fill="white" stroke="#bfbfbf" points="125,-208.5 125,-227.5 175,-227.5 175,-208.5 125,-208.5"/>
<text text-anchor="middle" x="150" y="-215.5" font-family="Helvetica,sans-Serif" font-size="10.00">Kernels</text>
</g>
<!-- Node5&#45;&gt;Node3 -->
<g id="edge4" class="edge"><title>Node5&#45;&gt;Node3</title>
<path fill="none" stroke="#9a32cd" stroke-dasharray="5,2" d="M138.389,-199.938C129.945,-187.531 118.645,-170.927 110.685,-159.232"/>
<polygon fill="#9a32cd" stroke="#9a32cd" points="135.667,-202.16 144.187,-208.458 141.454,-198.222 135.667,-202.16"/>
<text text-anchor="middle" x="152" y="-181.5" font-family="Helvetica,sans-Serif" font-size="10.00"> _kernels</text>
</g>
</g>
</svg>
