<?xml version="1.0" encoding="UTF-8" standalone="no"?>
<!DOCTYPE svg PUBLIC "-//W3C//DTD SVG 1.1//EN"
 "http://www.w3.org/Graphics/SVG/1.1/DTD/svg11.dtd">
<!-- Generated by graphviz version 2.38.0 (20140413.2041)
 -->
<!-- Title: Test_semaphore&lt; Mutex, Semaphore, I &gt; Pages: 1 -->
<svg width="172pt" height="240pt"
 viewBox="0.00 0.00 172.00 240.00" xmlns="http://www.w3.org/2000/svg" xmlns:xlink="http://www.w3.org/1999/xlink">
<g id="graph0" class="graph" transform="scale(1 1) rotate(0) translate(4 236)">
<title>Test_semaphore&lt; Mutex, Semaphore, I &gt;</title>
<polygon fill="white" stroke="none" points="-4,4 -4,-236 168,-236 168,4 -4,4"/>
<!-- Node1 -->
<g id="node1" class="node"><title>Node1</title>
<polygon fill="#bfbfbf" stroke="black" points="18,-0.5 18,-30.5 146,-30.5 146,-0.5 18,-0.5"/>
<text text-anchor="start" x="26" y="-18.5" font-family="Helvetica,sans-Serif" font-size="10.00">Test_semaphore&lt; Mutex,</text>
<text text-anchor="middle" x="82" y="-7.5" font-family="Helvetica,sans-Serif" font-size="10.00"> Semaphore, I &gt;</text>
</g>
<!-- Node2 -->
<g id="node2" class="node"><title>Node2</title>
<g id="a_node2"><a xlink:href="structParametric__test.html" target="_top" xlink:title="Parametric_test\&lt; Test\l_semaphore\&lt; Mutex, Semaphore,\l I \&gt; \&gt;">
<polygon fill="white" stroke="black" points="0,-67.5 0,-108.5 164,-108.5 164,-67.5 0,-67.5"/>
<text text-anchor="start" x="8" y="-96.5" font-family="Helvetica,sans-Serif" font-size="10.00">Parametric_test&lt; Test</text>
<text text-anchor="start" x="8" y="-85.5" font-family="Helvetica,sans-Serif" font-size="10.00">_semaphore&lt; Mutex, Semaphore,</text>
<text text-anchor="middle" x="82" y="-74.5" font-family="Helvetica,sans-Serif" font-size="10.00"> I &gt; &gt;</text>
</a>
</g>
</g>
<!-- Node2&#45;&gt;Node1 -->
<g id="edge1" class="edge"><title>Node2&#45;&gt;Node1</title>
<path fill="none" stroke="midnightblue" d="M82,-57.08C82,-48.0061 82,-38.4498 82,-30.8916"/>
<polygon fill="midnightblue" stroke="midnightblue" points="78.5001,-57.3618 82,-67.3618 85.5001,-57.3619 78.5001,-57.3618"/>
</g>
<!-- Node3 -->
<g id="node3" class="node"><title>Node3</title>
<g id="a_node3"><a xlink:href="structtest_1_1Test.html" target="_top" xlink:title="test::Test\&lt; Test_semaphore\l\&lt; Mutex, Semaphore, I \&gt; \&gt;">
<polygon fill="white" stroke="black" points="12,-145.5 12,-175.5 152,-175.5 152,-145.5 12,-145.5"/>
<text text-anchor="start" x="20" y="-163.5" font-family="Helvetica,sans-Serif" font-size="10.00">test::Test&lt; Test_semaphore</text>
<text text-anchor="middle" x="82" y="-152.5" font-family="Helvetica,sans-Serif" font-size="10.00">&lt; Mutex, Semaphore, I &gt; &gt;</text>
</a>
</g>
</g>
<!-- Node3&#45;&gt;Node2 -->
<g id="edge2" class="edge"><title>Node3&#45;&gt;Node2</title>
<path fill="none" stroke="midnightblue" d="M82,-134.982C82,-126.347 82,-116.762 82,-108.588"/>
<polygon fill="midnightblue" stroke="midnightblue" points="78.5001,-135.233 82,-145.233 85.5001,-135.233 78.5001,-135.233"/>
</g>
<!-- Node4 -->
<g id="node4" class="node"><title>Node4</title>
<g id="a_node4"><a xlink:href="structtest_1_1Basic__test.html" target="_top" xlink:title="test::Basic_test">
<polygon fill="white" stroke="black" points="39,-212.5 39,-231.5 125,-231.5 125,-212.5 39,-212.5"/>
<text text-anchor="middle" x="82" y="-219.5" font-family="Helvetica,sans-Serif" font-size="10.00">test::Basic_test</text>
</a>
</g>
</g>
<!-- Node4&#45;&gt;Node3 -->
<g id="edge3" class="edge"><title>Node4&#45;&gt;Node3</title>
<path fill="none" stroke="midnightblue" d="M82,-202.235C82,-193.586 82,-183.497 82,-175.523"/>
<polygon fill="midnightblue" stroke="midnightblue" points="78.5001,-202.475 82,-212.475 85.5001,-202.475 78.5001,-202.475"/>
</g>
</g>
</svg>
