<?xml version="1.0" encoding="UTF-8" standalone="no"?>
<!DOCTYPE svg PUBLIC "-//W3C//DTD SVG 1.1//EN"
 "http://www.w3.org/Graphics/SVG/1.1/DTD/svg11.dtd">
<!-- Generated by graphviz version 2.36.0 (20140111.2315)
 -->
<!-- Title: factory::Proxy_server&lt; T, Rserver &gt; Pages: 1 -->
<svg width="183pt" height="178pt"
 viewBox="0.00 0.00 183.00 178.00" xmlns="http://www.w3.org/2000/svg" xmlns:xlink="http://www.w3.org/1999/xlink">
<g id="graph0" class="graph" transform="scale(1 1) rotate(0) translate(4 174)">
<title>factory::Proxy_server&lt; T, Rserver &gt;</title>
<polygon fill="white" stroke="none" points="-4,4 -4,-174 179,-174 179,4 -4,4"/>
<!-- Node1 -->
<g id="node1" class="node"><title>Node1</title>
<polygon fill="#bfbfbf" stroke="black" points="46,-1 46,-31 156,-31 156,-1 46,-1"/>
<text text-anchor="start" x="54" y="-19" font-family="Helvetica,sans-Serif" font-size="10.00">factory::Proxy_server</text>
<text text-anchor="middle" x="101" y="-8" font-family="Helvetica,sans-Serif" font-size="10.00">&lt; T, Rserver &gt;</text>
</g>
<!-- Node2 -->
<g id="node2" class="node"><title>Node2</title>
<g id="a_node2"><a xlink:href="structfactory_1_1Server__with__pool.html" target="_top" xlink:title="Proxy_server_base\&lt;\l T, Rserver \&gt;">
<polygon fill="white" stroke="black" points="47.5,-71 47.5,-101 154.5,-101 154.5,-71 47.5,-71"/>
<text text-anchor="start" x="55.5" y="-89" font-family="Helvetica,sans-Serif" font-size="10.00">Proxy_server_base&lt;</text>
<text text-anchor="middle" x="101" y="-78" font-family="Helvetica,sans-Serif" font-size="10.00"> T, Rserver &gt;</text>
</a>
</g>
</g>
<!-- Node2&#45;&gt;Node1 -->
<g id="edge1" class="edge"><title>Node2&#45;&gt;Node1</title>
<path fill="none" stroke="midnightblue" d="M101,-60.7688C101,-50.8141 101,-39.6384 101,-31.0716"/>
<polygon fill="midnightblue" stroke="midnightblue" points="97.5001,-60.9103 101,-70.9104 104.5,-60.9104 97.5001,-60.9103"/>
</g>
<!-- Node3 -->
<g id="node3" class="node"><title>Node3</title>
<g id="a_node3"><a xlink:href="structfactory_1_1Server__base.html" target="_top" xlink:title="factory::Server_base">
<polygon fill="white" stroke="black" points="-0.5,-150.5 -0.5,-169.5 106.5,-169.5 106.5,-150.5 -0.5,-150.5"/>
<text text-anchor="middle" x="53" y="-157.5" font-family="Helvetica,sans-Serif" font-size="10.00">factory::Server_base</text>
</a>
</g>
</g>
<!-- Node3&#45;&gt;Node2 -->
<g id="edge2" class="edge"><title>Node3&#45;&gt;Node2</title>
<path fill="none" stroke="midnightblue" d="M64.3744,-141.938C72.6461,-129.531 83.7152,-112.927 91.5123,-101.232"/>
<polygon fill="midnightblue" stroke="midnightblue" points="61.3296,-140.196 58.6947,-150.458 67.154,-144.079 61.3296,-140.196"/>
</g>
<!-- Node4 -->
<g id="node4" class="node"><title>Node4</title>
<polygon fill="white" stroke="#bfbfbf" points="125,-150.5 125,-169.5 175,-169.5 175,-150.5 125,-150.5"/>
<text text-anchor="middle" x="150" y="-157.5" font-family="Helvetica,sans-Serif" font-size="10.00">Kernels</text>
</g>
<!-- Node4&#45;&gt;Node2 -->
<g id="edge3" class="edge"><title>Node4&#45;&gt;Node2</title>
<path fill="none" stroke="#9a32cd" stroke-dasharray="5,2" d="M138.389,-141.938C129.945,-129.531 118.645,-112.927 110.685,-101.232"/>
<polygon fill="#9a32cd" stroke="#9a32cd" points="135.667,-144.16 144.187,-150.458 141.454,-140.222 135.667,-144.16"/>
<text text-anchor="middle" x="152" y="-123.5" font-family="Helvetica,sans-Serif" font-size="10.00"> _kernels</text>
</g>
</g>
</svg>
