<?xml version="1.0" encoding="UTF-8" standalone="no"?>
<!DOCTYPE svg PUBLIC "-//W3C//DTD SVG 1.1//EN"
 "http://www.w3.org/Graphics/SVG/1.1/DTD/svg11.dtd">
<!-- Generated by graphviz version 2.36.0 (20140111.2315)
 -->
<!-- Title: factory::process_handler&lt; T, Router &gt; Pages: 1 -->
<svg width="136pt" height="164pt"
 viewBox="0.00 0.00 136.00 164.00" xmlns="http://www.w3.org/2000/svg" xmlns:xlink="http://www.w3.org/1999/xlink">
<g id="graph0" class="graph" transform="scale(1 1) rotate(0) translate(4 160)">
<title>factory::process_handler&lt; T, Router &gt;</title>
<polygon fill="white" stroke="none" points="-4,4 -4,-160 132,-160 132,4 -4,4"/>
<!-- Node1 -->
<g id="node1" class="node"><title>Node1</title>
<polygon fill="#bfbfbf" stroke="black" points="2,-1 2,-31 126,-31 126,-1 2,-1"/>
<text text-anchor="start" x="10" y="-19" font-family="Helvetica,sans-Serif" font-size="10.00">factory::process_handler</text>
<text text-anchor="middle" x="64" y="-8" font-family="Helvetica,sans-Serif" font-size="10.00">&lt; T, Router &gt;</text>
</g>
<!-- Node2 -->
<g id="node2" class="node"><title>Node2</title>
<g id="a_node2"><a xlink:href="structfactory_1_1Buffered__pipeline.html" target="_top" xlink:title="factory::Buffered_pipeline\l\&lt; T, Router \&gt;">
<polygon fill="white" stroke="black" points="0,-69 0,-99 128,-99 128,-69 0,-69"/>
<text text-anchor="start" x="8" y="-87" font-family="Helvetica,sans-Serif" font-size="10.00">factory::Buffered_pipeline</text>
<text text-anchor="middle" x="64" y="-76" font-family="Helvetica,sans-Serif" font-size="10.00">&lt; T, Router &gt;</text>
</a>
</g>
</g>
<!-- Node2&#45;&gt;Node1 -->
<g id="edge1" class="edge"><title>Node2&#45;&gt;Node1</title>
<path fill="none" stroke="midnightblue" d="M64,-58.5322C64,-49.3606 64,-39.2449 64,-31.2931"/>
<polygon fill="midnightblue" stroke="midnightblue" points="60.5001,-58.6789 64,-68.679 67.5001,-58.679 60.5001,-58.6789"/>
</g>
<!-- Node3 -->
<g id="node3" class="node"><title>Node3</title>
<g id="a_node3"><a xlink:href="classfactory_1_1pipeline__base.html" target="_top" xlink:title="factory::pipeline_base">
<polygon fill="white" stroke="black" points="8,-136.5 8,-155.5 120,-155.5 120,-136.5 8,-136.5"/>
<text text-anchor="middle" x="64" y="-143.5" font-family="Helvetica,sans-Serif" font-size="10.00">factory::pipeline_base</text>
</a>
</g>
</g>
<!-- Node3&#45;&gt;Node2 -->
<g id="edge2" class="edge"><title>Node3&#45;&gt;Node2</title>
<path fill="none" stroke="midnightblue" d="M64,-126.371C64,-117.585 64,-107.272 64,-99.1408"/>
<polygon fill="midnightblue" stroke="midnightblue" points="60.5001,-126.403 64,-136.403 67.5001,-126.403 60.5001,-126.403"/>
</g>
</g>
</svg>
