<?xml version="1.0" encoding="UTF-8" standalone="no"?>
<!DOCTYPE svg PUBLIC "-//W3C//DTD SVG 1.1//EN"
 "http://www.w3.org/Graphics/SVG/1.1/DTD/svg11.dtd">
<!-- Generated by graphviz version 2.36.0 (20140111.2315)
 -->
<!-- Title: factory::Buffered_server&lt; T, Router, Kernels &gt; Pages: 1 -->
<svg width="215pt" height="108pt"
 viewBox="0.00 0.00 215.00 108.00" xmlns="http://www.w3.org/2000/svg" xmlns:xlink="http://www.w3.org/1999/xlink">
<g id="graph0" class="graph" transform="scale(1 1) rotate(0) translate(4 104)">
<title>factory::Buffered_server&lt; T, Router, Kernels &gt;</title>
<polygon fill="white" stroke="none" points="-4,4 -4,-104 211,-104 211,4 -4,4"/>
<!-- Node1 -->
<g id="node1" class="node"><title>Node1</title>
<polygon fill="#bfbfbf" stroke="black" points="48,-1 48,-31 170,-31 170,-1 48,-1"/>
<text text-anchor="start" x="56" y="-19" font-family="Helvetica,sans-Serif" font-size="10.00">factory::Buffered_server</text>
<text text-anchor="middle" x="109" y="-8" font-family="Helvetica,sans-Serif" font-size="10.00">&lt; T, Router, Kernels &gt;</text>
</g>
<!-- Node2 -->
<g id="node2" class="node"><title>Node2</title>
<g id="a_node2"><a xlink:href="structfactory_1_1Server__base.html" target="_top" xlink:title="factory::Server_base">
<polygon fill="white" stroke="black" points="-0.5,-80.5 -0.5,-99.5 106.5,-99.5 106.5,-80.5 -0.5,-80.5"/>
<text text-anchor="middle" x="53" y="-87.5" font-family="Helvetica,sans-Serif" font-size="10.00">factory::Server_base</text>
</a>
</g>
</g>
<!-- Node2&#45;&gt;Node1 -->
<g id="edge1" class="edge"><title>Node2&#45;&gt;Node1</title>
<path fill="none" stroke="midnightblue" d="M65.9872,-72.3022C75.6669,-59.8569 88.7453,-43.0418 97.931,-31.2316"/>
<polygon fill="midnightblue" stroke="midnightblue" points="63.0205,-70.4156 59.6438,-80.4579 68.546,-74.7132 63.0205,-70.4156"/>
</g>
<!-- Node3 -->
<g id="node3" class="node"><title>Node3</title>
<g id="a_node3"><a xlink:href="structfactory_1_1Router.html" target="_top" xlink:title="factory::Router">
<polygon fill="white" stroke="black" points="125,-80.5 125,-99.5 207,-99.5 207,-80.5 125,-80.5"/>
<text text-anchor="middle" x="166" y="-87.5" font-family="Helvetica,sans-Serif" font-size="10.00">factory::Router</text>
</a>
</g>
</g>
<!-- Node3&#45;&gt;Node1 -->
<g id="edge2" class="edge"><title>Node3&#45;&gt;Node1</title>
<path fill="none" stroke="#9a32cd" stroke-dasharray="5,2" d="M152.781,-72.3022C142.928,-59.8569 129.616,-43.0418 120.267,-31.2316"/>
<polygon fill="#9a32cd" stroke="#9a32cd" points="150.286,-74.7899 159.238,-80.4579 155.775,-70.445 150.286,-74.7899"/>
<text text-anchor="middle" x="162" y="-53.5" font-family="Helvetica,sans-Serif" font-size="10.00"> _router</text>
</g>
</g>
</svg>
