<?xml version="1.0" encoding="UTF-8" standalone="no"?>
<!DOCTYPE svg PUBLIC "-//W3C//DTD SVG 1.1//EN"
 "http://www.w3.org/Graphics/SVG/1.1/DTD/svg11.dtd">
<!-- Generated by graphviz version 2.36.0 (20140111.2315)
 -->
<!-- Title: factory::IO_server&lt; T &gt; Pages: 1 -->
<svg width="126pt" height="220pt"
 viewBox="0.00 0.00 126.00 220.00" xmlns="http://www.w3.org/2000/svg" xmlns:xlink="http://www.w3.org/1999/xlink">
<g id="graph0" class="graph" transform="scale(1 1) rotate(0) translate(4 216)">
<title>factory::IO_server&lt; T &gt;</title>
<polygon fill="white" stroke="none" points="-4,4 -4,-216 122,-216 122,4 -4,4"/>
<!-- Node1 -->
<g id="node1" class="node"><title>Node1</title>
<polygon fill="#bfbfbf" stroke="black" points="-0.5,-0.5 -0.5,-19.5 118.5,-19.5 118.5,-0.5 -0.5,-0.5"/>
<text text-anchor="middle" x="59" y="-7.5" font-family="Helvetica,sans-Serif" font-size="10.00">factory::IO_server&lt; T &gt;</text>
</g>
<!-- Node2 -->
<g id="node2" class="node"><title>Node2</title>
<g id="a_node2"><a xlink:href="structfactory_1_1Basic__CPU__server.html" target="_top" xlink:title="factory::Basic_CPU\l_server\&lt; T \&gt;">
<polygon fill="white" stroke="black" points="7,-57 7,-87 111,-87 111,-57 7,-57"/>
<text text-anchor="start" x="15" y="-75" font-family="Helvetica,sans-Serif" font-size="10.00">factory::Basic_CPU</text>
<text text-anchor="middle" x="59" y="-64" font-family="Helvetica,sans-Serif" font-size="10.00">_server&lt; T &gt;</text>
</a>
</g>
</g>
<!-- Node2&#45;&gt;Node1 -->
<g id="edge1" class="edge"><title>Node2&#45;&gt;Node1</title>
<path fill="none" stroke="midnightblue" d="M59,-46.5858C59,-37.0743 59,-26.7864 59,-19.7305"/>
<polygon fill="midnightblue" stroke="midnightblue" points="55.5001,-46.7808 59,-56.7808 62.5001,-46.7809 55.5001,-46.7808"/>
</g>
<!-- Node3 -->
<g id="node3" class="node"><title>Node3</title>
<g id="a_node3"><a xlink:href="structfactory_1_1Server__with__pool.html" target="_top" xlink:title="Standard_server_with\l_pool\&lt; T \&gt;">
<polygon fill="white" stroke="black" points="3.5,-125 3.5,-155 114.5,-155 114.5,-125 3.5,-125"/>
<text text-anchor="start" x="11.5" y="-143" font-family="Helvetica,sans-Serif" font-size="10.00">Standard_server_with</text>
<text text-anchor="middle" x="59" y="-132" font-family="Helvetica,sans-Serif" font-size="10.00">_pool&lt; T &gt;</text>
</a>
</g>
</g>
<!-- Node3&#45;&gt;Node2 -->
<g id="edge2" class="edge"><title>Node3&#45;&gt;Node2</title>
<path fill="none" stroke="midnightblue" d="M59,-114.532C59,-105.361 59,-95.2449 59,-87.2931"/>
<polygon fill="midnightblue" stroke="midnightblue" points="55.5001,-114.679 59,-124.679 62.5001,-114.679 55.5001,-114.679"/>
</g>
<!-- Node4 -->
<g id="node4" class="node"><title>Node4</title>
<g id="a_node4"><a xlink:href="structfactory_1_1Server__base.html" target="_top" xlink:title="factory::Server_base">
<polygon fill="white" stroke="black" points="5.5,-192.5 5.5,-211.5 112.5,-211.5 112.5,-192.5 5.5,-192.5"/>
<text text-anchor="middle" x="59" y="-199.5" font-family="Helvetica,sans-Serif" font-size="10.00">factory::Server_base</text>
</a>
</g>
</g>
<!-- Node4&#45;&gt;Node3 -->
<g id="edge3" class="edge"><title>Node4&#45;&gt;Node3</title>
<path fill="none" stroke="midnightblue" d="M59,-182.371C59,-173.585 59,-163.272 59,-155.141"/>
<polygon fill="midnightblue" stroke="midnightblue" points="55.5001,-182.403 59,-192.403 62.5001,-182.403 55.5001,-182.403"/>
</g>
</g>
</svg>
