<?xml version="1.0" encoding="UTF-8" standalone="no"?>
<!DOCTYPE svg PUBLIC "-//W3C//DTD SVG 1.1//EN"
 "http://www.w3.org/Graphics/SVG/1.1/DTD/svg11.dtd">
<!-- Generated by graphviz version 2.36.0 (20140111.2315)
 -->
<!-- Title: asc::timer_pipeline&lt; T &gt; Pages: 1 -->
<svg width="391pt" height="166pt"
 viewBox="0.00 0.00 391.00 166.00" xmlns="http://www.w3.org/2000/svg" xmlns:xlink="http://www.w3.org/1999/xlink">
<g id="graph0" class="graph" transform="scale(1 1) rotate(0) translate(4 162)">
<title>asc::timer_pipeline&lt; T &gt;</title>
<polygon fill="white" stroke="none" points="-4,4 -4,-162 387,-162 387,4 -4,4"/>
<!-- Node1 -->
<g id="node1" class="node"><title>Node1</title>
<polygon fill="#bfbfbf" stroke="black" points="154,-0.5 154,-19.5 276,-19.5 276,-0.5 154,-0.5"/>
<text text-anchor="middle" x="215" y="-7.5" font-family="Helvetica,sans-Serif" font-size="10.00">asc::timer_pipeline&lt; T &gt;</text>
</g>
<!-- Node2 -->
<g id="node2" class="node"><title>Node2</title>
<g id="a_node2"><a xlink:href="classasc_1_1basic__pipeline.html" target="_top" xlink:title="bits::Timer_pipeline\l_base\&lt; T \&gt;">
<polygon fill="white" stroke="black" points="164.5,-59 164.5,-89 265.5,-89 265.5,-59 164.5,-59"/>
<text text-anchor="start" x="172.5" y="-77" font-family="Helvetica,sans-Serif" font-size="10.00">bits::Timer_pipeline</text>
<text text-anchor="middle" x="215" y="-66" font-family="Helvetica,sans-Serif" font-size="10.00">_base&lt; T &gt;</text>
</a>
</g>
</g>
<!-- Node2&#45;&gt;Node1 -->
<g id="edge1" class="edge"><title>Node2&#45;&gt;Node1</title>
<path fill="none" stroke="midnightblue" d="M215,-48.8706C215,-38.6625 215,-27.4077 215,-19.8419"/>
<polygon fill="midnightblue" stroke="midnightblue" points="211.5,-48.9312 215,-58.9312 218.5,-48.9313 211.5,-48.9312"/>
</g>
<!-- Node3 -->
<g id="node3" class="node"><title>Node3</title>
<g id="a_node3"><a xlink:href="classasc_1_1pipeline__base.html" target="_top" xlink:title="asc::pipeline_base">
<polygon fill="white" stroke="black" points="0,-138.5 0,-157.5 98,-157.5 98,-138.5 0,-138.5"/>
<text text-anchor="middle" x="49" y="-145.5" font-family="Helvetica,sans-Serif" font-size="10.00">asc::pipeline_base</text>
</a>
</g>
</g>
<!-- Node3&#45;&gt;Node2 -->
<g id="edge2" class="edge"><title>Node3&#45;&gt;Node2</title>
<path fill="none" stroke="midnightblue" d="M77.9438,-134.446C107.132,-121.786 152.103,-102.28 182.499,-89.0968"/>
<polygon fill="midnightblue" stroke="midnightblue" points="76.4757,-131.268 68.6943,-138.458 79.2612,-137.69 76.4757,-131.268"/>
</g>
<!-- Node4 -->
<g id="node4" class="node"><title>Node4</title>
<polygon fill="white" stroke="#bfbfbf" points="116,-138.5 116,-157.5 166,-157.5 166,-138.5 116,-138.5"/>
<text text-anchor="middle" x="141" y="-145.5" font-family="Helvetica,sans-Serif" font-size="10.00">Kernels</text>
</g>
<!-- Node4&#45;&gt;Node2 -->
<g id="edge3" class="edge"><title>Node4&#45;&gt;Node2</title>
<path fill="none" stroke="#9a32cd" stroke-dasharray="5,2" d="M152.465,-130.07C157.707,-122.895 164.249,-114.669 171,-108 177.929,-101.155 186.321,-94.526 193.911,-89.0273"/>
<polygon fill="#9a32cd" stroke="#9a32cd" points="149.496,-128.208 146.602,-138.4 155.22,-132.237 149.496,-128.208"/>
<text text-anchor="middle" x="191" y="-111.5" font-family="Helvetica,sans-Serif" font-size="10.00"> _kernels</text>
</g>
<!-- Node5 -->
<g id="node5" class="node"><title>Node5</title>
<polygon fill="white" stroke="#bfbfbf" points="184,-138.5 184,-157.5 250,-157.5 250,-138.5 184,-138.5"/>
<text text-anchor="middle" x="217" y="-145.5" font-family="Helvetica,sans-Serif" font-size="10.00">Semaphore</text>
</g>
<!-- Node5&#45;&gt;Node2 -->
<g id="edge4" class="edge"><title>Node5&#45;&gt;Node2</title>
<path fill="none" stroke="#9a32cd" stroke-dasharray="5,2" d="M216.274,-128.374C216.175,-125.568 216.08,-122.708 216,-120 215.695,-109.689 215.438,-98.0476 215.262,-89.1885"/>
<polygon fill="#9a32cd" stroke="#9a32cd" points="212.781,-128.627 216.652,-138.489 219.776,-128.365 212.781,-128.627"/>
<text text-anchor="middle" x="244.5" y="-111.5" font-family="Helvetica,sans-Serif" font-size="10.00"> _semaphore</text>
</g>
<!-- Node6 -->
<g id="node6" class="node"><title>Node6</title>
<polygon fill="white" stroke="#bfbfbf" points="269,-138.5 269,-157.5 321,-157.5 321,-138.5 269,-138.5"/>
<text text-anchor="middle" x="295" y="-145.5" font-family="Helvetica,sans-Serif" font-size="10.00">Threads</text>
</g>
<!-- Node6&#45;&gt;Node2 -->
<g id="edge5" class="edge"><title>Node6&#45;&gt;Node2</title>
<path fill="none" stroke="#9a32cd" stroke-dasharray="5,2" d="M287.334,-128.832C283.722,-121.745 278.898,-113.92 273,-108 265.559,-100.532 256.079,-94.2029 246.951,-89.1474"/>
<polygon fill="#9a32cd" stroke="#9a32cd" points="284.372,-130.766 291.743,-138.377 290.727,-127.831 284.372,-130.766"/>
<text text-anchor="middle" x="302.5" y="-111.5" font-family="Helvetica,sans-Serif" font-size="10.00"> _threads</text>
</g>
<!-- Node7 -->
<g id="node7" class="node"><title>Node7</title>
<polygon fill="white" stroke="#bfbfbf" points="339,-138.5 339,-157.5 383,-157.5 383,-138.5 339,-138.5"/>
<text text-anchor="middle" x="361" y="-145.5" font-family="Helvetica,sans-Serif" font-size="10.00">Mutex</text>
</g>
<!-- Node7&#45;&gt;Node2 -->
<g id="edge6" class="edge"><title>Node7&#45;&gt;Node2</title>
<path fill="none" stroke="#9a32cd" stroke-dasharray="5,2" d="M349.553,-129.899C343.634,-122.224 335.805,-113.645 327,-108 308.57,-96.1831 285.757,-88.4634 265.539,-83.4871"/>
<polygon fill="#9a32cd" stroke="#9a32cd" points="346.889,-132.189 355.569,-138.264 352.572,-128.102 346.889,-132.189"/>
<text text-anchor="middle" x="358" y="-111.5" font-family="Helvetica,sans-Serif" font-size="10.00"> _mutex</text>
</g>
</g>
</svg>
