<?xml version="1.0" encoding="UTF-8" standalone="no"?>
<!DOCTYPE svg PUBLIC "-//W3C//DTD SVG 1.1//EN"
 "http://www.w3.org/Graphics/SVG/1.1/DTD/svg11.dtd">
<!-- Generated by graphviz version 2.38.0 (20140413.2041)
 -->
<!-- Title: factory::Server_base Pages: 1 -->
<svg width="667pt" height="285pt"
 viewBox="0.00 0.00 667.00 285.00" xmlns="http://www.w3.org/2000/svg" xmlns:xlink="http://www.w3.org/1999/xlink">
<g id="graph0" class="graph" transform="scale(1 1) rotate(0) translate(4 281)">
<title>factory::Server_base</title>
<polygon fill="white" stroke="none" points="-4,4 -4,-281 663,-281 663,4 -4,4"/>
<!-- Node1 -->
<g id="node1" class="node"><title>Node1</title>
<polygon fill="#bfbfbf" stroke="black" points="0,-178 0,-197 107,-197 107,-178 0,-178"/>
<text text-anchor="middle" x="53.5" y="-185" font-family="Helvetica,sans-Serif" font-size="10.00">factory::Server_base</text>
</g>
<!-- Node2 -->
<g id="node2" class="node"><title>Node2</title>
<g id="a_node2"><a xlink:href="structfactory_1_1Buffered__server.html" target="_top" xlink:title="factory::Buffered_server\l\&lt; T, Router \&gt;">
<polygon fill="white" stroke="black" points="158,-246.5 158,-276.5 280,-276.5 280,-246.5 158,-246.5"/>
<text text-anchor="start" x="166" y="-264.5" font-family="Helvetica,sans-Serif" font-size="10.00">factory::Buffered_server</text>
<text text-anchor="middle" x="219" y="-253.5" font-family="Helvetica,sans-Serif" font-size="10.00">&lt; T, Router &gt;</text>
</a>
</g>
</g>
<!-- Node1&#45;&gt;Node2 -->
<g id="edge1" class="edge"><title>Node1&#45;&gt;Node2</title>
<path fill="none" stroke="midnightblue" d="M78.2635,-202.694C95.7004,-213.399 120.215,-227.543 143,-237.5 150.391,-240.73 158.359,-243.746 166.245,-246.475"/>
<polygon fill="midnightblue" stroke="midnightblue" points="79.699,-199.465 69.3604,-197.149 75.9983,-205.406 79.699,-199.465"/>
</g>
<!-- Node4 -->
<g id="node4" class="node"><title>Node4</title>
<g id="a_node4"><a xlink:href="structfactory_1_1Buffered__server.html" target="_top" xlink:title="factory::Buffered_server\l\&lt; T, Router, Kernels \&gt;">
<polygon fill="white" stroke="black" points="158,-197.5 158,-227.5 280,-227.5 280,-197.5 158,-197.5"/>
<text text-anchor="start" x="166" y="-215.5" font-family="Helvetica,sans-Serif" font-size="10.00">factory::Buffered_server</text>
<text text-anchor="middle" x="219" y="-204.5" font-family="Helvetica,sans-Serif" font-size="10.00">&lt; T, Router, Kernels &gt;</text>
</a>
</g>
</g>
<!-- Node1&#45;&gt;Node4 -->
<g id="edge3" class="edge"><title>Node1&#45;&gt;Node4</title>
<path fill="none" stroke="midnightblue" d="M117.164,-197.082C130.499,-199.121 144.551,-201.269 157.792,-203.294"/>
<polygon fill="midnightblue" stroke="midnightblue" points="117.547,-193.6 107.132,-195.548 116.488,-200.519 117.547,-193.6"/>
</g>
<!-- Node5 -->
<g id="node5" class="node"><title>Node5</title>
<g id="a_node5"><a xlink:href="structfactory_1_1Remote__Rserver.html" target="_top" xlink:title="factory::Remote_Rserver\l\&lt; T, Socket, Router, Kernels \&gt;">
<polygon fill="white" stroke="black" points="143,-148.5 143,-178.5 295,-178.5 295,-148.5 143,-148.5"/>
<text text-anchor="start" x="151" y="-166.5" font-family="Helvetica,sans-Serif" font-size="10.00">factory::Remote_Rserver</text>
<text text-anchor="middle" x="219" y="-155.5" font-family="Helvetica,sans-Serif" font-size="10.00">&lt; T, Socket, Router, Kernels &gt;</text>
</a>
</g>
</g>
<!-- Node1&#45;&gt;Node5 -->
<g id="edge4" class="edge"><title>Node1&#45;&gt;Node5</title>
<path fill="none" stroke="midnightblue" d="M117.201,-178.296C125.591,-177.065 134.265,-175.791 142.841,-174.532"/>
<polygon fill="midnightblue" stroke="midnightblue" points="116.518,-174.859 107.132,-179.774 117.535,-181.785 116.518,-174.859"/>
</g>
<!-- Node6 -->
<g id="node6" class="node"><title>Node6</title>
<g id="a_node6"><a xlink:href="structfactory_1_1Server__with__pool.html" target="_top" xlink:title="factory::Server_with\l_pool\&lt; T, Kernels, Threads,\l Mutex, Lock, Semaphore \&gt;">
<polygon fill="white" stroke="black" points="150,-88 150,-129 288,-129 288,-88 150,-88"/>
<text text-anchor="start" x="158" y="-117" font-family="Helvetica,sans-Serif" font-size="10.00">factory::Server_with</text>
<text text-anchor="start" x="158" y="-106" font-family="Helvetica,sans-Serif" font-size="10.00">_pool&lt; T, Kernels, Threads,</text>
<text text-anchor="middle" x="219" y="-95" font-family="Helvetica,sans-Serif" font-size="10.00"> Mutex, Lock, Semaphore &gt;</text>
</a>
</g>
</g>
<!-- Node1&#45;&gt;Node6 -->
<g id="edge5" class="edge"><title>Node1&#45;&gt;Node6</title>
<path fill="none" stroke="midnightblue" d="M79.4765,-172.571C96.9673,-162.391 121.045,-148.919 143,-138.5 149.715,-135.313 156.864,-132.16 163.98,-129.164"/>
<polygon fill="midnightblue" stroke="midnightblue" points="77.3425,-169.765 70.4924,-177.848 80.8877,-175.801 77.3425,-169.765"/>
</g>
<!-- Node3 -->
<g id="node3" class="node"><title>Node3</title>
<g id="a_node3"><a xlink:href="structfactory_1_1Process__rserver.html" target="_top" xlink:title="factory::Process_rserver\l\&lt; T, Router \&gt;">
<polygon fill="white" stroke="black" points="349.5,-246.5 349.5,-276.5 473.5,-276.5 473.5,-246.5 349.5,-246.5"/>
<text text-anchor="start" x="357.5" y="-264.5" font-family="Helvetica,sans-Serif" font-size="10.00">factory::Process_rserver</text>
<text text-anchor="middle" x="411.5" y="-253.5" font-family="Helvetica,sans-Serif" font-size="10.00">&lt; T, Router &gt;</text>
</a>
</g>
</g>
<!-- Node2&#45;&gt;Node3 -->
<g id="edge2" class="edge"><title>Node2&#45;&gt;Node3</title>
<path fill="none" stroke="midnightblue" d="M290.049,-261.5C309.54,-261.5 330.549,-261.5 349.477,-261.5"/>
<polygon fill="midnightblue" stroke="midnightblue" points="290.014,-258 280.014,-261.5 290.014,-265 290.014,-258"/>
</g>
<!-- Node7 -->
<g id="node7" class="node"><title>Node7</title>
<g id="a_node7"><a xlink:href="structfactory_1_1Basic__CPU__server.html" target="_top" xlink:title="factory::Basic_CPU\l_server\&lt; T \&gt;">
<polygon fill="white" stroke="black" points="359.5,-186.5 359.5,-216.5 463.5,-216.5 463.5,-186.5 359.5,-186.5"/>
<text text-anchor="start" x="367.5" y="-204.5" font-family="Helvetica,sans-Serif" font-size="10.00">factory::Basic_CPU</text>
<text text-anchor="middle" x="411.5" y="-193.5" font-family="Helvetica,sans-Serif" font-size="10.00">_server&lt; T &gt;</text>
</a>
</g>
</g>
<!-- Node6&#45;&gt;Node7 -->
<g id="edge6" class="edge"><title>Node6&#45;&gt;Node7</title>
<path fill="none" stroke="midnightblue" d="M287.549,-133.827C290.113,-135.318 292.607,-136.875 295,-138.5 314.247,-151.568 311.271,-164.171 331,-176.5 339.589,-181.867 349.425,-186.169 359.183,-189.586"/>
<polygon fill="midnightblue" stroke="midnightblue" points="289.076,-130.674 278.612,-129.015 285.758,-136.837 289.076,-130.674"/>
</g>
<!-- Node10 -->
<g id="node10" class="node"><title>Node10</title>
<g id="a_node10"><a xlink:href="structfactory_1_1Proxy__server.html" target="_top" xlink:title="factory::Proxy_server\l\&lt; T, Rserver \&gt;">
<polygon fill="white" stroke="black" points="356.5,-137.5 356.5,-167.5 466.5,-167.5 466.5,-137.5 356.5,-137.5"/>
<text text-anchor="start" x="364.5" y="-155.5" font-family="Helvetica,sans-Serif" font-size="10.00">factory::Proxy_server</text>
<text text-anchor="middle" x="411.5" y="-144.5" font-family="Helvetica,sans-Serif" font-size="10.00">&lt; T, Rserver &gt;</text>
</a>
</g>
</g>
<!-- Node6&#45;&gt;Node10 -->
<g id="edge9" class="edge"><title>Node6&#45;&gt;Node10</title>
<path fill="none" stroke="midnightblue" d="M298.078,-126.534C317.696,-131.065 338.32,-135.828 356.47,-140.021"/>
<polygon fill="midnightblue" stroke="midnightblue" points="298.768,-123.101 288.237,-124.261 297.193,-129.921 298.768,-123.101"/>
</g>
<!-- Node11 -->
<g id="node11" class="node"><title>Node11</title>
<g id="a_node11"><a xlink:href="structfactory_1_1Timer__server.html" target="_top" xlink:title="factory::Timer_server\&lt; T \&gt;">
<polygon fill="white" stroke="black" points="344.5,-99 344.5,-118 478.5,-118 478.5,-99 344.5,-99"/>
<text text-anchor="middle" x="411.5" y="-106" font-family="Helvetica,sans-Serif" font-size="10.00">factory::Timer_server&lt; T &gt;</text>
</a>
</g>
</g>
<!-- Node6&#45;&gt;Node11 -->
<g id="edge10" class="edge"><title>Node6&#45;&gt;Node11</title>
<path fill="none" stroke="midnightblue" d="M298.638,-108.5C313.826,-108.5 329.594,-108.5 344.335,-108.5"/>
<polygon fill="midnightblue" stroke="midnightblue" points="298.237,-105 288.237,-108.5 298.237,-112 298.237,-105"/>
</g>
<!-- Node12 -->
<g id="node12" class="node"><title>Node12</title>
<g id="a_node12"><a xlink:href="structfactory_1_1Proxy__server.html" target="_top" xlink:title="Proxy_server\&lt; T, Process\l_rserver\&lt; T, Router \&gt; \&gt;">
<polygon fill="white" stroke="black" points="346,-49.5 346,-79.5 477,-79.5 477,-49.5 346,-49.5"/>
<text text-anchor="start" x="354" y="-67.5" font-family="Helvetica,sans-Serif" font-size="10.00">Proxy_server&lt; T, Process</text>
<text text-anchor="middle" x="411.5" y="-56.5" font-family="Helvetica,sans-Serif" font-size="10.00">_rserver&lt; T, Router &gt; &gt;</text>
</a>
</g>
</g>
<!-- Node6&#45;&gt;Node12 -->
<g id="edge11" class="edge"><title>Node6&#45;&gt;Node12</title>
<path fill="none" stroke="midnightblue" d="M298.044,-90.474C313.96,-86.7979 330.539,-82.9688 345.922,-79.4156"/>
<polygon fill="midnightblue" stroke="midnightblue" points="297.193,-87.0785 288.237,-92.7393 298.768,-93.8989 297.193,-87.0785"/>
</g>
<!-- Node15 -->
<g id="node15" class="node"><title>Node15</title>
<g id="a_node15"><a xlink:href="structfactory_1_1Proxy__server.html" target="_top" xlink:title="Proxy_server\&lt; T, Remote\l_Rserver\&lt; T, Socket, Router \&gt; \&gt;">
<polygon fill="white" stroke="black" points="331,-0.5 331,-30.5 492,-30.5 492,-0.5 331,-0.5"/>
<text text-anchor="start" x="339" y="-18.5" font-family="Helvetica,sans-Serif" font-size="10.00">Proxy_server&lt; T, Remote</text>
<text text-anchor="middle" x="411.5" y="-7.5" font-family="Helvetica,sans-Serif" font-size="10.00">_Rserver&lt; T, Socket, Router &gt; &gt;</text>
</a>
</g>
</g>
<!-- Node6&#45;&gt;Node15 -->
<g id="edge14" class="edge"><title>Node6&#45;&gt;Node15</title>
<path fill="none" stroke="midnightblue" d="M256.806,-82.1982C277.79,-68.0943 305.015,-51.2503 331,-39.5 338.225,-36.2328 346.015,-33.2617 353.794,-30.6103"/>
<polygon fill="midnightblue" stroke="midnightblue" points="254.801,-79.3286 248.507,-87.8513 258.742,-85.1138 254.801,-79.3286"/>
</g>
<!-- Node8 -->
<g id="node8" class="node"><title>Node8</title>
<g id="a_node8"><a xlink:href="structfactory_1_1CPU__server.html" target="_top" xlink:title="factory::CPU_server\&lt; T \&gt;">
<polygon fill="white" stroke="black" points="528,-211 528,-230 659,-230 659,-211 528,-211"/>
<text text-anchor="middle" x="593.5" y="-218" font-family="Helvetica,sans-Serif" font-size="10.00">factory::CPU_server&lt; T &gt;</text>
</a>
</g>
</g>
<!-- Node7&#45;&gt;Node8 -->
<g id="edge7" class="edge"><title>Node7&#45;&gt;Node8</title>
<path fill="none" stroke="midnightblue" d="M473.654,-207.955C491.086,-209.795 510.133,-211.806 527.77,-213.667"/>
<polygon fill="midnightblue" stroke="midnightblue" points="473.911,-204.463 463.599,-206.894 473.177,-211.424 473.911,-204.463"/>
</g>
<!-- Node9 -->
<g id="node9" class="node"><title>Node9</title>
<g id="a_node9"><a xlink:href="structfactory_1_1IO__server.html" target="_top" xlink:title="factory::IO_server\&lt; T \&gt;">
<polygon fill="white" stroke="black" points="534,-173 534,-192 653,-192 653,-173 534,-173"/>
<text text-anchor="middle" x="593.5" y="-180" font-family="Helvetica,sans-Serif" font-size="10.00">factory::IO_server&lt; T &gt;</text>
</a>
</g>
</g>
<!-- Node7&#45;&gt;Node9 -->
<g id="edge8" class="edge"><title>Node7&#45;&gt;Node9</title>
<path fill="none" stroke="midnightblue" d="M473.595,-195.051C493.106,-192.992 514.645,-190.718 533.97,-188.678"/>
<polygon fill="midnightblue" stroke="midnightblue" points="473.177,-191.576 463.599,-196.106 473.911,-198.537 473.177,-191.576"/>
</g>
<!-- Node13 -->
<g id="node13" class="node"><title>Node13</title>
<g id="a_node13"><a xlink:href="structfactory_1_1Process__child__server.html" target="_top" xlink:title="factory::Process_child\l_server\&lt; T, Router \&gt;">
<polygon fill="white" stroke="black" points="536.5,-98.5 536.5,-128.5 650.5,-128.5 650.5,-98.5 536.5,-98.5"/>
<text text-anchor="start" x="544.5" y="-116.5" font-family="Helvetica,sans-Serif" font-size="10.00">factory::Process_child</text>
<text text-anchor="middle" x="593.5" y="-105.5" font-family="Helvetica,sans-Serif" font-size="10.00">_server&lt; T, Router &gt;</text>
</a>
</g>
</g>
<!-- Node12&#45;&gt;Node13 -->
<g id="edge12" class="edge"><title>Node12&#45;&gt;Node13</title>
<path fill="none" stroke="midnightblue" d="M477.698,-82.2485C497.207,-87.5591 518.402,-93.3288 537.208,-98.4484"/>
<polygon fill="midnightblue" stroke="midnightblue" points="478.543,-78.851 467.975,-79.6014 476.704,-85.6053 478.543,-78.851"/>
</g>
<!-- Node14 -->
<g id="node14" class="node"><title>Node14</title>
<g id="a_node14"><a xlink:href="structfactory_1_1Process__iserver.html" target="_top" xlink:title="factory::Process_iserver\l\&lt; T, Router \&gt;">
<polygon fill="white" stroke="black" points="532,-49.5 532,-79.5 655,-79.5 655,-49.5 532,-49.5"/>
<text text-anchor="start" x="540" y="-67.5" font-family="Helvetica,sans-Serif" font-size="10.00">factory::Process_iserver</text>
<text text-anchor="middle" x="593.5" y="-56.5" font-family="Helvetica,sans-Serif" font-size="10.00">&lt; T, Router &gt;</text>
</a>
</g>
</g>
<!-- Node12&#45;&gt;Node14 -->
<g id="edge13" class="edge"><title>Node12&#45;&gt;Node14</title>
<path fill="none" stroke="midnightblue" d="M487.396,-64.5C502.241,-64.5 517.65,-64.5 531.945,-64.5"/>
<polygon fill="midnightblue" stroke="midnightblue" points="487.23,-61.0001 477.23,-64.5 487.23,-68.0001 487.23,-61.0001"/>
</g>
<!-- Node16 -->
<g id="node16" class="node"><title>Node16</title>
<g id="a_node16"><a xlink:href="structfactory_1_1NIC__server.html" target="_top" xlink:title="factory::NIC_server\l\&lt; T, Socket, Router \&gt;">
<polygon fill="white" stroke="black" points="537,-0.5 537,-30.5 650,-30.5 650,-0.5 537,-0.5"/>
<text text-anchor="start" x="545" y="-18.5" font-family="Helvetica,sans-Serif" font-size="10.00">factory::NIC_server</text>
<text text-anchor="middle" x="593.5" y="-7.5" font-family="Helvetica,sans-Serif" font-size="10.00">&lt; T, Socket, Router &gt;</text>
</a>
</g>
</g>
<!-- Node15&#45;&gt;Node16 -->
<g id="edge15" class="edge"><title>Node15&#45;&gt;Node16</title>
<path fill="none" stroke="midnightblue" d="M502.503,-15.5C514.208,-15.5 525.913,-15.5 536.826,-15.5"/>
<polygon fill="midnightblue" stroke="midnightblue" points="502.237,-12.0001 492.237,-15.5 502.237,-19.0001 502.237,-12.0001"/>
</g>
</g>
</svg>
