<?xml version="1.0" encoding="UTF-8" standalone="no"?>
<!DOCTYPE svg PUBLIC "-//W3C//DTD SVG 1.1//EN"
 "http://www.w3.org/Graphics/SVG/1.1/DTD/svg11.dtd">
<!-- Generated by graphviz version 2.36.0 (20140111.2315)
 -->
<!-- Title: Test_missing_values Pages: 1 -->
<svg width="134pt" height="152pt"
 viewBox="0.00 0.00 134.00 152.00" xmlns="http://www.w3.org/2000/svg" xmlns:xlink="http://www.w3.org/1999/xlink">
<g id="graph0" class="graph" transform="scale(1 1) rotate(0) translate(4 148)">
<title>Test_missing_values</title>
<polygon fill="white" stroke="none" points="-4,4 -4,-148 130,-148 130,4 -4,4"/>
<!-- Node1 -->
<g id="node1" class="node"><title>Node1</title>
<polygon fill="#bfbfbf" stroke="black" points="8.5,-0.5 8.5,-19.5 117.5,-19.5 117.5,-0.5 8.5,-0.5"/>
<text text-anchor="middle" x="63" y="-7.5" font-family="Helvetica,sans-Serif" font-size="10.00">Test_missing_values</text>
</g>
<!-- Node2 -->
<g id="node2" class="node"><title>Node2</title>
<g id="a_node2"><a xlink:href="structtest_1_1Test.html" target="_top" xlink:title="test::Test\&lt; Test_missing\l_values \&gt;">
<polygon fill="white" stroke="black" points="0,-57 0,-87 126,-87 126,-57 0,-57"/>
<text text-anchor="start" x="8" y="-75" font-family="Helvetica,sans-Serif" font-size="10.00">test::Test&lt; Test_missing</text>
<text text-anchor="middle" x="63" y="-64" font-family="Helvetica,sans-Serif" font-size="10.00">_values &gt;</text>
</a>
</g>
</g>
<!-- Node2&#45;&gt;Node1 -->
<g id="edge1" class="edge"><title>Node2&#45;&gt;Node1</title>
<path fill="none" stroke="midnightblue" d="M63,-46.5858C63,-37.0743 63,-26.7864 63,-19.7305"/>
<polygon fill="midnightblue" stroke="midnightblue" points="59.5001,-46.7808 63,-56.7808 66.5001,-46.7809 59.5001,-46.7808"/>
</g>
<!-- Node3 -->
<g id="node3" class="node"><title>Node3</title>
<g id="a_node3"><a xlink:href="structtest_1_1Basic__test.html" target="_top" xlink:title="test::Basic_test">
<polygon fill="white" stroke="black" points="20,-124.5 20,-143.5 106,-143.5 106,-124.5 20,-124.5"/>
<text text-anchor="middle" x="63" y="-131.5" font-family="Helvetica,sans-Serif" font-size="10.00">test::Basic_test</text>
</a>
</g>
</g>
<!-- Node3&#45;&gt;Node2 -->
<g id="edge2" class="edge"><title>Node3&#45;&gt;Node2</title>
<path fill="none" stroke="midnightblue" d="M63,-114.371C63,-105.585 63,-95.2721 63,-87.1408"/>
<polygon fill="midnightblue" stroke="midnightblue" points="59.5001,-114.403 63,-124.403 66.5001,-114.403 59.5001,-114.403"/>
</g>
</g>
</svg>
