<?xml version="1.0" encoding="UTF-8" standalone="no"?>
<!DOCTYPE svg PUBLIC "-//W3C//DTD SVG 1.1//EN"
 "http://www.w3.org/Graphics/SVG/1.1/DTD/svg11.dtd">
<!-- Generated by graphviz version 2.36.0 (20140111.2315)
 -->
<!-- Title: Main&lt; Address &gt; Pages: 1 -->
<svg width="312pt" height="204pt"
 viewBox="0.00 0.00 312.00 204.00" xmlns="http://www.w3.org/2000/svg" xmlns:xlink="http://www.w3.org/1999/xlink">
<g id="graph0" class="graph" transform="scale(1 1) rotate(0) translate(4 200)">
<title>Main&lt; Address &gt;</title>
<polygon fill="white" stroke="none" points="-4,4 -4,-200 308,-200 308,4 -4,4"/>
<!-- Node1 -->
<g id="node1" class="node"><title>Node1</title>
<polygon fill="#bfbfbf" stroke="black" points="212,-0.5 212,-19.5 304,-19.5 304,-0.5 212,-0.5"/>
<text text-anchor="middle" x="258" y="-7.5" font-family="Helvetica,sans-Serif" font-size="10.00">Main&lt; Address &gt;</text>
</g>
<!-- Node2 -->
<g id="node2" class="node"><title>Node2</title>
<g id="a_node2"><a xlink:href="structfactory_1_1Kernel.html" target="_top" xlink:title="factory::Kernel">
<polygon fill="white" stroke="black" points="75,-59.5 75,-78.5 155,-78.5 155,-59.5 75,-59.5"/>
<text text-anchor="middle" x="115" y="-66.5" font-family="Helvetica,sans-Serif" font-size="10.00">factory::Kernel</text>
</a>
</g>
</g>
<!-- Node2&#45;&gt;Node1 -->
<g id="edge1" class="edge"><title>Node2&#45;&gt;Node1</title>
<path fill="none" stroke="midnightblue" d="M140.899,-55.3997C166.595,-44.5228 205.521,-29.1025 231.45,-19.5918"/>
<polygon fill="midnightblue" stroke="midnightblue" points="139.234,-52.3052 131.426,-59.4665 141.996,-58.7375 139.234,-52.3052"/>
</g>
<!-- Node2&#45;&gt;Node1 -->
<g id="edge6" class="edge"><title>Node2&#45;&gt;Node1</title>
<path fill="none" stroke="midnightblue" d="M150.8,-55.9729C179.836,-45.0705 219.264,-29.2708 241.44,-19.5918"/>
<polygon fill="midnightblue" stroke="midnightblue" points="149.547,-52.7044 141.391,-59.4665 151.984,-59.2666 149.547,-52.7044"/>
</g>
<!-- Node2&#45;&gt;Node2 -->
<g id="edge5" class="edge"><title>Node2&#45;&gt;Node2</title>
<path fill="none" stroke="#9a32cd" stroke-dasharray="5,2" d="M165.265,-73.5193C170.005,-72.5938 173,-71.0874 173,-69 173,-65.6602 165.332,-63.8076 155.119,-63.4423"/>
<polygon fill="#9a32cd" stroke="#9a32cd" points="164.71,-70.0577 155.119,-74.5577 165.423,-77.0213 164.71,-70.0577"/>
<text text-anchor="middle" x="195.5" y="-72" font-family="Helvetica,sans-Serif" font-size="10.00"> _principal</text>
<text text-anchor="middle" x="195.5" y="-61" font-family="Helvetica,sans-Serif" font-size="10.00">_parent</text>
</g>
<!-- Node3 -->
<g id="node3" class="node"><title>Node3</title>
<g id="a_node3"><a xlink:href="classfactory_1_1mobile__kernel.html" target="_top" xlink:title="factory::mobile_kernel">
<polygon fill="white" stroke="black" points="58.5,-118.5 58.5,-137.5 171.5,-137.5 171.5,-118.5 58.5,-118.5"/>
<text text-anchor="middle" x="115" y="-125.5" font-family="Helvetica,sans-Serif" font-size="10.00">factory::mobile_kernel</text>
</a>
</g>
</g>
<!-- Node3&#45;&gt;Node2 -->
<g id="edge2" class="edge"><title>Node3&#45;&gt;Node2</title>
<path fill="none" stroke="midnightblue" d="M115,-107.933C115,-98.0243 115,-86.4007 115,-78.6571"/>
<polygon fill="midnightblue" stroke="midnightblue" points="111.5,-108.094 115,-118.094 118.5,-108.094 111.5,-108.094"/>
</g>
<!-- Node4 -->
<g id="node4" class="node"><title>Node4</title>
<g id="a_node4"><a xlink:href="classfactory_1_1kernel__base.html" target="_top" xlink:title="factory::kernel_base">
<polygon fill="white" stroke="black" points="-0.5,-176.5 -0.5,-195.5 104.5,-195.5 104.5,-176.5 -0.5,-176.5"/>
<text text-anchor="middle" x="52" y="-183.5" font-family="Helvetica,sans-Serif" font-size="10.00">factory::kernel_base</text>
</a>
</g>
</g>
<!-- Node4&#45;&gt;Node3 -->
<g id="edge3" class="edge"><title>Node4&#45;&gt;Node3</title>
<path fill="none" stroke="midnightblue" d="M69.3239,-169.601C80.9298,-159.285 95.7798,-146.085 105.342,-137.585"/>
<polygon fill="midnightblue" stroke="midnightblue" points="66.7172,-167.235 61.5683,-176.495 71.3677,-172.467 66.7172,-167.235"/>
</g>
<!-- Node5 -->
<g id="node5" class="node"><title>Node5</title>
<g id="a_node5"><a xlink:href="classfactory_1_1kernel__header.html" target="_top" xlink:title="factory::kernel_header">
<polygon fill="white" stroke="black" points="122.5,-176.5 122.5,-195.5 235.5,-195.5 235.5,-176.5 122.5,-176.5"/>
<text text-anchor="middle" x="179" y="-183.5" font-family="Helvetica,sans-Serif" font-size="10.00">factory::kernel_header</text>
</a>
</g>
</g>
<!-- Node5&#45;&gt;Node3 -->
<g id="edge4" class="edge"><title>Node5&#45;&gt;Node3</title>
<path fill="none" stroke="midnightblue" d="M161.744,-169.901C149.904,-159.541 134.62,-146.167 124.812,-137.585"/>
<polygon fill="midnightblue" stroke="midnightblue" points="159.449,-172.544 169.28,-176.495 164.059,-167.276 159.449,-172.544"/>
</g>
<!-- Node6 -->
<g id="node6" class="node"><title>Node6</title>
<polygon fill="white" stroke="#bfbfbf" points="236,-59.5 236,-78.5 280,-78.5 280,-59.5 236,-59.5"/>
<text text-anchor="middle" x="258" y="-66.5" font-family="Helvetica,sans-Serif" font-size="10.00">Kernel</text>
</g>
<!-- Node6&#45;&gt;Node1 -->
<g id="edge7" class="edge"><title>Node6&#45;&gt;Node1</title>
<path fill="none" stroke="midnightblue" d="M245.229,-49.2522C243.681,-39.2747 244.599,-27.484 247.981,-19.6571"/>
<polygon fill="midnightblue" stroke="midnightblue" points="241.898,-50.3457 247.875,-59.0938 248.658,-48.5279 241.898,-50.3457"/>
</g>
<!-- Node6&#45;&gt;Node1 -->
<g id="edge8" class="edge"><title>Node6&#45;&gt;Node1</title>
<path fill="none" stroke="midnightblue" d="M258,-48.9331C258,-39.0243 258,-27.4007 258,-19.6571"/>
<polygon fill="midnightblue" stroke="midnightblue" points="254.5,-49.0937 258,-59.0938 261.5,-49.0938 254.5,-49.0937"/>
</g>
<!-- Node6&#45;&gt;Node1 -->
<g id="edge9" class="edge"><title>Node6&#45;&gt;Node1</title>
<path fill="none" stroke="midnightblue" d="M270.771,-49.2522C272.319,-39.2747 271.401,-27.484 268.019,-19.6571"/>
<polygon fill="midnightblue" stroke="midnightblue" points="267.342,-48.5279 268.125,-59.0938 274.102,-50.3457 267.342,-48.5279"/>
</g>
</g>
</svg>
