<?xml version="1.0" encoding="UTF-8" standalone="no"?>
<!DOCTYPE svg PUBLIC "-//W3C//DTD SVG 1.1//EN"
 "http://www.w3.org/Graphics/SVG/1.1/DTD/svg11.dtd">
<!-- Generated by graphviz version 2.36.0 (20140111.2315)
 -->
<!-- Title: factory::Server_with_pool&lt; T, Kernels, Threads, Mutex, Lock, Semaphore &gt; Pages: 1 -->
<svg width="656pt" height="238pt"
 viewBox="0.00 0.00 656.00 238.00" xmlns="http://www.w3.org/2000/svg" xmlns:xlink="http://www.w3.org/1999/xlink">
<g id="graph0" class="graph" transform="scale(1 1) rotate(0) translate(4 234)">
<title>factory::Server_with_pool&lt; T, Kernels, Threads, Mutex, Lock, Semaphore &gt;</title>
<polygon fill="white" stroke="none" points="-4,4 -4,-234 652,-234 652,4 -4,4"/>
<!-- Node1 -->
<g id="node1" class="node"><title>Node1</title>
<polygon fill="#bfbfbf" stroke="black" points="144,-87.5 144,-128.5 282,-128.5 282,-87.5 144,-87.5"/>
<text text-anchor="start" x="152" y="-116.5" font-family="Helvetica,sans-Serif" font-size="10.00">factory::Server_with</text>
<text text-anchor="start" x="152" y="-105.5" font-family="Helvetica,sans-Serif" font-size="10.00">_pool&lt; T, Kernels, Threads,</text>
<text text-anchor="middle" x="213" y="-94.5" font-family="Helvetica,sans-Serif" font-size="10.00"> Mutex, Lock, Semaphore &gt;</text>
</g>
<!-- Node3 -->
<g id="node3" class="node"><title>Node3</title>
<g id="a_node3"><a xlink:href="structfactory_1_1Basic__CPU__server.html" target="_top" xlink:title="factory::Basic_CPU\l_server\&lt; T \&gt;">
<polygon fill="white" stroke="black" points="347,-186 347,-216 451,-216 451,-186 347,-186"/>
<text text-anchor="start" x="355" y="-204" font-family="Helvetica,sans-Serif" font-size="10.00">factory::Basic_CPU</text>
<text text-anchor="middle" x="399" y="-193" font-family="Helvetica,sans-Serif" font-size="10.00">_server&lt; T &gt;</text>
</a>
</g>
</g>
<!-- Node1&#45;&gt;Node3 -->
<g id="edge2" class="edge"><title>Node1&#45;&gt;Node3</title>
<path fill="none" stroke="midnightblue" d="M249.286,-134.588C268.776,-148.352 293.869,-164.61 318,-176 327.08,-180.285 337.077,-184.077 346.837,-187.33"/>
<polygon fill="midnightblue" stroke="midnightblue" points="251.189,-131.646 241.022,-128.666 247.111,-137.336 251.189,-131.646"/>
</g>
<!-- Node6 -->
<g id="node6" class="node"><title>Node6</title>
<g id="a_node6"><a xlink:href="structfactory_1_1Proxy__server.html" target="_top" xlink:title="factory::Proxy_server\l\&lt; T, Rserver \&gt;">
<polygon fill="white" stroke="black" points="344,-137 344,-167 454,-167 454,-137 344,-137"/>
<text text-anchor="start" x="352" y="-155" font-family="Helvetica,sans-Serif" font-size="10.00">factory::Proxy_server</text>
<text text-anchor="middle" x="399" y="-144" font-family="Helvetica,sans-Serif" font-size="10.00">&lt; T, Rserver &gt;</text>
</a>
</g>
</g>
<!-- Node1&#45;&gt;Node6 -->
<g id="edge5" class="edge"><title>Node1&#45;&gt;Node6</title>
<path fill="none" stroke="midnightblue" d="M292.386,-126.744C309.758,-130.899 327.791,-135.211 343.936,-139.072"/>
<polygon fill="midnightblue" stroke="midnightblue" points="292.793,-123.243 282.253,-124.321 291.165,-130.051 292.793,-123.243"/>
</g>
<!-- Node7 -->
<g id="node7" class="node"><title>Node7</title>
<g id="a_node7"><a xlink:href="structfactory_1_1Timer__server.html" target="_top" xlink:title="factory::Timer_server\&lt; T \&gt;">
<polygon fill="white" stroke="black" points="332,-98.5 332,-117.5 466,-117.5 466,-98.5 332,-98.5"/>
<text text-anchor="middle" x="399" y="-105.5" font-family="Helvetica,sans-Serif" font-size="10.00">factory::Timer_server&lt; T &gt;</text>
</a>
</g>
</g>
<!-- Node1&#45;&gt;Node7 -->
<g id="edge6" class="edge"><title>Node1&#45;&gt;Node7</title>
<path fill="none" stroke="midnightblue" d="M292.276,-108C305.505,-108 319.121,-108 331.998,-108"/>
<polygon fill="midnightblue" stroke="midnightblue" points="292.253,-104.5 282.253,-108 292.253,-111.5 292.253,-104.5"/>
</g>
<!-- Node8 -->
<g id="node8" class="node"><title>Node8</title>
<g id="a_node8"><a xlink:href="structfactory_1_1Proxy__server.html" target="_top" xlink:title="Proxy_server\&lt; T, Process\l_rserver\&lt; T, Router \&gt; \&gt;">
<polygon fill="white" stroke="black" points="333.5,-49 333.5,-79 464.5,-79 464.5,-49 333.5,-49"/>
<text text-anchor="start" x="341.5" y="-67" font-family="Helvetica,sans-Serif" font-size="10.00">Proxy_server&lt; T, Process</text>
<text text-anchor="middle" x="399" y="-56" font-family="Helvetica,sans-Serif" font-size="10.00">_rserver&lt; T, Router &gt; &gt;</text>
</a>
</g>
</g>
<!-- Node1&#45;&gt;Node8 -->
<g id="edge7" class="edge"><title>Node1&#45;&gt;Node8</title>
<path fill="none" stroke="midnightblue" d="M292.085,-89.3276C306.418,-85.9001 321.212,-82.3624 335.032,-79.0576"/>
<polygon fill="midnightblue" stroke="midnightblue" points="291.165,-85.9487 282.253,-91.6786 292.793,-92.7568 291.165,-85.9487"/>
</g>
<!-- Node11 -->
<g id="node11" class="node"><title>Node11</title>
<g id="a_node11"><a xlink:href="structfactory_1_1Proxy__server.html" target="_top" xlink:title="Proxy_server\&lt; T, Remote\l_Rserver\&lt; T, Socket, Router \&gt; \&gt;">
<polygon fill="white" stroke="black" points="318.5,-0 318.5,-30 479.5,-30 479.5,-0 318.5,-0"/>
<text text-anchor="start" x="326.5" y="-18" font-family="Helvetica,sans-Serif" font-size="10.00">Proxy_server&lt; T, Remote</text>
<text text-anchor="middle" x="399" y="-7" font-family="Helvetica,sans-Serif" font-size="10.00">_Rserver&lt; T, Socket, Router &gt; &gt;</text>
</a>
</g>
</g>
<!-- Node1&#45;&gt;Node11 -->
<g id="edge10" class="edge"><title>Node1&#45;&gt;Node11</title>
<path fill="none" stroke="midnightblue" d="M248.768,-81.1767C268.285,-67.1073 293.564,-50.4628 318,-39 325.089,-35.6746 332.747,-32.6842 340.418,-30.0355"/>
<polygon fill="midnightblue" stroke="midnightblue" points="246.504,-78.4964 240.504,-87.2284 250.64,-84.1441 246.504,-78.4964"/>
</g>
<!-- Node2 -->
<g id="node2" class="node"><title>Node2</title>
<g id="a_node2"><a xlink:href="structfactory_1_1Server__base.html" target="_top" xlink:title="factory::Server_base">
<polygon fill="white" stroke="black" points="0.5,-98.5 0.5,-117.5 107.5,-117.5 107.5,-98.5 0.5,-98.5"/>
<text text-anchor="middle" x="54" y="-105.5" font-family="Helvetica,sans-Serif" font-size="10.00">factory::Server_base</text>
</a>
</g>
</g>
<!-- Node2&#45;&gt;Node1 -->
<g id="edge1" class="edge"><title>Node2&#45;&gt;Node1</title>
<path fill="none" stroke="midnightblue" d="M117.941,-108C126.45,-108 135.214,-108 143.81,-108"/>
<polygon fill="midnightblue" stroke="midnightblue" points="117.716,-104.5 107.715,-108 117.715,-111.5 117.716,-104.5"/>
</g>
<!-- Node4 -->
<g id="node4" class="node"><title>Node4</title>
<g id="a_node4"><a xlink:href="structfactory_1_1CPU__server.html" target="_top" xlink:title="factory::CPU_server\&lt; T \&gt;">
<polygon fill="white" stroke="black" points="516.5,-210.5 516.5,-229.5 647.5,-229.5 647.5,-210.5 516.5,-210.5"/>
<text text-anchor="middle" x="582" y="-217.5" font-family="Helvetica,sans-Serif" font-size="10.00">factory::CPU_server&lt; T &gt;</text>
</a>
</g>
</g>
<!-- Node3&#45;&gt;Node4 -->
<g id="edge3" class="edge"><title>Node3&#45;&gt;Node4</title>
<path fill="none" stroke="midnightblue" d="M461.547,-207.461C479.171,-209.311 498.432,-211.333 516.242,-213.202"/>
<polygon fill="midnightblue" stroke="midnightblue" points="461.694,-203.957 451.383,-206.394 460.963,-210.919 461.694,-203.957"/>
</g>
<!-- Node5 -->
<g id="node5" class="node"><title>Node5</title>
<g id="a_node5"><a xlink:href="structfactory_1_1IO__server.html" target="_top" xlink:title="factory::IO_server\&lt; T \&gt;">
<polygon fill="white" stroke="black" points="522.5,-172.5 522.5,-191.5 641.5,-191.5 641.5,-172.5 522.5,-172.5"/>
<text text-anchor="middle" x="582" y="-179.5" font-family="Helvetica,sans-Serif" font-size="10.00">factory::IO_server&lt; T &gt;</text>
</a>
</g>
</g>
<!-- Node3&#45;&gt;Node5 -->
<g id="edge4" class="edge"><title>Node3&#45;&gt;Node5</title>
<path fill="none" stroke="midnightblue" d="M461.483,-194.546C481.199,-192.476 502.97,-190.191 522.469,-188.144"/>
<polygon fill="midnightblue" stroke="midnightblue" points="460.963,-191.081 451.383,-195.606 461.694,-198.043 460.963,-191.081"/>
</g>
<!-- Node9 -->
<g id="node9" class="node"><title>Node9</title>
<g id="a_node9"><a xlink:href="structfactory_1_1Process__child__server.html" target="_top" xlink:title="factory::Process_child\l_server\&lt; T, Router \&gt;">
<polygon fill="white" stroke="black" points="525,-98 525,-128 639,-128 639,-98 525,-98"/>
<text text-anchor="start" x="533" y="-116" font-family="Helvetica,sans-Serif" font-size="10.00">factory::Process_child</text>
<text text-anchor="middle" x="582" y="-105" font-family="Helvetica,sans-Serif" font-size="10.00">_server&lt; T, Router &gt;</text>
</a>
</g>
</g>
<!-- Node8&#45;&gt;Node9 -->
<g id="edge8" class="edge"><title>Node8&#45;&gt;Node9</title>
<path fill="none" stroke="midnightblue" d="M465.561,-81.7485C485.177,-87.0591 506.49,-92.8288 525.401,-97.9484"/>
<polygon fill="midnightblue" stroke="midnightblue" points="466.35,-78.3362 455.783,-79.1014 464.521,-85.093 466.35,-78.3362"/>
</g>
<!-- Node10 -->
<g id="node10" class="node"><title>Node10</title>
<g id="a_node10"><a xlink:href="structfactory_1_1Process__iserver.html" target="_top" xlink:title="factory::Process_iserver\l\&lt; T, Router \&gt;">
<polygon fill="white" stroke="black" points="520.5,-49 520.5,-79 643.5,-79 643.5,-49 520.5,-49"/>
<text text-anchor="start" x="528.5" y="-67" font-family="Helvetica,sans-Serif" font-size="10.00">factory::Process_iserver</text>
<text text-anchor="middle" x="582" y="-56" font-family="Helvetica,sans-Serif" font-size="10.00">&lt; T, Router &gt;</text>
</a>
</g>
</g>
<!-- Node8&#45;&gt;Node10 -->
<g id="edge9" class="edge"><title>Node8&#45;&gt;Node10</title>
<path fill="none" stroke="midnightblue" d="M474.94,-64C490.075,-64 505.81,-64 520.38,-64"/>
<polygon fill="midnightblue" stroke="midnightblue" points="474.579,-60.5001 464.579,-64 474.579,-67.5001 474.579,-60.5001"/>
</g>
<!-- Node12 -->
<g id="node12" class="node"><title>Node12</title>
<g id="a_node12"><a xlink:href="structfactory_1_1NIC__server.html" target="_top" xlink:title="factory::NIC_server\l\&lt; T, Socket, Router \&gt;">
<polygon fill="white" stroke="black" points="525.5,-0 525.5,-30 638.5,-30 638.5,-0 525.5,-0"/>
<text text-anchor="start" x="533.5" y="-18" font-family="Helvetica,sans-Serif" font-size="10.00">factory::NIC_server</text>
<text text-anchor="middle" x="582" y="-7" font-family="Helvetica,sans-Serif" font-size="10.00">&lt; T, Socket, Router &gt;</text>
</a>
</g>
</g>
<!-- Node11&#45;&gt;Node12 -->
<g id="edge11" class="edge"><title>Node11&#45;&gt;Node12</title>
<path fill="none" stroke="midnightblue" d="M489.84,-15C501.996,-15 514.167,-15 525.477,-15"/>
<polygon fill="midnightblue" stroke="midnightblue" points="489.653,-11.5001 479.653,-15 489.653,-18.5001 489.653,-11.5001"/>
</g>
</g>
</svg>
