<?xml version="1.0" encoding="UTF-8" standalone="no"?>
<!DOCTYPE svg PUBLIC "-//W3C//DTD SVG 1.1//EN"
 "http://www.w3.org/Graphics/SVG/1.1/DTD/svg11.dtd">
<!-- Generated by graphviz version 2.38.0 (20140413.2041)
 -->
<!-- Title: factory::Process_child_server&lt; T, Router &gt; Pages: 1 -->
<svg width="122pt" height="251pt"
 viewBox="0.00 0.00 122.00 251.00" xmlns="http://www.w3.org/2000/svg" xmlns:xlink="http://www.w3.org/1999/xlink">
<g id="graph0" class="graph" transform="scale(1 1) rotate(0) translate(4 247)">
<title>factory::Process_child_server&lt; T, Router &gt;</title>
<polygon fill="white" stroke="none" points="-4,4 -4,-247 118,-247 118,4 -4,4"/>
<!-- Node1 -->
<g id="node1" class="node"><title>Node1</title>
<polygon fill="#bfbfbf" stroke="black" points="0,-0.5 0,-30.5 114,-30.5 114,-0.5 0,-0.5"/>
<text text-anchor="start" x="8" y="-18.5" font-family="Helvetica,sans-Serif" font-size="10.00">factory::Process_child</text>
<text text-anchor="middle" x="57" y="-7.5" font-family="Helvetica,sans-Serif" font-size="10.00">_server&lt; T, Router &gt;</text>
</g>
<!-- Node2 -->
<g id="node2" class="node"><title>Node2</title>
<g id="a_node2"><a xlink:href="structfactory_1_1Proxy__server.html" target="_top" xlink:title="factory::Proxy_server\l\&lt; T, Process_rserver\l\&lt; T, Router \&gt; \&gt;">
<polygon fill="white" stroke="black" points="2,-67.5 2,-108.5 112,-108.5 112,-67.5 2,-67.5"/>
<text text-anchor="start" x="10" y="-96.5" font-family="Helvetica,sans-Serif" font-size="10.00">factory::Proxy_server</text>
<text text-anchor="start" x="10" y="-85.5" font-family="Helvetica,sans-Serif" font-size="10.00">&lt; T, Process_rserver</text>
<text text-anchor="middle" x="57" y="-74.5" font-family="Helvetica,sans-Serif" font-size="10.00">&lt; T, Router &gt; &gt;</text>
</a>
</g>
</g>
<!-- Node2&#45;&gt;Node1 -->
<g id="edge1" class="edge"><title>Node2&#45;&gt;Node1</title>
<path fill="none" stroke="midnightblue" d="M57,-57.08C57,-48.0061 57,-38.4498 57,-30.8916"/>
<polygon fill="midnightblue" stroke="midnightblue" points="53.5001,-57.3618 57,-67.3618 60.5001,-57.3619 53.5001,-57.3618"/>
</g>
<!-- Node3 -->
<g id="node3" class="node"><title>Node3</title>
<g id="a_node3"><a xlink:href="structfactory_1_1Server__with__pool.html" target="_top" xlink:title="Proxy_server_base\&lt;\l T, Process_rserver\l\&lt; T, Router \&gt; &#160;\&gt;">
<polygon fill="white" stroke="black" points="3.5,-145.5 3.5,-186.5 110.5,-186.5 110.5,-145.5 3.5,-145.5"/>
<text text-anchor="start" x="11.5" y="-174.5" font-family="Helvetica,sans-Serif" font-size="10.00">Proxy_server_base&lt;</text>
<text text-anchor="start" x="11.5" y="-163.5" font-family="Helvetica,sans-Serif" font-size="10.00"> T, Process_rserver</text>
<text text-anchor="middle" x="57" y="-152.5" font-family="Helvetica,sans-Serif" font-size="10.00">&lt; T, Router &gt; &gt;</text>
</a>
</g>
</g>
<!-- Node3&#45;&gt;Node2 -->
<g id="edge2" class="edge"><title>Node3&#45;&gt;Node2</title>
<path fill="none" stroke="midnightblue" d="M57,-135.297C57,-126.301 57,-116.653 57,-108.506"/>
<polygon fill="midnightblue" stroke="midnightblue" points="53.5001,-135.428 57,-145.428 60.5001,-135.428 53.5001,-135.428"/>
</g>
<!-- Node4 -->
<g id="node4" class="node"><title>Node4</title>
<g id="a_node4"><a xlink:href="structfactory_1_1Server__base.html" target="_top" xlink:title="factory::Server_base">
<polygon fill="white" stroke="black" points="3.5,-223.5 3.5,-242.5 110.5,-242.5 110.5,-223.5 3.5,-223.5"/>
<text text-anchor="middle" x="57" y="-230.5" font-family="Helvetica,sans-Serif" font-size="10.00">factory::Server_base</text>
</a>
</g>
</g>
<!-- Node4&#45;&gt;Node3 -->
<g id="edge3" class="edge"><title>Node4&#45;&gt;Node3</title>
<path fill="none" stroke="midnightblue" d="M57,-213.037C57,-204.708 57,-194.936 57,-186.542"/>
<polygon fill="midnightblue" stroke="midnightblue" points="53.5001,-213.234 57,-223.234 60.5001,-213.234 53.5001,-213.234"/>
</g>
</g>
</svg>
