<?xml version="1.0" encoding="UTF-8" standalone="no"?>
<!DOCTYPE svg PUBLIC "-//W3C//DTD SVG 1.1//EN"
 "http://www.w3.org/Graphics/SVG/1.1/DTD/svg11.dtd">
<!-- Generated by graphviz version 2.36.0 (20140111.2315)
 -->
<!-- Title: sys::basic_ifdstream&lt; Ch, Tr, Fd &gt; Pages: 1 -->
<svg width="114pt" height="108pt"
 viewBox="0.00 0.00 114.00 108.00" xmlns="http://www.w3.org/2000/svg" xmlns:xlink="http://www.w3.org/1999/xlink">
<g id="graph0" class="graph" transform="scale(1 1) rotate(0) translate(4 104)">
<title>sys::basic_ifdstream&lt; Ch, Tr, Fd &gt;</title>
<polygon fill="white" stroke="none" points="-4,4 -4,-104 110,-104 110,4 -4,4"/>
<!-- Node1 -->
<g id="node1" class="node"><title>Node1</title>
<polygon fill="#bfbfbf" stroke="black" points="-0.5,-1 -0.5,-31 106.5,-31 106.5,-1 -0.5,-1"/>
<text text-anchor="start" x="7.5" y="-19" font-family="Helvetica,sans-Serif" font-size="10.00">sys::basic_ifdstream</text>
<text text-anchor="middle" x="53" y="-8" font-family="Helvetica,sans-Serif" font-size="10.00">&lt; Ch, Tr, Fd &gt;</text>
</g>
<!-- Node2 -->
<g id="node2" class="node"><title>Node2</title>
<polygon fill="white" stroke="#bfbfbf" points="4.5,-69 4.5,-99 101.5,-99 101.5,-69 4.5,-69"/>
<text text-anchor="start" x="12.5" y="-87" font-family="Helvetica,sans-Serif" font-size="10.00">std::basic_istream</text>
<text text-anchor="middle" x="53" y="-76" font-family="Helvetica,sans-Serif" font-size="10.00">&lt; Ch &gt;</text>
</g>
<!-- Node2&#45;&gt;Node1 -->
<g id="edge1" class="edge"><title>Node2&#45;&gt;Node1</title>
<path fill="none" stroke="midnightblue" d="M53,-58.5322C53,-49.3606 53,-39.2449 53,-31.2931"/>
<polygon fill="midnightblue" stroke="midnightblue" points="49.5001,-58.6789 53,-68.679 56.5001,-58.679 49.5001,-58.6789"/>
</g>
</g>
</svg>
