<?xml version="1.0" encoding="UTF-8" standalone="no"?>
<!DOCTYPE svg PUBLIC "-//W3C//DTD SVG 1.1//EN"
 "http://www.w3.org/Graphics/SVG/1.1/DTD/svg11.dtd">
<!-- Generated by graphviz version 2.36.0 (20140111.2315)
 -->
<!-- Title: factory::Map&lt; F, G, I &gt;::Worker Pages: 1 -->
<svg width="249pt" height="208pt"
 viewBox="0.00 0.00 249.00 208.00" xmlns="http://www.w3.org/2000/svg" xmlns:xlink="http://www.w3.org/1999/xlink">
<g id="graph0" class="graph" transform="scale(1 1) rotate(0) translate(4 204)">
<title>factory::Map&lt; F, G, I &gt;::Worker</title>
<polygon fill="white" stroke="none" points="-4,4 -4,-204 245,-204 245,4 -4,4"/>
<!-- Node1 -->
<g id="node1" class="node"><title>Node1</title>
<polygon fill="#bfbfbf" stroke="black" points="67.5,-1 67.5,-31 170.5,-31 170.5,-1 67.5,-1"/>
<text text-anchor="start" x="75.5" y="-19" font-family="Helvetica,sans-Serif" font-size="10.00">factory::Map&lt; F, G,</text>
<text text-anchor="middle" x="119" y="-8" font-family="Helvetica,sans-Serif" font-size="10.00"> I &gt;::Worker</text>
</g>
<!-- Node2 -->
<g id="node2" class="node"><title>Node2</title>
<g id="a_node2"><a xlink:href="structfactory_1_1Kernel.html" target="_top" xlink:title="factory::Kernel">
<polygon fill="white" stroke="black" points="79,-68.5 79,-87.5 159,-87.5 159,-68.5 79,-68.5"/>
<text text-anchor="middle" x="119" y="-75.5" font-family="Helvetica,sans-Serif" font-size="10.00">factory::Kernel</text>
</a>
</g>
</g>
<!-- Node2&#45;&gt;Node1 -->
<g id="edge1" class="edge"><title>Node2&#45;&gt;Node1</title>
<path fill="none" stroke="midnightblue" d="M119,-58.3707C119,-49.5849 119,-39.2721 119,-31.1408"/>
<polygon fill="midnightblue" stroke="midnightblue" points="115.5,-58.4034 119,-68.4035 122.5,-58.4035 115.5,-58.4034"/>
</g>
<!-- Node3 -->
<g id="node3" class="node"><title>Node3</title>
<g id="a_node3"><a xlink:href="structfactory_1_1Mobile__kernel.html" target="_top" xlink:title="factory::Mobile_kernel">
<polygon fill="white" stroke="black" points="62.5,-124.5 62.5,-143.5 175.5,-143.5 175.5,-124.5 62.5,-124.5"/>
<text text-anchor="middle" x="119" y="-131.5" font-family="Helvetica,sans-Serif" font-size="10.00">factory::Mobile_kernel</text>
</a>
</g>
</g>
<!-- Node3&#45;&gt;Node2 -->
<g id="edge2" class="edge"><title>Node3&#45;&gt;Node2</title>
<path fill="none" stroke="midnightblue" d="M119,-113.805C119,-104.91 119,-94.7798 119,-87.7511"/>
<polygon fill="midnightblue" stroke="midnightblue" points="115.5,-114.083 119,-124.083 122.5,-114.083 115.5,-114.083"/>
</g>
<!-- Node4 -->
<g id="node4" class="node"><title>Node4</title>
<g id="a_node4"><a xlink:href="structfactory_1_1Basic__kernel.html" target="_top" xlink:title="factory::Basic_kernel">
<polygon fill="white" stroke="black" points="-0.5,-180.5 -0.5,-199.5 108.5,-199.5 108.5,-180.5 -0.5,-180.5"/>
<text text-anchor="middle" x="54" y="-187.5" font-family="Helvetica,sans-Serif" font-size="10.00">factory::Basic_kernel</text>
</a>
</g>
</g>
<!-- Node4&#45;&gt;Node3 -->
<g id="edge3" class="edge"><title>Node4&#45;&gt;Node3</title>
<path fill="none" stroke="midnightblue" d="M72.2726,-173.82C83.9178,-164.145 98.5995,-151.948 108.367,-143.834"/>
<polygon fill="midnightblue" stroke="midnightblue" points="69.8987,-171.242 64.4434,-180.324 74.3719,-176.626 69.8987,-171.242"/>
</g>
<!-- Node5 -->
<g id="node5" class="node"><title>Node5</title>
<g id="a_node5"><a xlink:href="structfactory_1_1Kernel__header.html" target="_top" xlink:title="factory::Kernel_header">
<polygon fill="white" stroke="black" points="126.5,-180.5 126.5,-199.5 241.5,-199.5 241.5,-180.5 126.5,-180.5"/>
<text text-anchor="middle" x="184" y="-187.5" font-family="Helvetica,sans-Serif" font-size="10.00">factory::Kernel_header</text>
</a>
</g>
</g>
<!-- Node5&#45;&gt;Node3 -->
<g id="edge4" class="edge"><title>Node5&#45;&gt;Node3</title>
<path fill="none" stroke="midnightblue" d="M165.727,-173.82C154.082,-164.145 139.401,-151.948 129.633,-143.834"/>
<polygon fill="midnightblue" stroke="midnightblue" points="163.628,-176.626 173.557,-180.324 168.101,-171.242 163.628,-176.626"/>
</g>
</g>
</svg>
