<?xml version="1.0" encoding="UTF-8" standalone="no"?>
<!DOCTYPE svg PUBLIC "-//W3C//DTD SVG 1.1//EN"
 "http://www.w3.org/Graphics/SVG/1.1/DTD/svg11.dtd">
<!-- Generated by graphviz version 2.36.0 (20140111.2315)
 -->
<!-- Title: factory::Kernel Pages: 1 -->
<svg width="249pt" height="146pt"
 viewBox="0.00 0.00 249.00 146.00" xmlns="http://www.w3.org/2000/svg" xmlns:xlink="http://www.w3.org/1999/xlink">
<g id="graph0" class="graph" transform="scale(1 1) rotate(0) translate(4 142)">
<title>factory::Kernel</title>
<polygon fill="white" stroke="none" points="-4,4 -4,-142 245,-142 245,4 -4,4"/>
<!-- Node1 -->
<g id="node1" class="node"><title>Node1</title>
<polygon fill="#bfbfbf" stroke="black" points="79,-1.5 79,-20.5 159,-20.5 159,-1.5 79,-1.5"/>
<text text-anchor="middle" x="119" y="-8.5" font-family="Helvetica,sans-Serif" font-size="10.00">factory::Kernel</text>
</g>
<!-- Node1&#45;&gt;Node1 -->
<g id="edge4" class="edge"><title>Node1&#45;&gt;Node1</title>
<path fill="none" stroke="#9a32cd" stroke-dasharray="5,2" d="M169.265,-15.5193C174.005,-14.5938 177,-13.0874 177,-11 177,-7.66016 169.332,-5.80759 159.119,-5.44229"/>
<polygon fill="#9a32cd" stroke="#9a32cd" points="168.71,-12.0577 159.119,-16.5577 169.423,-19.0213 168.71,-12.0577"/>
<text text-anchor="middle" x="199.5" y="-14" font-family="Helvetica,sans-Serif" font-size="10.00"> _principal</text>
<text text-anchor="middle" x="199.5" y="-3" font-family="Helvetica,sans-Serif" font-size="10.00">_parent</text>
</g>
<!-- Node2 -->
<g id="node2" class="node"><title>Node2</title>
<g id="a_node2"><a xlink:href="structfactory_1_1Mobile__kernel.html" target="_top" xlink:title="factory::Mobile_kernel">
<polygon fill="white" stroke="black" points="62.5,-60.5 62.5,-79.5 175.5,-79.5 175.5,-60.5 62.5,-60.5"/>
<text text-anchor="middle" x="119" y="-67.5" font-family="Helvetica,sans-Serif" font-size="10.00">factory::Mobile_kernel</text>
</a>
</g>
</g>
<!-- Node2&#45;&gt;Node1 -->
<g id="edge1" class="edge"><title>Node2&#45;&gt;Node1</title>
<path fill="none" stroke="midnightblue" d="M119,-49.9331C119,-40.0243 119,-28.4007 119,-20.6571"/>
<polygon fill="midnightblue" stroke="midnightblue" points="115.5,-50.0937 119,-60.0938 122.5,-50.0938 115.5,-50.0937"/>
</g>
<!-- Node3 -->
<g id="node3" class="node"><title>Node3</title>
<g id="a_node3"><a xlink:href="structfactory_1_1Basic__kernel.html" target="_top" xlink:title="factory::Basic_kernel">
<polygon fill="white" stroke="black" points="-0.5,-118.5 -0.5,-137.5 108.5,-137.5 108.5,-118.5 -0.5,-118.5"/>
<text text-anchor="middle" x="54" y="-125.5" font-family="Helvetica,sans-Serif" font-size="10.00">factory::Basic_kernel</text>
</a>
</g>
</g>
<!-- Node3&#45;&gt;Node2 -->
<g id="edge2" class="edge"><title>Node3&#45;&gt;Node2</title>
<path fill="none" stroke="midnightblue" d="M71.526,-111.901C83.5502,-101.541 99.0739,-88.1671 109.035,-79.5852"/>
<polygon fill="midnightblue" stroke="midnightblue" points="69.1637,-109.316 63.8721,-118.495 73.7327,-114.619 69.1637,-109.316"/>
</g>
<!-- Node4 -->
<g id="node4" class="node"><title>Node4</title>
<g id="a_node4"><a xlink:href="structfactory_1_1Kernel__header.html" target="_top" xlink:title="factory::Kernel_header">
<polygon fill="white" stroke="black" points="126.5,-118.5 126.5,-137.5 241.5,-137.5 241.5,-118.5 126.5,-118.5"/>
<text text-anchor="middle" x="184" y="-125.5" font-family="Helvetica,sans-Serif" font-size="10.00">factory::Kernel_header</text>
</a>
</g>
</g>
<!-- Node4&#45;&gt;Node2 -->
<g id="edge3" class="edge"><title>Node4&#45;&gt;Node2</title>
<path fill="none" stroke="midnightblue" d="M166.474,-111.901C154.45,-101.541 138.926,-88.1671 128.965,-79.5852"/>
<polygon fill="midnightblue" stroke="midnightblue" points="164.267,-114.619 174.128,-118.495 168.836,-109.316 164.267,-114.619"/>
</g>
</g>
</svg>
