<?xml version="1.0" encoding="UTF-8" standalone="no"?>
<!DOCTYPE svg PUBLIC "-//W3C//DTD SVG 1.1//EN"
 "http://www.w3.org/Graphics/SVG/1.1/DTD/svg11.dtd">
<!-- Generated by graphviz version 2.36.0 (20140111.2315)
 -->
<!-- Title: factory::pipeline_base Pages: 1 -->
<svg width="650pt" height="388pt"
 viewBox="0.00 0.00 650.00 388.00" xmlns="http://www.w3.org/2000/svg" xmlns:xlink="http://www.w3.org/1999/xlink">
<g id="graph0" class="graph" transform="scale(1 1) rotate(0) translate(4 384)">
<title>factory::pipeline_base</title>
<polygon fill="white" stroke="none" points="-4,4 -4,-384 646,-384 646,4 -4,4"/>
<!-- Node1 -->
<g id="node1" class="node"><title>Node1</title>
<polygon fill="#bfbfbf" stroke="black" points="0,-142.5 0,-161.5 112,-161.5 112,-142.5 0,-142.5"/>
<text text-anchor="middle" x="56" y="-149.5" font-family="Helvetica,sans-Serif" font-size="10.00">factory::pipeline_base</text>
</g>
<!-- Node2 -->
<g id="node2" class="node"><title>Node2</title>
<g id="a_node2"><a xlink:href="classfactory_1_1basic__pipeline.html" target="_top" xlink:title="factory::basic_pipeline\&lt; T \&gt;">
<polygon fill="white" stroke="black" points="152,-346.5 152,-365.5 290,-365.5 290,-346.5 152,-346.5"/>
<text text-anchor="middle" x="221" y="-353.5" font-family="Helvetica,sans-Serif" font-size="10.00">factory::basic_pipeline&lt; T &gt;</text>
</a>
</g>
</g>
<!-- Node1&#45;&gt;Node2 -->
<g id="edge1" class="edge"><title>Node1&#45;&gt;Node2</title>
<path fill="none" stroke="midnightblue" d="M62.8442,-171.778C74.0442,-206.6 101.624,-279.295 148,-323 159.208,-333.562 174.39,-341.199 187.924,-346.448"/>
<polygon fill="midnightblue" stroke="midnightblue" points="66.0828,-170.404 59.7803,-161.888 59.3963,-172.476 66.0828,-170.404"/>
</g>
<!-- Node5 -->
<g id="node5" class="node"><title>Node5</title>
<g id="a_node5"><a xlink:href="structfactory_1_1Buffered__pipeline.html" target="_top" xlink:title="factory::Buffered_pipeline\l\&lt; T, Router \&gt;">
<polygon fill="white" stroke="black" points="157,-284 157,-314 285,-314 285,-284 157,-284"/>
<text text-anchor="start" x="165" y="-302" font-family="Helvetica,sans-Serif" font-size="10.00">factory::Buffered_pipeline</text>
<text text-anchor="middle" x="221" y="-291" font-family="Helvetica,sans-Serif" font-size="10.00">&lt; T, Router &gt;</text>
</a>
</g>
</g>
<!-- Node1&#45;&gt;Node5 -->
<g id="edge4" class="edge"><title>Node1&#45;&gt;Node5</title>
<path fill="none" stroke="midnightblue" d="M71.8777,-169.339C89.2256,-189.113 119.208,-221.941 148,-247 163.469,-260.464 182.298,-273.973 196.821,-283.847"/>
<polygon fill="midnightblue" stroke="midnightblue" points="74.4596,-166.974 65.2568,-161.724 69.1772,-171.567 74.4596,-166.974"/>
</g>
<!-- Node7 -->
<g id="node7" class="node"><title>Node7</title>
<g id="a_node7"><a xlink:href="classfactory_1_1basic__pipeline.html" target="_top" xlink:title="factory::basic_pipeline\l\&lt; T, Kernels, Traits,\l Threads, Mutex, Lock,\l Semaphore \&gt;">
<polygon fill="white" stroke="black" points="162,-186 162,-238 280,-238 280,-186 162,-186"/>
<text text-anchor="start" x="170" y="-226" font-family="Helvetica,sans-Serif" font-size="10.00">factory::basic_pipeline</text>
<text text-anchor="start" x="170" y="-215" font-family="Helvetica,sans-Serif" font-size="10.00">&lt; T, Kernels, Traits,</text>
<text text-anchor="start" x="170" y="-204" font-family="Helvetica,sans-Serif" font-size="10.00"> Threads, Mutex, Lock,</text>
<text text-anchor="middle" x="221" y="-193" font-family="Helvetica,sans-Serif" font-size="10.00"> Semaphore &gt;</text>
</a>
</g>
</g>
<!-- Node1&#45;&gt;Node7 -->
<g id="edge6" class="edge"><title>Node1&#45;&gt;Node7</title>
<path fill="none" stroke="midnightblue" d="M92.2986,-164.993C112.601,-172.467 138.616,-182.043 161.862,-190.599"/>
<polygon fill="midnightblue" stroke="midnightblue" points="93.4213,-161.677 82.8278,-161.507 91.0032,-168.246 93.4213,-161.677"/>
</g>
<!-- Node17 -->
<g id="node17" class="node"><title>Node17</title>
<g id="a_node17"><a xlink:href="structfactory_1_1Buffered__pipeline.html" target="_top" xlink:title="factory::Buffered_pipeline\l\&lt; T, Router, Kernels, Traits \&gt;">
<polygon fill="white" stroke="black" points="148,-137 148,-167 294,-167 294,-137 148,-137"/>
<text text-anchor="start" x="156" y="-155" font-family="Helvetica,sans-Serif" font-size="10.00">factory::Buffered_pipeline</text>
<text text-anchor="middle" x="221" y="-144" font-family="Helvetica,sans-Serif" font-size="10.00">&lt; T, Router, Kernels, Traits &gt;</text>
</a>
</g>
</g>
<!-- Node1&#45;&gt;Node17 -->
<g id="edge16" class="edge"><title>Node1&#45;&gt;Node17</title>
<path fill="none" stroke="midnightblue" d="M122.285,-152C130.684,-152 139.322,-152 147.824,-152"/>
<polygon fill="midnightblue" stroke="midnightblue" points="122.184,-148.5 112.184,-152 122.184,-155.5 122.184,-148.5"/>
</g>
<!-- Node18 -->
<g id="node18" class="node"><title>Node18</title>
<g id="a_node18"><a xlink:href="classfactory_1_1Factory.html" target="_top" xlink:title="factory::Factory\&lt; T \&gt;">
<polygon fill="white" stroke="black" points="166,-98.5 166,-117.5 276,-117.5 276,-98.5 166,-98.5"/>
<text text-anchor="middle" x="221" y="-105.5" font-family="Helvetica,sans-Serif" font-size="10.00">factory::Factory&lt; T &gt;</text>
</a>
</g>
</g>
<!-- Node1&#45;&gt;Node18 -->
<g id="edge17" class="edge"><title>Node1&#45;&gt;Node18</title>
<path fill="none" stroke="midnightblue" d="M102.028,-139.845C128.111,-132.805 160.472,-124.069 184.7,-117.529"/>
<polygon fill="midnightblue" stroke="midnightblue" points="101.111,-136.467 92.3686,-142.453 102.935,-143.226 101.111,-136.467"/>
</g>
<!-- Node19 -->
<g id="node19" class="node"><title>Node19</title>
<g id="a_node19"><a xlink:href="classfactory_1_1Multi__pipeline.html" target="_top" xlink:title="factory::Multi_pipeline\&lt; T \&gt;">
<polygon fill="white" stroke="black" points="153,-60.5 153,-79.5 289,-79.5 289,-60.5 153,-60.5"/>
<text text-anchor="middle" x="221" y="-67.5" font-family="Helvetica,sans-Serif" font-size="10.00">factory::Multi_pipeline&lt; T &gt;</text>
</a>
</g>
</g>
<!-- Node1&#45;&gt;Node19 -->
<g id="edge18" class="edge"><title>Node1&#45;&gt;Node19</title>
<path fill="none" stroke="midnightblue" d="M75.7922,-136.053C93.4073,-121.848 121.004,-101.439 148,-89 156.219,-85.2129 165.327,-82.0763 174.222,-79.5176"/>
<polygon fill="midnightblue" stroke="midnightblue" points="73.494,-133.412 67.993,-142.466 77.94,-138.818 73.494,-133.412"/>
</g>
<!-- Node20 -->
<g id="node20" class="node"><title>Node20</title>
<g id="a_node20"><a xlink:href="structfactory_1_1remote__client.html" target="_top" xlink:title="factory::remote_client\l\&lt; T, Socket, Router, Kernels,\l Traits \&gt;">
<polygon fill="white" stroke="black" points="148,-0.5 148,-41.5 294,-41.5 294,-0.5 148,-0.5"/>
<text text-anchor="start" x="156" y="-29.5" font-family="Helvetica,sans-Serif" font-size="10.00">factory::remote_client</text>
<text text-anchor="start" x="156" y="-18.5" font-family="Helvetica,sans-Serif" font-size="10.00">&lt; T, Socket, Router, Kernels,</text>
<text text-anchor="middle" x="221" y="-7.5" font-family="Helvetica,sans-Serif" font-size="10.00"> Traits &gt;</text>
</a>
</g>
</g>
<!-- Node1&#45;&gt;Node20 -->
<g id="edge19" class="edge"><title>Node1&#45;&gt;Node20</title>
<path fill="none" stroke="midnightblue" d="M69.4009,-133.897C85.3513,-111.77 114.965,-74.3907 148,-51 152.863,-47.5569 158.181,-44.4111 163.654,-41.5622"/>
<polygon fill="midnightblue" stroke="midnightblue" points="66.3347,-132.172 63.4314,-142.362 72.0551,-136.207 66.3347,-132.172"/>
</g>
<!-- Node3 -->
<g id="node3" class="node"><title>Node3</title>
<g id="a_node3"><a xlink:href="classfactory_1_1parallel__pipeline.html" target="_top" xlink:title="factory::parallel_pipeline\&lt; T \&gt;">
<polygon fill="white" stroke="black" points="330,-360.5 330,-379.5 476,-379.5 476,-360.5 330,-360.5"/>
<text text-anchor="middle" x="403" y="-367.5" font-family="Helvetica,sans-Serif" font-size="10.00">factory::parallel_pipeline&lt; T &gt;</text>
</a>
</g>
</g>
<!-- Node2&#45;&gt;Node3 -->
<g id="edge2" class="edge"><title>Node2&#45;&gt;Node3</title>
<path fill="none" stroke="midnightblue" d="M300.248,-362.086C310.119,-362.854 320.182,-363.636 329.952,-364.396"/>
<polygon fill="midnightblue" stroke="midnightblue" points="300.292,-358.579 290.05,-361.293 299.749,-365.558 300.292,-358.579"/>
</g>
<!-- Node4 -->
<g id="node4" class="node"><title>Node4</title>
<g id="a_node4"><a xlink:href="structfactory_1_1io__pipeline.html" target="_top" xlink:title="factory::io_pipeline\&lt; T \&gt;">
<polygon fill="white" stroke="black" points="516,-360.5 516,-379.5 638,-379.5 638,-360.5 516,-360.5"/>
<text text-anchor="middle" x="577" y="-367.5" font-family="Helvetica,sans-Serif" font-size="10.00">factory::io_pipeline&lt; T &gt;</text>
</a>
</g>
</g>
<!-- Node3&#45;&gt;Node4 -->
<g id="edge3" class="edge"><title>Node3&#45;&gt;Node4</title>
<path fill="none" stroke="midnightblue" d="M486.664,-370C496.511,-370 506.416,-370 515.863,-370"/>
<polygon fill="midnightblue" stroke="midnightblue" points="486.445,-366.5 476.445,-370 486.445,-373.5 486.445,-366.5"/>
</g>
<!-- Node6 -->
<g id="node6" class="node"><title>Node6</title>
<g id="a_node6"><a xlink:href="structfactory_1_1process__handler.html" target="_top" xlink:title="factory::process_handler\l\&lt; T, Router \&gt;">
<polygon fill="white" stroke="black" points="341,-311 341,-341 465,-341 465,-311 341,-311"/>
<text text-anchor="start" x="349" y="-329" font-family="Helvetica,sans-Serif" font-size="10.00">factory::process_handler</text>
<text text-anchor="middle" x="403" y="-318" font-family="Helvetica,sans-Serif" font-size="10.00">&lt; T, Router &gt;</text>
</a>
</g>
</g>
<!-- Node5&#45;&gt;Node6 -->
<g id="edge5" class="edge"><title>Node5&#45;&gt;Node6</title>
<path fill="none" stroke="midnightblue" d="M295.496,-310.024C310.533,-312.28 326.208,-314.631 340.761,-316.814"/>
<polygon fill="midnightblue" stroke="midnightblue" points="295.617,-306.503 285.208,-308.481 294.578,-313.426 295.617,-306.503"/>
</g>
<!-- Node8 -->
<g id="node8" class="node"><title>Node8</title>
<g id="a_node8"><a xlink:href="structfactory_1_1basic__socket__pipeline.html" target="_top" xlink:title="basic_socket_pipeline\l\&lt; T, process_handler\l\&lt; T, basic_router\&lt; T \&gt; \&gt; \&gt;">
<polygon fill="white" stroke="black" points="336.5,-251.5 336.5,-292.5 469.5,-292.5 469.5,-251.5 336.5,-251.5"/>
<text text-anchor="start" x="344.5" y="-280.5" font-family="Helvetica,sans-Serif" font-size="10.00">basic_socket_pipeline</text>
<text text-anchor="start" x="344.5" y="-269.5" font-family="Helvetica,sans-Serif" font-size="10.00">&lt; T, process_handler</text>
<text text-anchor="middle" x="403" y="-258.5" font-family="Helvetica,sans-Serif" font-size="10.00">&lt; T, basic_router&lt; T &gt; &gt; &gt;</text>
</a>
</g>
</g>
<!-- Node7&#45;&gt;Node8 -->
<g id="edge7" class="edge"><title>Node7&#45;&gt;Node8</title>
<path fill="none" stroke="midnightblue" d="M290.048,-234.683C306.603,-240.201 324.213,-246.071 340.447,-251.482"/>
<polygon fill="midnightblue" stroke="midnightblue" points="291.035,-231.322 280.441,-231.48 288.821,-237.963 291.035,-231.322"/>
</g>
<!-- Node10 -->
<g id="node10" class="node"><title>Node10</title>
<g id="a_node10"><a xlink:href="structfactory_1_1basic__socket__pipeline.html" target="_top" xlink:title="basic_socket_pipeline\l\&lt; T, process_handler\l\&lt; T, Router \&gt; \&gt;">
<polygon fill="white" stroke="black" points="346.5,-191.5 346.5,-232.5 459.5,-232.5 459.5,-191.5 346.5,-191.5"/>
<text text-anchor="start" x="354.5" y="-220.5" font-family="Helvetica,sans-Serif" font-size="10.00">basic_socket_pipeline</text>
<text text-anchor="start" x="354.5" y="-209.5" font-family="Helvetica,sans-Serif" font-size="10.00">&lt; T, process_handler</text>
<text text-anchor="middle" x="403" y="-198.5" font-family="Helvetica,sans-Serif" font-size="10.00">&lt; T, Router &gt; &gt;</text>
</a>
</g>
</g>
<!-- Node7&#45;&gt;Node10 -->
<g id="edge9" class="edge"><title>Node7&#45;&gt;Node10</title>
<path fill="none" stroke="midnightblue" d="M290.527,-212C308.957,-212 328.662,-212 346.301,-212"/>
<polygon fill="midnightblue" stroke="midnightblue" points="290.441,-208.5 280.441,-212 290.441,-215.5 290.441,-208.5"/>
</g>
<!-- Node13 -->
<g id="node13" class="node"><title>Node13</title>
<g id="a_node13"><a xlink:href="structfactory_1_1basic__socket__pipeline.html" target="_top" xlink:title="basic_socket_pipeline\l\&lt; T, remote_client\&lt; T,\l Socket, Router \&gt; \&gt;">
<polygon fill="white" stroke="black" points="346,-131.5 346,-172.5 460,-172.5 460,-131.5 346,-131.5"/>
<text text-anchor="start" x="354" y="-160.5" font-family="Helvetica,sans-Serif" font-size="10.00">basic_socket_pipeline</text>
<text text-anchor="start" x="354" y="-149.5" font-family="Helvetica,sans-Serif" font-size="10.00">&lt; T, remote_client&lt; T,</text>
<text text-anchor="middle" x="403" y="-138.5" font-family="Helvetica,sans-Serif" font-size="10.00"> Socket, Router &gt; &gt;</text>
</a>
</g>
</g>
<!-- Node7&#45;&gt;Node13 -->
<g id="edge12" class="edge"><title>Node7&#45;&gt;Node13</title>
<path fill="none" stroke="midnightblue" d="M289.968,-189.344C308.452,-183.183 328.257,-176.581 345.996,-170.668"/>
<polygon fill="midnightblue" stroke="midnightblue" points="288.821,-186.037 280.441,-192.52 291.035,-192.678 288.821,-186.037"/>
</g>
<!-- Node15 -->
<g id="node15" class="node"><title>Node15</title>
<g id="a_node15"><a xlink:href="structfactory_1_1basic__socket__pipeline.html" target="_top" xlink:title="factory::basic_socket\l_pipeline\&lt; T, Handler \&gt;">
<polygon fill="white" stroke="black" points="343.5,-83 343.5,-113 462.5,-113 462.5,-83 343.5,-83"/>
<text text-anchor="start" x="351.5" y="-101" font-family="Helvetica,sans-Serif" font-size="10.00">factory::basic_socket</text>
<text text-anchor="middle" x="403" y="-90" font-family="Helvetica,sans-Serif" font-size="10.00">_pipeline&lt; T, Handler &gt;</text>
</a>
</g>
</g>
<!-- Node7&#45;&gt;Node15 -->
<g id="edge14" class="edge"><title>Node7&#45;&gt;Node15</title>
<path fill="none" stroke="midnightblue" d="M288.687,-180.371C290.521,-178.96 292.297,-177.503 294,-176 315.624,-156.911 307.077,-139.508 330,-122 334.503,-118.561 339.524,-115.6 344.763,-113.054"/>
<polygon fill="midnightblue" stroke="midnightblue" points="286.484,-177.642 280.325,-186.263 290.516,-183.364 286.484,-177.642"/>
</g>
<!-- Node16 -->
<g id="node16" class="node"><title>Node16</title>
<g id="a_node16"><a xlink:href="structfactory_1_1timer__pipeline.html" target="_top" xlink:title="factory::timer_pipeline\&lt; T \&gt;">
<polygon fill="white" stroke="black" points="334.5,-44.5 334.5,-63.5 471.5,-63.5 471.5,-44.5 334.5,-44.5"/>
<text text-anchor="middle" x="403" y="-51.5" font-family="Helvetica,sans-Serif" font-size="10.00">factory::timer_pipeline&lt; T &gt;</text>
</a>
</g>
</g>
<!-- Node7&#45;&gt;Node16 -->
<g id="edge15" class="edge"><title>Node7&#45;&gt;Node16</title>
<path fill="none" stroke="midnightblue" d="M288.418,-181.637C290.393,-179.852 292.263,-177.974 294,-176 326.038,-139.597 294.395,-105.923 330,-73 334.176,-69.1382 339.044,-66.0425 344.242,-63.5638"/>
<polygon fill="midnightblue" stroke="midnightblue" points="285.98,-179.104 280.343,-188.075 290.344,-184.578 285.98,-179.104"/>
</g>
<!-- Node9 -->
<g id="node9" class="node"><title>Node9</title>
<g id="a_node9"><a xlink:href="structfactory_1_1child__process__pipeline.html" target="_top" xlink:title="factory::child_process\l_pipeline\&lt; T, basic_router\l\&lt; T \&gt; \&gt;">
<polygon fill="white" stroke="black" points="512.5,-267.5 512.5,-308.5 641.5,-308.5 641.5,-267.5 512.5,-267.5"/>
<text text-anchor="start" x="520.5" y="-296.5" font-family="Helvetica,sans-Serif" font-size="10.00">factory::child_process</text>
<text text-anchor="start" x="520.5" y="-285.5" font-family="Helvetica,sans-Serif" font-size="10.00">_pipeline&lt; T, basic_router</text>
<text text-anchor="middle" x="577" y="-274.5" font-family="Helvetica,sans-Serif" font-size="10.00">&lt; T &gt; &gt;</text>
</a>
</g>
</g>
<!-- Node8&#45;&gt;Node9 -->
<g id="edge8" class="edge"><title>Node8&#45;&gt;Node9</title>
<path fill="none" stroke="midnightblue" d="M479.502,-279.023C490.47,-280.044 501.668,-281.085 512.37,-282.081"/>
<polygon fill="midnightblue" stroke="midnightblue" points="479.798,-275.536 469.516,-278.095 479.149,-282.506 479.798,-275.536"/>
</g>
<!-- Node11 -->
<g id="node11" class="node"><title>Node11</title>
<g id="a_node11"><a xlink:href="structfactory_1_1child__process__pipeline.html" target="_top" xlink:title="factory::child_process\l_pipeline\&lt; T, Router \&gt;">
<polygon fill="white" stroke="black" points="520,-219 520,-249 634,-249 634,-219 520,-219"/>
<text text-anchor="start" x="528" y="-237" font-family="Helvetica,sans-Serif" font-size="10.00">factory::child_process</text>
<text text-anchor="middle" x="577" y="-226" font-family="Helvetica,sans-Serif" font-size="10.00">_pipeline&lt; T, Router &gt;</text>
</a>
</g>
</g>
<!-- Node10&#45;&gt;Node11 -->
<g id="edge10" class="edge"><title>Node10&#45;&gt;Node11</title>
<path fill="none" stroke="midnightblue" d="M469.938,-220.434C486.402,-222.54 503.906,-224.779 519.848,-226.818"/>
<polygon fill="midnightblue" stroke="midnightblue" points="470.207,-216.94 459.843,-219.143 469.319,-223.883 470.207,-216.94"/>
</g>
<!-- Node12 -->
<g id="node12" class="node"><title>Node12</title>
<g id="a_node12"><a xlink:href="structfactory_1_1process__pipeline.html" target="_top" xlink:title="factory::process_pipeline\l\&lt; T, Router \&gt;">
<polygon fill="white" stroke="black" points="514.5,-170 514.5,-200 639.5,-200 639.5,-170 514.5,-170"/>
<text text-anchor="start" x="522.5" y="-188" font-family="Helvetica,sans-Serif" font-size="10.00">factory::process_pipeline</text>
<text text-anchor="middle" x="577" y="-177" font-family="Helvetica,sans-Serif" font-size="10.00">&lt; T, Router &gt;</text>
</a>
</g>
</g>
<!-- Node10&#45;&gt;Node12 -->
<g id="edge11" class="edge"><title>Node10&#45;&gt;Node12</title>
<path fill="none" stroke="midnightblue" d="M469.843,-201.664C484.51,-199.362 500.006,-196.929 514.49,-194.656"/>
<polygon fill="midnightblue" stroke="midnightblue" points="469.18,-198.225 459.843,-203.234 470.265,-205.141 469.18,-198.225"/>
</g>
<!-- Node14 -->
<g id="node14" class="node"><title>Node14</title>
<g id="a_node14"><a xlink:href="structfactory_1_1socket__pipeline.html" target="_top" xlink:title="factory::socket_pipeline\l\&lt; T, Socket, Router \&gt;">
<polygon fill="white" stroke="black" points="517,-121 517,-151 637,-151 637,-121 517,-121"/>
<text text-anchor="start" x="525" y="-139" font-family="Helvetica,sans-Serif" font-size="10.00">factory::socket_pipeline</text>
<text text-anchor="middle" x="577" y="-128" font-family="Helvetica,sans-Serif" font-size="10.00">&lt; T, Socket, Router &gt;</text>
</a>
</g>
</g>
<!-- Node13&#45;&gt;Node14 -->
<g id="edge13" class="edge"><title>Node13&#45;&gt;Node14</title>
<path fill="none" stroke="midnightblue" d="M470.701,-145.795C485.929,-144.379 502.009,-142.883 516.894,-141.498"/>
<polygon fill="midnightblue" stroke="midnightblue" points="469.952,-142.35 460.319,-146.761 470.6,-149.32 469.952,-142.35"/>
</g>
</g>
</svg>
