<?xml version="1.0" encoding="UTF-8" standalone="no"?>
<!DOCTYPE svg PUBLIC "-//W3C//DTD SVG 1.1//EN"
 "http://www.w3.org/Graphics/SVG/1.1/DTD/svg11.dtd">
<!-- Generated by graphviz version 2.38.0 (20140413.2041)
 -->
<!-- Title: Test_fildesbuf&lt; T, Fd &gt; Pages: 1 -->
<svg width="137pt" height="151pt"
 viewBox="0.00 0.00 137.00 151.00" xmlns="http://www.w3.org/2000/svg" xmlns:xlink="http://www.w3.org/1999/xlink">
<g id="graph0" class="graph" transform="scale(1 1) rotate(0) translate(4 147)">
<title>Test_fildesbuf&lt; T, Fd &gt;</title>
<polygon fill="white" stroke="none" points="-4,4 -4,-147 133,-147 133,4 -4,4"/>
<!-- Node1 -->
<g id="node1" class="node"><title>Node1</title>
<polygon fill="#bfbfbf" stroke="black" points="5,-0.5 5,-19.5 124,-19.5 124,-0.5 5,-0.5"/>
<text text-anchor="middle" x="64.5" y="-7.5" font-family="Helvetica,sans-Serif" font-size="10.00">Test_fildesbuf&lt; T, Fd &gt;</text>
</g>
<!-- Node2 -->
<g id="node2" class="node"><title>Node2</title>
<g id="a_node2"><a xlink:href="structtest_1_1Test.html" target="_top" xlink:title="test::Test\&lt; Test_fildesbuf\l\&lt; T, Fd \&gt; \&gt;">
<polygon fill="white" stroke="black" points="0,-56.5 0,-86.5 129,-86.5 129,-56.5 0,-56.5"/>
<text text-anchor="start" x="8" y="-74.5" font-family="Helvetica,sans-Serif" font-size="10.00">test::Test&lt; Test_fildesbuf</text>
<text text-anchor="middle" x="64.5" y="-63.5" font-family="Helvetica,sans-Serif" font-size="10.00">&lt; T, Fd &gt; &gt;</text>
</a>
</g>
</g>
<!-- Node2&#45;&gt;Node1 -->
<g id="edge1" class="edge"><title>Node2&#45;&gt;Node1</title>
<path fill="none" stroke="midnightblue" d="M64.5,-46.2892C64.5,-36.857 64.5,-26.6548 64.5,-19.6578"/>
<polygon fill="midnightblue" stroke="midnightblue" points="61.0001,-46.3993 64.5,-56.3993 68.0001,-46.3994 61.0001,-46.3993"/>
</g>
<!-- Node3 -->
<g id="node3" class="node"><title>Node3</title>
<g id="a_node3"><a xlink:href="structtest_1_1Basic__test.html" target="_top" xlink:title="test::Basic_test">
<polygon fill="white" stroke="black" points="21.5,-123.5 21.5,-142.5 107.5,-142.5 107.5,-123.5 21.5,-123.5"/>
<text text-anchor="middle" x="64.5" y="-130.5" font-family="Helvetica,sans-Serif" font-size="10.00">test::Basic_test</text>
</a>
</g>
</g>
<!-- Node3&#45;&gt;Node2 -->
<g id="edge2" class="edge"><title>Node3&#45;&gt;Node2</title>
<path fill="none" stroke="midnightblue" d="M64.5,-113.235C64.5,-104.586 64.5,-94.4969 64.5,-86.523"/>
<polygon fill="midnightblue" stroke="midnightblue" points="61.0001,-113.475 64.5,-123.475 68.0001,-113.475 61.0001,-113.475"/>
</g>
</g>
</svg>
