<?xml version="1.0" encoding="UTF-8" standalone="no"?>
<!DOCTYPE svg PUBLIC "-//W3C//DTD SVG 1.1//EN"
 "http://www.w3.org/Graphics/SVG/1.1/DTD/svg11.dtd">
<!-- Generated by graphviz version 2.36.0 (20140111.2315)
 -->
<!-- Title: factory::CPU_server&lt; T &gt; Pages: 1 -->
<svg width="138pt" height="220pt"
 viewBox="0.00 0.00 138.00 220.00" xmlns="http://www.w3.org/2000/svg" xmlns:xlink="http://www.w3.org/1999/xlink">
<g id="graph0" class="graph" transform="scale(1 1) rotate(0) translate(4 216)">
<title>factory::CPU_server&lt; T &gt;</title>
<polygon fill="white" stroke="none" points="-4,4 -4,-216 134,-216 134,4 -4,4"/>
<!-- Node1 -->
<g id="node1" class="node"><title>Node1</title>
<polygon fill="#bfbfbf" stroke="black" points="-0.5,-0.5 -0.5,-19.5 130.5,-19.5 130.5,-0.5 -0.5,-0.5"/>
<text text-anchor="middle" x="65" y="-7.5" font-family="Helvetica,sans-Serif" font-size="10.00">factory::CPU_server&lt; T &gt;</text>
</g>
<!-- Node2 -->
<g id="node2" class="node"><title>Node2</title>
<g id="a_node2"><a xlink:href="structfactory_1_1Basic__CPU__server.html" target="_top" xlink:title="factory::Basic_CPU\l_server\&lt; T \&gt;">
<polygon fill="white" stroke="black" points="13,-57 13,-87 117,-87 117,-57 13,-57"/>
<text text-anchor="start" x="21" y="-75" font-family="Helvetica,sans-Serif" font-size="10.00">factory::Basic_CPU</text>
<text text-anchor="middle" x="65" y="-64" font-family="Helvetica,sans-Serif" font-size="10.00">_server&lt; T &gt;</text>
</a>
</g>
</g>
<!-- Node2&#45;&gt;Node1 -->
<g id="edge1" class="edge"><title>Node2&#45;&gt;Node1</title>
<path fill="none" stroke="midnightblue" d="M65,-46.5858C65,-37.0743 65,-26.7864 65,-19.7305"/>
<polygon fill="midnightblue" stroke="midnightblue" points="61.5001,-46.7808 65,-56.7808 68.5001,-46.7809 61.5001,-46.7808"/>
</g>
<!-- Node3 -->
<g id="node3" class="node"><title>Node3</title>
<g id="a_node3"><a xlink:href="structfactory_1_1Server__with__pool.html" target="_top" xlink:title="Standard_server_with\l_pool\&lt; T \&gt;">
<polygon fill="white" stroke="black" points="9.5,-125 9.5,-155 120.5,-155 120.5,-125 9.5,-125"/>
<text text-anchor="start" x="17.5" y="-143" font-family="Helvetica,sans-Serif" font-size="10.00">Standard_server_with</text>
<text text-anchor="middle" x="65" y="-132" font-family="Helvetica,sans-Serif" font-size="10.00">_pool&lt; T &gt;</text>
</a>
</g>
</g>
<!-- Node3&#45;&gt;Node2 -->
<g id="edge2" class="edge"><title>Node3&#45;&gt;Node2</title>
<path fill="none" stroke="midnightblue" d="M65,-114.532C65,-105.361 65,-95.2449 65,-87.2931"/>
<polygon fill="midnightblue" stroke="midnightblue" points="61.5001,-114.679 65,-124.679 68.5001,-114.679 61.5001,-114.679"/>
</g>
<!-- Node4 -->
<g id="node4" class="node"><title>Node4</title>
<g id="a_node4"><a xlink:href="structfactory_1_1Server__base.html" target="_top" xlink:title="factory::Server_base">
<polygon fill="white" stroke="black" points="11.5,-192.5 11.5,-211.5 118.5,-211.5 118.5,-192.5 11.5,-192.5"/>
<text text-anchor="middle" x="65" y="-199.5" font-family="Helvetica,sans-Serif" font-size="10.00">factory::Server_base</text>
</a>
</g>
</g>
<!-- Node4&#45;&gt;Node3 -->
<g id="edge3" class="edge"><title>Node4&#45;&gt;Node3</title>
<path fill="none" stroke="midnightblue" d="M65,-182.371C65,-173.585 65,-163.272 65,-155.141"/>
<polygon fill="midnightblue" stroke="midnightblue" points="61.5001,-182.403 65,-192.403 68.5001,-182.403 61.5001,-182.403"/>
</g>
</g>
</svg>
