<?xml version="1.0" encoding="UTF-8" standalone="no"?>
<!DOCTYPE svg PUBLIC "-//W3C//DTD SVG 1.1//EN"
 "http://www.w3.org/Graphics/SVG/1.1/DTD/svg11.dtd">
<!-- Generated by graphviz version 2.38.0 (20140413.2041)
 -->
<!-- Title: discovery::csv_tuple&lt; separator, Args &gt; Pages: 1 -->
<svg width="281pt" height="61pt"
 viewBox="0.00 0.00 281.00 61.00" xmlns="http://www.w3.org/2000/svg" xmlns:xlink="http://www.w3.org/1999/xlink">
<g id="graph0" class="graph" transform="scale(1 1) rotate(0) translate(4 57)">
<title>discovery::csv_tuple&lt; separator, Args &gt;</title>
<polygon fill="white" stroke="none" points="-4,4 -4,-57 277,-57 277,4 -4,4"/>
<!-- Node1 -->
<g id="node1" class="node"><title>Node1</title>
<polygon fill="#bfbfbf" stroke="black" points="166,-11.5 166,-41.5 273,-41.5 273,-11.5 166,-11.5"/>
<text text-anchor="start" x="174" y="-29.5" font-family="Helvetica,sans-Serif" font-size="10.00">discovery::csv_tuple</text>
<text text-anchor="middle" x="219.5" y="-18.5" font-family="Helvetica,sans-Serif" font-size="10.00">&lt; separator, Args &gt;</text>
</g>
<!-- Node2 -->
<g id="node2" class="node"><title>Node2</title>
<g id="a_node2"><a xlink:href="structdiscovery_1_1basic__csvtuple.html" target="_top" xlink:title="discovery::basic_csvtuple\l\&lt; std::tuple\&lt; Args... \&gt;\l, 0, sizeof...(Args)&#45;1,\l char, separator \&gt;">
<polygon fill="white" stroke="black" points="0,-0.5 0,-52.5 130,-52.5 130,-0.5 0,-0.5"/>
<text text-anchor="start" x="8" y="-40.5" font-family="Helvetica,sans-Serif" font-size="10.00">discovery::basic_csvtuple</text>
<text text-anchor="start" x="8" y="-29.5" font-family="Helvetica,sans-Serif" font-size="10.00">&lt; std::tuple&lt; Args... &gt;</text>
<text text-anchor="start" x="8" y="-18.5" font-family="Helvetica,sans-Serif" font-size="10.00">, 0, sizeof...(Args)&#45;1,</text>
<text text-anchor="middle" x="65" y="-7.5" font-family="Helvetica,sans-Serif" font-size="10.00"> char, separator &gt;</text>
</a>
</g>
</g>
<!-- Node2&#45;&gt;Node1 -->
<g id="edge1" class="edge"><title>Node2&#45;&gt;Node1</title>
<path fill="none" stroke="midnightblue" d="M140.328,-26.5C148.963,-26.5 157.632,-26.5 165.89,-26.5"/>
<polygon fill="midnightblue" stroke="midnightblue" points="140.232,-23.0001 130.232,-26.5 140.232,-30.0001 140.232,-23.0001"/>
</g>
</g>
</svg>
