<?xml version="1.0" encoding="UTF-8" standalone="no"?>
<!DOCTYPE svg PUBLIC "-//W3C//DTD SVG 1.1//EN"
 "http://www.w3.org/Graphics/SVG/1.1/DTD/svg11.dtd">
<!-- Generated by graphviz version 2.38.0 (20140413.2041)
 -->
<!-- Title: factory::Kernel Pages: 1 -->
<svg width="250pt" height="144pt"
 viewBox="0.00 0.00 250.00 144.00" xmlns="http://www.w3.org/2000/svg" xmlns:xlink="http://www.w3.org/1999/xlink">
<g id="graph0" class="graph" transform="scale(1 1) rotate(0) translate(4 140)">
<title>factory::Kernel</title>
<polygon fill="white" stroke="none" points="-4,4 -4,-140 246,-140 246,4 -4,4"/>
<!-- Node1 -->
<g id="node1" class="node"><title>Node1</title>
<polygon fill="#bfbfbf" stroke="black" points="79.5,-1.5 79.5,-20.5 159.5,-20.5 159.5,-1.5 79.5,-1.5"/>
<text text-anchor="middle" x="119.5" y="-8.5" font-family="Helvetica,sans-Serif" font-size="10.00">factory::Kernel</text>
</g>
<!-- Node1&#45;&gt;Node1 -->
<g id="edge4" class="edge"><title>Node1&#45;&gt;Node1</title>
<path fill="none" stroke="#9a32cd" stroke-dasharray="5,2" d="M169.765,-15.218C174.505,-14.3542 177.5,-12.9482 177.5,-11 177.5,-7.88281 169.832,-6.15375 159.619,-5.81281"/>
<polygon fill="#9a32cd" stroke="#9a32cd" points="169.24,-11.7521 159.619,-16.1872 169.906,-18.7204 169.24,-11.7521"/>
<text text-anchor="middle" x="200" y="-14" font-family="Helvetica,sans-Serif" font-size="10.00"> _principal</text>
<text text-anchor="middle" x="200" y="-3" font-family="Helvetica,sans-Serif" font-size="10.00">_parent</text>
</g>
<!-- Node2 -->
<g id="node2" class="node"><title>Node2</title>
<g id="a_node2"><a xlink:href="structfactory_1_1Mobile__kernel.html" target="_top" xlink:title="factory::Mobile_kernel">
<polygon fill="white" stroke="black" points="63,-59.5 63,-78.5 176,-78.5 176,-59.5 63,-59.5"/>
<text text-anchor="middle" x="119.5" y="-66.5" font-family="Helvetica,sans-Serif" font-size="10.00">factory::Mobile_kernel</text>
</a>
</g>
</g>
<!-- Node2&#45;&gt;Node1 -->
<g id="edge1" class="edge"><title>Node2&#45;&gt;Node1</title>
<path fill="none" stroke="midnightblue" d="M119.5,-48.953C119.5,-39.2875 119.5,-28.0312 119.5,-20.5052"/>
<polygon fill="midnightblue" stroke="midnightblue" points="116,-49.25 119.5,-59.25 123,-49.25 116,-49.25"/>
</g>
<!-- Node3 -->
<g id="node3" class="node"><title>Node3</title>
<g id="a_node3"><a xlink:href="structfactory_1_1Basic__kernel.html" target="_top" xlink:title="factory::Basic_kernel">
<polygon fill="white" stroke="black" points="0,-116.5 0,-135.5 109,-135.5 109,-116.5 0,-116.5"/>
<text text-anchor="middle" x="54.5" y="-123.5" font-family="Helvetica,sans-Serif" font-size="10.00">factory::Basic_kernel</text>
</a>
</g>
</g>
<!-- Node3&#45;&gt;Node2 -->
<g id="edge2" class="edge"><title>Node3&#45;&gt;Node2</title>
<path fill="none" stroke="midnightblue" d="M72.5724,-109.708C84.3822,-99.715 99.3811,-87.0237 109.201,-78.7149"/>
<polygon fill="midnightblue" stroke="midnightblue" points="70.0293,-107.275 64.6562,-116.406 74.5509,-112.619 70.0293,-107.275"/>
</g>
<!-- Node4 -->
<g id="node4" class="node"><title>Node4</title>
<g id="a_node4"><a xlink:href="structfactory_1_1Kernel__header.html" target="_top" xlink:title="factory::Kernel_header">
<polygon fill="white" stroke="black" points="127,-116.5 127,-135.5 242,-135.5 242,-116.5 127,-116.5"/>
<text text-anchor="middle" x="184.5" y="-123.5" font-family="Helvetica,sans-Serif" font-size="10.00">factory::Kernel_header</text>
</a>
</g>
</g>
<!-- Node4&#45;&gt;Node2 -->
<g id="edge3" class="edge"><title>Node4&#45;&gt;Node2</title>
<path fill="none" stroke="midnightblue" d="M166.428,-109.708C154.618,-99.715 139.619,-87.0237 129.799,-78.7149"/>
<polygon fill="midnightblue" stroke="midnightblue" points="164.449,-112.619 174.344,-116.406 168.971,-107.275 164.449,-112.619"/>
</g>
</g>
</svg>
