<?xml version="1.0" encoding="UTF-8" standalone="no"?>
<!DOCTYPE svg PUBLIC "-//W3C//DTD SVG 1.1//EN"
 "http://www.w3.org/Graphics/SVG/1.1/DTD/svg11.dtd">
<!-- Generated by graphviz version 2.38.0 (20140413.2041)
 -->
<!-- Title: sys::pathentry Pages: 1 -->
<svg width="159pt" height="152pt"
 viewBox="0.00 0.00 158.50 152.00" xmlns="http://www.w3.org/2000/svg" xmlns:xlink="http://www.w3.org/1999/xlink">
<g id="graph0" class="graph" transform="scale(1 1) rotate(0) translate(4 148)">
<title>sys::pathentry</title>
<polygon fill="white" stroke="none" points="-4,4 -4,-148 154.5,-148 154.5,4 -4,4"/>
<!-- Node1 -->
<g id="node1" class="node"><title>Node1</title>
<polygon fill="#bfbfbf" stroke="black" points="57,-0.5 57,-19.5 136,-19.5 136,-0.5 57,-0.5"/>
<text text-anchor="middle" x="96.5" y="-7.5" font-family="Helvetica,sans-Serif" font-size="10.00">sys::pathentry</text>
</g>
<!-- Node2 -->
<g id="node2" class="node"><title>Node2</title>
<g id="a_node2"><a xlink:href="structsys_1_1direntry.html" target="_top" xlink:title="sys::direntry">
<polygon fill="white" stroke="black" points="0,-67.5 0,-86.5 71,-86.5 71,-67.5 0,-67.5"/>
<text text-anchor="middle" x="35.5" y="-74.5" font-family="Helvetica,sans-Serif" font-size="10.00">sys::direntry</text>
</a>
</g>
</g>
<!-- Node2&#45;&gt;Node1 -->
<g id="edge1" class="edge"><title>Node2&#45;&gt;Node1</title>
<path fill="none" stroke="midnightblue" d="M50.8581,-59.6348C62.7879,-46.9228 78.859,-29.7978 88.4036,-19.6273"/>
<polygon fill="midnightblue" stroke="midnightblue" points="48.0177,-57.5468 43.7267,-67.2338 53.1221,-62.337 48.0177,-57.5468"/>
</g>
<!-- Node3 -->
<g id="node3" class="node"><title>Node3</title>
<polygon fill="white" stroke="#bfbfbf" points="3,-124.5 3,-143.5 68,-143.5 68,-124.5 3,-124.5"/>
<text text-anchor="middle" x="35.5" y="-131.5" font-family="Helvetica,sans-Serif" font-size="10.00">dirent_type</text>
</g>
<!-- Node3&#45;&gt;Node2 -->
<g id="edge2" class="edge"><title>Node3&#45;&gt;Node2</title>
<path fill="none" stroke="midnightblue" d="M35.5,-114.117C35.5,-104.817 35.5,-94.0557 35.5,-86.7149"/>
<polygon fill="midnightblue" stroke="midnightblue" points="32.0001,-114.406 35.5,-124.406 39.0001,-114.406 32.0001,-114.406"/>
</g>
<!-- Node4 -->
<g id="node4" class="node"><title>Node4</title>
<g id="a_node4"><a xlink:href="structsys_1_1path.html" target="_top" xlink:title="sys::path">
<polygon fill="white" stroke="black" points="89,-67.5 89,-86.5 146,-86.5 146,-67.5 89,-67.5"/>
<text text-anchor="middle" x="117.5" y="-74.5" font-family="Helvetica,sans-Serif" font-size="10.00">sys::path</text>
</a>
</g>
</g>
<!-- Node4&#45;&gt;Node1 -->
<g id="edge3" class="edge"><title>Node4&#45;&gt;Node1</title>
<path fill="none" stroke="#9a32cd" stroke-dasharray="5,2" d="M111.495,-57.4145C107.481,-44.9883 102.385,-29.2166 99.2873,-19.6273"/>
<polygon fill="#9a32cd" stroke="#9a32cd" points="108.263,-58.7941 114.668,-67.2338 114.924,-56.6421 108.263,-58.7941"/>
<text text-anchor="middle" x="129" y="-41" font-family="Helvetica,sans-Serif" font-size="10.00"> _dirname</text>
</g>
</g>
</svg>
