<?xml version="1.0" encoding="UTF-8" standalone="no"?>
<!DOCTYPE svg PUBLIC "-//W3C//DTD SVG 1.1//EN"
 "http://www.w3.org/Graphics/SVG/1.1/DTD/svg11.dtd">
<!-- Generated by graphviz version 2.38.0 (20140413.2041)
 -->
<!-- Title: sys::bits::basic_uint&lt; T &gt;::xd_pair Pages: 1 -->
<svg width="136pt" height="117pt"
 viewBox="0.00 0.00 136.00 117.00" xmlns="http://www.w3.org/2000/svg" xmlns:xlink="http://www.w3.org/1999/xlink">
<g id="graph0" class="graph" transform="scale(1 1) rotate(0) translate(4 113)">
<title>sys::bits::basic_uint&lt; T &gt;::xd_pair</title>
<polygon fill="white" stroke="none" points="-4,4 -4,-113 132,-113 132,4 -4,4"/>
<!-- Node1 -->
<g id="node1" class="node"><title>Node1</title>
<polygon fill="#bfbfbf" stroke="black" points="12,-0.5 12,-30.5 116,-30.5 116,-0.5 12,-0.5"/>
<text text-anchor="start" x="20" y="-18.5" font-family="Helvetica,sans-Serif" font-size="10.00">sys::bits::basic_uint</text>
<text text-anchor="middle" x="64" y="-7.5" font-family="Helvetica,sans-Serif" font-size="10.00">&lt; T &gt;::xd_pair</text>
</g>
<!-- Node2 -->
<g id="node2" class="node"><title>Node2</title>
<g id="a_node2"><a xlink:href="structsys_1_1bits_1_1basic__uint.html" target="_top" xlink:title="sys::bits::basic_uint\&lt; T \&gt;">
<polygon fill="white" stroke="black" points="0,-89.5 0,-108.5 128,-108.5 128,-89.5 0,-89.5"/>
<text text-anchor="middle" x="64" y="-96.5" font-family="Helvetica,sans-Serif" font-size="10.00">sys::bits::basic_uint&lt; T &gt;</text>
</a>
</g>
</g>
<!-- Node2&#45;&gt;Node1 -->
<g id="edge1" class="edge"><title>Node2&#45;&gt;Node1</title>
<path fill="none" stroke="#9a32cd" stroke-dasharray="5,2" d="M64,-79.229C64,-64.4075 64,-44.0505 64,-30.5974"/>
<polygon fill="#9a32cd" stroke="#9a32cd" points="60.5001,-79.278 64,-89.2781 67.5001,-79.2781 60.5001,-79.278"/>
<text text-anchor="middle" x="68.5" y="-63" font-family="Helvetica,sans-Serif" font-size="10.00"> x</text>
<text text-anchor="middle" x="68.5" y="-52" font-family="Helvetica,sans-Serif" font-size="10.00">d</text>
</g>
</g>
</svg>
