<?xml version="1.0" encoding="UTF-8" standalone="no"?>
<!DOCTYPE svg PUBLIC "-//W3C//DTD SVG 1.1//EN"
 "http://www.w3.org/Graphics/SVG/1.1/DTD/svg11.dtd">
<!-- Generated by graphviz version 2.36.0 (20140111.2315)
 -->
<!-- Title: factory::Kernel_header Pages: 1 -->
<svg width="702pt" height="432pt"
 viewBox="0.00 0.00 702.00 432.00" xmlns="http://www.w3.org/2000/svg" xmlns:xlink="http://www.w3.org/1999/xlink">
<g id="graph0" class="graph" transform="scale(1 1) rotate(0) translate(4 428)">
<title>factory::Kernel_header</title>
<polygon fill="white" stroke="none" points="-4,4 -4,-428 698,-428 698,4 -4,4"/>
<!-- Node1 -->
<g id="node1" class="node"><title>Node1</title>
<polygon fill="#bfbfbf" stroke="black" points="0.5,-158.5 0.5,-177.5 115.5,-177.5 115.5,-158.5 0.5,-158.5"/>
<text text-anchor="middle" x="58" y="-165.5" font-family="Helvetica,sans-Serif" font-size="10.00">factory::Kernel_header</text>
</g>
<!-- Node2 -->
<g id="node2" class="node"><title>Node2</title>
<g id="a_node2"><a xlink:href="structfactory_1_1Mobile__kernel.html" target="_top" xlink:title="factory::Mobile_kernel">
<polygon fill="white" stroke="black" points="152.5,-158.5 152.5,-177.5 265.5,-177.5 265.5,-158.5 152.5,-158.5"/>
<text text-anchor="middle" x="209" y="-165.5" font-family="Helvetica,sans-Serif" font-size="10.00">factory::Mobile_kernel</text>
</a>
</g>
</g>
<!-- Node1&#45;&gt;Node2 -->
<g id="edge1" class="edge"><title>Node1&#45;&gt;Node2</title>
<path fill="none" stroke="midnightblue" d="M126.012,-168C134.829,-168 143.788,-168 152.387,-168"/>
<polygon fill="midnightblue" stroke="midnightblue" points="125.756,-164.5 115.756,-168 125.756,-171.5 125.756,-164.5"/>
</g>
<!-- Node3 -->
<g id="node3" class="node"><title>Node3</title>
<g id="a_node3"><a xlink:href="structfactory_1_1Kernel.html" target="_top" xlink:title="factory::Kernel">
<polygon fill="white" stroke="black" points="302,-158.5 302,-177.5 382,-177.5 382,-158.5 302,-158.5"/>
<text text-anchor="middle" x="342" y="-165.5" font-family="Helvetica,sans-Serif" font-size="10.00">factory::Kernel</text>
</a>
</g>
</g>
<!-- Node2&#45;&gt;Node3 -->
<g id="edge2" class="edge"><title>Node2&#45;&gt;Node3</title>
<path fill="none" stroke="midnightblue" d="M275.579,-168C284.487,-168 293.392,-168 301.637,-168"/>
<polygon fill="midnightblue" stroke="midnightblue" points="275.556,-164.5 265.556,-168 275.556,-171.5 275.556,-164.5"/>
</g>
<!-- Node4 -->
<g id="node4" class="node"><title>Node4</title>
<g id="a_node4"><a xlink:href="structBig__kernel.html" target="_top" xlink:title="Big_kernel\&lt; Size \&gt;">
<polygon fill="white" stroke="black" points="427,-404.5 427,-423.5 527,-423.5 527,-404.5 427,-404.5"/>
<text text-anchor="middle" x="477" y="-411.5" font-family="Helvetica,sans-Serif" font-size="10.00">Big_kernel&lt; Size &gt;</text>
</a>
</g>
</g>
<!-- Node3&#45;&gt;Node4 -->
<g id="edge3" class="edge"><title>Node3&#45;&gt;Node4</title>
<path fill="none" stroke="midnightblue" d="M343.793,-187.943C346.614,-231.648 359.464,-336.612 418,-395 421.901,-398.891 426.61,-401.985 431.639,-404.446"/>
<polygon fill="midnightblue" stroke="midnightblue" points="347.278,-187.571 343.252,-177.771 340.288,-187.943 347.278,-187.571"/>
</g>
<!-- Node5 -->
<g id="node5" class="node"><title>Node5</title>
<g id="a_node5"><a xlink:href="structDummy__kernel.html" target="_top" xlink:title="Dummy_kernel">
<polygon fill="white" stroke="black" points="435.5,-366.5 435.5,-385.5 518.5,-385.5 518.5,-366.5 435.5,-366.5"/>
<text text-anchor="middle" x="477" y="-373.5" font-family="Helvetica,sans-Serif" font-size="10.00">Dummy_kernel</text>
</a>
</g>
</g>
<!-- Node3&#45;&gt;Node5 -->
<g id="edge4" class="edge"><title>Node3&#45;&gt;Node5</title>
<path fill="none" stroke="midnightblue" d="M345.371,-188.205C350.94,-226.575 368.364,-310.312 418,-357 422.94,-361.646 429.034,-365.157 435.398,-367.809"/>
<polygon fill="midnightblue" stroke="midnightblue" points="348.782,-187.3 344.001,-177.845 341.843,-188.218 348.782,-187.3"/>
</g>
<!-- Node6 -->
<g id="node6" class="node"><title>Node6</title>
<g id="a_node6"><a xlink:href="structfactory_1_1Map.html" target="_top" xlink:title="factory::Map\&lt; F, G, I \&gt;">
<polygon fill="white" stroke="black" points="418,-328.5 418,-347.5 536,-347.5 536,-328.5 418,-328.5"/>
<text text-anchor="middle" x="477" y="-335.5" font-family="Helvetica,sans-Serif" font-size="10.00">factory::Map&lt; F, G, I &gt;</text>
</a>
</g>
</g>
<!-- Node3&#45;&gt;Node6 -->
<g id="edge5" class="edge"><title>Node3&#45;&gt;Node6</title>
<path fill="none" stroke="midnightblue" d="M347.612,-187.474C356.121,-219.254 377.258,-282.295 418,-318 422.966,-322.352 428.929,-325.77 435.115,-328.45"/>
<polygon fill="midnightblue" stroke="midnightblue" points="350.967,-186.467 345.118,-177.633 344.182,-188.186 350.967,-186.467"/>
</g>
<!-- Node7 -->
<g id="node7" class="node"><title>Node7</title>
<g id="a_node7"><a xlink:href="structfactory_1_1Map_1_1Worker.html" target="_top" xlink:title="factory::Map\&lt; F, G,\l I \&gt;::Worker">
<polygon fill="white" stroke="black" points="425.5,-279 425.5,-309 528.5,-309 528.5,-279 425.5,-279"/>
<text text-anchor="start" x="433.5" y="-297" font-family="Helvetica,sans-Serif" font-size="10.00">factory::Map&lt; F, G,</text>
<text text-anchor="middle" x="477" y="-286" font-family="Helvetica,sans-Serif" font-size="10.00"> I &gt;::Worker</text>
</a>
</g>
</g>
<!-- Node3&#45;&gt;Node7 -->
<g id="edge6" class="edge"><title>Node3&#45;&gt;Node7</title>
<path fill="none" stroke="midnightblue" d="M352.687,-186.448C365.163,-208.66 388.761,-245.858 418,-269 422.729,-272.743 428.103,-276.031 433.627,-278.888"/>
<polygon fill="midnightblue" stroke="midnightblue" points="355.758,-184.769 347.897,-177.666 349.613,-188.121 355.758,-184.769"/>
</g>
<!-- Node8 -->
<g id="node8" class="node"><title>Node8</title>
<g id="a_node8"><a xlink:href="classfactory_1_1Notification.html" target="_top" xlink:title="factory::Notification">
<polygon fill="white" stroke="black" points="426,-240.5 426,-259.5 528,-259.5 528,-240.5 426,-240.5"/>
<text text-anchor="middle" x="477" y="-247.5" font-family="Helvetica,sans-Serif" font-size="10.00">factory::Notification</text>
</a>
</g>
</g>
<!-- Node3&#45;&gt;Node8 -->
<g id="edge7" class="edge"><title>Node3&#45;&gt;Node8</title>
<path fill="none" stroke="midnightblue" d="M359.408,-185.029C373.736,-199.054 395.681,-218.585 418,-231 424.667,-234.708 432.172,-237.834 439.516,-240.411"/>
<polygon fill="midnightblue" stroke="midnightblue" points="361.819,-182.49 352.278,-177.884 356.864,-187.435 361.819,-182.49"/>
</g>
<!-- Node9 -->
<g id="node9" class="node"><title>Node9</title>
<g id="a_node9"><a xlink:href="structGood__kernel.html" target="_top" xlink:title="Good_kernel">
<polygon fill="white" stroke="black" points="441.5,-202.5 441.5,-221.5 512.5,-221.5 512.5,-202.5 441.5,-202.5"/>
<text text-anchor="middle" x="477" y="-209.5" font-family="Helvetica,sans-Serif" font-size="10.00">Good_kernel</text>
</a>
</g>
</g>
<!-- Node3&#45;&gt;Node9 -->
<g id="edge8" class="edge"><title>Node3&#45;&gt;Node9</title>
<path fill="none" stroke="midnightblue" d="M381.438,-180.716C402.414,-187.656 427.951,-196.104 447.197,-202.471"/>
<polygon fill="midnightblue" stroke="midnightblue" points="382.452,-177.365 371.859,-177.547 380.254,-184.011 382.452,-177.365"/>
</g>
<!-- Node12 -->
<g id="node12" class="node"><title>Node12</title>
<g id="a_node12"><a xlink:href="structKernel__that__carries__its__parent.html" target="_top" xlink:title="Kernel_that_carries\l_its_parent">
<polygon fill="white" stroke="black" points="426.5,-153 426.5,-183 527.5,-183 527.5,-153 426.5,-153"/>
<text text-anchor="start" x="434.5" y="-171" font-family="Helvetica,sans-Serif" font-size="10.00">Kernel_that_carries</text>
<text text-anchor="middle" x="477" y="-160" font-family="Helvetica,sans-Serif" font-size="10.00">_its_parent</text>
</a>
</g>
</g>
<!-- Node3&#45;&gt;Node12 -->
<g id="edge11" class="edge"><title>Node3&#45;&gt;Node12</title>
<path fill="none" stroke="midnightblue" d="M392.497,-168C403.51,-168 415.191,-168 426.216,-168"/>
<polygon fill="midnightblue" stroke="midnightblue" points="392.185,-164.5 382.185,-168 392.185,-171.5 392.185,-164.5"/>
</g>
<!-- Node13 -->
<g id="node13" class="node"><title>Node13</title>
<g id="a_node13"><a xlink:href="structMain.html" target="_top" xlink:title="Main\&lt; Address \&gt;">
<polygon fill="white" stroke="black" points="431,-114.5 431,-133.5 523,-133.5 523,-114.5 431,-114.5"/>
<text text-anchor="middle" x="477" y="-121.5" font-family="Helvetica,sans-Serif" font-size="10.00">Main&lt; Address &gt;</text>
</a>
</g>
</g>
<!-- Node3&#45;&gt;Node13 -->
<g id="edge12" class="edge"><title>Node3&#45;&gt;Node13</title>
<path fill="none" stroke="midnightblue" d="M367.829,-154.389C385.503,-147.202 409.754,-138.835 430.816,-132.516"/>
<polygon fill="midnightblue" stroke="midnightblue" points="366.09,-151.325 358.257,-158.459 368.829,-157.767 366.09,-151.325"/>
</g>
<!-- Node3&#45;&gt;Node13 -->
<g id="edge13" class="edge"><title>Node3&#45;&gt;Node13</title>
<path fill="none" stroke="midnightblue" d="M391.969,-158.337C416.191,-150.925 443.754,-141.134 460.507,-133.647"/>
<polygon fill="midnightblue" stroke="midnightblue" points="390.769,-155.042 382.185,-161.253 392.768,-161.751 390.769,-155.042"/>
</g>
<!-- Node14 -->
<g id="node14" class="node"><title>Node14</title>
<g id="a_node14"><a xlink:href="structSender.html" target="_top" xlink:title="Sender">
<polygon fill="white" stroke="black" points="453.5,-76.5 453.5,-95.5 500.5,-95.5 500.5,-76.5 453.5,-76.5"/>
<text text-anchor="middle" x="477" y="-83.5" font-family="Helvetica,sans-Serif" font-size="10.00">Sender</text>
</a>
</g>
</g>
<!-- Node3&#45;&gt;Node14 -->
<g id="edge14" class="edge"><title>Node3&#45;&gt;Node14</title>
<path fill="none" stroke="midnightblue" d="M359.408,-150.971C373.736,-136.946 395.681,-117.415 418,-105 429.019,-98.8707 442.327,-94.3343 453.414,-91.2342"/>
<polygon fill="midnightblue" stroke="midnightblue" points="356.864,-148.565 352.278,-158.116 361.819,-153.51 356.864,-148.565"/>
</g>
<!-- Node15 -->
<g id="node15" class="node"><title>Node15</title>
<g id="a_node15"><a xlink:href="structSleepy__kernel.html" target="_top" xlink:title="Sleepy_kernel">
<polygon fill="white" stroke="black" points="438,-38.5 438,-57.5 516,-57.5 516,-38.5 438,-38.5"/>
<text text-anchor="middle" x="477" y="-45.5" font-family="Helvetica,sans-Serif" font-size="10.00">Sleepy_kernel</text>
</a>
</g>
</g>
<!-- Node3&#45;&gt;Node15 -->
<g id="edge15" class="edge"><title>Node3&#45;&gt;Node15</title>
<path fill="none" stroke="midnightblue" d="M352.164,-149.45C364.249,-126.829 387.591,-88.9084 418,-67 423.932,-62.7263 430.88,-59.3761 437.865,-56.762"/>
<polygon fill="midnightblue" stroke="midnightblue" points="349.028,-147.895 347.552,-158.386 355.249,-151.105 349.028,-147.895"/>
</g>
<!-- Node16 -->
<g id="node16" class="node"><title>Node16</title>
<g id="a_node16"><a xlink:href="structTest__socket.html" target="_top" xlink:title="Test_socket">
<polygon fill="white" stroke="black" points="441.5,-0.5 441.5,-19.5 512.5,-19.5 512.5,-0.5 441.5,-0.5"/>
<text text-anchor="middle" x="477" y="-7.5" font-family="Helvetica,sans-Serif" font-size="10.00">Test_socket</text>
</a>
</g>
</g>
<!-- Node3&#45;&gt;Node16 -->
<g id="edge16" class="edge"><title>Node3&#45;&gt;Node16</title>
<path fill="none" stroke="midnightblue" d="M346.87,-148.467C355.134,-116.424 377.162,-54.1383 418,-20 424.666,-14.4273 433.013,-10.4752 441.279,-7.9731"/>
<polygon fill="midnightblue" stroke="midnightblue" points="343.406,-147.907 344.513,-158.444 350.219,-149.516 343.406,-147.907"/>
</g>
<!-- Node3&#45;&gt;Node16 -->
<g id="edge17" class="edge"><title>Node3&#45;&gt;Node16</title>
<path fill="none" stroke="midnightblue" d="M350.392,-148.536C360.613,-120.073 381.996,-68.0975 418,-38 429.707,-28.2138 446.595,-23.4254 459.131,-19.5068"/>
<polygon fill="midnightblue" stroke="midnightblue" points="347.01,-147.604 347.014,-158.199 353.618,-149.914 347.01,-147.604"/>
</g>
<!-- Node10 -->
<g id="node10" class="node"><title>Node10</title>
<g id="a_node10"><a xlink:href="structKernel__that__reads__more__than__writes.html" target="_top" xlink:title="Kernel_that_reads_more\l_than_writes">
<polygon fill="white" stroke="black" points="572,-221 572,-251 694,-251 694,-221 572,-221"/>
<text text-anchor="start" x="580" y="-239" font-family="Helvetica,sans-Serif" font-size="10.00">Kernel_that_reads_more</text>
<text text-anchor="middle" x="633" y="-228" font-family="Helvetica,sans-Serif" font-size="10.00">_than_writes</text>
</a>
</g>
</g>
<!-- Node9&#45;&gt;Node10 -->
<g id="edge9" class="edge"><title>Node9&#45;&gt;Node10</title>
<path fill="none" stroke="midnightblue" d="M522.796,-218.981C538.115,-221.369 555.508,-224.079 571.838,-226.624"/>
<polygon fill="midnightblue" stroke="midnightblue" points="522.98,-215.468 512.561,-217.386 521.902,-222.384 522.98,-215.468"/>
</g>
<!-- Node11 -->
<g id="node11" class="node"><title>Node11</title>
<g id="a_node11"><a xlink:href="structKernel__that__writes__more__than__reads.html" target="_top" xlink:title="Kernel_that_writes\l_more_than_reads">
<polygon fill="white" stroke="black" points="584,-172 584,-202 682,-202 682,-172 584,-172"/>
<text text-anchor="start" x="592" y="-190" font-family="Helvetica,sans-Serif" font-size="10.00">Kernel_that_writes</text>
<text text-anchor="middle" x="633" y="-179" font-family="Helvetica,sans-Serif" font-size="10.00">_more_than_reads</text>
</a>
</g>
</g>
<!-- Node9&#45;&gt;Node11 -->
<g id="edge10" class="edge"><title>Node9&#45;&gt;Node11</title>
<path fill="none" stroke="midnightblue" d="M522.557,-204.767C541.757,-201.65 564.249,-197.998 583.834,-194.819"/>
<polygon fill="midnightblue" stroke="midnightblue" points="521.871,-201.332 512.561,-206.39 522.992,-208.242 521.871,-201.332"/>
</g>
</g>
</svg>
