<?xml version="1.0" encoding="UTF-8" standalone="no"?>
<!DOCTYPE svg PUBLIC "-//W3C//DTD SVG 1.1//EN"
 "http://www.w3.org/Graphics/SVG/1.1/DTD/svg11.dtd">
<!-- Generated by graphviz version 2.38.0 (20140413.2041)
 -->
<!-- Title: stdx::basic_packetbuf&lt; Ch, Tr &gt; Pages: 1 -->
<svg width="247pt" height="240pt"
 viewBox="0.00 0.00 246.50 240.00" xmlns="http://www.w3.org/2000/svg" xmlns:xlink="http://www.w3.org/1999/xlink">
<g id="graph0" class="graph" transform="scale(1 1) rotate(0) translate(4 236)">
<title>stdx::basic_packetbuf&lt; Ch, Tr &gt;</title>
<polygon fill="white" stroke="none" points="-4,4 -4,-236 242.5,-236 242.5,4 -4,4"/>
<!-- Node1 -->
<g id="node1" class="node"><title>Node1</title>
<polygon fill="#bfbfbf" stroke="black" points="61.5,-134.5 61.5,-164.5 174.5,-164.5 174.5,-134.5 61.5,-134.5"/>
<text text-anchor="start" x="69.5" y="-152.5" font-family="Helvetica,sans-Serif" font-size="10.00">stdx::basic_packetbuf</text>
<text text-anchor="middle" x="118" y="-141.5" font-family="Helvetica,sans-Serif" font-size="10.00">&lt; Ch, Tr &gt;</text>
</g>
<!-- Node3 -->
<g id="node3" class="node"><title>Node3</title>
<g id="a_node3"><a xlink:href="classsys_1_1basic__fildesbuf.html" target="_top" xlink:title="sys::basic_fildesbuf\l\&lt; Ch, Tr \&gt;">
<polygon fill="white" stroke="black" points="3,-67.5 3,-97.5 107,-97.5 107,-67.5 3,-67.5"/>
<text text-anchor="start" x="11" y="-85.5" font-family="Helvetica,sans-Serif" font-size="10.00">sys::basic_fildesbuf</text>
<text text-anchor="middle" x="55" y="-74.5" font-family="Helvetica,sans-Serif" font-size="10.00">&lt; Ch, Tr &gt;</text>
</a>
</g>
</g>
<!-- Node1&#45;&gt;Node3 -->
<g id="edge2" class="edge"><title>Node1&#45;&gt;Node3</title>
<path fill="none" stroke="midnightblue" d="M97.185,-127.024C87.7986,-117.34 76.9763,-106.174 68.6434,-97.5765"/>
<polygon fill="midnightblue" stroke="midnightblue" points="94.8569,-129.651 104.33,-134.396 99.8834,-124.779 94.8569,-129.651"/>
</g>
<!-- Node5 -->
<g id="node5" class="node"><title>Node5</title>
<g id="a_node5"><a xlink:href="structsys_1_1basic__shmembuf.html" target="_top" xlink:title="sys::basic_shmembuf\l\&lt; Ch, Tr \&gt;">
<polygon fill="white" stroke="black" points="125.5,-67.5 125.5,-97.5 238.5,-97.5 238.5,-67.5 125.5,-67.5"/>
<text text-anchor="start" x="133.5" y="-85.5" font-family="Helvetica,sans-Serif" font-size="10.00">sys::basic_shmembuf</text>
<text text-anchor="middle" x="182" y="-74.5" font-family="Helvetica,sans-Serif" font-size="10.00">&lt; Ch, Tr &gt;</text>
</a>
</g>
</g>
<!-- Node1&#45;&gt;Node5 -->
<g id="edge4" class="edge"><title>Node1&#45;&gt;Node5</title>
<path fill="none" stroke="midnightblue" d="M139.145,-127.024C148.681,-117.34 159.675,-106.174 168.14,-97.5765"/>
<polygon fill="midnightblue" stroke="midnightblue" points="136.409,-124.815 131.887,-134.396 141.397,-129.726 136.409,-124.815"/>
</g>
<!-- Node2 -->
<g id="node2" class="node"><title>Node2</title>
<polygon fill="white" stroke="#bfbfbf" points="64,-201.5 64,-231.5 172,-231.5 172,-201.5 64,-201.5"/>
<text text-anchor="start" x="72" y="-219.5" font-family="Helvetica,sans-Serif" font-size="10.00">std::basic_streambuf</text>
<text text-anchor="middle" x="118" y="-208.5" font-family="Helvetica,sans-Serif" font-size="10.00">&lt; Ch, Tr &gt;</text>
</g>
<!-- Node2&#45;&gt;Node1 -->
<g id="edge1" class="edge"><title>Node2&#45;&gt;Node1</title>
<path fill="none" stroke="midnightblue" d="M118,-191.108C118,-182.154 118,-172.323 118,-164.577"/>
<polygon fill="midnightblue" stroke="midnightblue" points="114.5,-191.396 118,-201.396 121.5,-191.396 114.5,-191.396"/>
</g>
<!-- Node4 -->
<g id="node4" class="node"><title>Node4</title>
<g id="a_node4"><a xlink:href="structfactory_1_1basic__kernelbuf.html" target="_top" xlink:title="basic_kernelbuf\&lt; sys\l::fildesbuf \&gt;">
<polygon fill="white" stroke="black" points="0,-0.5 0,-30.5 110,-30.5 110,-0.5 0,-0.5"/>
<text text-anchor="start" x="8" y="-18.5" font-family="Helvetica,sans-Serif" font-size="10.00">basic_kernelbuf&lt; sys</text>
<text text-anchor="middle" x="55" y="-7.5" font-family="Helvetica,sans-Serif" font-size="10.00">::fildesbuf &gt;</text>
</a>
</g>
</g>
<!-- Node3&#45;&gt;Node4 -->
<g id="edge3" class="edge"><title>Node3&#45;&gt;Node4</title>
<path fill="none" stroke="midnightblue" d="M55,-57.1081C55,-48.1539 55,-38.3227 55,-30.5765"/>
<polygon fill="midnightblue" stroke="midnightblue" points="51.5001,-57.3959 55,-67.396 58.5001,-57.396 51.5001,-57.3959"/>
</g>
</g>
</svg>
