<?xml version="1.0" encoding="UTF-8" standalone="no"?>
<!DOCTYPE svg PUBLIC "-//W3C//DTD SVG 1.1//EN"
 "http://www.w3.org/Graphics/SVG/1.1/DTD/svg11.dtd">
<!-- Generated by graphviz version 2.36.0 (20140111.2315)
 -->
<!-- Title: factory::Process_iserver&lt; T, Router &gt; Pages: 1 -->
<svg width="183pt" height="268pt"
 viewBox="0.00 0.00 183.00 268.00" xmlns="http://www.w3.org/2000/svg" xmlns:xlink="http://www.w3.org/1999/xlink">
<g id="graph0" class="graph" transform="scale(1 1) rotate(0) translate(4 264)">
<title>factory::Process_iserver&lt; T, Router &gt;</title>
<polygon fill="white" stroke="none" points="-4,4 -4,-264 179,-264 179,4 -4,4"/>
<!-- Node1 -->
<g id="node1" class="node"><title>Node1</title>
<polygon fill="#bfbfbf" stroke="black" points="39.5,-1 39.5,-31 162.5,-31 162.5,-1 39.5,-1"/>
<text text-anchor="start" x="47.5" y="-19" font-family="Helvetica,sans-Serif" font-size="10.00">factory::Process_iserver</text>
<text text-anchor="middle" x="101" y="-8" font-family="Helvetica,sans-Serif" font-size="10.00">&lt; T, Router &gt;</text>
</g>
<!-- Node2 -->
<g id="node2" class="node"><title>Node2</title>
<g id="a_node2"><a xlink:href="structfactory_1_1Proxy__server.html" target="_top" xlink:title="factory::Proxy_server\l\&lt; T, Process_rserver\l\&lt; T, Router \&gt; \&gt;">
<polygon fill="white" stroke="black" points="46,-70.5 46,-111.5 156,-111.5 156,-70.5 46,-70.5"/>
<text text-anchor="start" x="54" y="-99.5" font-family="Helvetica,sans-Serif" font-size="10.00">factory::Proxy_server</text>
<text text-anchor="start" x="54" y="-88.5" font-family="Helvetica,sans-Serif" font-size="10.00">&lt; T, Process_rserver</text>
<text text-anchor="middle" x="101" y="-77.5" font-family="Helvetica,sans-Serif" font-size="10.00">&lt; T, Router &gt; &gt;</text>
</a>
</g>
</g>
<!-- Node2&#45;&gt;Node1 -->
<g id="edge1" class="edge"><title>Node2&#45;&gt;Node1</title>
<path fill="none" stroke="midnightblue" d="M101,-60.3718C101,-50.335 101,-39.579 101,-31.2892"/>
<polygon fill="midnightblue" stroke="midnightblue" points="97.5001,-60.4373 101,-70.4373 104.5,-60.4374 97.5001,-60.4373"/>
</g>
<!-- Node3 -->
<g id="node3" class="node"><title>Node3</title>
<g id="a_node3"><a xlink:href="structfactory_1_1Server__with__pool.html" target="_top" xlink:title="Proxy_server_base\&lt;\l T, Process_rserver\l\&lt; T, Router \&gt; &#160;\&gt;">
<polygon fill="white" stroke="black" points="47.5,-150.5 47.5,-191.5 154.5,-191.5 154.5,-150.5 47.5,-150.5"/>
<text text-anchor="start" x="55.5" y="-179.5" font-family="Helvetica,sans-Serif" font-size="10.00">Proxy_server_base&lt;</text>
<text text-anchor="start" x="55.5" y="-168.5" font-family="Helvetica,sans-Serif" font-size="10.00"> T, Process_rserver</text>
<text text-anchor="middle" x="101" y="-157.5" font-family="Helvetica,sans-Serif" font-size="10.00">&lt; T, Router &gt; &gt;</text>
</a>
</g>
</g>
<!-- Node3&#45;&gt;Node2 -->
<g id="edge2" class="edge"><title>Node3&#45;&gt;Node2</title>
<path fill="none" stroke="midnightblue" d="M101,-140.036C101,-130.531 101,-120.267 101,-111.676"/>
<polygon fill="midnightblue" stroke="midnightblue" points="97.5001,-140.317 101,-150.317 104.5,-140.317 97.5001,-140.317"/>
</g>
<!-- Node4 -->
<g id="node4" class="node"><title>Node4</title>
<g id="a_node4"><a xlink:href="structfactory_1_1Server__base.html" target="_top" xlink:title="factory::Server_base">
<polygon fill="white" stroke="black" points="-0.5,-240.5 -0.5,-259.5 106.5,-259.5 106.5,-240.5 -0.5,-240.5"/>
<text text-anchor="middle" x="53" y="-247.5" font-family="Helvetica,sans-Serif" font-size="10.00">factory::Server_base</text>
</a>
</g>
</g>
<!-- Node4&#45;&gt;Node3 -->
<g id="edge3" class="edge"><title>Node4&#45;&gt;Node3</title>
<path fill="none" stroke="midnightblue" d="M63.6344,-231.941C71.0368,-220.066 80.9299,-204.196 88.6768,-191.768"/>
<polygon fill="midnightblue" stroke="midnightblue" points="60.6402,-230.128 58.3202,-240.465 66.5805,-233.831 60.6402,-230.128"/>
</g>
<!-- Node5 -->
<g id="node5" class="node"><title>Node5</title>
<polygon fill="white" stroke="#bfbfbf" points="125,-240.5 125,-259.5 175,-259.5 175,-240.5 125,-240.5"/>
<text text-anchor="middle" x="150" y="-247.5" font-family="Helvetica,sans-Serif" font-size="10.00">Kernels</text>
</g>
<!-- Node5&#45;&gt;Node3 -->
<g id="edge4" class="edge"><title>Node5&#45;&gt;Node3</title>
<path fill="none" stroke="#9a32cd" stroke-dasharray="5,2" d="M139.144,-231.941C131.587,-220.066 121.488,-204.196 113.58,-191.768"/>
<polygon fill="#9a32cd" stroke="#9a32cd" points="136.247,-233.908 144.569,-240.465 142.153,-230.15 136.247,-233.908"/>
<text text-anchor="middle" x="153" y="-213.5" font-family="Helvetica,sans-Serif" font-size="10.00"> _kernels</text>
</g>
</g>
</svg>
