<?xml version="1.0" encoding="UTF-8" standalone="no"?>
<!DOCTYPE svg PUBLIC "-//W3C//DTD SVG 1.1//EN"
 "http://www.w3.org/Graphics/SVG/1.1/DTD/svg11.dtd">
<!-- Generated by graphviz version 2.36.0 (20140111.2315)
 -->
<!-- Title: factory::basic_socket_pipeline&lt; T, Handler &gt; Pages: 1 -->
<svg width="126pt" height="164pt"
 viewBox="0.00 0.00 126.00 164.00" xmlns="http://www.w3.org/2000/svg" xmlns:xlink="http://www.w3.org/1999/xlink">
<g id="graph0" class="graph" transform="scale(1 1) rotate(0) translate(4 160)">
<title>factory::basic_socket_pipeline&lt; T, Handler &gt;</title>
<polygon fill="white" stroke="none" points="-4,4 -4,-160 122,-160 122,4 -4,4"/>
<!-- Node1 -->
<g id="node1" class="node"><title>Node1</title>
<polygon fill="#bfbfbf" stroke="black" points="-0.5,-1 -0.5,-31 118.5,-31 118.5,-1 -0.5,-1"/>
<text text-anchor="start" x="7.5" y="-19" font-family="Helvetica,sans-Serif" font-size="10.00">factory::basic_socket</text>
<text text-anchor="middle" x="59" y="-8" font-family="Helvetica,sans-Serif" font-size="10.00">_pipeline&lt; T, Handler &gt;</text>
</g>
<!-- Node2 -->
<g id="node2" class="node"><title>Node2</title>
<g id="a_node2"><a xlink:href="classfactory_1_1basic__pipeline.html" target="_top" xlink:title="Proxy_pipeline_base\l\&lt; T, Handler \&gt;">
<polygon fill="white" stroke="black" points="5.5,-69 5.5,-99 112.5,-99 112.5,-69 5.5,-69"/>
<text text-anchor="start" x="13.5" y="-87" font-family="Helvetica,sans-Serif" font-size="10.00">Proxy_pipeline_base</text>
<text text-anchor="middle" x="59" y="-76" font-family="Helvetica,sans-Serif" font-size="10.00">&lt; T, Handler &gt;</text>
</a>
</g>
</g>
<!-- Node2&#45;&gt;Node1 -->
<g id="edge1" class="edge"><title>Node2&#45;&gt;Node1</title>
<path fill="none" stroke="midnightblue" d="M59,-58.5322C59,-49.3606 59,-39.2449 59,-31.2931"/>
<polygon fill="midnightblue" stroke="midnightblue" points="55.5001,-58.6789 59,-68.679 62.5001,-58.679 55.5001,-58.6789"/>
</g>
<!-- Node3 -->
<g id="node3" class="node"><title>Node3</title>
<g id="a_node3"><a xlink:href="classfactory_1_1pipeline__base.html" target="_top" xlink:title="factory::pipeline_base">
<polygon fill="white" stroke="black" points="3,-136.5 3,-155.5 115,-155.5 115,-136.5 3,-136.5"/>
<text text-anchor="middle" x="59" y="-143.5" font-family="Helvetica,sans-Serif" font-size="10.00">factory::pipeline_base</text>
</a>
</g>
</g>
<!-- Node3&#45;&gt;Node2 -->
<g id="edge2" class="edge"><title>Node3&#45;&gt;Node2</title>
<path fill="none" stroke="midnightblue" d="M59,-126.371C59,-117.585 59,-107.272 59,-99.1408"/>
<polygon fill="midnightblue" stroke="midnightblue" points="55.5001,-126.403 59,-136.403 62.5001,-126.403 55.5001,-126.403"/>
</g>
</g>
</svg>
