<?xml version="1.0" encoding="UTF-8" standalone="no"?>
<!DOCTYPE svg PUBLIC "-//W3C//DTD SVG 1.1//EN"
 "http://www.w3.org/Graphics/SVG/1.1/DTD/svg11.dtd">
<!-- Generated by graphviz version 2.36.0 (20140111.2315)
 -->
<!-- Title: Test_buffer&lt; T, B &gt; Pages: 1 -->
<svg width="136pt" height="230pt"
 viewBox="0.00 0.00 136.00 230.00" xmlns="http://www.w3.org/2000/svg" xmlns:xlink="http://www.w3.org/1999/xlink">
<g id="graph0" class="graph" transform="scale(1 1) rotate(0) translate(4 226)">
<title>Test_buffer&lt; T, B &gt;</title>
<polygon fill="white" stroke="none" points="-4,4 -4,-226 132,-226 132,4 -4,4"/>
<!-- Node1 -->
<g id="node1" class="node"><title>Node1</title>
<polygon fill="#bfbfbf" stroke="black" points="12.5,-0.5 12.5,-19.5 115.5,-19.5 115.5,-0.5 12.5,-0.5"/>
<text text-anchor="middle" x="64" y="-7.5" font-family="Helvetica,sans-Serif" font-size="10.00">Test_buffer&lt; T, B &gt;</text>
</g>
<!-- Node2 -->
<g id="node2" class="node"><title>Node2</title>
<g id="a_node2"><a xlink:href="structtest_1_1Parametric__test.html" target="_top" xlink:title="test::Parametric_test\l\&lt; Test_buffer\&lt; T, B \&gt;\l, std::array\&lt; size_t, 2 \&gt; \&gt;">
<polygon fill="white" stroke="black" points="0,-56.5 0,-97.5 128,-97.5 128,-56.5 0,-56.5"/>
<text text-anchor="start" x="8" y="-85.5" font-family="Helvetica,sans-Serif" font-size="10.00">test::Parametric_test</text>
<text text-anchor="start" x="8" y="-74.5" font-family="Helvetica,sans-Serif" font-size="10.00">&lt; Test_buffer&lt; T, B &gt;</text>
<text text-anchor="middle" x="64" y="-63.5" font-family="Helvetica,sans-Serif" font-size="10.00">, std::array&lt; size_t, 2 &gt; &gt;</text>
</a>
</g>
</g>
<!-- Node2&#45;&gt;Node1 -->
<g id="edge1" class="edge"><title>Node2&#45;&gt;Node1</title>
<path fill="none" stroke="midnightblue" d="M64,-46.2632C64,-36.5592 64,-26.5242 64,-19.6525"/>
<polygon fill="midnightblue" stroke="midnightblue" points="60.5001,-46.4978 64,-56.4979 67.5001,-46.4979 60.5001,-46.4978"/>
</g>
<!-- Node3 -->
<g id="node3" class="node"><title>Node3</title>
<g id="a_node3"><a xlink:href="structtest_1_1Test.html" target="_top" xlink:title="test::Test\&lt; Test_buffer\l\&lt; T, B \&gt; \&gt;">
<polygon fill="white" stroke="black" points="5.5,-135 5.5,-165 122.5,-165 122.5,-135 5.5,-135"/>
<text text-anchor="start" x="13.5" y="-153" font-family="Helvetica,sans-Serif" font-size="10.00">test::Test&lt; Test_buffer</text>
<text text-anchor="middle" x="64" y="-142" font-family="Helvetica,sans-Serif" font-size="10.00">&lt; T, B &gt; &gt;</text>
</a>
</g>
</g>
<!-- Node3&#45;&gt;Node2 -->
<g id="edge2" class="edge"><title>Node3&#45;&gt;Node2</title>
<path fill="none" stroke="midnightblue" d="M64,-124.853C64,-115.987 64,-106.065 64,-97.642"/>
<polygon fill="midnightblue" stroke="midnightblue" points="60.5001,-124.973 64,-134.973 67.5001,-124.973 60.5001,-124.973"/>
</g>
<!-- Node4 -->
<g id="node4" class="node"><title>Node4</title>
<g id="a_node4"><a xlink:href="structtest_1_1Basic__test.html" target="_top" xlink:title="test::Basic_test">
<polygon fill="white" stroke="black" points="21,-202.5 21,-221.5 107,-221.5 107,-202.5 21,-202.5"/>
<text text-anchor="middle" x="64" y="-209.5" font-family="Helvetica,sans-Serif" font-size="10.00">test::Basic_test</text>
</a>
</g>
</g>
<!-- Node4&#45;&gt;Node3 -->
<g id="edge3" class="edge"><title>Node4&#45;&gt;Node3</title>
<path fill="none" stroke="midnightblue" d="M64,-192.371C64,-183.585 64,-173.272 64,-165.141"/>
<polygon fill="midnightblue" stroke="midnightblue" points="60.5001,-192.403 64,-202.403 67.5001,-192.403 60.5001,-192.403"/>
</g>
</g>
</svg>
