<?xml version="1.0" encoding="UTF-8" standalone="no"?>
<!DOCTYPE svg PUBLIC "-//W3C//DTD SVG 1.1//EN"
 "http://www.w3.org/Graphics/SVG/1.1/DTD/svg11.dtd">
<!-- Generated by graphviz version 2.38.0 (20140413.2041)
 -->
<!-- Title: factory::Timer_server&lt; T &gt; Pages: 1 -->
<svg width="184pt" height="152pt"
 viewBox="0.00 0.00 183.50 152.00" xmlns="http://www.w3.org/2000/svg" xmlns:xlink="http://www.w3.org/1999/xlink">
<g id="graph0" class="graph" transform="scale(1 1) rotate(0) translate(4 148)">
<title>factory::Timer_server&lt; T &gt;</title>
<polygon fill="white" stroke="none" points="-4,4 -4,-148 179.5,-148 179.5,4 -4,4"/>
<!-- Node1 -->
<g id="node1" class="node"><title>Node1</title>
<polygon fill="#bfbfbf" stroke="black" points="34.5,-0.5 34.5,-19.5 168.5,-19.5 168.5,-0.5 34.5,-0.5"/>
<text text-anchor="middle" x="101.5" y="-7.5" font-family="Helvetica,sans-Serif" font-size="10.00">factory::Timer_server&lt; T &gt;</text>
</g>
<!-- Node2 -->
<g id="node2" class="node"><title>Node2</title>
<g id="a_node2"><a xlink:href="structfactory_1_1Server__with__pool.html" target="_top" xlink:title="Timer_server_base\&lt; T \&gt;">
<polygon fill="white" stroke="black" points="39.5,-57.5 39.5,-76.5 163.5,-76.5 163.5,-57.5 39.5,-57.5"/>
<text text-anchor="middle" x="101.5" y="-64.5" font-family="Helvetica,sans-Serif" font-size="10.00">Timer_server_base&lt; T &gt;</text>
</a>
</g>
</g>
<!-- Node2&#45;&gt;Node1 -->
<g id="edge1" class="edge"><title>Node2&#45;&gt;Node1</title>
<path fill="none" stroke="midnightblue" d="M101.5,-47.1166C101.5,-37.8173 101.5,-27.0557 101.5,-19.7149"/>
<polygon fill="midnightblue" stroke="midnightblue" points="98.0001,-47.4062 101.5,-57.4062 105,-47.4063 98.0001,-47.4062"/>
</g>
<!-- Node3 -->
<g id="node3" class="node"><title>Node3</title>
<g id="a_node3"><a xlink:href="structfactory_1_1Server__base.html" target="_top" xlink:title="factory::Server_base">
<polygon fill="white" stroke="black" points="0,-124.5 0,-143.5 107,-143.5 107,-124.5 0,-124.5"/>
<text text-anchor="middle" x="53.5" y="-131.5" font-family="Helvetica,sans-Serif" font-size="10.00">factory::Server_base</text>
</a>
</g>
</g>
<!-- Node3&#45;&gt;Node2 -->
<g id="edge2" class="edge"><title>Node3&#45;&gt;Node2</title>
<path fill="none" stroke="midnightblue" d="M66.1249,-115.904C75.4523,-103.273 87.7616,-86.6041 95.1291,-76.6273"/>
<polygon fill="midnightblue" stroke="midnightblue" points="63.0984,-114.11 59.9735,-124.234 68.7295,-118.269 63.0984,-114.11"/>
</g>
<!-- Node4 -->
<g id="node4" class="node"><title>Node4</title>
<polygon fill="white" stroke="#bfbfbf" points="125.5,-124.5 125.5,-143.5 175.5,-143.5 175.5,-124.5 125.5,-124.5"/>
<text text-anchor="middle" x="150.5" y="-131.5" font-family="Helvetica,sans-Serif" font-size="10.00">Kernels</text>
</g>
<!-- Node4&#45;&gt;Node2 -->
<g id="edge3" class="edge"><title>Node4&#45;&gt;Node2</title>
<path fill="none" stroke="#9a32cd" stroke-dasharray="5,2" d="M137.612,-115.904C128.09,-103.273 115.525,-86.6041 108.004,-76.6273"/>
<polygon fill="#9a32cd" stroke="#9a32cd" points="135.077,-118.355 143.892,-124.234 140.667,-114.142 135.077,-118.355"/>
<text text-anchor="middle" x="149.5" y="-98" font-family="Helvetica,sans-Serif" font-size="10.00"> _kernels</text>
</g>
</g>
</svg>
