<?xml version="1.0" encoding="UTF-8" standalone="no"?>
<!DOCTYPE svg PUBLIC "-//W3C//DTD SVG 1.1//EN"
 "http://www.w3.org/Graphics/SVG/1.1/DTD/svg11.dtd">
<!-- Generated by graphviz version 2.36.0 (20140111.2315)
 -->
<!-- Title: sys::file Pages: 1 -->
<svg width="155pt" height="140pt"
 viewBox="0.00 0.00 155.00 140.00" xmlns="http://www.w3.org/2000/svg" xmlns:xlink="http://www.w3.org/1999/xlink">
<g id="graph0" class="graph" transform="scale(1 1) rotate(0) translate(4 136)">
<title>sys::file</title>
<polygon fill="white" stroke="none" points="-4,4 -4,-136 151,-136 151,4 -4,4"/>
<!-- Node1 -->
<g id="node1" class="node"><title>Node1</title>
<polygon fill="#bfbfbf" stroke="black" points="51.5,-0.5 51.5,-19.5 102.5,-19.5 102.5,-0.5 51.5,-0.5"/>
<text text-anchor="middle" x="77" y="-7.5" font-family="Helvetica,sans-Serif" font-size="10.00">sys::file</text>
</g>
<!-- Node2 -->
<g id="node2" class="node"><title>Node2</title>
<g id="a_node2"><a xlink:href="structsys_1_1file__stat.html" target="_top" xlink:title="sys::file_stat">
<polygon fill="white" stroke="black" points="-0.5,-56.5 -0.5,-75.5 72.5,-75.5 72.5,-56.5 -0.5,-56.5"/>
<text text-anchor="middle" x="36" y="-63.5" font-family="Helvetica,sans-Serif" font-size="10.00">sys::file_stat</text>
</a>
</g>
</g>
<!-- Node2&#45;&gt;Node1 -->
<g id="edge1" class="edge"><title>Node2&#45;&gt;Node1</title>
<path fill="none" stroke="midnightblue" d="M49.0172,-47.8554C56.1167,-38.5048 64.604,-27.3265 70.3557,-19.7511"/>
<polygon fill="midnightblue" stroke="midnightblue" points="46.0299,-46.002 42.7703,-56.083 51.605,-50.235 46.0299,-46.002"/>
</g>
<!-- Node3 -->
<g id="node3" class="node"><title>Node3</title>
<polygon fill="white" stroke="#bfbfbf" points="7.5,-112.5 7.5,-131.5 64.5,-131.5 64.5,-112.5 7.5,-112.5"/>
<text text-anchor="middle" x="36" y="-119.5" font-family="Helvetica,sans-Serif" font-size="10.00">stat_type</text>
</g>
<!-- Node3&#45;&gt;Node2 -->
<g id="edge2" class="edge"><title>Node3&#45;&gt;Node2</title>
<path fill="none" stroke="midnightblue" d="M36,-101.805C36,-92.9102 36,-82.7798 36,-75.7511"/>
<polygon fill="midnightblue" stroke="midnightblue" points="32.5001,-102.083 36,-112.083 39.5001,-102.083 32.5001,-102.083"/>
</g>
<!-- Node4 -->
<g id="node4" class="node"><title>Node4</title>
<g id="a_node4"><a xlink:href="structsys_1_1path.html" target="_top" xlink:title="sys::path">
<polygon fill="white" stroke="black" points="90.5,-56.5 90.5,-75.5 147.5,-75.5 147.5,-56.5 90.5,-56.5"/>
<text text-anchor="middle" x="119" y="-63.5" font-family="Helvetica,sans-Serif" font-size="10.00">sys::path</text>
</a>
</g>
</g>
<!-- Node4&#45;&gt;Node1 -->
<g id="edge3" class="edge"><title>Node4&#45;&gt;Node1</title>
<path fill="none" stroke="midnightblue" d="M105.89,-48.144C98.5722,-38.7357 89.7591,-27.4046 83.8064,-19.7511"/>
<polygon fill="midnightblue" stroke="midnightblue" points="103.162,-50.3383 112.065,-56.083 108.688,-46.0406 103.162,-50.3383"/>
</g>
</g>
</svg>
