<?xml version="1.0" encoding="UTF-8" standalone="no"?>
<!DOCTYPE svg PUBLIC "-//W3C//DTD SVG 1.1//EN"
 "http://www.w3.org/Graphics/SVG/1.1/DTD/svg11.dtd">
<!-- Generated by graphviz version 2.36.0 (20140111.2315)
 -->
<!-- Title: Test_socket Pages: 1 -->
<svg width="249pt" height="204pt"
 viewBox="0.00 0.00 249.00 204.00" xmlns="http://www.w3.org/2000/svg" xmlns:xlink="http://www.w3.org/1999/xlink">
<g id="graph0" class="graph" transform="scale(1 1) rotate(0) translate(4 200)">
<title>Test_socket</title>
<polygon fill="white" stroke="none" points="-4,4 -4,-200 245,-200 245,4 -4,4"/>
<!-- Node1 -->
<g id="node1" class="node"><title>Node1</title>
<polygon fill="#bfbfbf" stroke="black" points="83.5,-0.5 83.5,-19.5 154.5,-19.5 154.5,-0.5 83.5,-0.5"/>
<text text-anchor="middle" x="119" y="-7.5" font-family="Helvetica,sans-Serif" font-size="10.00">Test_socket</text>
</g>
<!-- Node2 -->
<g id="node2" class="node"><title>Node2</title>
<g id="a_node2"><a xlink:href="structfactory_1_1Kernel.html" target="_top" xlink:title="factory::Kernel">
<polygon fill="white" stroke="black" points="79,-59.5 79,-78.5 159,-78.5 159,-59.5 79,-59.5"/>
<text text-anchor="middle" x="119" y="-66.5" font-family="Helvetica,sans-Serif" font-size="10.00">factory::Kernel</text>
</a>
</g>
</g>
<!-- Node2&#45;&gt;Node1 -->
<g id="edge1" class="edge"><title>Node2&#45;&gt;Node1</title>
<path fill="none" stroke="midnightblue" d="M112.59,-48.9331C111.85,-39.0243 112.317,-27.4007 113.991,-19.6571"/>
<polygon fill="midnightblue" stroke="midnightblue" points="109.153,-49.6407 113.938,-59.0938 116.092,-48.7204 109.153,-49.6407"/>
</g>
<!-- Node2&#45;&gt;Node1 -->
<g id="edge6" class="edge"><title>Node2&#45;&gt;Node1</title>
<path fill="none" stroke="midnightblue" d="M125.41,-48.9331C126.15,-39.0243 125.683,-27.4007 124.009,-19.6571"/>
<polygon fill="midnightblue" stroke="midnightblue" points="121.908,-48.7204 124.062,-59.0938 128.847,-49.6407 121.908,-48.7204"/>
</g>
<!-- Node2&#45;&gt;Node2 -->
<g id="edge5" class="edge"><title>Node2&#45;&gt;Node2</title>
<path fill="none" stroke="#9a32cd" stroke-dasharray="5,2" d="M169.265,-73.5193C174.005,-72.5938 177,-71.0874 177,-69 177,-65.6602 169.332,-63.8076 159.119,-63.4423"/>
<polygon fill="#9a32cd" stroke="#9a32cd" points="168.71,-70.0577 159.119,-74.5577 169.423,-77.0213 168.71,-70.0577"/>
<text text-anchor="middle" x="199.5" y="-72" font-family="Helvetica,sans-Serif" font-size="10.00"> _principal</text>
<text text-anchor="middle" x="199.5" y="-61" font-family="Helvetica,sans-Serif" font-size="10.00">_parent</text>
</g>
<!-- Node3 -->
<g id="node3" class="node"><title>Node3</title>
<g id="a_node3"><a xlink:href="structfactory_1_1Mobile__kernel.html" target="_top" xlink:title="factory::Mobile_kernel">
<polygon fill="white" stroke="black" points="62.5,-118.5 62.5,-137.5 175.5,-137.5 175.5,-118.5 62.5,-118.5"/>
<text text-anchor="middle" x="119" y="-125.5" font-family="Helvetica,sans-Serif" font-size="10.00">factory::Mobile_kernel</text>
</a>
</g>
</g>
<!-- Node3&#45;&gt;Node2 -->
<g id="edge2" class="edge"><title>Node3&#45;&gt;Node2</title>
<path fill="none" stroke="midnightblue" d="M119,-107.933C119,-98.0243 119,-86.4007 119,-78.6571"/>
<polygon fill="midnightblue" stroke="midnightblue" points="115.5,-108.094 119,-118.094 122.5,-108.094 115.5,-108.094"/>
</g>
<!-- Node4 -->
<g id="node4" class="node"><title>Node4</title>
<g id="a_node4"><a xlink:href="structfactory_1_1Basic__kernel.html" target="_top" xlink:title="factory::Basic_kernel">
<polygon fill="white" stroke="black" points="-0.5,-176.5 -0.5,-195.5 108.5,-195.5 108.5,-176.5 -0.5,-176.5"/>
<text text-anchor="middle" x="54" y="-183.5" font-family="Helvetica,sans-Serif" font-size="10.00">factory::Basic_kernel</text>
</a>
</g>
</g>
<!-- Node4&#45;&gt;Node3 -->
<g id="edge3" class="edge"><title>Node4&#45;&gt;Node3</title>
<path fill="none" stroke="midnightblue" d="M71.526,-169.901C83.5502,-159.541 99.0739,-146.167 109.035,-137.585"/>
<polygon fill="midnightblue" stroke="midnightblue" points="69.1637,-167.316 63.8721,-176.495 73.7327,-172.619 69.1637,-167.316"/>
</g>
<!-- Node5 -->
<g id="node5" class="node"><title>Node5</title>
<g id="a_node5"><a xlink:href="structfactory_1_1Kernel__header.html" target="_top" xlink:title="factory::Kernel_header">
<polygon fill="white" stroke="black" points="126.5,-176.5 126.5,-195.5 241.5,-195.5 241.5,-176.5 126.5,-176.5"/>
<text text-anchor="middle" x="184" y="-183.5" font-family="Helvetica,sans-Serif" font-size="10.00">factory::Kernel_header</text>
</a>
</g>
</g>
<!-- Node5&#45;&gt;Node3 -->
<g id="edge4" class="edge"><title>Node5&#45;&gt;Node3</title>
<path fill="none" stroke="midnightblue" d="M166.474,-169.901C154.45,-159.541 138.926,-146.167 128.965,-137.585"/>
<polygon fill="midnightblue" stroke="midnightblue" points="164.267,-172.619 174.128,-176.495 168.836,-167.316 164.267,-172.619"/>
</g>
</g>
</svg>
