<?xml version="1.0" encoding="UTF-8" standalone="no"?>
<!DOCTYPE svg PUBLIC "-//W3C//DTD SVG 1.1//EN"
 "http://www.w3.org/Graphics/SVG/1.1/DTD/svg11.dtd">
<!-- Generated by graphviz version 2.36.0 (20140111.2315)
 -->
<!-- Title: Test_semaphore&lt; Mutex, Semaphore, I &gt; Pages: 1 -->
<svg width="172pt" height="242pt"
 viewBox="0.00 0.00 172.00 242.00" xmlns="http://www.w3.org/2000/svg" xmlns:xlink="http://www.w3.org/1999/xlink">
<g id="graph0" class="graph" transform="scale(1 1) rotate(0) translate(4 238)">
<title>Test_semaphore&lt; Mutex, Semaphore, I &gt;</title>
<polygon fill="white" stroke="none" points="-4,4 -4,-238 168,-238 168,4 -4,4"/>
<!-- Node1 -->
<g id="node1" class="node"><title>Node1</title>
<polygon fill="#bfbfbf" stroke="black" points="18,-1 18,-31 146,-31 146,-1 18,-1"/>
<text text-anchor="start" x="26" y="-19" font-family="Helvetica,sans-Serif" font-size="10.00">Test_semaphore&lt; Mutex,</text>
<text text-anchor="middle" x="82" y="-8" font-family="Helvetica,sans-Serif" font-size="10.00"> Semaphore, I &gt;</text>
</g>
<!-- Node2 -->
<g id="node2" class="node"><title>Node2</title>
<g id="a_node2"><a xlink:href="structParametric__test.html" target="_top" xlink:title="Parametric_test\&lt; Test\l_semaphore\&lt; Mutex, Semaphore,\l I \&gt; \&gt;">
<polygon fill="white" stroke="black" points="0,-68.5 0,-109.5 164,-109.5 164,-68.5 0,-68.5"/>
<text text-anchor="start" x="8" y="-97.5" font-family="Helvetica,sans-Serif" font-size="10.00">Parametric_test&lt; Test</text>
<text text-anchor="start" x="8" y="-86.5" font-family="Helvetica,sans-Serif" font-size="10.00">_semaphore&lt; Mutex, Semaphore,</text>
<text text-anchor="middle" x="82" y="-75.5" font-family="Helvetica,sans-Serif" font-size="10.00"> I &gt; &gt;</text>
</a>
</g>
</g>
<!-- Node2&#45;&gt;Node1 -->
<g id="edge1" class="edge"><title>Node2&#45;&gt;Node1</title>
<path fill="none" stroke="midnightblue" d="M82,-58.0188C82,-48.6567 82,-38.7696 82,-31.0485"/>
<polygon fill="midnightblue" stroke="midnightblue" points="78.5001,-58.2225 82,-68.2225 85.5001,-58.2226 78.5001,-58.2225"/>
</g>
<!-- Node3 -->
<g id="node3" class="node"><title>Node3</title>
<g id="a_node3"><a xlink:href="structtest_1_1Test.html" target="_top" xlink:title="test::Test\&lt; Test_semaphore\l\&lt; Mutex, Semaphore, I \&gt; \&gt;">
<polygon fill="white" stroke="black" points="12,-147 12,-177 152,-177 152,-147 12,-147"/>
<text text-anchor="start" x="20" y="-165" font-family="Helvetica,sans-Serif" font-size="10.00">test::Test&lt; Test_semaphore</text>
<text text-anchor="middle" x="82" y="-154" font-family="Helvetica,sans-Serif" font-size="10.00">&lt; Mutex, Semaphore, I &gt; &gt;</text>
</a>
</g>
</g>
<!-- Node3&#45;&gt;Node2 -->
<g id="edge2" class="edge"><title>Node3&#45;&gt;Node2</title>
<path fill="none" stroke="midnightblue" d="M82,-136.853C82,-127.987 82,-118.065 82,-109.642"/>
<polygon fill="midnightblue" stroke="midnightblue" points="78.5001,-136.973 82,-146.973 85.5001,-136.973 78.5001,-136.973"/>
</g>
<!-- Node4 -->
<g id="node4" class="node"><title>Node4</title>
<g id="a_node4"><a xlink:href="structtest_1_1Basic__test.html" target="_top" xlink:title="test::Basic_test">
<polygon fill="white" stroke="black" points="39,-214.5 39,-233.5 125,-233.5 125,-214.5 39,-214.5"/>
<text text-anchor="middle" x="82" y="-221.5" font-family="Helvetica,sans-Serif" font-size="10.00">test::Basic_test</text>
</a>
</g>
</g>
<!-- Node4&#45;&gt;Node3 -->
<g id="edge3" class="edge"><title>Node4&#45;&gt;Node3</title>
<path fill="none" stroke="midnightblue" d="M82,-204.371C82,-195.585 82,-185.272 82,-177.141"/>
<polygon fill="midnightblue" stroke="midnightblue" points="78.5001,-204.403 82,-214.403 85.5001,-204.403 78.5001,-204.403"/>
</g>
</g>
</svg>
