<?xml version="1.0" encoding="UTF-8" standalone="no"?>
<!DOCTYPE svg PUBLIC "-//W3C//DTD SVG 1.1//EN"
 "http://www.w3.org/Graphics/SVG/1.1/DTD/svg11.dtd">
<!-- Generated by graphviz version 2.38.0 (20140413.2041)
 -->
<!-- Title: Kernel_that_carries_its_parent Pages: 1 -->
<svg width="250pt" height="207pt"
 viewBox="0.00 0.00 250.00 207.00" xmlns="http://www.w3.org/2000/svg" xmlns:xlink="http://www.w3.org/1999/xlink">
<g id="graph0" class="graph" transform="scale(1 1) rotate(0) translate(4 203)">
<title>Kernel_that_carries_its_parent</title>
<polygon fill="white" stroke="none" points="-4,4 -4,-203 246,-203 246,4 -4,4"/>
<!-- Node1 -->
<g id="node1" class="node"><title>Node1</title>
<polygon fill="#bfbfbf" stroke="black" points="69,-0.5 69,-30.5 170,-30.5 170,-0.5 69,-0.5"/>
<text text-anchor="start" x="77" y="-18.5" font-family="Helvetica,sans-Serif" font-size="10.00">Kernel_that_carries</text>
<text text-anchor="middle" x="119.5" y="-7.5" font-family="Helvetica,sans-Serif" font-size="10.00">_its_parent</text>
</g>
<!-- Node2 -->
<g id="node2" class="node"><title>Node2</title>
<g id="a_node2"><a xlink:href="structfactory_1_1Kernel.html" target="_top" xlink:title="factory::Kernel">
<polygon fill="white" stroke="black" points="79.5,-67.5 79.5,-86.5 159.5,-86.5 159.5,-67.5 79.5,-67.5"/>
<text text-anchor="middle" x="119.5" y="-74.5" font-family="Helvetica,sans-Serif" font-size="10.00">factory::Kernel</text>
</a>
</g>
</g>
<!-- Node2&#45;&gt;Node1 -->
<g id="edge1" class="edge"><title>Node2&#45;&gt;Node1</title>
<path fill="none" stroke="midnightblue" d="M119.5,-57.2349C119.5,-48.5864 119.5,-38.4969 119.5,-30.523"/>
<polygon fill="midnightblue" stroke="midnightblue" points="116,-57.4751 119.5,-67.4751 123,-57.4751 116,-57.4751"/>
</g>
<!-- Node3 -->
<g id="node3" class="node"><title>Node3</title>
<g id="a_node3"><a xlink:href="structfactory_1_1Mobile__kernel.html" target="_top" xlink:title="factory::Mobile_kernel">
<polygon fill="white" stroke="black" points="63,-123.5 63,-142.5 176,-142.5 176,-123.5 63,-123.5"/>
<text text-anchor="middle" x="119.5" y="-130.5" font-family="Helvetica,sans-Serif" font-size="10.00">factory::Mobile_kernel</text>
</a>
</g>
</g>
<!-- Node3&#45;&gt;Node2 -->
<g id="edge2" class="edge"><title>Node3&#45;&gt;Node2</title>
<path fill="none" stroke="midnightblue" d="M119.5,-112.805C119.5,-103.91 119.5,-93.7798 119.5,-86.7511"/>
<polygon fill="midnightblue" stroke="midnightblue" points="116,-113.083 119.5,-123.083 123,-113.083 116,-113.083"/>
</g>
<!-- Node4 -->
<g id="node4" class="node"><title>Node4</title>
<g id="a_node4"><a xlink:href="structfactory_1_1Basic__kernel.html" target="_top" xlink:title="factory::Basic_kernel">
<polygon fill="white" stroke="black" points="0,-179.5 0,-198.5 109,-198.5 109,-179.5 0,-179.5"/>
<text text-anchor="middle" x="54.5" y="-186.5" font-family="Helvetica,sans-Serif" font-size="10.00">factory::Basic_kernel</text>
</a>
</g>
</g>
<!-- Node4&#45;&gt;Node3 -->
<g id="edge3" class="edge"><title>Node4&#45;&gt;Node3</title>
<path fill="none" stroke="midnightblue" d="M72.7726,-172.82C84.4178,-163.145 99.0995,-150.948 108.867,-142.834"/>
<polygon fill="midnightblue" stroke="midnightblue" points="70.3987,-170.242 64.9434,-179.324 74.8719,-175.626 70.3987,-170.242"/>
</g>
<!-- Node5 -->
<g id="node5" class="node"><title>Node5</title>
<g id="a_node5"><a xlink:href="structfactory_1_1Kernel__header.html" target="_top" xlink:title="factory::Kernel_header">
<polygon fill="white" stroke="black" points="127,-179.5 127,-198.5 242,-198.5 242,-179.5 127,-179.5"/>
<text text-anchor="middle" x="184.5" y="-186.5" font-family="Helvetica,sans-Serif" font-size="10.00">factory::Kernel_header</text>
</a>
</g>
</g>
<!-- Node5&#45;&gt;Node3 -->
<g id="edge4" class="edge"><title>Node5&#45;&gt;Node3</title>
<path fill="none" stroke="midnightblue" d="M166.227,-172.82C154.582,-163.145 139.901,-150.948 130.133,-142.834"/>
<polygon fill="midnightblue" stroke="midnightblue" points="164.128,-175.626 174.057,-179.324 168.601,-170.242 164.128,-175.626"/>
</g>
</g>
</svg>
