<?xml version="1.0" encoding="UTF-8" standalone="no"?>
<!DOCTYPE svg PUBLIC "-//W3C//DTD SVG 1.1//EN"
 "http://www.w3.org/Graphics/SVG/1.1/DTD/svg11.dtd">
<!-- Generated by graphviz version 2.36.0 (20140111.2315)
 -->
<!-- Title: Main&lt; Address &gt; Pages: 1 -->
<svg width="249pt" height="196pt"
 viewBox="0.00 0.00 249.00 196.00" xmlns="http://www.w3.org/2000/svg" xmlns:xlink="http://www.w3.org/1999/xlink">
<g id="graph0" class="graph" transform="scale(1 1) rotate(0) translate(4 192)">
<title>Main&lt; Address &gt;</title>
<polygon fill="white" stroke="none" points="-4,4 -4,-192 245,-192 245,4 -4,4"/>
<!-- Node1 -->
<g id="node1" class="node"><title>Node1</title>
<polygon fill="#bfbfbf" stroke="black" points="113,-0.5 113,-19.5 205,-19.5 205,-0.5 113,-0.5"/>
<text text-anchor="middle" x="159" y="-7.5" font-family="Helvetica,sans-Serif" font-size="10.00">Main&lt; Address &gt;</text>
</g>
<!-- Node2 -->
<g id="node2" class="node"><title>Node2</title>
<g id="a_node2"><a xlink:href="structfactory_1_1Kernel.html" target="_top" xlink:title="factory::Kernel">
<polygon fill="white" stroke="black" points="79,-56.5 79,-75.5 159,-75.5 159,-56.5 79,-56.5"/>
<text text-anchor="middle" x="119" y="-63.5" font-family="Helvetica,sans-Serif" font-size="10.00">factory::Kernel</text>
</a>
</g>
</g>
<!-- Node2&#45;&gt;Node1 -->
<g id="edge1" class="edge"><title>Node2&#45;&gt;Node1</title>
<path fill="none" stroke="midnightblue" d="M125.747,-47.2747C131.825,-38.0454 140.298,-27.1703 147.387,-19.7511"/>
<polygon fill="midnightblue" stroke="midnightblue" points="122.603,-45.7115 120.439,-56.083 128.598,-49.3246 122.603,-45.7115"/>
</g>
<!-- Node2&#45;&gt;Node1 -->
<g id="edge6" class="edge"><title>Node2&#45;&gt;Node1</title>
<path fill="none" stroke="midnightblue" d="M137.554,-48.4314C145.458,-38.9673 153.582,-27.4827 157.649,-19.7511"/>
<polygon fill="midnightblue" stroke="midnightblue" points="134.785,-46.278 130.772,-56.083 140.024,-50.9212 134.785,-46.278"/>
</g>
<!-- Node3 -->
<g id="node3" class="node"><title>Node3</title>
<g id="a_node3"><a xlink:href="structfactory_1_1Mobile__kernel.html" target="_top" xlink:title="factory::Mobile_kernel">
<polygon fill="white" stroke="black" points="62.5,-112.5 62.5,-131.5 175.5,-131.5 175.5,-112.5 62.5,-112.5"/>
<text text-anchor="middle" x="119" y="-119.5" font-family="Helvetica,sans-Serif" font-size="10.00">factory::Mobile_kernel</text>
</a>
</g>
</g>
<!-- Node3&#45;&gt;Node2 -->
<g id="edge2" class="edge"><title>Node3&#45;&gt;Node2</title>
<path fill="none" stroke="midnightblue" d="M119,-101.805C119,-92.9102 119,-82.7798 119,-75.7511"/>
<polygon fill="midnightblue" stroke="midnightblue" points="115.5,-102.083 119,-112.083 122.5,-102.083 115.5,-102.083"/>
</g>
<!-- Node4 -->
<g id="node4" class="node"><title>Node4</title>
<g id="a_node4"><a xlink:href="structfactory_1_1Basic__kernel.html" target="_top" xlink:title="factory::Basic_kernel">
<polygon fill="white" stroke="black" points="-0.5,-168.5 -0.5,-187.5 108.5,-187.5 108.5,-168.5 -0.5,-168.5"/>
<text text-anchor="middle" x="54" y="-175.5" font-family="Helvetica,sans-Serif" font-size="10.00">factory::Basic_kernel</text>
</a>
</g>
</g>
<!-- Node4&#45;&gt;Node3 -->
<g id="edge3" class="edge"><title>Node4&#45;&gt;Node3</title>
<path fill="none" stroke="midnightblue" d="M72.2726,-161.82C83.9178,-152.145 98.5995,-139.948 108.367,-131.834"/>
<polygon fill="midnightblue" stroke="midnightblue" points="69.8987,-159.242 64.4434,-168.324 74.3719,-164.626 69.8987,-159.242"/>
</g>
<!-- Node5 -->
<g id="node5" class="node"><title>Node5</title>
<g id="a_node5"><a xlink:href="structfactory_1_1Kernel__header.html" target="_top" xlink:title="factory::Kernel_header">
<polygon fill="white" stroke="black" points="126.5,-168.5 126.5,-187.5 241.5,-187.5 241.5,-168.5 126.5,-168.5"/>
<text text-anchor="middle" x="184" y="-175.5" font-family="Helvetica,sans-Serif" font-size="10.00">factory::Kernel_header</text>
</a>
</g>
</g>
<!-- Node5&#45;&gt;Node3 -->
<g id="edge4" class="edge"><title>Node5&#45;&gt;Node3</title>
<path fill="none" stroke="midnightblue" d="M165.727,-161.82C154.082,-152.145 139.401,-139.948 129.633,-131.834"/>
<polygon fill="midnightblue" stroke="midnightblue" points="163.628,-164.626 173.557,-168.324 168.101,-159.242 163.628,-164.626"/>
</g>
<!-- Node6 -->
<g id="node6" class="node"><title>Node6</title>
<polygon fill="white" stroke="#bfbfbf" points="177,-56.5 177,-75.5 221,-75.5 221,-56.5 177,-56.5"/>
<text text-anchor="middle" x="199" y="-63.5" font-family="Helvetica,sans-Serif" font-size="10.00">Kernel</text>
</g>
<!-- Node6&#45;&gt;Node1 -->
<g id="edge5" class="edge"><title>Node6&#45;&gt;Node1</title>
<path fill="none" stroke="midnightblue" d="M180.446,-48.4314C172.542,-38.9673 164.418,-27.4827 160.351,-19.7511"/>
<polygon fill="midnightblue" stroke="midnightblue" points="177.976,-50.9212 187.228,-56.083 183.215,-46.278 177.976,-50.9212"/>
</g>
<!-- Node6&#45;&gt;Node1 -->
<g id="edge7" class="edge"><title>Node6&#45;&gt;Node1</title>
<path fill="none" stroke="midnightblue" d="M192.253,-47.2747C186.175,-38.0454 177.702,-27.1703 170.613,-19.7511"/>
<polygon fill="midnightblue" stroke="midnightblue" points="189.402,-49.3246 197.561,-56.083 195.397,-45.7115 189.402,-49.3246"/>
</g>
</g>
</svg>
