<?xml version="1.0" encoding="UTF-8" standalone="no"?>
<!DOCTYPE svg PUBLIC "-//W3C//DTD SVG 1.1//EN"
 "http://www.w3.org/Graphics/SVG/1.1/DTD/svg11.dtd">
<!-- Generated by graphviz version 2.36.0 (20140111.2315)
 -->
<!-- Title: factory::Process_child_server&lt; T, Router &gt; Pages: 1 -->
<svg width="122pt" height="252pt"
 viewBox="0.00 0.00 122.00 252.00" xmlns="http://www.w3.org/2000/svg" xmlns:xlink="http://www.w3.org/1999/xlink">
<g id="graph0" class="graph" transform="scale(1 1) rotate(0) translate(4 248)">
<title>factory::Process_child_server&lt; T, Router &gt;</title>
<polygon fill="white" stroke="none" points="-4,4 -4,-248 118,-248 118,4 -4,4"/>
<!-- Node1 -->
<g id="node1" class="node"><title>Node1</title>
<polygon fill="#bfbfbf" stroke="black" points="0,-1 0,-31 114,-31 114,-1 0,-1"/>
<text text-anchor="start" x="8" y="-19" font-family="Helvetica,sans-Serif" font-size="10.00">factory::Process_child</text>
<text text-anchor="middle" x="57" y="-8" font-family="Helvetica,sans-Serif" font-size="10.00">_server&lt; T, Router &gt;</text>
</g>
<!-- Node2 -->
<g id="node2" class="node"><title>Node2</title>
<g id="a_node2"><a xlink:href="structfactory_1_1Proxy__server.html" target="_top" xlink:title="factory::Proxy_server\l\&lt; T, Process_rserver\l\&lt; T, Router \&gt; \&gt;">
<polygon fill="white" stroke="black" points="2,-68.5 2,-109.5 112,-109.5 112,-68.5 2,-68.5"/>
<text text-anchor="start" x="10" y="-97.5" font-family="Helvetica,sans-Serif" font-size="10.00">factory::Proxy_server</text>
<text text-anchor="start" x="10" y="-86.5" font-family="Helvetica,sans-Serif" font-size="10.00">&lt; T, Process_rserver</text>
<text text-anchor="middle" x="57" y="-75.5" font-family="Helvetica,sans-Serif" font-size="10.00">&lt; T, Router &gt; &gt;</text>
</a>
</g>
</g>
<!-- Node2&#45;&gt;Node1 -->
<g id="edge1" class="edge"><title>Node2&#45;&gt;Node1</title>
<path fill="none" stroke="midnightblue" d="M57,-58.0188C57,-48.6567 57,-38.7696 57,-31.0485"/>
<polygon fill="midnightblue" stroke="midnightblue" points="53.5001,-58.2225 57,-68.2225 60.5001,-58.2226 53.5001,-58.2225"/>
</g>
<!-- Node3 -->
<g id="node3" class="node"><title>Node3</title>
<g id="a_node3"><a xlink:href="structfactory_1_1Server__with__pool.html" target="_top" xlink:title="Proxy_server_base\&lt;\l T, Process_rserver\l\&lt; T, Router \&gt; &#160;\&gt;">
<polygon fill="white" stroke="black" points="3.5,-146.5 3.5,-187.5 110.5,-187.5 110.5,-146.5 3.5,-146.5"/>
<text text-anchor="start" x="11.5" y="-175.5" font-family="Helvetica,sans-Serif" font-size="10.00">Proxy_server_base&lt;</text>
<text text-anchor="start" x="11.5" y="-164.5" font-family="Helvetica,sans-Serif" font-size="10.00"> T, Process_rserver</text>
<text text-anchor="middle" x="57" y="-153.5" font-family="Helvetica,sans-Serif" font-size="10.00">&lt; T, Router &gt; &gt;</text>
</a>
</g>
</g>
<!-- Node3&#45;&gt;Node2 -->
<g id="edge2" class="edge"><title>Node3&#45;&gt;Node2</title>
<path fill="none" stroke="midnightblue" d="M57,-136.297C57,-127.301 57,-117.653 57,-109.506"/>
<polygon fill="midnightblue" stroke="midnightblue" points="53.5001,-136.428 57,-146.428 60.5001,-136.428 53.5001,-136.428"/>
</g>
<!-- Node4 -->
<g id="node4" class="node"><title>Node4</title>
<g id="a_node4"><a xlink:href="structfactory_1_1Server__base.html" target="_top" xlink:title="factory::Server_base">
<polygon fill="white" stroke="black" points="3.5,-224.5 3.5,-243.5 110.5,-243.5 110.5,-224.5 3.5,-224.5"/>
<text text-anchor="middle" x="57" y="-231.5" font-family="Helvetica,sans-Serif" font-size="10.00">factory::Server_base</text>
</a>
</g>
</g>
<!-- Node4&#45;&gt;Node3 -->
<g id="edge3" class="edge"><title>Node4&#45;&gt;Node3</title>
<path fill="none" stroke="midnightblue" d="M57,-214.037C57,-205.708 57,-195.936 57,-187.542"/>
<polygon fill="midnightblue" stroke="midnightblue" points="53.5001,-214.234 57,-224.234 60.5001,-214.234 53.5001,-214.234"/>
</g>
</g>
</svg>
