<?xml version="1.0" encoding="UTF-8" standalone="no"?>
<!DOCTYPE svg PUBLIC "-//W3C//DTD SVG 1.1//EN"
 "http://www.w3.org/Graphics/SVG/1.1/DTD/svg11.dtd">
<!-- Generated by graphviz version 2.38.0 (20140413.2041)
 -->
<!-- Title: Kernel_that_writes_more_than_reads Pages: 1 -->
<svg width="250pt" height="263pt"
 viewBox="0.00 0.00 250.00 263.00" xmlns="http://www.w3.org/2000/svg" xmlns:xlink="http://www.w3.org/1999/xlink">
<g id="graph0" class="graph" transform="scale(1 1) rotate(0) translate(4 259)">
<title>Kernel_that_writes_more_than_reads</title>
<polygon fill="white" stroke="none" points="-4,4 -4,-259 246,-259 246,4 -4,4"/>
<!-- Node1 -->
<g id="node1" class="node"><title>Node1</title>
<polygon fill="#bfbfbf" stroke="black" points="70.5,-0.5 70.5,-30.5 168.5,-30.5 168.5,-0.5 70.5,-0.5"/>
<text text-anchor="start" x="78.5" y="-18.5" font-family="Helvetica,sans-Serif" font-size="10.00">Kernel_that_writes</text>
<text text-anchor="middle" x="119.5" y="-7.5" font-family="Helvetica,sans-Serif" font-size="10.00">_more_than_reads</text>
</g>
<!-- Node2 -->
<g id="node2" class="node"><title>Node2</title>
<g id="a_node2"><a xlink:href="structGood__kernel.html" target="_top" xlink:title="Good_kernel">
<polygon fill="white" stroke="black" points="84,-67.5 84,-86.5 155,-86.5 155,-67.5 84,-67.5"/>
<text text-anchor="middle" x="119.5" y="-74.5" font-family="Helvetica,sans-Serif" font-size="10.00">Good_kernel</text>
</a>
</g>
</g>
<!-- Node2&#45;&gt;Node1 -->
<g id="edge1" class="edge"><title>Node2&#45;&gt;Node1</title>
<path fill="none" stroke="midnightblue" d="M119.5,-57.2349C119.5,-48.5864 119.5,-38.4969 119.5,-30.523"/>
<polygon fill="midnightblue" stroke="midnightblue" points="116,-57.4751 119.5,-67.4751 123,-57.4751 116,-57.4751"/>
</g>
<!-- Node3 -->
<g id="node3" class="node"><title>Node3</title>
<g id="a_node3"><a xlink:href="structfactory_1_1Kernel.html" target="_top" xlink:title="factory::Kernel">
<polygon fill="white" stroke="black" points="79.5,-123.5 79.5,-142.5 159.5,-142.5 159.5,-123.5 79.5,-123.5"/>
<text text-anchor="middle" x="119.5" y="-130.5" font-family="Helvetica,sans-Serif" font-size="10.00">factory::Kernel</text>
</a>
</g>
</g>
<!-- Node3&#45;&gt;Node2 -->
<g id="edge2" class="edge"><title>Node3&#45;&gt;Node2</title>
<path fill="none" stroke="midnightblue" d="M119.5,-112.805C119.5,-103.91 119.5,-93.7798 119.5,-86.7511"/>
<polygon fill="midnightblue" stroke="midnightblue" points="116,-113.083 119.5,-123.083 123,-113.083 116,-113.083"/>
</g>
<!-- Node4 -->
<g id="node4" class="node"><title>Node4</title>
<g id="a_node4"><a xlink:href="structfactory_1_1Mobile__kernel.html" target="_top" xlink:title="factory::Mobile_kernel">
<polygon fill="white" stroke="black" points="63,-179.5 63,-198.5 176,-198.5 176,-179.5 63,-179.5"/>
<text text-anchor="middle" x="119.5" y="-186.5" font-family="Helvetica,sans-Serif" font-size="10.00">factory::Mobile_kernel</text>
</a>
</g>
</g>
<!-- Node4&#45;&gt;Node3 -->
<g id="edge3" class="edge"><title>Node4&#45;&gt;Node3</title>
<path fill="none" stroke="midnightblue" d="M119.5,-168.805C119.5,-159.91 119.5,-149.78 119.5,-142.751"/>
<polygon fill="midnightblue" stroke="midnightblue" points="116,-169.083 119.5,-179.083 123,-169.083 116,-169.083"/>
</g>
<!-- Node5 -->
<g id="node5" class="node"><title>Node5</title>
<g id="a_node5"><a xlink:href="structfactory_1_1Basic__kernel.html" target="_top" xlink:title="factory::Basic_kernel">
<polygon fill="white" stroke="black" points="0,-235.5 0,-254.5 109,-254.5 109,-235.5 0,-235.5"/>
<text text-anchor="middle" x="54.5" y="-242.5" font-family="Helvetica,sans-Serif" font-size="10.00">factory::Basic_kernel</text>
</a>
</g>
</g>
<!-- Node5&#45;&gt;Node4 -->
<g id="edge4" class="edge"><title>Node5&#45;&gt;Node4</title>
<path fill="none" stroke="midnightblue" d="M72.7726,-228.82C84.4178,-219.145 99.0995,-206.948 108.867,-198.834"/>
<polygon fill="midnightblue" stroke="midnightblue" points="70.3987,-226.242 64.9434,-235.324 74.8719,-231.626 70.3987,-226.242"/>
</g>
<!-- Node6 -->
<g id="node6" class="node"><title>Node6</title>
<g id="a_node6"><a xlink:href="structfactory_1_1Kernel__header.html" target="_top" xlink:title="factory::Kernel_header">
<polygon fill="white" stroke="black" points="127,-235.5 127,-254.5 242,-254.5 242,-235.5 127,-235.5"/>
<text text-anchor="middle" x="184.5" y="-242.5" font-family="Helvetica,sans-Serif" font-size="10.00">factory::Kernel_header</text>
</a>
</g>
</g>
<!-- Node6&#45;&gt;Node4 -->
<g id="edge5" class="edge"><title>Node6&#45;&gt;Node4</title>
<path fill="none" stroke="midnightblue" d="M166.227,-228.82C154.582,-219.145 139.901,-206.948 130.133,-198.834"/>
<polygon fill="midnightblue" stroke="midnightblue" points="164.128,-231.626 174.057,-235.324 168.601,-226.242 164.128,-231.626"/>
</g>
</g>
</svg>
