<?xml version="1.0" encoding="UTF-8" standalone="no"?>
<!DOCTYPE svg PUBLIC "-//W3C//DTD SVG 1.1//EN"
 "http://www.w3.org/Graphics/SVG/1.1/DTD/svg11.dtd">
<!-- Generated by graphviz version 2.36.0 (20140111.2315)
 -->
<!-- Title: Kernel_that_writes_more_than_reads Pages: 1 -->
<svg width="215pt" height="274pt"
 viewBox="0.00 0.00 215.00 274.00" xmlns="http://www.w3.org/2000/svg" xmlns:xlink="http://www.w3.org/1999/xlink">
<g id="graph0" class="graph" transform="scale(1 1) rotate(0) translate(4 270)">
<title>Kernel_that_writes_more_than_reads</title>
<polygon fill="white" stroke="none" points="-4,4 -4,-270 211,-270 211,4 -4,4"/>
<!-- Node1 -->
<g id="node1" class="node"><title>Node1</title>
<polygon fill="#bfbfbf" stroke="black" points="52,-1 52,-31 150,-31 150,-1 52,-1"/>
<text text-anchor="start" x="60" y="-19" font-family="Helvetica,sans-Serif" font-size="10.00">Kernel_that_writes</text>
<text text-anchor="middle" x="101" y="-8" font-family="Helvetica,sans-Serif" font-size="10.00">_more_than_reads</text>
</g>
<!-- Node2 -->
<g id="node2" class="node"><title>Node2</title>
<g id="a_node2"><a xlink:href="structGood__kernel.html" target="_top" xlink:title="Good_kernel">
<polygon fill="white" stroke="black" points="65.5,-70.5 65.5,-89.5 136.5,-89.5 136.5,-70.5 65.5,-70.5"/>
<text text-anchor="middle" x="101" y="-77.5" font-family="Helvetica,sans-Serif" font-size="10.00">Good_kernel</text>
</a>
</g>
</g>
<!-- Node2&#45;&gt;Node1 -->
<g id="edge1" class="edge"><title>Node2&#45;&gt;Node1</title>
<path fill="none" stroke="midnightblue" d="M101,-60.1826C101,-50.8859 101,-39.8507 101,-31.263"/>
<polygon fill="midnightblue" stroke="midnightblue" points="97.5001,-60.3791 101,-70.3792 104.5,-60.3792 97.5001,-60.3791"/>
</g>
<!-- Node3 -->
<g id="node3" class="node"><title>Node3</title>
<g id="a_node3"><a xlink:href="structbsc_1_1kernel.html" target="_top" xlink:title="bsc::kernel">
<polygon fill="white" stroke="black" points="68.5,-129.5 68.5,-148.5 133.5,-148.5 133.5,-129.5 68.5,-129.5"/>
<text text-anchor="middle" x="101" y="-136.5" font-family="Helvetica,sans-Serif" font-size="10.00">bsc::kernel</text>
</a>
</g>
</g>
<!-- Node3&#45;&gt;Node2 -->
<g id="edge2" class="edge"><title>Node3&#45;&gt;Node2</title>
<path fill="none" stroke="midnightblue" d="M101,-118.933C101,-109.024 101,-97.4007 101,-89.6571"/>
<polygon fill="midnightblue" stroke="midnightblue" points="97.5001,-119.094 101,-129.094 104.5,-119.094 97.5001,-119.094"/>
</g>
<!-- Node3&#45;&gt;Node3 -->
<g id="edge6" class="edge"><title>Node3&#45;&gt;Node3</title>
<path fill="none" stroke="#9a32cd" stroke-dasharray="5,2" d="M143.791,-143.637C148.189,-142.724 151,-141.178 151,-139 151,-135.426 143.43,-133.555 133.7,-133.387"/>
<polygon fill="#9a32cd" stroke="#9a32cd" points="143.317,-140.166 133.7,-144.613 143.991,-147.133 143.317,-140.166"/>
<text text-anchor="middle" x="173.5" y="-142" font-family="Helvetica,sans-Serif" font-size="10.00"> _principal</text>
<text text-anchor="middle" x="173.5" y="-131" font-family="Helvetica,sans-Serif" font-size="10.00">_parent</text>
</g>
<!-- Node4 -->
<g id="node4" class="node"><title>Node4</title>
<g id="a_node4"><a xlink:href="classbsc_1_1mobile__kernel.html" target="_top" xlink:title="bsc::mobile_kernel">
<polygon fill="white" stroke="black" points="52,-188.5 52,-207.5 150,-207.5 150,-188.5 52,-188.5"/>
<text text-anchor="middle" x="101" y="-195.5" font-family="Helvetica,sans-Serif" font-size="10.00">bsc::mobile_kernel</text>
</a>
</g>
</g>
<!-- Node4&#45;&gt;Node3 -->
<g id="edge3" class="edge"><title>Node4&#45;&gt;Node3</title>
<path fill="none" stroke="midnightblue" d="M101,-177.933C101,-168.024 101,-156.401 101,-148.657"/>
<polygon fill="midnightblue" stroke="midnightblue" points="97.5001,-178.094 101,-188.094 104.5,-178.094 97.5001,-178.094"/>
</g>
<!-- Node5 -->
<g id="node5" class="node"><title>Node5</title>
<g id="a_node5"><a xlink:href="classbsc_1_1kernel__base.html" target="_top" xlink:title="bsc::kernel_base">
<polygon fill="white" stroke="black" points="-0.5,-246.5 -0.5,-265.5 90.5,-265.5 90.5,-246.5 -0.5,-246.5"/>
<text text-anchor="middle" x="45" y="-253.5" font-family="Helvetica,sans-Serif" font-size="10.00">bsc::kernel_base</text>
</a>
</g>
</g>
<!-- Node5&#45;&gt;Node4 -->
<g id="edge4" class="edge"><title>Node5&#45;&gt;Node4</title>
<path fill="none" stroke="midnightblue" d="M60.9584,-239.042C71.2214,-228.779 84.1508,-215.849 92.4948,-207.505"/>
<polygon fill="midnightblue" stroke="midnightblue" points="58.3462,-236.704 53.75,-246.25 63.296,-241.654 58.3462,-236.704"/>
</g>
<!-- Node6 -->
<g id="node6" class="node"><title>Node6</title>
<g id="a_node6"><a xlink:href="classbsc_1_1kernel__header.html" target="_top" xlink:title="bsc::kernel_header">
<polygon fill="white" stroke="black" points="108.5,-246.5 108.5,-265.5 207.5,-265.5 207.5,-246.5 108.5,-246.5"/>
<text text-anchor="middle" x="158" y="-253.5" font-family="Helvetica,sans-Serif" font-size="10.00">bsc::kernel_header</text>
</a>
</g>
</g>
<!-- Node6&#45;&gt;Node4 -->
<g id="edge5" class="edge"><title>Node6&#45;&gt;Node4</title>
<path fill="none" stroke="midnightblue" d="M141.757,-239.042C131.31,-228.779 118.15,-215.849 109.657,-207.505"/>
<polygon fill="midnightblue" stroke="midnightblue" points="139.507,-241.738 149.094,-246.25 144.413,-236.745 139.507,-241.738"/>
</g>
</g>
</svg>
