<?xml version="1.0" encoding="UTF-8" standalone="no"?>
<!DOCTYPE svg PUBLIC "-//W3C//DTD SVG 1.1//EN"
 "http://www.w3.org/Graphics/SVG/1.1/DTD/svg11.dtd">
<!-- Generated by graphviz version 2.36.0 (20140111.2315)
 -->
<!-- Title: sys::basic_packetstream&lt; Ch, Tr, Size &gt; Pages: 1 -->
<svg width="257pt" height="108pt"
 viewBox="0.00 0.00 257.00 108.00" xmlns="http://www.w3.org/2000/svg" xmlns:xlink="http://www.w3.org/1999/xlink">
<g id="graph0" class="graph" transform="scale(1 1) rotate(0) translate(4 104)">
<title>sys::basic_packetstream&lt; Ch, Tr, Size &gt;</title>
<polygon fill="white" stroke="none" points="-4,4 -4,-104 253,-104 253,4 -4,4"/>
<!-- Node1 -->
<g id="node1" class="node"><title>Node1</title>
<polygon fill="#bfbfbf" stroke="black" points="62,-69 62,-99 188,-99 188,-69 62,-69"/>
<text text-anchor="start" x="70" y="-87" font-family="Helvetica,sans-Serif" font-size="10.00">sys::basic_packetstream</text>
<text text-anchor="middle" x="125" y="-76" font-family="Helvetica,sans-Serif" font-size="10.00">&lt; Ch, Tr, Size &gt;</text>
</g>
<!-- Node2 -->
<g id="node2" class="node"><title>Node2</title>
<g id="a_node2"><a xlink:href="structfactory_1_1Kernel__stream.html" target="_top" xlink:title="factory::Kernel_stream\l\&lt; char \&gt;">
<polygon fill="white" stroke="black" points="0,-1 0,-31 116,-31 116,-1 0,-1"/>
<text text-anchor="start" x="8" y="-19" font-family="Helvetica,sans-Serif" font-size="10.00">factory::Kernel_stream</text>
<text text-anchor="middle" x="58" y="-8" font-family="Helvetica,sans-Serif" font-size="10.00">&lt; char &gt;</text>
</a>
</g>
</g>
<!-- Node1&#45;&gt;Node2 -->
<g id="edge1" class="edge"><title>Node1&#45;&gt;Node2</title>
<path fill="none" stroke="midnightblue" d="M103.16,-61.4855C93.1092,-51.5852 81.4593,-40.1092 72.5096,-31.2931"/>
<polygon fill="midnightblue" stroke="midnightblue" points="100.882,-64.1547 110.462,-68.679 105.794,-59.1678 100.882,-64.1547"/>
</g>
<!-- Node3 -->
<g id="node3" class="node"><title>Node3</title>
<g id="a_node3"><a xlink:href="structfactory_1_1Kernel__stream.html" target="_top" xlink:title="Kernel_stream\&lt; kernel\l_type \&gt;">
<polygon fill="white" stroke="black" points="134.5,-1 134.5,-31 249.5,-31 249.5,-1 134.5,-1"/>
<text text-anchor="start" x="142.5" y="-19" font-family="Helvetica,sans-Serif" font-size="10.00">Kernel_stream&lt; kernel</text>
<text text-anchor="middle" x="192" y="-8" font-family="Helvetica,sans-Serif" font-size="10.00">_type &gt;</text>
</a>
</g>
</g>
<!-- Node1&#45;&gt;Node3 -->
<g id="edge2" class="edge"><title>Node1&#45;&gt;Node3</title>
<path fill="none" stroke="midnightblue" d="M146.84,-61.4855C156.891,-51.5852 168.541,-40.1092 177.49,-31.2931"/>
<polygon fill="midnightblue" stroke="midnightblue" points="144.206,-59.1678 139.538,-68.679 149.118,-64.1547 144.206,-59.1678"/>
</g>
</g>
</svg>
