<?xml version="1.0" encoding="UTF-8" standalone="no"?>
<!DOCTYPE svg PUBLIC "-//W3C//DTD SVG 1.1//EN"
 "http://www.w3.org/Graphics/SVG/1.1/DTD/svg11.dtd">
<!-- Generated by graphviz version 2.36.0 (20140111.2315)
 -->
<!-- Title: factory::Process_iserver&lt; T, Router &gt; Pages: 1 -->
<svg width="130pt" height="252pt"
 viewBox="0.00 0.00 130.00 252.00" xmlns="http://www.w3.org/2000/svg" xmlns:xlink="http://www.w3.org/1999/xlink">
<g id="graph0" class="graph" transform="scale(1 1) rotate(0) translate(4 248)">
<title>factory::Process_iserver&lt; T, Router &gt;</title>
<polygon fill="white" stroke="none" points="-4,4 -4,-248 126,-248 126,4 -4,4"/>
<!-- Node1 -->
<g id="node1" class="node"><title>Node1</title>
<polygon fill="#bfbfbf" stroke="black" points="-0.5,-1 -0.5,-31 122.5,-31 122.5,-1 -0.5,-1"/>
<text text-anchor="start" x="7.5" y="-19" font-family="Helvetica,sans-Serif" font-size="10.00">factory::Process_iserver</text>
<text text-anchor="middle" x="61" y="-8" font-family="Helvetica,sans-Serif" font-size="10.00">&lt; T, Router &gt;</text>
</g>
<!-- Node2 -->
<g id="node2" class="node"><title>Node2</title>
<g id="a_node2"><a xlink:href="structfactory_1_1Proxy__server.html" target="_top" xlink:title="factory::Proxy_server\l\&lt; T, Process_rserver\l\&lt; T, Router \&gt; \&gt;">
<polygon fill="white" stroke="black" points="6,-68.5 6,-109.5 116,-109.5 116,-68.5 6,-68.5"/>
<text text-anchor="start" x="14" y="-97.5" font-family="Helvetica,sans-Serif" font-size="10.00">factory::Proxy_server</text>
<text text-anchor="start" x="14" y="-86.5" font-family="Helvetica,sans-Serif" font-size="10.00">&lt; T, Process_rserver</text>
<text text-anchor="middle" x="61" y="-75.5" font-family="Helvetica,sans-Serif" font-size="10.00">&lt; T, Router &gt; &gt;</text>
</a>
</g>
</g>
<!-- Node2&#45;&gt;Node1 -->
<g id="edge1" class="edge"><title>Node2&#45;&gt;Node1</title>
<path fill="none" stroke="midnightblue" d="M61,-58.0188C61,-48.6567 61,-38.7696 61,-31.0485"/>
<polygon fill="midnightblue" stroke="midnightblue" points="57.5001,-58.2225 61,-68.2225 64.5001,-58.2226 57.5001,-58.2225"/>
</g>
<!-- Node3 -->
<g id="node3" class="node"><title>Node3</title>
<g id="a_node3"><a xlink:href="structfactory_1_1Server__with__pool.html" target="_top" xlink:title="Proxy_server_base\&lt;\l T, Process_rserver\l\&lt; T, Router \&gt; &#160;\&gt;">
<polygon fill="white" stroke="black" points="7.5,-146.5 7.5,-187.5 114.5,-187.5 114.5,-146.5 7.5,-146.5"/>
<text text-anchor="start" x="15.5" y="-175.5" font-family="Helvetica,sans-Serif" font-size="10.00">Proxy_server_base&lt;</text>
<text text-anchor="start" x="15.5" y="-164.5" font-family="Helvetica,sans-Serif" font-size="10.00"> T, Process_rserver</text>
<text text-anchor="middle" x="61" y="-153.5" font-family="Helvetica,sans-Serif" font-size="10.00">&lt; T, Router &gt; &gt;</text>
</a>
</g>
</g>
<!-- Node3&#45;&gt;Node2 -->
<g id="edge2" class="edge"><title>Node3&#45;&gt;Node2</title>
<path fill="none" stroke="midnightblue" d="M61,-136.297C61,-127.301 61,-117.653 61,-109.506"/>
<polygon fill="midnightblue" stroke="midnightblue" points="57.5001,-136.428 61,-146.428 64.5001,-136.428 57.5001,-136.428"/>
</g>
<!-- Node4 -->
<g id="node4" class="node"><title>Node4</title>
<g id="a_node4"><a xlink:href="structfactory_1_1Server__base.html" target="_top" xlink:title="factory::Server_base">
<polygon fill="white" stroke="black" points="7.5,-224.5 7.5,-243.5 114.5,-243.5 114.5,-224.5 7.5,-224.5"/>
<text text-anchor="middle" x="61" y="-231.5" font-family="Helvetica,sans-Serif" font-size="10.00">factory::Server_base</text>
</a>
</g>
</g>
<!-- Node4&#45;&gt;Node3 -->
<g id="edge3" class="edge"><title>Node4&#45;&gt;Node3</title>
<path fill="none" stroke="midnightblue" d="M61,-214.037C61,-205.708 61,-195.936 61,-187.542"/>
<polygon fill="midnightblue" stroke="midnightblue" points="57.5001,-214.234 61,-224.234 64.5001,-214.234 57.5001,-214.234"/>
</g>
</g>
</svg>
