<?xml version="1.0" encoding="UTF-8" standalone="no"?>
<!DOCTYPE svg PUBLIC "-//W3C//DTD SVG 1.1//EN"
 "http://www.w3.org/Graphics/SVG/1.1/DTD/svg11.dtd">
<!-- Generated by graphviz version 2.36.0 (20140111.2315)
 -->
<!-- Title: Kernel_that_carries_its_parent Pages: 1 -->
<svg width="243pt" height="216pt"
 viewBox="0.00 0.00 243.00 216.00" xmlns="http://www.w3.org/2000/svg" xmlns:xlink="http://www.w3.org/1999/xlink">
<g id="graph0" class="graph" transform="scale(1 1) rotate(0) translate(4 212)">
<title>Kernel_that_carries_its_parent</title>
<polygon fill="white" stroke="none" points="-4,4 -4,-212 239,-212 239,4 -4,4"/>
<!-- Node1 -->
<g id="node1" class="node"><title>Node1</title>
<polygon fill="#bfbfbf" stroke="black" points="64.5,-1 64.5,-31 165.5,-31 165.5,-1 64.5,-1"/>
<text text-anchor="start" x="72.5" y="-19" font-family="Helvetica,sans-Serif" font-size="10.00">Kernel_that_carries</text>
<text text-anchor="middle" x="115" y="-8" font-family="Helvetica,sans-Serif" font-size="10.00">_its_parent</text>
</g>
<!-- Node2 -->
<g id="node2" class="node"><title>Node2</title>
<g id="a_node2"><a xlink:href="structfactory_1_1Kernel.html" target="_top" xlink:title="factory::Kernel">
<polygon fill="white" stroke="black" points="75,-71.5 75,-90.5 155,-90.5 155,-71.5 75,-71.5"/>
<text text-anchor="middle" x="115" y="-78.5" font-family="Helvetica,sans-Serif" font-size="10.00">factory::Kernel</text>
</a>
</g>
</g>
<!-- Node2&#45;&gt;Node1 -->
<g id="edge1" class="edge"><title>Node2&#45;&gt;Node1</title>
<path fill="none" stroke="midnightblue" d="M115,-61.0429C115,-51.3877 115,-39.8535 115,-31.0111"/>
<polygon fill="midnightblue" stroke="midnightblue" points="111.5,-61.2401 115,-71.2401 118.5,-61.2402 111.5,-61.2401"/>
</g>
<!-- Node2&#45;&gt;Node2 -->
<g id="edge5" class="edge"><title>Node2&#45;&gt;Node2</title>
<path fill="none" stroke="#9a32cd" stroke-dasharray="5,2" d="M165.265,-85.5193C170.005,-84.5938 173,-83.0874 173,-81 173,-77.6602 165.332,-75.8076 155.119,-75.4423"/>
<polygon fill="#9a32cd" stroke="#9a32cd" points="164.71,-82.0577 155.119,-86.5577 165.423,-89.0213 164.71,-82.0577"/>
<text text-anchor="middle" x="195.5" y="-84" font-family="Helvetica,sans-Serif" font-size="10.00"> _principal</text>
<text text-anchor="middle" x="195.5" y="-73" font-family="Helvetica,sans-Serif" font-size="10.00">_parent</text>
</g>
<!-- Node3 -->
<g id="node3" class="node"><title>Node3</title>
<g id="a_node3"><a xlink:href="classfactory_1_1mobile__kernel.html" target="_top" xlink:title="factory::mobile_kernel">
<polygon fill="white" stroke="black" points="58.5,-130.5 58.5,-149.5 171.5,-149.5 171.5,-130.5 58.5,-130.5"/>
<text text-anchor="middle" x="115" y="-137.5" font-family="Helvetica,sans-Serif" font-size="10.00">factory::mobile_kernel</text>
</a>
</g>
</g>
<!-- Node3&#45;&gt;Node2 -->
<g id="edge2" class="edge"><title>Node3&#45;&gt;Node2</title>
<path fill="none" stroke="midnightblue" d="M115,-119.933C115,-110.024 115,-98.4007 115,-90.6571"/>
<polygon fill="midnightblue" stroke="midnightblue" points="111.5,-120.094 115,-130.094 118.5,-120.094 111.5,-120.094"/>
</g>
<!-- Node4 -->
<g id="node4" class="node"><title>Node4</title>
<g id="a_node4"><a xlink:href="classfactory_1_1kernel__base.html" target="_top" xlink:title="factory::kernel_base">
<polygon fill="white" stroke="black" points="-0.5,-188.5 -0.5,-207.5 104.5,-207.5 104.5,-188.5 -0.5,-188.5"/>
<text text-anchor="middle" x="52" y="-195.5" font-family="Helvetica,sans-Serif" font-size="10.00">factory::kernel_base</text>
</a>
</g>
</g>
<!-- Node4&#45;&gt;Node3 -->
<g id="edge3" class="edge"><title>Node4&#45;&gt;Node3</title>
<path fill="none" stroke="midnightblue" d="M69.3239,-181.601C80.9298,-171.285 95.7798,-158.085 105.342,-149.585"/>
<polygon fill="midnightblue" stroke="midnightblue" points="66.7172,-179.235 61.5683,-188.495 71.3677,-184.467 66.7172,-179.235"/>
</g>
<!-- Node5 -->
<g id="node5" class="node"><title>Node5</title>
<g id="a_node5"><a xlink:href="classfactory_1_1kernel__header.html" target="_top" xlink:title="factory::kernel_header">
<polygon fill="white" stroke="black" points="122.5,-188.5 122.5,-207.5 235.5,-207.5 235.5,-188.5 122.5,-188.5"/>
<text text-anchor="middle" x="179" y="-195.5" font-family="Helvetica,sans-Serif" font-size="10.00">factory::kernel_header</text>
</a>
</g>
</g>
<!-- Node5&#45;&gt;Node3 -->
<g id="edge4" class="edge"><title>Node5&#45;&gt;Node3</title>
<path fill="none" stroke="midnightblue" d="M161.744,-181.901C149.904,-171.541 134.62,-158.167 124.812,-149.585"/>
<polygon fill="midnightblue" stroke="midnightblue" points="159.449,-184.544 169.28,-188.495 164.059,-179.276 159.449,-184.544"/>
</g>
</g>
</svg>
