<?xml version="1.0" encoding="UTF-8" standalone="no"?>
<!DOCTYPE svg PUBLIC "-//W3C//DTD SVG 1.1//EN"
 "http://www.w3.org/Graphics/SVG/1.1/DTD/svg11.dtd">
<!-- Generated by graphviz version 2.36.0 (20140111.2315)
 -->
<!-- Title: factory::basic_socket_pipeline&lt; T, Handler &gt; Pages: 1 -->
<svg width="405pt" height="178pt"
 viewBox="0.00 0.00 405.00 178.00" xmlns="http://www.w3.org/2000/svg" xmlns:xlink="http://www.w3.org/1999/xlink">
<g id="graph0" class="graph" transform="scale(1 1) rotate(0) translate(4 174)">
<title>factory::basic_socket_pipeline&lt; T, Handler &gt;</title>
<polygon fill="white" stroke="none" points="-4,4 -4,-174 401,-174 401,4 -4,4"/>
<!-- Node1 -->
<g id="node1" class="node"><title>Node1</title>
<polygon fill="#bfbfbf" stroke="black" points="169.5,-1 169.5,-31 288.5,-31 288.5,-1 169.5,-1"/>
<text text-anchor="start" x="177.5" y="-19" font-family="Helvetica,sans-Serif" font-size="10.00">factory::basic_socket</text>
<text text-anchor="middle" x="229" y="-8" font-family="Helvetica,sans-Serif" font-size="10.00">_pipeline&lt; T, Handler &gt;</text>
</g>
<!-- Node2 -->
<g id="node2" class="node"><title>Node2</title>
<g id="a_node2"><a xlink:href="classfactory_1_1basic__pipeline.html" target="_top" xlink:title="Proxy_pipeline_base\l\&lt; T, Handler \&gt;">
<polygon fill="white" stroke="black" points="175.5,-71 175.5,-101 282.5,-101 282.5,-71 175.5,-71"/>
<text text-anchor="start" x="183.5" y="-89" font-family="Helvetica,sans-Serif" font-size="10.00">Proxy_pipeline_base</text>
<text text-anchor="middle" x="229" y="-78" font-family="Helvetica,sans-Serif" font-size="10.00">&lt; T, Handler &gt;</text>
</a>
</g>
</g>
<!-- Node2&#45;&gt;Node1 -->
<g id="edge1" class="edge"><title>Node2&#45;&gt;Node1</title>
<path fill="none" stroke="midnightblue" d="M229,-60.7688C229,-50.8141 229,-39.6384 229,-31.0716"/>
<polygon fill="midnightblue" stroke="midnightblue" points="225.5,-60.9103 229,-70.9104 232.5,-60.9104 225.5,-60.9103"/>
</g>
<!-- Node3 -->
<g id="node3" class="node"><title>Node3</title>
<g id="a_node3"><a xlink:href="structfactory_1_1pipeline__base.html" target="_top" xlink:title="factory::pipeline_base">
<polygon fill="white" stroke="black" points="0,-150.5 0,-169.5 112,-169.5 112,-150.5 0,-150.5"/>
<text text-anchor="middle" x="56" y="-157.5" font-family="Helvetica,sans-Serif" font-size="10.00">factory::pipeline_base</text>
</a>
</g>
</g>
<!-- Node3&#45;&gt;Node2 -->
<g id="edge2" class="edge"><title>Node3&#45;&gt;Node2</title>
<path fill="none" stroke="midnightblue" d="M85.7684,-146.611C116.175,-133.956 163.313,-114.338 195.129,-101.097"/>
<polygon fill="midnightblue" stroke="midnightblue" points="84.4122,-143.384 76.5247,-150.458 87.1019,-149.847 84.4122,-143.384"/>
</g>
<!-- Node4 -->
<g id="node4" class="node"><title>Node4</title>
<polygon fill="white" stroke="#bfbfbf" points="130,-150.5 130,-169.5 180,-169.5 180,-150.5 130,-150.5"/>
<text text-anchor="middle" x="155" y="-157.5" font-family="Helvetica,sans-Serif" font-size="10.00">Kernels</text>
</g>
<!-- Node4&#45;&gt;Node2 -->
<g id="edge3" class="edge"><title>Node4&#45;&gt;Node2</title>
<path fill="none" stroke="#9a32cd" stroke-dasharray="5,2" d="M166.465,-142.07C171.707,-134.895 178.249,-126.669 185,-120 191.929,-113.155 200.321,-106.526 207.911,-101.027"/>
<polygon fill="#9a32cd" stroke="#9a32cd" points="163.496,-140.208 160.602,-150.4 169.22,-144.237 163.496,-140.208"/>
<text text-anchor="middle" x="205" y="-123.5" font-family="Helvetica,sans-Serif" font-size="10.00"> _kernels</text>
</g>
<!-- Node5 -->
<g id="node5" class="node"><title>Node5</title>
<polygon fill="white" stroke="#bfbfbf" points="198,-150.5 198,-169.5 264,-169.5 264,-150.5 198,-150.5"/>
<text text-anchor="middle" x="231" y="-157.5" font-family="Helvetica,sans-Serif" font-size="10.00">Semaphore</text>
</g>
<!-- Node5&#45;&gt;Node2 -->
<g id="edge4" class="edge"><title>Node5&#45;&gt;Node2</title>
<path fill="none" stroke="#9a32cd" stroke-dasharray="5,2" d="M230.274,-140.374C230.175,-137.568 230.08,-134.708 230,-132 229.695,-121.689 229.438,-110.048 229.262,-101.189"/>
<polygon fill="#9a32cd" stroke="#9a32cd" points="226.781,-140.627 230.652,-150.489 233.776,-140.365 226.781,-140.627"/>
<text text-anchor="middle" x="258.5" y="-123.5" font-family="Helvetica,sans-Serif" font-size="10.00"> _semaphore</text>
</g>
<!-- Node6 -->
<g id="node6" class="node"><title>Node6</title>
<polygon fill="white" stroke="#bfbfbf" points="283,-150.5 283,-169.5 335,-169.5 335,-150.5 283,-150.5"/>
<text text-anchor="middle" x="309" y="-157.5" font-family="Helvetica,sans-Serif" font-size="10.00">Threads</text>
</g>
<!-- Node6&#45;&gt;Node2 -->
<g id="edge5" class="edge"><title>Node6&#45;&gt;Node2</title>
<path fill="none" stroke="#9a32cd" stroke-dasharray="5,2" d="M301.334,-140.832C297.722,-133.745 292.898,-125.92 287,-120 279.559,-112.532 270.079,-106.203 260.951,-101.147"/>
<polygon fill="#9a32cd" stroke="#9a32cd" points="298.372,-142.766 305.743,-150.377 304.727,-139.831 298.372,-142.766"/>
<text text-anchor="middle" x="316.5" y="-123.5" font-family="Helvetica,sans-Serif" font-size="10.00"> _threads</text>
</g>
<!-- Node7 -->
<g id="node7" class="node"><title>Node7</title>
<polygon fill="white" stroke="#bfbfbf" points="353,-150.5 353,-169.5 397,-169.5 397,-150.5 353,-150.5"/>
<text text-anchor="middle" x="375" y="-157.5" font-family="Helvetica,sans-Serif" font-size="10.00">Mutex</text>
</g>
<!-- Node7&#45;&gt;Node2 -->
<g id="edge6" class="edge"><title>Node7&#45;&gt;Node2</title>
<path fill="none" stroke="#9a32cd" stroke-dasharray="5,2" d="M363.553,-141.899C357.634,-134.224 349.805,-125.645 341,-120 323.509,-108.785 302.069,-101.26 282.647,-96.2689"/>
<polygon fill="#9a32cd" stroke="#9a32cd" points="360.889,-144.189 369.569,-150.264 366.572,-140.102 360.889,-144.189"/>
<text text-anchor="middle" x="372" y="-123.5" font-family="Helvetica,sans-Serif" font-size="10.00"> _mutex</text>
</g>
</g>
</svg>
