<?xml version="1.0" encoding="UTF-8" standalone="no"?>
<!DOCTYPE svg PUBLIC "-//W3C//DTD SVG 1.1//EN"
 "http://www.w3.org/Graphics/SVG/1.1/DTD/svg11.dtd">
<!-- Generated by graphviz version 2.38.0 (20140413.2041)
 -->
<!-- Title: factory::CPU_server&lt; T &gt; Pages: 1 -->
<svg width="184pt" height="231pt"
 viewBox="0.00 0.00 183.50 231.00" xmlns="http://www.w3.org/2000/svg" xmlns:xlink="http://www.w3.org/1999/xlink">
<g id="graph0" class="graph" transform="scale(1 1) rotate(0) translate(4 227)">
<title>factory::CPU_server&lt; T &gt;</title>
<polygon fill="white" stroke="none" points="-4,4 -4,-227 179.5,-227 179.5,4 -4,4"/>
<!-- Node1 -->
<g id="node1" class="node"><title>Node1</title>
<polygon fill="#bfbfbf" stroke="black" points="36,-0.5 36,-19.5 167,-19.5 167,-0.5 36,-0.5"/>
<text text-anchor="middle" x="101.5" y="-7.5" font-family="Helvetica,sans-Serif" font-size="10.00">factory::CPU_server&lt; T &gt;</text>
</g>
<!-- Node2 -->
<g id="node2" class="node"><title>Node2</title>
<g id="a_node2"><a xlink:href="structfactory_1_1Basic__CPU__server.html" target="_top" xlink:title="factory::Basic_CPU\l_server\&lt; T \&gt;">
<polygon fill="white" stroke="black" points="49.5,-57.5 49.5,-87.5 153.5,-87.5 153.5,-57.5 49.5,-57.5"/>
<text text-anchor="start" x="57.5" y="-75.5" font-family="Helvetica,sans-Serif" font-size="10.00">factory::Basic_CPU</text>
<text text-anchor="middle" x="101.5" y="-64.5" font-family="Helvetica,sans-Serif" font-size="10.00">_server&lt; T &gt;</text>
</a>
</g>
</g>
<!-- Node2&#45;&gt;Node1 -->
<g id="edge1" class="edge"><title>Node2&#45;&gt;Node1</title>
<path fill="none" stroke="midnightblue" d="M101.5,-47.3524C101.5,-37.5132 101.5,-26.7753 101.5,-19.5399"/>
<polygon fill="midnightblue" stroke="midnightblue" points="98.0001,-47.468 101.5,-57.468 105,-47.4681 98.0001,-47.468"/>
</g>
<!-- Node3 -->
<g id="node3" class="node"><title>Node3</title>
<g id="a_node3"><a xlink:href="structfactory_1_1Server__with__pool.html" target="_top" xlink:title="Standard_server_with\l_pool\&lt; T \&gt;">
<polygon fill="white" stroke="black" points="46,-125.5 46,-155.5 157,-155.5 157,-125.5 46,-125.5"/>
<text text-anchor="start" x="54" y="-143.5" font-family="Helvetica,sans-Serif" font-size="10.00">Standard_server_with</text>
<text text-anchor="middle" x="101.5" y="-132.5" font-family="Helvetica,sans-Serif" font-size="10.00">_pool&lt; T &gt;</text>
</a>
</g>
</g>
<!-- Node3&#45;&gt;Node2 -->
<g id="edge2" class="edge"><title>Node3&#45;&gt;Node2</title>
<path fill="none" stroke="midnightblue" d="M101.5,-115.032C101.5,-105.861 101.5,-95.7449 101.5,-87.7931"/>
<polygon fill="midnightblue" stroke="midnightblue" points="98.0001,-115.179 101.5,-125.179 105,-115.179 98.0001,-115.179"/>
</g>
<!-- Node4 -->
<g id="node4" class="node"><title>Node4</title>
<g id="a_node4"><a xlink:href="structfactory_1_1Server__base.html" target="_top" xlink:title="factory::Server_base">
<polygon fill="white" stroke="black" points="0,-203.5 0,-222.5 107,-222.5 107,-203.5 0,-203.5"/>
<text text-anchor="middle" x="53.5" y="-210.5" font-family="Helvetica,sans-Serif" font-size="10.00">factory::Server_base</text>
</a>
</g>
</g>
<!-- Node4&#45;&gt;Node3 -->
<g id="edge3" class="edge"><title>Node4&#45;&gt;Node3</title>
<path fill="none" stroke="midnightblue" d="M65.048,-195.039C73.2664,-182.968 84.1792,-166.94 91.9162,-155.576"/>
<polygon fill="midnightblue" stroke="midnightblue" points="62.1206,-193.12 59.3857,-203.355 67.9068,-197.059 62.1206,-193.12"/>
</g>
<!-- Node5 -->
<g id="node5" class="node"><title>Node5</title>
<polygon fill="white" stroke="#bfbfbf" points="125.5,-203.5 125.5,-222.5 175.5,-222.5 175.5,-203.5 125.5,-203.5"/>
<text text-anchor="middle" x="150.5" y="-210.5" font-family="Helvetica,sans-Serif" font-size="10.00">Kernels</text>
</g>
<!-- Node5&#45;&gt;Node3 -->
<g id="edge4" class="edge"><title>Node5&#45;&gt;Node3</title>
<path fill="none" stroke="#9a32cd" stroke-dasharray="5,2" d="M138.711,-195.039C130.322,-182.968 119.182,-166.94 111.283,-155.576"/>
<polygon fill="#9a32cd" stroke="#9a32cd" points="135.91,-197.141 144.492,-203.355 141.658,-193.146 135.91,-197.141"/>
<text text-anchor="middle" x="150.5" y="-177" font-family="Helvetica,sans-Serif" font-size="10.00"> _kernels</text>
</g>
</g>
</svg>
